%FSTAX23Y23*%
%MOIN*%
%SFA1B1*%

%IPPOS*%
%ADD17R,0.039370X0.043307*%
%ADD23R,0.043307X0.055118*%
%ADD24R,0.043307X0.039370*%
%ADD80R,0.055118X0.043307*%
%ADD81R,0.025591X0.060039*%
%ADD82R,0.060039X0.025591*%
%ADD83R,0.060157X0.017126*%
%ADD84R,0.096850X0.139764*%
%ADD85R,0.058071X0.017716*%
%ADD86R,0.139764X0.096850*%
%ADD87R,0.017716X0.058071*%
%ADD88R,0.048031X0.023622*%
%ADD89R,0.068898X0.044882*%
%LNlebot-1*%
%LPD*%
G54D17*
X01287Y00733D03*
X01354D03*
X01249Y01087D03*
X01182D03*
X01167Y00733D03*
X01234D03*
X00822Y00259D03*
X00889D03*
X01116Y00218D03*
X01183D03*
X01238Y00474D03*
X01171D03*
X0096Y00472D03*
X00893D03*
X02203Y00139D03*
X02136D03*
X02097Y00224D03*
X0203D03*
X02202Y00668D03*
X02135D03*
X02096Y00739D03*
X02029D03*
G54D23*
X0135Y00153D03*
X01409D03*
Y00224D03*
X0135D03*
G54D24*
X0135Y00958D03*
Y01025D03*
X01074Y00859D03*
Y00926D03*
X01015Y00859D03*
Y00926D03*
X01338Y00328D03*
Y00395D03*
X01425Y00431D03*
Y00498D03*
X00645Y00893D03*
Y0096D03*
X00389Y01041D03*
Y00974D03*
G54D80*
X015Y00895D03*
Y00836D03*
X0157Y00891D03*
Y00832D03*
X0135Y00895D03*
Y00836D03*
X01425Y00895D03*
Y00836D03*
Y00962D03*
Y01021D03*
G54D81*
X01282Y00807D03*
X01232D03*
X01182D03*
X01132D03*
Y01021D03*
X01182D03*
X01232D03*
X01282D03*
G54D82*
X00964Y00271D03*
Y00321D03*
Y00371D03*
Y00421D03*
X01177D03*
Y00371D03*
Y00321D03*
Y00271D03*
G54D83*
X01177Y00518D03*
Y00543D03*
Y00568D03*
Y00593D03*
Y00618D03*
Y00643D03*
Y00668D03*
Y00693D03*
X00964D03*
Y00668D03*
Y00643D03*
Y00618D03*
Y00593D03*
Y00568D03*
Y00543D03*
Y00518D03*
G54D84*
X01641Y00421D03*
G54D85*
X01525Y0051D03*
Y00485D03*
Y00459D03*
Y00434D03*
Y00408D03*
Y00382D03*
Y00357D03*
Y00331D03*
X01756D03*
Y00357D03*
Y00382D03*
Y00408D03*
Y00434D03*
Y00459D03*
Y00485D03*
Y0051D03*
G54D86*
X02107Y00441D03*
X02106Y00955D03*
G54D87*
X02017Y00325D03*
X02043D03*
X02068D03*
X02094D03*
X0212D03*
X02145D03*
X02171D03*
X02196D03*
Y00557D03*
X02171D03*
X02145D03*
X0212D03*
X02094D03*
X02068D03*
X02043D03*
X02017D03*
X02016Y0084D03*
X02042D03*
X02067D03*
X02093D03*
X02119D03*
X02144D03*
X0217D03*
X02195D03*
Y01071D03*
X0217D03*
X02144D03*
X02119D03*
X02093D03*
X02067D03*
X02042D03*
X02016D03*
G54D88*
X0048Y00969D03*
Y01006D03*
Y01043D03*
X00583D03*
Y00969D03*
G54D89*
X00312Y00947D03*
Y0083D03*
M02*