%FSTAX23Y23*%
%MOIN*%
%SFA1B1*%

%IPPOS*%
%ADD12C,0.015748*%
%ADD16C,0.010000*%
%ADD17R,0.039370X0.043307*%
%ADD18R,0.041339X0.023622*%
%ADD19R,0.016929X0.013780*%
%ADD20R,0.043307X0.049212*%
%ADD21R,0.025984X0.013780*%
%ADD22R,0.080709X0.098425*%
%ADD23R,0.043307X0.055118*%
%ADD24R,0.043307X0.039370*%
%ADD25R,0.058071X0.023622*%
%ADD26R,0.023622X0.058071*%
%ADD27R,0.157480X0.157480*%
%ADD28R,0.051181X0.017716*%
%ADD29R,0.023622X0.048031*%
%ADD30R,0.049212X0.043307*%
%ADD31R,0.078740X0.039370*%
%ADD32R,0.078740X0.039370*%
%ADD61C,0.059055*%
%ADD62C,0.039370*%
%ADD63C,0.023622*%
%ADD64C,0.019685*%
%ADD65C,0.078740*%
%ADD66C,0.011811*%
%ADD67C,0.031496*%
%ADD68R,0.053464X0.053464*%
%ADD69C,0.053464*%
%ADD70C,0.061024*%
%ADD71R,0.045275X0.045275*%
%ADD72C,0.045275*%
%ADD73R,0.045275X0.045275*%
%ADD74O,0.078740X0.057087*%
%ADD75O,0.070866X0.045275*%
%ADD76C,0.039370*%
%ADD77R,0.039370X0.039370*%
%ADD78R,0.039370X0.039370*%
%ADD79C,0.027559*%
%LNlebot-1*%
%LPD*%
G36*
X02392Y01085D02*
Y0011D01*
X02312Y0003*
X01171*
X01169Y00035*
X01178Y00042*
X01186Y00052*
X01191Y00065*
X01193Y00078*
X01191Y00092*
X01186Y00104*
X01178Y00115*
X01167Y00123*
X01155Y00128*
X01141Y0013*
X01128Y00128*
X01115Y00123*
X01105Y00115*
X01097Y00104*
X01096Y00103*
X01091Y00104*
Y007*
X00898Y00893*
Y01062*
X00961Y01125*
X00983Y01146*
X01816*
X01817Y01141*
X01813Y01138*
X01805Y01128*
X018Y01115*
X01798Y01102*
X018Y01089*
X01805Y01076*
X01813Y01065*
X01824Y01057*
X01837Y01052*
X0185Y0105*
X01863Y01052*
X01876Y01057*
X01886Y01065*
X01895Y01076*
X019Y01089*
X01902Y01102*
X019Y01115*
X01895Y01128*
X01886Y01138*
X01882Y01141*
X01884Y01146*
X02039*
X02041Y01141*
X02039Y0114*
X02034Y01133*
X02033Y01125*
X02034Y01116*
X02039Y01109*
X02041Y01107*
Y01097*
X02033*
Y01042*
X02092*
X02139*
X02198*
Y01097*
X02175*
Y0112*
X02178Y01122*
X02182Y01129*
X02184Y01137*
X02183Y01141*
X02187Y01146*
X02331*
X02392Y01085*
G37*
G36*
X0075Y01001D02*
X00891Y00859D01*
X01Y0075*
X00999Y00745*
X00933*
Y00783*
X00864*
X00859Y00783*
X00859Y00788*
Y00857*
X00688*
Y0082*
Y00783*
X00763*
Y00751*
X00688Y00675*
X00682Y00676*
X00681Y00681*
X00677Y00688*
X00669Y00693*
X00661Y00695*
X00657Y00694*
X00653Y00698*
X00653Y007*
X00652Y00706*
X00656Y0071*
X00657Y0071*
X00665Y00711*
X00673Y00716*
X00677Y00723*
X00679Y00732*
X00677Y0074*
X00673Y00747*
X00665Y00752*
X00657Y00754*
X00649Y00752*
X00641Y00747*
X0064Y00745*
X00599*
Y00778*
X00599Y00783*
X00604Y00783*
X00613*
Y00814*
X00599*
Y00788*
Y00787*
X00594Y00785*
X00592Y00787*
Y00836*
Y00841*
Y009*
X00584*
X00582Y00905*
X00583Y00907*
X00585Y00916*
X00583Y00924*
X00579Y00931*
X00571Y00936*
X00563Y00938*
X00555Y00936*
X00547Y00931*
X00543Y00924*
X00541Y00916*
X00543Y00907*
X00544Y00905*
X00541Y009*
X00537*
Y00841*
Y00783*
X0053*
X00526*
X00525Y00788*
Y00806*
X00503*
Y00782*
X00521*
X00525*
X00526Y00777*
Y00744*
Y00712*
Y00681*
Y0065*
X00489*
X00433Y00707*
Y00722*
X00439*
Y00786*
X00423*
X00406Y00802*
X00402Y00805*
X004Y00805*
X00398Y00811*
X00401Y00816*
X00403Y00824*
X00403Y00825*
X00439*
Y00889*
X00402*
Y00898*
X00402Y009*
X00402Y00905*
X00401Y00912*
X00399Y00919*
X00394Y00925*
X00389Y0093*
X00383Y00934*
X00377Y00937*
X0037Y00938*
X00327*
X00294Y00971*
X00288Y00975*
X00281Y00978*
X00274Y00979*
X00224*
X00217Y00978*
X0021Y00975*
X00206Y00972*
X00203Y00976*
X00205Y0098*
X00207Y00989*
X00206Y00997*
X00208Y01001*
X0021Y01001*
X00214Y01001*
X00235*
X00245Y01002*
X00254Y01006*
X00261Y01012*
X00267Y01019*
X00271Y01028*
X00272Y01038*
X00271Y01047*
X00267Y01056*
X00261Y01064*
X00254Y01069*
X00245Y01073*
X00235Y01074*
X00214*
X00204Y01073*
X00195Y01069*
X00188Y01064*
X00182Y01056*
X00178Y01047*
X00177Y01038*
X00178Y01028*
X00182Y01019*
X00183Y01018*
X0018Y01013*
X00174Y01012*
X00166Y01006*
X00161Y00999*
X00159Y00989*
X00161Y0098*
X00166Y00972*
X00174Y00967*
X00183Y00965*
X00192Y00967*
X00198Y00971*
X00201Y00967*
X002Y00965*
X00197Y00958*
X00197Y00957*
X00195*
Y00923*
Y00898*
Y00872*
Y00847*
Y00844*
X00228*
X00262*
Y00866*
X00267Y00868*
X00286Y00849*
Y00816*
X00287Y00811*
X00289Y00807*
X00325Y00772*
Y00722*
X00332*
X00332Y00719*
X00335Y00715*
X00346Y00704*
X0035Y00701*
X00355Y007*
X00377*
X00402Y00675*
X00401Y00669*
X00397Y00669*
X00394Y00667*
X00389Y0067*
Y0068*
X00295*
Y00665*
X00153*
Y0068*
X00059*
Y00625*
X00153*
Y00639*
X00295*
Y00625*
X00389*
Y00627*
X00394Y00629*
X00397Y00628*
X00405Y00626*
X00413Y00628*
X00421Y00633*
X00425Y0064*
X00426Y00644*
X00432Y00645*
X0048Y00597*
X00485Y00594*
X0049Y00593*
X00526*
Y0058*
X00523Y0058*
X00519Y00577*
X00517Y00575*
X00296*
X00291Y00574*
X00286Y00571*
X0019Y00474*
X00187Y0047*
X00186Y00465*
Y00411*
X00176Y00401*
X00175Y00401*
X00168Y00402*
X00161Y00401*
X00154Y00398*
X00149Y00394*
X00144Y00388*
X00141Y00381*
X0014Y00374*
X00141Y00367*
X00144Y0036*
X00147Y00357*
X00144Y00352*
X00141*
Y00297*
X00196*
Y003*
X00201Y00303*
X00204Y003*
X00211Y00297*
X00212Y00297*
Y00324*
X00224*
Y00297*
X00225Y00297*
X00232Y003*
X00238Y00305*
X0024Y00308*
X00246*
X00249Y00305*
X00254Y003*
X00261Y00297*
X00262Y00297*
Y00324*
X00274*
Y00297*
X00275Y00297*
X00282Y003*
X00288Y00305*
X0029Y00308*
X00296*
X00299Y00305*
X00304Y003*
X00311Y00297*
X00318Y00297*
X00325Y00297*
X00332Y003*
X00338Y00305*
X0034Y00308*
X00346*
X00349Y00305*
X00354Y003*
X00361Y00297*
X00362Y00297*
Y00324*
X00368*
Y0033*
X00395*
X00395Y00331*
X00392Y00338*
X00388Y00344*
X00385Y00346*
Y00352*
X00388Y00355*
X00392Y0036*
X00395Y00367*
X00396Y00374*
X00395Y00381*
X00392Y00388*
X00388Y00394*
X00382Y00398*
X00375Y00401*
X00368Y00402*
X00361Y00401*
X00354Y00398*
X00349Y00394*
X00346Y00391*
X0034*
X00338Y00394*
X00332Y00398*
X00325Y00401*
X00318Y00402*
X00312Y00401*
X0031Y00403*
X00309Y00406*
X00323Y00419*
X00422*
X00426Y00416*
Y00414*
Y00392*
X00458*
X00491*
Y00414*
Y00416*
X00494Y00419*
X00515*
X00518Y00416*
Y00414*
Y00361*
Y00357*
Y00352*
Y00297*
X00635*
Y00351*
Y00356*
Y00361*
Y00415*
Y00415*
X00635Y0042*
X00638Y0042*
X00643Y00423*
X0066Y00441*
X00661Y00442*
X00666Y00441*
Y00415*
X00647*
Y00361*
Y00356*
Y00297*
X00702*
Y00306*
X00704Y0031*
X0071Y00311*
X00716Y00315*
X00725Y00324*
X00727Y00327*
X00732Y00326*
Y00293*
X00733Y00288*
X00736Y00284*
X00812Y00208*
X0081Y00203*
X00805Y00204*
X00795Y00202*
X00786Y00198*
X00778Y00192*
X00771Y00184*
X00768Y00175*
X00766Y00165*
X00768Y00155*
X00771Y00145*
X00778Y00137*
X00786Y00131*
X00795Y00127*
X00805Y00126*
X00815Y00127*
X00821Y0013*
X00826Y00126*
Y001*
X00895*
Y00119*
X00899Y0012*
X00925Y00095*
X00925Y00094*
X00926Y00085*
X0093Y00077*
X00935Y00069*
X00943Y00064*
X00951Y0006*
X0096Y00059*
X00969Y0006*
X00978Y00064*
X00985Y00069*
X0099Y00077*
X00994Y00085*
X00995Y00094*
X00994Y00103*
X0099Y00111*
X00985Y00119*
X00978Y00124*
X00969Y00128*
X0096Y00129*
X00951Y00128*
X00943Y00124*
X00937Y0012*
X00902Y00155*
X00904Y0016*
X0091Y00159*
X00919Y0016*
X00928Y00164*
X00935Y00169*
X0094Y00177*
X00944Y00185*
X00945Y00194*
X00944Y00203*
X0094Y00211*
X00936Y00218*
X00937Y00223*
X00963*
X00978Y00207*
X00976Y00203*
X00975Y00194*
X00976Y00185*
X0098Y00177*
X00985Y00169*
X00993Y00164*
X01001Y0016*
X0101Y00159*
X01019Y0016*
X01028Y00164*
X01035Y00169*
X0104Y00177*
X01044Y00185*
X01045Y00194*
X01044Y00203*
X0104Y00211*
X01035Y00219*
X01028Y00224*
X01019Y00228*
X0101Y00229*
X01001Y00228*
X00997Y00226*
X00978Y00245*
X00973Y00248*
X00968Y00249*
X00838*
X0079Y00297*
Y00383*
X00791Y00387*
X00846*
Y00446*
X0085Y00449*
X00854*
X00854Y00449*
X00858Y00446*
Y00444*
Y00444*
Y00423*
X00879*
Y00446*
X00863*
X00863Y00447*
X00859Y00449*
Y00451*
Y00452*
Y0048*
X0084*
Y00492*
X00859*
Y00518*
X00859Y00523*
X00864Y00523*
X00918*
X00933Y00508*
X00931Y00503*
X00927*
Y00448*
X00966*
X00968Y00448*
X00985*
X00991Y00444*
X01Y00442*
X01008Y00444*
X01015Y00448*
X0102Y00456*
X01022Y00464*
X0102Y00473*
X01015Y0048*
X01008Y00484*
X01Y00486*
X00991Y00484*
X0099Y00484*
X00986Y00486*
Y00503*
X00975*
X00972Y00507*
X00971Y00514*
X00968Y00519*
X00933Y00553*
Y00586*
Y00609*
X00938Y00612*
X00938Y00612*
Y00578*
X00998*
Y00633*
X00959*
X00952Y00641*
X00954Y00645*
X00962*
Y00667*
X00938*
Y00657*
X00933Y00654*
X00933Y00654*
Y00681*
Y00719*
X01002*
X01034Y00687*
Y0041*
X01018Y00395*
X01015Y00396*
X01007Y00394*
X01Y00389*
X00995Y00382*
X00993Y00374*
X00995Y00365*
X01Y00358*
X01007Y00353*
X01015Y00351*
X01024Y00353*
X01031Y00358*
X01036Y00365*
X01037Y00374*
X01037Y00376*
X0105Y0039*
X01055Y00388*
Y00089*
X01008Y00043*
X00118*
X00028Y00132*
Y00728*
X00033Y00729*
X00035Y00723*
X0004Y00717*
X00047Y00712*
X00054Y00709*
X00062Y00708*
X00088*
X00096Y00709*
X00103Y00712*
X00109Y00717*
X00114Y00723*
X00117Y0073*
X00118Y00738*
X00117Y00746*
X00114Y00754*
X00109Y0076*
X00103Y00765*
X00096Y00768*
X00088Y00769*
X00062*
X00054Y00768*
X00047Y00765*
X0004Y0076*
X00035Y00754*
X00033Y00748*
X00028Y00749*
Y01033*
X00033Y01034*
X00035Y01028*
X0004Y01022*
X00047Y01017*
X00054Y01014*
X00062Y01013*
X00088*
X00096Y01014*
X00103Y01017*
X00109Y01022*
X00114Y01028*
X00117Y01036*
X00118Y01044*
X00117Y01052*
X00114Y01059*
X00109Y01065*
X00103Y0107*
X00096Y01073*
X00088Y01074*
X00072*
X0007Y01079*
X00114Y01123*
X00629*
X0075Y01001*
G37*
G36*
X00785Y00602D02*
X00785Y00598D01*
X00786Y00589*
X00791Y00582*
X00798Y00578*
X00807Y00576*
X00815Y00578*
X00822Y00582*
X00827Y00589*
X00828Y00593*
X00859*
Y00587*
X00843*
X00838Y00586*
X00834Y00584*
X00811Y00561*
X00808Y00562*
X008Y0056*
X00792Y00555*
X00788Y00548*
X00786Y0054*
X00788Y00531*
X0079Y00528*
X00787Y00523*
X00655*
X00654Y00528*
X00658Y00534*
X00659Y00543*
X00658Y00547*
X0066Y00548*
X0066Y00548*
X00666Y00547*
X00669Y00543*
X00676Y00538*
X00685Y00536*
X00693Y00538*
X007Y00543*
X00704Y00548*
X00707Y0055*
X0071Y0055*
X00715Y00546*
X00724Y00544*
X00732Y00546*
X0074Y00551*
X00744Y00558*
X00746Y00566*
X00745Y00569*
X00781Y00605*
X00785Y00602*
G37*
G36*
X00526Y00523D02*
X00594D01*
X00599Y00523*
X00599Y00518*
Y00487*
X00595Y00484*
X00594Y00484*
X00586Y00486*
X00578Y00484*
X00571Y0048*
X00566Y00473*
X00564Y00464*
X00566Y00456*
X00569Y00451*
X00566Y00446*
X00317*
X00312Y00445*
X00308Y00442*
X00268Y00402*
X00268Y00402*
X00261Y00401*
X00254Y00398*
X00249Y00394*
X00246Y00391*
X0024*
X00238Y00394*
X00232Y00398*
X00231Y00399*
Y00451*
X0029Y0051*
X00295Y00508*
Y005*
X00336*
Y00522*
X00311*
X00309Y00527*
X00311Y0053*
X00526*
Y00523*
G37*
%LNlebot-2*%
%LPC*%
G36*
X01551Y01137D02*
X0147D01*
Y01057*
X01551*
Y01137*
G37*
G36*
X01458D02*
X01377D01*
Y01057*
X01458*
Y01137*
G37*
G36*
X02198Y0103D02*
X02175D01*
Y01008*
X02198*
Y0103*
G37*
G36*
X01125Y01128D02*
X01117Y01126D01*
X01116Y01126*
X01094*
X01087Y01125*
X0108Y01122*
X01074Y01118*
X0107Y01112*
X01067Y01105*
X01066Y01098*
X01067Y01091*
X0107Y01084*
X01074Y01078*
X01098Y01055*
X01116Y01036*
X01122Y01032*
X01129Y01029*
X01132Y01029*
Y00999*
X01229*
Y01113*
X01163*
X01158Y01118*
X01153Y01122*
X01146Y01125*
X01139Y01126*
X01135*
X01134Y01126*
X01125Y01128*
G37*
G36*
X02198Y00997D02*
X02175D01*
Y00975*
X02198*
Y00997*
G37*
G36*
X02146Y0103D02*
X02087D01*
X02033*
Y01001*
X0201Y00978*
X02002Y00977*
X01995Y00972*
X0199Y00965*
X01988Y00956*
X0199Y00948*
X01995Y00941*
X02002Y00936*
X0201Y00934*
X02019Y00936*
X02021Y00937*
X02024Y00938*
X0203Y00942*
X02063Y00975*
X02092*
X02139*
X02163*
Y01002*
Y0103*
X02146*
G37*
G36*
X01551Y01045D02*
X0147D01*
Y00964*
X01551*
Y01045*
G37*
G36*
X01458D02*
X01377D01*
Y00964*
X01458*
Y01045*
G37*
G36*
X01513Y00951D02*
X01492D01*
Y00928*
X01513*
Y00951*
G37*
G36*
X0148D02*
X01458D01*
Y00928*
X0148*
Y00951*
G37*
G36*
X01736Y01137D02*
X01562D01*
Y00964*
X01592*
X01594Y00961*
X01595Y00959*
X01592Y00955*
X01589*
Y00951*
X01588Y00947*
X01587Y0094*
Y00924*
X01588Y00917*
X01589Y00913*
Y00911*
X01585Y00909*
X0158Y00914*
Y00951*
X01525*
Y00914*
X01518Y00907*
X01513Y00909*
Y00916*
X01486*
X01458*
Y00892*
X01462Y0089*
Y00851*
X01519*
Y00868*
X01543Y00892*
X01562*
X01575Y00879*
X0158Y00876*
X01585Y00875*
X01589*
Y00875*
X01593*
X01594Y0087*
X01591Y00865*
X01591Y00865*
X01577*
X01571Y00864*
X01566Y0086*
X01562Y00855*
X01562Y00853*
X01549*
Y00813*
X01562*
X01562Y00811*
X01566Y00806*
X01571Y00803*
X01577Y00801*
X01608*
X01719*
X01725Y00803*
X0173Y00806*
X01748Y00824*
X01752Y00829*
X01753Y00835*
Y00855*
X01752Y00861*
X01748Y00866*
X01714Y009*
X01709Y00904*
X01703Y00905*
X01701Y00905*
X01696Y00908*
Y00955*
X01692*
X01689Y00959*
X01691Y00964*
X01736*
Y01137*
G37*
G36*
X0219Y00921D02*
X02169D01*
Y00897*
X0219*
Y00921*
G37*
G36*
X02157D02*
X02135D01*
Y00897*
X02157*
Y00921*
G37*
G36*
X02378Y01069D02*
X02204D01*
Y00896*
X02378*
Y01069*
G37*
G36*
X01836Y00873D02*
Y00852D01*
X01858*
X01855Y00858*
X0185Y00865*
X01843Y00871*
X01836Y00873*
G37*
G36*
X01816D02*
X0181Y00871D01*
X01803Y00865*
X01798Y00858*
X01795Y00852*
X01816*
Y00873*
G37*
G36*
X01955Y00873D02*
X01894D01*
Y00812*
X01955*
Y00873*
G37*
G36*
X01816Y00832D02*
X01795D01*
X01798Y00826*
X01803Y00819*
X0181Y00814*
X01816Y00811*
Y00832*
G37*
G36*
X01858D02*
X01836D01*
Y00811*
X01843Y00814*
X0185Y00819*
X01855Y00826*
X01858Y00832*
G37*
G36*
X01519Y00815D02*
X01462D01*
Y00776*
X01519*
Y00815*
G37*
G36*
X02124Y00921D02*
X02068D01*
Y00886*
X02006Y00824*
X02003Y00819*
X02002Y00814*
Y00803*
X02Y00802*
X01995Y00794*
X01993Y00786*
X01995Y00777*
X02Y0077*
X02007Y00766*
X02015Y00764*
X02024Y00766*
X02031Y0077*
X02035*
X02042Y00766*
X02051Y00764*
X02059Y00766*
X02066Y0077*
X02071*
X02078Y00766*
X02086Y00764*
X02095Y00766*
X02102Y0077*
X02103Y00773*
X02114*
X02119Y00774*
X02123Y00777*
X0215Y00804*
X02188*
Y00862*
X0219*
Y00885*
X02163*
X02135*
Y00863*
X02133*
Y00824*
X02126Y00817*
X02122Y00819*
Y00862*
X02124*
Y00921*
G37*
G36*
X02381Y00881D02*
X02208D01*
Y00708*
X02381*
Y00881*
G37*
G36*
X01364Y0072D02*
Y0069D01*
X01387*
Y0072*
X01364*
G37*
G36*
X01644Y00661D02*
Y00639D01*
X01666*
X01663Y00646*
X01658Y00653*
X01651Y00658*
X01644Y00661*
G37*
G36*
X01625D02*
X01618Y00658D01*
X01611Y00653*
X01606Y00646*
X01603Y00639*
X01625*
Y00661*
G37*
G36*
X01964Y00769D02*
X01956Y00767D01*
X01948Y00762*
X01944Y00755*
X01942Y00747*
X01944Y00738*
X01948Y00731*
Y00731*
X01944Y00724*
X01942Y00715*
X01944Y00707*
X01948Y00699*
X0195Y00699*
X01945Y00692*
X01943Y00684*
X01945Y00675*
X0195Y00668*
X01948Y00668*
X01944Y00661*
X01942Y00652*
X01944Y00644*
X01948Y00636*
X01956Y00632*
X01964Y0063*
X01973Y00632*
X0198Y00636*
X01984Y00644*
X01986Y00652*
X01984Y00661*
X0198Y00667*
X01981Y00668*
X01986Y00675*
X01987Y00684*
X01986Y00692*
X01981Y00699*
X0198Y007*
X01984Y00707*
X01986Y00715*
X01984Y00724*
X0198Y00731*
Y00731*
X01984Y00738*
X01986Y00747*
X01984Y00755*
X0198Y00762*
X01973Y00767*
X01964Y00769*
G37*
G36*
X02126Y00638D02*
X02117Y00636D01*
X0211Y00631*
X02105Y00624*
X02099Y00628*
X02091Y0063*
X02083Y00628*
X02075Y00623*
X02075Y00623*
X02069*
X02066Y00627*
X02059Y00632*
X02051Y00634*
X02042Y00632*
X02035Y00627*
X0203Y0062*
X02029Y00612*
X0203Y00603*
X02034Y00597*
X02033Y00594*
X02032Y00592*
X02022*
Y00537*
X02132*
X02191*
Y00592*
X02183*
X02181Y00597*
X02182Y00599*
X02184Y00608*
X02182Y00616*
X02178Y00623*
X0217Y00628*
X02162Y0063*
X02153Y00628*
X0215Y00626*
X02146Y00624*
X02144Y00627*
X02141Y00631*
X02134Y00636*
X02126Y00638*
G37*
G36*
X01883Y00633D02*
Y00612D01*
X01905*
X01902Y00618*
X01897Y00625*
X0189Y0063*
X01883Y00633*
G37*
G36*
X01864D02*
X01857Y0063D01*
X0185Y00625*
X01845Y00618*
X01842Y00612*
X01864*
Y00633*
G37*
G36*
X01566Y0066D02*
X01505D01*
Y00599*
X01566*
Y0066*
G37*
G36*
X01666Y0062D02*
X01644D01*
Y00598*
X01651Y00601*
X01658Y00606*
X01663Y00613*
X01666Y0062*
G37*
G36*
X01625D02*
X01603D01*
X01606Y00613*
X01611Y00606*
X01618Y00601*
X01625Y00598*
Y0062*
G37*
G36*
X01387Y00608D02*
X01364D01*
Y00578*
X01387*
Y00608*
G37*
G36*
X01229Y00853D02*
X01132D01*
Y00765*
X01129Y00762*
X0112Y00761*
X01113Y00756*
X01108Y00749*
X01107Y0074*
X01108Y00732*
X01113Y00725*
X0112Y0072*
X01129Y00718*
X01137Y0072*
X01139Y00721*
X01143Y00718*
Y00716*
Y0069*
X01173*
Y00679*
X01143*
Y00654*
Y00649*
Y00644*
Y0062*
X01173*
Y00608*
X01143*
Y00579*
Y00578*
Y00574*
Y00573*
Y00545*
X01173*
Y00539*
X01179*
Y00503*
X01197*
X01202*
X01207*
X01227*
Y00418*
Y00356*
X01228Y00346*
X01229Y00343*
X01175Y00289*
X01172Y00284*
X0117Y00278*
Y00199*
X01166Y00193*
X01164Y00185*
X01166Y00176*
X01171Y00169*
X01178Y00164*
X01187Y00162*
X01195Y00164*
X01202Y00169*
X01207Y00176*
X01209Y00185*
X01207Y00193*
X01203Y00199*
Y00271*
X01249Y00318*
X01327Y0024*
X01335Y00234*
X01344Y0023*
X01354Y00229*
X01373*
X01382Y0023*
X01391Y00234*
X01399Y0024*
X01405Y00247*
X01409Y00256*
X0141Y00266*
X01409Y00276*
X01408Y00278*
X01407Y00286*
X01402Y00293*
X01395Y00297*
X01393Y00298*
X01391Y00299*
X01382Y00303*
X01373Y00304*
X01369*
X01327Y00346*
X01329Y00351*
X01339*
X01349Y00352*
X01358Y00356*
X01364Y0036*
X01369Y00361*
X01374Y00361*
Y00336*
X01397*
Y00369*
Y00401*
X01374*
X01372Y00407*
X01369Y00411*
Y00416*
X01365*
X01358Y00421*
X01354Y00423*
X01355Y00428*
X01369*
Y00428*
X01374Y00429*
X01433*
Y00494*
X01374*
Y00483*
X01369Y00483*
X0131*
Y00435*
X01305Y00433*
X01302Y00435*
Y00539*
Y00578*
X01328*
X01333*
X01352*
Y00614*
X01358*
Y0062*
X01387*
Y00644*
Y00649*
Y00654*
Y00679*
X01358*
Y00685*
X01352*
Y0072*
X01333*
X01328*
X01323*
X01296*
X01291Y00726*
X01229Y00788*
Y00853*
G37*
G36*
X01864Y00592D02*
X01842D01*
X01845Y00585*
X0185Y00579*
X01857Y00573*
X01864Y00571*
Y00592*
G37*
G36*
X01905D02*
X01883D01*
Y00571*
X0189Y00573*
X01897Y00579*
X01902Y00585*
X01905Y00592*
G37*
G36*
X01434Y0055D02*
X01425Y00548D01*
X01418Y00543*
X01417Y00542*
X01415*
X01407Y00546*
X01399Y00548*
X0139Y00546*
X01385Y00543*
X01379Y00543*
X01372Y00548*
X01364Y0055*
X01355Y00548*
X0135Y00544*
X01345Y00543*
X01338Y00547*
X01329Y00549*
X01321Y00547*
X01314Y00543*
X01309Y00536*
X01307Y00527*
X01309Y00519*
X01314Y00511*
X01321Y00507*
X01329Y00505*
X01338Y00507*
X01343Y0051*
X01348Y00512*
X01355Y00507*
X01364Y00506*
X01372Y00507*
X01378Y00511*
X01383Y0051*
X0139Y00506*
X01399Y00504*
X01407Y00506*
X01415Y0051*
X01416Y00512*
X01418*
X01425Y00507*
X01434Y00506*
X01442Y00507*
X01445Y00509*
X0145Y00507*
X01451Y00503*
X01455Y00496*
X01456Y00494*
Y00491*
X01454Y0049*
X0145Y00482*
X01448Y00474*
X0145Y00466*
X01454Y00459*
X01454Y00458*
X01454Y00452*
X01451Y00447*
X01449Y00439*
X01451Y0043*
X01455Y00423*
X01463Y00418*
X01471Y00416*
X01479Y00418*
X01487Y00423*
X01488Y00425*
X01496*
X01521Y004*
Y00366*
X01576*
Y00364*
X016*
Y00391*
Y00419*
X0158*
Y00421*
X01538*
X01531Y00428*
X01533Y00433*
X01576*
Y00431*
X01635*
Y00486*
X01619*
X01618Y0049*
X01615Y00494*
X01604Y00505*
X016Y00508*
X01595Y00509*
X01495*
X01493Y00511*
X01492Y0052*
X01487Y00527*
X0148Y00532*
X01471Y00533*
X01463Y00532*
X0146Y0053*
X01455Y00532*
X01454Y00536*
X01449Y00543*
X01442Y00548*
X01434Y0055*
G37*
G36*
X01167Y00533D02*
X01143D01*
Y00503*
X01167*
Y00533*
G37*
G36*
X02191Y00525D02*
X02168D01*
Y00503*
X02191*
Y00525*
G37*
G36*
X01904Y00534D02*
X01843D01*
Y00473*
X01904*
Y00534*
G37*
G36*
X02191Y00492D02*
X02168D01*
Y0047*
X02191*
Y00492*
G37*
G36*
X02136Y00525D02*
X02022D01*
Y00513*
X02017Y00512*
X02012Y00509*
X02006Y00503*
X01998Y00501*
X01991Y00496*
X01986Y00489*
X01984Y00481*
X01986Y00472*
X01991Y00465*
X01998Y0046*
X02006Y00459*
X02015Y0046*
X02022Y00465*
X02025Y0047*
X02132*
X02156*
Y00498*
Y00525*
X02136*
G37*
G36*
X01635Y00419D02*
X01612D01*
Y00397*
X01635*
Y00419*
G37*
G36*
X02377Y00565D02*
X02204D01*
Y00392*
X02377*
Y00565*
G37*
G36*
X02148Y00405D02*
X02126D01*
Y00381*
X02148*
Y00405*
G37*
G36*
X02115D02*
X02093D01*
Y00381*
X02115*
Y00405*
G37*
G36*
X01433Y00401D02*
X01409D01*
Y00375*
X01433*
Y00401*
G37*
G36*
X01635Y00385D02*
X01612D01*
Y00364*
X01635*
Y00385*
G37*
G36*
X01433Y00363D02*
X01409D01*
Y00336*
X01433*
Y00363*
G37*
G36*
X01813Y00494D02*
X01805Y00492D01*
X01798Y00488*
X01796Y00485*
X01783*
X01778Y00484*
X01774Y00481*
X01769Y00477*
X01733*
Y00422*
X01732*
Y00363*
X01776*
X01778Y00358*
X01762Y00343*
X01724*
Y00284*
X01779*
Y00322*
X01786Y0033*
X01791Y00328*
Y00319*
X01818*
X01846*
Y00343*
X01824*
X01823Y00348*
X01827Y00351*
X01832Y00358*
X01834Y00367*
X01832Y00375*
X01832Y00375*
X01834Y0038*
X01841Y00382*
X01848Y00386*
X01853Y00394*
X01854Y00402*
X01853Y00411*
X01848Y00418*
X01841Y00422*
X01832Y00424*
X0183Y00424*
X01828Y00428*
X01828Y00428*
X01829Y00437*
X01828Y00445*
X01823Y00452*
Y00452*
X01829Y00456*
X01834Y00463*
X01836Y00472*
X01834Y0048*
X01829Y00488*
X01822Y00492*
X01813Y00494*
G37*
G36*
X01846Y00308D02*
X01824D01*
Y00284*
X01846*
Y00308*
G37*
G36*
X01812D02*
X01791D01*
Y00284*
X01812*
Y00308*
G37*
G36*
X01721Y00477D02*
X01666D01*
Y00422*
X01665*
Y00363*
X01677*
Y00327*
X01649Y00299*
X01642Y00297*
X01634Y00293*
X0163Y00286*
X01628Y00277*
X0163Y00269*
X01634Y00261*
X01642Y00257*
X0165Y00255*
X01659Y00257*
X01666Y00261*
X0167Y00269*
X01672Y00276*
X01705Y00309*
X01708Y00314*
X01709Y0032*
Y00363*
X0172*
Y00418*
X01721*
Y00477*
G37*
G36*
X02081Y00405D02*
X02026D01*
Y00371*
X02007Y00352*
X02004Y00348*
X02003Y00343*
Y00289*
X02001Y00287*
X01996Y0028*
X01994Y00272*
X01996Y00263*
X02001Y00256*
X02008Y00251*
X02016Y0025*
X02025Y00251*
X02032Y00256*
X02036*
X02043Y00251*
X02052Y0025*
X0206Y00251*
X02067Y00256*
X02071*
X02079Y00251*
X02087Y0025*
X02096Y00251*
X02103Y00256*
X02107Y00263*
X02109Y00272*
X02107Y0028*
X02104Y00285*
X0211Y00291*
X02148*
Y00346*
Y0037*
X02121*
X02093*
Y00346*
Y00311*
X02086Y00304*
X02081Y00306*
Y00346*
Y00405*
G37*
G36*
X01298Y00257D02*
X01243D01*
Y00202*
X01246*
X01249Y00197*
X01246Y00194*
X01243Y00187*
X01243Y00186*
X0127*
X01297*
X01297Y00187*
X01294Y00194*
X01292Y00197*
X01294Y00202*
X01298*
Y00257*
G37*
G36*
X02378Y00354D02*
X02205D01*
Y00181*
X02378*
Y00354*
G37*
G36*
X01264Y00174D02*
X01243D01*
X01243Y00172*
X01246Y00166*
X01251Y0016*
X01256Y00156*
X01263Y00153*
X01264Y00153*
Y00174*
G37*
G36*
X01297D02*
X01276D01*
Y00153*
X01277Y00153*
X01284Y00156*
X0129Y0016*
X01294Y00166*
X01297Y00172*
X01297Y00174*
G37*
G36*
X01969Y0026D02*
X01961Y00258D01*
X01953Y00253*
X01949Y00246*
X01947Y00238*
X01949Y00229*
X01953Y00222*
Y00222*
X01949Y00215*
X01947Y00206*
X01949Y00198*
X01953Y00191*
X01954Y0019*
X0195Y00183*
X01948Y00175*
X0195Y00166*
X01954Y0016*
X01953Y00159*
X01949Y00152*
X01947Y00143*
X01949Y00135*
X01953Y00128*
X01961Y00123*
X01969Y00121*
X01977Y00123*
X01985Y00128*
X01989Y00135*
X01991Y00143*
X01989Y00152*
X01985Y00158*
X01986Y00159*
X01991Y00166*
X01992Y00175*
X01991Y00183*
X01986Y0019*
X01985Y00191*
X01989Y00198*
X01991Y00206*
X01989Y00215*
X01985Y00222*
Y00222*
X01989Y00229*
X01991Y00238*
X01989Y00246*
X01985Y00253*
X01977Y00258*
X01969Y0026*
G37*
G36*
X01357Y00111D02*
X0135Y0011D01*
X01343Y00107*
X01339Y00105*
X01334Y00107*
Y00111*
X01279*
Y00056*
X01334*
Y00059*
X01339Y00062*
X01343Y00059*
X0135Y00056*
X01357Y00055*
X01364Y00056*
X01371Y00059*
X01376Y00064*
X01379Y00066*
X01385*
X01387Y00064*
X01393Y00059*
X014Y00056*
X01401Y00056*
Y00083*
Y0011*
X014Y0011*
X01393Y00107*
X01387Y00103*
X01385Y001*
X01379*
X01376Y00103*
X01371Y00107*
X01364Y0011*
X01357Y00111*
G37*
G36*
X01413Y0011D02*
Y00089D01*
X01434*
X01434Y0009*
X01431Y00097*
X01426Y00103*
X01421Y00107*
X01414Y0011*
X01413Y0011*
G37*
G36*
X01434Y00077D02*
X01413D01*
Y00056*
X01414Y00056*
X01421Y00059*
X01426Y00064*
X01431Y00069*
X01434Y00076*
X01434Y00077*
G37*
G36*
X01854Y00228D02*
X0168D01*
Y00055*
X01854*
Y00228*
G37*
G36*
X01644Y00226D02*
X01471D01*
Y00053*
X01644*
Y00226*
G37*
G36*
X00527Y01088D02*
X00472D01*
Y01072*
X00465*
Y01088*
X004*
Y01029*
X00465*
Y01045*
X00472*
Y01029*
X00527*
Y01088*
G37*
G36*
X00373D02*
X00346D01*
Y01064*
X00373*
Y01088*
G37*
G36*
X00334D02*
X00308D01*
Y01064*
X00334*
Y01088*
G37*
G36*
X00373Y01053D02*
X00346D01*
Y01029*
X00373*
Y01053*
G37*
G36*
X00334D02*
X00308D01*
Y01029*
X00334*
Y01053*
G37*
G36*
X00748Y0099D02*
X00726D01*
Y00966*
X00748*
Y0099*
G37*
G36*
X00714D02*
X00692D01*
Y00966*
X00714*
Y0099*
G37*
G36*
X00748Y00954D02*
X0072D01*
X00692*
Y00931*
Y00915*
X0072*
X00748*
Y00931*
Y00954*
G37*
G36*
Y00903D02*
X00726D01*
Y00879*
X00748*
Y00903*
G37*
G36*
X00714D02*
X00692D01*
Y00879*
X00714*
Y00903*
G37*
G36*
X00525Y009D02*
X00503D01*
Y00877*
X00525*
Y009*
G37*
G36*
X00492D02*
X0047D01*
Y00877*
X00492*
Y009*
G37*
G36*
X00613Y00857D02*
X00599D01*
Y00826*
X00613*
Y00857*
G37*
G36*
X00262Y00832D02*
X00234D01*
Y00821*
X00262*
Y00832*
G37*
G36*
X00223D02*
X00195D01*
Y00821*
X00223*
Y00832*
G37*
G36*
X00525Y00865D02*
X0047D01*
Y00846*
Y00841*
Y00836*
Y00818*
X00525*
Y00836*
Y00841*
Y00846*
Y00865*
G37*
G36*
X00594Y01088D02*
X00539D01*
Y01029*
X00594*
Y01043*
X00627*
X00633Y01036*
X00633Y01035*
Y01*
X00634Y00995*
X0063Y0099*
X00625*
Y00931*
Y00879*
X00635*
Y00857*
X00625*
Y0082*
Y00783*
X00676*
Y0082*
Y00857*
X00667*
Y00879*
X00681*
Y00931*
Y0099*
X0068Y00995*
X00681Y01*
Y01035*
X00679Y01044*
X00674Y01052*
X00666Y01057*
X00657Y01059*
X00656Y01059*
X00645Y0107*
X0064Y01073*
X00633Y01075*
X00594*
Y01088*
G37*
G36*
X00492Y00806D02*
X0047D01*
Y00782*
X00492*
Y00806*
G37*
G36*
X00183Y00817D02*
X00174Y00815D01*
X00166Y0081*
X00161Y00802*
X00159Y00793*
X00161Y00783*
X00166Y00776*
X00174Y0077*
X0018Y00769*
X00183Y00764*
X00182Y00763*
X00178Y00754*
X00177Y00744*
X00178Y00735*
X00182Y00726*
X00188Y00718*
X00195Y00713*
X00204Y00709*
X00214Y00708*
X00235*
X00245Y00709*
X00254Y00713*
X00261Y00718*
X00267Y00726*
X00271Y00735*
X00272Y00744*
X00271Y00754*
X00267Y00763*
X00261Y0077*
X00254Y00776*
X00245Y0078*
X00235Y00781*
X00214*
X0021Y00781*
X00208Y00781*
X00206Y00785*
X00207Y00793*
X00205Y00802*
X002Y0081*
X00192Y00815*
X00183Y00817*
G37*
G36*
X00998Y007D02*
X00974D01*
Y00679*
X00998*
Y007*
G37*
G36*
X00962D02*
X00938D01*
Y00679*
X00962*
Y007*
G37*
G36*
X00998Y00667D02*
X00974D01*
Y00645*
X00998*
Y00667*
G37*
G36*
X00153Y00522D02*
X00112D01*
Y005*
X00153*
Y00522*
G37*
G36*
X001D02*
X00059D01*
Y005*
X001*
Y00522*
G37*
G36*
X00153Y00489D02*
X00112D01*
Y00467*
X00153*
Y00489*
G37*
G36*
X001D02*
X00059D01*
Y00467*
X001*
Y00489*
G37*
G36*
X00913Y00446D02*
X00891D01*
Y00423*
X00913*
Y00446*
G37*
G36*
X00986Y00437D02*
X00962D01*
Y00415*
X00986*
Y00437*
G37*
G36*
X0095D02*
X00927D01*
Y00415*
X0095*
Y00437*
G37*
G36*
X00913Y00411D02*
X00891D01*
Y00387*
X00913*
Y00411*
G37*
G36*
X00879D02*
X00858D01*
Y00387*
X00879*
Y00411*
G37*
G36*
X00986Y00403D02*
X00962D01*
Y00381*
X00986*
Y00403*
G37*
G36*
X0095D02*
X00927D01*
Y00381*
X0095*
Y00403*
G37*
G36*
X00491Y00381D02*
X00458D01*
X00426*
Y00361*
Y00357*
Y00352*
Y00332*
X00458*
X00491*
Y00352*
Y00356*
Y00361*
Y00381*
G37*
G36*
X00395Y00318D02*
X00374D01*
Y00297*
X00375Y00297*
X00382Y003*
X00388Y00305*
X00392Y0031*
X00395Y00317*
X00395Y00318*
G37*
G36*
X00491Y0032D02*
X00464D01*
Y00297*
X00491*
Y0032*
G37*
G36*
X00452D02*
X00426D01*
Y00297*
X00452*
Y0032*
G37*
G36*
X00675Y00229D02*
X00666Y00228D01*
X00658Y00224*
X00651Y00219*
X00645Y00211*
X00642Y00203*
X00641Y00194*
X00642Y00185*
X00645Y00177*
X00651Y00169*
X00658Y00164*
X00666Y0016*
X00675Y00159*
X00685Y0016*
X00693Y00164*
X007Y00169*
X00706Y00177*
X00709Y00185*
X0071Y00194*
X00709Y00203*
X00706Y00211*
X007Y00219*
X00693Y00224*
X00685Y00228*
X00675Y00229*
G37*
G36*
X00575D02*
X00566Y00228D01*
X00558Y00224*
X00551Y00219*
X00545Y00211*
X00542Y00203*
X00541Y00194*
X00542Y00185*
X00545Y00177*
X00551Y00169*
X00558Y00164*
X00566Y0016*
X00575Y00159*
X00585Y0016*
X00593Y00164*
X006Y00169*
X00606Y00177*
X00609Y00185*
X0061Y00194*
X00609Y00203*
X00606Y00211*
X006Y00219*
X00593Y00224*
X00585Y00228*
X00575Y00229*
G37*
G36*
X00348D02*
X00338Y00228D01*
X0033Y00224*
X00323Y00219*
X00317Y00211*
X00314Y00203*
X00313Y00194*
X00314Y00185*
X00317Y00177*
X00323Y00169*
X0033Y00164*
X00338Y0016*
X00348Y00159*
X00357Y0016*
X00365Y00164*
X00372Y00169*
X00378Y00177*
X00381Y00185*
X00382Y00194*
X00381Y00203*
X00378Y00211*
X00372Y00219*
X00365Y00224*
X00357Y00228*
X00348Y00229*
G37*
G36*
X00248D02*
X00238Y00228D01*
X0023Y00224*
X00223Y00219*
X00217Y00211*
X00214Y00203*
X00213Y00194*
X00214Y00185*
X00217Y00177*
X00223Y00169*
X0023Y00164*
X00238Y0016*
X00248Y00159*
X00257Y0016*
X00265Y00164*
X00272Y00169*
X00278Y00177*
X00281Y00185*
X00282Y00194*
X00281Y00203*
X00278Y00211*
X00272Y00219*
X00265Y00224*
X00257Y00228*
X00248Y00229*
G37*
G36*
X00531Y00129D02*
Y001D01*
X0056*
Y00129*
X00531*
G37*
G36*
X0047Y00204D02*
X0046Y00202D01*
X00451Y00198*
X00443Y00192*
X00437Y00184*
X00433Y00175*
X00432Y00165*
X00433Y00155*
X00437Y00145*
X00443Y00137*
X00451Y00131*
X0046Y00127*
X0047Y00126*
X0048Y00127*
X00485Y00129*
X00489Y00128*
X00491Y00126*
Y00125*
Y001*
X0052*
Y00129*
X00495*
X00495*
X00494*
X00494Y00131*
X00495Y00135*
X00498Y00137*
X00504Y00145*
X00508Y00155*
X00509Y00165*
X00508Y00175*
X00504Y00184*
X00498Y00192*
X0049Y00198*
X0048Y00202*
X0047Y00204*
G37*
G36*
X00203Y00129D02*
Y001D01*
X00232*
Y00129*
X00203*
G37*
G36*
X00142Y00204D02*
X00132Y00202D01*
X00123Y00198*
X00115Y00192*
X00109Y00184*
X00105Y00175*
X00104Y00165*
X00105Y00155*
X00109Y00145*
X00115Y00137*
X00123Y00131*
X00132Y00127*
X00142Y00126*
X00152Y00127*
X00157Y00129*
X00162Y00128*
X00163Y00126*
Y00125*
Y001*
X00192*
Y00129*
X00167*
X00167*
X00166*
X00166Y00131*
X00167Y00135*
X0017Y00137*
X00176Y00145*
X0018Y00155*
X00181Y00165*
X0018Y00175*
X00176Y00184*
X0017Y00192*
X00162Y00198*
X00152Y00202*
X00142Y00204*
G37*
G36*
X00895Y00088D02*
X00866D01*
Y00059*
X00895*
Y00088*
G37*
G36*
X00854D02*
X00826D01*
Y00059*
X00854*
Y00088*
G37*
G36*
X0056D02*
X00531D01*
Y00059*
X0056*
Y00088*
G37*
G36*
X0052D02*
X00491D01*
Y00059*
X0052*
Y00088*
G37*
G36*
X00232D02*
X00203D01*
Y00059*
X00232*
Y00088*
G37*
G36*
X00192D02*
X00163D01*
Y00059*
X00192*
Y00088*
G37*
G36*
X00625Y00129D02*
X00616Y00128D01*
X00608Y00124*
X00601Y00119*
X00595Y00111*
X00592Y00103*
X00591Y00094*
X00592Y00085*
X00595Y00077*
X00601Y00069*
X00608Y00064*
X00616Y0006*
X00625Y00059*
X00635Y0006*
X00643Y00064*
X0065Y00069*
X00656Y00077*
X00659Y00085*
X0066Y00094*
X00659Y00103*
X00656Y00111*
X0065Y00119*
X00643Y00124*
X00635Y00128*
X00625Y00129*
G37*
G36*
X00298D02*
X00288Y00128D01*
X0028Y00124*
X00273Y00119*
X00267Y00111*
X00264Y00103*
X00263Y00094*
X00264Y00085*
X00267Y00077*
X00273Y00069*
X0028Y00064*
X00288Y0006*
X00298Y00059*
X00307Y0006*
X00315Y00064*
X00322Y00069*
X00328Y00077*
X00331Y00085*
X00332Y00094*
X00331Y00103*
X00328Y00111*
X00322Y00119*
X00315Y00124*
X00307Y00128*
X00298Y00129*
G37*
G36*
X00389Y00522D02*
X00348D01*
Y005*
X00389*
Y00522*
G37*
G36*
Y00489D02*
X00348D01*
Y00467*
X00389*
Y00489*
G37*
G36*
X00336D02*
X00295D01*
Y00467*
X00336*
Y00489*
G37*
%LNlebot-3*%
%LPD*%
G36*
X01695Y00872D02*
X01698D01*
Y00887*
X01703Y00889*
X01737Y00855*
Y00835*
X01719Y00817*
X01608*
X01577*
Y00849*
X01608*
Y00855*
X01606Y00859*
X01616Y00869*
X0162Y00867*
X01627*
Y00884*
X01658*
Y00867*
X01664*
Y00889*
X01695*
Y00872*
G37*
G54D12*
X01693Y0032D02*
Y00447D01*
X00562Y00763D02*
Y00918D01*
X00675Y00326D02*
X00704D01*
X01187Y00185D02*
Y00278D01*
X01264Y00356*
X00968Y00464D02*
X01D01*
X02023Y00498D02*
X02052D01*
X02006Y00481D02*
X02023Y00498D01*
X0165Y00277D02*
X01693Y0032D01*
X00956Y00476D02*
Y00507D01*
X00921Y00543D02*
X00956Y00507D01*
X00896Y00543D02*
X00921D01*
X00956Y00476D02*
X00968Y00464D01*
X00704Y00326D02*
X00714Y00336D01*
Y00486*
X00682Y00404D02*
Y00486D01*
X00657Y00913D02*
Y01D01*
X00808Y00427D02*
X00818Y00417D01*
X00808Y00427D02*
Y00486D01*
X00651Y0082D02*
Y00907D01*
Y0082D02*
X00655D01*
X00633Y01059D02*
X00657Y01035D01*
X00566Y01059D02*
X00633D01*
X00651Y00907D02*
X00653Y00909D01*
X00657Y00913*
G54D16*
X00777Y00292D02*
X00833Y00236D01*
X00968*
X00777Y00292D02*
Y00486D01*
X00317Y00825D02*
X0035Y00793D01*
X00317Y00825D02*
Y00861D01*
X00397Y00793D02*
X00416Y00774D01*
X0035Y00793D02*
X00397D01*
X00264Y00915D02*
X00317Y00861D01*
X00167Y00373D02*
X00175Y00364D01*
X00296Y00562D02*
X00522D01*
X00199Y00465D02*
X00296Y00562D01*
X00199Y00405D02*
Y00465D01*
X00305Y00543D02*
X00562D01*
X00218Y00456D02*
X00305Y00543D01*
X00218Y00374D02*
Y00456D01*
X00168Y00374D02*
X00199Y00405D01*
X00167Y00373D02*
X00168Y00374D01*
X00522Y00562D02*
X00528Y00567D01*
X00556*
X00562Y00574*
X01805Y00367D02*
X01812D01*
X02051Y00786D02*
Y00794D01*
X02015Y00786D02*
Y00814D01*
X00791Y00633D02*
X009D01*
X00228Y00915D02*
X00264D01*
X00299Y00816D02*
Y00855D01*
X00265Y00889D02*
X00299Y00855D01*
X00228Y00889D02*
X00265D01*
X00416Y00754D02*
Y00774D01*
X00419Y00701D02*
X00483Y00637D01*
X00419Y00701D02*
Y00754D01*
X00382Y00713D02*
X0049Y00606D01*
X00355Y00713D02*
X00382D01*
X00345Y00754D02*
Y00771D01*
X00299Y00816D02*
X00345Y00771D01*
X01047Y00405D02*
Y00692D01*
X01015Y00374D02*
X01047Y00405D01*
X01007Y00732D02*
X01047Y00692D01*
X00342Y00652D02*
X00401D01*
X00106D02*
X00342D01*
X00401D02*
X00405Y00648D01*
X00345Y00724D02*
X00355Y00713D01*
X00483Y00637D02*
X00562D01*
X0049Y00606D02*
X00562D01*
X00268Y00383D02*
X00317Y00433D01*
X00633*
X00651Y0045*
X00807Y00598D02*
X00814Y00606D01*
X00803Y00594D02*
X00807Y00598D01*
X00724Y00566D02*
X00791Y00633D01*
X00685Y00565D02*
X00773Y00653D01*
X00685Y00559D02*
Y00565D01*
X00773Y00653D02*
X00832D01*
X00814Y00606D02*
X00896D01*
X02097Y01093D02*
Y01128D01*
X02092Y01133D02*
X02097Y01128D01*
Y01093D02*
X02117Y01073D01*
Y01069D02*
Y01073D01*
X02162Y01079D02*
Y01137D01*
Y01079D02*
D01*
X0217Y01071D01*
X02169Y01069D02*
X0217Y01071D01*
X02169Y01069D02*
D01*
X02091Y00608D02*
X02107Y00592D01*
X02162Y00564D02*
Y00608D01*
X01181Y00789D02*
Y00796D01*
X01132Y0074D02*
X01181Y00789D01*
X01129Y0074D02*
X01132D01*
X01606Y00458D02*
Y00485D01*
X01595Y00496D02*
X01606Y00485D01*
X01487Y00496D02*
X01595D01*
X01547Y00393D02*
X01551D01*
X01502Y00439D02*
X01547Y00393D01*
X01474Y0047D02*
X01541D01*
X0147Y00474D02*
X01474Y0047D01*
X01471Y00439D02*
X01502D01*
X01471Y00511D02*
X01487Y00496D01*
X01541Y0047D02*
X01551Y0046D01*
X00433Y01059D02*
X005D01*
X00345Y00724D02*
Y00754D01*
X00419D02*
X00422Y00751D01*
X02092Y00891D02*
X02096D01*
X02015Y00814D02*
X02092Y00891D01*
X02049Y00375D02*
X02054D01*
X02016Y00272D02*
Y00343D01*
X02049Y00375*
X01751Y00313D02*
X01805Y00367D01*
X00745Y00293D02*
Y00486D01*
Y00293D02*
X00937Y00102D01*
X01807Y00413D02*
Y00437D01*
X01787Y00392D02*
X01807Y00413D01*
X01759Y00392D02*
X01787D01*
X01783Y00472D02*
X01812D01*
X0176Y00449D02*
X01783Y00472D01*
X02055Y01077D02*
X02062Y01069D01*
X02055Y01077D02*
Y01125D01*
X02107Y00564D02*
Y00592D01*
X02051Y00565D02*
X02052Y00564D01*
X02051Y00565D02*
Y00612D01*
X02114Y00786D02*
X02161Y00833D01*
X02086Y00786D02*
X02114D01*
X02084Y00827D02*
Y00837D01*
X02051Y00794D02*
X02084Y00827D01*
X00618Y00464D02*
X00622Y00468D01*
X00586Y00464D02*
X00618D01*
X00808Y0054D02*
X00843Y00574D01*
X00896*
X00832Y00653D02*
X00847Y00669D01*
X00818Y00673D02*
X00846Y007D01*
X00761Y00673D02*
X00818D01*
X00634Y00546D02*
X00761Y00673D01*
X00854Y00763D02*
X00896D01*
X00807Y00716D02*
X00854Y00763D01*
X00807Y00704D02*
Y00716D01*
X00665Y00606D02*
X00842Y00783D01*
X00645Y00606D02*
X00665D01*
X00842Y00783D02*
Y00817D01*
X00846Y007D02*
X00896D01*
X00665Y00633D02*
X00777Y00745D01*
X00619Y00633D02*
X00665D01*
X00847Y00669D02*
X00896D01*
X00657D02*
X00661Y00673D01*
X00562Y00669D02*
X00657D01*
X00562Y007D02*
X00631D01*
X00562D02*
D01*
Y00732D02*
X00657D01*
X00896D02*
X01007D01*
X00952Y0061D02*
Y00622D01*
X00937Y00637D02*
X00952Y00622D01*
X00896Y00637D02*
X00937D01*
X00777Y00745D02*
Y0082D01*
X00896Y00637D02*
X009Y00633D01*
X00937Y00102D02*
X00956D01*
X00968Y00236D02*
X0101Y00194D01*
X02087Y00287D02*
X02121Y0032D01*
X02087Y00272D02*
Y00287D01*
X02052Y00318D02*
X02054Y0032D01*
X02052Y00272D02*
Y00318D01*
X00741Y00483D02*
X00745Y00486D01*
X0084Y0082D02*
X00842Y00817D01*
X00561Y00323D02*
X00605D01*
X00569Y00389D02*
X00573Y00385D01*
X00614*
X00651Y0045D02*
Y00486D01*
G54D17*
X01553Y00922D03*
X01486D03*
X02161Y00833D03*
X02094D03*
X02163Y00891D03*
X02096D03*
X01692Y00392D03*
X01759D03*
X01693Y00447D03*
X0176D03*
X01751Y00313D03*
X01818D03*
X02054Y0032D03*
X02121D03*
X02054Y00375D03*
X02121D03*
X00653Y0096D03*
X0072D03*
X00653Y00909D03*
X0072D03*
X00564Y00812D03*
X00498D03*
X00564Y00871D03*
X00498D03*
X00566Y01059D03*
X005D03*
X00675Y00385D03*
X00608D03*
X00675Y00326D03*
X00608D03*
X00818Y00417D03*
X00885D03*
G54D18*
X01577Y00833D03*
X01491Y00796D03*
Y00871D03*
G54D19*
X01606Y0094D03*
Y00915D03*
Y00889D03*
X01679D03*
Y00915D03*
Y0094D03*
G54D20*
X01643Y00926D03*
X01403Y00369D03*
Y00461D03*
G54D21*
X01643Y00884D03*
G54D22*
X01181Y00796D03*
Y01056D03*
G54D23*
X01299Y00614D03*
X01358D03*
X01232Y00539D03*
X01173D03*
X01232Y00614D03*
X01173D03*
X01299Y00685D03*
X01358D03*
X01232D03*
X01173D03*
G54D24*
X00968Y00606D03*
Y00673D03*
X01551Y00393D03*
Y0046D03*
X01339Y00455D03*
Y00388D03*
X01606Y00458D03*
Y00391D03*
X02107Y00498D03*
Y00564D03*
X02052Y00498D03*
Y00564D03*
X02162D03*
Y00498D03*
X02117Y01002D03*
Y01069D03*
X02062Y01002D03*
Y01069D03*
X02169D03*
Y01002D03*
X00956Y00476D03*
Y00409D03*
G54D25*
X00896Y00543D03*
Y00574D03*
Y00606D03*
Y00637D03*
Y00669D03*
Y007D03*
Y00732D03*
Y00763D03*
X00562D03*
Y00732D03*
Y007D03*
Y00669D03*
Y00637D03*
Y00606D03*
Y00574D03*
Y00543D03*
G54D26*
X0084Y0082D03*
X00808D03*
X00777D03*
X00745D03*
X00714D03*
X00682D03*
X00651D03*
X00619D03*
Y00486D03*
X00651D03*
X00682D03*
X00714D03*
X00745D03*
X00777D03*
X00808D03*
X0084D03*
G54D27*
X01767Y00141D03*
X01558Y00139D03*
X02291Y00479D03*
X02292Y00267D03*
X02291Y00983D03*
X02295Y00795D03*
X01649Y01051D03*
X01464D03*
G54D28*
X00228Y0094D03*
Y00915D03*
Y00889D03*
Y00863D03*
Y00838D03*
G54D29*
X00345Y00754D03*
X00382D03*
X00419D03*
Y00857D03*
X00382D03*
X00345D03*
G54D30*
X00433Y01059D03*
X0034D03*
X00551Y00387D03*
X00458D03*
X00551Y00326D03*
X00458D03*
G54D31*
X00106Y00652D03*
X00342D03*
G54D32*
X00106Y00495D03*
X00342D03*
G54D61*
X01264Y00685D02*
Y00699D01*
X01181Y00783D02*
X01264Y00699D01*
Y00418D02*
Y00539D01*
Y00685*
X01354Y00266D02*
X01373D01*
X01264Y00356D02*
X01354Y00266D01*
X01264Y00356D02*
Y00418D01*
X01181Y00783D02*
Y00789D01*
X01294Y00388D02*
X01339D01*
X01264Y00418D02*
X01294Y00388D01*
G54D62*
X00224Y00951D02*
X00274D01*
X0037Y0091D02*
X00375Y00905D01*
X00315Y0091D02*
X0037D01*
X00274Y00951D02*
X00315Y0091D01*
X01232Y00539D02*
X01264D01*
X01615Y00924D02*
Y0094D01*
X01643Y00968*
X01665Y00946*
Y00924D02*
Y00946D01*
X01094Y01098D02*
X01118Y01074D01*
X01094Y01098D02*
X01139D01*
X01181Y01056*
X01118Y01074D02*
X01136Y01056D01*
X01181*
G54D63*
X00375Y00905D02*
X00382Y00898D01*
Y00857D02*
Y00898D01*
X02016Y00956D02*
X02062Y01002D01*
X0201Y00956D02*
X02016D01*
X02117Y01002D02*
D01*
X02062D02*
X02117D01*
X02052Y00498D02*
X02107D01*
X01651Y00861D02*
X01687D01*
X01646Y00875D02*
X01696D01*
X01687Y00861D02*
X01687Y00862D01*
G54D64*
X01397Y00455D02*
X01403Y00461D01*
X01339Y00455D02*
X01397D01*
X01338Y00389D02*
X01339Y00388D01*
G54D65*
X01643Y00968D02*
Y01044D01*
X01649Y01051*
G54D66*
X01501Y00871D02*
X01553Y00922D01*
X01491Y00871D02*
X01501D01*
X01553Y00922D02*
X01585Y00889D01*
X01606*
G54D67*
X00657Y01D02*
Y01035D01*
G54D68*
X0086Y00094D03*
X00525D03*
X00198D03*
G54D69*
X0091Y00194D03*
X0096Y00094D03*
X0101Y00194D03*
X00575D03*
X00625Y00094D03*
X00675Y00194D03*
X00248D03*
X00298Y00094D03*
X00348Y00194D03*
G54D70*
X00805Y00165D03*
X0047D03*
X00142D03*
G54D71*
X01536Y00629D03*
X01925Y00842D03*
G54D72*
X01634Y00629D03*
X01874Y00602D03*
X01826Y00842D03*
G54D73*
X01874Y00503D03*
G54D74*
X00225Y01038D03*
Y00744D03*
G54D75*
X00075Y01044D03*
Y00738D03*
G54D76*
X01407Y00083D03*
X01357D03*
X0127Y0018D03*
X00368Y00374D03*
Y00324D03*
X00318Y00374D03*
Y00324D03*
X00268Y00374D03*
Y00324D03*
X00218Y00374D03*
Y00324D03*
X00168Y00374D03*
G54D77*
X01307Y00083D03*
X00168Y00324D03*
G54D78*
X0127Y0023D03*
G54D79*
X00229Y00806D03*
X00178Y00836D03*
X00208Y00569D03*
X00425Y00082D03*
X00763Y00541D03*
X00563Y00916D03*
X00381Y00824D03*
X01839Y00343D03*
X01812Y00367D03*
X02126Y00616D03*
X01987Y00876D03*
X02051Y00786D03*
X02015D03*
X01564Y00794D03*
X0044Y01003D03*
X01019Y00421D03*
X00405Y00648D03*
X00381Y00752D03*
X01325Y00281D03*
X01114Y00262D03*
X01187Y00185D03*
X01386Y00277D03*
X01379Y00317D03*
X01Y00464D03*
X01442Y00223D03*
Y00146D03*
X01356Y00264D03*
X00293Y00722D03*
X00496Y00696D03*
X00858Y00349D03*
X01018Y00129D03*
X00696Y00104D03*
X00168Y00495D03*
X00074Y00597D03*
X00077Y00223D03*
X00092Y00356D03*
X00106Y0094D03*
X0011Y00842D03*
X01767Y01097D03*
X02302Y01107D03*
X02146Y00062D03*
X02045Y0006D03*
X01933Y00069D03*
X02007Y0062D03*
X00807Y00598D03*
X02307Y00614D03*
Y00141D03*
X01952Y01086D03*
X01893Y00968D03*
X01775D03*
X01185D03*
X01007Y01086D03*
X02127Y01127D03*
X02162Y01137D03*
X02092Y01133D03*
X0201Y00956D03*
X02091Y00608D03*
X02162D03*
X02006Y00481D03*
X01129Y0074D03*
X01471Y00439D03*
X0147Y00474D03*
X01434Y00528D03*
X01471Y00511D03*
X01422Y0079D03*
X01352Y00783D03*
X01395Y00728D03*
X02208Y01125D03*
X02192Y00891D03*
X02165Y00944D03*
X02115Y00941D03*
X02069Y0094D03*
X02202Y00097D03*
X02244Y00137D03*
X02248Y00666D03*
X02199Y00615D03*
X02011Y00382D03*
X02187Y00378D03*
X0206Y00446D03*
X02116Y00443D03*
X02165Y00447D03*
X01274Y00501D03*
X0165Y00277D03*
X00846Y00292D03*
X01832Y00402D03*
X01649Y00464D03*
X01399Y00526D03*
X01125Y00612D03*
Y00537D03*
X01137Y00472D03*
X01364Y00528D03*
X01329Y00527D03*
X01524Y00188D03*
X02287Y01032D03*
X02291Y00983D03*
X02288Y00933D03*
X02243Y01008D03*
X02244Y00949D03*
X02336Y0095D03*
X02337Y01012D03*
X02287Y00528D03*
X02291Y00479D03*
X02288Y00429D03*
X02243Y00504D03*
X02244Y00445D03*
X02336Y00446D03*
X02337Y00508D03*
X02288Y00316D03*
X02292Y00267D03*
X02289Y00217D03*
X02244Y00293D03*
X02245Y00234D03*
X02337Y00235D03*
X02338Y00297D03*
X02299Y00746D03*
X02295Y00795D03*
X02298Y00845D03*
X02343Y00769D03*
X02342Y00828D03*
X0225Y00827D03*
X02249Y00765D03*
X01718Y00137D03*
X01767Y00141D03*
X01817Y00138D03*
X01741Y00093D03*
X018Y00094D03*
X01799Y00187D03*
X01737Y00187D03*
X01586D03*
X01587Y00095D03*
X01528Y00094D03*
X01604Y00139D03*
X01554Y00142D03*
X01504Y00138D03*
X01807Y00437D03*
X01581Y00337D03*
X01645Y00417D03*
X01642Y00364D03*
X02051Y00612D03*
X01651Y00861D03*
X01687Y00862D03*
X01633Y00836D03*
X01669D03*
X01704D03*
X01511Y01006D03*
X01464Y01019D03*
X01515Y01062D03*
X01444Y01106D03*
X01492D03*
X01468Y01062D03*
X01125Y01106D03*
X01118Y01074D03*
X01094Y01098D03*
X01813Y00472D03*
X02055Y01125D03*
X01125Y00692D03*
X01133Y00426D03*
X0087Y00503D03*
X00808Y0054D03*
X00807Y00704D03*
X00724Y00566D03*
X00685Y00559D03*
X00637Y00543D03*
X01015Y00685D03*
X00661Y00673D03*
X00631Y007D03*
X00657Y00732D03*
X00574Y005D03*
X00586Y00464D03*
X01015Y00374D03*
X00645Y00606D03*
X00619Y00633D03*
X00874Y00826D03*
X00917Y00413D03*
X02087Y00272D03*
X02052D03*
X02016D03*
X01969Y00206D03*
X0197Y00175D03*
X01969Y00143D03*
Y00238D03*
X01964Y00747D03*
Y00652D03*
X01965Y00684D03*
X01964Y00715D03*
X00417Y00314D03*
X00421Y00389D03*
X02086Y00786D03*
X01011Y00969D03*
X01129D03*
X01074D03*
X0135Y01068D03*
X01421Y01064D03*
X00675Y00771D03*
X0034Y01106D03*
X00657Y01035D03*
X0072Y01D03*
X00105Y00424D03*
X00398Y00495D03*
X00497Y00913D03*
X00496Y00767D03*
X00619Y00771D03*
X00696Y00874D03*
X00657Y01D03*
M02*