%FSTAX23Y23*%
%MOIN*%
%SFA1B1*%

%IPPOS*%
%ADD12C,0.015748*%
%ADD63C,0.023622*%
%ADD68R,0.053464X0.053464*%
%ADD71R,0.045275X0.045275*%
%ADD73R,0.045275X0.045275*%
%ADD76C,0.039370*%
%ADD79C,0.027559*%
%LNlebot-1*%
%LPD*%
G36*
X02392Y01085D02*
Y0011D01*
X02312Y0003*
X01171*
X01169Y00035*
X01178Y00042*
X01186Y00052*
X01191Y00065*
X01193Y00078*
X01191Y00092*
X01186Y00104*
X01178Y00115*
X01167Y00123*
X01155Y00128*
X01141Y0013*
X01128Y00128*
X01115Y00123*
X01105Y00115*
X01097Y00104*
X01096Y00103*
X01091Y00104*
Y007*
X00898Y00893*
Y01062*
X00961Y01125*
X00983Y01146*
X01816*
X01817Y01141*
X01813Y01138*
X01805Y01128*
X018Y01115*
X01798Y01102*
X018Y01089*
X01805Y01076*
X01813Y01065*
X01824Y01057*
X01837Y01052*
X0185Y0105*
X01863Y01052*
X01876Y01057*
X01886Y01065*
X01895Y01076*
X019Y01089*
X01902Y01102*
X019Y01115*
X01895Y01128*
X01886Y01138*
X01882Y01141*
X01884Y01146*
X02039*
X02041Y01141*
X02039Y0114*
X02034Y01133*
X02033Y01125*
X02034Y01116*
X02039Y01109*
X02046Y01104*
X02055Y01102*
X02063Y01104*
X0207Y01109*
X02073Y01114*
X02075Y01116*
X0208Y01115*
X02084Y01113*
X02092Y01111*
X02095Y01111*
X02097Y01107*
X02005Y01015*
X02001Y01008*
X01999Y01*
Y00975*
X01995Y00972*
X0199Y00965*
X01988Y00956*
X0199Y00948*
X01995Y00941*
X01999Y00938*
Y00931*
X01627*
X0162Y00929*
X01613Y00925*
X0126Y00572*
X01256Y00565*
X01254Y00558*
Y0051*
X01254Y0051*
X01252Y00501*
X01254Y00493*
X01258Y00486*
X01266Y00481*
X01274Y00479*
X01283Y00481*
X0129Y00486*
X01295Y00493*
X01296Y00501*
X01301Y00504*
X01302Y00503*
X01302Y00503*
X01302Y00503*
X01304Y00501*
X01307Y00499*
X01307Y00499*
X01307Y00499*
X0131Y00499*
X01313Y00498*
X01313Y00498*
X01313Y00498*
X01444Y00499*
X01447Y005*
X0145Y005*
X01454Y00498*
X01455Y00496*
X01456Y00494*
Y00491*
X01454Y0049*
X0145Y00482*
X01448Y00474*
X0145Y00466*
X01454Y00458*
X01455Y00458*
Y00454*
X01451Y00447*
X01449Y00439*
X01451Y0043*
X01455Y00423*
X01463Y00418*
X01471Y00416*
X01479Y00418*
X01487Y00423*
X01491Y0043*
X01493Y00439*
X01491Y00447*
X01487Y00454*
X01486Y00455*
Y00458*
X0149Y00466*
X01492Y00474*
X0149Y00482*
X01486Y00489*
X01485Y00491*
Y00495*
X01487Y00496*
X01492Y00503*
X01492Y00505*
X01771*
X01794Y00482*
X01793Y0048*
X01791Y00472*
X01793Y00463*
X01798Y00456*
Y00456*
X01792Y00452*
X01787Y00445*
X01785Y00437*
X01787Y00428*
X0179Y00423*
X01788Y00418*
X01775*
X01769Y00417*
X01764Y00413*
X01649Y00299*
X01642Y00297*
X01635Y00293*
X01401*
X01395Y00297*
X01386Y00299*
X01378Y00297*
X01371Y00293*
X01366Y00286*
X01366Y00285*
X01364Y00285*
X01356Y00286*
X01347Y00285*
X01347Y00285*
X01346Y00289*
X01341Y00297*
X01334Y00301*
X01325Y00303*
X01317Y00301*
X0131Y00297*
X01305Y00289*
X01303Y00281*
X01305Y00273*
X0131Y00265*
X01317Y00261*
X01325Y00259*
X01334Y00261*
X01335Y0026*
X01335Y00256*
X0134Y00249*
X01347Y00244*
X01356Y00242*
X01364Y00244*
X01371Y00249*
X01376Y00256*
X01376Y00256*
X01378Y00257*
X01386Y00255*
X01395Y00257*
X01401Y00261*
X01635*
X01642Y00257*
X0165Y00255*
X01659Y00257*
X01666Y00261*
X0167Y00269*
X01672Y00276*
X01782Y00386*
X01793*
X01795Y00381*
X01791Y00375*
X01789Y00367*
X01791Y00358*
X01796Y00351*
X01803Y00346*
X01812Y00345*
X0182Y00346*
X01827Y00351*
X01832Y00358*
X01834Y00367*
X01832Y00375*
X01832Y00375*
X01834Y0038*
X01841Y00382*
X01847Y00386*
X01852Y00384*
Y0015*
X01853Y00144*
X01856Y00139*
X01883Y00112*
X01888Y00109*
X01894Y00107*
X01975*
X01981Y00109*
X01986Y00112*
X01995Y00121*
X01999Y00126*
X02Y00132*
Y00251*
X02005Y00253*
X02008Y00251*
X02016Y0025*
X02025Y00251*
X02032Y00256*
X02036*
X02043Y00251*
X02052Y0025*
X0206Y00251*
X02067Y00256*
X02071*
X02079Y00251*
X02087Y0025*
X02096Y00251*
X02103Y00256*
X02107Y00263*
X02109Y00272*
X02107Y0028*
X02103Y00287*
X02096Y00292*
X02087Y00294*
X02079Y00292*
X02071Y00287*
X02067*
X0206Y00292*
X02052Y00294*
X02043Y00292*
X02036Y00287*
X02032*
X02025Y00292*
X02016Y00294*
X02008Y00292*
X02005Y0029*
X02Y00293*
Y00456*
X02004Y00459*
X02006Y00459*
X02015Y0046*
X02015Y00461*
X02027*
X02035Y00462*
X02041Y00467*
X0214Y00565*
X02144Y00572*
X02146Y00579*
Y00587*
X02151Y00589*
X02153Y00587*
X02162Y00586*
X0217Y00587*
X02178Y00592*
X02182Y00599*
X02184Y00608*
X02182Y00616*
X02178Y00623*
X0217Y00628*
X02162Y0063*
X02153Y00628*
X02151Y00626*
X02146Y00629*
Y00809*
X02144Y00817*
X0214Y00824*
X02039Y00924*
Y00992*
X02143Y01096*
X02147Y01102*
X02149Y0111*
Y01115*
X02153Y01117*
X02153Y01117*
X02162Y01115*
X0217Y01117*
X02178Y01122*
X02182Y01129*
X02184Y01137*
X02183Y01141*
X02187Y01146*
X02331*
X02392Y01085*
G37*
G36*
X0075Y01001D02*
X00891Y00859D01*
X01055Y00695*
Y00089*
X01008Y00043*
X00118*
X00028Y00132*
Y00728*
X00033Y00729*
X00035Y00723*
X0004Y00717*
X00047Y00712*
X00054Y00709*
X00062Y00708*
X00088*
X00096Y00709*
X00103Y00712*
X00109Y00717*
X00114Y00723*
X00117Y0073*
X00118Y00738*
X00117Y00746*
X00114Y00754*
X00109Y0076*
X00103Y00765*
X00096Y00768*
X00088Y00769*
X00062*
X00054Y00768*
X00047Y00765*
X0004Y0076*
X00035Y00754*
X00033Y00748*
X00028Y00749*
Y01033*
X00033Y01034*
X00035Y01028*
X0004Y01022*
X00047Y01017*
X00054Y01014*
X00062Y01013*
X00088*
X00096Y01014*
X00103Y01017*
X00109Y01022*
X00114Y01028*
X00117Y01036*
X00118Y01044*
X00117Y01052*
X00114Y01059*
X00109Y01065*
X00103Y0107*
X00096Y01073*
X00088Y01074*
X00072*
X0007Y01079*
X00114Y01123*
X00629*
X0075Y01001*
G37*
G36*
X02095Y00811D02*
X02093Y00807D01*
X02086Y00808*
X02078Y00806*
X02071Y00802*
X02066*
X02059Y00806*
X02051Y00808*
X02042Y00806*
X02035Y00802*
X02031*
X02024Y00806*
X02015Y00808*
X02007Y00806*
X02004Y00805*
X02Y00807*
Y00855*
X02Y00857*
Y00858*
X01999Y0086*
X01999Y00861*
X01998Y00862*
X01997Y00864*
X01996Y00865*
X01995Y00866*
X01994Y00867*
X01993Y00868*
X01991Y00869*
X0199Y0087*
X01988Y0087*
X01987Y00871*
X01985Y00871*
X01983Y00872*
X01981Y00874*
X01981Y00878*
X0198Y00879*
X0198Y00881*
X01979Y00882*
X01978Y00883*
X01977Y00885*
X01976Y00886*
X01976Y00886*
X01978Y00891*
X02016*
X02095Y00811*
G37*
G36*
X01965Y00875D02*
X01966Y00868D01*
X01971Y00861*
X01978Y00856*
X01984Y00855*
Y00132*
X01975Y00124*
X01894*
X01868Y0015*
Y00432*
X01834Y00465*
X01836Y00472*
X01834Y0048*
X01829Y00488*
X01822Y00492*
X01813Y00494*
X01807Y00493*
X01778Y00521*
X01491*
X01487Y00527*
X0148Y00532*
X01471Y00533*
X01463Y00532*
X01456Y00527*
X01452Y00521*
X01449*
X01443Y00515*
X01313Y00514*
X0131Y00518*
Y00553*
X0154Y00783*
X01546Y00782*
X01549Y00778*
X01556Y00773*
X01564Y00772*
X01573Y00773*
X0158Y00778*
X01585Y00785*
X01587Y00794*
X01585Y00802*
X0158Y00809*
X01576Y00812*
X01575Y00818*
X01642Y00885*
X01954*
X01965Y00875*
G37*
G36*
X02078Y00766D02*
X02086Y00764D01*
X02095Y00766*
X02101Y0077*
X02106Y00768*
Y0063*
X02101Y00627*
X02099Y00628*
X02091Y0063*
X02083Y00628*
X02075Y00623*
X02075Y00623*
X02069*
X02066Y00627*
X02059Y00632*
X02051Y00634*
X02042Y00632*
X02035Y00627*
X0203Y0062*
X02029Y00612*
X0203Y00603*
X02035Y00596*
X02042Y00591*
X02051Y0059*
X02059Y00591*
X02066Y00596*
X02067Y00596*
X02073*
X02075Y00592*
X02083Y00587*
X02091Y00586*
X02098Y00587*
X021Y00582*
X02019Y00501*
X02015*
X02015Y00501*
X02006Y00503*
X02004Y00502*
X02Y00506*
Y00765*
X02004Y00767*
X02007Y00766*
X02015Y00764*
X02024Y00766*
X02031Y0077*
X02035*
X02042Y00766*
X02051Y00764*
X02059Y00766*
X02066Y0077*
X02071*
X02078Y00766*
G37*
%LNlebot-2*%
%LPC*%
G36*
X01125Y01128D02*
X01117Y01126D01*
X0111Y01121*
X01106Y01116*
X01102Y01118*
X01094Y0112*
X01086Y01118*
X01078Y01114*
X01074Y01106*
X01072Y01098*
X01074Y01089*
X01078Y01082*
X01086Y01078*
X01094Y01076*
X01096Y01074*
X01097Y01066*
X01102Y01059*
X01109Y01054*
X01118Y01052*
X01126Y01054*
X01133Y01059*
X01138Y01066*
X0114Y01074*
X01138Y01083*
X01136Y01086*
X01141Y0109*
X01146Y01097*
X01148Y01106*
X01146Y01114*
X01141Y01121*
X01134Y01126*
X01125Y01128*
G37*
G36*
X02287Y01054D02*
X02279Y01052D01*
X02272Y01048*
X02267Y0104*
X02265Y01032*
X02267Y01024*
X02272Y01016*
X02279Y01012*
X02287Y0101*
X02296Y01012*
X02303Y01016*
X02308Y01024*
X02309Y01032*
X02308Y0104*
X02303Y01048*
X02296Y01052*
X02287Y01054*
G37*
G36*
X02337Y01034D02*
X02329Y01033D01*
X02322Y01028*
X02317Y01021*
X02315Y01012*
X02317Y01004*
X02322Y00997*
X02329Y00992*
X02337Y0099*
X02346Y00992*
X02353Y00997*
X02358Y01004*
X02359Y01012*
X02358Y01021*
X02353Y01028*
X02346Y01033*
X02337Y01034*
G37*
G36*
X02243Y0103D02*
X02235Y01029D01*
X02228Y01024*
X02223Y01017*
X02221Y01008*
X02223Y01*
X02228Y00993*
X02235Y00988*
X02243Y00986*
X02252Y00988*
X02259Y00993*
X02264Y01*
X02265Y01008*
X02264Y01017*
X02259Y01024*
X02252Y01029*
X02243Y0103*
G37*
G36*
X02291Y01005D02*
X02283Y01003D01*
X02275Y00998*
X02271Y00991*
X02269Y00983*
X02271Y00974*
X02275Y00967*
X02283Y00962*
X02291Y00961*
X023Y00962*
X02307Y00967*
X02311Y00974*
X02313Y00983*
X02311Y00991*
X02307Y00998*
X023Y01003*
X02291Y01005*
G37*
G36*
X02336Y00972D02*
X02328Y00971D01*
X02321Y00966*
X02316Y00959*
X02314Y0095*
X02316Y00942*
X02321Y00935*
X02328Y0093*
X02336Y00928*
X02345Y0093*
X02352Y00935*
X02357Y00942*
X02358Y0095*
X02357Y00959*
X02352Y00966*
X02345Y00971*
X02336Y00972*
G37*
G36*
X02244Y00971D02*
X02235Y0097D01*
X02228Y00965*
X02223Y00958*
X02222Y00949*
X02223Y00941*
X02228Y00934*
X02235Y00929*
X02244Y00927*
X02252Y00929*
X02259Y00934*
X02262Y00937*
X02267Y00935*
X02266Y00933*
X02268Y00924*
X02273Y00917*
X0228Y00912*
X02288Y0091*
X02297Y00912*
X02304Y00917*
X02309Y00924*
X0231Y00933*
X02309Y00941*
X02304Y00948*
X02297Y00953*
X02288Y00955*
X0228Y00953*
X02273Y00948*
X0227Y00945*
X02265Y00946*
X02266Y00949*
X02264Y00958*
X02259Y00965*
X02252Y0097*
X02244Y00971*
G37*
G36*
X02298Y00867D02*
X02289Y00865D01*
X02282Y00861*
X02277Y00853*
X02276Y00845*
X02277Y00837*
X02282Y00829*
X02289Y00825*
X02298Y00823*
X02306Y00825*
X02313Y00829*
X02316Y00833*
X02321Y00831*
X0232Y00828*
X02322Y0082*
X02326Y00813*
X02334Y00808*
X02342Y00806*
X0235Y00808*
X02358Y00813*
X02362Y0082*
X02364Y00828*
X02362Y00837*
X02358Y00844*
X0235Y00849*
X02342Y0085*
X02334Y00849*
X02326Y00844*
X02324Y0084*
X02319Y00842*
X0232Y00845*
X02318Y00853*
X02313Y00861*
X02306Y00865*
X02298Y00867*
G37*
G36*
X0225Y00849D02*
X02241Y00848D01*
X02234Y00843*
X02229Y00836*
X02227Y00827*
X02229Y00819*
X02234Y00812*
X02241Y00807*
X0225Y00805*
X02258Y00807*
X02265Y00812*
X0227Y00819*
X02272Y00827*
X0227Y00836*
X02265Y00843*
X02258Y00848*
X0225Y00849*
G37*
G36*
X02295Y00817D02*
X02286Y00815D01*
X02279Y0081*
X02274Y00803*
X02273Y00795*
X02274Y00786*
X02279Y00779*
X02286Y00774*
X02295Y00773*
X02303Y00774*
X0231Y00779*
X02315Y00786*
X02317Y00795*
X02315Y00803*
X0231Y0081*
X02303Y00815*
X02295Y00817*
G37*
G36*
X02343Y00791D02*
X02334Y0079D01*
X02327Y00785*
X02322Y00778*
X0232Y00769*
X02322Y00761*
X02327Y00754*
X02334Y00749*
X02343Y00747*
X02351Y00749*
X02358Y00754*
X02363Y00761*
X02365Y00769*
X02363Y00778*
X02358Y00785*
X02351Y0079*
X02343Y00791*
G37*
G36*
X02249Y00787D02*
X0224Y00786D01*
X02233Y00781*
X02228Y00774*
X02226Y00765*
X02228Y00757*
X02233Y0075*
X0224Y00745*
X02249Y00743*
X02257Y00745*
X02264Y0075*
X02269Y00757*
X02271Y00765*
X02269Y00774*
X02264Y00781*
X02257Y00786*
X02249Y00787*
G37*
G36*
X02299Y00768D02*
X0229Y00766D01*
X02283Y00761*
X02278Y00754*
X02277Y00746*
X02278Y00737*
X02283Y0073*
X0229Y00725*
X02299Y00723*
X02307Y00725*
X02314Y0073*
X02319Y00737*
X02321Y00746*
X02319Y00754*
X02314Y00761*
X02307Y00766*
X02299Y00768*
G37*
G36*
X01129Y00762D02*
X0112Y00761D01*
X01113Y00756*
X01108Y00749*
X01107Y0074*
X01108Y00732*
X01113Y00725*
X0112Y0072*
X01129Y00718*
X01137Y0072*
X01144Y00725*
X01149Y00732*
X01151Y0074*
X01149Y00749*
X01144Y00756*
X01137Y00761*
X01129Y00762*
G37*
G36*
X02287Y0055D02*
X02278Y00548D01*
X02271Y00544*
X02267Y00536*
X02265Y00528*
X02267Y0052*
X02271Y00512*
X02278Y00508*
X02287Y00506*
X02295Y00508*
X02303Y00512*
X02307Y0052*
X02309Y00528*
X02307Y00536*
X02303Y00544*
X02295Y00548*
X02287Y0055*
G37*
G36*
X02337Y0053D02*
X02329Y00529D01*
X02321Y00524*
X02317Y00517*
X02315Y00508*
X02317Y005*
X02321Y00493*
X02329Y00488*
X02337Y00486*
X02346Y00488*
X02353Y00493*
X02357Y005*
X02359Y00508*
X02357Y00517*
X02353Y00524*
X02346Y00529*
X02337Y0053*
G37*
G36*
X02243Y00527D02*
X02235Y00525D01*
X02227Y0052*
X02223Y00513*
X02221Y00504*
X02223Y00496*
X02227Y00489*
X02235Y00484*
X02243Y00482*
X02252Y00484*
X02259Y00489*
X02263Y00496*
X02265Y00504*
X02263Y00513*
X02259Y0052*
X02252Y00525*
X02243Y00527*
G37*
G36*
X02291Y00501D02*
X02282Y00499D01*
X02275Y00494*
X0227Y00487*
X02269Y00479*
X0227Y0047*
X02275Y00463*
X02282Y00458*
X02291Y00457*
X02299Y00458*
X02306Y00463*
X02311Y0047*
X02313Y00479*
X02311Y00487*
X02306Y00494*
X02299Y00499*
X02291Y00501*
G37*
G36*
X02336Y00468D02*
X02328Y00467D01*
X02321Y00462*
X02316Y00455*
X02314Y00446*
X02316Y00438*
X02321Y00431*
X02328Y00426*
X02336Y00424*
X02345Y00426*
X02352Y00431*
X02357Y00438*
X02358Y00446*
X02357Y00455*
X02352Y00462*
X02345Y00467*
X02336Y00468*
G37*
G36*
X02244Y00467D02*
X02235Y00466D01*
X02228Y00461*
X02223Y00454*
X02222Y00445*
X02223Y00437*
X02228Y0043*
X02235Y00425*
X02244Y00423*
X02252Y00425*
X02259Y0043*
X02262Y00433*
X02266Y00431*
X02266Y00429*
X02267Y0042*
X02272Y00413*
X02279Y00408*
X02288Y00407*
X02296Y00408*
X02303Y00413*
X02308Y0042*
X0231Y00429*
X02308Y00437*
X02303Y00444*
X02296Y00449*
X02288Y00451*
X02279Y00449*
X02272Y00444*
X0227Y00441*
X02265Y00443*
X02266Y00445*
X02264Y00454*
X02259Y00461*
X02252Y00466*
X02244Y00467*
G37*
G36*
X02288Y00339D02*
X02279Y00337D01*
X02272Y00332*
X02267Y00325*
X02266Y00316*
X02267Y00308*
X02272Y00301*
X02279Y00296*
X02288Y00294*
X02296Y00296*
X02303Y00301*
X02308Y00308*
X0231Y00316*
X02308Y00325*
X02303Y00332*
X02296Y00337*
X02288Y00339*
G37*
G36*
X02338Y00319D02*
X0233Y00317D01*
X02322Y00312*
X02318Y00305*
X02316Y00297*
X02318Y00288*
X02322Y00281*
X0233Y00276*
X02338Y00275*
X02347Y00276*
X02354Y00281*
X02358Y00288*
X0236Y00297*
X02358Y00305*
X02354Y00312*
X02347Y00317*
X02338Y00319*
G37*
G36*
X02244Y00315D02*
X02236Y00313D01*
X02228Y00308*
X02224Y00301*
X02222Y00293*
X02224Y00284*
X02228Y00277*
X02236Y00272*
X02244Y00271*
X02253Y00272*
X0226Y00277*
X02264Y00284*
X02266Y00293*
X02264Y00301*
X0226Y00308*
X02253Y00313*
X02244Y00315*
G37*
G36*
X02292Y00289D02*
X02283Y00288D01*
X02276Y00283*
X02271Y00276*
X0227Y00267*
X02271Y00259*
X02276Y00252*
X02283Y00247*
X02292Y00245*
X023Y00247*
X02307Y00252*
X02312Y00259*
X02314Y00267*
X02312Y00276*
X02307Y00283*
X023Y00288*
X02292Y00289*
G37*
G36*
X02337Y00257D02*
X02329Y00255D01*
X02321Y0025*
X02317Y00243*
X02315Y00235*
X02317Y00226*
X02321Y00219*
X02329Y00214*
X02337Y00213*
X02346Y00214*
X02353Y00219*
X02357Y00226*
X02359Y00235*
X02357Y00243*
X02353Y0025*
X02346Y00255*
X02337Y00257*
G37*
G36*
X02245Y00256D02*
X02236Y00254D01*
X02229Y00249*
X02224Y00242*
X02223Y00234*
X02224Y00225*
X02229Y00218*
X02236Y00213*
X02245Y00212*
X02253Y00213*
X0226Y00218*
X02263Y00222*
X02267Y0022*
X02267Y00217*
X02268Y00209*
X02273Y00201*
X0228Y00197*
X02289Y00195*
X02297Y00197*
X02304Y00201*
X02309Y00209*
X02311Y00217*
X02309Y00225*
X02304Y00233*
X02297Y00237*
X02289Y00239*
X0228Y00237*
X02273Y00233*
X02271Y00229*
X02266Y00231*
X02267Y00234*
X02265Y00242*
X0226Y00249*
X02253Y00254*
X02245Y00256*
G37*
G36*
X01298Y00257D02*
X01243D01*
Y00202*
X01246*
X01249Y00197*
X01246Y00194*
X01243Y00187*
X01243Y00186*
X0127*
X01297*
X01297Y00187*
X01294Y00194*
X01292Y00197*
X01294Y00202*
X01298*
Y00257*
G37*
G36*
X01524Y00211D02*
X01516Y00209D01*
X01508Y00204*
X01504Y00197*
X01502Y00188*
X01504Y0018*
X01508Y00173*
X01516Y00168*
X01524Y00166*
X01533Y00168*
X0154Y00173*
X01545Y0018*
X01546Y00188*
X01545Y00197*
X0154Y00204*
X01533Y00209*
X01524Y00211*
G37*
G36*
X01586Y0021D02*
X01578Y00208D01*
X01571Y00203*
X01566Y00196*
X01564Y00187*
X01566Y00179*
X01571Y00172*
X01578Y00167*
X01586Y00165*
X01595Y00167*
X01602Y00172*
X01607Y00179*
X01608Y00187*
X01607Y00196*
X01602Y00203*
X01595Y00208*
X01586Y0021*
G37*
G36*
X01737D02*
X01729Y00208D01*
X01722Y00203*
X01717Y00196*
X01715Y00187*
X01717Y00179*
X01722Y00172*
X01729Y00167*
X01737Y00165*
X01746Y00167*
X01753Y00172*
X01758Y00179*
X0176Y00187*
X01758Y00196*
X01753Y00203*
X01746Y00208*
X01737Y0021*
G37*
G36*
X01799Y00209D02*
X01791Y00207D01*
X01784Y00202*
X01779Y00195*
X01777Y00187*
X01779Y00178*
X01784Y00171*
X01791Y00166*
X01799Y00164*
X01808Y00166*
X01815Y00171*
X0182Y00178*
X01822Y00187*
X0182Y00195*
X01815Y00202*
X01808Y00207*
X01799Y00209*
G37*
G36*
X01187Y00207D02*
X01178Y00205D01*
X01171Y002*
X01166Y00193*
X01164Y00185*
X01166Y00176*
X01171Y00169*
X01178Y00164*
X01187Y00162*
X01195Y00164*
X01202Y00169*
X01207Y00176*
X01209Y00185*
X01207Y00193*
X01202Y002*
X01195Y00205*
X01187Y00207*
G37*
G36*
X01264Y00174D02*
X01243D01*
X01243Y00172*
X01246Y00166*
X01251Y0016*
X01256Y00156*
X01263Y00153*
X01264Y00153*
Y00174*
G37*
G36*
X01297D02*
X01276D01*
Y00153*
X01277Y00153*
X01284Y00156*
X0129Y0016*
X01294Y00166*
X01297Y00172*
X01297Y00174*
G37*
G36*
X01554Y00164D02*
X01545Y00163D01*
X01538Y00158*
X01533Y00151*
X01532Y00142*
X01533Y00134*
X01538Y00127*
X01545Y00122*
X01554Y0012*
X01562Y00122*
X01569Y00127*
X01574Y00134*
X01576Y00142*
X01574Y00151*
X01569Y00158*
X01562Y00163*
X01554Y00164*
G37*
G36*
X01767Y00163D02*
X01759Y00162D01*
X01751Y00157*
X01747Y0015*
X01745Y00141*
X01747Y00133*
X01751Y00126*
X01759Y00121*
X01767Y00119*
X01775Y00121*
X01783Y00126*
X01787Y00133*
X01789Y00141*
X01787Y0015*
X01783Y00157*
X01775Y00162*
X01767Y00163*
G37*
G36*
X01604Y00161D02*
X01595Y0016D01*
X01588Y00155*
X01583Y00148*
X01582Y00139*
X01583Y00131*
X01588Y00124*
X01592Y00121*
X0159Y00116*
X01587Y00117*
X01579Y00115*
X01571Y00111*
X01567Y00103*
X01565Y00095*
X01567Y00087*
X01571Y00079*
X01579Y00075*
X01587Y00073*
X01596Y00075*
X01603Y00079*
X01607Y00087*
X01609Y00095*
X01607Y00103*
X01603Y00111*
X01599Y00113*
X01601Y00118*
X01604Y00117*
X01612Y00119*
X01619Y00124*
X01624Y00131*
X01626Y00139*
X01624Y00148*
X01619Y00155*
X01612Y0016*
X01604Y00161*
G37*
G36*
X01504Y0016D02*
X01496Y00159D01*
X01489Y00154*
X01484Y00147*
X01482Y00138*
X01484Y0013*
X01489Y00123*
X01496Y00118*
X01504Y00116*
X01513Y00118*
X0152Y00123*
X01525Y0013*
X01527Y00138*
X01525Y00147*
X0152Y00154*
X01513Y00159*
X01504Y0016*
G37*
G36*
X01817D02*
X01809Y00159D01*
X01802Y00154*
X01797Y00147*
X01795Y00138*
X01797Y0013*
X01802Y00123*
X01805Y0012*
X01803Y00116*
X018Y00116*
X01792Y00114*
X01785Y0011*
X0178Y00102*
X01778Y00094*
X0178Y00086*
X01785Y00078*
X01792Y00074*
X018Y00072*
X01809Y00074*
X01816Y00078*
X01821Y00086*
X01823Y00094*
X01821Y00102*
X01816Y0011*
X01812Y00112*
X01814Y00117*
X01817Y00116*
X01826Y00118*
X01833Y00123*
X01838Y0013*
X01839Y00138*
X01838Y00147*
X01833Y00154*
X01826Y00159*
X01817Y0016*
G37*
G36*
X01718Y00159D02*
X01709Y00158D01*
X01702Y00153*
X01697Y00146*
X01696Y00137*
X01697Y00129*
X01702Y00122*
X01709Y00117*
X01718Y00115*
X01726Y00117*
X01733Y00122*
X01738Y00129*
X0174Y00137*
X01738Y00146*
X01733Y00153*
X01726Y00158*
X01718Y00159*
G37*
G36*
X01357Y00111D02*
X0135Y0011D01*
X01343Y00107*
X01339Y00105*
X01334Y00107*
Y00111*
X01279*
Y00056*
X01334*
Y00059*
X01339Y00062*
X01343Y00059*
X0135Y00056*
X01357Y00055*
X01364Y00056*
X01371Y00059*
X01376Y00064*
X01379Y00066*
X01385*
X01387Y00064*
X01393Y00059*
X014Y00056*
X01401Y00056*
Y00083*
Y0011*
X014Y0011*
X01393Y00107*
X01387Y00103*
X01385Y001*
X01379*
X01376Y00103*
X01371Y00107*
X01364Y0011*
X01357Y00111*
G37*
G36*
X01413Y0011D02*
Y00089D01*
X01434*
X01434Y0009*
X01431Y00097*
X01426Y00103*
X01421Y00107*
X01414Y0011*
X01413Y0011*
G37*
G36*
X01528Y00117D02*
X0152Y00115D01*
X01512Y0011*
X01508Y00103*
X01506Y00094*
X01508Y00086*
X01512Y00079*
X0152Y00074*
X01528Y00072*
X01536Y00074*
X01544Y00079*
X01548Y00086*
X0155Y00094*
X01548Y00103*
X01544Y0011*
X01536Y00115*
X01528Y00117*
G37*
G36*
X01741Y00116D02*
X01733Y00114D01*
X01726Y00109*
X01721Y00102*
X01719Y00093*
X01721Y00085*
X01726Y00078*
X01733Y00073*
X01741Y00071*
X0175Y00073*
X01757Y00078*
X01762Y00085*
X01763Y00093*
X01762Y00102*
X01757Y00109*
X0175Y00114*
X01741Y00116*
G37*
G36*
X01434Y00077D02*
X01413D01*
Y00056*
X01414Y00056*
X01421Y00059*
X01426Y00064*
X01431Y00069*
X01434Y00076*
X01434Y00077*
G37*
G36*
X00235Y01074D02*
X00214D01*
X00204Y01073*
X00195Y01069*
X00188Y01064*
X00182Y01056*
X00178Y01047*
X00177Y01038*
X00178Y01028*
X00182Y01019*
X00183Y01018*
X0018Y01013*
X00174Y01012*
X00166Y01006*
X00161Y00999*
X00159Y00989*
X00161Y0098*
X00166Y00972*
X00174Y00967*
X00183Y00965*
X00192Y00967*
X002Y00972*
X00205Y0098*
X00207Y00989*
X00206Y00997*
X00208Y01001*
X0021Y01001*
X00214Y01001*
X00235*
X00245Y01002*
X00254Y01006*
X00261Y01012*
X00267Y01019*
X00271Y01028*
X00272Y01038*
X00271Y01047*
X00267Y01056*
X00261Y01064*
X00254Y01069*
X00245Y01073*
X00235Y01074*
G37*
G36*
X00657Y01057D02*
X00649Y01055D01*
X00641Y01051*
X00637Y01043*
X00635Y01035*
X00637Y01026*
X00641Y01019*
Y01015*
X00637Y01008*
X00635Y01*
X00637Y00991*
X00641Y00984*
X00649Y00979*
X00657Y00977*
X00665Y00979*
X00673Y00984*
X00677Y00991*
X00679Y01*
X00677Y01008*
X00673Y01015*
Y01019*
X00677Y01026*
X00679Y01035*
X00677Y01043*
X00673Y01051*
X00665Y01055*
X00657Y01057*
G37*
G36*
X00563Y00938D02*
X00555Y00936D01*
X00547Y00931*
X00543Y00924*
X00541Y00916*
X00543Y00907*
X00547Y009*
X00555Y00895*
X00563Y00894*
X00571Y00895*
X00579Y009*
X00583Y00907*
X00585Y00916*
X00583Y00924*
X00579Y00931*
X00571Y00936*
X00563Y00938*
G37*
G36*
X00381Y00846D02*
X00372Y00845D01*
X00365Y0084*
X0036Y00833*
X00359Y00824*
X0036Y00816*
X00365Y00809*
X00372Y00804*
X00381Y00802*
X00389Y00804*
X00396Y00809*
X00401Y00816*
X00403Y00824*
X00401Y00833*
X00396Y0084*
X00389Y00845*
X00381Y00846*
G37*
G36*
X00657Y00754D02*
X00649Y00752D01*
X00641Y00747*
X00637Y0074*
X00635Y00732*
X00636Y00726*
X00632Y00722*
X00631Y00722*
X00623Y00721*
X00615Y00716*
X00611Y00709*
X00609Y007*
X00611Y00692*
X00615Y00685*
X00623Y0068*
X00631Y00678*
X00635Y00679*
X00639Y00675*
X00639Y00673*
X00641Y00664*
X00645Y00657*
X00652Y00652*
X00661Y00651*
X00669Y00652*
X00677Y00657*
X00681Y00664*
X00683Y00673*
X00681Y00681*
X00677Y00688*
X00669Y00693*
X00661Y00695*
X00657Y00694*
X00653Y00698*
X00653Y007*
X00652Y00706*
X00656Y0071*
X00657Y0071*
X00665Y00711*
X00673Y00716*
X00677Y00723*
X00679Y00732*
X00677Y0074*
X00673Y00747*
X00665Y00752*
X00657Y00754*
G37*
G36*
X00183Y00817D02*
X00174Y00815D01*
X00166Y0081*
X00161Y00802*
X00159Y00793*
X00161Y00783*
X00166Y00776*
X00174Y0077*
X0018Y00769*
X00183Y00764*
X00182Y00763*
X00178Y00754*
X00177Y00744*
X00178Y00735*
X00182Y00726*
X00188Y00718*
X00195Y00713*
X00204Y00709*
X00214Y00708*
X00235*
X00245Y00709*
X00254Y00713*
X00261Y00718*
X00267Y00726*
X00271Y00735*
X00272Y00744*
X00271Y00754*
X00267Y00763*
X00261Y0077*
X00254Y00776*
X00245Y0078*
X00235Y00781*
X00214*
X0021Y00781*
X00208Y00781*
X00206Y00785*
X00207Y00793*
X00205Y00802*
X002Y0081*
X00192Y00815*
X00183Y00817*
G37*
G36*
X00807Y00726D02*
X00798Y00725D01*
X00791Y0072*
X00786Y00713*
X00785Y00704*
X00786Y00696*
X00791Y00689*
X00798Y00684*
X00807Y00682*
X00815Y00684*
X00822Y00689*
X00827Y00696*
X00829Y00704*
X00827Y00713*
X00822Y0072*
X00815Y00725*
X00807Y00726*
G37*
G36*
X00405Y0067D02*
X00397Y00669D01*
X00389Y00664*
X00385Y00657*
X00383Y00648*
X00385Y0064*
X00389Y00633*
X00397Y00628*
X00405Y00626*
X00413Y00628*
X00421Y00633*
X00425Y0064*
X00427Y00648*
X00425Y00657*
X00421Y00664*
X00413Y00669*
X00405Y0067*
G37*
G36*
X00619Y00655D02*
X00611Y00654D01*
X00603Y00649*
X00599Y00642*
X00597Y00633*
X00599Y00625*
X00603Y00618*
X00611Y00613*
X00619Y00611*
X0062Y00611*
X00624Y00608*
X00623Y00606*
X00625Y00597*
X0063Y0059*
X00637Y00585*
X00645Y00584*
X00654Y00585*
X00661Y0059*
X00666Y00597*
X00667Y00606*
X00666Y00614*
X00661Y00621*
X00654Y00626*
X00645Y00628*
X00644Y00628*
X00641Y00631*
X00641Y00633*
X0064Y00642*
X00635Y00649*
X00628Y00654*
X00619Y00655*
G37*
G36*
X00807Y0062D02*
X00798Y00618D01*
X00791Y00614*
X00786Y00606*
X00785Y00598*
X00786Y00589*
X00791Y00582*
X00798Y00578*
X00807Y00576*
X00815Y00578*
X00822Y00582*
X00827Y00589*
X00829Y00598*
X00827Y00606*
X00822Y00614*
X00815Y00618*
X00807Y0062*
G37*
G36*
X00724Y00589D02*
X00715Y00587D01*
X00708Y00582*
X00705Y00577*
X00702Y00575*
X00698Y00575*
X00693Y00579*
X00685Y00581*
X00676Y00579*
X00669Y00574*
X00664Y00567*
X00662Y00559*
X00664Y0055*
X00669Y00543*
X00676Y00538*
X00685Y00536*
X00693Y00538*
X007Y00543*
X00704Y00548*
X00707Y0055*
X0071Y0055*
X00715Y00546*
X00724Y00544*
X00732Y00546*
X0074Y00551*
X00744Y00558*
X00746Y00566*
X00744Y00575*
X0074Y00582*
X00732Y00587*
X00724Y00589*
G37*
G36*
X00637Y00565D02*
X00629Y00563D01*
X00622Y00558*
X00617Y00551*
X00615Y00543*
X00617Y00534*
X00622Y00527*
X00629Y00522*
X00637Y00521*
X00646Y00522*
X00653Y00527*
X00658Y00534*
X00659Y00543*
X00658Y00551*
X00653Y00558*
X00646Y00563*
X00637Y00565*
G37*
G36*
X00808Y00562D02*
X008Y0056D01*
X00792Y00555*
X00788Y00548*
X00786Y0054*
X00788Y00531*
X00792Y00524*
X008Y00519*
X00808Y00517*
X00817Y00519*
X00824Y00524*
X00828Y00531*
X0083Y0054*
X00828Y00548*
X00824Y00555*
X00817Y0056*
X00808Y00562*
G37*
G36*
X01Y00486D02*
X00991Y00484D01*
X00984Y0048*
X00979Y00473*
X00977Y00464*
X00979Y00456*
X00984Y00448*
X00991Y00444*
X01Y00442*
X01008Y00444*
X01015Y00448*
X0102Y00456*
X01022Y00464*
X0102Y00473*
X01015Y0048*
X01008Y00484*
X01Y00486*
G37*
G36*
X00586D02*
X00578Y00484D01*
X00571Y0048*
X00566Y00473*
X00564Y00464*
X00566Y00456*
X00571Y00448*
X00578Y00444*
X00586Y00442*
X00595Y00444*
X00602Y00448*
X00607Y00456*
X00608Y00464*
X00607Y00473*
X00602Y0048*
X00595Y00484*
X00586Y00486*
G37*
G36*
X00368Y00402D02*
X00361Y00401D01*
X00354Y00398*
X00349Y00394*
X00346Y00391*
X0034*
X00338Y00394*
X00332Y00398*
X00325Y00401*
X00318Y00402*
X00311Y00401*
X00304Y00398*
X00299Y00394*
X00296Y00391*
X0029*
X00288Y00394*
X00282Y00398*
X00275Y00401*
X00268Y00402*
X00261Y00401*
X00254Y00398*
X00249Y00394*
X00246Y00391*
X0024*
X00238Y00394*
X00232Y00398*
X00225Y00401*
X00218Y00402*
X00211Y00401*
X00204Y00398*
X00199Y00394*
X00196Y00391*
X0019*
X00188Y00394*
X00182Y00398*
X00175Y00401*
X00168Y00402*
X00161Y00401*
X00154Y00398*
X00149Y00394*
X00144Y00388*
X00141Y00381*
X0014Y00374*
X00141Y00367*
X00144Y0036*
X00147Y00357*
X00144Y00352*
X00141*
Y00297*
X00196*
Y003*
X00201Y00303*
X00204Y003*
X00211Y00297*
X00212Y00297*
Y00324*
X00224*
Y00297*
X00225Y00297*
X00232Y003*
X00238Y00305*
X0024Y00308*
X00246*
X00249Y00305*
X00254Y003*
X00261Y00297*
X00262Y00297*
Y00324*
X00274*
Y00297*
X00275Y00297*
X00282Y003*
X00288Y00305*
X0029Y00308*
X00296*
X00299Y00305*
X00304Y003*
X00311Y00297*
X00318Y00297*
X00325Y00297*
X00332Y003*
X00338Y00305*
X0034Y00308*
X00346*
X00349Y00305*
X00354Y003*
X00361Y00297*
X00362Y00297*
Y00324*
X00368*
Y0033*
X00395*
X00395Y00331*
X00392Y00338*
X00388Y00344*
X00385Y00346*
Y00352*
X00388Y00355*
X00392Y0036*
X00395Y00367*
X00396Y00374*
X00395Y00381*
X00392Y00388*
X00388Y00394*
X00382Y00398*
X00375Y00401*
X00368Y00402*
G37*
G36*
X01015Y00396D02*
X01007Y00394D01*
X01Y00389*
X00995Y00382*
X00993Y00374*
X00995Y00365*
X01Y00358*
X01007Y00353*
X01015Y00351*
X01024Y00353*
X01031Y00358*
X01036Y00365*
X01037Y00374*
X01036Y00382*
X01031Y00389*
X01024Y00394*
X01015Y00396*
G37*
G36*
X00395Y00318D02*
X00374D01*
Y00297*
X00375Y00297*
X00382Y003*
X00388Y00305*
X00392Y0031*
X00395Y00317*
X00395Y00318*
G37*
G36*
X0101Y00229D02*
X01001Y00228D01*
X00993Y00224*
X00985Y00219*
X0098Y00211*
X00976Y00203*
X00975Y00194*
X00976Y00185*
X0098Y00177*
X00985Y00169*
X00993Y00164*
X01001Y0016*
X0101Y00159*
X01019Y0016*
X01028Y00164*
X01035Y00169*
X0104Y00177*
X01044Y00185*
X01045Y00194*
X01044Y00203*
X0104Y00211*
X01035Y00219*
X01028Y00224*
X01019Y00228*
X0101Y00229*
G37*
G36*
X0091D02*
X00901Y00228D01*
X00893Y00224*
X00885Y00219*
X0088Y00211*
X00876Y00203*
X00875Y00194*
X00876Y00185*
X0088Y00177*
X00885Y00169*
X00893Y00164*
X00901Y0016*
X0091Y00159*
X00919Y0016*
X00928Y00164*
X00935Y00169*
X0094Y00177*
X00944Y00185*
X00945Y00194*
X00944Y00203*
X0094Y00211*
X00935Y00219*
X00928Y00224*
X00919Y00228*
X0091Y00229*
G37*
G36*
X00675D02*
X00666Y00228D01*
X00658Y00224*
X00651Y00219*
X00645Y00211*
X00642Y00203*
X00641Y00194*
X00642Y00185*
X00645Y00177*
X00651Y00169*
X00658Y00164*
X00666Y0016*
X00675Y00159*
X00685Y0016*
X00693Y00164*
X007Y00169*
X00706Y00177*
X00709Y00185*
X0071Y00194*
X00709Y00203*
X00706Y00211*
X007Y00219*
X00693Y00224*
X00685Y00228*
X00675Y00229*
G37*
G36*
X00575D02*
X00566Y00228D01*
X00558Y00224*
X00551Y00219*
X00545Y00211*
X00542Y00203*
X00541Y00194*
X00542Y00185*
X00545Y00177*
X00551Y00169*
X00558Y00164*
X00566Y0016*
X00575Y00159*
X00585Y0016*
X00593Y00164*
X006Y00169*
X00606Y00177*
X00609Y00185*
X0061Y00194*
X00609Y00203*
X00606Y00211*
X006Y00219*
X00593Y00224*
X00585Y00228*
X00575Y00229*
G37*
G36*
X00348D02*
X00338Y00228D01*
X0033Y00224*
X00323Y00219*
X00317Y00211*
X00314Y00203*
X00313Y00194*
X00314Y00185*
X00317Y00177*
X00323Y00169*
X0033Y00164*
X00338Y0016*
X00348Y00159*
X00357Y0016*
X00365Y00164*
X00372Y00169*
X00378Y00177*
X00381Y00185*
X00382Y00194*
X00381Y00203*
X00378Y00211*
X00372Y00219*
X00365Y00224*
X00357Y00228*
X00348Y00229*
G37*
G36*
X00248D02*
X00238Y00228D01*
X0023Y00224*
X00223Y00219*
X00217Y00211*
X00214Y00203*
X00213Y00194*
X00214Y00185*
X00217Y00177*
X00223Y00169*
X0023Y00164*
X00238Y0016*
X00248Y00159*
X00257Y0016*
X00265Y00164*
X00272Y00169*
X00278Y00177*
X00281Y00185*
X00282Y00194*
X00281Y00203*
X00278Y00211*
X00272Y00219*
X00265Y00224*
X00257Y00228*
X00248Y00229*
G37*
G36*
X00866Y00129D02*
Y001D01*
X00895*
Y00129*
X00866*
G37*
G36*
X00805Y00204D02*
X00795Y00202D01*
X00786Y00198*
X00778Y00192*
X00771Y00184*
X00768Y00175*
X00766Y00165*
X00768Y00155*
X00771Y00145*
X00778Y00137*
X00786Y00131*
X00795Y00127*
X00805Y00126*
X00815Y00127*
X0082Y00129*
X00824Y00128*
X00826Y00126*
Y00125*
Y001*
X00854*
Y00129*
X0083*
X0083*
X00829*
X00828Y00131*
X0083Y00135*
X00832Y00137*
X00839Y00145*
X00842Y00155*
X00844Y00165*
X00842Y00175*
X00839Y00184*
X00832Y00192*
X00824Y00198*
X00815Y00202*
X00805Y00204*
G37*
G36*
X00531Y00129D02*
Y001D01*
X0056*
Y00129*
X00531*
G37*
G36*
X0047Y00204D02*
X0046Y00202D01*
X00451Y00198*
X00443Y00192*
X00437Y00184*
X00433Y00175*
X00432Y00165*
X00433Y00155*
X00437Y00145*
X00443Y00137*
X00451Y00131*
X0046Y00127*
X0047Y00126*
X0048Y00127*
X00485Y00129*
X00489Y00128*
X00491Y00126*
Y00125*
Y001*
X0052*
Y00129*
X00495*
X00495*
X00494*
X00494Y00131*
X00495Y00135*
X00498Y00137*
X00504Y00145*
X00508Y00155*
X00509Y00165*
X00508Y00175*
X00504Y00184*
X00498Y00192*
X0049Y00198*
X0048Y00202*
X0047Y00204*
G37*
G36*
X00203Y00129D02*
Y001D01*
X00232*
Y00129*
X00203*
G37*
G36*
X00142Y00204D02*
X00132Y00202D01*
X00123Y00198*
X00115Y00192*
X00109Y00184*
X00105Y00175*
X00104Y00165*
X00105Y00155*
X00109Y00145*
X00115Y00137*
X00123Y00131*
X00132Y00127*
X00142Y00126*
X00152Y00127*
X00157Y00129*
X00162Y00128*
X00163Y00126*
Y00125*
Y001*
X00192*
Y00129*
X00167*
X00167*
X00166*
X00166Y00131*
X00167Y00135*
X0017Y00137*
X00176Y00145*
X0018Y00155*
X00181Y00165*
X0018Y00175*
X00176Y00184*
X0017Y00192*
X00162Y00198*
X00152Y00202*
X00142Y00204*
G37*
G36*
X00895Y00088D02*
X00866D01*
Y00059*
X00895*
Y00088*
G37*
G36*
X00854D02*
X00826D01*
Y00059*
X00854*
Y00088*
G37*
G36*
X0056D02*
X00531D01*
Y00059*
X0056*
Y00088*
G37*
G36*
X0052D02*
X00491D01*
Y00059*
X0052*
Y00088*
G37*
G36*
X00232D02*
X00203D01*
Y00059*
X00232*
Y00088*
G37*
G36*
X00192D02*
X00163D01*
Y00059*
X00192*
Y00088*
G37*
G36*
X0096Y00129D02*
X00951Y00128D01*
X00943Y00124*
X00935Y00119*
X0093Y00111*
X00926Y00103*
X00925Y00094*
X00926Y00085*
X0093Y00077*
X00935Y00069*
X00943Y00064*
X00951Y0006*
X0096Y00059*
X00969Y0006*
X00978Y00064*
X00985Y00069*
X0099Y00077*
X00994Y00085*
X00995Y00094*
X00994Y00103*
X0099Y00111*
X00985Y00119*
X00978Y00124*
X00969Y00128*
X0096Y00129*
G37*
G36*
X00625D02*
X00616Y00128D01*
X00608Y00124*
X00601Y00119*
X00595Y00111*
X00592Y00103*
X00591Y00094*
X00592Y00085*
X00595Y00077*
X00601Y00069*
X00608Y00064*
X00616Y0006*
X00625Y00059*
X00635Y0006*
X00643Y00064*
X0065Y00069*
X00656Y00077*
X00659Y00085*
X0066Y00094*
X00659Y00103*
X00656Y00111*
X0065Y00119*
X00643Y00124*
X00635Y00128*
X00625Y00129*
G37*
G36*
X00298D02*
X00288Y00128D01*
X0028Y00124*
X00273Y00119*
X00267Y00111*
X00264Y00103*
X00263Y00094*
X00264Y00085*
X00267Y00077*
X00273Y00069*
X0028Y00064*
X00288Y0006*
X00298Y00059*
X00307Y0006*
X00315Y00064*
X00322Y00069*
X00328Y00077*
X00331Y00085*
X00332Y00094*
X00331Y00103*
X00328Y00111*
X00322Y00119*
X00315Y00124*
X00307Y00128*
X00298Y00129*
G37*
G36*
X01957Y00875D02*
X0194D01*
Y00858*
X01957*
Y00875*
G37*
G36*
X01909D02*
X01892D01*
Y00858*
X01909*
Y00875*
G37*
G36*
X01826Y00873D02*
X01818Y00872D01*
X01811Y00869*
X01805Y00864*
X018Y00857*
X01797Y0085*
X01795Y00842*
X01797Y00834*
X018Y00827*
X01805Y0082*
X01811Y00815*
X01818Y00812*
X01826Y00811*
X01834Y00812*
X01842Y00815*
X01848Y0082*
X01853Y00827*
X01856Y00834*
X01857Y00842*
X01856Y0085*
X01853Y00857*
X01848Y00864*
X01842Y00869*
X01834Y00872*
X01826Y00873*
G37*
G36*
X01957Y00826D02*
X0194D01*
Y00809*
X01957*
Y00826*
G37*
G36*
X01909D02*
X01892D01*
Y00809*
X01909*
Y00826*
G37*
G36*
X01569Y00662D02*
X01552D01*
Y00645*
X01569*
Y00662*
G37*
G36*
X0152D02*
X01503D01*
Y00645*
X0152*
Y00662*
G37*
G36*
X01634Y0066D02*
X01626Y00659D01*
X01619Y00656*
X01613Y00651*
X01608Y00645*
X01605Y00637*
X01604Y00629*
X01605Y00621*
X01608Y00614*
X01613Y00608*
X01619Y00603*
X01626Y006*
X01634Y00599*
X01642Y006*
X0165Y00603*
X01656Y00608*
X01661Y00614*
X01664Y00621*
X01665Y00629*
X01664Y00637*
X01661Y00645*
X01656Y00651*
X0165Y00656*
X01642Y00659*
X01634Y0066*
G37*
G36*
X01569Y00614D02*
X01552D01*
Y00597*
X01569*
Y00614*
G37*
G36*
X0152D02*
X01503D01*
Y00597*
X0152*
Y00614*
G37*
G36*
X01874Y00633D02*
X01866Y00632D01*
X01858Y00629*
X01852Y00624*
X01847Y00617*
X01844Y0061*
X01843Y00602*
X01844Y00594*
X01847Y00586*
X01852Y0058*
X01858Y00575*
X01866Y00572*
X01874Y00571*
X01881Y00572*
X01889Y00575*
X01895Y0058*
X019Y00586*
X01903Y00594*
X01904Y00602*
X01903Y0061*
X019Y00617*
X01895Y00624*
X01889Y00629*
X01881Y00632*
X01874Y00633*
G37*
G36*
X01906Y00536D02*
X01889D01*
Y00519*
X01906*
Y00536*
G37*
G36*
X01858D02*
X01841D01*
Y00519*
X01858*
Y00536*
G37*
G36*
X01906Y00488D02*
X01889D01*
Y00471*
X01906*
Y00488*
G37*
G36*
X01858D02*
X01841D01*
Y00471*
X01858*
Y00488*
G37*
%LNlebot-3*%
%LPD*%
G54D12*
X0165Y00277D02*
X01775Y00402D01*
X01386Y00277D02*
X0165D01*
X01775Y00402D02*
X01832D01*
G54D63*
X02127Y01127D02*
X02128Y01126D01*
X02019Y00917D02*
Y01D01*
X02024Y00911D02*
X02126Y00809D01*
X01627Y00911D02*
X02024D01*
X02126Y00616D02*
Y00809D01*
Y00579D02*
Y00616D01*
X02128Y0111D02*
Y01126D01*
X02127Y01127D02*
X02127D01*
X02027Y00481D02*
X02126Y00579D01*
X02006Y00481D02*
X02027D01*
X02019Y01D02*
X02128Y0111D01*
X01274Y00558D02*
X01627Y00911D01*
X01274Y00501D02*
Y00558D01*
G54D68*
X0086Y00094D03*
X00525D03*
X00198D03*
G54D71*
X01536Y00629D03*
X01925Y00842D03*
G54D73*
X01874Y00503D03*
G54D76*
X01407Y00083D03*
X0127Y0018D03*
X00368Y00324D03*
X00268D03*
X00218D03*
G54D79*
X00229Y00806D03*
X00178Y00836D03*
X00208Y00569D03*
X00425Y00082D03*
X00763Y00541D03*
X01839Y00343D03*
X02126Y00616D03*
X01987Y00876D03*
X0044Y01003D03*
X01019Y00421D03*
X00381Y00752D03*
X01114Y00262D03*
X01386Y00277D03*
X01379Y00317D03*
X01442Y00223D03*
Y00146D03*
X00293Y00722D03*
X00496Y00696D03*
X00858Y00349D03*
X01018Y00129D03*
X00696Y00104D03*
X00168Y00495D03*
X00074Y00597D03*
X00077Y00223D03*
X00092Y00356D03*
X00106Y0094D03*
X0011Y00842D03*
X01767Y01097D03*
X02302Y01107D03*
X02146Y00062D03*
X02045Y0006D03*
X01933Y00069D03*
X02007Y0062D03*
X02307Y00614D03*
Y00141D03*
X01952Y01086D03*
X01893Y00968D03*
X01775D03*
X01185D03*
X01007Y01086D03*
X02127Y01127D03*
X0201Y00956D03*
X02006Y00481D03*
X01434Y00528D03*
X01422Y0079D03*
X01352Y00783D03*
X01395Y00728D03*
X02208Y01125D03*
X02192Y00891D03*
X02165Y00944D03*
X02115Y00941D03*
X02069Y0094D03*
X02202Y00097D03*
X02244Y00137D03*
X02248Y00666D03*
X02199Y00615D03*
X02011Y00382D03*
X02187Y00378D03*
X0206Y00446D03*
X02116Y00443D03*
X02165Y00447D03*
X01274Y00501D03*
X0165Y00277D03*
X00846Y00292D03*
X01832Y00402D03*
X01649Y00464D03*
X01399Y00526D03*
X01125Y00612D03*
Y00537D03*
X01137Y00472D03*
X01364Y00528D03*
X01329Y00527D03*
X01581Y00337D03*
X01645Y00417D03*
X01642Y00364D03*
X01651Y00861D03*
X01687Y00862D03*
X01633Y00836D03*
X01669D03*
X01704D03*
X01511Y01006D03*
X01464Y01019D03*
X01515Y01062D03*
X01444Y01106D03*
X01492D03*
X01468Y01062D03*
X01125Y00692D03*
X01133Y00426D03*
X0087Y00503D03*
X01015Y00685D03*
X00574Y005D03*
X00874Y00826D03*
X00917Y00413D03*
X01969Y00206D03*
X0197Y00175D03*
X01969Y00143D03*
Y00238D03*
X01964Y00747D03*
Y00652D03*
X01965Y00684D03*
X01964Y00715D03*
X00417Y00314D03*
X00421Y00389D03*
X01011Y00969D03*
X01129D03*
X01074D03*
X0135Y01068D03*
X01421Y01064D03*
X00675Y00771D03*
X0034Y01106D03*
X0072Y01D03*
X00105Y00424D03*
X00398Y00495D03*
X00497Y00913D03*
X00496Y00767D03*
X00619Y00771D03*
X00696Y00874D03*
M02*