%FSTAX23Y23*%
%MOIN*%
%SFA1B1*%

%IPPOS*%
%ADD12C,0.015748*%
%ADD16C,0.010000*%
%ADD17R,0.039370X0.043307*%
%ADD23R,0.043307X0.055118*%
%ADD24R,0.043307X0.039370*%
%ADD62C,0.039370*%
%ADD63C,0.023622*%
%ADD65C,0.078740*%
%ADD68R,0.053464X0.053464*%
%ADD69C,0.053464*%
%ADD70C,0.061024*%
%ADD71R,0.045275X0.045275*%
%ADD72C,0.045275*%
%ADD73R,0.045275X0.045275*%
%ADD74O,0.078740X0.057087*%
%ADD75O,0.070866X0.045275*%
%ADD76C,0.039370*%
%ADD77R,0.039370X0.039370*%
%ADD78R,0.039370X0.039370*%
%ADD79C,0.027559*%
%ADD80R,0.055118X0.043307*%
%ADD81R,0.025591X0.060039*%
%ADD82R,0.060039X0.025591*%
%ADD83R,0.060157X0.017126*%
%ADD84R,0.096850X0.139764*%
%ADD85R,0.058071X0.017716*%
%ADD86R,0.139764X0.096850*%
%ADD87R,0.017716X0.058071*%
%ADD88R,0.048031X0.023622*%
%ADD89R,0.068898X0.044882*%
%LNlebot-1*%
%LPD*%
G36*
X02041Y01141D02*
X02039Y0114D01*
X02034Y01133*
X02033Y01125*
X02034Y01116*
X02036Y01113*
X02034Y01108*
X02*
Y01038*
X01857Y00896*
X01855Y00891*
X01854Y00886*
Y00868*
X01849Y00866*
X01843Y00871*
X01836Y00873*
Y00842*
X01826*
Y00832*
X01795*
X01798Y00826*
X01803Y00819*
X0181Y00814*
X01818Y0081*
X01826Y00809*
X0183Y0081*
X01833Y00805*
X01769Y00741*
X01474*
X01469Y0074*
X01465Y00738*
X01409Y00681*
X01215*
Y00687*
X01139*
Y00677*
Y00652*
Y00627*
Y00602*
Y00577*
Y00552*
Y00527*
Y00502*
X01143*
Y0048*
X01171*
Y00468*
X01143*
Y00447*
Y00444*
X01139Y00442*
X01139*
Y00427*
X01215*
Y00439*
Y00442*
X01219Y00444*
X01265*
Y00476*
X0127Y0048*
X01274Y00479*
X01278Y0048*
X01282Y00477*
Y00421*
X01283Y00417*
X01283Y00415*
X01287Y00409*
X0129Y00406*
Y00406*
X01296Y00402*
X01302Y00401*
X01306Y00397*
Y00395*
X01308Y00389*
X01309Y00387*
Y00368*
X01327*
X01332Y00365*
X01338Y00363*
X01357*
X01359Y00361*
X01357Y00356*
X01344*
Y00328*
X01338*
Y00322*
X01309*
Y00301*
X01309Y00296*
X01305Y00289*
X01305Y00288*
X013Y00287*
X01215Y00371*
Y00392*
X01139*
Y0035*
X01199*
X01203Y00346*
X01201Y00342*
X01139*
Y003*
X01215*
X0122Y00302*
X01257Y00265*
Y00257*
X01243*
Y00202*
X01246*
X01249Y00197*
X01246Y00194*
X01243Y00187*
X01243Y00186*
X0127*
Y0018*
X01276*
Y00153*
X01277Y00153*
X01284Y00156*
X01289Y00159*
X01294Y00157*
Y00111*
X01279*
Y00056*
X01334*
Y00059*
X01339Y00062*
X01343Y00059*
X0135Y00056*
X01357Y00055*
X01364Y00056*
X01371Y00059*
X01376Y00064*
X01379Y00066*
X01385*
X01387Y00064*
X01393Y00059*
X014Y00056*
X01401Y00056*
Y00083*
Y0011*
X014Y0011*
X01393Y00107*
X01389Y00104*
X01384Y00106*
Y00118*
X01403*
Y00153*
X01409*
Y00159*
X01438*
Y00188*
Y00218*
X01409*
Y0023*
X01443*
X01443Y0023*
X01445Y00229*
X01446Y00228*
X01447Y00226*
X01448Y00225*
X01454Y00219*
Y00102*
X01455Y00096*
X01459Y00091*
X015Y00049*
X01505Y00046*
X01511Y00044*
X01602*
X01608Y00046*
X01613Y00049*
X01646Y00082*
X01649Y00087*
X0165Y00093*
Y00181*
X01649Y00187*
X01646Y00192*
X01528Y0031*
X0153Y00314*
X01562*
Y00325*
X01525*
Y00336*
X01526Y00337*
X01526Y00337*
X01526Y00337*
X01526Y00337*
X01562*
Y0034*
Y00366*
Y00391*
Y00417*
Y00442*
Y00468*
Y00479*
X01525*
Y00491*
X01562*
Y00494*
Y00527*
X01488*
X01484Y00529*
X0148Y00532*
X01472Y00533*
Y00543*
X01472Y00544*
X0164*
X01681Y00503*
X01679Y00499*
X01646*
Y00427*
X01697*
Y00481*
X01701Y00483*
X01709Y00475*
X01713Y00473*
X01718Y00472*
X01719*
Y00442*
Y00417*
Y00391*
Y00363*
X01756*
Y00356*
X01728Y00355*
X01725Y00354*
X01722Y00354*
X01722Y00354*
X01721Y00354*
X01719Y00352*
Y00352*
X01719Y00352*
X01716Y0035*
X0168Y00314*
X01677Y00309*
X01675Y00303*
Y00287*
X01671Y00286*
X0167Y00286*
X01666Y00293*
X01659Y00297*
X0165Y00299*
X01642Y00297*
X01634Y00293*
X0163Y00286*
X01628Y00277*
X0163Y00269*
X01634Y00261*
X01642Y00257*
X0165Y00255*
X01659Y00257*
X01666Y00261*
X0167Y00268*
X01671Y00269*
X01675Y00268*
Y0009*
X01677Y00084*
X0168Y00079*
X01707Y00052*
X01712Y00049*
X01718Y00047*
X0182*
X01827Y00049*
X01832Y00052*
X01857Y00078*
X01861Y00083*
X01862Y00089*
Y00259*
X01861Y00265*
X01857Y00271*
X01801Y00327*
Y00336*
X01801Y00337*
X01801Y00337*
X018Y0034*
X018Y00342*
X01801Y00344*
X01801Y00345*
X01803Y00346*
X01812Y00345*
X0182Y00346*
X01827Y00351*
X01832Y00358*
X01834Y00367*
X01832Y00375*
X01832Y00375*
X01834Y0038*
X01841Y00382*
X01848Y00386*
X01853Y00394*
X01854Y00402*
X01853Y00411*
X01848Y00418*
X01841Y00422*
X01832Y00424*
X0183Y00424*
X01828Y00428*
X01828Y00428*
X01829Y00437*
X01828Y00445*
X01823Y00452*
Y00452*
X01829Y00456*
X01834Y00463*
X01836Y00472*
X01834Y0048*
X01829Y00488*
X01822Y00492*
X01813Y00494*
X01805Y00492*
X01798Y00488*
X01796Y00488*
X01793Y00489*
Y00527*
X01722*
X01664Y00585*
X0166Y00588*
X01655Y00589*
X01435*
X01434Y00593*
X015Y0066*
X01505Y00658*
Y00657*
Y00599*
X01566*
Y00657*
Y0066*
X01571Y00662*
X01614*
X01616Y00657*
X01611Y00653*
X01606Y00646*
X01603Y00639*
X01666*
X01663Y00646*
X01658Y00653*
X01653Y00657*
X01654Y00662*
X0166*
X01786Y00535*
X01791Y00533*
X01796Y00532*
X01843*
Y00473*
X01904*
Y00532*
X01965*
X01993Y00504*
X01992Y00497*
X01991Y00496*
X01986Y00489*
X01984Y00481*
X01986Y00472*
X01991Y00465*
X01998Y0046*
X02006Y00459*
X02015Y0046*
X02022Y00465*
X02024Y00468*
X02029Y00467*
Y00447*
X02101*
Y00497*
X02045*
X02042Y00502*
X02052Y00512*
X02055Y00516*
X02056Y0052*
X02165*
Y00557*
X02177*
Y0052*
X02183*
X02183Y00519*
X02184Y00519*
X02184Y00519*
X02187Y00516*
X02187Y00516*
X02187Y00516*
X02196Y00507*
Y00438*
X02197Y00432*
X02201Y00427*
X02243Y00385*
X02248Y00381*
X02254Y0038*
X02347*
X02353Y00381*
X02358Y00385*
X02382Y00408*
X02385Y00414*
X02387Y0042*
Y00524*
X02385Y0053*
X02382Y00535*
X02347Y0057*
X02342Y00573*
X02336Y00575*
X02226*
X02215Y00586*
X02213Y00587*
Y00593*
X02184*
X02181Y00598*
X02182Y00599*
X02184Y00608*
X02182Y00616*
X02178Y00623*
X0217Y00628*
X02162Y0063*
X02153Y00628*
X0215Y00626*
X02146Y00624*
X02144Y00627*
X02141Y00631*
X0214Y00632*
X02141Y00637*
X02141Y00637*
X02143Y00638*
X02163*
Y00657*
X02166Y00662*
X02167Y00668*
Y00692*
X02168Y00693*
X02169Y00699*
Y00736*
X02174Y00738*
X02206Y00706*
X02211Y00702*
X02211Y00702*
X02209Y00697*
X02208*
Y00674*
X0223*
Y00696*
Y00697*
X02233Y00701*
X02343*
X02349Y00702*
X02355Y00706*
X02384Y00735*
X02387Y0074*
X02388Y0074*
X02392Y00738*
Y00324*
X02388Y00323*
X02387Y00323*
X02384Y00328*
X02357Y00355*
X02352Y00358*
X02345Y0036*
X02249*
X02242Y00358*
X02237Y00355*
X02234Y0035*
X02218Y00334*
X02213Y00336*
Y00362*
X02202*
Y00325*
X02196*
Y00325*
X02195Y00328*
X02195Y0033*
X02195Y00331*
X02194Y00332*
X02193Y00334*
X02192Y00336*
X02191Y00336*
X02191Y00337*
X0219Y00337*
Y00362*
X02049*
Y00325*
X02037*
Y00362*
X02*
Y00288*
X01999Y00284*
X01996Y0028*
X01994Y00272*
X01949*
X01943Y00271*
X01938Y00267*
X01934Y00262*
X01933Y00256*
Y00118*
X01934Y00112*
X01938Y00107*
X01958Y00087*
X01963Y00084*
X01969Y00082*
X02107*
X02113Y00084*
X02118Y00087*
X02123Y00092*
X02126Y00097*
X02127Y00103*
X02127Y00104*
X0213Y00107*
X02136*
X02142Y00109*
X02144Y0011*
X02164*
Y00129*
X02167Y00133*
X02168Y00139*
Y00164*
X02169Y00165*
X0217Y00171*
Y00206*
X02175Y00208*
X02208Y00175*
X0221Y00174*
X02209Y00172*
Y00145*
X02231*
Y00165*
Y00169*
X02235Y0017*
X02345*
X02352Y00172*
X02357Y00175*
X02384Y00202*
X02387Y00207*
X02388Y00207*
X02392Y00206*
Y0011*
X02312Y0003*
X01171*
X01169Y00035*
X01178Y00042*
X01186Y00052*
X01191Y00065*
X01193Y00078*
X01191Y00092*
X01186Y00104*
X01178Y00115*
X01167Y00123*
X01155Y00128*
X01141Y0013*
X01128Y00128*
X01115Y00123*
X01105Y00115*
X01097Y00104*
X01096Y00103*
X01091Y00104*
Y00188*
X0111*
Y00218*
Y00248*
X01091*
Y007*
X00899Y00892*
Y01062*
X00961Y01125*
X00983Y01146*
X01816*
X01817Y01141*
X01813Y01138*
X01805Y01128*
X018Y01115*
X01798Y01102*
X018Y01089*
X01805Y01076*
X01813Y01065*
X01824Y01057*
X01837Y01052*
X0185Y0105*
X01863Y01052*
X01876Y01057*
X01886Y01065*
X01895Y01076*
X019Y01089*
X01902Y01102*
X019Y01115*
X01895Y01128*
X01886Y01138*
X01882Y01141*
X01884Y01146*
X02039*
X02041Y01141*
G37*
G36*
X00629Y01123D02*
X0075Y01001D01*
X00891Y00859*
X01055Y00695*
Y00089*
X01008Y00043*
X00118*
X00028Y00132*
Y00728*
X00033Y00729*
X00035Y00723*
X0004Y00717*
X00047Y00712*
X00054Y00709*
X00062Y00708*
X00088*
X00096Y00709*
X00103Y00712*
X00109Y00717*
X00114Y00723*
X00117Y0073*
X00118Y00738*
X00117Y00746*
X00114Y00754*
X00109Y0076*
X00103Y00765*
X00096Y00768*
X00088Y00769*
X00062*
X00054Y00768*
X00047Y00765*
X0004Y0076*
X00035Y00754*
X00033Y00748*
X00028Y00749*
Y01033*
X00033Y01034*
X00035Y01028*
X0004Y01022*
X00047Y01017*
X00054Y01014*
X00062Y01013*
X00088*
X00096Y01014*
X00103Y01017*
X00109Y01022*
X00114Y01028*
X00117Y01036*
X00118Y01044*
X00117Y01052*
X00114Y01059*
X00109Y01065*
X00103Y0107*
X00096Y01073*
X00088Y01074*
X00072*
X0007Y01079*
X00114Y01123*
X00629*
G37*
G36*
X02226Y01058D02*
X0233D01*
X02367Y01021*
Y00932*
X02344Y00909*
X02246*
X0221Y00944*
Y01002*
X02187Y01026*
Y01034*
Y01059*
X02187Y0106*
X02188Y01086*
X02198*
X02226Y01058*
G37*
G36*
X0217Y01026D02*
D01*
X02172Y0102*
X02174Y01017*
X02172Y01012*
X02112*
Y00961*
X02184*
Y01*
X02188Y01002*
X02194Y00996*
Y00944*
X02195Y00938*
X02199Y00933*
X02234Y00898*
X02239Y00894*
X02246Y00893*
X02256*
X02257Y00888*
X02254Y00887*
X02249Y00884*
X02217Y00852*
X02212Y00854*
Y00876*
X02201*
Y0084*
X02192*
X0219Y00842*
X02189Y00843*
Y00876*
X02048*
Y0084*
X02036*
Y00876*
X02*
Y00803*
X01998Y00798*
X01995Y00794*
X01993Y00786*
X01948*
X01942Y00785*
X01937Y00782*
X01933Y00776*
X01932Y0077*
Y00632*
X01933Y00626*
X01937Y00621*
X01957Y00601*
X01962Y00598*
X01968Y00597*
X01983*
X01984Y00597*
X01984Y00597*
X01987Y00597*
X01989Y00598*
X0199Y00598*
X0199Y00599*
X01992Y006*
X01994Y00601*
X01995Y00602*
X01995Y00603*
X01998Y00606*
X01999Y00607*
X01999Y00608*
X02Y0061*
X02001Y00612*
X02001Y00613*
X02002Y00613*
Y00616*
X02002Y00618*
X02002Y00619*
Y00619*
X02002Y00622*
X02003Y00624*
X02005Y00625*
X02007Y00625*
X0201Y00625*
X02011Y00624*
X02013Y00621*
X02015Y00617*
X02019Y00613*
X02025Y0061*
X02029Y00609*
X0203Y00603*
X02033Y00598*
X02031Y00593*
X02*
Y00576*
X01901*
X01898Y00581*
X01902Y00585*
X01905Y00592*
X01874*
X01842*
X01845Y00585*
X01849Y00581*
X01846Y00576*
X01809*
X01692Y00693*
X01694Y00697*
X01788*
X01793Y00698*
X01797Y00701*
X01895Y00798*
X01897Y00803*
X01898Y00808*
Y00812*
X01955*
Y00873*
X01906*
X01905Y00877*
X01984Y00956*
X01989Y00954*
X0199Y00948*
X01995Y00941*
X02002Y00936*
X0201Y00934*
X02019Y00936*
X02023Y00939*
X02028Y00936*
Y00899*
X021*
Y00955*
Y01012*
X02045*
X02044Y01016*
X02051Y01024*
X02054Y01028*
X02055Y01033*
Y01034*
X0217*
Y01026*
G37*
G36*
X02392Y01085D02*
Y00846D01*
X02388Y00844*
X02387Y00844*
X02384Y00849*
X02349Y00884*
X02344Y00887*
X02344Y00893*
X02344Y00893*
X0235Y00894*
X02355Y00898*
X02378Y0092*
X02381Y00925*
X02383Y00932*
Y01021*
X02381Y01027*
X02378Y01033*
X02342Y01069*
X02336Y01072*
X0233Y01074*
X02233*
X02212Y01094*
Y01108*
X02172*
X0217Y01112*
X02179Y01121*
X02182Y01126*
X02183Y01131*
X02183Y01132*
X02184Y01137*
X02183Y01141*
X02187Y01146*
X02331*
X02392Y01085*
G37*
G36*
X02373Y00838D02*
Y00746D01*
X02343Y00717*
X02217*
X02169Y00765*
Y00801*
X02168Y00807*
X02164Y00812*
X02161Y00814*
Y00837*
X0217Y0084*
X02179Y00831*
Y00803*
X0218*
X02184Y00799*
X02208*
X02212Y00803*
X02212*
Y00803*
X02221Y00812*
Y00833*
X0226Y00873*
X02338*
X02373Y00838*
G37*
G36*
X02153Y00699D02*
X02151D01*
Y00668*
X02135*
Y00652*
X02106*
Y00636*
X02108*
X0211Y00632*
X0211Y00631*
X02105Y00624*
X02099Y00628*
X02091Y0063*
X02083Y00628*
X02075Y00623*
X02075Y00623*
X02069*
X02066Y00627*
X02059Y00632*
X02051Y00634*
X02042Y00632*
X02035Y00627*
X02033Y00625*
X02028Y00626*
X02028Y00628*
X02023Y00635*
X02016Y0064*
X02007Y00642*
X01999Y0064*
X01992Y00635*
X01987Y00628*
X01985Y0062*
X01986Y00617*
X01983Y00613*
X01968*
X01948Y00632*
Y0077*
X01999*
Y00754*
X02029*
Y00739*
X02044*
Y00707*
X02058*
Y00744*
X02063Y00746*
X02068Y00741*
Y00709*
X02123*
Y00738*
X02128Y00743*
X02131Y00747*
X02132Y00752*
Y00801*
X02153*
Y00699*
G37*
G36*
X02219Y00559D02*
X02336D01*
X02371Y00524*
Y0042*
X02347Y00396*
X02254*
X02212Y00438*
Y00513*
X02198Y00527*
X02196Y0053*
X02199Y00573*
X02203Y00574*
X02219Y00559*
G37*
G36*
X01455Y00528D02*
X0144D01*
Y00498*
X01425*
Y00482*
X01393*
Y00468*
X0143*
X01431Y00464*
X01426Y00459*
X01395*
Y00403*
X01434*
X01438Y00399*
X01443Y00396*
X01448Y00395*
X01486*
Y00374*
X0137*
Y00379*
X01338*
Y00395*
X01322*
Y00425*
X01306*
Y00419*
X01302Y00417*
X01298Y00421*
Y00522*
X01319Y00543*
X01455*
Y00528*
G37*
G36*
X02373Y00316D02*
Y00214D01*
X02345Y00187*
X02219*
X0217Y00235*
Y00286*
X02169Y00292*
X02165Y00298*
X02162Y003*
Y00323*
X02166Y00326*
X0218Y00325*
Y00288*
X02213*
Y00307*
X02249Y00342*
Y00343*
X02345*
X02373Y00316*
G37*
G36*
X02154Y00171D02*
X02152D01*
Y00139*
X02136*
Y00124*
X02107*
Y00108*
X02109*
X02111Y00103*
X02107Y00098*
X01969*
X01949Y00118*
Y00256*
X01995*
X02Y00255*
Y00239*
X0203*
Y00224*
X02045*
Y00192*
X02059*
Y0023*
X02064Y00232*
X02069Y00227*
Y00194*
X02124*
Y00233*
X02129Y00237*
X02132Y00242*
X02133Y00247*
Y00286*
X02154*
Y00171*
G37*
G36*
X01785Y00336D02*
Y0032D01*
X01846Y00259*
Y00089*
X0182Y00063*
X01718*
X01691Y0009*
Y00303*
X01728Y00339*
X01781Y0034*
X01785Y00336*
G37*
G36*
X01518Y00352D02*
X01515Y00348D01*
X01488*
Y00314*
X015*
X01634Y00181*
Y00093*
X01602Y00061*
X01511*
X0147Y00102*
Y00226*
X01459Y00236*
X01458Y00239*
X01456Y0024*
X01438Y00257*
Y00259*
X01437*
X01411Y00285*
Y00343*
X01425Y00357*
X01486*
X01492Y00359*
X01497Y00362*
X01499Y00366*
X01517*
X01518Y00352*
G37*
%LNlebot-2*%
%LPC*%
G36*
X01125Y01128D02*
X01117Y01126D01*
X0111Y01121*
X0111Y01121*
X01106Y01121*
X01101Y01119*
X01094Y0112*
X01086Y01118*
X01078Y01114*
X01074Y01106*
X01072Y01098*
X01074Y01089*
X01078Y01082*
X01086Y01078*
X01093Y01076*
X01094Y01074*
X01096Y01073*
X01097Y01066*
X01102Y01059*
X01109Y01054*
X01111Y01054*
Y01026*
X01132*
Y01021*
X01138*
Y00983*
X01152*
Y01006*
X01157Y01007*
X01158Y01007*
X01161Y01002*
Y00983*
X01202*
Y01002*
X01206Y01007*
X01206Y01007*
X01211Y01006*
Y00983*
X01252*
X01254Y00978*
Y00969*
X01253Y00966*
X01251Y00954*
Y00904*
X01253Y00892*
X01254Y00889*
Y00849*
X01252Y00845*
X01249*
X01211*
Y00769*
X01221*
Y00763*
X01206*
Y0071*
X01194*
Y00763*
X01139*
X01134Y00761*
X01129Y00762*
X0112Y00761*
X01113Y00756*
X01108Y00749*
X01107Y0074*
X01108Y00732*
X01113Y00725*
X0112Y0072*
X01129Y00718*
X01134Y00719*
X01139Y00716*
X01139Y00716*
Y0071*
X01139*
Y00699*
X01215*
Y00704*
X01314*
Y00763*
X01247*
Y00769*
X01252*
Y00793*
X01257Y00794*
X01258Y00793*
X01261Y00789*
Y00769*
X01302*
Y00789*
X01306Y00793*
X01309Y008*
X01309Y00806*
X01314Y00806*
X01344*
Y00836*
X01356*
Y00806*
X01384*
X01385*
X01389*
X0139*
X01419*
Y00836*
X01431*
Y00806*
X01459*
X0146*
X01464*
X01465*
X01494*
Y00836*
X01505*
Y00806*
X01531*
X01535Y00803*
X01539*
X01564*
Y00832*
X01576*
Y00803*
X01606*
Y00836*
X01611Y00839*
X01612Y00838*
X01611Y00836*
X01613Y00827*
X01618Y0082*
X01625Y00815*
X01633Y00813*
X01639Y00815*
X01645Y00808*
X01655Y00801*
X01666Y00796*
X01679Y00794*
X01691Y00796*
X01702Y00801*
X01712Y00808*
X0172Y00818*
X01722Y00823*
X01725Y00827*
X01726Y00836*
X01726Y00838*
X01726Y00842*
X01725Y00854*
X0172Y00866*
X01712Y00876*
X01693Y00895*
X01628Y0096*
X01618Y00967*
X01607Y00972*
X01595Y00974*
X01464*
X0146Y00977*
Y00991*
Y00996*
Y01015*
X01425*
X01389*
Y00996*
Y00991*
Y00986*
Y00974*
X01379*
Y00985*
X01334*
X01332Y00987*
X01326Y00992*
X01328Y00997*
X01344*
Y01019*
X0132*
Y01001*
X01315Y00998*
X01311Y01*
X0131Y01*
Y01021*
X01309Y01028*
X01306Y01034*
X01302Y01039*
Y01058*
X01276*
Y01117*
X01221*
Y01083*
X0122Y01082*
X01217Y01077*
X01216Y01071*
Y01063*
X01215Y01063*
X01214Y01063*
X0121Y01065*
Y01087*
X01209Y01089*
Y01117*
X01164*
X01163Y01118*
X01156Y01121*
X01149Y01122*
X01141*
X01134Y01126*
X01125Y01128*
G37*
G36*
X01379Y01052D02*
X01356D01*
Y0103*
X01379*
Y01052*
G37*
G36*
X01344D02*
X0132D01*
Y0103*
X01344*
Y01052*
G37*
G36*
X0146Y0105D02*
X01431D01*
Y01026*
X0146*
Y0105*
G37*
G36*
X01419D02*
X01389D01*
Y01026*
X01419*
Y0105*
G37*
G36*
X01379Y01019D02*
X01356D01*
Y00997*
X01379*
Y01019*
G37*
G36*
X01126Y01015D02*
X01111D01*
Y00983*
X01126*
Y01015*
G37*
G36*
X01009Y00954D02*
X00986D01*
Y00932*
X01009*
Y00954*
G37*
G36*
X0108D02*
Y00932D01*
X01104*
Y00954*
X0108*
G37*
G36*
X01104Y0092D02*
X0108D01*
Y00899*
X01104*
Y0092*
G37*
G36*
X01009D02*
X00986D01*
Y00899*
X01009*
Y0092*
G37*
G36*
X01045Y00954D02*
X0104D01*
X01021*
Y00926*
X01015*
X01021*
Y00899*
X0104*
X01045*
X0105*
X01068*
Y00926*
Y00954*
X0105*
X01045*
G37*
G36*
X01816Y00873D02*
X0181Y00871D01*
X01803Y00865*
X01798Y00858*
X01795Y00852*
X01816*
Y00873*
G37*
G36*
X01045Y00887D02*
D01*
X00986*
Y00832*
X01002*
Y00824*
X01003Y00819*
X01006Y00814*
X01023Y00798*
X01027Y00795*
X01032Y00794*
X01111*
Y00769*
X01152*
Y00835*
X01157Y00837*
X01161Y00833*
Y00769*
X01202*
Y00845*
X01186*
X01162Y00868*
X01158Y00871*
X01153Y00872*
X01104*
Y00887*
X0105*
X01045*
G37*
G36*
X01381Y00763D02*
X0136D01*
Y00739*
X01381*
Y00763*
G37*
G36*
X01348D02*
X01326D01*
Y00739*
X01348*
Y00763*
G37*
G36*
X01381Y00727D02*
X0136D01*
Y00704*
X01381*
Y00727*
G37*
G36*
X01348D02*
X01326D01*
Y00704*
X01348*
Y00727*
G37*
G36*
X02196Y00697D02*
X02175D01*
Y00674*
X02196*
Y00697*
G37*
G36*
X0223Y00662D02*
X02208D01*
Y00638*
X0223*
Y00662*
G37*
G36*
X02196D02*
X02175D01*
Y00638*
X02196*
Y00662*
G37*
G36*
X01666Y0062D02*
X01644D01*
Y00598*
X01651Y00601*
X01658Y00606*
X01663Y00613*
X01666Y0062*
G37*
G36*
X01625D02*
X01603D01*
X01606Y00613*
X01611Y00606*
X01618Y00601*
X01625Y00598*
Y0062*
G37*
G36*
X02185Y00497D02*
X02113D01*
Y00447*
X02185*
Y00497*
G37*
G36*
X01635Y00499D02*
X01584D01*
Y00427*
X01635*
Y00499*
G37*
G36*
X01215Y00415D02*
X01183D01*
Y004*
X01215*
Y00415*
G37*
G36*
X01171D02*
X01139D01*
Y004*
X01171*
Y00415*
G37*
G36*
X02185Y00435D02*
X02113D01*
Y00385*
X02185*
Y00435*
G37*
G36*
X02101D02*
X02029D01*
Y00385*
X02101*
Y00435*
G37*
G36*
X01697Y00415D02*
X01646D01*
Y00343*
X01697*
Y00415*
G37*
G36*
X01635D02*
X01584D01*
Y00343*
X01635*
Y00415*
G37*
G36*
X01332Y00356D02*
X01309D01*
Y00334*
X01332*
Y00356*
G37*
G36*
X01143Y00212D02*
X01122D01*
Y00188*
X01143*
Y00212*
G37*
G36*
X01215Y00292D02*
X01139D01*
Y00253*
Y0025*
X01135Y00248*
X01122*
Y00224*
X01143*
Y00245*
Y00248*
X01147Y0025*
X01151*
X01155Y00248*
Y00188*
X01161*
X01164Y00185*
X01164Y00185*
X01166Y00176*
X01171Y00169*
X01178Y00164*
X01187Y00162*
X01195Y00164*
X01202Y00169*
X01207Y00176*
X01209Y00184*
X0121Y00188*
Y00193*
Y00248*
X01214Y0025*
X01215*
Y00292*
G37*
G36*
X01264Y00174D02*
X01243D01*
X01243Y00172*
X01246Y00166*
X01251Y0016*
X01256Y00156*
X01263Y00153*
X01264Y00153*
Y00174*
G37*
G36*
X02197Y00169D02*
X02176D01*
Y00145*
X02197*
Y00169*
G37*
G36*
X01438Y00147D02*
X01415D01*
Y00118*
X01438*
Y00147*
G37*
G36*
X02231Y00133D02*
X02209D01*
Y0011*
X02231*
Y00133*
G37*
G36*
X02197D02*
X02176D01*
Y0011*
X02197*
Y00133*
G37*
G36*
X01413Y0011D02*
Y00089D01*
X01434*
X01434Y0009*
X01431Y00097*
X01426Y00103*
X01421Y00107*
X01414Y0011*
X01413Y0011*
G37*
G36*
X01434Y00077D02*
X01413D01*
Y00056*
X01414Y00056*
X01421Y00059*
X01426Y00064*
X01431Y00069*
X01434Y00076*
X01434Y00077*
G37*
G36*
X00419Y01068D02*
X00395D01*
Y01047*
X00419*
Y01068*
G37*
G36*
X00383D02*
X0036D01*
Y01047*
X00383*
Y01068*
G37*
G36*
X00615Y01063D02*
X00551D01*
Y01024*
X00615*
Y01063*
G37*
G36*
X00419Y01035D02*
X00395D01*
Y01013*
X00419*
Y01035*
G37*
G36*
X00383D02*
X0036D01*
Y01013*
X00383*
Y01035*
G37*
G36*
X00235Y01074D02*
X00214D01*
X00204Y01073*
X00195Y01069*
X00188Y01064*
X00182Y01056*
X00178Y01047*
X00177Y01038*
X00178Y01028*
X00182Y01019*
X00183Y01018*
X0018Y01013*
X00174Y01012*
X00166Y01006*
X00161Y00999*
X00159Y00989*
X00161Y0098*
X00166Y00972*
X00174Y00967*
X00183Y00965*
X00192Y00967*
X002Y00972*
X00205Y0098*
X00207Y00989*
X00206Y00997*
X00208Y01001*
X0021Y01001*
X00214Y01001*
X00235*
X00245Y01002*
X00254Y01006*
X00261Y01012*
X00267Y01019*
X00271Y01028*
X00272Y01038*
X00271Y01047*
X00267Y01056*
X00261Y01064*
X00254Y01069*
X00245Y01073*
X00235Y01074*
G37*
G36*
X00512Y01063D02*
X00448D01*
Y01024*
Y01012*
X0048*
Y01*
X00448*
Y00974*
X00419*
Y01001*
X0036*
Y00977*
X00355Y00977*
X0027*
Y00916*
X00355*
Y00919*
X00464*
X00471Y0092*
X00478Y00922*
X00484Y00927*
X00498Y0094*
X00502Y00946*
X00503Y00949*
X00512*
Y00965*
X00526Y00979*
X00529Y00983*
X0053Y00988*
Y01026*
X00529Y01031*
X00526Y01035*
X00512Y01049*
Y01063*
G37*
G36*
X00657Y01063D02*
X0065Y01062D01*
X00643Y01059*
X00637Y01055*
X00633Y01049*
X0063Y01042*
X00629Y01035*
Y01003*
X00622Y00996*
X00583*
X00576Y00995*
X00569Y00993*
X00563Y00988*
X00551*
Y00949*
X00563*
X00569Y00944*
X00576Y00942*
X00583Y00941*
X00616*
Y00933*
X00675*
Y0097*
X00677Y00972*
X00681Y00978*
X00684Y00984*
X00685Y00992*
Y01035*
X00684Y01042*
X00681Y01049*
X00677Y01055*
X00671Y01059*
X00664Y01062*
X00657Y01063*
G37*
G36*
X00675Y00921D02*
X00651D01*
Y00899*
X00675*
Y00921*
G37*
G36*
X00639D02*
X00616D01*
Y00899*
X00639*
Y00921*
G37*
G36*
X00563Y00938D02*
X00555Y00936D01*
X00547Y00931*
X00543Y00924*
X00541Y00916*
X00543Y00907*
X00547Y009*
X00555Y00895*
X00563Y00894*
X00571Y00895*
X00579Y009*
X00583Y00907*
X00585Y00916*
X00583Y00924*
X00579Y00931*
X00571Y00936*
X00563Y00938*
G37*
G36*
X00675Y00887D02*
X00651D01*
Y00866*
X00675*
Y00887*
G37*
G36*
X00639D02*
X00616D01*
Y00866*
X00639*
Y00887*
G37*
G36*
X00355Y0086D02*
X0027D01*
Y008*
X00306*
X00311Y00797*
X00318Y00797*
X00381*
X00388Y00797*
X00395Y008*
X004Y00805*
X00405Y0081*
X00408Y00817*
X00408Y00824*
X00408Y00831*
X00405Y00838*
X004Y00844*
X00395Y00848*
X00388Y00851*
X00381Y00852*
X00355*
Y0086*
G37*
G36*
X00657Y00754D02*
X00649Y00752D01*
X00641Y00747*
X00637Y0074*
X00635Y00732*
X00636Y00726*
X00632Y00722*
X00631Y00722*
X00623Y00721*
X00615Y00716*
X00611Y00709*
X00609Y007*
X00611Y00692*
X00615Y00685*
X00618Y00683*
X00616Y00678*
X00422*
X00417Y00677*
X00412Y00674*
X00408Y0067*
X00405Y0067*
X00397Y00669*
X00389Y00664*
X00385Y00657*
X00383Y00648*
X00384Y00645*
X00362Y00624*
X00359Y0062*
X00358Y00615*
Y004*
X00354Y00398*
X00349Y00394*
X00346Y00391*
X0034*
X00338Y00394*
X00332Y00398*
X00325Y00401*
X00318Y00402*
X00311Y00401*
X00304Y00398*
X00299Y00394*
X00296Y00391*
X0029*
X00288Y00394*
X00282Y00398*
X00275Y00401*
X00268Y00402*
X00261Y00401*
X00254Y00398*
X00249Y00394*
X00246Y00391*
X0024*
X00238Y00394*
X00232Y00398*
X00225Y00401*
X00218Y00402*
X00211Y00401*
X00204Y00398*
X00199Y00394*
X00196Y00391*
X0019*
X00188Y00394*
X00182Y00398*
X00175Y00401*
X00168Y00402*
X00161Y00401*
X00154Y00398*
X00149Y00394*
X00144Y00388*
X00141Y00381*
X0014Y00374*
X00141Y00367*
X00144Y0036*
X00147Y00357*
X00144Y00352*
X00141*
Y00297*
X00196*
Y003*
X00201Y00303*
X00204Y003*
X00211Y00297*
X00212Y00297*
Y00324*
X00224*
Y00297*
X00225Y00297*
X00232Y003*
X00238Y00305*
X0024Y00308*
X00246*
X00249Y00305*
X00254Y003*
X00261Y00297*
X00262Y00297*
Y00324*
X00274*
Y00297*
X00275Y00297*
X00282Y003*
X00288Y00305*
X0029Y00308*
X00296*
X00299Y00305*
X00304Y003*
X00311Y00297*
X00318Y00297*
X00325Y00297*
X00332Y003*
X00338Y00305*
X0034Y00308*
X00346*
X00349Y00305*
X00354Y003*
X00361Y00297*
X00362Y00297*
Y00324*
X00368*
Y0033*
X00395*
X00395Y00331*
X00392Y00338*
X00388Y00344*
X00385Y00346*
Y00352*
X00388Y00355*
X00392Y0036*
X00395Y00367*
X00396Y00374*
X00395Y00381*
X00392Y00388*
X00388Y00394*
X00385Y00396*
Y00609*
X00402Y00627*
X00405Y00626*
X00413Y00628*
X00421Y00633*
X00425Y0064*
X00427Y00648*
X00431Y00652*
X00594*
X00597Y00647*
X00596Y00646*
X00589*
X00584Y00645*
X0058Y00643*
X00478Y00541*
X00475Y00537*
X00474Y00532*
Y0032*
X00373Y00219*
X00372Y00219*
X00365Y00224*
X00357Y00228*
X00348Y00229*
X00338Y00228*
X0033Y00224*
X00323Y00219*
X00317Y00211*
X00314Y00203*
X00313Y00194*
X00314Y00185*
X00317Y00177*
X00323Y00169*
X0033Y00164*
X00338Y0016*
X00348Y00159*
X00357Y0016*
X00365Y00164*
X00372Y00169*
X00378Y00177*
X00381Y00185*
X00382Y0019*
X00488Y00296*
X00492Y00294*
Y00278*
X00329Y00116*
X00324Y00116*
X00322Y00119*
X00315Y00124*
X00307Y00128*
X00298Y00129*
X00288Y00128*
X0028Y00124*
X00273Y00119*
X00267Y00111*
X00264Y00103*
X00263Y00094*
X00264Y00085*
X00267Y00077*
X00273Y00069*
X0028Y00064*
X00288Y0006*
X00298Y00059*
X00307Y0006*
X00315Y00064*
X00322Y00069*
X00328Y00077*
X0033Y00082*
X00331Y00082*
X00336Y00085*
X00429Y00178*
X00433Y00175*
X00433Y00175*
X00432Y00165*
X00433Y00155*
X00437Y00145*
X00443Y00137*
X00451Y00131*
X0046Y00127*
X0047Y00126*
X0048Y00127*
X00485Y00129*
X00489Y00128*
X00491Y00126*
Y00125*
Y001*
X0056*
Y00115*
X00565Y00117*
X00591Y0009*
X00592Y00085*
X00595Y00077*
X00601Y00069*
X00608Y00064*
X00616Y0006*
X00625Y00059*
X00635Y0006*
X00643Y00064*
X0065Y00069*
X00656Y00077*
X00659Y00085*
X0066Y00094*
X00659Y00103*
X00656Y00111*
X0065Y00119*
X00643Y00124*
X00635Y00128*
X00625Y00129*
X00616Y00128*
X00608Y00124*
X00601Y00119*
X006Y00119*
X00561Y00157*
X00564Y00161*
X00566Y0016*
X00575Y00159*
X00585Y0016*
X00593Y00164*
X006Y00169*
X00606Y00177*
X00609Y00185*
X0061Y00194*
X00609Y00203*
X00606Y00211*
X006Y00219*
X00593Y00224*
X00585Y00228*
X00575Y00229*
X00566Y00228*
X00558Y00224*
X00551Y00219*
X00545Y00211*
X00542Y00203*
X00541Y00199*
X00536Y00199*
Y00308*
X00541Y0031*
X00643Y00207*
X00642Y00203*
X00641Y00194*
X00642Y00185*
X00645Y00177*
X00651Y00169*
X00658Y00164*
X00666Y0016*
X00675Y00159*
X00685Y0016*
X00693Y00164*
X007Y00169*
X00706Y00177*
X00709Y00185*
X0071Y00194*
X00709Y00203*
X00706Y00211*
X007Y00219*
X00693Y00224*
X00685Y00228*
X00675Y00229*
X00666Y00228*
X00662Y00226*
X00556Y00332*
Y00506*
X0058Y0053*
X0062*
X00622Y00527*
X00629Y00522*
X00637Y00521*
X00646Y00522*
X00653Y00527*
X00658Y00534*
X00659Y00543*
X00658Y0055*
X0066Y00553*
X00661Y00555*
X00663Y00555*
X00664Y0055*
X00669Y00543*
X00676Y00538*
X00685Y00536*
X00693Y00538*
X007Y00543*
X00704Y00548*
X00707Y0055*
X0071Y0055*
X00715Y00546*
X00724Y00544*
X00732Y00546*
X0074Y00551*
X00744Y00558*
X00745Y00563*
X00751Y00564*
X00756Y00559*
X0076Y00556*
X00765Y00555*
X00786*
X00789Y0055*
X00788Y00548*
X00786Y0054*
X00788Y00531*
X00792Y00524*
X008Y00519*
X00808Y00517*
X00817Y00519*
X00824Y00524*
X00828Y0053*
X00926*
Y00502*
X00928*
X00933Y00501*
Y00442*
X00928Y00442*
X00926*
Y00427*
X01001*
Y00437*
Y00442*
X01006Y00443*
X01008Y00444*
X01015Y00448*
X0102Y00456*
X01022Y00464*
X0102Y00473*
X01015Y0048*
X01008Y00484*
X01Y00486*
X00999Y00486*
X00998Y00487*
X00992Y00488*
X00988Y00491*
Y00501*
X00993Y00502*
X01002*
Y00527*
Y00552*
Y00577*
Y00602*
Y00627*
Y00652*
Y00677*
Y00687*
X00926*
Y00681*
X00917*
X00858Y00741*
X00853Y00744*
X00848Y00745*
X00674*
X00673Y00747*
X00665Y00752*
X00657Y00754*
G37*
G36*
X00183Y00817D02*
X00174Y00815D01*
X00166Y0081*
X00161Y00802*
X00159Y00793*
X00161Y00783*
X00166Y00776*
X00174Y0077*
X0018Y00769*
X00183Y00764*
X00182Y00763*
X00178Y00754*
X00177Y00744*
X00178Y00735*
X00182Y00726*
X00188Y00718*
X00195Y00713*
X00204Y00709*
X00214Y00708*
X00235*
X00245Y00709*
X00254Y00713*
X00261Y00718*
X00267Y00726*
X00271Y00735*
X00272Y00744*
X00271Y00754*
X00267Y00763*
X00261Y0077*
X00254Y00776*
X00245Y0078*
X00235Y00781*
X00214*
X0021Y00781*
X00208Y00781*
X00206Y00785*
X00207Y00793*
X00205Y00802*
X002Y0081*
X00192Y00815*
X00183Y00817*
G37*
G36*
X01002Y0071D02*
X0097D01*
Y00699*
X01002*
Y0071*
G37*
G36*
X00958D02*
X00926D01*
Y00699*
X00958*
Y0071*
G37*
G36*
X00921Y00501D02*
X00899D01*
Y00478*
X00921*
Y00501*
G37*
G36*
X00887D02*
X00866D01*
Y00478*
X00887*
Y00501*
G37*
G36*
X00921Y00466D02*
X00899D01*
Y00442*
X00921*
Y00466*
G37*
G36*
X00887D02*
X00866D01*
Y00442*
X00887*
Y00466*
G37*
G36*
X01001Y00415D02*
X0097D01*
Y004*
X01001*
Y00415*
G37*
G36*
X00958D02*
X00926D01*
Y004*
X00958*
Y00415*
G37*
G36*
X01015Y00396D02*
X01007Y00394D01*
X01003Y00391*
X01001Y00392*
X00926*
Y0035*
X01001*
Y00351*
X01006Y00354*
X01007Y00353*
X01015Y00351*
X01024Y00353*
X01031Y00358*
X01036Y00365*
X01037Y00374*
X01036Y00382*
X01031Y00389*
X01024Y00394*
X01015Y00396*
G37*
G36*
X00586Y00486D02*
X00578Y00484D01*
X00571Y0048*
X00566Y00473*
X00564Y00464*
X00566Y00456*
X00571Y00448*
X00578Y00444*
X00586Y00442*
X00589Y00443*
X0072Y00312*
X00724Y00309*
X00729Y00308*
X00926*
Y003*
X01001*
Y00342*
X00926*
Y00334*
X00735*
X00608Y00461*
X00608Y00464*
X00607Y00473*
X00602Y0048*
X00595Y00484*
X00586Y00486*
G37*
G36*
X00395Y00318D02*
X00374D01*
Y00297*
X00375Y00297*
X00382Y003*
X00388Y00305*
X00392Y0031*
X00395Y00317*
X00395Y00318*
G37*
G36*
X01001Y00292D02*
X00926D01*
Y00287*
X00917*
Y00289*
X00862*
Y0023*
X00873*
Y00215*
X00874Y00209*
X00877Y00205*
X00876Y00203*
X00875Y00194*
X00876Y00185*
X0088Y00177*
X00885Y00169*
X00893Y00164*
X00901Y0016*
X0091Y00159*
X00919Y0016*
X00928Y00164*
X00935Y00169*
X0094Y00177*
X00944Y00185*
X00945Y00194*
X00944Y00203*
X0094Y00211*
X00935Y00219*
X00928Y00224*
X00921Y00227*
X00917Y0023*
Y00255*
X00926*
Y0025*
X01001*
Y00292*
G37*
G36*
X0085Y00289D02*
X00828D01*
Y00265*
X0085*
Y00289*
G37*
G36*
X00816D02*
X00795D01*
Y00265*
X00816*
Y00289*
G37*
G36*
X0085Y00253D02*
X00828D01*
Y0023*
X0085*
Y00253*
G37*
G36*
X00816D02*
X00795D01*
Y0023*
X00816*
Y00253*
G37*
G36*
X0101Y00229D02*
X01001Y00228D01*
X00993Y00224*
X00985Y00219*
X0098Y00211*
X00976Y00203*
X00975Y00194*
X00976Y00185*
X0098Y00177*
X00985Y00169*
X00993Y00164*
X01001Y0016*
X0101Y00159*
X01019Y0016*
X01028Y00164*
X01035Y00169*
X0104Y00177*
X01044Y00185*
X01045Y00194*
X01044Y00203*
X0104Y00211*
X01035Y00219*
X01028Y00224*
X01019Y00228*
X0101Y00229*
G37*
G36*
X00248D02*
X00238Y00228D01*
X0023Y00224*
X00223Y00219*
X00217Y00211*
X00214Y00203*
X00213Y00194*
X00214Y00185*
X00217Y00177*
X00223Y00169*
X0023Y00164*
X00238Y0016*
X00248Y00159*
X00257Y0016*
X00265Y00164*
X00272Y00169*
X00278Y00177*
X00281Y00185*
X00282Y00194*
X00281Y00203*
X00278Y00211*
X00272Y00219*
X00265Y00224*
X00257Y00228*
X00248Y00229*
G37*
G36*
X00866Y00129D02*
Y001D01*
X00895*
Y00129*
X00866*
G37*
G36*
X00805Y00204D02*
X00795Y00202D01*
X00786Y00198*
X00778Y00192*
X00771Y00184*
X00768Y00175*
X00766Y00165*
X00768Y00155*
X00771Y00145*
X00778Y00137*
X00786Y00131*
X00795Y00127*
X00805Y00126*
X00815Y00127*
X0082Y00129*
X00824Y00128*
X00826Y00126*
Y00125*
Y001*
X00854*
Y00129*
X0083*
X0083*
X00829*
X00828Y00131*
X0083Y00135*
X00832Y00137*
X00839Y00145*
X00842Y00155*
X00844Y00165*
X00842Y00175*
X00839Y00184*
X00832Y00192*
X00824Y00198*
X00815Y00202*
X00805Y00204*
G37*
G36*
X00203Y00129D02*
Y001D01*
X00232*
Y00129*
X00203*
G37*
G36*
X00142Y00204D02*
X00132Y00202D01*
X00123Y00198*
X00115Y00192*
X00109Y00184*
X00105Y00175*
X00104Y00165*
X00105Y00155*
X00109Y00145*
X00115Y00137*
X00123Y00131*
X00132Y00127*
X00142Y00126*
X00152Y00127*
X00157Y00129*
X00162Y00128*
X00163Y00126*
Y00125*
Y001*
X00192*
Y00129*
X00167*
X00167*
X00166*
X00166Y00131*
X00167Y00135*
X0017Y00137*
X00176Y00145*
X0018Y00155*
X00181Y00165*
X0018Y00175*
X00176Y00184*
X0017Y00192*
X00162Y00198*
X00152Y00202*
X00142Y00204*
G37*
G36*
X00895Y00088D02*
X00866D01*
Y00059*
X00895*
Y00088*
G37*
G36*
X00854D02*
X00826D01*
Y00059*
X00854*
Y00088*
G37*
G36*
X0056D02*
X00531D01*
Y00059*
X0056*
Y00088*
G37*
G36*
X0052D02*
X00491D01*
Y00059*
X0052*
Y00088*
G37*
G36*
X00232D02*
X00203D01*
Y00059*
X00232*
Y00088*
G37*
G36*
X00192D02*
X00163D01*
Y00059*
X00192*
Y00088*
G37*
G36*
X0096Y00129D02*
X00951Y00128D01*
X00943Y00124*
X00935Y00119*
X0093Y00111*
X00926Y00103*
X00925Y00094*
X00926Y00085*
X0093Y00077*
X00935Y00069*
X00943Y00064*
X00951Y0006*
X0096Y00059*
X00969Y0006*
X00978Y00064*
X00985Y00069*
X0099Y00077*
X00994Y00085*
X00995Y00094*
X00994Y00103*
X0099Y00111*
X00985Y00119*
X00978Y00124*
X00969Y00128*
X0096Y00129*
G37*
G36*
X02184Y00949D02*
X02112D01*
Y00899*
X02184*
Y00949*
G37*
G36*
X01883Y00633D02*
Y00612D01*
X01905*
X01902Y00618*
X01897Y00625*
X0189Y0063*
X01883Y00633*
G37*
G36*
X01864D02*
X01857Y0063D01*
X0185Y00625*
X01845Y00618*
X01842Y00612*
X01864*
Y00633*
G37*
G36*
X02013Y00723D02*
X01999D01*
Y00707*
X02013*
Y00723*
G37*
G36*
X0212Y00699D02*
X02106D01*
Y00684*
X0212*
Y00699*
G37*
G36*
X01409Y00528D02*
X01393D01*
Y00514*
X01409*
Y00528*
G37*
G36*
X0137Y00425D02*
X01354D01*
Y00411*
X0137*
Y00425*
G37*
G36*
X02014Y00208D02*
X02D01*
Y00192*
X02014*
Y00208*
G37*
G36*
X02121Y00171D02*
X02107D01*
Y00155*
X02121*
Y00171*
G37*
%LNlebot-3*%
%LPD*%
G54D12*
X01216Y00499D02*
X01271D01*
X01164Y00517D02*
X01198D01*
X01187Y00185D02*
Y00262D01*
X01198Y00517D02*
X01216Y00499D01*
X01271D02*
X01274Y00501D01*
X0217Y00775D02*
X02183Y00761D01*
X0217Y00775D02*
Y0084D01*
X02171Y00246D02*
X02192Y00225D01*
X02171Y00246D02*
Y00325D01*
X01177Y00271D02*
X01187Y00262D01*
X00992Y00472D02*
X01Y00464D01*
X01232Y01071D02*
X01249Y01087D01*
X01232Y01021D02*
Y01071D01*
X0142Y0034D02*
X01437Y00357D01*
X01525*
X0096Y00515D02*
X00964Y00518D01*
X0096Y00472D02*
Y00515D01*
Y00472D02*
X00992D01*
X00901Y00271D02*
X00964D01*
X00889Y00259D02*
X00901Y00271D01*
X00889Y00215D02*
Y00259D01*
Y00215D02*
X0091Y00194D01*
X01465Y00382D02*
X01525D01*
X02145Y00272D02*
Y00325D01*
X02144Y00769D02*
Y0084D01*
G54D16*
X01015Y00926D02*
X01074D01*
X02127Y01127D02*
X02128Y01126D01*
X01338Y00328D02*
X01349Y00317D01*
X01379*
X01641Y00398D02*
Y00421D01*
X01682Y00357D02*
X01756D01*
X01641Y00398D02*
X01682Y00357D01*
X01796Y00382D02*
X01812Y00367D01*
X0212Y0061D02*
X02126Y00616D01*
X02047Y00786D02*
X02051D01*
X02015D02*
Y00839D01*
X00371Y00368D02*
Y00615D01*
Y00368D02*
X00375Y00364D01*
X00371Y00615D02*
X00405Y00648D01*
X0048Y00969D02*
X00497D01*
X01885Y00808D02*
Y00876D01*
X01788Y0071D02*
X01885Y00808D01*
X01482Y0071D02*
X01788D01*
X01867Y0082D02*
Y00886D01*
X01775Y00728D02*
X01867Y0082D01*
X01474Y00728D02*
X01775D01*
X00405Y00648D02*
X00422Y00665D01*
X00625*
X01177Y00371D02*
X01197D01*
X0127Y0023D02*
Y0027D01*
X01219Y00321D02*
X0127Y0027D01*
X01177Y00321D02*
X01219D01*
X01307Y00083D02*
Y00261D01*
X01197Y00371D02*
X01307Y00261D01*
X01234Y00733D02*
X01287D01*
X01032Y00807D02*
X01132D01*
X01015Y00824D02*
X01032Y00807D01*
X01015Y00824D02*
Y00859D01*
X00748Y007D02*
X0083Y00618D01*
X00631Y007D02*
X00748D01*
X0083Y00618D02*
X00964D01*
X00807Y00598D02*
X00811Y00593D01*
X00964*
X02193Y01125D02*
X02208D01*
X02125Y01122D02*
X02127Y01124D01*
X02122Y01118D02*
X02125Y01122D01*
X02126Y01122D02*
X02128Y01124D01*
X02122Y01118D02*
X02126Y01122D01*
X02121Y01116D02*
X02122Y01118D01*
X02126Y01122D02*
X02126Y01121D01*
X02125Y01122D02*
X02126Y01122D01*
X02125Y01123D02*
X02125Y01122D01*
X02122Y01118D02*
X02123Y01118D01*
X02122Y01118D02*
X02122Y01118D01*
X02127Y01127D02*
X02127D01*
X02125Y01123D02*
X02128Y01126D01*
X02123Y01118D02*
X02126Y01121D01*
X02092Y01074D02*
X02094Y01072D01*
X02162Y01137D02*
X02164D01*
X02092Y01074D02*
Y01133D01*
X02164Y01137D02*
X0217Y01131D01*
X02127Y01124D02*
X02128Y01124D01*
X0217Y01102D02*
X02193Y01125D01*
X0217Y01071D02*
Y01102D01*
X02144Y01105D02*
X0217Y01131D01*
X02091Y00608D02*
X02094Y00605D01*
X02051Y0061D02*
X02068Y00592D01*
Y00557D02*
Y00592D01*
X02145Y00591D02*
X02162Y00608D01*
X02093Y00793D02*
Y0084D01*
X02086Y00786D02*
X02093Y00793D01*
X02015Y00839D02*
X02016Y0084D01*
X01136Y00733D02*
X01167D01*
X01129Y0074D02*
X01136Y00733D01*
X01266Y00558D02*
X01645D01*
X01253Y00575D02*
X01655D01*
X01177Y00593D02*
X01415D01*
X01497Y00675*
X01177Y00618D02*
X01415D01*
X01489Y00693*
X01415Y00643D02*
X01482Y0071D01*
X01177Y00643D02*
X01415D01*
X01414Y00668D02*
X01474Y00728D01*
X01177Y00668D02*
X01414D01*
X01474Y00478D02*
X01493Y00459D01*
X01489Y00693D02*
X01673D01*
X01497Y00675D02*
X01666D01*
X01673Y00693D02*
X01803Y00563D01*
X01666Y00675D02*
X01796Y00545D01*
X01756Y00382D02*
X01796D01*
X01807Y00402D02*
X01832D01*
X01805Y00472D02*
X01813D01*
X01792Y00459D02*
X01805Y00472D01*
X02016Y01036D02*
Y01071D01*
X01867Y00886D02*
X02016Y01036D01*
X02042Y01033D02*
Y01071D01*
X01885Y00876D02*
X02042Y01033D01*
X02005Y00509D02*
X02031D01*
X0197Y00545D02*
X02005Y00509D01*
X01796Y00545D02*
X0197D01*
X02031Y00509D02*
X02043Y00521D01*
X01803Y00563D02*
X02017D01*
X02017Y00562*
X02043Y00521D02*
Y00557D01*
X01655Y00575D02*
X0172Y0051D01*
X01645Y00558D02*
X01718Y00485D01*
X01252Y00543D02*
X01266Y00558D01*
X01245Y00568D02*
X01253Y00575D01*
X01177Y00568D02*
X01245D01*
X01177Y00543D02*
X01252D01*
X0172Y0051D02*
X01756D01*
X01718Y00485D02*
X01756D01*
X02051Y0061D02*
Y00612D01*
X02145Y00557D02*
Y00591D01*
X0212Y00557D02*
Y0061D01*
X02094Y00557D02*
Y00605D01*
X02119Y01071D02*
X02121Y01073D01*
Y01116*
X02144Y01071D02*
Y01105D01*
X02093Y01071D02*
X02094Y01072D01*
X02067Y01071D02*
Y01112D01*
X02055Y01125D02*
X02067Y01112D01*
X02047Y00786D02*
X02067Y00807D01*
X01074Y00859D02*
X01153D01*
X01234Y00733D02*
Y00805D01*
X01153Y00859D02*
X01182Y0083D01*
X01232Y00807D02*
X01234Y00805D01*
X01182Y00807D02*
Y0083D01*
X00729Y00321D02*
X00964D01*
X00586Y00464D02*
X00729Y00321D01*
X00808Y0054D02*
X00812Y00543D01*
X00964*
X00868Y00643D02*
X00964D01*
X00765Y00568D02*
X00964D01*
X00661Y00673D02*
X00765Y00568D01*
X00807Y00704D02*
X00868Y00643D01*
X00625Y00665D02*
X00724Y00566D01*
X00673Y0057D02*
X00685Y00559D01*
X00574Y00543D02*
X00637D01*
X00912Y00668D02*
X00964D01*
X00848Y00732D02*
X00912Y00668D01*
X00657Y00732D02*
X00848D01*
X00589Y00633D02*
X00619D01*
X00487Y00314D02*
Y00532D01*
X00587Y00606D02*
X00645D01*
X00505Y00273D02*
Y00524D01*
X00577Y0057D02*
X00673D01*
X00523Y00177D02*
Y00517D01*
X00577Y0057*
X00505Y00524D02*
X00587Y00606D01*
X00487Y00532D02*
X00589Y00633D01*
X00543Y00511D02*
X00574Y00543D01*
X00543Y00326D02*
Y00511D01*
X00334Y00192D02*
X00366D01*
X01013Y00371D02*
X01015Y00374D01*
X00964Y00371D02*
X01013D01*
X00543Y00326D02*
X00669Y002D01*
X00366Y00192D02*
X00487Y00314D01*
X00606Y00094D02*
X00625D01*
X00523Y00177D02*
X00606Y00094D01*
X00326D02*
X00505Y00273D01*
X00298Y00094D02*
X00326D01*
X01425Y00431D02*
X01448Y00408D01*
X01525*
X01477Y0051D02*
X01525D01*
X01476Y00434D02*
X01525D01*
X01493Y00459D02*
X01525D01*
X02049Y00274D02*
X02068Y00293D01*
X01756Y00459D02*
X01792D01*
X01801Y00408D02*
X01807Y00402D01*
X01756Y00408D02*
X01801D01*
X01756Y00434D02*
X01806D01*
X02097Y00224D02*
X0212Y00247D01*
Y00325*
X02068Y00293D02*
Y00325D01*
X02094Y00276D02*
Y00325D01*
X02017Y00277D02*
Y00325D01*
X02105Y00739D02*
X02119Y00752D01*
X02067Y00807D02*
Y0084D01*
X02119Y00752D02*
Y0084D01*
X00497Y00969D02*
X00517Y00988D01*
Y01026*
X00499Y01043D02*
X00517Y01026D01*
X0048Y01043D02*
X00499D01*
G54D17*
X01287Y00733D03*
X01354D03*
X01249Y01087D03*
X01182D03*
X01167Y00733D03*
X01234D03*
X00822Y00259D03*
X00889D03*
X01116Y00218D03*
X01183D03*
X01238Y00474D03*
X01171D03*
X0096Y00472D03*
X00893D03*
X02203Y00139D03*
X02136D03*
X02097Y00224D03*
X0203D03*
X02202Y00668D03*
X02135D03*
X02096Y00739D03*
X02029D03*
G54D23*
X0135Y00153D03*
X01409D03*
Y00224D03*
X0135D03*
G54D24*
X0135Y00958D03*
Y01025D03*
X01074Y00859D03*
Y00926D03*
X01015Y00859D03*
Y00926D03*
X01338Y00328D03*
Y00395D03*
X01425Y00431D03*
Y00498D03*
X00645Y00893D03*
Y0096D03*
X00389Y01041D03*
Y00974D03*
G54D62*
X01356Y00264D02*
X01368Y00275D01*
X01356Y00224D02*
Y00264D01*
Y00084D02*
Y00224D01*
X00634Y00969D02*
X00657Y00992D01*
X00318Y00824D02*
X00381D01*
X00312Y00947D02*
X00464D01*
X00478Y0096*
X00312Y0083D02*
X00318Y00824D01*
X0135Y00258D02*
X01356Y00264D01*
Y00264*
Y00084D02*
X01357Y00083D01*
X0135Y00224D02*
Y00258D01*
X01149Y01094D02*
X01182Y01061D01*
X01114Y01094D02*
X01149D01*
X01182Y01061D02*
Y01087D01*
Y01021D02*
Y01061D01*
X01282Y00807D02*
Y01021D01*
X00657Y01D02*
Y01035D01*
Y00992D02*
Y01D01*
X00583Y00969D02*
X00634D01*
G54D63*
X01339Y00281D02*
X01382D01*
X01349Y00258D02*
X0135D01*
X01325Y00281D02*
X01339D01*
X01382D02*
X01386Y00277D01*
X01325Y00281D02*
X01349Y00258D01*
X01339Y00281D02*
X01356Y00264D01*
G54D65*
X01659Y00861D02*
X01679Y00842D01*
X01321Y00926D02*
X01595D01*
X01299Y00904D02*
X01321Y00926D01*
X01595D02*
X01659Y00861D01*
X01299Y00904D02*
Y00954D01*
G54D68*
X0086Y00094D03*
X00525D03*
X00198D03*
G54D69*
X0091Y00194D03*
X0096Y00094D03*
X0101Y00194D03*
X00575D03*
X00625Y00094D03*
X00675Y00194D03*
X00248D03*
X00298Y00094D03*
X00348Y00194D03*
G54D70*
X00805Y00165D03*
X0047D03*
X00142D03*
G54D71*
X01536Y00629D03*
X01925Y00842D03*
G54D72*
X01634Y00629D03*
X01874Y00602D03*
X01826Y00842D03*
G54D73*
X01874Y00503D03*
G54D74*
X00225Y01038D03*
Y00744D03*
G54D75*
X00075Y01044D03*
Y00738D03*
G54D76*
X01407Y00083D03*
X01357D03*
X0127Y0018D03*
X00368Y00374D03*
Y00324D03*
X00318Y00374D03*
Y00324D03*
X00268Y00374D03*
Y00324D03*
X00218Y00374D03*
Y00324D03*
X00168Y00374D03*
G54D77*
X01307Y00083D03*
X00168Y00324D03*
G54D78*
X0127Y0023D03*
G54D79*
X00229Y00806D03*
X00178Y00836D03*
X00208Y00569D03*
X00425Y00082D03*
X00763Y00541D03*
X00563Y00916D03*
X00381Y00824D03*
X01839Y00343D03*
X01812Y00367D03*
X02126Y00616D03*
X01987Y00876D03*
X02051Y00786D03*
X02015D03*
X01564Y00794D03*
X0044Y01003D03*
X01019Y00421D03*
X00405Y00648D03*
X00381Y00752D03*
X01325Y00281D03*
X01114Y00262D03*
X01187Y00185D03*
X01386Y00277D03*
X01379Y00317D03*
X01Y00464D03*
X01442Y00223D03*
Y00146D03*
X01356Y00264D03*
X00293Y00722D03*
X00496Y00696D03*
X00858Y00349D03*
X01018Y00129D03*
X00696Y00104D03*
X00168Y00495D03*
X00074Y00597D03*
X00077Y00223D03*
X00092Y00356D03*
X00106Y0094D03*
X0011Y00842D03*
X01767Y01097D03*
X02302Y01107D03*
X02146Y00062D03*
X02045Y0006D03*
X01933Y00069D03*
X02007Y0062D03*
X00807Y00598D03*
X02307Y00614D03*
Y00141D03*
X01952Y01086D03*
X01893Y00968D03*
X01775D03*
X01185D03*
X01007Y01086D03*
X02127Y01127D03*
X02162Y01137D03*
X02092Y01133D03*
X0201Y00956D03*
X02091Y00608D03*
X02162D03*
X02006Y00481D03*
X01129Y0074D03*
X01471Y00439D03*
X0147Y00474D03*
X01434Y00528D03*
X01471Y00511D03*
X01422Y0079D03*
X01352Y00783D03*
X01395Y00728D03*
X02208Y01125D03*
X02192Y00891D03*
X02165Y00944D03*
X02115Y00941D03*
X02069Y0094D03*
X02202Y00097D03*
X02244Y00137D03*
X02248Y00666D03*
X02199Y00615D03*
X02011Y00382D03*
X02187Y00378D03*
X0206Y00446D03*
X02116Y00443D03*
X02165Y00447D03*
X01274Y00501D03*
X0165Y00277D03*
X00846Y00292D03*
X01832Y00402D03*
X01649Y00464D03*
X01399Y00526D03*
X01125Y00612D03*
Y00537D03*
X01137Y00472D03*
X01364Y00528D03*
X01329Y00527D03*
X01524Y00188D03*
X02287Y01032D03*
X02291Y00983D03*
X02288Y00933D03*
X02243Y01008D03*
X02244Y00949D03*
X02336Y0095D03*
X02337Y01012D03*
X02287Y00528D03*
X02291Y00479D03*
X02288Y00429D03*
X02243Y00504D03*
X02244Y00445D03*
X02336Y00446D03*
X02337Y00508D03*
X02288Y00316D03*
X02292Y00267D03*
X02289Y00217D03*
X02244Y00293D03*
X02245Y00234D03*
X02337Y00235D03*
X02338Y00297D03*
X02299Y00746D03*
X02295Y00795D03*
X02298Y00845D03*
X02343Y00769D03*
X02342Y00828D03*
X0225Y00827D03*
X02249Y00765D03*
X01718Y00137D03*
X01767Y00141D03*
X01817Y00138D03*
X01741Y00093D03*
X018Y00094D03*
X01799Y00187D03*
X01737Y00187D03*
X01586D03*
X01587Y00095D03*
X01528Y00094D03*
X01604Y00139D03*
X01554Y00142D03*
X01504Y00138D03*
X01807Y00437D03*
X01581Y00337D03*
X01645Y00417D03*
X01642Y00364D03*
X02051Y00612D03*
X01651Y00861D03*
X01687Y00862D03*
X01633Y00836D03*
X01669D03*
X01704D03*
X01511Y01006D03*
X01464Y01019D03*
X01515Y01062D03*
X01444Y01106D03*
X01492D03*
X01468Y01062D03*
X01125Y01106D03*
X01118Y01074D03*
X01094Y01098D03*
X01813Y00472D03*
X02055Y01125D03*
X01125Y00692D03*
X01133Y00426D03*
X0087Y00503D03*
X00808Y0054D03*
X00807Y00704D03*
X00724Y00566D03*
X00685Y00559D03*
X00637Y00543D03*
X01015Y00685D03*
X00661Y00673D03*
X00631Y007D03*
X00657Y00732D03*
X00574Y005D03*
X00586Y00464D03*
X01015Y00374D03*
X00645Y00606D03*
X00619Y00633D03*
X00874Y00826D03*
X00917Y00413D03*
X02087Y00272D03*
X02052D03*
X02016D03*
X01969Y00206D03*
X0197Y00175D03*
X01969Y00143D03*
Y00238D03*
X01964Y00747D03*
Y00652D03*
X01965Y00684D03*
X01964Y00715D03*
X00417Y00314D03*
X00421Y00389D03*
X02086Y00786D03*
X01011Y00969D03*
X01129D03*
X01074D03*
X0135Y01068D03*
X01421Y01064D03*
X00675Y00771D03*
X0034Y01106D03*
X00657Y01035D03*
X0072Y01D03*
X00105Y00424D03*
X00398Y00495D03*
X00497Y00913D03*
X00496Y00767D03*
X00619Y00771D03*
X00696Y00874D03*
X00657Y01D03*
G54D80*
X015Y00895D03*
Y00836D03*
X0157Y00891D03*
Y00832D03*
X0135Y00895D03*
Y00836D03*
X01425Y00895D03*
Y00836D03*
Y00962D03*
Y01021D03*
G54D81*
X01282Y00807D03*
X01232D03*
X01182D03*
X01132D03*
Y01021D03*
X01182D03*
X01232D03*
X01282D03*
G54D82*
X00964Y00271D03*
Y00321D03*
Y00371D03*
Y00421D03*
X01177D03*
Y00371D03*
Y00321D03*
Y00271D03*
G54D83*
X01177Y00518D03*
Y00543D03*
Y00568D03*
Y00593D03*
Y00618D03*
Y00643D03*
Y00668D03*
Y00693D03*
X00964D03*
Y00668D03*
Y00643D03*
Y00618D03*
Y00593D03*
Y00568D03*
Y00543D03*
Y00518D03*
G54D84*
X01641Y00421D03*
G54D85*
X01525Y0051D03*
Y00485D03*
Y00459D03*
Y00434D03*
Y00408D03*
Y00382D03*
Y00357D03*
Y00331D03*
X01756D03*
Y00357D03*
Y00382D03*
Y00408D03*
Y00434D03*
Y00459D03*
Y00485D03*
Y0051D03*
G54D86*
X02107Y00441D03*
X02106Y00955D03*
G54D87*
X02017Y00325D03*
X02043D03*
X02068D03*
X02094D03*
X0212D03*
X02145D03*
X02171D03*
X02196D03*
Y00557D03*
X02171D03*
X02145D03*
X0212D03*
X02094D03*
X02068D03*
X02043D03*
X02017D03*
X02016Y0084D03*
X02042D03*
X02067D03*
X02093D03*
X02119D03*
X02144D03*
X0217D03*
X02195D03*
Y01071D03*
X0217D03*
X02144D03*
X02119D03*
X02093D03*
X02067D03*
X02042D03*
X02016D03*
G54D88*
X0048Y00969D03*
Y01006D03*
Y01043D03*
X00583D03*
Y00969D03*
G54D89*
X00312Y00947D03*
Y0083D03*
M02*