%FSTAX23Y23*%
%MOIN*%
%SFA1B1*%

%IPPOS*%
%ADD33R,0.047244X0.051181*%
%ADD34R,0.049212X0.031496*%
%ADD35R,0.024803X0.021654*%
%ADD36R,0.051181X0.057087*%
%ADD37R,0.033858X0.021654*%
%ADD38R,0.088582X0.106299*%
%ADD39R,0.051181X0.062992*%
%ADD40R,0.051181X0.047244*%
%ADD41R,0.065945X0.031496*%
%ADD42R,0.031496X0.065945*%
%ADD43R,0.165354X0.165354*%
%ADD44R,0.059055X0.025591*%
%ADD45R,0.031496X0.055905*%
%ADD46R,0.057087X0.051181*%
%ADD47R,0.086614X0.047244*%
%ADD48R,0.086614X0.047244*%
%ADD49C,0.007874*%
%ADD50R,0.061338X0.061338*%
%ADD51C,0.061338*%
%ADD52C,0.068898*%
%ADD53R,0.053150X0.053150*%
%ADD54C,0.053150*%
%ADD55R,0.053150X0.053150*%
%ADD56O,0.086614X0.064960*%
%ADD57O,0.078740X0.053150*%
%ADD58C,0.047244*%
%ADD59R,0.047244X0.047244*%
%ADD60R,0.047244X0.047244*%
%LNlebot-1*%
%LPD*%
G54D33*
X01553Y00922D03*
X01486D03*
X02161Y00833D03*
X02094D03*
X02163Y00891D03*
X02096D03*
X01692Y00392D03*
X01759D03*
X01693Y00447D03*
X0176D03*
X01751Y00313D03*
X01818D03*
X02054Y0032D03*
X02121D03*
X02054Y00375D03*
X02121D03*
X00653Y0096D03*
X0072D03*
X00653Y00909D03*
X0072D03*
X00564Y00812D03*
X00498D03*
X00564Y00871D03*
X00498D03*
X00566Y01059D03*
X005D03*
X00675Y00385D03*
X00608D03*
X00675Y00326D03*
X00608D03*
X00818Y00417D03*
X00885D03*
G54D34*
X01577Y00833D03*
X01491Y00796D03*
Y00871D03*
G54D35*
X01606Y0094D03*
Y00915D03*
Y00889D03*
X01679D03*
Y00915D03*
Y0094D03*
G54D36*
X01643Y00926D03*
X01403Y00369D03*
Y00461D03*
G54D37*
X01643Y00884D03*
G54D38*
X01181Y00796D03*
Y01056D03*
G54D39*
X01299Y00614D03*
X01358D03*
X01232Y00539D03*
X01173D03*
X01232Y00614D03*
X01173D03*
X01299Y00685D03*
X01358D03*
X01232D03*
X01173D03*
G54D40*
X00968Y00606D03*
Y00673D03*
X01551Y00393D03*
Y0046D03*
X01339Y00455D03*
Y00388D03*
X01606Y00458D03*
Y00391D03*
X02107Y00498D03*
Y00564D03*
X02052Y00498D03*
Y00564D03*
X02162D03*
Y00498D03*
X02117Y01002D03*
Y01069D03*
X02062Y01002D03*
Y01069D03*
X02169D03*
Y01002D03*
X00956Y00476D03*
Y00409D03*
G54D41*
X00896Y00543D03*
Y00574D03*
Y00606D03*
Y00637D03*
Y00669D03*
Y007D03*
Y00732D03*
Y00763D03*
X00562D03*
Y00732D03*
Y007D03*
Y00669D03*
Y00637D03*
Y00606D03*
Y00574D03*
Y00543D03*
G54D42*
X0084Y0082D03*
X00808D03*
X00777D03*
X00745D03*
X00714D03*
X00682D03*
X00651D03*
X00619D03*
Y00486D03*
X00651D03*
X00682D03*
X00714D03*
X00745D03*
X00777D03*
X00808D03*
X0084D03*
G54D43*
X01767Y00141D03*
X01558Y00139D03*
X02291Y00479D03*
X02292Y00267D03*
X02291Y00983D03*
X02295Y00795D03*
X01649Y01051D03*
X01464D03*
G54D44*
X00228Y0094D03*
Y00915D03*
Y00889D03*
Y00863D03*
Y00838D03*
G54D45*
X00345Y00754D03*
X00382D03*
X00419D03*
Y00857D03*
X00382D03*
X00345D03*
G54D46*
X00433Y01059D03*
X0034D03*
X00551Y00387D03*
X00458D03*
X00551Y00326D03*
X00458D03*
G54D47*
X00106Y00652D03*
X00342D03*
G54D48*
X00106Y00495D03*
X00342D03*
G54D49*
X01141Y00078D03*
X0185Y01102D03*
X00787D03*
X00183Y00989D03*
Y00793D03*
G54D50*
X0086Y00094D03*
X00525D03*
X00198D03*
G54D51*
X0091Y00194D03*
X0096Y00094D03*
X0101Y00194D03*
X00575D03*
X00625Y00094D03*
X00675Y00194D03*
X00248D03*
X00298Y00094D03*
X00348Y00194D03*
G54D52*
X00805Y00165D03*
X0047D03*
X00142D03*
G54D53*
X01536Y00629D03*
X01925Y00842D03*
G54D54*
X01634Y00629D03*
X01874Y00602D03*
X01826Y00842D03*
G54D55*
X01874Y00503D03*
G54D56*
X00225Y01038D03*
Y00744D03*
G54D57*
X00075Y01044D03*
Y00738D03*
G54D58*
X01407Y00083D03*
X01357D03*
X0127Y0018D03*
X00368Y00374D03*
Y00324D03*
X00318Y00374D03*
Y00324D03*
X00268Y00374D03*
Y00324D03*
X00218Y00374D03*
Y00324D03*
X00168Y00374D03*
G54D59*
X01307Y00083D03*
X00168Y00324D03*
G54D60*
X0127Y0023D03*
M02*