%FSTAX23Y23*%
%MOIN*%
%SFA1B1*%

%IPPOS*%
%ADD11C,0.007874*%
%ADD14C,0.009843*%
%LNlebot-1*%
%LPD*%
G36*
X01255Y00291D02*
X01255Y0029D01*
X01255Y0029*
X01255Y0029*
X01255Y0029*
X01255Y0029*
X01255Y0029*
X01255Y0029*
X01255Y0029*
X01255Y0029*
X01255Y0029*
Y00289*
Y00289*
Y00271*
X01255Y00271*
X01255Y0027*
Y0027*
X01255Y0027*
X01255Y0027*
X01255Y0027*
X01255*
X01255Y0027*
X01255Y0027*
X01255Y0027*
X01255*
X01254Y0027*
X01254Y0027*
X01254*
X01254Y0027*
X01253Y0027*
X01253*
X01253Y0027*
X01253Y0027*
X01253Y0027*
X01253*
X01253Y0027*
X01253Y0027*
X01253Y0027*
X01253Y0027*
X01253Y00271*
X01253Y00271*
Y00271*
Y00271*
Y00288*
X01246Y00271*
X01246Y0027*
X01246Y0027*
Y0027*
X01245Y0027*
X01245Y0027*
X01245*
X01245Y0027*
X01245Y0027*
X01245Y0027*
X01245*
X01245Y0027*
X01245Y0027*
X01244*
X01244Y0027*
X01244*
X01244Y0027*
X01244Y0027*
X01244Y0027*
X01244*
X01243Y0027*
X01243Y0027*
X01243Y0027*
X01243*
X01243Y00271*
X01243Y00271*
Y00271*
X01236Y00288*
X01236*
Y00271*
X01236Y00271*
X01236Y0027*
Y0027*
X01236Y0027*
X01236Y0027*
X01236Y0027*
X01236*
X01235Y0027*
X01235Y0027*
X01235Y0027*
X01235*
X01235Y0027*
X01235Y0027*
X01234*
X01234Y0027*
X01234Y0027*
X01234*
X01234Y0027*
X01234Y0027*
X01234Y0027*
X01234*
X01233Y0027*
X01233Y0027*
X01233Y0027*
X01233Y0027*
X01233Y00271*
X01233Y00271*
Y00271*
Y00271*
Y00289*
X01233Y0029*
X01233Y0029*
X01233Y0029*
X01233Y0029*
X01233Y0029*
X01233Y0029*
X01234Y0029*
X01234Y0029*
X01234Y0029*
X01234Y00291*
X01234Y00291*
X01234Y00291*
X01234Y00291*
X01234Y00291*
X01236*
X01236Y00291*
X01237Y00291*
X01237Y00291*
X01237Y00291*
X01237*
X01237Y0029*
X01237Y0029*
X01237Y0029*
X01237Y0029*
X01238Y0029*
X01238Y0029*
X01238Y0029*
X01238Y0029*
Y0029*
X01238Y00289*
X01238Y00289*
X01238Y00289*
X01238Y00289*
X01238Y00289*
Y00289*
X01244Y00274*
X01244*
X0125Y00289*
X0125Y00289*
X0125Y0029*
X0125Y0029*
X01251Y0029*
Y0029*
X01251Y0029*
X01251Y0029*
X01251Y0029*
X01251Y0029*
X01251*
X01251Y0029*
X01251Y0029*
X01252Y0029*
X01252Y00291*
X01252Y00291*
X01252*
X01252Y00291*
X01252Y00291*
X01254*
X01255Y00291*
G37*
G36*
X01285Y00291D02*
X01285D01*
X01285Y00291*
X01285*
X01285Y00291*
X01286Y00291*
X01286Y00291*
X01286Y00291*
X01286Y0029*
X01286Y0029*
X01286Y0029*
Y0029*
X01286Y0029*
X01286Y0029*
X01286Y0029*
X01286Y0029*
Y0029*
X0128Y00271*
X0128Y00271*
X0128Y00271*
X0128Y00271*
X0128Y0027*
X0128Y0027*
X0128Y0027*
X0128Y0027*
X0128Y0027*
X0128Y0027*
X01279Y0027*
X01279Y0027*
X01279*
X01279Y0027*
X01279Y0027*
X01278*
X01278Y0027*
X01278*
X01278Y0027*
X01278*
X01277Y0027*
X01277Y0027*
X01277Y0027*
X01277*
X01277Y0027*
X01277Y0027*
X01277Y0027*
X01277Y0027*
X01277Y00271*
X01277Y00271*
X01277Y00271*
Y00271*
X01273Y00286*
X01273*
X01268Y00271*
X01268Y00271*
X01268Y00271*
X01268Y00271*
X01268Y0027*
X01268Y0027*
X01268Y0027*
X01268Y0027*
X01268Y0027*
X01268Y0027*
X01267Y0027*
X01267Y0027*
X01267*
X01267Y0027*
X01267Y0027*
X01266*
X01266Y0027*
X01266*
X01266Y0027*
X01266*
X01265Y0027*
X01265Y0027*
X01265Y0027*
X01265*
X01265Y0027*
X01265Y0027*
X01265Y0027*
X01265Y0027*
X01265Y00271*
X01265Y00271*
X01265Y00271*
X01265Y00271*
X01259Y0029*
X01259Y0029*
X01259Y0029*
Y0029*
Y0029*
X01259Y0029*
X01259Y0029*
X01259Y0029*
X01259Y00291*
X01259Y00291*
X01259Y00291*
X0126Y00291*
X0126*
X0126Y00291*
X0126Y00291*
X01261*
X01261Y00291*
X01261Y00291*
X01261*
X01261Y00291*
X01261Y00291*
X01261Y00291*
X01261Y00291*
X01262Y00291*
X01262Y0029*
X01262Y0029*
Y0029*
X01262Y0029*
X01262Y0029*
Y0029*
X01266Y00273*
X01266*
X01271Y0029*
X01271Y0029*
X01271Y0029*
X01271Y0029*
X01271Y0029*
X01271Y0029*
X01271Y00291*
X01271Y00291*
X01271*
X01271Y00291*
X01272Y00291*
X01272Y00291*
X01272*
X01272Y00291*
X01272Y00291*
X01273*
X01273Y00291*
X01273*
X01273Y00291*
X01273*
X01273Y00291*
X01274Y00291*
X01274Y00291*
X01274Y00291*
X01274Y00291*
X01274Y0029*
X01274Y0029*
X01274Y0029*
X01274Y0029*
X01274Y0029*
Y0029*
X01278Y00273*
X01278*
X01283Y0029*
X01283Y0029*
X01283Y0029*
X01283Y0029*
X01283Y0029*
X01283Y00291*
X01283Y00291*
X01283Y00291*
X01283*
X01283Y00291*
X01283Y00291*
X01284Y00291*
X01284*
X01284Y00291*
X01285*
X01285Y00291*
G37*
G36*
X013Y00291D02*
X013Y00291D01*
X013Y0029*
X013Y0029*
X013Y0029*
X013Y0029*
X013Y0029*
X01301Y0029*
X01301Y0029*
X01301Y0029*
X01301Y0029*
Y00289*
Y00289*
Y00271*
X01301Y00271*
X01301Y0027*
Y0027*
X01301Y0027*
X013Y0027*
X013Y0027*
X013*
X013Y0027*
X013Y0027*
X013Y0027*
X013*
X013Y0027*
X013Y0027*
X01299*
X01299Y0027*
X01299Y0027*
X01299*
X01299Y0027*
X01298Y0027*
X01298Y0027*
X01298*
X01298Y0027*
X01298Y0027*
X01298Y0027*
X01298Y0027*
X01298Y00271*
X01298Y00271*
Y00271*
Y00271*
Y00278*
X01296*
X01295Y00278*
X01294Y00278*
X01294Y00278*
X01293Y00278*
X01293Y00278*
X01293Y00278*
X01293Y00278*
X01293Y00278*
X01292Y00278*
X01292Y00278*
X01292*
X01292Y00279*
X01291Y00279*
X01291Y00279*
X01291Y00279*
X0129Y0028*
X0129Y0028*
X0129Y0028*
X0129Y0028*
X0129Y0028*
X01289Y00281*
X01289Y00281*
X01289Y00281*
X01289Y00281*
X01289Y00282*
X01289Y00282*
X01289Y00282*
Y00282*
X01289Y00282*
X01288Y00283*
X01288Y00283*
X01288Y00284*
X01288Y00284*
Y00284*
X01288Y00284*
Y00285*
Y00285*
Y00285*
Y00285*
X01288Y00285*
X01288Y00285*
X01288Y00286*
X01288Y00286*
X01288Y00286*
X01288Y00287*
X01288Y00287*
X01289Y00287*
X01289Y00287*
X01289Y00287*
X01289Y00288*
X01289Y00288*
X01289Y00288*
X01289Y00288*
X01289Y00288*
X01289Y00288*
X0129Y00289*
X0129Y00289*
X0129Y00289*
X0129Y00289*
X01291Y00289*
X01291Y0029*
X01291Y0029*
X01291Y0029*
X01291Y0029*
X01292Y0029*
X01292Y0029*
X01292Y0029*
X01292Y0029*
X01292Y0029*
X01293Y0029*
X01293*
X01293Y0029*
X01293Y0029*
X01293Y0029*
X01294Y00291*
X01294Y00291*
X01294Y00291*
X01294*
X01294Y00291*
X01295*
X01295Y00291*
X013*
X013Y00291*
G37*
G36*
X01367Y00042D02*
X01367Y00042D01*
X01367Y00042*
X01367Y00042*
Y00042*
X01367Y00041*
X01367Y00041*
X01368Y00041*
Y00041*
X01368Y00041*
Y00041*
Y00041*
Y00032*
Y00032*
X01368Y00032*
X01368Y00032*
X01367Y00032*
X01367Y00032*
X01367Y00032*
X01367Y00032*
X01367Y00032*
X01367Y00032*
X01367Y00032*
X01367*
X01366Y00032*
X01366*
X01366Y00032*
X01366Y00032*
X01366*
X01365Y00032*
X01365*
X01365Y00032*
X01365Y00032*
X01365Y00032*
X01364Y00032*
X01363*
X01363Y00032*
X01362Y00032*
X01362Y00032*
X01362Y00032*
X01362Y00032*
X01362Y00031*
X01361*
X01361Y00031*
X01361Y00031*
X01361Y00031*
X0136Y00031*
X0136Y00031*
X0136Y00031*
X0136Y00031*
X0136Y00031*
X0136Y00031*
X01359Y0003*
X01359Y0003*
X01359Y0003*
X01359Y0003*
X01359Y0003*
X01359Y00029*
X01359Y00029*
X01359Y00029*
X01359Y00029*
X01359Y00029*
X01359Y00028*
X01359Y00028*
X01359Y00028*
Y00028*
Y00028*
X01359Y00027*
X01359Y00027*
X01359Y00027*
X01359Y00026*
X01359Y00026*
X01359Y00026*
X01359Y00026*
X01359Y00026*
X01359Y00025*
X01359Y00025*
X01359Y00025*
X0136Y00025*
X0136Y00025*
X0136Y00025*
X0136Y00024*
X0136Y00024*
X0136Y00024*
X01361Y00024*
X01361Y00024*
X01361Y00024*
X01361Y00024*
X01361Y00024*
X01361Y00024*
X01362Y00024*
X01362Y00023*
X01362Y00023*
X01363Y00023*
X01363*
X01363Y00023*
X01364*
X01364Y00023*
X01365Y00023*
X01365Y00023*
X01365Y00024*
X01365Y00024*
X01365Y00024*
X01365*
X01366Y00024*
X01366Y00024*
X01366Y00024*
X01366Y00024*
X01367Y00024*
X01367Y00024*
X01367Y00024*
X01367*
X01367Y00024*
X01367Y00024*
X01367Y00024*
X01368Y00024*
X01368Y00024*
X01368Y00024*
X01368*
X01368Y00025*
X01368Y00025*
X01368Y00025*
X01368*
X01368Y00025*
X01368Y00025*
X01368Y00025*
X01368Y00024*
X01368Y00024*
X01368Y00024*
X01369Y00024*
X01369Y00024*
X01369Y00024*
Y00024*
Y00024*
Y00024*
Y00024*
Y00024*
Y00024*
Y00023*
Y00023*
Y00023*
Y00023*
X01369Y00023*
Y00023*
X01369Y00023*
Y00023*
X01368Y00023*
X01368Y00023*
Y00022*
X01368Y00022*
X01368Y00022*
X01368Y00022*
X01368Y00022*
X01368Y00022*
X01368Y00022*
X01368Y00022*
X01368Y00022*
X01368*
X01367Y00022*
X01367Y00022*
X01367Y00022*
X01367Y00022*
X01367Y00022*
X01367*
X01366Y00021*
X01366Y00021*
X01366Y00021*
X01365Y00021*
X01365Y00021*
X01365Y00021*
X01365*
X01365Y00021*
X01364Y00021*
X01364*
X01364Y00021*
X01363*
X01363Y00021*
X01362Y00021*
X01362Y00021*
X01361Y00021*
X01361Y00021*
X01361Y00021*
X01361Y00022*
X0136Y00022*
X0136Y00022*
X0136Y00022*
X0136*
X0136Y00022*
X01359Y00022*
X01359Y00022*
X01359Y00022*
X01358Y00023*
X01358Y00023*
X01358Y00023*
X01358Y00023*
X01357Y00023*
X01357Y00024*
X01357Y00024*
X01357Y00024*
X01357Y00025*
X01356Y00025*
X01356Y00025*
X01356Y00025*
X01356Y00025*
Y00025*
X01356Y00026*
X01356Y00026*
X01356Y00027*
X01356Y00027*
X01356Y00027*
Y00028*
X01356Y00028*
Y00028*
Y00028*
Y00028*
Y00028*
X01356Y00028*
X01356Y00029*
X01356Y00029*
X01356Y0003*
X01356Y0003*
X01356Y0003*
X01356Y0003*
X01356Y0003*
X01356Y00031*
X01357Y00031*
X01357Y00031*
X01357Y00032*
X01357Y00032*
X01357Y00032*
X01357Y00032*
X01357Y00032*
X01358Y00033*
X01358Y00033*
X01358Y00033*
X01359Y00033*
X01359Y00033*
X01359Y00033*
X01359Y00033*
X0136Y00033*
X0136Y00033*
X0136*
X0136Y00034*
X01361Y00034*
X01361Y00034*
X01362Y00034*
X01362Y00034*
X01362Y00034*
X01363*
X01364Y00034*
X01364*
X01364Y00034*
X01364Y00034*
X01365*
X01365Y00034*
X01365*
X01365Y00034*
X01365*
Y00039*
X01358*
X01357Y00039*
X01357Y0004*
X01357Y0004*
X01357Y0004*
X01357Y0004*
X01357Y0004*
X01357Y0004*
X01357Y0004*
Y00041*
Y00041*
Y00041*
Y00041*
X01357Y00041*
X01357Y00041*
Y00041*
X01357Y00041*
X01357Y00041*
X01357Y00041*
X01357Y00042*
X01357Y00042*
X01357Y00042*
X01357Y00042*
X01357Y00042*
X01357Y00042*
X01358Y00042*
X01367*
X01367Y00042*
G37*
G36*
X01352Y00042D02*
X01353D01*
X01353Y00042*
X01353*
X01353Y00042*
X01353Y00042*
X01353Y00042*
X01353Y00042*
X01353Y00042*
X01353Y00042*
X01353Y00041*
Y00041*
X01353Y00041*
X01353Y00041*
X01353Y00041*
X01353Y00041*
Y00041*
X01347Y00022*
X01346Y00022*
X01346Y00022*
Y00022*
X01346Y00022*
X01346Y00022*
X01346Y00022*
X01346Y00021*
X01346Y00021*
X01346*
X01346Y00021*
X01346*
X01346Y00021*
X01346*
X01346Y00021*
X01345Y00021*
X01345*
X01345Y00021*
X01344*
X01344Y00021*
X01344*
X01344Y00021*
X01344Y00021*
X01343Y00021*
X01343*
X01343Y00021*
X01343Y00022*
X01343Y00022*
X01343Y00022*
X01343Y00022*
X01343Y00022*
X01343Y00022*
X01336Y00041*
X01336Y00041*
X01336Y00041*
X01336Y00041*
Y00041*
Y00042*
X01336Y00042*
X01336Y00042*
X01336Y00042*
X01336Y00042*
X01336Y00042*
X01337Y00042*
X01337*
X01337Y00042*
X01337Y00042*
X01338*
X01338Y00042*
X01338*
X01338Y00042*
X01338Y00042*
X01339Y00042*
X01339Y00042*
X01339Y00042*
X01339Y00042*
X01339Y00042*
X01339Y00042*
X01339Y00042*
X01339Y00041*
X01339Y00041*
Y00041*
X01345Y00024*
X01345*
X0135Y00041*
X0135Y00041*
X01351Y00042*
X01351Y00042*
X01351Y00042*
X01351Y00042*
X01351Y00042*
X01351Y00042*
X01351*
X01351Y00042*
X01351Y00042*
X01351Y00042*
X01351*
X01351Y00042*
X01352*
X01352Y00042*
G37*
G36*
X01268Y0004D02*
X01269Y0004D01*
X01269Y00039*
X01269Y00039*
X01269Y00039*
X01269Y00039*
X01269Y00039*
X01269Y00039*
X01269Y00039*
X01269Y00039*
X01269Y00039*
Y00038*
Y00038*
Y0002*
X01269Y0002*
X01269Y00019*
Y00019*
X01269Y00019*
X01269Y00019*
X01269Y00019*
X01269*
X01269Y00019*
X01269Y00019*
X01269Y00019*
X01268*
X01268Y00019*
X01268Y00019*
X01268*
X01267Y00019*
X01267Y00019*
X01267*
X01267Y00019*
X01267Y00019*
X01267Y00019*
X01267*
X01267Y00019*
X01267Y00019*
X01267Y00019*
X01266Y00019*
X01266Y0002*
X01266Y0002*
Y0002*
Y0002*
Y00037*
X0126Y0002*
X01259Y00019*
X01259Y00019*
Y00019*
X01259Y00019*
X01259Y00019*
X01259*
X01259Y00019*
X01259Y00019*
X01259Y00019*
X01259*
X01259Y00019*
X01258Y00019*
X01258*
X01258Y00019*
X01258*
X01258Y00019*
X01257Y00019*
X01257Y00019*
X01257*
X01257Y00019*
X01257Y00019*
X01257Y00019*
X01257*
X01257Y0002*
X01257Y0002*
Y0002*
X0125Y00037*
X0125*
Y0002*
X0125Y0002*
X0125Y00019*
Y00019*
X0125Y00019*
X01249Y00019*
X01249Y00019*
X01249*
X01249Y00019*
X01249Y00019*
X01249Y00019*
X01249*
X01249Y00019*
X01249Y00019*
X01248*
X01248Y00019*
X01248Y00019*
X01248*
X01248Y00019*
X01247Y00019*
X01247Y00019*
X01247*
X01247Y00019*
X01247Y00019*
X01247Y00019*
X01247Y00019*
X01247Y0002*
X01247Y0002*
Y0002*
Y0002*
Y00038*
X01247Y00039*
X01247Y00039*
X01247Y00039*
X01247Y00039*
X01247Y00039*
X01247Y00039*
X01247Y00039*
X01247Y00039*
X01247Y00039*
X01248Y0004*
X01248Y0004*
X01248Y0004*
X01248Y0004*
X01248Y0004*
X0125*
X0125Y0004*
X0125Y0004*
X01251Y0004*
X01251Y0004*
X01251*
X01251Y00039*
X01251Y00039*
X01251Y00039*
X01251Y00039*
X01251Y00039*
X01251Y00039*
X01252Y00039*
X01252Y00039*
Y00039*
X01252Y00038*
X01252Y00038*
X01252Y00038*
X01252Y00038*
X01252Y00038*
Y00038*
X01258Y00023*
X01258*
X01264Y00038*
X01264Y00038*
X01264Y00039*
X01264Y00039*
X01264Y00039*
Y00039*
X01264Y00039*
X01265Y00039*
X01265Y00039*
X01265Y00039*
X01265*
X01265Y00039*
X01265Y00039*
X01265Y0004*
X01265Y0004*
X01265Y0004*
X01265*
X01266Y0004*
X01266Y0004*
X01268*
X01268Y0004*
G37*
G36*
X01299Y0004D02*
X01299D01*
X01299Y0004*
X01299*
X01299Y0004*
X01299Y0004*
X01299Y0004*
X01299Y0004*
X013Y00039*
X013Y00039*
X013Y00039*
Y00039*
X013Y00039*
X013Y00039*
X01299Y00039*
X01299Y00039*
Y00039*
X01294Y0002*
X01294Y0002*
X01294Y0002*
X01294Y0002*
X01294Y0002*
X01294Y00019*
X01294Y00019*
X01294Y00019*
X01294Y00019*
X01293Y00019*
X01293Y00019*
X01293Y00019*
X01293*
X01293Y00019*
X01292Y00019*
X01292*
X01292Y00019*
X01291*
X01291Y00019*
X01291*
X01291Y00019*
X01291Y00019*
X01291Y00019*
X01291*
X01291Y00019*
X01291Y00019*
X01291Y00019*
X0129Y0002*
X0129Y0002*
X0129Y0002*
X0129Y0002*
Y0002*
X01286Y00035*
X01286*
X01282Y0002*
X01282Y0002*
X01282Y0002*
X01282Y0002*
X01282Y0002*
X01282Y00019*
X01282Y00019*
X01282Y00019*
X01282Y00019*
X01281Y00019*
X01281Y00019*
X01281Y00019*
X01281*
X01281Y00019*
X0128Y00019*
X0128*
X0128Y00019*
X0128*
X01279Y00019*
X01279*
X01279Y00019*
X01279Y00019*
X01279Y00019*
X01279*
X01279Y00019*
X01279Y00019*
X01279Y00019*
X01278Y0002*
X01278Y0002*
X01278Y0002*
X01278Y0002*
X01278Y0002*
X01273Y00039*
X01273Y00039*
X01273Y00039*
Y00039*
Y00039*
X01273Y00039*
X01273Y00039*
X01273Y0004*
X01273Y0004*
X01273Y0004*
X01273Y0004*
X01273Y0004*
X01273*
X01274Y0004*
X01274Y0004*
X01274*
X01275Y0004*
X01275Y0004*
X01275*
X01275Y0004*
X01275Y0004*
X01275Y0004*
X01275Y0004*
X01275Y0004*
X01275Y0004*
X01275Y00039*
Y00039*
X01276Y00039*
X01276Y00039*
Y00039*
X0128Y00022*
X0128*
X01285Y00039*
X01285Y00039*
X01285Y00039*
X01285Y00039*
X01285Y00039*
X01285Y0004*
X01285Y0004*
X01285Y0004*
X01285*
X01285Y0004*
X01285Y0004*
X01285Y0004*
X01286*
X01286Y0004*
X01286Y0004*
X01287*
X01287Y0004*
X01287*
X01287Y0004*
X01287*
X01287Y0004*
X01287Y0004*
X01287Y0004*
X01287Y0004*
X01288Y0004*
X01288Y0004*
X01288Y00039*
X01288Y00039*
X01288Y00039*
X01288Y00039*
Y00039*
X01292Y00022*
X01292*
X01297Y00039*
X01297Y00039*
X01297Y00039*
X01297Y00039*
X01297Y00039*
X01297Y0004*
X01297Y0004*
X01297Y0004*
X01297*
X01297Y0004*
X01297Y0004*
X01297Y0004*
X01297*
X01298Y0004*
X01299*
X01299Y0004*
G37*
G36*
X01314Y0004D02*
X01314Y0004D01*
X01314Y00039*
X01314Y00039*
X01314Y00039*
X01314Y00039*
X01314Y00039*
X01314Y00039*
X01314Y00039*
X01314Y00039*
X01314Y00039*
Y00038*
Y00038*
Y0002*
X01314Y0002*
X01314Y00019*
Y00019*
X01314Y00019*
X01314Y00019*
X01314Y00019*
X01314*
X01314Y00019*
X01314Y00019*
X01314Y00019*
X01314*
X01314Y00019*
X01313Y00019*
X01313*
X01313Y00019*
X01313Y00019*
X01312*
X01312Y00019*
X01312Y00019*
X01312Y00019*
X01312*
X01312Y00019*
X01312Y00019*
X01312Y00019*
X01312Y00019*
X01312Y0002*
X01312Y0002*
Y0002*
Y0002*
Y00027*
X01309*
X01309Y00027*
X01308Y00027*
X01308Y00027*
X01307Y00027*
X01307Y00027*
X01307Y00027*
X01306Y00027*
X01306Y00027*
X01306Y00027*
X01306Y00028*
X01306*
X01306Y00028*
X01305Y00028*
X01305Y00028*
X01305Y00028*
X01304Y00029*
X01304Y00029*
X01304Y00029*
X01304Y00029*
X01304Y00029*
X01303Y0003*
X01303Y0003*
X01303Y0003*
X01303Y0003*
X01303Y00031*
X01302Y00031*
X01302Y00031*
Y00031*
X01302Y00031*
X01302Y00032*
X01302Y00032*
X01302Y00033*
X01302Y00033*
Y00033*
X01302Y00033*
Y00034*
Y00034*
Y00034*
Y00034*
X01302Y00034*
X01302Y00034*
X01302Y00035*
X01302Y00035*
X01302Y00035*
X01302Y00036*
X01302Y00036*
X01302Y00036*
X01302Y00036*
X01303Y00036*
X01303Y00037*
X01303Y00037*
X01303Y00037*
X01303Y00037*
X01303Y00037*
X01303Y00037*
X01303Y00038*
X01304Y00038*
X01304Y00038*
X01304Y00038*
X01304Y00038*
X01304Y00039*
X01305Y00039*
X01305Y00039*
X01305Y00039*
X01305Y00039*
X01306Y00039*
X01306Y00039*
X01306Y00039*
X01306Y00039*
X01306Y00039*
X01306*
X01307Y00039*
X01307Y00039*
X01307Y0004*
X01307Y0004*
X01308Y0004*
X01308Y0004*
X01308*
X01308Y0004*
X01308*
X01309Y0004*
X01314*
X01314Y0004*
G37*
G36*
X01285Y00141D02*
X01285Y00141D01*
X01286Y00141*
X01286Y00141*
X01287Y00141*
X01287Y00141*
X01287Y00141*
X01287Y00141*
X01287Y00141*
X01288Y00141*
X01288Y00141*
X01288Y00141*
X01288*
X01288Y0014*
X01289Y0014*
X0129Y0014*
X0129Y00139*
X0129Y00139*
X01291Y00139*
X01291Y00139*
X01291Y00139*
X01291Y00139*
X01291Y00139*
X01291Y00139*
X01291Y00138*
X01292Y00137*
X01292Y00137*
X01293Y00136*
X01293Y00136*
X01293Y00136*
X01293Y00136*
X01293Y00135*
X01293Y00135*
X01293Y00135*
Y00135*
X01293Y00134*
X01293Y00134*
X01294Y00133*
X01294Y00132*
X01294Y00132*
Y00132*
X01294Y00131*
X01294Y00131*
Y00131*
Y00131*
Y00131*
Y00131*
X01294Y0013*
X01294Y00129*
X01294Y00128*
X01294Y00128*
X01293Y00128*
X01293Y00128*
X01293Y00127*
X01293Y00127*
X01293Y00127*
X01293Y00127*
X01293Y00127*
X01293Y00127*
Y00127*
X01293Y00126*
X01293Y00125*
X01292Y00125*
X01292Y00124*
X01292Y00124*
X01291Y00124*
X01291Y00124*
X01291Y00124*
X01291Y00123*
X01291Y00123*
X01291Y00123*
X01291Y00123*
X0129Y00122*
X0129Y00122*
X01289Y00122*
X01289Y00122*
X01289Y00121*
X01288Y00121*
X01288Y00121*
X01288Y00121*
X01288Y00121*
X01288*
X01287Y00121*
X01287Y00121*
X01286Y00121*
X01285Y00121*
X01285Y00121*
X01285*
X01284Y00121*
X01284Y00121*
X01284*
X01283Y00121*
X01283*
X01283Y00121*
X01283Y00121*
X01282*
X01282Y00121*
X01282*
X01282Y00121*
X01281Y00121*
X01281Y00121*
X01281Y00121*
X01281Y00121*
X01281Y00121*
X01281*
X0128Y00121*
X0128Y00121*
X0128Y00121*
X01279Y00121*
X01279Y00121*
X01279Y00121*
X01279*
X01279Y00121*
X01279Y00122*
X01279Y00122*
X01278Y00122*
X01278Y00122*
X01278Y00122*
X01278Y00122*
X01278*
X01278Y00122*
X01278Y00122*
X01278Y00122*
X01278Y00122*
X01277Y00122*
X01277Y00122*
Y00122*
X01277Y00123*
X01277Y00123*
X01277Y00123*
Y00123*
Y00123*
Y00123*
Y00131*
X01277Y00131*
X01277Y00131*
X01277Y00131*
X01277Y00131*
X01277Y00132*
X01278Y00132*
X01278Y00132*
X01278Y00132*
X01278Y00132*
X01278Y00132*
X01278Y00132*
X01278Y00132*
X01278Y00132*
X01278Y00132*
X01285*
X01285Y00132*
X01285Y00132*
X01285Y00132*
X01285Y00132*
X01285Y00132*
X01285Y00132*
X01285Y00132*
X01285Y00132*
X01285Y00131*
Y00131*
X01285Y00131*
Y00131*
Y00131*
Y00131*
Y00131*
Y00131*
X01285Y00131*
X01285Y0013*
X01285Y0013*
Y0013*
X01285Y0013*
X01285Y0013*
Y0013*
X01285Y0013*
X01285Y0013*
X01285Y0013*
X0128*
Y00124*
X01281Y00124*
X01281Y00123*
X01281Y00123*
X01281Y00123*
X01282Y00123*
X01282Y00123*
X01282*
X01283Y00123*
X01283Y00123*
X01283Y00123*
X01283*
X01284Y00123*
X01284*
X01284Y00123*
X01285Y00123*
X01285Y00123*
X01286Y00123*
X01286Y00123*
X01286Y00123*
X01286Y00123*
X01286Y00123*
X01287Y00123*
X01287Y00123*
X01287*
X01287Y00124*
X01288Y00124*
X01288Y00124*
X01288Y00124*
X01289Y00125*
X01289Y00125*
X01289Y00125*
X01289Y00125*
X01289Y00125*
X0129Y00126*
X0129Y00126*
X0129Y00127*
X0129Y00127*
X0129Y00127*
X0129Y00127*
X0129Y00128*
X0129Y00128*
Y00128*
X01291Y00128*
X01291Y00129*
X01291Y00129*
X01291Y0013*
X01291Y0013*
X01291Y0013*
Y00131*
X01291Y00131*
Y00131*
Y00131*
Y00131*
Y00131*
X01291Y00132*
X01291Y00132*
X01291Y00133*
X01291Y00133*
X01291Y00134*
X01291Y00134*
X01291Y00134*
X0129Y00134*
X0129Y00134*
X0129Y00134*
Y00134*
X0129Y00135*
X0129Y00135*
X0129Y00136*
X0129Y00136*
X01289Y00136*
X01289Y00137*
X01289Y00137*
X01289Y00137*
X01289Y00137*
X01288Y00138*
X01288Y00138*
X01288Y00138*
X01287Y00138*
X01287Y00138*
X01287Y00139*
X01287Y00139*
X01287Y00139*
X01287*
X01286Y00139*
X01286Y00139*
X01285Y00139*
X01285Y00139*
X01284Y00139*
X01284*
X01284Y00139*
X01284*
X01283Y00139*
X01283Y00139*
X01282Y00139*
X01282Y00139*
X01282Y00139*
X01281Y00139*
X01281Y00139*
X01281Y00139*
X01281Y00139*
X01281Y00139*
X0128Y00139*
X0128Y00138*
X0128Y00138*
X0128Y00138*
X0128Y00138*
X0128Y00138*
X01279Y00138*
X01279Y00138*
X01279Y00138*
X01279Y00138*
X01279Y00138*
X01278Y00138*
X01278Y00138*
X01278Y00138*
X01278Y00137*
X01278Y00137*
X01278Y00137*
X01278Y00137*
X01278*
X01278Y00137*
X01278Y00137*
X01278*
X01277Y00137*
X01277Y00137*
X01277Y00138*
Y00138*
X01277Y00138*
X01277Y00138*
X01277Y00138*
Y00138*
X01277Y00138*
X01277Y00138*
Y00138*
Y00138*
Y00138*
X01277Y00139*
X01277Y00139*
X01277Y00139*
Y00139*
X01277Y00139*
X01277Y00139*
X01277Y0014*
X01278Y0014*
X01278Y0014*
X01278Y0014*
X01278Y0014*
X01278Y0014*
X01278Y0014*
X01278Y0014*
X01278Y0014*
X01278Y0014*
X01279Y0014*
X01279Y00141*
X01279Y00141*
X01279Y00141*
X0128Y00141*
X0128Y00141*
X0128*
X0128Y00141*
X01281Y00141*
X01281Y00141*
X01281Y00141*
X01281Y00141*
X01281Y00141*
X01281*
X01282Y00141*
X01283Y00141*
X01283Y00141*
X01283Y00142*
X01284*
X01285Y00141*
G37*
G36*
X01251Y00141D02*
X01251Y00141D01*
X01251Y00141*
X01251Y00141*
X01251*
X01251Y00141*
X01251Y00141*
X01251Y0014*
X01251Y0014*
X01251Y0014*
Y0014*
Y0014*
Y00122*
X01251Y00122*
X01251Y00122*
X01251Y00121*
X01251Y00121*
X01251Y00121*
X01251Y00121*
X01251Y00121*
X01251Y00121*
X01251Y00121*
X01251Y00121*
X0125Y00121*
X01246*
X01245Y00121*
X01244Y00121*
X01244Y00121*
X01243Y00121*
X01243Y00121*
X01243Y00121*
X01243Y00121*
X01242Y00121*
X01242Y00121*
X01242Y00121*
X01242Y00121*
X01242Y00121*
X01242Y00121*
X01242*
X01241Y00122*
X0124Y00122*
X0124Y00122*
X01239Y00123*
X01239Y00123*
X01239Y00123*
X01239Y00123*
X01238Y00123*
X01238Y00123*
X01238Y00123*
X01238Y00123*
X01238Y00124*
X01238Y00125*
X01237Y00125*
X01237Y00126*
X01237Y00126*
X01237Y00126*
X01237Y00126*
X01236Y00127*
X01236Y00127*
X01236Y00127*
Y00127*
X01236Y00127*
X01236Y00128*
X01236Y00129*
X01236Y0013*
X01236Y0013*
X01236Y0013*
Y00131*
X01236Y00131*
Y00131*
Y00131*
Y00131*
Y00131*
X01236Y00132*
X01236Y00133*
X01236Y00134*
X01236Y00134*
X01236Y00134*
X01236Y00135*
X01236Y00135*
X01236Y00135*
X01236Y00135*
X01236Y00135*
X01236Y00135*
X01236Y00135*
Y00135*
X01237Y00136*
X01237Y00137*
X01237Y00137*
X01238Y00138*
X01238Y00138*
X01238Y00138*
X01238Y00138*
X01238Y00138*
X01238Y00139*
X01238Y00139*
X01238Y00139*
X01239Y00139*
X01239Y00139*
X0124Y0014*
X0124Y0014*
X01241Y0014*
X01241Y0014*
X01241Y0014*
X01241Y0014*
X01241Y00141*
X01241Y00141*
X01241*
X01242Y00141*
X01243Y00141*
X01243Y00141*
X01244Y00141*
X01245Y00141*
X01245Y00141*
X01245*
X01245Y00141*
X0125*
X01251Y00141*
G37*
G36*
X01259Y00141D02*
X01259Y00141D01*
X01259*
X01259Y00141*
X01259Y00141*
X01259Y00141*
X01259Y00141*
X01259Y00141*
X01259Y00141*
X01259Y00141*
X01259Y00141*
X01259Y00141*
Y00141*
Y00141*
Y0013*
Y00129*
Y00129*
Y00128*
Y00128*
Y00128*
Y00127*
Y00127*
Y00127*
Y00127*
Y00127*
Y00127*
Y00126*
Y00126*
X01259Y00125*
Y00125*
Y00125*
Y00125*
Y00125*
Y00125*
Y00125*
X0126Y00125*
X0126Y00125*
X0126Y00126*
X0126Y00126*
X0126Y00126*
X0126Y00126*
X0126Y00126*
X0126Y00127*
X01261Y00127*
X01261Y00127*
X01261Y00127*
X01261Y00127*
X01261Y00127*
X01261Y00127*
X01261Y00128*
X01261Y00128*
X01261Y00129*
X01262Y00129*
X01262Y00129*
X01262Y00129*
X01262Y00129*
X01262Y0013*
X01262Y0013*
X01262Y0013*
X01262Y0013*
X01263Y0013*
X01263Y00131*
X01263Y00131*
X01267Y0014*
X01268Y0014*
X01268Y0014*
X01268Y0014*
X01268Y0014*
X01268Y0014*
Y0014*
X01268Y00141*
X01268Y00141*
X01268Y00141*
X01268Y00141*
X01268*
X01269Y00141*
X01269Y00141*
X01269Y00141*
X01269Y00141*
X01269*
X01269Y00141*
X01269Y00141*
X01271*
X01271Y00141*
X01272Y00141*
X01272Y00141*
X01272Y00141*
X01272Y00141*
X01272Y00141*
X01272Y00141*
X01272Y00141*
X01272Y0014*
X01272Y0014*
X01272Y0014*
Y0014*
Y0014*
Y00121*
X01272Y00121*
X01272Y00121*
Y00121*
X01272Y00121*
X01272Y00121*
X01272Y00121*
X01272*
X01272Y00121*
X01272Y00121*
X01272Y00121*
X01272*
X01271Y00121*
X01271Y00121*
X01271*
X0127Y00121*
X0127Y00121*
X0127*
X0127Y00121*
X0127Y00121*
X0127Y00121*
X0127*
X0127Y00121*
X0127Y00121*
X0127Y00121*
X0127Y00121*
X01269Y00121*
X01269Y00121*
Y00121*
Y00121*
Y00134*
Y00134*
Y00134*
Y00135*
Y00135*
X01269Y00135*
Y00136*
Y00136*
Y00136*
Y00136*
Y00136*
Y00137*
X0127Y00137*
Y00137*
Y00138*
X0127Y00138*
Y00138*
Y00138*
X01269*
X01269Y00138*
X01269Y00137*
X01269Y00137*
X01269Y00137*
X01269Y00136*
X01269Y00136*
X01269Y00136*
X01268Y00136*
X01268Y00136*
X01268Y00135*
X01268Y00135*
X01268Y00135*
X01268Y00135*
X01268Y00134*
X01268Y00134*
X01261Y00123*
X01261Y00123*
X01261Y00122*
X01261Y00122*
X01261Y00122*
X01261Y00122*
X01261Y00122*
X01261Y00122*
X01261Y00122*
X01261Y00122*
X0126Y00121*
X0126Y00121*
X0126Y00121*
X0126Y00121*
X0126Y00121*
X0126Y00121*
X0126Y00121*
X0126*
X01259Y00121*
X01259Y00121*
X01258*
X01258Y00121*
X01258Y00121*
X01258*
X01257Y00121*
X01257Y00121*
X01257Y00121*
X01257Y00121*
X01257Y00121*
X01257Y00121*
X01257Y00121*
X01257Y00121*
X01257Y00122*
X01257Y00122*
X01257Y00122*
Y00122*
Y00122*
Y00141*
Y00141*
X01257Y00141*
X01257Y00141*
X01257Y00141*
X01257Y00141*
X01257Y00141*
X01257Y00141*
X01257*
X01257Y00141*
X01257Y00141*
X01257Y00141*
X01257*
X01258Y00141*
X01258Y00141*
X01258*
X01259Y00141*
G37*
G36*
X0144Y00041D02*
X01441Y00041D01*
X01442Y00041*
X01442Y00041*
X01442Y00041*
X01442Y00041*
X01443Y00041*
X01443Y00041*
X01443Y0004*
X01443Y0004*
X01443Y0004*
X01443Y0004*
X01443*
X01444Y0004*
X01445Y0004*
X01445Y00039*
X01446Y00039*
X01446Y00039*
X01446Y00039*
X01446Y00038*
X01446Y00038*
X01446Y00038*
X01447Y00038*
X01447Y00038*
X01447Y00038*
X01447Y00037*
X01448Y00037*
X01448Y00036*
X01448Y00036*
X01448Y00035*
X01448Y00035*
X01449Y00035*
X01449Y00035*
X01449Y00035*
Y00035*
X01449Y00034*
X01449Y00033*
X01449Y00033*
X01449Y00032*
X01449Y00032*
Y00031*
X01449Y00031*
X01449Y00031*
Y00031*
Y00031*
Y0003*
Y0003*
X01449Y0003*
X01449Y00029*
X01449Y00028*
X01449Y00028*
X01449Y00027*
X01449Y00027*
X01449Y00027*
X01449Y00027*
X01449Y00027*
X01449Y00026*
X01449Y00026*
X01449Y00026*
Y00026*
X01448Y00026*
X01448Y00025*
X01448Y00024*
X01447Y00024*
X01447Y00023*
X01447Y00023*
X01447Y00023*
X01447Y00023*
X01447Y00023*
X01447Y00023*
X01447Y00023*
X01446Y00023*
X01446Y00022*
X01445Y00022*
X01445Y00021*
X01444Y00021*
X01444Y00021*
X01444Y00021*
X01444Y00021*
X01444Y00021*
X01444Y00021*
X01444*
X01443Y00021*
X01442Y0002*
X01441Y0002*
X01441Y0002*
X0144Y0002*
X0144*
X0144Y0002*
X0144Y0002*
X01439*
X01439Y0002*
X01438*
X01438Y0002*
X01438Y0002*
X01438*
X01438Y0002*
X01438*
X01437Y0002*
X01437Y0002*
X01437Y0002*
X01436Y0002*
X01436Y00021*
X01436Y00021*
X01436*
X01436Y00021*
X01435Y00021*
X01435Y00021*
X01435Y00021*
X01435Y00021*
X01435Y00021*
X01435*
X01434Y00021*
X01434Y00021*
X01434Y00021*
X01434Y00021*
X01434Y00021*
X01434Y00021*
X01434Y00021*
X01434*
X01433Y00022*
X01433Y00022*
X01433Y00022*
X01433Y00022*
X01433Y00022*
X01433Y00022*
Y00022*
X01433Y00022*
X01433Y00022*
X01433Y00023*
Y00023*
Y00023*
Y00023*
Y00031*
X01433Y00031*
X01433Y00031*
X01433Y00031*
X01433Y00031*
X01433Y00031*
X01433Y00031*
X01433Y00031*
X01433Y00031*
X01433Y00031*
X01433Y00031*
X01433Y00032*
X01433Y00032*
X01434Y00032*
X01434Y00032*
X0144*
X0144Y00032*
X0144Y00032*
X0144Y00032*
X01441Y00031*
X01441Y00031*
X01441Y00031*
X01441Y00031*
X01441Y00031*
X01441Y00031*
Y00031*
X01441Y00031*
Y00031*
Y00031*
Y00031*
Y0003*
Y0003*
X01441Y0003*
X01441Y0003*
X01441Y0003*
Y0003*
X01441Y0003*
X01441Y0003*
Y0003*
X0144Y00029*
X0144Y00029*
X0144Y00029*
X01435*
Y00023*
X01436Y00023*
X01436Y00023*
X01437Y00023*
X01437Y00023*
X01437Y00023*
X01437Y00023*
X01437*
X01438Y00023*
X01438Y00023*
X01439Y00023*
X01439*
X01439Y00023*
X01439*
X0144Y00023*
X0144Y00023*
X01441Y00023*
X01441Y00023*
X01442Y00023*
X01442Y00023*
X01442Y00023*
X01442Y00023*
X01442Y00023*
X01442Y00023*
X01442*
X01443Y00023*
X01443Y00024*
X01443Y00024*
X01444Y00024*
X01444Y00024*
X01444Y00024*
X01444Y00025*
X01444Y00025*
X01445Y00025*
X01445Y00025*
X01445Y00026*
X01446Y00026*
X01446Y00027*
X01446Y00027*
X01446Y00027*
X01446Y00027*
X01446Y00027*
Y00027*
X01446Y00028*
X01446Y00028*
X01446Y00029*
X01446Y00029*
X01446Y0003*
X01446Y0003*
Y0003*
X01446Y0003*
Y0003*
Y00031*
Y00031*
Y00031*
X01446Y00031*
X01446Y00032*
X01446Y00032*
X01446Y00033*
X01446Y00033*
X01446Y00034*
X01446Y00034*
X01446Y00034*
X01446Y00034*
X01446Y00034*
Y00034*
X01446Y00034*
X01446Y00035*
X01445Y00035*
X01445Y00036*
X01445Y00036*
X01445Y00036*
X01445Y00036*
X01445Y00036*
X01444Y00037*
X01444Y00037*
X01443Y00038*
X01443Y00038*
X01443Y00038*
X01443Y00038*
X01442Y00038*
X01442Y00038*
X01442Y00038*
X01442*
X01442Y00038*
X01441Y00039*
X01441Y00039*
X0144Y00039*
X0144Y00039*
X0144*
X0144Y00039*
X01439*
X01439Y00039*
X01438Y00039*
X01438Y00039*
X01437Y00039*
X01437Y00039*
X01437Y00039*
X01437Y00039*
X01437Y00038*
X01436Y00038*
X01436Y00038*
X01436Y00038*
X01436Y00038*
X01435Y00038*
X01435Y00038*
X01435Y00038*
X01435Y00038*
X01435Y00038*
X01435Y00038*
X01434Y00037*
X01434Y00037*
X01434Y00037*
X01434Y00037*
X01434Y00037*
X01434Y00037*
X01434Y00037*
X01434Y00037*
X01433Y00037*
X01433Y00037*
X01433*
X01433Y00037*
X01433Y00037*
X01433*
X01433Y00037*
X01433Y00037*
X01433Y00037*
Y00037*
X01433Y00037*
X01433Y00037*
X01433Y00038*
Y00038*
X01433Y00038*
X01433Y00038*
Y00038*
Y00038*
Y00038*
X01433Y00038*
X01433Y00039*
X01433Y00039*
Y00039*
X01433Y00039*
X01433Y00039*
X01433Y00039*
X01433Y00039*
X01433Y00039*
X01433Y00039*
X01433Y00039*
X01434Y0004*
X01434Y0004*
X01434Y0004*
X01434Y0004*
X01434Y0004*
X01434Y0004*
X01435Y0004*
X01435Y0004*
X01435Y0004*
X01435Y0004*
X01435Y0004*
X01435*
X01436Y00041*
X01436Y00041*
X01436Y00041*
X01437Y00041*
X01437Y00041*
X01437Y00041*
X01437*
X01438Y00041*
X01438Y00041*
X01438Y00041*
X01439Y00041*
X01439*
X0144Y00041*
G37*
G36*
X01406Y00041D02*
X01406Y00041D01*
X01407Y00041*
X01407Y00041*
X01407*
X01407Y0004*
X01407Y0004*
X01407Y0004*
X01407Y0004*
X01407Y0004*
Y0004*
Y0004*
Y00022*
X01407Y00021*
X01407Y00021*
X01407Y00021*
X01407Y00021*
X01407Y00021*
X01407Y00021*
X01407Y00021*
X01407Y00021*
X01406Y00021*
X01406Y0002*
X01406Y0002*
X01402*
X01401Y0002*
X014Y00021*
X01399Y00021*
X01399Y00021*
X01399Y00021*
X01398Y00021*
X01398Y00021*
X01398Y00021*
X01398Y00021*
X01397Y00021*
X01397Y00021*
X01397Y00021*
X01397Y00021*
X01397*
X01396Y00021*
X01396Y00022*
X01395Y00022*
X01395Y00022*
X01394Y00023*
X01394Y00023*
X01394Y00023*
X01394Y00023*
X01394Y00023*
X01394Y00023*
X01394Y00023*
X01393Y00024*
X01393Y00024*
X01393Y00025*
X01392Y00025*
X01392Y00026*
X01392Y00026*
X01392Y00026*
X01392Y00026*
X01392Y00026*
X01392Y00026*
Y00026*
X01392Y00027*
X01391Y00028*
X01391Y00029*
X01391Y00029*
X01391Y0003*
X01391Y0003*
Y0003*
X01391Y00031*
Y00031*
Y00031*
Y00031*
Y00031*
X01391Y00032*
X01391Y00033*
X01391Y00033*
X01391Y00034*
X01392Y00034*
X01392Y00034*
X01392Y00034*
X01392Y00035*
X01392Y00035*
X01392Y00035*
X01392Y00035*
X01392Y00035*
Y00035*
X01392Y00036*
X01392Y00036*
X01393Y00037*
X01393Y00037*
X01393Y00038*
X01393Y00038*
X01394Y00038*
X01394Y00038*
X01394Y00038*
X01394Y00038*
X01394Y00038*
X01394Y00039*
X01395Y00039*
X01395Y00039*
X01396Y0004*
X01396Y0004*
X01396Y0004*
X01396Y0004*
X01397Y0004*
X01397Y0004*
X01397Y0004*
X01397*
X01397Y0004*
X01398Y00041*
X01399Y00041*
X014Y00041*
X014Y00041*
X014Y00041*
X01401*
X01401Y00041*
X01406*
X01406Y00041*
G37*
G36*
X01414Y00041D02*
X01414Y00041D01*
X01414*
X01414Y00041*
X01415Y00041*
X01415Y00041*
X01415Y00041*
X01415Y00041*
X01415Y00041*
X01415Y00041*
X01415Y00041*
X01415Y0004*
Y0004*
Y0004*
Y00029*
Y00029*
Y00028*
Y00028*
Y00028*
Y00027*
Y00027*
Y00027*
Y00027*
Y00027*
Y00027*
Y00026*
Y00026*
Y00025*
X01415Y00025*
Y00025*
Y00024*
Y00024*
Y00024*
Y00024*
Y00024*
X01415Y00025*
X01415Y00025*
X01415Y00025*
X01416Y00025*
X01416Y00025*
X01416Y00026*
X01416Y00026*
X01416Y00026*
X01416Y00026*
X01416Y00027*
X01416Y00027*
X01416Y00027*
X01416Y00027*
X01416Y00027*
X01417Y00028*
X01417Y00028*
X01417Y00028*
X01417Y00028*
X01417Y00029*
X01417Y00029*
X01417Y00029*
X01418Y00029*
X01418Y00029*
X01418Y0003*
X01418Y0003*
X01418Y0003*
X01418Y0003*
X01418Y0003*
X01423Y00039*
X01423Y0004*
X01423Y0004*
X01423Y0004*
X01423Y0004*
X01423Y0004*
Y0004*
X01424Y0004*
X01424Y0004*
X01424Y0004*
X01424Y0004*
X01424*
X01424Y00041*
X01424Y00041*
X01424Y00041*
X01424Y00041*
X01424*
X01425Y00041*
X01425Y00041*
X01427*
X01427Y00041*
X01427Y00041*
X01427Y00041*
X01427Y00041*
X01427Y00041*
X01427Y00041*
X01427Y0004*
X01428Y0004*
X01428Y0004*
X01428Y0004*
X01428Y0004*
Y0004*
Y0004*
Y00021*
X01428Y00021*
X01428Y00021*
Y00021*
X01428Y00021*
X01427Y00021*
X01427Y0002*
X01427*
X01427Y0002*
X01427Y0002*
X01427Y0002*
X01427*
X01427Y0002*
X01427Y0002*
X01426*
X01426Y0002*
X01426Y0002*
X01426*
X01426Y0002*
X01425Y0002*
X01425Y0002*
X01425*
X01425Y00021*
X01425Y00021*
X01425Y00021*
X01425Y00021*
X01425Y00021*
X01425Y00021*
Y00021*
Y00021*
Y00033*
Y00034*
Y00034*
Y00034*
Y00035*
X01425Y00035*
Y00035*
Y00035*
Y00035*
Y00035*
Y00036*
Y00036*
X01425Y00037*
Y00037*
Y00037*
X01425Y00038*
Y00038*
Y00038*
X01425*
X01425Y00037*
X01425Y00037*
X01424Y00037*
X01424Y00036*
X01424Y00036*
X01424Y00036*
X01424Y00036*
X01424Y00036*
X01424Y00035*
X01424Y00035*
X01423Y00035*
X01423Y00034*
X01423Y00034*
X01423Y00034*
X01423Y00034*
X01417Y00022*
X01417Y00022*
X01417Y00022*
X01417Y00022*
X01416Y00022*
X01416Y00022*
X01416Y00021*
X01416Y00021*
X01416Y00021*
X01416Y00021*
X01416Y00021*
X01416Y00021*
X01416Y00021*
X01416Y00021*
X01415Y00021*
X01415Y00021*
X01415Y0002*
X01415*
X01415Y0002*
X01415Y0002*
X01413*
X01413Y0002*
X01413Y0002*
X01413*
X01413Y00021*
X01413Y00021*
X01413Y00021*
X01413Y00021*
X01413Y00021*
X01412Y00021*
X01412Y00021*
X01412Y00021*
X01412Y00021*
X01412Y00021*
X01412Y00022*
Y00022*
Y00022*
Y0004*
Y0004*
X01412Y00041*
X01412Y00041*
X01412Y00041*
X01412Y00041*
X01413Y00041*
X01413Y00041*
X01413*
X01413Y00041*
X01413Y00041*
X01413Y00041*
X01413*
X01413Y00041*
X01413Y00041*
X01414*
X01414Y00041*
G37*
%LNlebot-2*%
%LPC*%
G36*
X01298Y00288D02*
X01295D01*
X01295Y00288*
X01295Y00288*
X01295*
X01294Y00288*
X01294Y00288*
X01294Y00288*
X01294*
X01294Y00288*
X01294Y00288*
X01293Y00288*
X01293Y00288*
X01293Y00288*
X01293Y00288*
X01293Y00288*
X01293Y00288*
X01292Y00288*
X01292Y00287*
X01292Y00287*
X01292Y00287*
X01292Y00287*
X01292Y00287*
X01292Y00287*
X01291Y00287*
X01291Y00286*
X01291Y00286*
X01291Y00285*
X01291Y00285*
X01291Y00285*
X01291Y00285*
Y00284*
Y00284*
Y00284*
Y00284*
X01291Y00284*
X01291Y00284*
X01291Y00283*
X01291Y00283*
X01291Y00283*
X01291Y00283*
X01291Y00283*
X01291Y00282*
X01292Y00282*
X01292Y00282*
X01292Y00282*
X01292Y00282*
X01292Y00282*
X01292Y00281*
X01292Y00281*
X01292Y00281*
X01293Y00281*
X01293Y00281*
X01293Y00281*
X01293Y00281*
X01293Y00281*
X01293Y00281*
X01293Y00281*
X01294Y0028*
X01294Y0028*
X01295Y0028*
X01295Y0028*
X01295Y0028*
X01295Y0028*
X01298*
Y00288*
G37*
G36*
X01312Y00037D02*
X01309D01*
X01309Y00037*
X01309Y00037*
X01308*
X01308Y00037*
X01308Y00037*
X01308Y00037*
X01308*
X01308Y00037*
X01307Y00037*
X01307Y00037*
X01307Y00037*
X01307Y00037*
X01307Y00037*
X01306Y00037*
X01306Y00037*
X01306Y00037*
X01306Y00036*
X01306Y00036*
X01306Y00036*
X01305Y00036*
X01305Y00036*
X01305Y00036*
X01305Y00036*
X01305Y00035*
X01305Y00035*
X01305Y00035*
X01305Y00034*
X01305Y00034*
X01305Y00034*
Y00034*
Y00033*
Y00033*
Y00033*
X01305Y00033*
X01305Y00033*
X01305Y00032*
X01305Y00032*
X01305Y00032*
X01305Y00032*
X01305Y00032*
X01305Y00031*
X01305Y00031*
X01305Y00031*
X01306Y00031*
X01306Y00031*
X01306Y00031*
X01306Y0003*
X01306Y0003*
X01306Y0003*
X01306Y0003*
X01307Y0003*
X01307Y0003*
X01307Y0003*
X01307Y0003*
X01307Y0003*
X01307Y0003*
X01308Y00029*
X01308Y00029*
X01308Y00029*
X01309Y00029*
X01309Y00029*
X01309Y00029*
X01312*
Y00037*
G37*
G36*
X01249Y00139D02*
X01246D01*
X01245Y00139*
X01244Y00139*
X01244Y00139*
X01243Y00139*
X01243Y00139*
X01243Y00139*
X01243Y00139*
X01243Y00138*
X01243Y00138*
X01243Y00138*
X01243Y00138*
X01242*
X01242Y00138*
X01242Y00138*
X01241Y00138*
X01241Y00137*
X01241Y00137*
X0124Y00137*
X0124Y00137*
X0124Y00137*
X0124Y00136*
X0124Y00136*
X01239Y00136*
X01239Y00135*
X01239Y00135*
X01239Y00135*
X01239Y00134*
X01239Y00134*
X01239Y00134*
Y00134*
X01239Y00134*
X01239Y00133*
X01239Y00133*
X01239Y00132*
X01239Y00132*
X01239Y00132*
Y00131*
Y00131*
Y00131*
Y00131*
Y00131*
X01239Y0013*
X01239Y0013*
X01239Y00129*
X01239Y00129*
X01239Y00128*
X01239Y00128*
X01239Y00128*
X01239Y00128*
X01239Y00128*
X01239Y00128*
X01239Y00128*
Y00128*
X01239Y00127*
X01239Y00127*
X0124Y00126*
X0124Y00126*
X0124Y00125*
X0124Y00125*
X0124Y00125*
X0124Y00125*
X01241Y00125*
X01241Y00124*
X01241Y00124*
X01242Y00124*
X01242Y00124*
X01242Y00124*
X01242Y00124*
X01243Y00124*
X01243Y00124*
X01243*
X01243Y00123*
X01244Y00123*
X01244Y00123*
X01245Y00123*
X01245Y00123*
X01245*
X01246Y00123*
X01249*
Y00139*
G37*
G36*
X01404Y00039D02*
X01401D01*
X01401Y00039*
X014Y00038*
X01399Y00038*
X01399Y00038*
X01399Y00038*
X01399Y00038*
X01398Y00038*
X01398Y00038*
X01398Y00038*
X01398Y00038*
X01398Y00038*
X01398*
X01397Y00038*
X01397Y00037*
X01397Y00037*
X01396Y00037*
X01396Y00037*
X01396Y00037*
X01396Y00036*
X01396Y00036*
X01395Y00036*
X01395Y00036*
X01395Y00035*
X01395Y00035*
X01395Y00034*
X01395Y00034*
X01395Y00034*
X01394Y00034*
X01394Y00034*
Y00034*
X01394Y00033*
X01394Y00033*
X01394Y00032*
X01394Y00032*
X01394Y00031*
X01394Y00031*
Y00031*
Y00031*
Y00031*
Y00031*
Y00031*
X01394Y0003*
X01394Y00029*
X01394Y00029*
X01394Y00028*
X01394Y00028*
X01394Y00028*
X01394Y00028*
X01394Y00027*
X01394Y00027*
X01394Y00027*
X01395Y00027*
Y00027*
X01395Y00027*
X01395Y00026*
X01395Y00026*
X01395Y00025*
X01396Y00025*
X01396Y00025*
X01396Y00025*
X01396Y00025*
X01396Y00024*
X01397Y00024*
X01397Y00024*
X01397Y00024*
X01398Y00023*
X01398Y00023*
X01398Y00023*
X01398Y00023*
X01398Y00023*
X01398*
X01399Y00023*
X01399Y00023*
X014Y00023*
X014Y00023*
X01401Y00023*
X01401*
X01401Y00023*
X01404*
Y00039*
G37*
%LNlebot-3*%
%LPD*%
G54D11*
X01303Y00851D02*
Y00977D01*
X0111D02*
X01303D01*
X0111Y00851D02*
Y00977D01*
Y00851D02*
X01303D01*
X01308Y00777D02*
Y00837D01*
X01007Y0025D02*
X01133D01*
Y00442*
X01007D02*
X01133D01*
X01007Y0025D02*
Y00442D01*
X00934Y00244D02*
X00994D01*
X00934Y00496D02*
X00994D01*
X01007Y00509D02*
Y00702D01*
X01133*
Y00509D02*
Y00702D01*
X01007Y00509D02*
X01133D01*
X01727Y00533D02*
X01785D01*
X01995Y00528D02*
Y00586D01*
X01994Y01042D02*
Y011D01*
X00514Y00947D02*
X00549D01*
X00514Y01065D02*
X00549D01*
X00514Y00947D02*
Y01065D01*
X00549Y00947D02*
Y01065D01*
X00285Y00888D02*
X0034D01*
G54D14*
X00485Y00935D02*
D01*
X00485Y00935*
X00485Y00936*
X00485Y00936*
X00485Y00936*
X00484Y00937*
X00484Y00937*
X00484Y00937*
X00484Y00938*
X00484Y00938*
X00484Y00938*
X00483Y00939*
X00483Y00939*
X00483Y00939*
X00483Y00939*
X00482Y00939*
X00482Y0094*
X00482Y0094*
X00481Y0094*
X00481Y0094*
X00481Y0094*
X0048Y0094*
X0048Y0094*
X0048*
X00479Y0094*
X00479Y0094*
X00479Y0094*
X00478Y0094*
X00478Y0094*
X00478Y0094*
X00477Y00939*
X00477Y00939*
X00477Y00939*
X00477Y00939*
X00476Y00939*
X00476Y00938*
X00476Y00938*
X00476Y00938*
X00475Y00937*
X00475Y00937*
X00475Y00937*
X00475Y00936*
X00475Y00936*
X00475Y00936*
X00475Y00935*
X00475Y00935*
X00475Y00935*
X00475Y00934*
X00475Y00934*
X00475Y00934*
X00475Y00933*
X00475Y00933*
X00475Y00933*
X00476Y00932*
X00476Y00932*
X00476Y00932*
X00476Y00932*
X00477Y00931*
X00477Y00931*
X00477Y00931*
X00477Y00931*
X00478Y00931*
X00478Y00931*
X00478Y0093*
X00479Y0093*
X00479Y0093*
X00479Y0093*
X0048Y0093*
X0048*
X0048Y0093*
X00481Y0093*
X00481Y0093*
X00481Y0093*
X00482Y00931*
X00482Y00931*
X00482Y00931*
X00483Y00931*
X00483Y00931*
X00483Y00931*
X00483Y00932*
X00484Y00932*
X00484Y00932*
X00484Y00932*
X00484Y00933*
X00484Y00933*
X00484Y00933*
X00485Y00934*
X00485Y00934*
X00485Y00934*
X00485Y00935*
X00485Y00935*
M02*