%FSTAX23Y23*%
%MOIN*%
%SFA1B1*%

%IPPOS*%
%ADD17R,0.039370X0.043307*%
%ADD18R,0.041339X0.023622*%
%ADD19R,0.016929X0.013780*%
%ADD20R,0.043307X0.049212*%
%ADD21R,0.025984X0.013780*%
%ADD22R,0.080709X0.098425*%
%ADD23R,0.043307X0.055118*%
%ADD24R,0.043307X0.039370*%
%ADD25R,0.058071X0.023622*%
%ADD26R,0.023622X0.058071*%
%ADD27R,0.157480X0.157480*%
%ADD28R,0.051181X0.017716*%
%ADD29R,0.023622X0.048031*%
%ADD30R,0.049212X0.043307*%
%ADD31R,0.078740X0.039370*%
%ADD32R,0.078740X0.039370*%
%LNlebot-1*%
%LPD*%
G54D17*
X01553Y00922D03*
X01486D03*
X02161Y00833D03*
X02094D03*
X02163Y00891D03*
X02096D03*
X01692Y00392D03*
X01759D03*
X01693Y00447D03*
X0176D03*
X01751Y00313D03*
X01818D03*
X02054Y0032D03*
X02121D03*
X02054Y00375D03*
X02121D03*
X00653Y0096D03*
X0072D03*
X00653Y00909D03*
X0072D03*
X00564Y00812D03*
X00498D03*
X00564Y00871D03*
X00498D03*
X00566Y01059D03*
X005D03*
X00675Y00385D03*
X00608D03*
X00675Y00326D03*
X00608D03*
X00818Y00417D03*
X00885D03*
G54D18*
X01577Y00833D03*
X01491Y00796D03*
Y00871D03*
G54D19*
X01606Y0094D03*
Y00915D03*
Y00889D03*
X01679D03*
Y00915D03*
Y0094D03*
G54D20*
X01643Y00926D03*
X01403Y00369D03*
Y00461D03*
G54D21*
X01643Y00884D03*
G54D22*
X01181Y00796D03*
Y01056D03*
G54D23*
X01299Y00614D03*
X01358D03*
X01232Y00539D03*
X01173D03*
X01232Y00614D03*
X01173D03*
X01299Y00685D03*
X01358D03*
X01232D03*
X01173D03*
G54D24*
X00968Y00606D03*
Y00673D03*
X01551Y00393D03*
Y0046D03*
X01339Y00455D03*
Y00388D03*
X01606Y00458D03*
Y00391D03*
X02107Y00498D03*
Y00564D03*
X02052Y00498D03*
Y00564D03*
X02162D03*
Y00498D03*
X02117Y01002D03*
Y01069D03*
X02062Y01002D03*
Y01069D03*
X02169D03*
Y01002D03*
X00956Y00476D03*
Y00409D03*
G54D25*
X00896Y00543D03*
Y00574D03*
Y00606D03*
Y00637D03*
Y00669D03*
Y007D03*
Y00732D03*
Y00763D03*
X00562D03*
Y00732D03*
Y007D03*
Y00669D03*
Y00637D03*
Y00606D03*
Y00574D03*
Y00543D03*
G54D26*
X0084Y0082D03*
X00808D03*
X00777D03*
X00745D03*
X00714D03*
X00682D03*
X00651D03*
X00619D03*
Y00486D03*
X00651D03*
X00682D03*
X00714D03*
X00745D03*
X00777D03*
X00808D03*
X0084D03*
G54D27*
X01767Y00141D03*
X01558Y00139D03*
X02291Y00479D03*
X02292Y00267D03*
X02291Y00983D03*
X02295Y00795D03*
X01649Y01051D03*
X01464D03*
G54D28*
X00228Y0094D03*
Y00915D03*
Y00889D03*
Y00863D03*
Y00838D03*
G54D29*
X00345Y00754D03*
X00382D03*
X00419D03*
Y00857D03*
X00382D03*
X00345D03*
G54D30*
X00433Y01059D03*
X0034D03*
X00551Y00387D03*
X00458D03*
X00551Y00326D03*
X00458D03*
G54D31*
X00106Y00652D03*
X00342D03*
G54D32*
X00106Y00495D03*
X00342D03*
M02*