M48
;Layer_Color=9474304
;FILE_FORMAT=2:5
INCH,LZ
;TYPE=PLATED
T1F00S00C0.01181
T3F00S00C0.02362
T4F00S00C0.02953
T5F00S00C0.03150
T6F00S00C0.03346
;TYPE=NON_PLATED
T8F00S00C0.06102
T9F00S00C0.08661
%
T01
X0214621Y0006201
X0220276Y0009744
X0224457Y001378
X0230709Y0014173
X0228937Y0021752
X0229232Y0026772
X0228839Y0031693
X0224457Y0029331
X0224508Y0023425
X023376Y0023524
X0233858Y0029724
X0233661Y0044685
X023376Y0050886
X022874Y0052854
X0229134Y0047933
X0228839Y0042913
X022441Y0044587
X0224358Y0050492
X0216535Y0044783
X0218701Y0037894
X021998Y0061516
X021624Y0060827
X0212614Y0061614
X0224803Y0066634
X0224902Y0076575
X0225Y0082776
X0229823Y0084547
X0229528Y0079528
X0229921Y0074606
X0234303Y0076968
X0234252Y0082874
X0219291Y0089173
X0230709Y0061417
X0209154Y0060827
X0205118Y0061221
X0200787Y0062008
X0196457Y0065256
X0196591Y0068405
X0196457Y0071555
Y0074705
X0201575Y0078642
X0205118
X0208661
X0198721Y0087697
X0168799Y0086221
X0165157Y0086122
X0163386Y0083602
X0166929
X0170472
X0156496Y0079429
X0142224Y0079035
X0135236Y0078347
X0139567Y0072835
X0139941Y0052658
X0143405Y0052811
X0147173Y0051181
X0147054Y0047449
X0147153Y0043906
X0164567Y0041732
X0164961Y0046457
X0164272Y0036496
X0158169Y003376
X0165059Y0027756
X0158661Y0018799
X0152461Y0018898
X0150492Y0013878
X0155413Y0014272
X0160433Y0013976
X015876Y0009547
X0152854Y0009496
X0144291Y0014614
Y0022343
X0138681Y0027756
X013563Y0026476
X0132579Y002815
X0137992Y0031791
X0136417Y0052811
X0132972Y0052756
X0127461Y0050197
X0113779Y0047209
X0113386Y0042618
X0101969Y0042126
X0101575Y0037402
X01Y0046457
X0091732Y0041339
X0085827Y0034941
X0084646Y0029232
X0087008Y0050394
X0080858Y0054003
X0076357Y0054175
X0072441Y0056693
X0068504Y0055905
X0063779Y0054331
X0064567Y006063
X0061961Y0063386
X0063158Y0070079
X0066142Y0067323
X0065748Y0073228
X0067598Y0077165
X0061961
X0069685Y0087402
X0087402Y0082677
X0080709Y0070473
Y0059842
X0101575Y0068504
X0112598Y0069291
X0112922Y0074073
X01125Y0061221
Y005374
X0111417Y0026209
X0118701Y0018504
X010187Y0012992
X0069685Y0010433
X0058661Y0046457
X005748Y005
X0181398Y0047244
X0180787Y0043701
X0183268Y0040256
X0181201Y0036713
X0183957Y003435
X0179996Y0018701
X0173795Y0018799
X0171827Y001378
X0176748Y0014173
X0181768Y0013878
X0180095Y0009449
X0174189Y0009398
X0193307Y000692
X0196949Y001437
X0197083Y001752
X0196949Y0020669
Y0023819
X0201673Y0027213
X0205217
X020876
X0201181Y0038287
X0200689Y004813
X0206004Y0044685
X0211614Y004439
X0204528Y0006004
X0042579Y0008268
X0041732Y0031496
X0042126Y0038976
X0039862Y0049508
X0040551Y0064862
X0038118Y0075295
Y008248
X0022933Y008061
X0017869Y0083661
X0011024Y0084252
X000748Y0059744
X0020857Y0056988
X001687Y0049508
X0010531Y0042421
X0009252Y003563
X0007776Y0022343
X0029331Y0072273
X0049606Y0069628
Y0076772
X0049764Y0091339
X0044094Y0100394
X0034055Y011063
X001063Y0094095
X0056348Y0091634
X0065748Y01
Y0103543
X0072047Y01
X0101181Y0096988
X010748
X0112992Y0096988
X0118504Y009685
X0111811Y010748
X0112598Y011063
X0109449Y0109843
X0100787Y0108661
X0135039Y0106831
X0142126Y0106437
X014685Y0106299
X0146457Y0101969
X0151181Y0100646
X0151575Y0106299
X0149213Y011063
X0144488
X0176772Y0109744
X0177559Y009685
X018937
X0201083Y0095669
X0206988Y0094095
X0211516Y0094193
X0209252Y0113345
X0205512Y01125
X0195275Y0108661
X0212795Y0112795
X021624Y0113779
X0220866Y0112598
X0230217Y0110728
X0228764Y0103248
X0229157Y0098327
X0228862Y0093307
X0224433Y009498
X0224382Y0100886
X0233784Y0101279
X0233685Y0095079
X0216535Y0094488
T03
X0130728Y0008366
X0135728
X0140728
X0127067Y0018012
Y0023012
X003687Y003248
Y003748
X003187
Y003248
X002687
Y003748
X002187
Y003248
X001687
Y003748
T04
X0153642Y0062992
X0163484
X0187402Y0060236
Y0050394
X0182677Y0084252
X019252
T05
X0018366Y0079307
Y0098992
T06
X0062598Y0009449
X0057598Y0019449
X0067598
X0091063
X0101063
X0096063Y0009449
X0086063
X0052598
X0029803
X0019803
X0024803Y0019449
X0034803
T08
X0080551Y0016535
X0047087
X0014291
T09
X0114173Y0007874
X007874Y0110236
X0185039
M30
