G04*
G04 #@! TF.GenerationSoftware,Altium Limited,Altium Designer,18.1.9 (240)*
G04*
G04 Layer_Physical_Order=1*
G04 Layer_Color=255*
%FSLAX44Y44*%
%MOMM*%
G71*
G01*
G75*
%ADD12C,0.4000*%
%ADD16C,0.2540*%
%ADD17R,1.0000X1.1000*%
%ADD18R,1.0500X0.6000*%
%ADD19R,0.4300X0.3500*%
%ADD20R,1.1000X1.2500*%
%ADD21R,0.6600X0.3500*%
%ADD22R,2.0500X2.5000*%
%ADD23R,1.1000X1.4000*%
%ADD24R,1.1000X1.0000*%
%ADD25R,1.4750X0.6000*%
%ADD26R,0.6000X1.4750*%
%ADD27R,4.0000X4.0000*%
%ADD28R,1.3000X0.4500*%
%ADD29R,0.6000X1.2200*%
%ADD30R,1.2500X1.1000*%
%ADD31R,2.0000X1.0000*%
%ADD32R,2.0000X1.0000*%
%ADD61C,1.5000*%
%ADD62C,1.0000*%
%ADD63C,0.6000*%
%ADD64C,0.5000*%
%ADD65C,2.0000*%
%ADD66C,0.3000*%
%ADD67C,0.8000*%
%ADD68R,1.3580X1.3580*%
%ADD69C,1.3580*%
%ADD70C,1.5500*%
%ADD71R,1.1500X1.1500*%
%ADD72C,1.1500*%
%ADD73R,1.1500X1.1500*%
%ADD74O,2.0000X1.4500*%
%ADD75O,1.8000X1.1500*%
%ADD76C,1.0000*%
%ADD77R,1.0000X1.0000*%
%ADD78R,1.0000X1.0000*%
%ADD79C,0.7000*%
G36*
X607750Y275750D02*
Y28000D01*
X587500Y7750D01*
X297477D01*
X297045Y9020D01*
X299272Y10728D01*
X301355Y13444D01*
X302665Y16606D01*
X303112Y20000D01*
X302665Y23394D01*
X301355Y26556D01*
X299272Y29272D01*
X296556Y31356D01*
X293394Y32665D01*
X290000Y33112D01*
X286606Y32665D01*
X283444Y31356D01*
X280728Y29272D01*
X278645Y26556D01*
X278520Y26256D01*
X277250Y26508D01*
Y178000D01*
X228250Y227000D01*
Y269750D01*
X244250Y285750D01*
X249750Y291250D01*
X461331D01*
X461739Y290047D01*
X460728Y289272D01*
X458644Y286556D01*
X457335Y283394D01*
X456888Y280000D01*
X457335Y276606D01*
X458644Y273444D01*
X460728Y270728D01*
X463444Y268645D01*
X466606Y267335D01*
X470000Y266888D01*
X473394Y267335D01*
X476556Y268645D01*
X479272Y270728D01*
X481356Y273444D01*
X482665Y276606D01*
X483112Y280000D01*
X482665Y283394D01*
X481356Y286556D01*
X479272Y289272D01*
X478261Y290047D01*
X478669Y291250D01*
X518046D01*
X518431Y289980D01*
X518035Y289715D01*
X516819Y287896D01*
X516392Y285750D01*
X516819Y283604D01*
X518035Y281785D01*
X518666Y281363D01*
Y278750D01*
X516500D01*
Y264750D01*
X531500D01*
Y264750D01*
X543500D01*
Y264750D01*
X558500D01*
Y278750D01*
X552584D01*
Y284613D01*
X553215Y285035D01*
X554431Y286854D01*
X554858Y289000D01*
X554663Y289980D01*
X555705Y291250D01*
X592250D01*
X607750Y275750D01*
D02*
G37*
G36*
X190750Y254293D02*
X226500Y218250D01*
X254243Y190507D01*
X253757Y189334D01*
X237135D01*
Y199000D01*
X219648D01*
X218385Y199005D01*
X218380Y200268D01*
Y217755D01*
X174880D01*
Y208380D01*
Y199005D01*
X194046D01*
Y190761D01*
X174800Y171515D01*
X173422Y171933D01*
X173181Y173146D01*
X171965Y174965D01*
X170146Y176181D01*
X168000Y176608D01*
X167007Y176410D01*
X165927Y177490D01*
X166028Y178000D01*
X165761Y179344D01*
X166825Y180427D01*
X167000Y180392D01*
X169146Y180819D01*
X170965Y182035D01*
X172181Y183854D01*
X172608Y186000D01*
X172181Y188146D01*
X170965Y189965D01*
X169146Y191181D01*
X167000Y191608D01*
X164854Y191181D01*
X163035Y189965D01*
X162613Y189334D01*
X152375D01*
Y197737D01*
X152380Y199000D01*
X153643Y199005D01*
X155880D01*
Y206880D01*
X152380D01*
Y200268D01*
X152380Y200141D01*
X151107Y199531D01*
X150500Y200016D01*
Y212550D01*
X150500Y213820D01*
X150500D01*
Y213820D01*
X150500D01*
Y228820D01*
X148461D01*
X147862Y229940D01*
X148306Y230604D01*
X148733Y232750D01*
X148306Y234896D01*
X147090Y236715D01*
X145271Y237931D01*
X143125Y238358D01*
X140979Y237931D01*
X139160Y236715D01*
X137944Y234896D01*
X137517Y232750D01*
X137944Y230604D01*
X138287Y230090D01*
X137609Y228820D01*
X136500D01*
Y213820D01*
X136500D01*
Y213820D01*
X136500D01*
Y199000D01*
X134770D01*
X133625Y199000D01*
X133500Y200218D01*
Y204820D01*
X128000D01*
Y198820D01*
X132355D01*
X133500Y198820D01*
X133625Y197602D01*
Y189000D01*
Y181000D01*
Y173000D01*
Y165334D01*
X124302D01*
X109984Y179652D01*
Y183445D01*
X111650D01*
Y199645D01*
X107490D01*
X103277Y203858D01*
X102195Y204580D01*
X101636Y204692D01*
X101147Y206076D01*
X102001Y207354D01*
X102428Y209500D01*
X102547Y209645D01*
X111650D01*
Y225845D01*
X102248D01*
Y228100D01*
X102135Y228668D01*
X102310Y230000D01*
X102070Y231827D01*
X101364Y233530D01*
X100242Y234993D01*
X98993Y236243D01*
X97530Y237365D01*
X95827Y238070D01*
X94000Y238310D01*
X83174D01*
X74742Y246742D01*
X73280Y247864D01*
X71577Y248570D01*
X69750Y248810D01*
X57000D01*
X55173Y248570D01*
X53470Y247864D01*
X52515Y247132D01*
X51575Y248012D01*
X52302Y249099D01*
X52768Y251440D01*
X52389Y253344D01*
X53078Y254312D01*
X53350Y254498D01*
X54400Y254360D01*
X59900D01*
X62315Y254678D01*
X64565Y255610D01*
X66497Y257093D01*
X67980Y259025D01*
X68912Y261275D01*
X69230Y263690D01*
X68912Y266105D01*
X67980Y268355D01*
X66497Y270287D01*
X64565Y271770D01*
X62315Y272702D01*
X59900Y273020D01*
X54400D01*
X51985Y272702D01*
X49735Y271770D01*
X47803Y270287D01*
X46320Y268355D01*
X45388Y266105D01*
X45070Y263690D01*
X45388Y261275D01*
X46320Y259025D01*
X46506Y258783D01*
X45952Y257419D01*
X44309Y257092D01*
X42324Y255766D01*
X40998Y253781D01*
X40532Y251440D01*
X40998Y249099D01*
X42324Y247114D01*
X44309Y245788D01*
X46650Y245322D01*
X48991Y245788D01*
X50394Y246725D01*
X51273Y245786D01*
X50886Y245280D01*
X50180Y243577D01*
X50129Y243190D01*
X49650D01*
Y234690D01*
Y228190D01*
Y221690D01*
Y215190D01*
Y214440D01*
X58150D01*
X66650D01*
Y220089D01*
X67920Y220615D01*
X72666Y215869D01*
Y207500D01*
X72920Y206224D01*
X73643Y205142D01*
X82650Y196135D01*
Y183445D01*
X84426D01*
X84570Y182724D01*
X85293Y181642D01*
X88042Y178892D01*
X89124Y178170D01*
X90400Y177916D01*
X95869D01*
X102276Y171509D01*
X101858Y170131D01*
X100854Y169931D01*
X100270Y169541D01*
X99000Y170219D01*
Y172750D01*
X75000D01*
Y169084D01*
X39000D01*
Y172750D01*
X15000D01*
Y158750D01*
X39000D01*
Y162416D01*
X75000D01*
Y158750D01*
X99000D01*
Y159281D01*
X100270Y159959D01*
X100854Y159569D01*
X103000Y159142D01*
X105146Y159569D01*
X106965Y160785D01*
X108181Y162604D01*
X108381Y163608D01*
X109759Y164026D01*
X122142Y151643D01*
X123224Y150920D01*
X124500Y150666D01*
X133625D01*
Y147476D01*
X132995Y147350D01*
X131913Y146628D01*
X131369Y146084D01*
X75250D01*
X73974Y145830D01*
X72892Y145107D01*
X48393Y120608D01*
X47670Y119526D01*
X47416Y118250D01*
Y104481D01*
X44873Y101939D01*
X44677Y102020D01*
X42850Y102260D01*
X41023Y102020D01*
X39320Y101314D01*
X37858Y100192D01*
X36735Y98730D01*
X36030Y97027D01*
X35790Y95200D01*
X36030Y93373D01*
X36735Y91670D01*
X37426Y90770D01*
X36800Y89500D01*
X35850D01*
Y75500D01*
X49850D01*
Y76450D01*
X51120Y77076D01*
X52020Y76385D01*
X53723Y75680D01*
X54050Y75637D01*
Y82500D01*
X57050D01*
Y75637D01*
X57377Y75680D01*
X59080Y76385D01*
X60542Y77508D01*
X61113Y78252D01*
X62687D01*
X63258Y77508D01*
X64720Y76385D01*
X66423Y75680D01*
X66750Y75637D01*
Y82500D01*
X69750D01*
Y75637D01*
X70077Y75680D01*
X71780Y76385D01*
X73242Y77508D01*
X73813Y78252D01*
X75387D01*
X75958Y77508D01*
X77420Y76385D01*
X79123Y75680D01*
X80950Y75440D01*
X82777Y75680D01*
X84480Y76385D01*
X85942Y77508D01*
X86513Y78252D01*
X88087D01*
X88658Y77508D01*
X90120Y76385D01*
X91823Y75680D01*
X92150Y75637D01*
Y82500D01*
X93650D01*
Y84000D01*
X100513D01*
X100470Y84327D01*
X99764Y86030D01*
X98642Y87493D01*
X97899Y88063D01*
Y89637D01*
X98642Y90208D01*
X99764Y91670D01*
X100470Y93373D01*
X100710Y95200D01*
X100470Y97027D01*
X99764Y98730D01*
X98642Y100192D01*
X97180Y101314D01*
X95477Y102020D01*
X93650Y102260D01*
X91823Y102020D01*
X90120Y101314D01*
X88658Y100192D01*
X88087Y99448D01*
X86513D01*
X85942Y100192D01*
X84480Y101314D01*
X82777Y102020D01*
X80950Y102260D01*
X79305Y102044D01*
X78963Y102423D01*
X78658Y103193D01*
X82131Y106666D01*
X107339D01*
X108250Y105800D01*
X108250Y105396D01*
Y99800D01*
X116500D01*
X124750D01*
Y105396D01*
X124750Y105800D01*
X125661Y106666D01*
X130839D01*
X131750Y105800D01*
X131750Y105396D01*
Y91770D01*
X131750Y90800D01*
X131750Y89530D01*
Y75500D01*
X161500D01*
Y89230D01*
X161500Y90500D01*
X161500Y91770D01*
Y105471D01*
X161500Y105500D01*
X161507Y106767D01*
X162276Y106920D01*
X163358Y107642D01*
X167738Y112022D01*
X168032Y112463D01*
X169302Y112077D01*
Y105500D01*
X164500D01*
Y91770D01*
X164500Y90500D01*
X164500D01*
Y90500D01*
X164500D01*
Y75500D01*
X178500D01*
Y77845D01*
X179000Y78922D01*
X180561Y79232D01*
X181884Y80116D01*
X184264Y82496D01*
X184264Y82496D01*
X184776Y83263D01*
X186046Y82877D01*
Y74620D01*
X186300Y73344D01*
X187022Y72263D01*
X206408Y52877D01*
X205815Y51674D01*
X204600Y51834D01*
X202055Y51499D01*
X199683Y50517D01*
X197646Y48954D01*
X196083Y46917D01*
X195101Y44545D01*
X194766Y42000D01*
X195101Y39455D01*
X196083Y37083D01*
X197646Y35046D01*
X199683Y33483D01*
X202055Y32501D01*
X204600Y32166D01*
X207145Y32501D01*
X208684Y33138D01*
X209810Y32230D01*
Y25500D01*
X227390D01*
Y30236D01*
X228563Y30722D01*
X235152Y24133D01*
X235134Y24000D01*
X235436Y21705D01*
X236322Y19567D01*
X237731Y17731D01*
X239567Y16322D01*
X241705Y15436D01*
X244000Y15134D01*
X246295Y15436D01*
X248433Y16322D01*
X250269Y17731D01*
X251678Y19567D01*
X252564Y21705D01*
X252866Y24000D01*
X252564Y26295D01*
X251678Y28433D01*
X250269Y30269D01*
X248433Y31678D01*
X246295Y32564D01*
X244000Y32866D01*
X241705Y32564D01*
X239567Y31678D01*
X238136Y30580D01*
X229183Y39532D01*
X229776Y40735D01*
X231300Y40534D01*
X233595Y40836D01*
X235733Y41722D01*
X237569Y43131D01*
X238978Y44967D01*
X239864Y47105D01*
X240166Y49400D01*
X239864Y51695D01*
X238978Y53833D01*
X237779Y55396D01*
X238189Y56666D01*
X244719D01*
X248591Y52793D01*
X248136Y51695D01*
X247834Y49400D01*
X248136Y47105D01*
X249022Y44967D01*
X250431Y43131D01*
X252267Y41722D01*
X254405Y40836D01*
X256700Y40534D01*
X258995Y40836D01*
X261133Y41722D01*
X262969Y43131D01*
X264378Y44967D01*
X265264Y47105D01*
X265566Y49400D01*
X265264Y51695D01*
X264378Y53833D01*
X262969Y55669D01*
X261133Y57078D01*
X258995Y57964D01*
X256700Y58266D01*
X254405Y57964D01*
X253307Y57509D01*
X248458Y62358D01*
X247376Y63080D01*
X246100Y63334D01*
X212972D01*
X200714Y75592D01*
Y97348D01*
X201000Y98500D01*
X215000D01*
Y113500D01*
X215961Y114245D01*
X217039D01*
X217142Y114165D01*
X218000Y113500D01*
X218000Y112975D01*
X218000Y112933D01*
Y107500D01*
X223500D01*
Y113500D01*
X219341D01*
X219238Y113580D01*
X218380Y114245D01*
X218380Y114770D01*
X218380Y114812D01*
Y122120D01*
X213380D01*
Y125120D01*
X218380D01*
Y131732D01*
X218385Y132995D01*
X219648Y133000D01*
X233232D01*
X237059Y129173D01*
X236573Y128000D01*
X235500D01*
Y114000D01*
X245606D01*
X246000Y113922D01*
X250204D01*
X251854Y112819D01*
X254000Y112392D01*
X256146Y112819D01*
X257965Y114035D01*
X259181Y115854D01*
X259608Y118000D01*
X259181Y120146D01*
X257965Y121965D01*
X256146Y123181D01*
X254000Y123608D01*
X251854Y123181D01*
X251620Y123025D01*
X250500Y123623D01*
Y128000D01*
X247821D01*
X247078Y129000D01*
X246768Y130561D01*
X245884Y131884D01*
X245884Y131884D01*
X237135Y140633D01*
Y149000D01*
Y154929D01*
X238405Y155608D01*
X238500Y155545D01*
Y147000D01*
X253500D01*
Y161000D01*
X243715D01*
X241888Y162827D01*
X242374Y164000D01*
X244500D01*
Y169500D01*
X238500D01*
Y167006D01*
X237230Y166165D01*
X237135Y166205D01*
Y173000D01*
Y182666D01*
X254619D01*
X262666Y174619D01*
Y104381D01*
X258745Y100460D01*
X258000Y100608D01*
X255854Y100181D01*
X254035Y98965D01*
X252819Y97146D01*
X252392Y95000D01*
X252819Y92854D01*
X254035Y91035D01*
X255854Y89819D01*
X258000Y89392D01*
X260146Y89819D01*
X261965Y91035D01*
X263181Y92854D01*
X263608Y95000D01*
X263460Y95745D01*
X266827Y99112D01*
X268000Y98626D01*
Y22750D01*
X256250Y11000D01*
X30000D01*
X7250Y33750D01*
X7250Y185003D01*
X8520Y185255D01*
X9130Y183782D01*
X10373Y182163D01*
X11992Y180920D01*
X13877Y180140D01*
X15900Y179873D01*
X22400D01*
X24423Y180140D01*
X26308Y180920D01*
X27927Y182163D01*
X29170Y183782D01*
X29950Y185667D01*
X30217Y187690D01*
X29950Y189713D01*
X29170Y191598D01*
X27927Y193217D01*
X26308Y194460D01*
X24423Y195240D01*
X22400Y195507D01*
X15900D01*
X13877Y195240D01*
X11992Y194460D01*
X10373Y193217D01*
X9130Y191598D01*
X8520Y190125D01*
X7250Y190377D01*
Y262503D01*
X8520Y262755D01*
X9130Y261282D01*
X10373Y259663D01*
X11992Y258420D01*
X13877Y257640D01*
X15900Y257373D01*
X22400D01*
X24423Y257640D01*
X26308Y258420D01*
X27927Y259663D01*
X29170Y261282D01*
X29950Y263167D01*
X30217Y265190D01*
X29950Y267213D01*
X29170Y269098D01*
X27927Y270717D01*
X26308Y271960D01*
X24423Y272741D01*
X22400Y273007D01*
X18416D01*
X17930Y274180D01*
X29000Y285250D01*
X159793Y285250D01*
X190750Y254293D01*
D02*
G37*
G36*
X199611Y153100D02*
X199392Y152000D01*
X199819Y149854D01*
X201035Y148035D01*
X202854Y146819D01*
X205000Y146392D01*
X207146Y146819D01*
X208965Y148035D01*
X210181Y149854D01*
X210342Y150666D01*
X218385D01*
Y149334D01*
X214213D01*
X212937Y149080D01*
X211855Y148357D01*
X206125Y142627D01*
X205380Y142775D01*
X203234Y142348D01*
X201415Y141132D01*
X200199Y139313D01*
X199772Y137167D01*
X200199Y135021D01*
X200704Y134265D01*
X200026Y132995D01*
X166521D01*
X166119Y134265D01*
X167181Y135854D01*
X167608Y138000D01*
X167379Y139152D01*
X167689Y139433D01*
X167718Y139444D01*
X169281Y139163D01*
X170035Y138035D01*
X171854Y136819D01*
X174000Y136392D01*
X176146Y136819D01*
X177965Y138035D01*
X178904Y139440D01*
X179625Y139819D01*
X180456Y139753D01*
X181854Y138819D01*
X184000Y138392D01*
X186146Y138819D01*
X187965Y140035D01*
X189181Y141854D01*
X189608Y144000D01*
X189460Y144745D01*
X198441Y153726D01*
X199611Y153100D01*
D02*
G37*
G36*
X133625Y133000D02*
X151112D01*
X152375Y132995D01*
X152380Y131732D01*
Y123868D01*
X151338Y123153D01*
X151110Y123188D01*
X149000Y123608D01*
X146854Y123181D01*
X145035Y121965D01*
X143819Y120146D01*
X143392Y118000D01*
X143819Y115854D01*
X144654Y114604D01*
X143975Y113334D01*
X80750D01*
X79474Y113080D01*
X78393Y112358D01*
X68290Y102255D01*
X68250Y102260D01*
X66423Y102020D01*
X64720Y101314D01*
X63258Y100192D01*
X62687Y99448D01*
X61113D01*
X60542Y100192D01*
X59080Y101314D01*
X58884Y101396D01*
Y114619D01*
X73827Y129562D01*
X75000Y129076D01*
Y127250D01*
X85500D01*
Y132750D01*
X79081D01*
X78545Y133966D01*
X79105Y134666D01*
X133625D01*
Y133000D01*
D02*
G37*
%LPC*%
G36*
X394000Y289000D02*
X373500D01*
Y268500D01*
X394000D01*
Y289000D01*
D02*
G37*
G36*
X370500D02*
X350000D01*
Y268500D01*
X370500D01*
Y289000D01*
D02*
G37*
G36*
X558500Y261750D02*
X552500D01*
Y256250D01*
X558500D01*
Y261750D01*
D02*
G37*
G36*
X286000Y286608D02*
X283854Y286181D01*
X283674Y286060D01*
X278000D01*
X276173Y285820D01*
X274470Y285114D01*
X273008Y283992D01*
X271886Y282530D01*
X271180Y280827D01*
X270940Y279000D01*
X271180Y277173D01*
X271886Y275470D01*
X273008Y274008D01*
X279007Y268008D01*
X283657Y263358D01*
X285120Y262236D01*
X286823Y261530D01*
X287750Y261408D01*
Y253850D01*
X312250D01*
Y282850D01*
X295485D01*
X294342Y283992D01*
X292880Y285114D01*
X291177Y285820D01*
X289350Y286060D01*
X288326D01*
X288146Y286181D01*
X286000Y286608D01*
D02*
G37*
G36*
X558500Y253250D02*
X552500D01*
Y247750D01*
X558500D01*
Y253250D01*
D02*
G37*
G36*
X545290Y261750D02*
X530290D01*
Y261750D01*
X516500D01*
Y254460D01*
X510623Y248582D01*
X508604Y248181D01*
X506785Y246965D01*
X505569Y245146D01*
X505142Y243000D01*
X505569Y240854D01*
X506785Y239035D01*
X508604Y237819D01*
X510750Y237392D01*
X512896Y237819D01*
X513346Y238120D01*
X514201Y238290D01*
X515855Y239395D01*
X524210Y247750D01*
X531500D01*
Y247750D01*
X543500D01*
Y247750D01*
X549500D01*
Y254750D01*
Y261750D01*
X545290D01*
Y261750D01*
D02*
G37*
G36*
X394000Y265500D02*
X373500D01*
Y245000D01*
X394000D01*
Y265500D01*
D02*
G37*
G36*
X370500D02*
X350000D01*
Y245000D01*
X370500D01*
Y265500D01*
D02*
G37*
G36*
X384500Y241750D02*
X379000D01*
Y235750D01*
X384500D01*
Y241750D01*
D02*
G37*
G36*
X376000D02*
X370500D01*
Y235750D01*
X376000D01*
Y241750D01*
D02*
G37*
G36*
X441000Y289000D02*
X397000D01*
Y245000D01*
X404569D01*
X404992Y244320D01*
X405133Y243730D01*
X404381Y242750D01*
X403850D01*
Y241741D01*
X403430Y240727D01*
X403190Y238900D01*
Y234750D01*
X403430Y232923D01*
X403850Y231909D01*
Y231606D01*
X402677Y231120D01*
X401500Y232297D01*
Y241750D01*
X387500D01*
Y232297D01*
X385673Y230470D01*
X384500Y230956D01*
Y232750D01*
X377500D01*
X370500D01*
Y226750D01*
X371500Y226250D01*
Y216250D01*
X386000D01*
Y220703D01*
X392047Y226750D01*
X396953D01*
X400227Y223477D01*
X401384Y222703D01*
X402750Y222431D01*
X403850D01*
Y222250D01*
X404625D01*
X405047Y220980D01*
X404333Y219911D01*
X404316Y219828D01*
X400750D01*
X399189Y219518D01*
X397866Y218634D01*
X396982Y217311D01*
X396871Y216750D01*
X393500D01*
Y206750D01*
X396871D01*
X396982Y206189D01*
X397866Y204866D01*
X399189Y203982D01*
X400750Y203672D01*
X408540D01*
X408540Y203672D01*
X436750Y203672D01*
X436750Y203672D01*
X438311Y203982D01*
X439634Y204866D01*
X439634Y204866D01*
X444134Y209366D01*
X445018Y210689D01*
X445328Y212250D01*
X445328Y212250D01*
Y217250D01*
X445018Y218811D01*
X444134Y220134D01*
X444134Y220134D01*
X435447Y228821D01*
X434124Y229705D01*
X432563Y230015D01*
X432065Y229916D01*
X430850Y230644D01*
Y242750D01*
X429886D01*
X429221Y243772D01*
X429567Y245000D01*
X441000D01*
Y289000D01*
D02*
G37*
G36*
X556500Y233950D02*
X551000D01*
Y227950D01*
X556500D01*
Y233950D01*
D02*
G37*
G36*
X548000D02*
X542500D01*
Y227950D01*
X548000D01*
Y233950D01*
D02*
G37*
G36*
X604060Y271750D02*
X560060D01*
Y227750D01*
X604060D01*
Y271750D01*
D02*
G37*
G36*
X466500Y221938D02*
Y216500D01*
X471937D01*
X471241Y218181D01*
X469912Y219912D01*
X468181Y221241D01*
X466500Y221938D01*
D02*
G37*
G36*
X461500Y221938D02*
X459819Y221241D01*
X458088Y219912D01*
X456759Y218181D01*
X456063Y216500D01*
X461500D01*
Y221938D01*
D02*
G37*
G36*
X496750Y221750D02*
X481250D01*
Y206250D01*
X496750D01*
Y221750D01*
D02*
G37*
G36*
X461500Y211500D02*
X456063D01*
X456759Y209819D01*
X458088Y208088D01*
X459819Y206759D01*
X461500Y206063D01*
Y211500D01*
D02*
G37*
G36*
X471937D02*
X466500D01*
Y206063D01*
X468181Y206759D01*
X469912Y208088D01*
X471241Y209819D01*
X471937Y211500D01*
D02*
G37*
G36*
X386000Y207250D02*
X371500D01*
Y197250D01*
X386000D01*
Y207250D01*
D02*
G37*
G36*
X539500Y233950D02*
X525500D01*
Y225215D01*
X509642Y209358D01*
X508920Y208276D01*
X508666Y207000D01*
Y204137D01*
X508035Y203715D01*
X506819Y201896D01*
X506392Y199750D01*
X506819Y197604D01*
X508035Y195785D01*
X509854Y194569D01*
X512000Y194142D01*
X514146Y194569D01*
X515965Y195785D01*
X517035D01*
X518854Y194569D01*
X521000Y194142D01*
X523146Y194569D01*
X524965Y195785D01*
X526035D01*
X527854Y194569D01*
X530000Y194142D01*
X532146Y194569D01*
X533965Y195785D01*
X534387Y196416D01*
X537000D01*
X538276Y196670D01*
X539357Y197392D01*
X546215Y204250D01*
X556000D01*
Y218950D01*
X556500D01*
Y224950D01*
X549500D01*
X542500D01*
Y219250D01*
X542000D01*
Y209465D01*
X540173Y207638D01*
X539000Y208124D01*
Y218950D01*
X539500D01*
Y233950D01*
D02*
G37*
G36*
X605000Y224000D02*
X561000D01*
Y180000D01*
X605000D01*
Y224000D01*
D02*
G37*
G36*
X346500Y183000D02*
Y175500D01*
X352500D01*
Y183000D01*
X346500D01*
D02*
G37*
G36*
X417750Y167938D02*
Y162500D01*
X423187D01*
X422491Y164181D01*
X421162Y165912D01*
X419431Y167241D01*
X417750Y167938D01*
D02*
G37*
G36*
X412750D02*
X411069Y167241D01*
X409338Y165912D01*
X408009Y164181D01*
X407313Y162500D01*
X412750D01*
Y167938D01*
D02*
G37*
G36*
X499000Y195358D02*
X496854Y194931D01*
X495035Y193715D01*
X493819Y191896D01*
X493392Y189750D01*
X493819Y187604D01*
X495035Y185785D01*
Y185715D01*
X493819Y183896D01*
X493392Y181750D01*
X493819Y179604D01*
X495035Y177785D01*
X495302Y177606D01*
X494159Y175896D01*
X493732Y173750D01*
X494159Y171604D01*
X495302Y169894D01*
X495035Y169715D01*
X493819Y167896D01*
X493392Y165750D01*
X493819Y163604D01*
X495035Y161785D01*
X496854Y160569D01*
X499000Y160142D01*
X501146Y160569D01*
X502965Y161785D01*
X504181Y163604D01*
X504608Y165750D01*
X504181Y167896D01*
X503038Y169606D01*
X503305Y169785D01*
X504521Y171604D01*
X504948Y173750D01*
X504521Y175896D01*
X503305Y177715D01*
X503038Y177894D01*
X504181Y179604D01*
X504608Y181750D01*
X504181Y183896D01*
X502965Y185715D01*
Y185785D01*
X504181Y187604D01*
X504608Y189750D01*
X504181Y191896D01*
X502965Y193715D01*
X501146Y194931D01*
X499000Y195358D01*
D02*
G37*
G36*
X540040Y162108D02*
X537894Y161681D01*
X536075Y160465D01*
X534885Y158686D01*
X533396Y159681D01*
X531250Y160108D01*
X529104Y159681D01*
X527285Y158465D01*
X527223Y158373D01*
X525695D01*
X524965Y159465D01*
X523146Y160681D01*
X521000Y161108D01*
X518854Y160681D01*
X517035Y159465D01*
X515819Y157646D01*
X515392Y155500D01*
X515819Y153354D01*
X516878Y151770D01*
X516604Y150916D01*
X516315Y150500D01*
X513750D01*
Y136500D01*
X541750D01*
Y136500D01*
X556750D01*
Y150500D01*
X554720D01*
X554041Y151770D01*
X554431Y152354D01*
X554858Y154500D01*
X554431Y156646D01*
X553215Y158465D01*
X551396Y159681D01*
X549250Y160108D01*
X547104Y159681D01*
X546300Y159143D01*
X545221Y158646D01*
X544672Y159467D01*
X544005Y160465D01*
X542186Y161681D01*
X540040Y162108D01*
D02*
G37*
G36*
X478500Y160938D02*
Y155500D01*
X483937D01*
X483241Y157181D01*
X481912Y158912D01*
X480181Y160241D01*
X478500Y160938D01*
D02*
G37*
G36*
X473500Y160938D02*
X471819Y160241D01*
X470088Y158912D01*
X468759Y157181D01*
X468063Y155500D01*
X473500D01*
Y160938D01*
D02*
G37*
G36*
X398000Y167750D02*
X382500D01*
Y152250D01*
X398000D01*
Y167750D01*
D02*
G37*
G36*
X423187Y157500D02*
X417750D01*
Y152063D01*
X419431Y152759D01*
X421162Y154087D01*
X422491Y155819D01*
X423187Y157500D01*
D02*
G37*
G36*
X412750D02*
X407313D01*
X408009Y155819D01*
X409338Y154087D01*
X411069Y152759D01*
X412750Y152063D01*
Y157500D01*
D02*
G37*
G36*
X352500Y154500D02*
X346500D01*
Y147000D01*
X352500D01*
Y154500D01*
D02*
G37*
G36*
X312250Y216850D02*
X287750D01*
Y194515D01*
X286823Y193754D01*
X284677Y193327D01*
X282857Y192111D01*
X281642Y190292D01*
X281215Y188146D01*
X281642Y186000D01*
X282857Y184181D01*
X284677Y182965D01*
X286823Y182538D01*
X288969Y182965D01*
X289310Y183193D01*
X290500Y182461D01*
X290500Y182064D01*
Y175500D01*
X298000D01*
Y172500D01*
X290500D01*
Y166270D01*
X290500Y165000D01*
X290500Y163730D01*
Y157500D01*
X298000D01*
Y154500D01*
X290500D01*
Y147270D01*
X290500Y147000D01*
Y146000D01*
X290500Y145730D01*
Y138500D01*
X298000D01*
Y137000D01*
X299500D01*
Y128000D01*
X304230D01*
X305500Y128000D01*
X306770Y128000D01*
X311668D01*
Y106250D01*
Y90500D01*
X311995Y88020D01*
X312290Y87307D01*
X298616Y73634D01*
X297732Y72311D01*
X297422Y70750D01*
X297422Y70750D01*
Y50796D01*
X296319Y49146D01*
X295892Y47000D01*
X296319Y44854D01*
X297535Y43035D01*
X299354Y41819D01*
X301500Y41392D01*
X303646Y41819D01*
X305465Y43035D01*
X306681Y44854D01*
X307108Y47000D01*
X306681Y49146D01*
X305578Y50796D01*
Y69061D01*
X317358Y80841D01*
X337225Y60975D01*
X339209Y59452D01*
X341520Y58495D01*
X344000Y58168D01*
X348750D01*
X351230Y58495D01*
X353541Y59452D01*
X355526Y60975D01*
X357048Y62959D01*
X358005Y65270D01*
X358332Y67750D01*
X358005Y70230D01*
X357825Y70667D01*
X357431Y72646D01*
X356215Y74465D01*
X354396Y75681D01*
X353888Y75782D01*
X353541Y76048D01*
X351230Y77006D01*
X348750Y77332D01*
X347969D01*
X337306Y87995D01*
X337792Y89168D01*
X340250D01*
X342730Y89494D01*
X345041Y90452D01*
X346541Y91603D01*
X347750Y91750D01*
Y91750D01*
X349000Y91702D01*
Y85500D01*
X355000D01*
Y93750D01*
Y102000D01*
X349187D01*
X348548Y103541D01*
X347750Y104581D01*
Y105750D01*
X346733D01*
X345041Y107048D01*
X343998Y107480D01*
X344251Y108750D01*
X347750D01*
Y108952D01*
X349000Y109000D01*
Y109000D01*
X364000D01*
Y125500D01*
X349000D01*
Y122798D01*
X347750Y122750D01*
Y122750D01*
X332750D01*
Y110638D01*
X331491Y110070D01*
X330832Y110582D01*
Y137000D01*
Y147000D01*
X337500Y147000D01*
X338770Y147000D01*
X343500D01*
Y156000D01*
X345000D01*
Y157500D01*
X352500D01*
Y163730D01*
X352500Y165000D01*
X352500Y166270D01*
Y172500D01*
X345000D01*
Y174000D01*
X343500D01*
Y183000D01*
X338770D01*
X337500Y183000D01*
X336230Y183000D01*
X329196D01*
X328026Y184526D01*
X312250Y200301D01*
Y216850D01*
D02*
G37*
G36*
X473500Y150500D02*
X468063D01*
X468759Y148819D01*
X470088Y147087D01*
X471819Y145759D01*
X473500Y145063D01*
Y150500D01*
D02*
G37*
G36*
X483937D02*
X478500D01*
Y145063D01*
X480181Y145759D01*
X481912Y147087D01*
X483241Y148819D01*
X483937Y150500D01*
D02*
G37*
G36*
X364250Y139748D02*
X362104Y139321D01*
X360285Y138105D01*
X360024Y137715D01*
X359415D01*
X357596Y138931D01*
X355450Y139358D01*
X353304Y138931D01*
X351871Y137973D01*
X350465Y138105D01*
X348646Y139321D01*
X346500Y139748D01*
X344354Y139321D01*
X342960Y138389D01*
X341715Y137965D01*
X339896Y139181D01*
X337750Y139608D01*
X335604Y139181D01*
X333785Y137965D01*
X332569Y136146D01*
X332142Y134000D01*
X332569Y131854D01*
X333785Y130035D01*
X335604Y128819D01*
X337750Y128392D01*
X339896Y128819D01*
X341291Y129751D01*
X342535Y130175D01*
X344354Y128959D01*
X346500Y128532D01*
X348646Y128959D01*
X350079Y129917D01*
X351485Y129785D01*
X353304Y128569D01*
X355450Y128142D01*
X357596Y128569D01*
X359415Y129785D01*
X359676Y130175D01*
X360285D01*
X362104Y128959D01*
X364250Y128532D01*
X366396Y128959D01*
X367039Y129389D01*
X368450Y128804D01*
X368639Y127854D01*
X369771Y126160D01*
X369912Y125721D01*
Y124726D01*
X369553Y124486D01*
X368337Y122667D01*
X367910Y120521D01*
X368337Y118375D01*
X369419Y116757D01*
X369547Y116332D01*
X369515Y115054D01*
X368587Y113667D01*
X368161Y111521D01*
X368587Y109375D01*
X369803Y107555D01*
X371622Y106340D01*
X373768Y105913D01*
X375914Y106340D01*
X377733Y107555D01*
X378155Y108187D01*
X380140D01*
X386500Y101826D01*
Y93000D01*
X400500D01*
Y92500D01*
X406500D01*
Y99500D01*
Y106500D01*
X401500D01*
Y107000D01*
X390756D01*
X388929Y108827D01*
X389416Y110000D01*
X400500D01*
Y109500D01*
X415500D01*
Y123500D01*
X411284D01*
X411080Y124526D01*
X410358Y125608D01*
X407607Y128357D01*
X406526Y129080D01*
X405250Y129334D01*
X379974D01*
X379428Y130000D01*
X379001Y132146D01*
X377785Y133965D01*
X375966Y135181D01*
X373820Y135608D01*
X371674Y135181D01*
X371031Y134751D01*
X369620Y135336D01*
X369431Y136286D01*
X368215Y138105D01*
X366396Y139321D01*
X364250Y139748D01*
D02*
G37*
G36*
X296500Y135500D02*
X290500D01*
Y128000D01*
X296500D01*
Y135500D01*
D02*
G37*
G36*
X556750Y133500D02*
X550750D01*
Y128000D01*
X556750D01*
Y133500D01*
D02*
G37*
G36*
X483750Y135750D02*
X468250D01*
Y120250D01*
X483750D01*
Y135750D01*
D02*
G37*
G36*
X556750Y125000D02*
X550750D01*
Y119500D01*
X556750D01*
Y125000D01*
D02*
G37*
G36*
X542750Y133500D02*
X513750D01*
Y130529D01*
X512439Y130268D01*
X511116Y129384D01*
X511116Y129384D01*
X509550Y127818D01*
X507604Y127431D01*
X505785Y126215D01*
X504569Y124396D01*
X504142Y122250D01*
X504569Y120104D01*
X505785Y118285D01*
X507604Y117069D01*
X509750Y116642D01*
X511896Y117069D01*
X513715Y118285D01*
X514527Y119500D01*
X541750D01*
Y119500D01*
X547750D01*
Y126500D01*
Y133500D01*
X542750D01*
Y133500D01*
D02*
G37*
G36*
X415500Y106500D02*
X409500D01*
Y101000D01*
X415500D01*
Y106500D01*
D02*
G37*
G36*
X604000Y143750D02*
X560000D01*
Y99750D01*
X604000D01*
Y143750D01*
D02*
G37*
G36*
X545750Y103000D02*
X540250D01*
Y97000D01*
X545750D01*
Y103000D01*
D02*
G37*
G36*
X537250D02*
X531750D01*
Y97000D01*
X537250D01*
Y103000D01*
D02*
G37*
G36*
X364000Y102000D02*
X358000D01*
Y95250D01*
X364000D01*
Y102000D01*
D02*
G37*
G36*
X415500Y98000D02*
X409500D01*
Y92500D01*
X415500D01*
Y98000D01*
D02*
G37*
G36*
X364000Y92250D02*
X358000D01*
Y85500D01*
X364000D01*
Y92250D01*
D02*
G37*
G36*
X460750Y125608D02*
X458604Y125181D01*
X456785Y123965D01*
X456363Y123334D01*
X453000D01*
X451724Y123080D01*
X450643Y122358D01*
X449535Y121250D01*
X440250D01*
Y107250D01*
X440000D01*
Y92250D01*
X451126D01*
X451612Y91077D01*
X447785Y87250D01*
X438000D01*
Y72250D01*
X452000D01*
Y82035D01*
X453827Y83862D01*
X455000Y83376D01*
Y81250D01*
X462000D01*
X469000D01*
Y87250D01*
X463456D01*
X463071Y88520D01*
X464215Y89285D01*
X465431Y91104D01*
X465858Y93250D01*
X465431Y95396D01*
X465382Y95470D01*
X466052Y96752D01*
X467646Y97069D01*
X469465Y98285D01*
X470681Y100104D01*
X471108Y102250D01*
X470681Y104396D01*
X469465Y106215D01*
X467646Y107431D01*
X465500Y107858D01*
X465069Y107772D01*
X464363Y108828D01*
X464381Y108854D01*
X464808Y111000D01*
X464381Y113146D01*
X463165Y114965D01*
Y114999D01*
X464715Y116035D01*
X465931Y117854D01*
X466358Y120000D01*
X465931Y122146D01*
X464715Y123965D01*
X462896Y125181D01*
X460750Y125608D01*
D02*
G37*
G36*
X469000Y78250D02*
X463500D01*
Y72250D01*
X469000D01*
Y78250D01*
D02*
G37*
G36*
X460500D02*
X455000D01*
Y72250D01*
X460500D01*
Y78250D01*
D02*
G37*
G36*
X437250Y121250D02*
X423250D01*
Y107250D01*
X423000D01*
Y92250D01*
X426172D01*
Y83189D01*
X419050Y76068D01*
X417104Y75681D01*
X415285Y74465D01*
X414069Y72646D01*
X413642Y70500D01*
X414069Y68354D01*
X415285Y66535D01*
X417104Y65319D01*
X419250Y64892D01*
X421396Y65319D01*
X423215Y66535D01*
X424431Y68354D01*
X424818Y70300D01*
X433134Y78616D01*
X433134Y78616D01*
X434018Y79939D01*
X434328Y81500D01*
Y92250D01*
X437000D01*
Y106250D01*
X437250D01*
Y121250D01*
D02*
G37*
G36*
X528750Y103000D02*
X514750D01*
Y94340D01*
X509893Y89482D01*
X509170Y88400D01*
X508916Y87125D01*
Y73507D01*
X508285Y73085D01*
X507069Y71266D01*
X506642Y69120D01*
X507069Y66974D01*
X508285Y65155D01*
X510104Y63939D01*
X512250Y63512D01*
X514396Y63939D01*
X516215Y65155D01*
X517285D01*
X519104Y63939D01*
X521250Y63512D01*
X523396Y63939D01*
X525215Y65155D01*
X526285D01*
X528104Y63939D01*
X530250Y63512D01*
X532396Y63939D01*
X534215Y65155D01*
X535431Y66974D01*
X535858Y69120D01*
X535431Y71266D01*
X534550Y72585D01*
X535965Y74000D01*
X545750D01*
Y88000D01*
Y94000D01*
X538750D01*
X531750D01*
Y88000D01*
Y79215D01*
X529923Y77388D01*
X528750Y77874D01*
Y88000D01*
Y103000D01*
D02*
G37*
G36*
X329750Y65450D02*
X315750D01*
Y51450D01*
X316700D01*
X317326Y50180D01*
X316635Y49280D01*
X315930Y47577D01*
X315887Y47250D01*
X322750D01*
X329613D01*
X329570Y47577D01*
X328865Y49280D01*
X328174Y50180D01*
X328800Y51450D01*
X329750D01*
Y65450D01*
D02*
G37*
G36*
X604250Y90000D02*
X560250D01*
Y46000D01*
X604250D01*
Y90000D01*
D02*
G37*
G36*
X321250Y44250D02*
X315887D01*
X315930Y43923D01*
X316635Y42220D01*
X317758Y40758D01*
X319220Y39636D01*
X320923Y38930D01*
X321250Y38887D01*
Y44250D01*
D02*
G37*
G36*
X329613D02*
X324250D01*
Y38887D01*
X324577Y38930D01*
X326280Y39636D01*
X327742Y40758D01*
X328865Y42220D01*
X329570Y43923D01*
X329613Y44250D01*
D02*
G37*
G36*
X500250Y66108D02*
X498104Y65681D01*
X496285Y64465D01*
X495069Y62646D01*
X494642Y60500D01*
X495069Y58354D01*
X496285Y56535D01*
Y56465D01*
X495069Y54646D01*
X494642Y52500D01*
X495069Y50354D01*
X496285Y48535D01*
X496552Y48356D01*
X495409Y46646D01*
X494982Y44500D01*
X495409Y42354D01*
X496552Y40644D01*
X496285Y40465D01*
X495069Y38646D01*
X494642Y36500D01*
X495069Y34354D01*
X496285Y32535D01*
X498104Y31319D01*
X500250Y30892D01*
X502396Y31319D01*
X504215Y32535D01*
X505431Y34354D01*
X505858Y36500D01*
X505431Y38646D01*
X504288Y40356D01*
X504555Y40535D01*
X505771Y42354D01*
X506198Y44500D01*
X505771Y46646D01*
X504555Y48465D01*
X504288Y48644D01*
X505431Y50354D01*
X505858Y52500D01*
X505431Y54646D01*
X504215Y56465D01*
Y56535D01*
X505431Y58354D01*
X505858Y60500D01*
X505431Y62646D01*
X504215Y64465D01*
X502396Y65681D01*
X500250Y66108D01*
D02*
G37*
G36*
X344750Y28310D02*
X342923Y28070D01*
X341220Y27364D01*
X340320Y26674D01*
X339050Y27300D01*
Y28250D01*
X325050D01*
Y14250D01*
X339050D01*
Y15200D01*
X340320Y15826D01*
X341220Y15136D01*
X342923Y14430D01*
X344750Y14190D01*
X346577Y14430D01*
X348280Y15136D01*
X349743Y16258D01*
X350313Y17002D01*
X351887D01*
X352458Y16258D01*
X353920Y15136D01*
X355623Y14430D01*
X355950Y14387D01*
Y21250D01*
Y28113D01*
X355623Y28070D01*
X353920Y27364D01*
X352458Y26242D01*
X351887Y25499D01*
X350313D01*
X349743Y26242D01*
X348280Y27364D01*
X346577Y28070D01*
X344750Y28310D01*
D02*
G37*
G36*
X358950Y28113D02*
Y22750D01*
X364313D01*
X364270Y23077D01*
X363564Y24780D01*
X362443Y26242D01*
X360980Y27364D01*
X359277Y28070D01*
X358950Y28113D01*
D02*
G37*
G36*
X364313Y19750D02*
X358950D01*
Y14387D01*
X359277Y14430D01*
X360980Y15136D01*
X362443Y16258D01*
X363564Y17720D01*
X364270Y19423D01*
X364313Y19750D01*
D02*
G37*
G36*
X470940Y58000D02*
X426940D01*
Y14000D01*
X470940D01*
Y58000D01*
D02*
G37*
G36*
X417750Y57500D02*
X373750D01*
Y13500D01*
X417750D01*
Y57500D01*
D02*
G37*
%LPD*%
G36*
X430700Y221710D02*
X431390D01*
Y225451D01*
X432563Y225937D01*
X441250Y217250D01*
Y212250D01*
X436750Y207750D01*
X408540Y207750D01*
Y207750D01*
X400750D01*
Y215750D01*
X408540D01*
Y217290D01*
X408540D01*
X408101Y218351D01*
X410591Y220841D01*
X411510Y220460D01*
Y220460D01*
X413350D01*
Y224750D01*
X421350D01*
Y220460D01*
X422700D01*
Y226000D01*
X430700D01*
Y221710D01*
D02*
G37*
%LPC*%
G36*
X134000Y276500D02*
X120000D01*
Y272334D01*
X118250D01*
Y276500D01*
X101750D01*
Y261500D01*
X118250D01*
Y265666D01*
X120000D01*
Y261500D01*
X134000D01*
Y276500D01*
D02*
G37*
G36*
X94750D02*
X88000D01*
Y270500D01*
X94750D01*
Y276500D01*
D02*
G37*
G36*
X85000D02*
X78250D01*
Y270500D01*
X85000D01*
Y276500D01*
D02*
G37*
G36*
X94750Y267500D02*
X88000D01*
Y261500D01*
X94750D01*
Y267500D01*
D02*
G37*
G36*
X85000D02*
X78250D01*
Y261500D01*
X85000D01*
Y267500D01*
D02*
G37*
G36*
X190000Y251500D02*
X184500D01*
Y245500D01*
X190000D01*
Y251500D01*
D02*
G37*
G36*
X181500D02*
X176000D01*
Y245500D01*
X181500D01*
Y251500D01*
D02*
G37*
G36*
X190000Y242500D02*
X183000D01*
X176000D01*
Y236500D01*
Y232500D01*
X183000D01*
X190000D01*
Y236500D01*
Y242500D01*
D02*
G37*
G36*
Y229500D02*
X184500D01*
Y223500D01*
X190000D01*
Y229500D01*
D02*
G37*
G36*
X181500D02*
X176000D01*
Y223500D01*
X181500D01*
Y229500D01*
D02*
G37*
G36*
X133500Y228820D02*
X128000D01*
Y222820D01*
X133500D01*
Y228820D01*
D02*
G37*
G36*
X125000D02*
X119500D01*
Y222820D01*
X125000D01*
Y228820D01*
D02*
G37*
G36*
X155880Y217755D02*
X152380D01*
Y209880D01*
X155880D01*
Y217755D01*
D02*
G37*
G36*
X66650Y211440D02*
X59650D01*
Y208690D01*
X66650D01*
Y211440D01*
D02*
G37*
G36*
X56650D02*
X49650D01*
Y208690D01*
X56650D01*
Y211440D01*
D02*
G37*
G36*
X133500Y219820D02*
X119500D01*
Y215090D01*
X119500Y213820D01*
X119500Y212550D01*
Y207820D01*
X133500D01*
Y212550D01*
X133500Y213820D01*
X133500Y215090D01*
Y219820D01*
D02*
G37*
G36*
X151000Y276500D02*
X137000D01*
Y261500D01*
X151000D01*
Y264922D01*
X159311D01*
X160940Y263292D01*
X160882Y263000D01*
Y254000D01*
X161127Y252770D01*
X160085Y251500D01*
X159000D01*
Y236500D01*
Y223500D01*
X161302D01*
Y217755D01*
X158880D01*
Y208380D01*
Y199005D01*
X171880D01*
Y208380D01*
Y217755D01*
X169458D01*
Y223500D01*
X173000D01*
Y236500D01*
Y251500D01*
X173000Y251500D01*
X173000D01*
X172873Y252770D01*
X173118Y254000D01*
Y263000D01*
X172652Y265341D01*
X171326Y267326D01*
X169341Y268652D01*
X167000Y269118D01*
X166708Y269060D01*
X163884Y271884D01*
X162561Y272768D01*
X161000Y273078D01*
X161000Y273078D01*
X151000D01*
Y276500D01*
D02*
G37*
G36*
X125000Y204820D02*
X119500D01*
Y198820D01*
X125000D01*
Y204820D01*
D02*
G37*
G36*
X46650Y207558D02*
X44309Y207092D01*
X42324Y205766D01*
X40998Y203781D01*
X40532Y201440D01*
X40998Y199099D01*
X42324Y197114D01*
X44309Y195788D01*
X45952Y195461D01*
X46506Y194098D01*
X46320Y193855D01*
X45388Y191605D01*
X45070Y189190D01*
X45388Y186775D01*
X46320Y184525D01*
X47803Y182593D01*
X49735Y181110D01*
X51985Y180178D01*
X54400Y179860D01*
X59900D01*
X62315Y180178D01*
X64565Y181110D01*
X66497Y182593D01*
X67980Y184525D01*
X68912Y186775D01*
X69230Y189190D01*
X68912Y191605D01*
X67980Y193855D01*
X66497Y195787D01*
X64565Y197270D01*
X62315Y198202D01*
X59900Y198520D01*
X54400D01*
X53350Y198382D01*
X53078Y198568D01*
X52389Y199536D01*
X52768Y201440D01*
X52302Y203781D01*
X50976Y205766D01*
X48991Y207092D01*
X46650Y207558D01*
D02*
G37*
G36*
X253500Y178000D02*
X247500D01*
Y172500D01*
X253500D01*
Y178000D01*
D02*
G37*
G36*
X244500D02*
X238500D01*
Y172500D01*
X244500D01*
Y178000D01*
D02*
G37*
G36*
X253500Y169500D02*
X247500D01*
Y164000D01*
X253500D01*
Y169500D01*
D02*
G37*
G36*
X39000Y132750D02*
X28500D01*
Y127250D01*
X39000D01*
Y132750D01*
D02*
G37*
G36*
X25500D02*
X15000D01*
Y127250D01*
X25500D01*
Y132750D01*
D02*
G37*
G36*
X39000Y124250D02*
X28500D01*
Y118750D01*
X39000D01*
Y124250D01*
D02*
G37*
G36*
X25500D02*
X15000D01*
Y118750D01*
X25500D01*
Y124250D01*
D02*
G37*
G36*
X232000Y113500D02*
X226500D01*
Y107500D01*
X232000D01*
Y113500D01*
D02*
G37*
G36*
X250500Y111000D02*
X244500D01*
Y105500D01*
X250500D01*
Y111000D01*
D02*
G37*
G36*
X241500D02*
X235500D01*
Y105500D01*
X241500D01*
Y111000D01*
D02*
G37*
G36*
X232000Y104500D02*
X226500D01*
Y98500D01*
X232000D01*
Y104500D01*
D02*
G37*
G36*
X223500D02*
X218000D01*
Y98500D01*
X223500D01*
Y104500D01*
D02*
G37*
G36*
X250500Y102500D02*
X244500D01*
Y97000D01*
X250500D01*
Y102500D01*
D02*
G37*
G36*
X241500D02*
X235500D01*
Y97000D01*
X241500D01*
Y102500D01*
D02*
G37*
G36*
X124750Y96800D02*
X116500D01*
X108250D01*
Y91770D01*
X108250Y90800D01*
X108250Y89530D01*
Y84500D01*
X116500D01*
X124750D01*
Y89530D01*
X124750Y90500D01*
X124750Y91770D01*
Y96800D01*
D02*
G37*
G36*
X100513Y81000D02*
X95150D01*
Y75637D01*
X95477Y75680D01*
X97180Y76385D01*
X98642Y77508D01*
X99764Y78970D01*
X100470Y80673D01*
X100513Y81000D01*
D02*
G37*
G36*
X124750Y81500D02*
X118000D01*
Y75500D01*
X124750D01*
Y81500D01*
D02*
G37*
G36*
X115000D02*
X108250D01*
Y75500D01*
X115000D01*
Y81500D01*
D02*
G37*
G36*
X171700Y58266D02*
X169405Y57964D01*
X167267Y57078D01*
X165431Y55669D01*
X164022Y53833D01*
X163136Y51695D01*
X162834Y49400D01*
X163136Y47105D01*
X164022Y44967D01*
X165431Y43131D01*
X167267Y41722D01*
X169405Y40836D01*
X171700Y40534D01*
X173995Y40836D01*
X176133Y41722D01*
X177969Y43131D01*
X179378Y44967D01*
X180264Y47105D01*
X180566Y49400D01*
X180264Y51695D01*
X179378Y53833D01*
X177969Y55669D01*
X176133Y57078D01*
X173995Y57964D01*
X171700Y58266D01*
D02*
G37*
G36*
X146300D02*
X144005Y57964D01*
X141867Y57078D01*
X140031Y55669D01*
X138622Y53833D01*
X137736Y51695D01*
X137434Y49400D01*
X137736Y47105D01*
X138622Y44967D01*
X140031Y43131D01*
X141867Y41722D01*
X144005Y40836D01*
X146300Y40534D01*
X148595Y40836D01*
X150733Y41722D01*
X152569Y43131D01*
X153978Y44967D01*
X154864Y47105D01*
X155166Y49400D01*
X154864Y51695D01*
X153978Y53833D01*
X152569Y55669D01*
X150733Y57078D01*
X148595Y57964D01*
X146300Y58266D01*
D02*
G37*
G36*
X88400D02*
X86105Y57964D01*
X83967Y57078D01*
X82131Y55669D01*
X80722Y53833D01*
X79836Y51695D01*
X79534Y49400D01*
X79836Y47105D01*
X80722Y44967D01*
X82131Y43131D01*
X83967Y41722D01*
X86105Y40836D01*
X88400Y40534D01*
X90695Y40836D01*
X92833Y41722D01*
X94669Y43131D01*
X96078Y44967D01*
X96964Y47105D01*
X97266Y49400D01*
X96964Y51695D01*
X96078Y53833D01*
X94669Y55669D01*
X92833Y57078D01*
X90695Y57964D01*
X88400Y58266D01*
D02*
G37*
G36*
X63000D02*
X60705Y57964D01*
X58567Y57078D01*
X56731Y55669D01*
X55322Y53833D01*
X54436Y51695D01*
X54134Y49400D01*
X54436Y47105D01*
X55322Y44967D01*
X56731Y43131D01*
X58567Y41722D01*
X60705Y40836D01*
X63000Y40534D01*
X65295Y40836D01*
X67433Y41722D01*
X69269Y43131D01*
X70678Y44967D01*
X71564Y47105D01*
X71866Y49400D01*
X71564Y51695D01*
X70678Y53833D01*
X69269Y55669D01*
X67433Y57078D01*
X65295Y57964D01*
X63000Y58266D01*
D02*
G37*
G36*
X135100Y32790D02*
Y25500D01*
X142390D01*
Y32790D01*
X135100D01*
D02*
G37*
G36*
X119600Y51834D02*
X117055Y51499D01*
X114683Y50517D01*
X112646Y48954D01*
X111083Y46917D01*
X110101Y44545D01*
X109766Y42000D01*
X110101Y39455D01*
X111083Y37083D01*
X112646Y35046D01*
X114683Y33483D01*
X117055Y32501D01*
X119600Y32166D01*
X122145Y32501D01*
X123369Y33008D01*
X124450Y32521D01*
X124450Y32521D01*
X124450Y32521D01*
D01*
X124810Y32230D01*
X124810Y31889D01*
Y25500D01*
X132100D01*
Y32790D01*
X125848D01*
X125841Y32790D01*
X125841D01*
X125700Y32790D01*
X125534Y33278D01*
X125534Y33278D01*
Y33278D01*
D01*
X125823Y34485D01*
X126554Y35046D01*
X128117Y37083D01*
X129099Y39455D01*
X129434Y42000D01*
X129099Y44545D01*
X128117Y46917D01*
X126554Y48954D01*
X124517Y50517D01*
X122145Y51499D01*
X119600Y51834D01*
D02*
G37*
G36*
X51800Y32790D02*
Y25500D01*
X59090D01*
Y32790D01*
X51800D01*
D02*
G37*
G36*
X36300Y51834D02*
X33755Y51499D01*
X31383Y50517D01*
X29346Y48954D01*
X27783Y46917D01*
X26801Y44545D01*
X26466Y42000D01*
X26801Y39455D01*
X27783Y37083D01*
X29346Y35046D01*
X31383Y33483D01*
X33755Y32501D01*
X36300Y32166D01*
X38845Y32501D01*
X40069Y33008D01*
X41150Y32521D01*
X41150Y32521D01*
X41150Y32521D01*
D01*
X41510Y32230D01*
X41510Y31889D01*
Y25500D01*
X48800D01*
Y32790D01*
X42548D01*
X42541Y32790D01*
X42541D01*
X42400Y32790D01*
X42234Y33278D01*
X42234Y33278D01*
Y33278D01*
D01*
X42523Y34485D01*
X43254Y35046D01*
X44817Y37083D01*
X45799Y39455D01*
X46134Y42000D01*
X45799Y44545D01*
X44817Y46917D01*
X43254Y48954D01*
X41217Y50517D01*
X38845Y51499D01*
X36300Y51834D01*
D02*
G37*
G36*
X227390Y22500D02*
X220100D01*
Y15210D01*
X227390D01*
Y22500D01*
D02*
G37*
G36*
X217100D02*
X209810D01*
Y15210D01*
X217100D01*
Y22500D01*
D02*
G37*
G36*
X142390D02*
X135100D01*
Y15210D01*
X142390D01*
Y22500D01*
D02*
G37*
G36*
X132100D02*
X124810D01*
Y15210D01*
X132100D01*
Y22500D01*
D02*
G37*
G36*
X59090D02*
X51800D01*
Y15210D01*
X59090D01*
Y22500D01*
D02*
G37*
G36*
X48800D02*
X41510D01*
Y15210D01*
X48800D01*
Y22500D01*
D02*
G37*
G36*
X159000Y32866D02*
X156705Y32564D01*
X154567Y31678D01*
X152731Y30269D01*
X151322Y28433D01*
X150436Y26295D01*
X150134Y24000D01*
X150436Y21705D01*
X151322Y19567D01*
X152731Y17731D01*
X154567Y16322D01*
X156705Y15436D01*
X159000Y15134D01*
X161295Y15436D01*
X163433Y16322D01*
X165269Y17731D01*
X166678Y19567D01*
X167564Y21705D01*
X167866Y24000D01*
X167564Y26295D01*
X166678Y28433D01*
X165269Y30269D01*
X163433Y31678D01*
X161295Y32564D01*
X159000Y32866D01*
D02*
G37*
G36*
X75700D02*
X73405Y32564D01*
X71267Y31678D01*
X69431Y30269D01*
X68022Y28433D01*
X67136Y26295D01*
X66834Y24000D01*
X67136Y21705D01*
X68022Y19567D01*
X69431Y17731D01*
X71267Y16322D01*
X73405Y15436D01*
X75700Y15134D01*
X77995Y15436D01*
X80133Y16322D01*
X81969Y17731D01*
X83378Y19567D01*
X84264Y21705D01*
X84566Y24000D01*
X84264Y26295D01*
X83378Y28433D01*
X81969Y30269D01*
X80133Y31678D01*
X77995Y32564D01*
X75700Y32866D01*
D02*
G37*
G36*
X99000Y132750D02*
X88500D01*
Y127250D01*
X99000D01*
Y132750D01*
D02*
G37*
G36*
Y124250D02*
X88500D01*
Y118750D01*
X99000D01*
Y124250D01*
D02*
G37*
G36*
X85500D02*
X75000D01*
Y118750D01*
X85500D01*
Y124250D01*
D02*
G37*
%LPD*%
D12*
X430250Y81500D02*
Y113750D01*
X143000Y194000D02*
Y233250D01*
X171500Y83000D02*
X179000D01*
X301500Y47000D02*
Y70750D01*
X321250Y90500D01*
X246000Y118000D02*
X254000D01*
X514000Y126500D02*
X521250D01*
X509750Y122250D02*
X514000Y126500D01*
X419250Y70500D02*
X430250Y81500D01*
X243000Y121000D02*
Y129000D01*
X234000Y138000D02*
X243000Y129000D01*
X227760Y138000D02*
X234000D01*
X243000Y121000D02*
X246000Y118000D01*
X179000Y83000D02*
X181380Y85380D01*
Y123620D01*
X173380Y102620D02*
Y123620D01*
X167000Y232000D02*
Y254000D01*
X205380Y108620D02*
X208000Y106000D01*
X205380Y108620D02*
Y123620D01*
X165380Y208380D02*
Y230380D01*
Y208380D02*
X166380D01*
X161000Y269000D02*
X167000Y263000D01*
X144000Y269000D02*
X161000D01*
X165380Y230380D02*
X166000Y231000D01*
X167000Y232000D01*
D16*
X197380Y74211D02*
X211591Y60000D01*
X246100D01*
X197380Y74211D02*
Y123620D01*
X80750Y209650D02*
X88900Y201500D01*
X80750Y209650D02*
Y218920D01*
X100920Y201500D02*
X105730Y196689D01*
X88900Y201500D02*
X100920D01*
X67231Y232440D02*
X80750Y218920D01*
X42475Y94825D02*
X44600Y92700D01*
X75250Y142750D02*
X132751D01*
X50750Y118250D02*
X75250Y142750D01*
X50750Y103100D02*
Y118250D01*
X77550Y138000D02*
X143000D01*
X55550Y116000D02*
X77550Y138000D01*
X55550Y95200D02*
Y116000D01*
X42850Y95200D02*
X50750Y103100D01*
X42475Y94825D02*
X42850Y95200D01*
X132751Y142750D02*
X134270Y144270D01*
X141270D01*
X143000Y146000D01*
X458500Y93250D02*
X460250D01*
X521000Y199750D02*
Y201750D01*
X512000Y199750D02*
Y207000D01*
X201000Y161000D02*
X228760D01*
X58150Y232440D02*
X67231D01*
X76000Y207500D02*
Y217250D01*
X67310Y225940D02*
X76000Y217250D01*
X58150Y225940D02*
X67310D01*
X105730Y191545D02*
Y196689D01*
X106650Y178270D02*
X122921Y162000D01*
X106650Y178270D02*
Y191545D01*
X97250Y181250D02*
X124500Y154000D01*
X90400Y181250D02*
X97250D01*
X87650Y191545D02*
Y195850D01*
X76000Y207500D02*
X87650Y195850D01*
X266000Y103000D02*
Y176000D01*
X258000Y95000D02*
X266000Y103000D01*
X256000Y186000D02*
X266000Y176000D01*
X87000Y165750D02*
X102000D01*
X27000D02*
X87000D01*
X102000D02*
X103000Y164750D01*
X87650Y184000D02*
X90400Y181250D01*
X122921Y162000D02*
X143000D01*
X124500Y154000D02*
X143000D01*
X68250Y97500D02*
X80750Y110000D01*
X161000D01*
X165380Y114380D01*
X205000Y152000D02*
X207000Y154000D01*
X204000Y151000D02*
X205000Y152000D01*
X184000Y144000D02*
X201000Y161000D01*
X174000Y143574D02*
X196426Y166000D01*
X174000Y142000D02*
Y143574D01*
X196426Y166000D02*
X211380D01*
X207000Y154000D02*
X227760D01*
X532770Y277730D02*
Y286626D01*
X531500Y287896D02*
X532770Y286626D01*
Y277730D02*
X537790Y272710D01*
Y271750D02*
Y272710D01*
X549250Y274157D02*
Y289000D01*
X549250Y274157D02*
X549250Y274157D01*
X549250Y274157D02*
X551328Y272078D01*
X551000Y271750D02*
X551328Y272078D01*
X551000Y271750D02*
X551000Y271750D01*
X531250Y154500D02*
X535250Y150500D01*
X549250Y143500D02*
Y154500D01*
X300000Y200500D02*
Y202350D01*
X287646Y188146D02*
X300000Y200500D01*
X286823Y188146D02*
X287646D01*
X408000Y116500D02*
Y123250D01*
X405250Y126000D02*
X408000Y123250D01*
X377820Y126000D02*
X405250D01*
X393041Y100000D02*
X394000D01*
X381521Y111521D02*
X393041Y100000D01*
X374539Y119500D02*
X391500D01*
X373518Y120521D02*
X374539Y119500D01*
X373768Y111521D02*
X381521D01*
X373820Y130000D02*
X377820Y126000D01*
X391500Y119500D02*
X394000Y117000D01*
X110000Y269000D02*
X127000D01*
X87650Y184000D02*
Y191545D01*
X106650D02*
X107221Y190974D01*
X531450Y226450D02*
X532500D01*
X512000Y207000D02*
X531450Y226450D01*
X520626Y95500D02*
X521750D01*
X512250Y69120D02*
Y87125D01*
X520626Y95500D01*
X445000Y79750D02*
X458500Y93250D01*
X189380Y74620D02*
Y123620D01*
Y74620D02*
X238000Y26000D01*
X459200Y104950D02*
Y111000D01*
X454000Y99750D02*
X459200Y104950D01*
X447000Y99750D02*
X454000D01*
X453000Y120000D02*
X460500D01*
X447250Y114250D02*
X453000Y120000D01*
X522000Y273750D02*
X524000Y271750D01*
X522000Y273750D02*
Y285750D01*
X535250Y143500D02*
Y150500D01*
X521000Y143750D02*
X521250Y143500D01*
X521000Y143750D02*
Y155500D01*
X537000Y199750D02*
X549000Y211750D01*
X530000Y199750D02*
X537000D01*
X529500Y210250D02*
Y212750D01*
X521000Y201750D02*
X529500Y210250D01*
X157000Y118000D02*
X158000Y119000D01*
X149000Y118000D02*
X157000D01*
X205380Y137167D02*
X214213Y146000D01*
X227760D01*
X211380Y166000D02*
X215380Y170000D01*
X208000Y171000D02*
X215000Y178000D01*
X193426Y171000D02*
X208000D01*
X161213Y138787D02*
X193426Y171000D01*
X217000Y194000D02*
X227760D01*
X205000Y182000D02*
X217000Y194000D01*
X205000Y179000D02*
Y182000D01*
X169000Y154000D02*
X214000Y199000D01*
X164000Y154000D02*
X169000D01*
X214000Y199000D02*
Y207760D01*
X215000Y178000D02*
X227760D01*
X169000Y161000D02*
X197380Y189380D01*
X157380Y161000D02*
X169000D01*
X215380Y170000D02*
X227760D01*
X167000D02*
X168000Y171000D01*
X143000Y170000D02*
X167000D01*
X143000Y178000D02*
X160420D01*
X143000Y178000D02*
X143000Y178000D01*
X143000Y186000D02*
X167000D01*
X227760D02*
X256000D01*
X242000Y155000D02*
Y158000D01*
X238000Y162000D02*
X242000Y158000D01*
X227760Y162000D02*
X238000D01*
X197380Y189380D02*
Y208380D01*
X227760Y162000D02*
X228760Y161000D01*
X238000Y26000D02*
X243000D01*
X246100Y60000D02*
X256700Y49400D01*
X530250Y73000D02*
X538750Y81500D01*
X530250Y69120D02*
Y73000D01*
X521250Y81000D02*
X521750Y81500D01*
X521250Y69120D02*
Y81000D01*
X188460Y122700D02*
X189380Y123620D01*
X213380Y208380D02*
X214000Y207760D01*
X142500Y82250D02*
X153750D01*
X144750Y99000D02*
X145750Y98000D01*
X156000D01*
X165380Y114380D02*
Y123620D01*
D17*
X394500Y234250D02*
D03*
X377500D02*
D03*
X549000Y211750D02*
D03*
X532000D02*
D03*
X549500Y226450D02*
D03*
X532500D02*
D03*
X430000Y99750D02*
D03*
X447000D02*
D03*
X430250Y113750D02*
D03*
X447250D02*
D03*
X445000Y79750D02*
D03*
X462000D02*
D03*
X521750Y81500D02*
D03*
X538750D02*
D03*
X521750Y95500D02*
D03*
X538750D02*
D03*
X166000Y244000D02*
D03*
X183000D02*
D03*
X166000Y231000D02*
D03*
X183000D02*
D03*
X143500Y206320D02*
D03*
X126500D02*
D03*
X143500Y221320D02*
D03*
X126500D02*
D03*
X144000Y269000D02*
D03*
X127000D02*
D03*
X171500Y98000D02*
D03*
X154500D02*
D03*
X171500Y83000D02*
D03*
X154500D02*
D03*
X208000Y106000D02*
D03*
X225000D02*
D03*
D18*
X400750Y211750D02*
D03*
X378750Y202250D02*
D03*
Y221250D02*
D03*
D19*
X408000Y239000D02*
D03*
Y232500D02*
D03*
Y226000D02*
D03*
X426700D02*
D03*
Y232500D02*
D03*
Y239000D02*
D03*
D20*
X417350Y235350D02*
D03*
X356500Y93750D02*
D03*
Y117250D02*
D03*
D21*
X417350Y224750D02*
D03*
D22*
X300000Y202350D02*
D03*
Y268350D02*
D03*
D23*
X330000Y156000D02*
D03*
X345000D02*
D03*
X313000Y137000D02*
D03*
X298000D02*
D03*
X313000Y156000D02*
D03*
X298000D02*
D03*
X330000Y174000D02*
D03*
X345000D02*
D03*
X313000D02*
D03*
X298000D02*
D03*
D24*
X246000Y154000D02*
D03*
Y171000D02*
D03*
X394000Y100000D02*
D03*
Y117000D02*
D03*
X340250Y115750D02*
D03*
Y98750D02*
D03*
X408000Y116500D02*
D03*
Y99500D02*
D03*
X535250Y126500D02*
D03*
Y143500D02*
D03*
X521250Y126500D02*
D03*
Y143500D02*
D03*
X549250Y143500D02*
D03*
Y126500D02*
D03*
X537790Y254750D02*
D03*
Y271750D02*
D03*
X524000Y254750D02*
D03*
Y271750D02*
D03*
X551000D02*
D03*
Y254750D02*
D03*
X243000Y121000D02*
D03*
Y104000D02*
D03*
D25*
X227760Y138000D02*
D03*
Y146000D02*
D03*
Y154000D02*
D03*
Y162000D02*
D03*
Y170000D02*
D03*
Y178000D02*
D03*
Y186000D02*
D03*
Y194000D02*
D03*
X143000D02*
D03*
Y186000D02*
D03*
Y178000D02*
D03*
Y170000D02*
D03*
Y162000D02*
D03*
Y154000D02*
D03*
Y146000D02*
D03*
Y138000D02*
D03*
D26*
X213380Y208380D02*
D03*
X205380D02*
D03*
X197380D02*
D03*
X189380D02*
D03*
X181380D02*
D03*
X173380D02*
D03*
X165380D02*
D03*
X157380D02*
D03*
Y123620D02*
D03*
X165380D02*
D03*
X173380D02*
D03*
X181380D02*
D03*
X189380D02*
D03*
X197380D02*
D03*
X205380D02*
D03*
X213380D02*
D03*
D27*
X448940Y36000D02*
D03*
X395750Y35500D02*
D03*
X582000Y121750D02*
D03*
X582250Y68000D02*
D03*
X582060Y249750D02*
D03*
X583000Y202000D02*
D03*
X419000Y267000D02*
D03*
X372000Y267000D02*
D03*
D28*
X58150Y238940D02*
D03*
Y232440D02*
D03*
Y225940D02*
D03*
Y219440D02*
D03*
Y212940D02*
D03*
D29*
X87650Y191545D02*
D03*
X97150D02*
D03*
X106650D02*
D03*
Y217745D02*
D03*
X97150D02*
D03*
X87650D02*
D03*
D30*
X110000Y269000D02*
D03*
X86500D02*
D03*
X140000Y98300D02*
D03*
X116500D02*
D03*
X140000Y83000D02*
D03*
X116500D02*
D03*
D31*
X27000Y165750D02*
D03*
X87000D02*
D03*
D32*
X27000Y125750D02*
D03*
X87000D02*
D03*
D61*
X321250Y174000D02*
Y177750D01*
X300000Y199000D02*
X321250Y177750D01*
Y106250D02*
Y137000D01*
Y174000D01*
X344000Y67750D02*
X348750D01*
X321250Y90500D02*
X344000Y67750D01*
X321250Y90500D02*
Y106250D01*
X300000Y199000D02*
Y200500D01*
X328750Y98750D02*
X340250D01*
X321250Y106250D02*
X328750Y98750D01*
D62*
X57000Y241750D02*
X69750D01*
X94000Y231250D02*
X95250Y230000D01*
X80250Y231250D02*
X94000D01*
X69750Y241750D02*
X80250Y231250D01*
X313000Y137000D02*
X321250D01*
X410250Y234750D02*
Y238900D01*
X417350Y246000D01*
X423000Y240350D01*
Y234750D02*
Y240350D01*
X278000Y279000D02*
X284000Y273000D01*
X278000Y279000D02*
X289350D01*
X300000Y268350D01*
X284000Y273000D02*
X288650Y268350D01*
X300000D01*
D63*
X95250Y230000D02*
X97150Y228100D01*
Y217745D02*
Y228100D01*
X512250Y243000D02*
X524000Y254750D01*
X510750Y243000D02*
X512250D01*
X537790Y254750D02*
X537790Y254750D01*
X524000Y254750D02*
X537790D01*
X521250Y126500D02*
X535250D01*
X419500Y218750D02*
X428500D01*
X418250Y222500D02*
X431000D01*
X428500Y218750D02*
X428750Y219000D01*
D64*
X355000Y115750D02*
X356500Y117250D01*
X340250Y115750D02*
X355000D01*
X340000Y99000D02*
X340250Y98750D01*
D65*
X417350Y246000D02*
Y265350D01*
X419000Y267000D01*
D66*
X381500Y221250D02*
X394500Y234250D01*
X378750Y221250D02*
X381500D01*
X394500Y234250D02*
X402750Y226000D01*
X408000D01*
D67*
X167000Y254000D02*
Y263000D01*
D68*
X218600Y24000D02*
D03*
X133600D02*
D03*
X50300D02*
D03*
D69*
X231300Y49400D02*
D03*
X244000Y24000D02*
D03*
X256700Y49400D02*
D03*
X146300D02*
D03*
X159000Y24000D02*
D03*
X171700Y49400D02*
D03*
X63000D02*
D03*
X75700Y24000D02*
D03*
X88400Y49400D02*
D03*
D70*
X204600Y42000D02*
D03*
X119600D02*
D03*
X36300D02*
D03*
D71*
X390250Y160000D02*
D03*
X489000Y214000D02*
D03*
D72*
X415250Y160000D02*
D03*
X476000Y153000D02*
D03*
X464000Y214000D02*
D03*
D73*
X476000Y128000D02*
D03*
D74*
X57150Y263690D02*
D03*
Y189190D02*
D03*
D75*
X19150Y265190D02*
D03*
Y187690D02*
D03*
D76*
X357450Y21250D02*
D03*
X344750D02*
D03*
X322750Y45750D02*
D03*
X93650Y95200D02*
D03*
Y82500D02*
D03*
X80950Y95200D02*
D03*
Y82500D02*
D03*
X68250Y95200D02*
D03*
Y82500D02*
D03*
X55550Y95200D02*
D03*
Y82500D02*
D03*
X42850Y95200D02*
D03*
D77*
X332050Y21250D02*
D03*
X42850Y82500D02*
D03*
D78*
X322750Y58450D02*
D03*
D79*
X58250Y204750D02*
D03*
X45388Y212500D02*
D03*
X52978Y144750D02*
D03*
X108150Y21000D02*
D03*
X193946Y137605D02*
D03*
X143125Y232750D02*
D03*
X96820Y209500D02*
D03*
X467250Y87250D02*
D03*
X460250Y93250D02*
D03*
X540040Y156500D02*
D03*
X504750Y222750D02*
D03*
X521000Y199750D02*
D03*
X512000D02*
D03*
X397500Y201750D02*
D03*
X112000Y255000D02*
D03*
X259000Y107000D02*
D03*
X103000Y164750D02*
D03*
X96820Y191250D02*
D03*
X336750Y71500D02*
D03*
X283000Y66570D02*
D03*
X301500Y47000D02*
D03*
X352250Y70500D02*
D03*
X350500Y80750D02*
D03*
X254000Y118000D02*
D03*
X366500Y56750D02*
D03*
Y37120D02*
D03*
X344500Y67250D02*
D03*
X74500Y183573D02*
D03*
X126000Y176854D02*
D03*
X218000Y88750D02*
D03*
X258750Y33000D02*
D03*
X177000Y26500D02*
D03*
X42850Y125750D02*
D03*
X19000Y151750D02*
D03*
X19750Y56750D02*
D03*
X23500Y90500D02*
D03*
X27000Y239000D02*
D03*
X28000Y214000D02*
D03*
X449000Y278750D02*
D03*
X584750Y281250D02*
D03*
X545138Y15750D02*
D03*
X519500Y15250D02*
D03*
X491000Y17576D02*
D03*
X510000Y157500D02*
D03*
X205000Y152000D02*
D03*
X586000Y156000D02*
D03*
Y36000D02*
D03*
X496000Y276000D02*
D03*
X481000Y246000D02*
D03*
X451000D02*
D03*
X301000D02*
D03*
X256000Y276000D02*
D03*
X540500Y286500D02*
D03*
X549250Y289000D02*
D03*
X531500Y287896D02*
D03*
X510750Y243000D02*
D03*
X531250Y154500D02*
D03*
X549250D02*
D03*
X509750Y122250D02*
D03*
X286823Y188146D02*
D03*
X373768Y111521D02*
D03*
X373518Y120521D02*
D03*
X364250Y134140D02*
D03*
X373820Y130000D02*
D03*
X361250Y200750D02*
D03*
X343500Y199000D02*
D03*
X354500Y185000D02*
D03*
X561000Y286000D02*
D03*
X557000Y226500D02*
D03*
X550000Y240000D02*
D03*
X537250Y239250D02*
D03*
X525750Y239000D02*
D03*
X559500Y24750D02*
D03*
X570120Y35000D02*
D03*
X571000Y169250D02*
D03*
X558750Y156250D02*
D03*
X511000Y97250D02*
D03*
X555500Y96250D02*
D03*
X523250Y113500D02*
D03*
X537500Y112750D02*
D03*
X550000Y113750D02*
D03*
X323750Y127500D02*
D03*
X419250Y70500D02*
D03*
X215000Y74250D02*
D03*
X465500Y102250D02*
D03*
X419000Y118000D02*
D03*
X355450Y133750D02*
D03*
X285750Y155500D02*
D03*
Y136500D02*
D03*
X289000Y119910D02*
D03*
X346500Y134140D02*
D03*
X337750Y134000D02*
D03*
X387250Y48000D02*
D03*
X581060Y262250D02*
D03*
X582060Y249750D02*
D03*
X581310Y237000D02*
D03*
X569930Y256250D02*
D03*
X570060Y241250D02*
D03*
X593560Y241500D02*
D03*
X593810Y257250D02*
D03*
X581000Y134250D02*
D03*
X582000Y121750D02*
D03*
X581250Y109000D02*
D03*
X569870Y128250D02*
D03*
X570000Y113250D02*
D03*
X593500Y113500D02*
D03*
X593750Y129250D02*
D03*
X581250Y80500D02*
D03*
X582250Y68000D02*
D03*
X581500Y55250D02*
D03*
X570120Y74500D02*
D03*
X570250Y59500D02*
D03*
X593750Y59750D02*
D03*
X594000Y75500D02*
D03*
X584000Y189500D02*
D03*
X583000Y202000D02*
D03*
X583750Y214750D02*
D03*
X595130Y195500D02*
D03*
X595000Y210500D02*
D03*
X571500Y210250D02*
D03*
X571250Y194500D02*
D03*
X436440Y35000D02*
D03*
X448940Y36000D02*
D03*
X461690Y35250D02*
D03*
X442440Y23870D02*
D03*
X457440Y24000D02*
D03*
X457190Y47500D02*
D03*
X441440Y47750D02*
D03*
X403000Y47750D02*
D03*
X403250Y24250D02*
D03*
X388250Y24120D02*
D03*
X407500Y35500D02*
D03*
X394750Y36250D02*
D03*
X382250Y35250D02*
D03*
X459200Y111000D02*
D03*
X401750Y85750D02*
D03*
X418000Y106000D02*
D03*
X417250Y92700D02*
D03*
X521000Y155500D02*
D03*
X419500Y218750D02*
D03*
X428750Y219000D02*
D03*
X415000Y212350D02*
D03*
X424000D02*
D03*
X433000D02*
D03*
X384000Y255640D02*
D03*
X372000Y259000D02*
D03*
X385000Y270000D02*
D03*
X367000Y281000D02*
D03*
X379000D02*
D03*
X373000Y270000D02*
D03*
X286000Y281000D02*
D03*
X284000Y273000D02*
D03*
X278000Y279000D02*
D03*
X460750Y120000D02*
D03*
X522000Y285750D02*
D03*
X286000Y176000D02*
D03*
X288000Y108250D02*
D03*
X221000Y128000D02*
D03*
X205380Y137167D02*
D03*
X205000Y179000D02*
D03*
X184000Y144000D02*
D03*
X174000Y142000D02*
D03*
X162000Y138000D02*
D03*
X258000Y174000D02*
D03*
X168000Y171000D02*
D03*
X160420Y178000D02*
D03*
X167000Y186000D02*
D03*
X146000Y127000D02*
D03*
X149000Y118000D02*
D03*
X258000Y95000D02*
D03*
X164000Y154000D02*
D03*
X157380Y161000D02*
D03*
X222000Y210000D02*
D03*
X233000Y105000D02*
D03*
X530250Y69120D02*
D03*
X521250D02*
D03*
X512250D02*
D03*
X500250Y52500D02*
D03*
X500590Y44500D02*
D03*
X500250Y36500D02*
D03*
Y60500D02*
D03*
X499000Y189750D02*
D03*
Y165750D02*
D03*
X499340Y173750D02*
D03*
X499000Y181750D02*
D03*
X106000Y80000D02*
D03*
X107000Y99000D02*
D03*
X530000Y199750D02*
D03*
X257000Y246350D02*
D03*
X287000Y246350D02*
D03*
X273000Y246350D02*
D03*
X343000Y271350D02*
D03*
X361000Y270350D02*
D03*
X171700Y196000D02*
D03*
X86500Y281000D02*
D03*
X167000Y263000D02*
D03*
X183000Y254000D02*
D03*
X26750Y107750D02*
D03*
X101250Y125750D02*
D03*
X126400Y232000D02*
D03*
X126000Y195000D02*
D03*
X157380Y196000D02*
D03*
X177000Y222000D02*
D03*
X167000Y254000D02*
D03*
M02*
