G04*
G04 #@! TF.GenerationSoftware,Altium Limited,Altium Designer,18.1.9 (240)*
G04*
G04 Layer_Color=32896*
%FSLAX44Y44*%
%MOMM*%
G71*
G01*
G75*
%ADD11C,0.2000*%
%ADD14C,0.2500*%
G36*
X322278Y10186D02*
X322341Y10161D01*
X322365Y10149D01*
X322378Y10136D01*
X322391Y10130D01*
X322397Y10124D01*
X322428Y10093D01*
X322447Y10055D01*
X322472Y9980D01*
X322478Y9942D01*
X322484Y9911D01*
Y9893D01*
Y9886D01*
Y5125D01*
X322478Y5088D01*
X322472Y5075D01*
Y5069D01*
X322459Y5050D01*
X322440Y5044D01*
X322428Y5031D01*
X322422D01*
X322384Y5025D01*
X322353Y5019D01*
X322328Y5013D01*
X322315D01*
X322259Y5006D01*
X322203Y5000D01*
X322078D01*
X322028Y5006D01*
X321997Y5013D01*
X321984D01*
X321941Y5019D01*
X321903Y5025D01*
X321884Y5031D01*
X321878D01*
X321847Y5044D01*
X321828Y5056D01*
X321822Y5063D01*
X321816Y5069D01*
X321803Y5088D01*
X321797Y5106D01*
Y5119D01*
Y5125D01*
Y9630D01*
X320054Y5106D01*
X320035Y5075D01*
X320022Y5069D01*
Y5063D01*
X319979Y5038D01*
X319966Y5031D01*
X319960D01*
X319929Y5025D01*
X319891Y5019D01*
X319866Y5013D01*
X319860D01*
X319810Y5006D01*
X319766Y5000D01*
X319660D01*
X319616Y5006D01*
X319579D01*
X319535Y5013D01*
X319504Y5019D01*
X319485Y5025D01*
X319479D01*
X319447Y5038D01*
X319429Y5044D01*
X319422Y5056D01*
X319416D01*
X319385Y5088D01*
X319379Y5100D01*
Y5106D01*
X317554Y9630D01*
X317542D01*
Y5125D01*
X317535Y5088D01*
X317529Y5075D01*
Y5069D01*
X317511Y5050D01*
X317492Y5044D01*
X317479Y5031D01*
X317473D01*
X317442Y5025D01*
X317404Y5019D01*
X317379Y5013D01*
X317367D01*
X317311Y5006D01*
X317260Y5000D01*
X317136D01*
X317079Y5006D01*
X317048Y5013D01*
X317036D01*
X316992Y5019D01*
X316961Y5025D01*
X316942Y5031D01*
X316936D01*
X316904Y5044D01*
X316886Y5056D01*
X316879Y5063D01*
X316873Y5069D01*
X316861Y5088D01*
X316854Y5106D01*
Y5119D01*
Y5125D01*
Y9886D01*
X316861Y9942D01*
X316867Y9986D01*
X316873Y10011D01*
X316879Y10024D01*
X316898Y10067D01*
X316923Y10099D01*
X316942Y10117D01*
X316948Y10124D01*
X316979Y10149D01*
X317011Y10167D01*
X317029Y10174D01*
X317042Y10180D01*
X317079Y10192D01*
X317117Y10199D01*
X317598D01*
X317667Y10192D01*
X317723Y10186D01*
X317767Y10180D01*
X317773Y10174D01*
X317779D01*
X317829Y10149D01*
X317873Y10130D01*
X317904Y10105D01*
X317917Y10099D01*
X317960Y10055D01*
X317998Y10017D01*
X318023Y9980D01*
X318035Y9974D01*
Y9967D01*
X318073Y9899D01*
X318098Y9836D01*
X318110Y9805D01*
X318123Y9780D01*
X318129Y9768D01*
Y9761D01*
X319672Y6031D01*
X319691D01*
X321172Y9774D01*
X321203Y9849D01*
X321228Y9911D01*
X321253Y9949D01*
X321259Y9955D01*
Y9961D01*
X321297Y10017D01*
X321334Y10055D01*
X321366Y10086D01*
X321372Y10093D01*
X321378D01*
X321435Y10130D01*
X321491Y10155D01*
X321516Y10161D01*
X321534Y10167D01*
X321547Y10174D01*
X321553D01*
X321628Y10186D01*
X321703Y10199D01*
X322240D01*
X322278Y10186D01*
D02*
G37*
G36*
X330020Y10217D02*
X330045D01*
X330064Y10211D01*
X330076D01*
X330126Y10205D01*
X330157Y10192D01*
X330176Y10180D01*
X330182Y10174D01*
X330201Y10149D01*
X330207Y10124D01*
X330214Y10105D01*
Y10093D01*
X330207Y10049D01*
X330201Y10005D01*
X330195Y9967D01*
X330188Y9961D01*
Y9955D01*
X328820Y5175D01*
X328808Y5138D01*
X328795Y5106D01*
X328789Y5088D01*
X328783Y5081D01*
X328758Y5063D01*
X328726Y5044D01*
X328701Y5038D01*
X328695Y5031D01*
X328651Y5025D01*
X328601Y5019D01*
X328564Y5013D01*
X328551D01*
X328476Y5006D01*
X328401Y5000D01*
X328239D01*
X328176Y5006D01*
X328152D01*
X328133Y5013D01*
X328120D01*
X328064Y5019D01*
X328027Y5025D01*
X327995Y5031D01*
X327989D01*
X327952Y5050D01*
X327926Y5063D01*
X327914Y5075D01*
X327908Y5081D01*
X327889Y5113D01*
X327877Y5144D01*
X327864Y5169D01*
Y5175D01*
X326864Y9080D01*
X326858D01*
X325771Y5175D01*
X325758Y5138D01*
X325746Y5106D01*
X325740Y5088D01*
X325733Y5081D01*
X325708Y5063D01*
X325677Y5044D01*
X325652Y5038D01*
X325646Y5031D01*
X325602Y5025D01*
X325552Y5019D01*
X325515Y5013D01*
X325502D01*
X325433Y5006D01*
X325365Y5000D01*
X325209D01*
X325146Y5006D01*
X325121D01*
X325102Y5013D01*
X325090D01*
X325033Y5019D01*
X324990Y5025D01*
X324965Y5031D01*
X324952D01*
X324915Y5050D01*
X324890Y5063D01*
X324871Y5075D01*
X324865Y5081D01*
X324846Y5113D01*
X324827Y5144D01*
X324821Y5169D01*
X324815Y5175D01*
X323446Y9949D01*
X323434Y10011D01*
X323422Y10055D01*
Y10086D01*
Y10093D01*
X323428Y10124D01*
X323434Y10149D01*
X323446Y10161D01*
X323453Y10167D01*
X323484Y10186D01*
X323515Y10199D01*
X323540Y10211D01*
X323553D01*
X323609Y10217D01*
X323678Y10224D01*
X323821D01*
X323884Y10217D01*
X323921Y10211D01*
X323934D01*
X323978Y10205D01*
X324015Y10199D01*
X324034Y10192D01*
X324040Y10186D01*
X324065Y10174D01*
X324077Y10161D01*
X324090Y10149D01*
Y10142D01*
X324109Y10099D01*
X324115Y10080D01*
Y10074D01*
X325252Y5744D01*
X325258D01*
X326446Y10067D01*
X326458Y10099D01*
X326464Y10124D01*
X326471Y10136D01*
X326477Y10142D01*
X326496Y10161D01*
X326514Y10174D01*
X326533Y10186D01*
X326539D01*
X326571Y10199D01*
X326608Y10205D01*
X326633Y10211D01*
X326646D01*
X326702Y10217D01*
X326758Y10224D01*
X326902D01*
X326964Y10217D01*
X326983D01*
X327002Y10211D01*
X327014D01*
X327064Y10205D01*
X327102Y10199D01*
X327127Y10192D01*
X327133Y10186D01*
X327158Y10174D01*
X327177Y10161D01*
X327183Y10149D01*
X327189Y10142D01*
X327208Y10093D01*
X327214Y10074D01*
Y10067D01*
X328320Y5744D01*
X328326D01*
X329489Y10074D01*
X329495Y10105D01*
X329501Y10130D01*
X329507Y10142D01*
X329514Y10149D01*
X329526Y10167D01*
X329545Y10180D01*
X329557Y10192D01*
X329564D01*
X329595Y10205D01*
X329632Y10211D01*
X329664Y10217D01*
X329676D01*
X329732Y10224D01*
X329957D01*
X330020Y10217D01*
D02*
G37*
G36*
X333806Y10186D02*
X333862Y10167D01*
X333887Y10155D01*
X333906Y10142D01*
X333913Y10136D01*
X333919Y10130D01*
X333944Y10099D01*
X333963Y10067D01*
X333988Y9986D01*
X333994Y9955D01*
X334000Y9924D01*
Y9905D01*
Y9899D01*
Y5125D01*
X333994Y5088D01*
X333988Y5075D01*
Y5069D01*
X333969Y5050D01*
X333950Y5044D01*
X333937Y5031D01*
X333931D01*
X333900Y5025D01*
X333862Y5019D01*
X333838Y5013D01*
X333825D01*
X333769Y5006D01*
X333713Y5000D01*
X333594D01*
X333538Y5006D01*
X333506Y5013D01*
X333494D01*
X333450Y5019D01*
X333413Y5025D01*
X333394Y5031D01*
X333388D01*
X333363Y5044D01*
X333344Y5056D01*
X333338Y5063D01*
X333331Y5069D01*
X333319Y5088D01*
X333313Y5106D01*
Y5119D01*
Y5125D01*
Y6993D01*
X332725D01*
X332550Y6999D01*
X332394Y7012D01*
X332250Y7031D01*
X332132Y7056D01*
X332032Y7074D01*
X331994Y7087D01*
X331963Y7093D01*
X331938Y7099D01*
X331913Y7106D01*
X331907Y7112D01*
X331900D01*
X331776Y7162D01*
X331663Y7212D01*
X331563Y7268D01*
X331482Y7324D01*
X331413Y7374D01*
X331363Y7412D01*
X331332Y7437D01*
X331319Y7449D01*
X331232Y7537D01*
X331157Y7624D01*
X331095Y7712D01*
X331045Y7799D01*
X331001Y7868D01*
X330976Y7930D01*
X330957Y7968D01*
X330951Y7974D01*
Y7980D01*
X330907Y8099D01*
X330876Y8224D01*
X330851Y8337D01*
X330838Y8449D01*
X330826Y8543D01*
Y8580D01*
X330820Y8618D01*
Y8643D01*
Y8662D01*
Y8674D01*
Y8680D01*
X330826Y8787D01*
X330832Y8887D01*
X330845Y8980D01*
X330863Y9055D01*
X330882Y9124D01*
X330895Y9168D01*
X330901Y9199D01*
X330907Y9211D01*
X330938Y9299D01*
X330976Y9380D01*
X331013Y9455D01*
X331051Y9518D01*
X331088Y9568D01*
X331113Y9605D01*
X331132Y9630D01*
X331138Y9636D01*
X331194Y9705D01*
X331257Y9768D01*
X331319Y9818D01*
X331376Y9861D01*
X331432Y9899D01*
X331469Y9924D01*
X331494Y9942D01*
X331507Y9949D01*
X331588Y9992D01*
X331669Y10030D01*
X331738Y10055D01*
X331807Y10080D01*
X331857Y10099D01*
X331900Y10111D01*
X331926Y10117D01*
X331938D01*
X332013Y10136D01*
X332082Y10149D01*
X332144Y10161D01*
X332194Y10167D01*
X332238Y10174D01*
X332275Y10180D01*
X332300D01*
X332419Y10192D01*
X332469D01*
X332519Y10199D01*
X333769D01*
X333806Y10186D01*
D02*
G37*
G36*
X318778Y73936D02*
X318841Y73911D01*
X318866Y73899D01*
X318878Y73886D01*
X318890Y73880D01*
X318897Y73874D01*
X318928Y73842D01*
X318947Y73805D01*
X318972Y73730D01*
X318978Y73692D01*
X318984Y73661D01*
Y73643D01*
Y73636D01*
Y68875D01*
X318978Y68837D01*
X318972Y68825D01*
Y68819D01*
X318959Y68800D01*
X318941Y68794D01*
X318928Y68781D01*
X318922D01*
X318884Y68775D01*
X318853Y68769D01*
X318828Y68762D01*
X318815D01*
X318759Y68756D01*
X318703Y68750D01*
X318578D01*
X318528Y68756D01*
X318497Y68762D01*
X318484D01*
X318441Y68769D01*
X318403Y68775D01*
X318384Y68781D01*
X318378D01*
X318347Y68794D01*
X318328Y68806D01*
X318322Y68812D01*
X318316Y68819D01*
X318303Y68837D01*
X318297Y68856D01*
Y68869D01*
Y68875D01*
Y73380D01*
X316554Y68856D01*
X316535Y68825D01*
X316522Y68819D01*
Y68812D01*
X316479Y68787D01*
X316466Y68781D01*
X316460D01*
X316429Y68775D01*
X316391Y68769D01*
X316366Y68762D01*
X316360D01*
X316310Y68756D01*
X316266Y68750D01*
X316160D01*
X316116Y68756D01*
X316079D01*
X316035Y68762D01*
X316004Y68769D01*
X315985Y68775D01*
X315979D01*
X315947Y68787D01*
X315929Y68794D01*
X315923Y68806D01*
X315916D01*
X315885Y68837D01*
X315879Y68850D01*
Y68856D01*
X314054Y73380D01*
X314042D01*
Y68875D01*
X314035Y68837D01*
X314029Y68825D01*
Y68819D01*
X314011Y68800D01*
X313992Y68794D01*
X313979Y68781D01*
X313973D01*
X313942Y68775D01*
X313904Y68769D01*
X313879Y68762D01*
X313867D01*
X313811Y68756D01*
X313761Y68750D01*
X313636D01*
X313579Y68756D01*
X313548Y68762D01*
X313536D01*
X313492Y68769D01*
X313461Y68775D01*
X313442Y68781D01*
X313436D01*
X313404Y68794D01*
X313386Y68806D01*
X313379Y68812D01*
X313373Y68819D01*
X313361Y68837D01*
X313354Y68856D01*
Y68869D01*
Y68875D01*
Y73636D01*
X313361Y73692D01*
X313367Y73736D01*
X313373Y73761D01*
X313379Y73774D01*
X313398Y73818D01*
X313423Y73849D01*
X313442Y73867D01*
X313448Y73874D01*
X313479Y73899D01*
X313511Y73917D01*
X313529Y73924D01*
X313542Y73930D01*
X313579Y73942D01*
X313617Y73949D01*
X314098D01*
X314167Y73942D01*
X314223Y73936D01*
X314267Y73930D01*
X314273Y73924D01*
X314279D01*
X314329Y73899D01*
X314373Y73880D01*
X314404Y73855D01*
X314417Y73849D01*
X314460Y73805D01*
X314498Y73767D01*
X314523Y73730D01*
X314535Y73724D01*
Y73717D01*
X314573Y73649D01*
X314598Y73586D01*
X314610Y73555D01*
X314623Y73530D01*
X314629Y73517D01*
Y73511D01*
X316172Y69781D01*
X316191D01*
X317672Y73524D01*
X317703Y73599D01*
X317728Y73661D01*
X317753Y73699D01*
X317759Y73705D01*
Y73711D01*
X317797Y73767D01*
X317834Y73805D01*
X317866Y73836D01*
X317872Y73842D01*
X317878D01*
X317934Y73880D01*
X317991Y73905D01*
X318016Y73911D01*
X318034Y73917D01*
X318047Y73924D01*
X318053D01*
X318128Y73936D01*
X318203Y73949D01*
X318741D01*
X318778Y73936D01*
D02*
G37*
G36*
X326520Y73967D02*
X326545D01*
X326563Y73961D01*
X326576D01*
X326626Y73955D01*
X326657Y73942D01*
X326676Y73930D01*
X326682Y73924D01*
X326701Y73899D01*
X326707Y73874D01*
X326713Y73855D01*
Y73842D01*
X326707Y73799D01*
X326701Y73755D01*
X326695Y73717D01*
X326688Y73711D01*
Y73705D01*
X325320Y68925D01*
X325308Y68888D01*
X325295Y68856D01*
X325289Y68837D01*
X325283Y68831D01*
X325258Y68812D01*
X325226Y68794D01*
X325201Y68787D01*
X325195Y68781D01*
X325151Y68775D01*
X325101Y68769D01*
X325064Y68762D01*
X325051D01*
X324976Y68756D01*
X324901Y68750D01*
X324739D01*
X324677Y68756D01*
X324651D01*
X324633Y68762D01*
X324620D01*
X324564Y68769D01*
X324526Y68775D01*
X324495Y68781D01*
X324489D01*
X324451Y68800D01*
X324427Y68812D01*
X324414Y68825D01*
X324408Y68831D01*
X324389Y68863D01*
X324377Y68894D01*
X324364Y68919D01*
Y68925D01*
X323364Y72830D01*
X323358D01*
X322271Y68925D01*
X322258Y68888D01*
X322246Y68856D01*
X322240Y68837D01*
X322233Y68831D01*
X322208Y68812D01*
X322177Y68794D01*
X322152Y68787D01*
X322146Y68781D01*
X322102Y68775D01*
X322052Y68769D01*
X322015Y68762D01*
X322002D01*
X321933Y68756D01*
X321865Y68750D01*
X321708D01*
X321646Y68756D01*
X321621D01*
X321602Y68762D01*
X321590D01*
X321534Y68769D01*
X321490Y68775D01*
X321465Y68781D01*
X321452D01*
X321415Y68800D01*
X321390Y68812D01*
X321371Y68825D01*
X321365Y68831D01*
X321346Y68863D01*
X321327Y68894D01*
X321321Y68919D01*
X321315Y68925D01*
X319946Y73699D01*
X319934Y73761D01*
X319921Y73805D01*
Y73836D01*
Y73842D01*
X319928Y73874D01*
X319934Y73899D01*
X319946Y73911D01*
X319953Y73917D01*
X319984Y73936D01*
X320015Y73949D01*
X320040Y73961D01*
X320053D01*
X320109Y73967D01*
X320178Y73974D01*
X320321D01*
X320384Y73967D01*
X320421Y73961D01*
X320434D01*
X320478Y73955D01*
X320515Y73949D01*
X320534Y73942D01*
X320540Y73936D01*
X320565Y73924D01*
X320578Y73911D01*
X320590Y73899D01*
Y73892D01*
X320609Y73849D01*
X320615Y73830D01*
Y73824D01*
X321752Y69494D01*
X321758D01*
X322946Y73818D01*
X322958Y73849D01*
X322964Y73874D01*
X322971Y73886D01*
X322977Y73892D01*
X322996Y73911D01*
X323014Y73924D01*
X323033Y73936D01*
X323039D01*
X323071Y73949D01*
X323108Y73955D01*
X323133Y73961D01*
X323146D01*
X323202Y73967D01*
X323258Y73974D01*
X323402D01*
X323464Y73967D01*
X323483D01*
X323502Y73961D01*
X323514D01*
X323564Y73955D01*
X323602Y73949D01*
X323627Y73942D01*
X323633Y73936D01*
X323658Y73924D01*
X323677Y73911D01*
X323683Y73899D01*
X323689Y73892D01*
X323708Y73842D01*
X323714Y73824D01*
Y73818D01*
X324820Y69494D01*
X324827D01*
X325989Y73824D01*
X325995Y73855D01*
X326001Y73880D01*
X326007Y73892D01*
X326014Y73899D01*
X326026Y73917D01*
X326045Y73930D01*
X326057Y73942D01*
X326064D01*
X326095Y73955D01*
X326132Y73961D01*
X326164Y73967D01*
X326176D01*
X326232Y73974D01*
X326457D01*
X326520Y73967D01*
D02*
G37*
G36*
X330306Y73936D02*
X330363Y73917D01*
X330387Y73905D01*
X330406Y73892D01*
X330412Y73886D01*
X330419Y73880D01*
X330444Y73849D01*
X330462Y73818D01*
X330488Y73736D01*
X330494Y73705D01*
X330500Y73674D01*
Y73655D01*
Y73649D01*
Y68875D01*
X330494Y68837D01*
X330488Y68825D01*
Y68819D01*
X330469Y68800D01*
X330450Y68794D01*
X330438Y68781D01*
X330431D01*
X330400Y68775D01*
X330363Y68769D01*
X330337Y68762D01*
X330325D01*
X330269Y68756D01*
X330213Y68750D01*
X330094D01*
X330038Y68756D01*
X330006Y68762D01*
X329994D01*
X329950Y68769D01*
X329913Y68775D01*
X329894Y68781D01*
X329888D01*
X329863Y68794D01*
X329844Y68806D01*
X329838Y68812D01*
X329831Y68819D01*
X329819Y68837D01*
X329813Y68856D01*
Y68869D01*
Y68875D01*
Y70743D01*
X329225D01*
X329050Y70750D01*
X328894Y70762D01*
X328750Y70781D01*
X328632Y70806D01*
X328532Y70824D01*
X328494Y70837D01*
X328463Y70843D01*
X328438Y70849D01*
X328413Y70856D01*
X328407Y70862D01*
X328400D01*
X328276Y70912D01*
X328163Y70962D01*
X328063Y71018D01*
X327982Y71074D01*
X327913Y71124D01*
X327863Y71162D01*
X327832Y71187D01*
X327819Y71199D01*
X327732Y71287D01*
X327657Y71374D01*
X327594Y71462D01*
X327545Y71549D01*
X327501Y71618D01*
X327476Y71680D01*
X327457Y71718D01*
X327451Y71724D01*
Y71730D01*
X327407Y71849D01*
X327376Y71974D01*
X327351Y72087D01*
X327338Y72199D01*
X327326Y72293D01*
Y72330D01*
X327320Y72368D01*
Y72393D01*
Y72412D01*
Y72424D01*
Y72430D01*
X327326Y72537D01*
X327332Y72636D01*
X327345Y72730D01*
X327363Y72805D01*
X327382Y72874D01*
X327394Y72918D01*
X327401Y72949D01*
X327407Y72961D01*
X327438Y73049D01*
X327476Y73130D01*
X327513Y73205D01*
X327551Y73268D01*
X327588Y73318D01*
X327613Y73355D01*
X327632Y73380D01*
X327638Y73386D01*
X327695Y73455D01*
X327757Y73517D01*
X327819Y73568D01*
X327876Y73611D01*
X327932Y73649D01*
X327969Y73674D01*
X327994Y73692D01*
X328007Y73699D01*
X328088Y73742D01*
X328169Y73780D01*
X328238Y73805D01*
X328307Y73830D01*
X328357Y73849D01*
X328400Y73861D01*
X328425Y73867D01*
X328438D01*
X328513Y73886D01*
X328582Y73899D01*
X328644Y73911D01*
X328694Y73917D01*
X328738Y73924D01*
X328775Y73930D01*
X328800D01*
X328919Y73942D01*
X328969D01*
X329019Y73949D01*
X330269D01*
X330306Y73936D01*
D02*
G37*
G36*
X365894Y10567D02*
X366088Y10542D01*
X366269Y10511D01*
X366351Y10492D01*
X366419Y10474D01*
X366488Y10455D01*
X366550Y10436D01*
X366607Y10417D01*
X366650Y10405D01*
X366682Y10392D01*
X366713Y10380D01*
X366725Y10374D01*
X366732D01*
X366900Y10293D01*
X367057Y10205D01*
X367194Y10117D01*
X367313Y10030D01*
X367413Y9949D01*
X367450Y9918D01*
X367481Y9886D01*
X367506Y9861D01*
X367525Y9843D01*
X367538Y9836D01*
X367544Y9830D01*
X367663Y9693D01*
X367769Y9549D01*
X367856Y9405D01*
X367931Y9274D01*
X367994Y9155D01*
X368013Y9105D01*
X368031Y9061D01*
X368050Y9024D01*
X368063Y8999D01*
X368069Y8980D01*
Y8974D01*
X368131Y8780D01*
X368175Y8587D01*
X368206Y8405D01*
X368225Y8231D01*
X368237Y8156D01*
Y8080D01*
X368244Y8018D01*
X368250Y7968D01*
Y7924D01*
Y7887D01*
Y7868D01*
Y7862D01*
X368244Y7643D01*
X368225Y7443D01*
X368194Y7262D01*
X368181Y7181D01*
X368162Y7099D01*
X368150Y7031D01*
X368138Y6968D01*
X368119Y6918D01*
X368106Y6875D01*
X368094Y6837D01*
X368088Y6812D01*
X368081Y6793D01*
Y6787D01*
X368006Y6612D01*
X367931Y6456D01*
X367844Y6312D01*
X367763Y6194D01*
X367694Y6094D01*
X367663Y6056D01*
X367638Y6025D01*
X367613Y6000D01*
X367594Y5981D01*
X367588Y5969D01*
X367581Y5962D01*
X367456Y5844D01*
X367319Y5737D01*
X367188Y5644D01*
X367063Y5569D01*
X366950Y5506D01*
X366907Y5487D01*
X366863Y5469D01*
X366832Y5450D01*
X366807Y5437D01*
X366794Y5431D01*
X366788D01*
X366607Y5369D01*
X366419Y5325D01*
X366238Y5294D01*
X366069Y5275D01*
X365994Y5263D01*
X365926D01*
X365869Y5256D01*
X365813Y5250D01*
X365713D01*
X365569Y5256D01*
X365501D01*
X365444Y5263D01*
X365395Y5269D01*
X365351D01*
X365326Y5275D01*
X365320D01*
X365176Y5294D01*
X365107Y5306D01*
X365045Y5319D01*
X364995Y5331D01*
X364957Y5337D01*
X364932Y5344D01*
X364926D01*
X364782Y5381D01*
X364720Y5400D01*
X364657Y5419D01*
X364613Y5431D01*
X364576Y5444D01*
X364551Y5456D01*
X364545D01*
X364476Y5481D01*
X364420Y5506D01*
X364370Y5525D01*
X364326Y5544D01*
X364288Y5562D01*
X364263Y5569D01*
X364251Y5581D01*
X364245D01*
X364201Y5606D01*
X364170Y5631D01*
X364145Y5650D01*
X364120Y5675D01*
X364095Y5706D01*
X364089Y5712D01*
Y5719D01*
X364064Y5781D01*
X364057Y5837D01*
X364051Y5862D01*
Y5881D01*
Y5894D01*
Y5900D01*
Y7874D01*
X364057Y7924D01*
X364064Y7962D01*
X364070Y7987D01*
X364076Y7999D01*
X364095Y8037D01*
X364114Y8062D01*
X364126Y8080D01*
X364132Y8087D01*
X364157Y8105D01*
X364182Y8124D01*
X364207Y8130D01*
X364213Y8137D01*
X364245Y8149D01*
X364276Y8156D01*
X365963D01*
X365982Y8149D01*
X365994Y8143D01*
X366001Y8137D01*
X366032Y8105D01*
X366038Y8093D01*
X366044Y8087D01*
X366057Y8062D01*
X366063Y8030D01*
X366069Y8012D01*
Y7999D01*
X366076Y7956D01*
Y7912D01*
Y7881D01*
Y7874D01*
Y7868D01*
Y7818D01*
X366069Y7774D01*
X366063Y7737D01*
X366057Y7706D01*
Y7687D01*
X366051Y7668D01*
X366044Y7662D01*
Y7656D01*
X366013Y7618D01*
X365982Y7599D01*
X365957Y7593D01*
X364738D01*
Y6081D01*
X364901Y6006D01*
X364976Y5975D01*
X365051Y5950D01*
X365113Y5931D01*
X365157Y5919D01*
X365188Y5906D01*
X365201D01*
X365382Y5875D01*
X365463Y5862D01*
X365538Y5856D01*
X365601D01*
X365644Y5850D01*
X365688D01*
X365832Y5856D01*
X365969Y5869D01*
X366094Y5894D01*
X366207Y5919D01*
X366301Y5937D01*
X366332Y5950D01*
X366369Y5962D01*
X366394Y5969D01*
X366413Y5975D01*
X366419Y5981D01*
X366426D01*
X366544Y6037D01*
X366657Y6100D01*
X366757Y6169D01*
X366844Y6231D01*
X366913Y6294D01*
X366963Y6337D01*
X366994Y6368D01*
X367007Y6381D01*
X367094Y6487D01*
X367169Y6593D01*
X367231Y6706D01*
X367288Y6806D01*
X367332Y6893D01*
X367363Y6968D01*
X367375Y6993D01*
X367382Y7012D01*
X367388Y7024D01*
Y7031D01*
X367431Y7181D01*
X367469Y7331D01*
X367494Y7481D01*
X367506Y7618D01*
X367513Y7681D01*
X367519Y7737D01*
Y7787D01*
X367525Y7831D01*
Y7862D01*
Y7893D01*
Y7906D01*
Y7912D01*
X367519Y8074D01*
X367506Y8231D01*
X367488Y8368D01*
X367463Y8493D01*
X367438Y8593D01*
X367431Y8637D01*
X367419Y8668D01*
X367413Y8699D01*
X367407Y8718D01*
X367400Y8730D01*
Y8737D01*
X367350Y8874D01*
X367294Y8999D01*
X367231Y9111D01*
X367175Y9205D01*
X367125Y9287D01*
X367081Y9343D01*
X367057Y9380D01*
X367044Y9393D01*
X366950Y9493D01*
X366857Y9580D01*
X366757Y9655D01*
X366669Y9718D01*
X366588Y9768D01*
X366525Y9799D01*
X366500Y9811D01*
X366482Y9824D01*
X366475Y9830D01*
X366469D01*
X366338Y9880D01*
X366200Y9918D01*
X366076Y9949D01*
X365951Y9967D01*
X365851Y9980D01*
X365807D01*
X365769Y9986D01*
X365694D01*
X365563Y9980D01*
X365444Y9974D01*
X365345Y9961D01*
X365251Y9949D01*
X365176Y9930D01*
X365120Y9918D01*
X365088Y9911D01*
X365076Y9905D01*
X364982Y9874D01*
X364895Y9849D01*
X364820Y9818D01*
X364751Y9793D01*
X364701Y9768D01*
X364657Y9755D01*
X364632Y9743D01*
X364626Y9736D01*
X364557Y9705D01*
X364501Y9674D01*
X364451Y9649D01*
X364407Y9624D01*
X364370Y9605D01*
X364345Y9586D01*
X364332Y9580D01*
X364326Y9574D01*
X364288Y9549D01*
X364251Y9530D01*
X364201Y9511D01*
X364170Y9499D01*
X364164D01*
X364126Y9505D01*
X364120Y9511D01*
X364114D01*
X364095Y9530D01*
X364082Y9549D01*
X364076Y9561D01*
Y9568D01*
X364064Y9599D01*
X364057Y9630D01*
X364051Y9655D01*
Y9661D01*
X364045Y9705D01*
X364039Y9749D01*
Y9780D01*
Y9786D01*
Y9793D01*
X364045Y9880D01*
X364051Y9943D01*
X364057Y9961D01*
Y9980D01*
X364064Y9992D01*
X364082Y10043D01*
X364107Y10080D01*
X364132Y10105D01*
X364138Y10111D01*
X364164Y10130D01*
X364188Y10155D01*
X364251Y10199D01*
X364282Y10211D01*
X364301Y10230D01*
X364320Y10236D01*
X364326Y10243D01*
X364439Y10299D01*
X364495Y10324D01*
X364545Y10349D01*
X364595Y10367D01*
X364632Y10380D01*
X364657Y10392D01*
X364663D01*
X364820Y10442D01*
X364895Y10467D01*
X364970Y10486D01*
X365032Y10499D01*
X365082Y10511D01*
X365113Y10517D01*
X365126D01*
X365326Y10549D01*
X365420Y10561D01*
X365501Y10567D01*
X365576Y10574D01*
X365682D01*
X365894Y10567D01*
D02*
G37*
G36*
X357284Y10486D02*
X357340Y10467D01*
X357378Y10449D01*
X357384Y10436D01*
X357390D01*
X357415Y10411D01*
X357434Y10374D01*
X357459Y10305D01*
X357465Y10267D01*
X357472Y10243D01*
Y10224D01*
Y10217D01*
Y5600D01*
X357465Y5544D01*
X357459Y5500D01*
X357447Y5462D01*
X357428Y5431D01*
X357415Y5412D01*
X357403Y5394D01*
X357397Y5387D01*
X357390Y5381D01*
X357328Y5350D01*
X357278Y5331D01*
X357234Y5325D01*
X356122D01*
X355884Y5331D01*
X355666Y5350D01*
X355566Y5362D01*
X355466Y5375D01*
X355384Y5394D01*
X355303Y5406D01*
X355228Y5419D01*
X355166Y5437D01*
X355110Y5450D01*
X355066Y5462D01*
X355028Y5475D01*
X354997Y5481D01*
X354985Y5487D01*
X354978D01*
X354803Y5556D01*
X354647Y5631D01*
X354510Y5712D01*
X354397Y5794D01*
X354297Y5869D01*
X354260Y5900D01*
X354229Y5925D01*
X354204Y5950D01*
X354185Y5969D01*
X354179Y5975D01*
X354172Y5981D01*
X354054Y6112D01*
X353954Y6250D01*
X353866Y6387D01*
X353797Y6518D01*
X353741Y6637D01*
X353716Y6687D01*
X353698Y6731D01*
X353685Y6762D01*
X353672Y6787D01*
X353666Y6806D01*
Y6812D01*
X353610Y7006D01*
X353566Y7206D01*
X353535Y7406D01*
X353510Y7587D01*
X353504Y7668D01*
X353498Y7749D01*
Y7818D01*
X353491Y7874D01*
Y7924D01*
Y7956D01*
Y7981D01*
Y7987D01*
X353498Y8199D01*
X353516Y8393D01*
X353541Y8574D01*
X353560Y8655D01*
X353573Y8724D01*
X353585Y8793D01*
X353604Y8855D01*
X353616Y8905D01*
X353629Y8949D01*
X353641Y8986D01*
X353647Y9011D01*
X353654Y9024D01*
Y9030D01*
X353722Y9199D01*
X353797Y9355D01*
X353879Y9486D01*
X353954Y9605D01*
X354022Y9699D01*
X354054Y9736D01*
X354085Y9768D01*
X354104Y9793D01*
X354122Y9811D01*
X354129Y9818D01*
X354135Y9824D01*
X354260Y9936D01*
X354385Y10036D01*
X354516Y10124D01*
X354641Y10199D01*
X354747Y10249D01*
X354791Y10274D01*
X354835Y10293D01*
X354866Y10305D01*
X354891Y10317D01*
X354903Y10324D01*
X354910D01*
X355091Y10380D01*
X355285Y10424D01*
X355472Y10455D01*
X355653Y10480D01*
X355734Y10486D01*
X355809Y10492D01*
X355878D01*
X355934Y10499D01*
X357222D01*
X357284Y10486D01*
D02*
G37*
G36*
X359309Y10505D02*
X359346Y10499D01*
X359358D01*
X359402Y10492D01*
X359434Y10486D01*
X359459Y10480D01*
X359465Y10474D01*
X359490Y10461D01*
X359509Y10442D01*
X359515Y10436D01*
X359521Y10430D01*
X359534Y10399D01*
Y10386D01*
Y10380D01*
Y7574D01*
Y7456D01*
Y7337D01*
Y7225D01*
Y7125D01*
Y7037D01*
Y6968D01*
Y6943D01*
Y6925D01*
Y6918D01*
Y6912D01*
Y6787D01*
Y6668D01*
Y6556D01*
X359527Y6456D01*
Y6375D01*
Y6312D01*
Y6287D01*
Y6269D01*
Y6262D01*
Y6256D01*
X359596Y6393D01*
X359627Y6456D01*
X359658Y6512D01*
X359677Y6562D01*
X359696Y6600D01*
X359708Y6625D01*
X359715Y6631D01*
X359783Y6768D01*
X359815Y6831D01*
X359846Y6887D01*
X359871Y6937D01*
X359890Y6975D01*
X359902Y7000D01*
X359908Y7006D01*
X359977Y7150D01*
X360015Y7218D01*
X360046Y7275D01*
X360071Y7325D01*
X360090Y7368D01*
X360102Y7393D01*
X360108Y7400D01*
X360190Y7549D01*
X360227Y7618D01*
X360258Y7681D01*
X360283Y7731D01*
X360308Y7768D01*
X360321Y7799D01*
X360327Y7806D01*
X361539Y10074D01*
X361583Y10161D01*
X361627Y10224D01*
X361639Y10249D01*
X361652Y10267D01*
X361664Y10274D01*
Y10280D01*
X361708Y10336D01*
X361745Y10374D01*
X361777Y10399D01*
X361783Y10405D01*
X361789D01*
X361839Y10436D01*
X361883Y10461D01*
X361920Y10467D01*
X361927Y10474D01*
X361933D01*
X361995Y10486D01*
X362064Y10499D01*
X362508D01*
X362545Y10486D01*
X362608Y10467D01*
X362633Y10455D01*
X362651Y10442D01*
X362664Y10436D01*
X362670Y10430D01*
X362701Y10399D01*
X362720Y10367D01*
X362745Y10286D01*
X362751Y10255D01*
X362758Y10224D01*
Y10205D01*
Y10199D01*
Y5425D01*
X362751Y5387D01*
X362745Y5375D01*
Y5369D01*
X362726Y5350D01*
X362708Y5344D01*
X362695Y5331D01*
X362689D01*
X362658Y5325D01*
X362626Y5319D01*
X362601Y5312D01*
X362589D01*
X362533Y5306D01*
X362477Y5300D01*
X362351D01*
X362301Y5306D01*
X362270Y5312D01*
X362258D01*
X362214Y5319D01*
X362177Y5325D01*
X362158Y5331D01*
X362151D01*
X362120Y5344D01*
X362102Y5356D01*
X362095Y5362D01*
X362089Y5369D01*
X362077Y5394D01*
X362070Y5406D01*
Y5419D01*
Y5425D01*
Y8549D01*
Y8662D01*
Y8768D01*
Y8868D01*
Y8955D01*
X362077Y9030D01*
Y9093D01*
Y9130D01*
Y9136D01*
Y9143D01*
Y9255D01*
Y9361D01*
X362083Y9461D01*
Y9549D01*
Y9624D01*
X362089Y9680D01*
Y9718D01*
Y9730D01*
X362077D01*
X361995Y9555D01*
X361958Y9474D01*
X361920Y9405D01*
X361889Y9343D01*
X361864Y9293D01*
X361852Y9262D01*
X361845Y9249D01*
X361802Y9155D01*
X361752Y9068D01*
X361714Y8986D01*
X361670Y8918D01*
X361639Y8855D01*
X361614Y8805D01*
X361602Y8780D01*
X361595Y8768D01*
X360021Y5825D01*
X359990Y5769D01*
X359965Y5719D01*
X359933Y5675D01*
X359915Y5637D01*
X359890Y5606D01*
X359877Y5587D01*
X359871Y5575D01*
X359865Y5569D01*
X359808Y5500D01*
X359765Y5456D01*
X359733Y5425D01*
X359721Y5412D01*
X359665Y5375D01*
X359615Y5350D01*
X359577Y5337D01*
X359571Y5331D01*
X359565D01*
X359502Y5319D01*
X359440Y5312D01*
X359115D01*
X359077Y5319D01*
X359052Y5325D01*
X359046D01*
X359009Y5344D01*
X358977Y5356D01*
X358952Y5369D01*
X358946Y5375D01*
X358915Y5406D01*
X358896Y5437D01*
X358884Y5462D01*
X358877Y5469D01*
X358859Y5512D01*
X358852Y5556D01*
X358846Y5594D01*
Y5600D01*
Y5606D01*
Y10380D01*
Y10399D01*
X358852Y10417D01*
X358859Y10424D01*
X358865Y10430D01*
X358884Y10449D01*
X358902Y10461D01*
X358915Y10474D01*
X358921D01*
X358952Y10486D01*
X358990Y10492D01*
X359015Y10499D01*
X359027D01*
X359084Y10505D01*
X359134Y10511D01*
X359258D01*
X359309Y10505D01*
D02*
G37*
G36*
X347331Y10736D02*
X347388Y10717D01*
X347419Y10692D01*
X347431Y10686D01*
Y10680D01*
X347450Y10655D01*
X347463Y10624D01*
X347481Y10561D01*
Y10530D01*
X347488Y10505D01*
Y10493D01*
Y10486D01*
Y8381D01*
Y8331D01*
X347481Y8287D01*
X347475Y8249D01*
X347463Y8224D01*
X347456Y8206D01*
X347450Y8193D01*
X347444Y8181D01*
X347400Y8149D01*
X347344Y8137D01*
X347319Y8131D01*
X347281D01*
X347169Y8137D01*
X347113D01*
X347063Y8143D01*
X347019Y8149D01*
X346988D01*
X346963Y8156D01*
X346956D01*
X346888Y8162D01*
X346819Y8168D01*
X346744Y8174D01*
X346682Y8181D01*
X346413D01*
X346300Y8168D01*
X346200Y8162D01*
X346113Y8149D01*
X346044Y8137D01*
X345988Y8131D01*
X345957Y8118D01*
X345944D01*
X345857Y8093D01*
X345775Y8062D01*
X345707Y8031D01*
X345644Y7999D01*
X345594Y7968D01*
X345563Y7943D01*
X345538Y7931D01*
X345532Y7924D01*
X345476Y7874D01*
X345426Y7824D01*
X345388Y7768D01*
X345351Y7724D01*
X345326Y7681D01*
X345307Y7643D01*
X345301Y7618D01*
X345294Y7612D01*
X345269Y7537D01*
X345244Y7462D01*
X345232Y7393D01*
X345226Y7325D01*
X345219Y7262D01*
X345213Y7218D01*
Y7187D01*
Y7175D01*
X345219Y7068D01*
X345226Y6968D01*
X345244Y6881D01*
X345257Y6812D01*
X345276Y6750D01*
X345294Y6706D01*
X345301Y6681D01*
X345307Y6668D01*
X345344Y6600D01*
X345388Y6531D01*
X345432Y6475D01*
X345469Y6425D01*
X345507Y6387D01*
X345538Y6356D01*
X345557Y6337D01*
X345563Y6331D01*
X345625Y6281D01*
X345694Y6244D01*
X345757Y6206D01*
X345819Y6181D01*
X345869Y6156D01*
X345913Y6144D01*
X345938Y6137D01*
X345951Y6131D01*
X346119Y6094D01*
X346200Y6081D01*
X346275Y6075D01*
X346344D01*
X346394Y6069D01*
X346544D01*
X346638Y6075D01*
X346719Y6087D01*
X346794Y6094D01*
X346856Y6106D01*
X346900Y6112D01*
X346925Y6119D01*
X346938D01*
X347013Y6137D01*
X347081Y6156D01*
X347138Y6175D01*
X347188Y6194D01*
X347231Y6206D01*
X347263Y6219D01*
X347281Y6225D01*
X347288D01*
X347381Y6269D01*
X347425Y6287D01*
X347456Y6306D01*
X347481Y6319D01*
X347500Y6331D01*
X347513Y6337D01*
X347519D01*
X347569Y6368D01*
X347606Y6381D01*
X347631Y6387D01*
X347656D01*
X347669Y6381D01*
X347681Y6375D01*
X347687Y6368D01*
X347713Y6337D01*
X347719Y6325D01*
X347725Y6319D01*
X347738Y6294D01*
X347744Y6262D01*
X347750Y6244D01*
Y6231D01*
Y6187D01*
Y6150D01*
Y6119D01*
Y6112D01*
Y6106D01*
Y6056D01*
Y6019D01*
Y5994D01*
Y5981D01*
X347744Y5944D01*
Y5919D01*
X347738Y5900D01*
Y5894D01*
X347719Y5856D01*
X347713Y5844D01*
Y5837D01*
X347687Y5806D01*
X347681Y5794D01*
X347675Y5787D01*
X347663Y5775D01*
X347637Y5762D01*
X347594Y5744D01*
X347556Y5719D01*
X347544Y5713D01*
X347538D01*
X347444Y5675D01*
X347356Y5644D01*
X347313Y5631D01*
X347281Y5619D01*
X347263Y5612D01*
X347256D01*
X347125Y5581D01*
X347063Y5569D01*
X347000Y5556D01*
X346950Y5550D01*
X346913Y5544D01*
X346881Y5537D01*
X346875D01*
X346713Y5519D01*
X346632Y5506D01*
X346563D01*
X346507Y5500D01*
X346419D01*
X346263Y5506D01*
X346113Y5519D01*
X345982Y5537D01*
X345863Y5556D01*
X345769Y5575D01*
X345726Y5587D01*
X345694Y5594D01*
X345669Y5600D01*
X345650Y5606D01*
X345638Y5612D01*
X345632D01*
X345501Y5663D01*
X345388Y5713D01*
X345282Y5769D01*
X345194Y5825D01*
X345119Y5875D01*
X345063Y5912D01*
X345032Y5937D01*
X345019Y5950D01*
X344926Y6037D01*
X344851Y6131D01*
X344782Y6225D01*
X344726Y6312D01*
X344682Y6387D01*
X344651Y6443D01*
X344638Y6468D01*
X344632Y6487D01*
X344626Y6493D01*
Y6500D01*
X344576Y6625D01*
X344545Y6750D01*
X344520Y6875D01*
X344501Y6993D01*
X344488Y7087D01*
Y7131D01*
X344482Y7168D01*
Y7200D01*
Y7218D01*
Y7231D01*
Y7237D01*
X344488Y7362D01*
X344501Y7474D01*
X344520Y7581D01*
X344538Y7668D01*
X344557Y7743D01*
X344576Y7799D01*
X344588Y7837D01*
X344595Y7849D01*
X344638Y7949D01*
X344695Y8037D01*
X344744Y8118D01*
X344801Y8187D01*
X344845Y8243D01*
X344882Y8287D01*
X344907Y8312D01*
X344920Y8318D01*
X345001Y8387D01*
X345094Y8449D01*
X345182Y8505D01*
X345269Y8549D01*
X345344Y8580D01*
X345401Y8605D01*
X345426Y8612D01*
X345444Y8618D01*
X345451Y8624D01*
X345457D01*
X345582Y8662D01*
X345707Y8687D01*
X345832Y8705D01*
X345951Y8718D01*
X346050Y8724D01*
X346094Y8730D01*
X346438D01*
X346475Y8724D01*
X346532D01*
X346632Y8718D01*
X346675Y8712D01*
X346719D01*
X346750Y8705D01*
X346775D01*
X346794Y8699D01*
X346800D01*
Y10149D01*
X344951D01*
X344926Y10155D01*
X344907Y10161D01*
X344869Y10186D01*
X344851Y10211D01*
X344845Y10224D01*
X344819Y10293D01*
X344807Y10367D01*
X344801Y10399D01*
Y10424D01*
Y10443D01*
Y10449D01*
Y10499D01*
X344807Y10543D01*
X344813Y10568D01*
Y10580D01*
X344826Y10618D01*
X344832Y10649D01*
X344838Y10667D01*
X344845Y10674D01*
X344857Y10699D01*
X344876Y10717D01*
X344888Y10724D01*
X344894Y10730D01*
X344920Y10742D01*
X344938Y10749D01*
X347294D01*
X347331Y10736D01*
D02*
G37*
G36*
X343632Y10767D02*
X343689D01*
X343707Y10761D01*
X343720D01*
X343770Y10755D01*
X343801Y10742D01*
X343826Y10730D01*
X343832Y10724D01*
X343851Y10699D01*
X343863Y10674D01*
X343870Y10655D01*
Y10642D01*
X343863Y10599D01*
X343851Y10555D01*
X343839Y10517D01*
X343832Y10511D01*
Y10505D01*
X342139Y5694D01*
X342120Y5656D01*
X342114Y5644D01*
Y5638D01*
X342089Y5612D01*
X342083Y5606D01*
X342076Y5600D01*
X342039Y5587D01*
X342026Y5581D01*
X342020D01*
X341989Y5575D01*
X341964D01*
X341945Y5569D01*
X341939D01*
X341902Y5562D01*
X341864Y5556D01*
X341827D01*
X341770Y5550D01*
X341589D01*
X341527Y5556D01*
X341477D01*
X341420Y5562D01*
X341383Y5569D01*
X341352Y5575D01*
X341345D01*
X341314Y5587D01*
X341289Y5606D01*
X341277Y5612D01*
X341270Y5619D01*
X341233Y5669D01*
X341227Y5688D01*
X341220Y5694D01*
X339533Y10499D01*
X339515Y10555D01*
X339502Y10599D01*
X339496Y10630D01*
Y10636D01*
Y10674D01*
X339502Y10699D01*
X339508Y10711D01*
X339515Y10717D01*
X339540Y10736D01*
X339571Y10749D01*
X339602Y10761D01*
X339615D01*
X339671Y10767D01*
X339740Y10774D01*
X339952D01*
X339977Y10767D01*
X340008D01*
X340052Y10761D01*
X340089Y10755D01*
X340108Y10749D01*
X340115Y10742D01*
X340140Y10730D01*
X340158Y10711D01*
X340164Y10705D01*
X340171Y10699D01*
X340177Y10674D01*
X340189Y10655D01*
X340196Y10630D01*
Y10624D01*
X341639Y6281D01*
X341645D01*
X343132Y10636D01*
X343145Y10661D01*
X343157Y10680D01*
X343164Y10692D01*
X343170Y10699D01*
X343182Y10717D01*
X343201Y10730D01*
X343214Y10742D01*
X343220D01*
X343251Y10755D01*
X343289Y10761D01*
X343314Y10767D01*
X343326D01*
X343382Y10774D01*
X343595D01*
X343632Y10767D01*
D02*
G37*
G36*
X326394Y36067D02*
X326588Y36042D01*
X326769Y36011D01*
X326851Y35992D01*
X326919Y35974D01*
X326988Y35955D01*
X327050Y35936D01*
X327107Y35917D01*
X327150Y35905D01*
X327182Y35892D01*
X327213Y35880D01*
X327225Y35874D01*
X327232D01*
X327400Y35793D01*
X327556Y35705D01*
X327694Y35617D01*
X327813Y35530D01*
X327913Y35449D01*
X327950Y35418D01*
X327981Y35386D01*
X328006Y35361D01*
X328025Y35343D01*
X328038Y35336D01*
X328044Y35330D01*
X328163Y35193D01*
X328269Y35049D01*
X328356Y34905D01*
X328431Y34774D01*
X328494Y34655D01*
X328513Y34605D01*
X328531Y34562D01*
X328550Y34524D01*
X328563Y34499D01*
X328569Y34480D01*
Y34474D01*
X328631Y34280D01*
X328675Y34087D01*
X328706Y33905D01*
X328725Y33730D01*
X328737Y33656D01*
Y33581D01*
X328744Y33518D01*
X328750Y33468D01*
Y33424D01*
Y33387D01*
Y33368D01*
Y33362D01*
X328744Y33143D01*
X328725Y32943D01*
X328694Y32762D01*
X328681Y32681D01*
X328662Y32599D01*
X328650Y32531D01*
X328638Y32468D01*
X328619Y32418D01*
X328606Y32375D01*
X328594Y32337D01*
X328587Y32312D01*
X328581Y32293D01*
Y32287D01*
X328506Y32112D01*
X328431Y31956D01*
X328344Y31812D01*
X328263Y31693D01*
X328194Y31593D01*
X328163Y31556D01*
X328138Y31525D01*
X328113Y31500D01*
X328094Y31481D01*
X328088Y31469D01*
X328081Y31462D01*
X327956Y31344D01*
X327819Y31237D01*
X327688Y31144D01*
X327563Y31069D01*
X327450Y31006D01*
X327407Y30987D01*
X327363Y30969D01*
X327332Y30950D01*
X327307Y30938D01*
X327294Y30931D01*
X327288D01*
X327107Y30869D01*
X326919Y30825D01*
X326738Y30794D01*
X326569Y30775D01*
X326494Y30763D01*
X326426D01*
X326369Y30756D01*
X326313Y30750D01*
X326213D01*
X326069Y30756D01*
X326001D01*
X325945Y30763D01*
X325895Y30769D01*
X325851D01*
X325826Y30775D01*
X325820D01*
X325676Y30794D01*
X325607Y30806D01*
X325545Y30819D01*
X325495Y30831D01*
X325457Y30838D01*
X325432Y30844D01*
X325426D01*
X325282Y30881D01*
X325220Y30900D01*
X325157Y30919D01*
X325113Y30931D01*
X325076Y30944D01*
X325051Y30956D01*
X325045D01*
X324976Y30981D01*
X324920Y31006D01*
X324870Y31025D01*
X324826Y31044D01*
X324789Y31062D01*
X324763Y31069D01*
X324751Y31081D01*
X324745D01*
X324701Y31106D01*
X324670Y31131D01*
X324645Y31150D01*
X324620Y31175D01*
X324595Y31206D01*
X324589Y31212D01*
Y31219D01*
X324564Y31281D01*
X324557Y31337D01*
X324551Y31362D01*
Y31381D01*
Y31394D01*
Y31400D01*
Y33374D01*
X324557Y33424D01*
X324564Y33462D01*
X324570Y33487D01*
X324576Y33499D01*
X324595Y33537D01*
X324613Y33562D01*
X324626Y33581D01*
X324632Y33587D01*
X324657Y33605D01*
X324682Y33624D01*
X324707Y33630D01*
X324714Y33637D01*
X324745Y33649D01*
X324776Y33656D01*
X326463D01*
X326482Y33649D01*
X326494Y33643D01*
X326501Y33637D01*
X326532Y33605D01*
X326538Y33593D01*
X326544Y33587D01*
X326557Y33562D01*
X326563Y33530D01*
X326569Y33512D01*
Y33499D01*
X326576Y33456D01*
Y33412D01*
Y33381D01*
Y33374D01*
Y33368D01*
Y33318D01*
X326569Y33274D01*
X326563Y33237D01*
X326557Y33206D01*
Y33187D01*
X326551Y33168D01*
X326544Y33162D01*
Y33156D01*
X326513Y33118D01*
X326482Y33099D01*
X326457Y33093D01*
X325238D01*
Y31581D01*
X325401Y31506D01*
X325476Y31475D01*
X325551Y31450D01*
X325613Y31431D01*
X325657Y31419D01*
X325688Y31406D01*
X325701D01*
X325882Y31375D01*
X325963Y31362D01*
X326038Y31356D01*
X326101D01*
X326144Y31350D01*
X326188D01*
X326332Y31356D01*
X326469Y31369D01*
X326594Y31394D01*
X326707Y31419D01*
X326800Y31437D01*
X326832Y31450D01*
X326869Y31462D01*
X326894Y31469D01*
X326913Y31475D01*
X326919Y31481D01*
X326926D01*
X327044Y31537D01*
X327157Y31600D01*
X327257Y31669D01*
X327344Y31731D01*
X327413Y31793D01*
X327463Y31837D01*
X327494Y31869D01*
X327507Y31881D01*
X327594Y31987D01*
X327669Y32093D01*
X327732Y32206D01*
X327788Y32306D01*
X327831Y32393D01*
X327863Y32468D01*
X327875Y32493D01*
X327882Y32512D01*
X327888Y32524D01*
Y32531D01*
X327931Y32681D01*
X327969Y32831D01*
X327994Y32981D01*
X328006Y33118D01*
X328013Y33181D01*
X328019Y33237D01*
Y33287D01*
X328025Y33331D01*
Y33362D01*
Y33393D01*
Y33406D01*
Y33412D01*
X328019Y33574D01*
X328006Y33730D01*
X327988Y33868D01*
X327963Y33993D01*
X327938Y34093D01*
X327931Y34137D01*
X327919Y34168D01*
X327913Y34199D01*
X327906Y34218D01*
X327900Y34230D01*
Y34237D01*
X327850Y34374D01*
X327794Y34499D01*
X327732Y34611D01*
X327675Y34705D01*
X327625Y34787D01*
X327581Y34843D01*
X327556Y34880D01*
X327544Y34893D01*
X327450Y34993D01*
X327357Y35080D01*
X327257Y35155D01*
X327169Y35218D01*
X327088Y35268D01*
X327025Y35299D01*
X327000Y35311D01*
X326982Y35324D01*
X326975Y35330D01*
X326969D01*
X326838Y35380D01*
X326701Y35418D01*
X326576Y35449D01*
X326451Y35468D01*
X326351Y35480D01*
X326307D01*
X326269Y35486D01*
X326194D01*
X326063Y35480D01*
X325945Y35474D01*
X325844Y35461D01*
X325751Y35449D01*
X325676Y35430D01*
X325620Y35418D01*
X325588Y35411D01*
X325576Y35405D01*
X325482Y35374D01*
X325395Y35349D01*
X325320Y35318D01*
X325251Y35293D01*
X325201Y35268D01*
X325157Y35255D01*
X325132Y35243D01*
X325126Y35236D01*
X325057Y35205D01*
X325001Y35174D01*
X324951Y35149D01*
X324907Y35124D01*
X324870Y35105D01*
X324845Y35086D01*
X324832Y35080D01*
X324826Y35074D01*
X324789Y35049D01*
X324751Y35030D01*
X324701Y35011D01*
X324670Y34999D01*
X324664D01*
X324626Y35005D01*
X324620Y35011D01*
X324613D01*
X324595Y35030D01*
X324582Y35049D01*
X324576Y35061D01*
Y35068D01*
X324564Y35099D01*
X324557Y35130D01*
X324551Y35155D01*
Y35161D01*
X324545Y35205D01*
X324539Y35249D01*
Y35280D01*
Y35286D01*
Y35293D01*
X324545Y35380D01*
X324551Y35443D01*
X324557Y35461D01*
Y35480D01*
X324564Y35492D01*
X324582Y35543D01*
X324607Y35580D01*
X324632Y35605D01*
X324638Y35611D01*
X324664Y35630D01*
X324688Y35655D01*
X324751Y35699D01*
X324782Y35711D01*
X324801Y35730D01*
X324820Y35736D01*
X324826Y35742D01*
X324939Y35799D01*
X324995Y35824D01*
X325045Y35849D01*
X325095Y35867D01*
X325132Y35880D01*
X325157Y35892D01*
X325163D01*
X325320Y35942D01*
X325395Y35967D01*
X325470Y35986D01*
X325532Y35999D01*
X325582Y36011D01*
X325613Y36017D01*
X325626D01*
X325826Y36049D01*
X325919Y36061D01*
X326001Y36067D01*
X326076Y36074D01*
X326182D01*
X326394Y36067D01*
D02*
G37*
G36*
X317784Y35986D02*
X317840Y35967D01*
X317878Y35949D01*
X317884Y35936D01*
X317890D01*
X317915Y35911D01*
X317934Y35874D01*
X317959Y35805D01*
X317965Y35768D01*
X317971Y35742D01*
Y35724D01*
Y35717D01*
Y31100D01*
X317965Y31044D01*
X317959Y31000D01*
X317946Y30962D01*
X317928Y30931D01*
X317915Y30912D01*
X317903Y30894D01*
X317896Y30887D01*
X317890Y30881D01*
X317828Y30850D01*
X317778Y30831D01*
X317734Y30825D01*
X316622D01*
X316384Y30831D01*
X316166Y30850D01*
X316066Y30863D01*
X315966Y30875D01*
X315884Y30894D01*
X315803Y30906D01*
X315728Y30919D01*
X315666Y30938D01*
X315610Y30950D01*
X315566Y30962D01*
X315528Y30975D01*
X315497Y30981D01*
X315485Y30987D01*
X315478D01*
X315303Y31056D01*
X315147Y31131D01*
X315010Y31212D01*
X314897Y31294D01*
X314797Y31369D01*
X314760Y31400D01*
X314729Y31425D01*
X314704Y31450D01*
X314685Y31469D01*
X314679Y31475D01*
X314672Y31481D01*
X314554Y31612D01*
X314454Y31750D01*
X314366Y31887D01*
X314297Y32018D01*
X314241Y32137D01*
X314216Y32187D01*
X314198Y32231D01*
X314185Y32262D01*
X314172Y32287D01*
X314166Y32306D01*
Y32312D01*
X314110Y32506D01*
X314066Y32706D01*
X314035Y32906D01*
X314010Y33087D01*
X314004Y33168D01*
X313997Y33249D01*
Y33318D01*
X313991Y33374D01*
Y33424D01*
Y33456D01*
Y33481D01*
Y33487D01*
X313997Y33699D01*
X314016Y33893D01*
X314041Y34074D01*
X314060Y34155D01*
X314072Y34224D01*
X314085Y34293D01*
X314104Y34355D01*
X314116Y34405D01*
X314129Y34449D01*
X314141Y34486D01*
X314147Y34511D01*
X314154Y34524D01*
Y34530D01*
X314223Y34699D01*
X314297Y34855D01*
X314379Y34986D01*
X314454Y35105D01*
X314522Y35199D01*
X314554Y35236D01*
X314585Y35268D01*
X314604Y35293D01*
X314622Y35311D01*
X314629Y35318D01*
X314635Y35324D01*
X314760Y35436D01*
X314885Y35536D01*
X315016Y35624D01*
X315141Y35699D01*
X315247Y35749D01*
X315291Y35774D01*
X315335Y35793D01*
X315366Y35805D01*
X315391Y35817D01*
X315403Y35824D01*
X315410D01*
X315591Y35880D01*
X315785Y35924D01*
X315972Y35955D01*
X316153Y35980D01*
X316234Y35986D01*
X316309Y35992D01*
X316378D01*
X316434Y35999D01*
X317722D01*
X317784Y35986D01*
D02*
G37*
G36*
X319809Y36005D02*
X319846Y35999D01*
X319858D01*
X319902Y35992D01*
X319933Y35986D01*
X319958Y35980D01*
X319965Y35974D01*
X319990Y35961D01*
X320009Y35942D01*
X320015Y35936D01*
X320021Y35930D01*
X320033Y35899D01*
Y35886D01*
Y35880D01*
Y33074D01*
Y32956D01*
Y32837D01*
Y32724D01*
Y32624D01*
Y32537D01*
Y32468D01*
Y32443D01*
Y32425D01*
Y32418D01*
Y32412D01*
Y32287D01*
Y32168D01*
Y32056D01*
X320027Y31956D01*
Y31875D01*
Y31812D01*
Y31787D01*
Y31769D01*
Y31762D01*
Y31756D01*
X320096Y31893D01*
X320127Y31956D01*
X320158Y32012D01*
X320177Y32062D01*
X320196Y32100D01*
X320208Y32125D01*
X320215Y32131D01*
X320283Y32268D01*
X320315Y32331D01*
X320346Y32387D01*
X320371Y32437D01*
X320390Y32475D01*
X320402Y32500D01*
X320408Y32506D01*
X320477Y32650D01*
X320515Y32718D01*
X320546Y32775D01*
X320571Y32824D01*
X320590Y32868D01*
X320602Y32893D01*
X320608Y32899D01*
X320690Y33049D01*
X320727Y33118D01*
X320758Y33181D01*
X320783Y33231D01*
X320808Y33268D01*
X320821Y33299D01*
X320827Y33306D01*
X322039Y35574D01*
X322083Y35661D01*
X322127Y35724D01*
X322139Y35749D01*
X322152Y35768D01*
X322164Y35774D01*
Y35780D01*
X322208Y35836D01*
X322245Y35874D01*
X322277Y35899D01*
X322283Y35905D01*
X322289D01*
X322339Y35936D01*
X322383Y35961D01*
X322420Y35967D01*
X322427Y35974D01*
X322433D01*
X322495Y35986D01*
X322564Y35999D01*
X323008D01*
X323045Y35986D01*
X323108Y35967D01*
X323133Y35955D01*
X323151Y35942D01*
X323164Y35936D01*
X323170Y35930D01*
X323201Y35899D01*
X323220Y35867D01*
X323245Y35786D01*
X323251Y35755D01*
X323258Y35724D01*
Y35705D01*
Y35699D01*
Y30925D01*
X323251Y30887D01*
X323245Y30875D01*
Y30869D01*
X323226Y30850D01*
X323208Y30844D01*
X323195Y30831D01*
X323189D01*
X323158Y30825D01*
X323126Y30819D01*
X323101Y30812D01*
X323089D01*
X323033Y30806D01*
X322976Y30800D01*
X322851D01*
X322802Y30806D01*
X322770Y30812D01*
X322758D01*
X322714Y30819D01*
X322677Y30825D01*
X322658Y30831D01*
X322652D01*
X322620Y30844D01*
X322602Y30856D01*
X322595Y30863D01*
X322589Y30869D01*
X322577Y30894D01*
X322570Y30906D01*
Y30919D01*
Y30925D01*
Y34049D01*
Y34162D01*
Y34268D01*
Y34368D01*
Y34455D01*
X322577Y34530D01*
Y34593D01*
Y34630D01*
Y34636D01*
Y34643D01*
Y34755D01*
Y34861D01*
X322583Y34961D01*
Y35049D01*
Y35124D01*
X322589Y35180D01*
Y35218D01*
Y35230D01*
X322577D01*
X322495Y35055D01*
X322458Y34974D01*
X322420Y34905D01*
X322389Y34843D01*
X322364Y34793D01*
X322352Y34762D01*
X322345Y34749D01*
X322302Y34655D01*
X322252Y34568D01*
X322214Y34486D01*
X322170Y34418D01*
X322139Y34355D01*
X322114Y34305D01*
X322102Y34280D01*
X322095Y34268D01*
X320521Y31325D01*
X320490Y31269D01*
X320465Y31219D01*
X320433Y31175D01*
X320415Y31137D01*
X320390Y31106D01*
X320377Y31087D01*
X320371Y31075D01*
X320365Y31069D01*
X320308Y31000D01*
X320265Y30956D01*
X320233Y30925D01*
X320221Y30912D01*
X320165Y30875D01*
X320115Y30850D01*
X320077Y30838D01*
X320071Y30831D01*
X320065D01*
X320002Y30819D01*
X319940Y30812D01*
X319615D01*
X319577Y30819D01*
X319552Y30825D01*
X319546D01*
X319509Y30844D01*
X319477Y30856D01*
X319452Y30869D01*
X319446Y30875D01*
X319415Y30906D01*
X319396Y30938D01*
X319384Y30962D01*
X319377Y30969D01*
X319359Y31012D01*
X319352Y31056D01*
X319346Y31094D01*
Y31100D01*
Y31106D01*
Y35880D01*
Y35899D01*
X319352Y35917D01*
X319359Y35924D01*
X319365Y35930D01*
X319384Y35949D01*
X319402Y35961D01*
X319415Y35974D01*
X319421D01*
X319452Y35986D01*
X319490Y35992D01*
X319515Y35999D01*
X319527D01*
X319584Y36005D01*
X319634Y36011D01*
X319758D01*
X319809Y36005D01*
D02*
G37*
%LPC*%
G36*
X333313Y9630D02*
X332682D01*
X332550Y9624D01*
X332488Y9618D01*
X332432D01*
X332388Y9611D01*
X332350Y9605D01*
X332325Y9599D01*
X332319D01*
X332250Y9586D01*
X332182Y9568D01*
X332119Y9549D01*
X332069Y9524D01*
X332019Y9505D01*
X331988Y9486D01*
X331963Y9474D01*
X331957Y9468D01*
X331894Y9424D01*
X331838Y9374D01*
X331788Y9318D01*
X331744Y9268D01*
X331707Y9224D01*
X331682Y9186D01*
X331669Y9161D01*
X331663Y9149D01*
X331626Y9068D01*
X331594Y8980D01*
X331576Y8893D01*
X331557Y8805D01*
X331551Y8737D01*
X331544Y8674D01*
Y8637D01*
Y8630D01*
Y8624D01*
Y8537D01*
X331557Y8462D01*
X331569Y8387D01*
X331582Y8324D01*
X331594Y8268D01*
X331607Y8230D01*
X331613Y8199D01*
X331619Y8193D01*
X331651Y8124D01*
X331682Y8062D01*
X331719Y7999D01*
X331751Y7949D01*
X331782Y7912D01*
X331807Y7880D01*
X331825Y7862D01*
X331832Y7855D01*
X331888Y7806D01*
X331944Y7762D01*
X332001Y7724D01*
X332057Y7687D01*
X332100Y7662D01*
X332138Y7643D01*
X332169Y7637D01*
X332175Y7631D01*
X332257Y7606D01*
X332344Y7587D01*
X332432Y7574D01*
X332513Y7568D01*
X332582Y7562D01*
X332644Y7556D01*
X333313D01*
Y9630D01*
D02*
G37*
G36*
X329813Y73380D02*
X329182D01*
X329050Y73374D01*
X328988Y73368D01*
X328932D01*
X328888Y73361D01*
X328850Y73355D01*
X328825Y73349D01*
X328819D01*
X328750Y73336D01*
X328682Y73318D01*
X328619Y73299D01*
X328569Y73274D01*
X328519Y73255D01*
X328488Y73236D01*
X328463Y73224D01*
X328457Y73218D01*
X328394Y73174D01*
X328338Y73124D01*
X328288Y73068D01*
X328244Y73018D01*
X328207Y72974D01*
X328182Y72936D01*
X328169Y72911D01*
X328163Y72899D01*
X328126Y72818D01*
X328094Y72730D01*
X328076Y72643D01*
X328057Y72555D01*
X328051Y72487D01*
X328044Y72424D01*
Y72387D01*
Y72380D01*
Y72374D01*
Y72287D01*
X328057Y72212D01*
X328069Y72137D01*
X328082Y72074D01*
X328094Y72018D01*
X328107Y71980D01*
X328113Y71949D01*
X328119Y71943D01*
X328151Y71874D01*
X328182Y71812D01*
X328219Y71749D01*
X328251Y71699D01*
X328282Y71662D01*
X328307Y71631D01*
X328326Y71612D01*
X328332Y71606D01*
X328388Y71556D01*
X328444Y71512D01*
X328501Y71474D01*
X328557Y71437D01*
X328601Y71412D01*
X328638Y71393D01*
X328669Y71387D01*
X328675Y71381D01*
X328757Y71356D01*
X328844Y71337D01*
X328932Y71324D01*
X329013Y71318D01*
X329082Y71312D01*
X329144Y71306D01*
X329813D01*
Y73380D01*
D02*
G37*
G36*
X356784Y9924D02*
X356084D01*
X355897Y9918D01*
X355722Y9899D01*
X355578Y9874D01*
X355453Y9849D01*
X355397Y9836D01*
X355353Y9824D01*
X355310Y9811D01*
X355278Y9799D01*
X355253Y9786D01*
X355228Y9780D01*
X355222Y9774D01*
X355216D01*
X355091Y9711D01*
X354985Y9649D01*
X354885Y9580D01*
X354803Y9511D01*
X354741Y9455D01*
X354691Y9405D01*
X354666Y9374D01*
X354654Y9361D01*
X354572Y9262D01*
X354504Y9155D01*
X354447Y9049D01*
X354403Y8949D01*
X354366Y8868D01*
X354341Y8799D01*
X354335Y8774D01*
X354329Y8755D01*
X354322Y8743D01*
Y8737D01*
X354285Y8599D01*
X354260Y8462D01*
X354241Y8331D01*
X354229Y8212D01*
X354222Y8105D01*
X354216Y8062D01*
Y8024D01*
Y7999D01*
Y7974D01*
Y7962D01*
Y7956D01*
X354222Y7762D01*
X354235Y7587D01*
X354254Y7431D01*
X354272Y7300D01*
X354285Y7237D01*
X354297Y7187D01*
X354310Y7143D01*
X354316Y7106D01*
X354322Y7074D01*
X354329Y7056D01*
X354335Y7043D01*
Y7037D01*
X354379Y6900D01*
X354435Y6775D01*
X354491Y6668D01*
X354547Y6575D01*
X354597Y6500D01*
X354641Y6443D01*
X354666Y6412D01*
X354678Y6400D01*
X354766Y6312D01*
X354860Y6231D01*
X354960Y6169D01*
X355047Y6112D01*
X355128Y6075D01*
X355191Y6043D01*
X355216Y6031D01*
X355235Y6025D01*
X355241Y6019D01*
X355247D01*
X355378Y5981D01*
X355522Y5950D01*
X355659Y5931D01*
X355791Y5912D01*
X355903Y5906D01*
X355953D01*
X355997Y5900D01*
X356784D01*
Y9924D01*
D02*
G37*
G36*
X317284Y35424D02*
X316584D01*
X316397Y35418D01*
X316222Y35399D01*
X316078Y35374D01*
X315953Y35349D01*
X315897Y35336D01*
X315853Y35324D01*
X315810Y35311D01*
X315778Y35299D01*
X315753Y35286D01*
X315728Y35280D01*
X315722Y35274D01*
X315716D01*
X315591Y35211D01*
X315485Y35149D01*
X315385Y35080D01*
X315303Y35011D01*
X315241Y34955D01*
X315191Y34905D01*
X315166Y34874D01*
X315154Y34861D01*
X315072Y34762D01*
X315004Y34655D01*
X314947Y34549D01*
X314904Y34449D01*
X314866Y34368D01*
X314841Y34299D01*
X314835Y34274D01*
X314829Y34255D01*
X314822Y34243D01*
Y34237D01*
X314785Y34099D01*
X314760Y33962D01*
X314741Y33830D01*
X314729Y33712D01*
X314722Y33605D01*
X314716Y33562D01*
Y33524D01*
Y33499D01*
Y33474D01*
Y33462D01*
Y33456D01*
X314722Y33262D01*
X314735Y33087D01*
X314754Y32931D01*
X314772Y32799D01*
X314785Y32737D01*
X314797Y32687D01*
X314810Y32643D01*
X314816Y32606D01*
X314822Y32575D01*
X314829Y32556D01*
X314835Y32543D01*
Y32537D01*
X314879Y32400D01*
X314935Y32275D01*
X314991Y32168D01*
X315047Y32075D01*
X315097Y32000D01*
X315141Y31943D01*
X315166Y31912D01*
X315179Y31900D01*
X315266Y31812D01*
X315360Y31731D01*
X315460Y31669D01*
X315547Y31612D01*
X315628Y31575D01*
X315691Y31544D01*
X315716Y31531D01*
X315735Y31525D01*
X315741Y31519D01*
X315747D01*
X315878Y31481D01*
X316022Y31450D01*
X316159Y31431D01*
X316291Y31412D01*
X316403Y31406D01*
X316453D01*
X316497Y31400D01*
X317284D01*
Y35424D01*
D02*
G37*
%LPD*%
D11*
X331150Y216230D02*
Y248230D01*
X282150D02*
X331150D01*
X282150Y216230D02*
Y248230D01*
Y216230D02*
X331150D01*
X332450Y197480D02*
Y212730D01*
X256000Y63500D02*
X288000D01*
Y112500D01*
X256000D02*
X288000D01*
X256000Y63500D02*
Y112500D01*
X237250Y62200D02*
X252500D01*
X237250Y126100D02*
X252520D01*
X256020Y129480D02*
Y178520D01*
X287980D01*
Y129480D02*
Y178520D01*
X256020Y129480D02*
X287980D01*
X438820Y135500D02*
X453570D01*
X506750Y134120D02*
Y148870D01*
X506500Y264750D02*
Y279500D01*
X130600Y240640D02*
X139600D01*
X130600Y270640D02*
X139600D01*
X130600Y240640D02*
Y270640D01*
X139600Y240640D02*
Y270640D01*
X72600Y225750D02*
X86400D01*
D14*
X123250Y237640D02*
G03*
X123250Y237640I-1250J0D01*
G01*
M02*
