G04*
G04 #@! TF.GenerationSoftware,Altium Limited,Altium Designer,18.1.9 (240)*
G04*
G04 Layer_Color=8388736*
%FSLAX44Y44*%
%MOMM*%
G71*
G01*
G75*
%ADD33R,1.2000X1.3000*%
%ADD34R,1.2500X0.8000*%
%ADD35R,0.6300X0.5500*%
%ADD36R,1.3000X1.4500*%
%ADD37R,0.8600X0.5500*%
%ADD38R,2.2500X2.7000*%
%ADD39R,1.3000X1.6000*%
%ADD40R,1.3000X1.2000*%
%ADD41R,1.6750X0.8000*%
%ADD42R,0.8000X1.6750*%
%ADD43R,4.2000X4.2000*%
%ADD44R,1.5000X0.6500*%
%ADD45R,0.8000X1.4200*%
%ADD46R,1.4500X1.3000*%
%ADD47R,2.2000X1.2000*%
%ADD48R,2.2000X1.2000*%
%ADD49C,0.2000*%
%ADD50R,1.5580X1.5580*%
%ADD51C,1.5580*%
%ADD52C,1.7500*%
%ADD53R,1.3500X1.3500*%
%ADD54C,1.3500*%
%ADD55R,1.3500X1.3500*%
%ADD56O,2.2000X1.6500*%
%ADD57O,2.0000X1.3500*%
%ADD58C,1.2000*%
%ADD59R,1.2000X1.2000*%
%ADD60R,1.2000X1.2000*%
D33*
X394500Y234250D02*
D03*
X377500D02*
D03*
X549000Y211750D02*
D03*
X532000D02*
D03*
X549500Y226450D02*
D03*
X532500D02*
D03*
X430000Y99750D02*
D03*
X447000D02*
D03*
X430250Y113750D02*
D03*
X447250D02*
D03*
X445000Y79750D02*
D03*
X462000D02*
D03*
X521750Y81500D02*
D03*
X538750D02*
D03*
X521750Y95500D02*
D03*
X538750D02*
D03*
X166000Y244000D02*
D03*
X183000D02*
D03*
X166000Y231000D02*
D03*
X183000D02*
D03*
X143500Y206320D02*
D03*
X126500D02*
D03*
X143500Y221320D02*
D03*
X126500D02*
D03*
X144000Y269000D02*
D03*
X127000D02*
D03*
X171500Y98000D02*
D03*
X154500D02*
D03*
X171500Y83000D02*
D03*
X154500D02*
D03*
X208000Y106000D02*
D03*
X225000D02*
D03*
D34*
X400750Y211750D02*
D03*
X378750Y202250D02*
D03*
Y221250D02*
D03*
D35*
X408000Y239000D02*
D03*
Y232500D02*
D03*
Y226000D02*
D03*
X426700D02*
D03*
Y232500D02*
D03*
Y239000D02*
D03*
D36*
X417350Y235350D02*
D03*
X356500Y93750D02*
D03*
Y117250D02*
D03*
D37*
X417350Y224750D02*
D03*
D38*
X300000Y202350D02*
D03*
Y268350D02*
D03*
D39*
X330000Y156000D02*
D03*
X345000D02*
D03*
X313000Y137000D02*
D03*
X298000D02*
D03*
X313000Y156000D02*
D03*
X298000D02*
D03*
X330000Y174000D02*
D03*
X345000D02*
D03*
X313000D02*
D03*
X298000D02*
D03*
D40*
X246000Y154000D02*
D03*
Y171000D02*
D03*
X394000Y100000D02*
D03*
Y117000D02*
D03*
X340250Y115750D02*
D03*
Y98750D02*
D03*
X408000Y116500D02*
D03*
Y99500D02*
D03*
X535250Y126500D02*
D03*
Y143500D02*
D03*
X521250Y126500D02*
D03*
Y143500D02*
D03*
X549250Y143500D02*
D03*
Y126500D02*
D03*
X537790Y254750D02*
D03*
Y271750D02*
D03*
X524000Y254750D02*
D03*
Y271750D02*
D03*
X551000D02*
D03*
Y254750D02*
D03*
X243000Y121000D02*
D03*
Y104000D02*
D03*
D41*
X227760Y138000D02*
D03*
Y146000D02*
D03*
Y154000D02*
D03*
Y162000D02*
D03*
Y170000D02*
D03*
Y178000D02*
D03*
Y186000D02*
D03*
Y194000D02*
D03*
X143000D02*
D03*
Y186000D02*
D03*
Y178000D02*
D03*
Y170000D02*
D03*
Y162000D02*
D03*
Y154000D02*
D03*
Y146000D02*
D03*
Y138000D02*
D03*
D42*
X213380Y208380D02*
D03*
X205380D02*
D03*
X197380D02*
D03*
X189380D02*
D03*
X181380D02*
D03*
X173380D02*
D03*
X165380D02*
D03*
X157380D02*
D03*
Y123620D02*
D03*
X165380D02*
D03*
X173380D02*
D03*
X181380D02*
D03*
X189380D02*
D03*
X197380D02*
D03*
X205380D02*
D03*
X213380D02*
D03*
D43*
X448940Y36000D02*
D03*
X395750Y35500D02*
D03*
X582000Y121750D02*
D03*
X582250Y68000D02*
D03*
X582060Y249750D02*
D03*
X583000Y202000D02*
D03*
X419000Y267000D02*
D03*
X372000Y267000D02*
D03*
D44*
X58150Y238940D02*
D03*
Y232440D02*
D03*
Y225940D02*
D03*
Y219440D02*
D03*
Y212940D02*
D03*
D45*
X87650Y191545D02*
D03*
X97150D02*
D03*
X106650D02*
D03*
Y217745D02*
D03*
X97150D02*
D03*
X87650D02*
D03*
D46*
X110000Y269000D02*
D03*
X86500D02*
D03*
X140000Y98300D02*
D03*
X116500D02*
D03*
X140000Y83000D02*
D03*
X116500D02*
D03*
D47*
X27000Y165750D02*
D03*
X87000D02*
D03*
D48*
X27000Y125750D02*
D03*
X87000D02*
D03*
D49*
X290000Y20000D02*
D03*
X470000Y280000D02*
D03*
X200000D02*
D03*
X46650Y251440D02*
D03*
Y201440D02*
D03*
D50*
X218600Y24000D02*
D03*
X133600D02*
D03*
X50300D02*
D03*
D51*
X231300Y49400D02*
D03*
X244000Y24000D02*
D03*
X256700Y49400D02*
D03*
X146300D02*
D03*
X159000Y24000D02*
D03*
X171700Y49400D02*
D03*
X63000D02*
D03*
X75700Y24000D02*
D03*
X88400Y49400D02*
D03*
D52*
X204600Y42000D02*
D03*
X119600D02*
D03*
X36300D02*
D03*
D53*
X390250Y160000D02*
D03*
X489000Y214000D02*
D03*
D54*
X415250Y160000D02*
D03*
X476000Y153000D02*
D03*
X464000Y214000D02*
D03*
D55*
X476000Y128000D02*
D03*
D56*
X57150Y263690D02*
D03*
Y189190D02*
D03*
D57*
X19150Y265190D02*
D03*
Y187690D02*
D03*
D58*
X357450Y21250D02*
D03*
X344750D02*
D03*
X322750Y45750D02*
D03*
X93650Y95200D02*
D03*
Y82500D02*
D03*
X80950Y95200D02*
D03*
Y82500D02*
D03*
X68250Y95200D02*
D03*
Y82500D02*
D03*
X55550Y95200D02*
D03*
Y82500D02*
D03*
X42850Y95200D02*
D03*
D59*
X332050Y21250D02*
D03*
X42850Y82500D02*
D03*
D60*
X322750Y58450D02*
D03*
M02*
