G04*
G04 #@! TF.GenerationSoftware,Altium Limited,Altium Designer,18.1.9 (240)*
G04*
G04 Layer_Color=16711935*
%FSLAX44Y44*%
%MOMM*%
G71*
G01*
G75*
%ADD33R,1.2000X1.3000*%
%ADD39R,1.3000X1.6000*%
%ADD40R,1.3000X1.2000*%
%ADD49C,0.2000*%
%ADD50R,1.5580X1.5580*%
%ADD51C,1.5580*%
%ADD52C,1.7500*%
%ADD53R,1.3500X1.3500*%
%ADD54C,1.3500*%
%ADD55R,1.3500X1.3500*%
%ADD56O,2.2000X1.6500*%
%ADD57O,2.0000X1.3500*%
%ADD58C,1.2000*%
%ADD59R,1.2000X1.2000*%
%ADD60R,1.2000X1.2000*%
%ADD90R,1.6000X1.3000*%
%ADD91R,0.8500X1.7250*%
%ADD92R,1.7250X0.8500*%
%ADD93R,1.7280X0.6350*%
%ADD94R,2.6600X3.7500*%
%ADD95R,1.6750X0.6500*%
%ADD96R,3.7500X2.6600*%
%ADD97R,0.6500X1.6750*%
%ADD98R,1.4200X0.8000*%
%ADD99R,1.9500X1.3400*%
D33*
X327000Y186350D02*
D03*
X344000D02*
D03*
X317300Y276350D02*
D03*
X300300D02*
D03*
X296500Y186350D02*
D03*
X313500D02*
D03*
X209000Y66000D02*
D03*
X226000D02*
D03*
X283500Y55500D02*
D03*
X300500D02*
D03*
X314500Y120500D02*
D03*
X297500D02*
D03*
X244000Y120000D02*
D03*
X227000D02*
D03*
X559750Y35500D02*
D03*
X542750D02*
D03*
X532650Y56907D02*
D03*
X515650D02*
D03*
X559500Y169750D02*
D03*
X542500D02*
D03*
X532400Y187750D02*
D03*
X515400D02*
D03*
D39*
X343000Y39000D02*
D03*
X358000D02*
D03*
Y57000D02*
D03*
X343000D02*
D03*
D40*
X343000Y243350D02*
D03*
Y260350D02*
D03*
X273000Y218350D02*
D03*
Y235350D02*
D03*
X258000Y218350D02*
D03*
Y235350D02*
D03*
X340000Y83500D02*
D03*
Y100500D02*
D03*
X362000Y109600D02*
D03*
Y126600D02*
D03*
X164000Y227000D02*
D03*
Y244000D02*
D03*
X99000Y264500D02*
D03*
Y247500D02*
D03*
D49*
X290000Y20000D02*
D03*
X470000Y280000D02*
D03*
X200000D02*
D03*
X46650Y251440D02*
D03*
Y201440D02*
D03*
D50*
X218600Y24000D02*
D03*
X133600D02*
D03*
X50300D02*
D03*
D51*
X231300Y49400D02*
D03*
X244000Y24000D02*
D03*
X256700Y49400D02*
D03*
X146300D02*
D03*
X159000Y24000D02*
D03*
X171700Y49400D02*
D03*
X63000D02*
D03*
X75700Y24000D02*
D03*
X88400Y49400D02*
D03*
D52*
X204600Y42000D02*
D03*
X119600D02*
D03*
X36300D02*
D03*
D53*
X390250Y160000D02*
D03*
X489000Y214000D02*
D03*
D54*
X415250Y160000D02*
D03*
X476000Y153000D02*
D03*
X464000Y214000D02*
D03*
D55*
X476000Y128000D02*
D03*
D56*
X57150Y263690D02*
D03*
Y189190D02*
D03*
D57*
X19150Y265190D02*
D03*
Y187690D02*
D03*
D58*
X357450Y21250D02*
D03*
X344750D02*
D03*
X322750Y45750D02*
D03*
X93650Y95200D02*
D03*
Y82500D02*
D03*
X80950Y95200D02*
D03*
Y82500D02*
D03*
X68250Y95200D02*
D03*
Y82500D02*
D03*
X55550Y95200D02*
D03*
Y82500D02*
D03*
X42850Y95200D02*
D03*
D59*
X332050Y21250D02*
D03*
X42850Y82500D02*
D03*
D60*
X322750Y58450D02*
D03*
D90*
X381000Y227350D02*
D03*
Y212350D02*
D03*
X399000Y226500D02*
D03*
Y211500D02*
D03*
X343000Y227350D02*
D03*
Y212350D02*
D03*
X362000Y227350D02*
D03*
Y212350D02*
D03*
Y244350D02*
D03*
Y259350D02*
D03*
D91*
X325700Y205110D02*
D03*
X313000D02*
D03*
X300300D02*
D03*
X287600D02*
D03*
Y259350D02*
D03*
X300300D02*
D03*
X313000D02*
D03*
X325700D02*
D03*
D92*
X244880Y68950D02*
D03*
Y81650D02*
D03*
Y94350D02*
D03*
Y107050D02*
D03*
X299120D02*
D03*
Y94350D02*
D03*
Y81650D02*
D03*
Y68950D02*
D03*
D93*
X299110Y131780D02*
D03*
Y138120D02*
D03*
Y144480D02*
D03*
Y150820D02*
D03*
Y157180D02*
D03*
Y163520D02*
D03*
Y169880D02*
D03*
Y176220D02*
D03*
X244890D02*
D03*
Y169880D02*
D03*
Y163520D02*
D03*
Y157180D02*
D03*
Y150820D02*
D03*
Y144480D02*
D03*
Y138120D02*
D03*
Y131780D02*
D03*
D94*
X416820Y107000D02*
D03*
D95*
X387440Y129750D02*
D03*
Y123250D02*
D03*
Y116750D02*
D03*
Y110250D02*
D03*
Y103750D02*
D03*
Y97250D02*
D03*
Y90750D02*
D03*
Y84250D02*
D03*
X446200D02*
D03*
Y90750D02*
D03*
Y97250D02*
D03*
Y103750D02*
D03*
Y110250D02*
D03*
Y116750D02*
D03*
Y123250D02*
D03*
Y129750D02*
D03*
D96*
X535250Y112120D02*
D03*
X535000Y242750D02*
D03*
D97*
X512500Y82740D02*
D03*
X519000D02*
D03*
X525500D02*
D03*
X532000D02*
D03*
X538500D02*
D03*
X545000D02*
D03*
X551500D02*
D03*
X558000D02*
D03*
Y141500D02*
D03*
X551500D02*
D03*
X545000D02*
D03*
X538500D02*
D03*
X532000D02*
D03*
X525500D02*
D03*
X519000D02*
D03*
X512500D02*
D03*
X512250Y213370D02*
D03*
X518750D02*
D03*
X525250D02*
D03*
X531750D02*
D03*
X538250D02*
D03*
X544750D02*
D03*
X551250D02*
D03*
X557750D02*
D03*
Y272130D02*
D03*
X551250D02*
D03*
X544750D02*
D03*
X538250D02*
D03*
X531750D02*
D03*
X525250D02*
D03*
X518750D02*
D03*
X512250D02*
D03*
D98*
X122000Y246140D02*
D03*
Y255640D02*
D03*
Y265140D02*
D03*
X148200D02*
D03*
Y246140D02*
D03*
D99*
X79500Y240550D02*
D03*
Y210950D02*
D03*
M02*
