G04*
G04 #@! TF.GenerationSoftware,Altium Limited,Altium Designer,18.1.9 (240)*
G04*
G04 Layer_Color=2752767*
%FSLAX43Y43*%
%MOMM*%
G71*
G01*
G75*
%ADD16C,0.254*%
%ADD100C,0.051*%
%ADD101C,0.068*%
D16*
X0Y0D02*
X61500D01*
X0D02*
Y30000D01*
X61500D01*
Y0D02*
Y30000D01*
D100*
X28797Y1797D02*
Y2203D01*
X29203D01*
Y1797D01*
X28797D01*
X46797Y27797D02*
Y28203D01*
X47203D01*
Y27797D01*
X46797D01*
X19797D02*
Y28203D01*
X20203D01*
Y27797D01*
X19797D01*
X20460Y3997D02*
X20257Y4403D01*
X20663D01*
X20460Y3997D01*
X39025Y15797D02*
X39127Y15898D01*
X39228D01*
X39127Y16000D01*
X39228Y16102D01*
X39127D01*
X39025Y16203D01*
X38923Y16102D01*
X38822D01*
X38923Y16000D01*
X38822Y15898D01*
X38923D01*
X39025Y15797D01*
X41525D02*
X41627Y15898D01*
X41728D01*
X41627Y16000D01*
X41728Y16102D01*
X41627D01*
X41525Y16203D01*
X41423Y16102D01*
X41322D01*
X41423Y16000D01*
X41322Y15898D01*
X41423D01*
X41525Y15797D01*
X11960Y3997D02*
X11757Y4403D01*
X12163D01*
X11960Y3997D01*
X47600Y12597D02*
X47702Y12698D01*
X47803D01*
X47702Y12800D01*
X47803Y12902D01*
X47702D01*
X47600Y13003D01*
X47498Y12902D01*
X47397D01*
X47498Y12800D01*
X47397Y12698D01*
X47498D01*
X47600Y12597D01*
Y15097D02*
X47702Y15198D01*
X47803D01*
X47702Y15300D01*
X47803Y15402D01*
X47702D01*
X47600Y15503D01*
X47498Y15402D01*
X47397D01*
X47498Y15300D01*
X47397Y15198D01*
X47498D01*
X47600Y15097D01*
X3630Y3997D02*
X3427Y4403D01*
X3833D01*
X3630Y3997D01*
X48900Y21197D02*
X49002Y21298D01*
X49103D01*
X49002Y21400D01*
X49103Y21502D01*
X49002D01*
X48900Y21603D01*
X48798Y21502D01*
X48697D01*
X48798Y21400D01*
X48697Y21298D01*
X48798D01*
X48900Y21197D01*
X46400D02*
X46502Y21298D01*
X46603D01*
X46502Y21400D01*
X46603Y21502D01*
X46502D01*
X46400Y21603D01*
X46298Y21502D01*
X46197D01*
X46298Y21400D01*
X46197Y21298D01*
X46298D01*
X46400Y21197D01*
X5512Y26166D02*
X5613Y26369D01*
X5512Y26572D01*
X5715Y26471D01*
X5918Y26572D01*
X5817Y26369D01*
X5918Y26166D01*
X5715Y26267D01*
X5512Y26166D01*
X1813Y26417D02*
Y26316D01*
X2017D01*
Y26417D01*
X2118D01*
Y26621D01*
X2017D01*
Y26722D01*
X1813D01*
Y26621D01*
X1712D01*
Y26417D01*
X1813D01*
X5512Y18716D02*
X5613Y18919D01*
X5512Y19122D01*
X5715Y19021D01*
X5918Y19122D01*
X5817Y18919D01*
X5918Y18716D01*
X5715Y18817D01*
X5512Y18716D01*
X1813Y18667D02*
Y18566D01*
X2017D01*
Y18667D01*
X2118D01*
Y18871D01*
X2017D01*
Y18972D01*
X1813D01*
Y18871D01*
X1712D01*
Y18667D01*
X1813D01*
X4462Y24941D02*
X4563D01*
X4665Y25042D01*
X4767Y24941D01*
X4868D01*
Y25042D01*
X4767Y25144D01*
X4868Y25246D01*
Y25347D01*
X4767D01*
X4665Y25246D01*
X4563Y25347D01*
X4462D01*
Y25246D01*
X4563Y25144D01*
X4462Y25042D01*
Y24941D01*
Y19941D02*
X4563D01*
X4665Y20042D01*
X4767Y19941D01*
X4868D01*
Y20042D01*
X4767Y20144D01*
X4868Y20246D01*
Y20347D01*
X4767D01*
X4665Y20246D01*
X4563Y20347D01*
X4462D01*
Y20246D01*
X4563Y20144D01*
X4462Y20042D01*
Y19941D01*
X35542Y2125D02*
X35745Y2328D01*
X35948Y2125D01*
X35745Y1922D01*
X35542Y2125D01*
X34272D02*
X34475Y2328D01*
X34678Y2125D01*
X34475Y1922D01*
X34272Y2125D01*
X33002D02*
X33205Y2328D01*
X33408Y2125D01*
X33205Y1922D01*
X33002Y2125D01*
X32072Y4575D02*
X32275Y4778D01*
X32478Y4575D01*
X32275Y4372D01*
X32072Y4575D01*
Y5845D02*
X32275Y6048D01*
X32478Y5845D01*
X32275Y5642D01*
X32072Y5845D01*
X9162Y9520D02*
X9365Y9723D01*
X9568Y9520D01*
X9365Y9317D01*
X9162Y9520D01*
Y8250D02*
X9365Y8453D01*
X9568Y8250D01*
X9365Y8047D01*
X9162Y8250D01*
X7892Y9520D02*
X8095Y9723D01*
X8298Y9520D01*
X8095Y9317D01*
X7892Y9520D01*
Y8250D02*
X8095Y8453D01*
X8298Y8250D01*
X8095Y8047D01*
X7892Y8250D01*
X6622Y9520D02*
X6825Y9723D01*
X7028Y9520D01*
X6825Y9317D01*
X6622Y9520D01*
Y8250D02*
X6825Y8453D01*
X7028Y8250D01*
X6825Y8047D01*
X6622Y8250D01*
X5352Y9520D02*
X5555Y9723D01*
X5758Y9520D01*
X5555Y9317D01*
X5352Y9520D01*
Y8250D02*
X5555Y8453D01*
X5758Y8250D01*
X5555Y8047D01*
X5352Y8250D01*
X4082Y9520D02*
X4285Y9723D01*
X4488Y9520D01*
X4285Y9317D01*
X4082Y9520D01*
Y8250D02*
X4285Y8453D01*
X4488Y8250D01*
X4285Y8047D01*
X4082Y8250D01*
X5622Y20272D02*
Y20678D01*
X6028D01*
Y20272D01*
X5622D01*
X5723Y20373D02*
Y20577D01*
X5927D01*
Y20373D01*
X5723D01*
X4336Y21047D02*
Y21453D01*
X4742D01*
Y21047D01*
X4336D01*
X4437Y21148D02*
Y21352D01*
X4640D01*
Y21148D01*
X4437D01*
X5095Y14272D02*
Y14678D01*
X5501D01*
Y14272D01*
X5095D01*
X5196Y14373D02*
Y14577D01*
X5399D01*
Y14373D01*
X5196D01*
X10612Y1897D02*
Y2303D01*
X11018D01*
Y1897D01*
X10612D01*
X10713Y1998D02*
Y2202D01*
X10917D01*
Y1998D01*
X10713D01*
X19191Y13557D02*
Y13964D01*
X19598D01*
Y13557D01*
X19191D01*
X19293Y13659D02*
Y13862D01*
X19496D01*
Y13659D01*
X19293D01*
X14109Y23072D02*
Y23478D01*
X14516D01*
Y23072D01*
X14109D01*
X14211Y23173D02*
Y23377D01*
X14414D01*
Y23173D01*
X14211D01*
X9479Y20747D02*
Y21153D01*
X9885D01*
Y20747D01*
X9479D01*
X9580Y20848D02*
Y21052D01*
X9784D01*
Y20848D01*
X9580D01*
X46522Y8522D02*
Y8928D01*
X46928D01*
Y8522D01*
X46522D01*
X46623Y8623D02*
Y8827D01*
X46827D01*
Y8623D01*
X46623D01*
X45822Y9122D02*
Y9528D01*
X46228D01*
Y9122D01*
X45822D01*
X45923Y9223D02*
Y9427D01*
X46127D01*
Y9223D01*
X45923D01*
X53801Y15447D02*
Y15853D01*
X54207D01*
Y15447D01*
X53801D01*
X53902Y15548D02*
Y15752D01*
X54106D01*
Y15548D01*
X53902D01*
X50272Y22072D02*
Y22478D01*
X50678D01*
Y22072D01*
X50272D01*
X50373Y22173D02*
Y22377D01*
X50577D01*
Y22173D01*
X50373D01*
X51897Y19772D02*
Y20178D01*
X52303D01*
Y19772D01*
X51897D01*
X51998Y19873D02*
Y20077D01*
X52202D01*
Y19873D01*
X51998D01*
X50997Y19772D02*
Y20178D01*
X51403D01*
Y19772D01*
X50997D01*
X51098Y19873D02*
Y20077D01*
X51302D01*
Y19873D01*
X51098D01*
X39547Y19972D02*
Y20378D01*
X39953D01*
Y19972D01*
X39547D01*
X39648Y20073D02*
Y20277D01*
X39852D01*
Y20073D01*
X39648D01*
X10997Y25297D02*
Y25703D01*
X11403D01*
Y25297D01*
X10997D01*
X11098Y25398D02*
Y25602D01*
X11302D01*
Y25398D01*
X11098D01*
X25697Y10497D02*
Y10903D01*
X26103D01*
Y10497D01*
X25697D01*
X25798Y10598D02*
Y10802D01*
X26002D01*
Y10598D01*
X25798D01*
X10097Y16272D02*
Y16678D01*
X10503D01*
Y16272D01*
X10097D01*
X10198Y16373D02*
Y16577D01*
X10402D01*
Y16373D01*
X10198D01*
X9479Y18922D02*
Y19328D01*
X9885D01*
Y18922D01*
X9479D01*
X9580Y19023D02*
Y19227D01*
X9784D01*
Y19023D01*
X9580D01*
X33472Y6947D02*
Y7353D01*
X33878D01*
Y6947D01*
X33472D01*
X33573Y7048D02*
Y7252D01*
X33777D01*
Y7048D01*
X33573D01*
X28097Y6454D02*
Y6860D01*
X28503D01*
Y6454D01*
X28097D01*
X28198Y6555D02*
Y6759D01*
X28402D01*
Y6555D01*
X28198D01*
X29947Y4497D02*
Y4903D01*
X30353D01*
Y4497D01*
X29947D01*
X30048Y4598D02*
Y4802D01*
X30252D01*
Y4598D01*
X30048D01*
X35022Y6847D02*
Y7253D01*
X35428D01*
Y6847D01*
X35022D01*
X35123Y6948D02*
Y7152D01*
X35327D01*
Y6948D01*
X35123D01*
X34847Y7872D02*
Y8278D01*
X35253D01*
Y7872D01*
X34847D01*
X34948Y7973D02*
Y8177D01*
X35152D01*
Y7973D01*
X34948D01*
X25197Y11597D02*
Y12003D01*
X25603D01*
Y11597D01*
X25197D01*
X25298Y11698D02*
Y11902D01*
X25502D01*
Y11698D01*
X25298D01*
X36447Y5472D02*
Y5878D01*
X36853D01*
Y5472D01*
X36447D01*
X36548Y5573D02*
Y5777D01*
X36752D01*
Y5573D01*
X36548D01*
X36447Y3509D02*
Y3915D01*
X36853D01*
Y3509D01*
X36447D01*
X36548Y3610D02*
Y3814D01*
X36752D01*
Y3610D01*
X36548D01*
X34247Y6522D02*
Y6928D01*
X34653D01*
Y6522D01*
X34247D01*
X34348Y6623D02*
Y6827D01*
X34552D01*
Y6623D01*
X34348D01*
X7247Y18154D02*
Y18560D01*
X7653D01*
Y18154D01*
X7247D01*
X7348Y18256D02*
Y18459D01*
X7552D01*
Y18256D01*
X7348D01*
X12397Y17482D02*
Y17889D01*
X12803D01*
Y17482D01*
X12397D01*
X12498Y17584D02*
Y17787D01*
X12702D01*
Y17584D01*
X12498D01*
X21597Y8672D02*
Y9078D01*
X22003D01*
Y8672D01*
X21597D01*
X21698Y8773D02*
Y8977D01*
X21902D01*
Y8773D01*
X21698D01*
X25672Y3097D02*
Y3503D01*
X26078D01*
Y3097D01*
X25672D01*
X25773Y3198D02*
Y3402D01*
X25977D01*
Y3198D01*
X25773D01*
X17497Y2447D02*
Y2853D01*
X17903D01*
Y2447D01*
X17497D01*
X17598Y2548D02*
Y2752D01*
X17802D01*
Y2548D01*
X17598D01*
X4082Y12372D02*
Y12778D01*
X4488D01*
Y12372D01*
X4082D01*
X4183Y12473D02*
Y12677D01*
X4387D01*
Y12473D01*
X4183D01*
X1697Y14972D02*
Y15378D01*
X2103D01*
Y14972D01*
X1697D01*
X1798Y15073D02*
Y15277D01*
X2002D01*
Y15073D01*
X1798D01*
X1772Y5472D02*
Y5878D01*
X2178D01*
Y5472D01*
X1772D01*
X1873Y5573D02*
Y5777D01*
X2077D01*
Y5573D01*
X1873D01*
X2147Y8847D02*
Y9253D01*
X2553D01*
Y8847D01*
X2147D01*
X2248Y8948D02*
Y9152D01*
X2452D01*
Y8948D01*
X2248D01*
X2497Y23697D02*
Y24103D01*
X2903D01*
Y23697D01*
X2497D01*
X2598Y23798D02*
Y24002D01*
X2802D01*
Y23798D01*
X2598D01*
X2597Y21197D02*
Y21603D01*
X3003D01*
Y21197D01*
X2597D01*
X2698Y21298D02*
Y21502D01*
X2902D01*
Y21298D01*
X2698D01*
X44697Y27672D02*
Y28078D01*
X45103D01*
Y27672D01*
X44697D01*
X44798Y27773D02*
Y27977D01*
X45002D01*
Y27773D01*
X44798D01*
X58272Y27922D02*
Y28328D01*
X58678D01*
Y27922D01*
X58272D01*
X58373Y28023D02*
Y28227D01*
X58577D01*
Y28023D01*
X58373D01*
X54311Y1372D02*
Y1778D01*
X54717D01*
Y1372D01*
X54311D01*
X54412Y1473D02*
Y1677D01*
X54615D01*
Y1473D01*
X54412D01*
X51747Y1322D02*
Y1728D01*
X52153D01*
Y1322D01*
X51747D01*
X51848Y1423D02*
Y1627D01*
X52052D01*
Y1423D01*
X51848D01*
X48897Y1554D02*
Y1961D01*
X49303D01*
Y1554D01*
X48897D01*
X48998Y1656D02*
Y1859D01*
X49202D01*
Y1656D01*
X48998D01*
X50797Y15547D02*
Y15953D01*
X51203D01*
Y15547D01*
X50797D01*
X50898Y15648D02*
Y15852D01*
X51102D01*
Y15648D01*
X50898D01*
X20297Y14997D02*
Y15403D01*
X20703D01*
Y14997D01*
X20297D01*
X20398Y15098D02*
Y15302D01*
X20602D01*
Y15098D01*
X20398D01*
X58397Y15397D02*
Y15803D01*
X58803D01*
Y15397D01*
X58397D01*
X58498Y15498D02*
Y15702D01*
X58702D01*
Y15498D01*
X58498D01*
X58397Y3397D02*
Y3803D01*
X58803D01*
Y3397D01*
X58397D01*
X58498Y3498D02*
Y3702D01*
X58702D01*
Y3498D01*
X58498D01*
X49397Y27397D02*
Y27803D01*
X49803D01*
Y27397D01*
X49397D01*
X49498Y27498D02*
Y27702D01*
X49702D01*
Y27498D01*
X49498D01*
X47897Y24397D02*
Y24803D01*
X48303D01*
Y24397D01*
X47897D01*
X47998Y24498D02*
Y24702D01*
X48202D01*
Y24498D01*
X47998D01*
X44897Y24397D02*
Y24803D01*
X45303D01*
Y24397D01*
X44897D01*
X44998Y24498D02*
Y24702D01*
X45202D01*
Y24498D01*
X44998D01*
X29897Y24397D02*
Y24803D01*
X30303D01*
Y24397D01*
X29897D01*
X29998Y24498D02*
Y24702D01*
X30202D01*
Y24498D01*
X29998D01*
X25397Y27397D02*
Y27803D01*
X25803D01*
Y27397D01*
X25397D01*
X25498Y27498D02*
Y27702D01*
X25702D01*
Y27498D01*
X25498D01*
X53847Y28447D02*
Y28853D01*
X54253D01*
Y28447D01*
X53847D01*
X53948Y28548D02*
Y28752D01*
X54152D01*
Y28548D01*
X53948D01*
X54722Y28697D02*
Y29103D01*
X55128D01*
Y28697D01*
X54722D01*
X54823Y28798D02*
Y29002D01*
X55027D01*
Y28798D01*
X54823D01*
X52947Y28586D02*
Y28993D01*
X53353D01*
Y28586D01*
X52947D01*
X53048Y28688D02*
Y28891D01*
X53252D01*
Y28688D01*
X53048D01*
X50872Y24097D02*
Y24503D01*
X51278D01*
Y24097D01*
X50872D01*
X50973Y24198D02*
Y24402D01*
X51177D01*
Y24198D01*
X50973D01*
X52922Y15247D02*
Y15653D01*
X53328D01*
Y15247D01*
X52922D01*
X53023Y15348D02*
Y15552D01*
X53227D01*
Y15348D01*
X53023D01*
X54722Y15247D02*
Y15653D01*
X55128D01*
Y15247D01*
X54722D01*
X54823Y15348D02*
Y15552D01*
X55027D01*
Y15348D01*
X54823D01*
X50772Y12022D02*
Y12428D01*
X51178D01*
Y12022D01*
X50772D01*
X50873Y12123D02*
Y12327D01*
X51077D01*
Y12123D01*
X50873D01*
X28479Y18611D02*
Y19018D01*
X28885D01*
Y18611D01*
X28479D01*
X28581Y18713D02*
Y18916D01*
X28784D01*
Y18713D01*
X28581D01*
X37174Y10949D02*
Y11355D01*
X37580D01*
Y10949D01*
X37174D01*
X37275Y11050D02*
Y11254D01*
X37478D01*
Y11050D01*
X37275D01*
X37149Y11849D02*
Y12255D01*
X37555D01*
Y11849D01*
X37149D01*
X37250Y11950D02*
Y12154D01*
X37453D01*
Y11950D01*
X37250D01*
X36222Y13211D02*
Y13617D01*
X36628D01*
Y13211D01*
X36222D01*
X36323Y13312D02*
Y13516D01*
X36527D01*
Y13312D01*
X36323D01*
X37179Y12797D02*
Y13203D01*
X37585D01*
Y12797D01*
X37179D01*
X37280Y12898D02*
Y13102D01*
X37484D01*
Y12898D01*
X37280D01*
X35922Y19872D02*
Y20278D01*
X36328D01*
Y19872D01*
X35922D01*
X36023Y19973D02*
Y20177D01*
X36227D01*
Y19973D01*
X36023D01*
X34147Y19697D02*
Y20103D01*
X34553D01*
Y19697D01*
X34147D01*
X34248Y19798D02*
Y20002D01*
X34452D01*
Y19798D01*
X34248D01*
X35247Y18297D02*
Y18703D01*
X35653D01*
Y18297D01*
X35247D01*
X35348Y18398D02*
Y18602D01*
X35552D01*
Y18398D01*
X35348D01*
X55897Y28397D02*
Y28803D01*
X56303D01*
Y28397D01*
X55897D01*
X55998Y28498D02*
Y28702D01*
X56202D01*
Y28498D01*
X55998D01*
X55497Y22447D02*
Y22853D01*
X55903D01*
Y22447D01*
X55497D01*
X55598Y22548D02*
Y22752D01*
X55802D01*
Y22548D01*
X55598D01*
X54797Y23797D02*
Y24203D01*
X55203D01*
Y23797D01*
X54797D01*
X54898Y23898D02*
Y24102D01*
X55102D01*
Y23898D01*
X54898D01*
X53522Y23722D02*
Y24128D01*
X53928D01*
Y23722D01*
X53522D01*
X53623Y23823D02*
Y24027D01*
X53827D01*
Y23823D01*
X53623D01*
X52372Y23697D02*
Y24103D01*
X52778D01*
Y23697D01*
X52372D01*
X52473Y23798D02*
Y24002D01*
X52677D01*
Y23798D01*
X52473D01*
X55747Y2272D02*
Y2678D01*
X56153D01*
Y2272D01*
X55747D01*
X55848Y2373D02*
Y2577D01*
X56052D01*
Y2373D01*
X55848D01*
X56809Y3297D02*
Y3703D01*
X57215D01*
Y3297D01*
X56809D01*
X56910Y3398D02*
Y3602D01*
X57114D01*
Y3398D01*
X56910D01*
X56897Y16722D02*
Y17128D01*
X57303D01*
Y16722D01*
X56897D01*
X56998Y16823D02*
Y17027D01*
X57202D01*
Y16823D01*
X56998D01*
X55672Y15422D02*
Y15828D01*
X56078D01*
Y15422D01*
X55672D01*
X55773Y15523D02*
Y15727D01*
X55977D01*
Y15523D01*
X55773D01*
X50897Y9522D02*
Y9928D01*
X51303D01*
Y9522D01*
X50897D01*
X50998Y9623D02*
Y9827D01*
X51202D01*
Y9623D01*
X50998D01*
X55347Y9422D02*
Y9828D01*
X55753D01*
Y9422D01*
X55347D01*
X55448Y9523D02*
Y9727D01*
X55652D01*
Y9523D01*
X55448D01*
X52122Y11147D02*
Y11553D01*
X52528D01*
Y11147D01*
X52122D01*
X52223Y11248D02*
Y11452D01*
X52427D01*
Y11248D01*
X52223D01*
X53547Y11072D02*
Y11478D01*
X53953D01*
Y11072D01*
X53547D01*
X53648Y11173D02*
Y11377D01*
X53852D01*
Y11173D01*
X53648D01*
X54797Y11172D02*
Y11578D01*
X55203D01*
Y11172D01*
X54797D01*
X54898Y11273D02*
Y11477D01*
X55102D01*
Y11273D01*
X54898D01*
X32172Y12547D02*
Y12953D01*
X32578D01*
Y12547D01*
X32172D01*
X32273Y12648D02*
Y12852D01*
X32477D01*
Y12648D01*
X32273D01*
X41722Y6847D02*
Y7253D01*
X42128D01*
Y6847D01*
X41722D01*
X41823Y6948D02*
Y7152D01*
X42027D01*
Y6948D01*
X41823D01*
X21297Y7222D02*
Y7628D01*
X21703D01*
Y7222D01*
X21297D01*
X21398Y7323D02*
Y7527D01*
X21602D01*
Y7323D01*
X21398D01*
X46347Y10022D02*
Y10428D01*
X46753D01*
Y10022D01*
X46347D01*
X46448Y10123D02*
Y10327D01*
X46652D01*
Y10123D01*
X46448D01*
X41697Y11597D02*
Y12003D01*
X42103D01*
Y11597D01*
X41697D01*
X41798Y11698D02*
Y11902D01*
X42002D01*
Y11698D01*
X41798D01*
X35342Y13172D02*
Y13578D01*
X35748D01*
Y13172D01*
X35342D01*
X35443Y13273D02*
Y13477D01*
X35647D01*
Y13273D01*
X35443D01*
X28372Y15347D02*
Y15753D01*
X28778D01*
Y15347D01*
X28372D01*
X28473Y15448D02*
Y15652D01*
X28677D01*
Y15448D01*
X28473D01*
X28372Y13447D02*
Y13853D01*
X28778D01*
Y13447D01*
X28372D01*
X28473Y13548D02*
Y13752D01*
X28677D01*
Y13548D01*
X28473D01*
X28697Y11788D02*
Y12194D01*
X29103D01*
Y11788D01*
X28697D01*
X28798Y11889D02*
Y12093D01*
X29002D01*
Y11889D01*
X28798D01*
X34447Y13211D02*
Y13617D01*
X34853D01*
Y13211D01*
X34447D01*
X34548Y13312D02*
Y13516D01*
X34752D01*
Y13312D01*
X34548D01*
X33572Y13197D02*
Y13603D01*
X33978D01*
Y13197D01*
X33572D01*
X33673Y13298D02*
Y13502D01*
X33877D01*
Y13298D01*
X33673D01*
X38522Y4597D02*
Y5003D01*
X38928D01*
Y4597D01*
X38522D01*
X38623Y4698D02*
Y4902D01*
X38827D01*
Y4698D01*
X38623D01*
X57903Y26022D02*
Y26428D01*
X58309D01*
Y26022D01*
X57903D01*
X58004Y26123D02*
Y26327D01*
X58208D01*
Y26123D01*
X58004D01*
X58003Y24772D02*
Y25178D01*
X58409D01*
Y24772D01*
X58003D01*
X58104Y24873D02*
Y25077D01*
X58308D01*
Y24873D01*
X58104D01*
X57928Y23497D02*
Y23903D01*
X58334D01*
Y23497D01*
X57928D01*
X58029Y23598D02*
Y23802D01*
X58233D01*
Y23598D01*
X58029D01*
X56790Y25422D02*
Y25828D01*
X57196D01*
Y25422D01*
X56790D01*
X56891Y25523D02*
Y25727D01*
X57095D01*
Y25523D01*
X56891D01*
X56803Y23922D02*
Y24328D01*
X57209D01*
Y23922D01*
X56803D01*
X56904Y24023D02*
Y24227D01*
X57108D01*
Y24023D01*
X56904D01*
X59153Y23947D02*
Y24353D01*
X59559D01*
Y23947D01*
X59153D01*
X59254Y24048D02*
Y24252D01*
X59458D01*
Y24048D01*
X59254D01*
X59178Y25522D02*
Y25928D01*
X59584D01*
Y25522D01*
X59178D01*
X59279Y25623D02*
Y25827D01*
X59483D01*
Y25623D01*
X59279D01*
X57897Y13222D02*
Y13628D01*
X58303D01*
Y13222D01*
X57897D01*
X57998Y13323D02*
Y13527D01*
X58202D01*
Y13323D01*
X57998D01*
X57997Y11972D02*
Y12378D01*
X58403D01*
Y11972D01*
X57997D01*
X58098Y12073D02*
Y12277D01*
X58302D01*
Y12073D01*
X58098D01*
X57922Y10697D02*
Y11103D01*
X58328D01*
Y10697D01*
X57922D01*
X58023Y10798D02*
Y11002D01*
X58227D01*
Y10798D01*
X58023D01*
X56784Y12622D02*
Y13028D01*
X57190D01*
Y12622D01*
X56784D01*
X56885Y12723D02*
Y12927D01*
X57089D01*
Y12723D01*
X56885D01*
X56797Y11122D02*
Y11528D01*
X57203D01*
Y11122D01*
X56797D01*
X56898Y11223D02*
Y11427D01*
X57102D01*
Y11223D01*
X56898D01*
X59147Y11147D02*
Y11553D01*
X59553D01*
Y11147D01*
X59147D01*
X59248Y11248D02*
Y11452D01*
X59452D01*
Y11248D01*
X59248D01*
X59172Y12722D02*
Y13128D01*
X59578D01*
Y12722D01*
X59172D01*
X59273Y12823D02*
Y13027D01*
X59477D01*
Y12823D01*
X59273D01*
X57922Y7847D02*
Y8253D01*
X58328D01*
Y7847D01*
X57922D01*
X58023Y7948D02*
Y8152D01*
X58227D01*
Y7948D01*
X58023D01*
X58022Y6597D02*
Y7003D01*
X58428D01*
Y6597D01*
X58022D01*
X58123Y6698D02*
Y6902D01*
X58327D01*
Y6698D01*
X58123D01*
X57947Y5322D02*
Y5728D01*
X58353D01*
Y5322D01*
X57947D01*
X58048Y5423D02*
Y5627D01*
X58252D01*
Y5423D01*
X58048D01*
X56809Y7247D02*
Y7653D01*
X57215D01*
Y7247D01*
X56809D01*
X56910Y7348D02*
Y7552D01*
X57114D01*
Y7348D01*
X56910D01*
X56822Y5747D02*
Y6153D01*
X57228D01*
Y5747D01*
X56822D01*
X56923Y5848D02*
Y6052D01*
X57127D01*
Y5848D01*
X56923D01*
X59172Y5772D02*
Y6178D01*
X59578D01*
Y5772D01*
X59172D01*
X59273Y5873D02*
Y6077D01*
X59477D01*
Y5873D01*
X59273D01*
X59197Y7347D02*
Y7753D01*
X59603D01*
Y7347D01*
X59197D01*
X59298Y7448D02*
Y7652D01*
X59502D01*
Y7448D01*
X59298D01*
X58197Y18747D02*
Y19153D01*
X58603D01*
Y18747D01*
X58197D01*
X58298Y18848D02*
Y19052D01*
X58502D01*
Y18848D01*
X58298D01*
X58097Y19997D02*
Y20403D01*
X58503D01*
Y19997D01*
X58097D01*
X58198Y20098D02*
Y20302D01*
X58402D01*
Y20098D01*
X58198D01*
X58172Y21272D02*
Y21678D01*
X58578D01*
Y21272D01*
X58172D01*
X58273Y21373D02*
Y21577D01*
X58477D01*
Y21373D01*
X58273D01*
X59310Y19347D02*
Y19753D01*
X59716D01*
Y19347D01*
X59310D01*
X59411Y19448D02*
Y19652D01*
X59615D01*
Y19448D01*
X59411D01*
X59297Y20847D02*
Y21253D01*
X59703D01*
Y20847D01*
X59297D01*
X59398Y20948D02*
Y21152D01*
X59602D01*
Y20948D01*
X59398D01*
X56947Y20822D02*
Y21228D01*
X57353D01*
Y20822D01*
X56947D01*
X57048Y20923D02*
Y21127D01*
X57252D01*
Y20923D01*
X57048D01*
X56922Y19247D02*
Y19653D01*
X57328D01*
Y19247D01*
X56922D01*
X57023Y19348D02*
Y19552D01*
X57227D01*
Y19348D01*
X57023D01*
X31347Y10601D02*
Y11007D01*
X31753D01*
Y10601D01*
X31347D01*
X31448Y10702D02*
Y10906D01*
X31652D01*
Y10702D01*
X31448D01*
X43441Y3297D02*
Y3703D01*
X43847D01*
Y3297D01*
X43441D01*
X43542Y3398D02*
Y3602D01*
X43746D01*
Y3398D01*
X43542D01*
X44691Y3397D02*
Y3803D01*
X45097D01*
Y3397D01*
X44691D01*
X44792Y3498D02*
Y3702D01*
X44996D01*
Y3498D01*
X44792D01*
X45966Y3322D02*
Y3728D01*
X46372D01*
Y3322D01*
X45966D01*
X46067Y3423D02*
Y3627D01*
X46271D01*
Y3423D01*
X46067D01*
X44041Y2184D02*
Y2590D01*
X44447D01*
Y2184D01*
X44041D01*
X44142Y2285D02*
Y2489D01*
X44346D01*
Y2285D01*
X44142D01*
X45541Y2197D02*
Y2603D01*
X45947D01*
Y2197D01*
X45541D01*
X45642Y2298D02*
Y2502D01*
X45846D01*
Y2298D01*
X45642D01*
X45516Y4547D02*
Y4953D01*
X45922D01*
Y4547D01*
X45516D01*
X45617Y4648D02*
Y4852D01*
X45821D01*
Y4648D01*
X45617D01*
X43941Y4572D02*
Y4978D01*
X44347D01*
Y4572D01*
X43941D01*
X44042Y4673D02*
Y4877D01*
X44246D01*
Y4673D01*
X44042D01*
X40097Y4572D02*
Y4978D01*
X40503D01*
Y4572D01*
X40097D01*
X40198Y4673D02*
Y4877D01*
X40402D01*
Y4673D01*
X40198D01*
X40122Y2222D02*
Y2628D01*
X40528D01*
Y2222D01*
X40122D01*
X40223Y2323D02*
Y2527D01*
X40427D01*
Y2323D01*
X40223D01*
X38622Y2209D02*
Y2615D01*
X39028D01*
Y2209D01*
X38622D01*
X38723Y2310D02*
Y2514D01*
X38927D01*
Y2310D01*
X38723D01*
X40547Y3347D02*
Y3753D01*
X40953D01*
Y3347D01*
X40547D01*
X40648Y3448D02*
Y3652D01*
X40852D01*
Y3448D01*
X40648D01*
X39272Y3422D02*
Y3828D01*
X39678D01*
Y3422D01*
X39272D01*
X39373Y3523D02*
Y3727D01*
X39577D01*
Y3523D01*
X39373D01*
X38022Y3322D02*
Y3728D01*
X38428D01*
Y3322D01*
X38022D01*
X38123Y3423D02*
Y3627D01*
X38327D01*
Y3423D01*
X38123D01*
X45717Y10897D02*
Y11303D01*
X46123D01*
Y10897D01*
X45717D01*
X45818Y10998D02*
Y11202D01*
X46022D01*
Y10998D01*
X45818D01*
X39972Y8372D02*
Y8778D01*
X40378D01*
Y8372D01*
X39972D01*
X40073Y8473D02*
Y8677D01*
X40277D01*
Y8473D01*
X40073D01*
X41597Y10397D02*
Y10803D01*
X42003D01*
Y10397D01*
X41597D01*
X41698Y10498D02*
Y10702D01*
X41902D01*
Y10498D01*
X41698D01*
X41522Y9067D02*
Y9473D01*
X41928D01*
Y9067D01*
X41522D01*
X41623Y9168D02*
Y9372D01*
X41827D01*
Y9168D01*
X41623D01*
X51897Y15347D02*
Y15753D01*
X52303D01*
Y15347D01*
X51897D01*
X51998Y15448D02*
Y15652D01*
X52202D01*
Y15448D01*
X51998D01*
X41747Y21672D02*
Y22078D01*
X42153D01*
Y21672D01*
X41747D01*
X41848Y21773D02*
Y21977D01*
X42052D01*
Y21773D01*
X41848D01*
X42672Y21697D02*
Y22103D01*
X43078D01*
Y21697D01*
X42672D01*
X42773Y21798D02*
Y22002D01*
X42977D01*
Y21798D01*
X42773D01*
X41297Y21032D02*
Y21438D01*
X41703D01*
Y21032D01*
X41297D01*
X41398Y21133D02*
Y21337D01*
X41602D01*
Y21133D01*
X41398D01*
X42197Y21032D02*
Y21438D01*
X42603D01*
Y21032D01*
X42197D01*
X42298Y21133D02*
Y21337D01*
X42502D01*
Y21133D01*
X42298D01*
X43097Y21032D02*
Y21438D01*
X43503D01*
Y21032D01*
X43097D01*
X43198Y21133D02*
Y21337D01*
X43402D01*
Y21133D01*
X43198D01*
X38197Y25361D02*
Y25767D01*
X38603D01*
Y25361D01*
X38197D01*
X38298Y25462D02*
Y25666D01*
X38502D01*
Y25462D01*
X38298D01*
X36997Y25697D02*
Y26103D01*
X37403D01*
Y25697D01*
X36997D01*
X37098Y25798D02*
Y26002D01*
X37302D01*
Y25798D01*
X37098D01*
X38297Y26797D02*
Y27203D01*
X38703D01*
Y26797D01*
X38297D01*
X38398Y26898D02*
Y27102D01*
X38602D01*
Y26898D01*
X38398D01*
X36497Y27897D02*
Y28303D01*
X36903D01*
Y27897D01*
X36497D01*
X36598Y27998D02*
Y28202D01*
X36802D01*
Y27998D01*
X36598D01*
X37697Y27897D02*
Y28303D01*
X38103D01*
Y27897D01*
X37697D01*
X37798Y27998D02*
Y28202D01*
X38002D01*
Y27998D01*
X37798D01*
X37097Y26797D02*
Y27203D01*
X37503D01*
Y26797D01*
X37097D01*
X37198Y26898D02*
Y27102D01*
X37402D01*
Y26898D01*
X37198D01*
X28397Y27897D02*
Y28303D01*
X28803D01*
Y27897D01*
X28397D01*
X28498Y27998D02*
Y28202D01*
X28702D01*
Y27998D01*
X28498D01*
X28197Y27097D02*
Y27503D01*
X28603D01*
Y27097D01*
X28197D01*
X28298Y27198D02*
Y27402D01*
X28502D01*
Y27198D01*
X28298D01*
X27597Y27697D02*
Y28103D01*
X28003D01*
Y27697D01*
X27597D01*
X27698Y27798D02*
Y28002D01*
X27902D01*
Y27798D01*
X27698D01*
X45872Y11797D02*
Y12203D01*
X46278D01*
Y11797D01*
X45872D01*
X45973Y11898D02*
Y12102D01*
X46177D01*
Y11898D01*
X45973D01*
X51997Y28372D02*
Y28778D01*
X52403D01*
Y28372D01*
X51997D01*
X52098Y28473D02*
Y28677D01*
X52302D01*
Y28473D01*
X52098D01*
X28397Y17397D02*
Y17803D01*
X28803D01*
Y17397D01*
X28397D01*
X28498Y17498D02*
Y17702D01*
X28702D01*
Y17498D01*
X28498D01*
X28597Y10622D02*
Y11028D01*
X29003D01*
Y10622D01*
X28597D01*
X28698Y10723D02*
Y10927D01*
X28902D01*
Y10723D01*
X28698D01*
X21897Y12597D02*
Y13003D01*
X22303D01*
Y12597D01*
X21897D01*
X21998Y12698D02*
Y12902D01*
X22202D01*
Y12698D01*
X21998D01*
X20335Y13514D02*
Y13920D01*
X20741D01*
Y13514D01*
X20335D01*
X20436Y13615D02*
Y13818D01*
X20640D01*
Y13615D01*
X20436D01*
X20297Y17697D02*
Y18103D01*
X20703D01*
Y17697D01*
X20297D01*
X20398Y17798D02*
Y18002D01*
X20602D01*
Y17798D01*
X20398D01*
X18197Y14197D02*
Y14603D01*
X18603D01*
Y14197D01*
X18197D01*
X18298Y14298D02*
Y14502D01*
X18502D01*
Y14298D01*
X18298D01*
X17197Y13997D02*
Y14403D01*
X17603D01*
Y13997D01*
X17197D01*
X17298Y14098D02*
Y14302D01*
X17502D01*
Y14098D01*
X17298D01*
X15997Y13597D02*
Y14003D01*
X16403D01*
Y13597D01*
X15997D01*
X16098Y13698D02*
Y13902D01*
X16302D01*
Y13698D01*
X16098D01*
X25597Y17197D02*
Y17603D01*
X26003D01*
Y17197D01*
X25597D01*
X25698Y17298D02*
Y17502D01*
X25902D01*
Y17298D01*
X25698D01*
X16597Y16897D02*
Y17303D01*
X17003D01*
Y16897D01*
X16597D01*
X16698Y16998D02*
Y17202D01*
X16902D01*
Y16998D01*
X16698D01*
X15839Y17597D02*
Y18003D01*
X16245D01*
Y17597D01*
X15839D01*
X15940Y17698D02*
Y17902D01*
X16144D01*
Y17698D01*
X15940D01*
X16497Y18397D02*
Y18803D01*
X16903D01*
Y18397D01*
X16497D01*
X16598Y18498D02*
Y18702D01*
X16802D01*
Y18498D01*
X16598D01*
X14397Y12497D02*
Y12903D01*
X14803D01*
Y12497D01*
X14397D01*
X14498Y12598D02*
Y12802D01*
X14702D01*
Y12598D01*
X14498D01*
X14697Y11597D02*
Y12003D01*
X15103D01*
Y11597D01*
X14697D01*
X14798Y11698D02*
Y11902D01*
X15002D01*
Y11698D01*
X14798D01*
X25597Y9297D02*
Y9703D01*
X26003D01*
Y9297D01*
X25597D01*
X25698Y9398D02*
Y9602D01*
X25902D01*
Y9398D01*
X25698D01*
X16197Y15197D02*
Y15603D01*
X16603D01*
Y15197D01*
X16197D01*
X16298Y15298D02*
Y15502D01*
X16502D01*
Y15298D01*
X16298D01*
X15535Y15897D02*
Y16303D01*
X15941D01*
Y15897D01*
X15535D01*
X15636Y15998D02*
Y16202D01*
X15840D01*
Y15998D01*
X15636D01*
X21997Y20797D02*
Y21203D01*
X22403D01*
Y20797D01*
X21997D01*
X22098Y20898D02*
Y21102D01*
X22302D01*
Y20898D01*
X22098D01*
X23097Y10297D02*
Y10703D01*
X23503D01*
Y10297D01*
X23097D01*
X23198Y10398D02*
Y10602D01*
X23402D01*
Y10398D01*
X23198D01*
X52822Y6709D02*
Y7115D01*
X53228D01*
Y6709D01*
X52822D01*
X52923Y6810D02*
Y7014D01*
X53127D01*
Y6810D01*
X52923D01*
X51922Y6709D02*
Y7115D01*
X52328D01*
Y6709D01*
X51922D01*
X52023Y6810D02*
Y7014D01*
X52227D01*
Y6810D01*
X52023D01*
X51022Y6709D02*
Y7115D01*
X51428D01*
Y6709D01*
X51022D01*
X51123Y6810D02*
Y7014D01*
X51327D01*
Y6810D01*
X51123D01*
X49822Y5047D02*
Y5453D01*
X50228D01*
Y5047D01*
X49822D01*
X49923Y5148D02*
Y5352D01*
X50127D01*
Y5148D01*
X49923D01*
X49856Y4247D02*
Y4653D01*
X50262D01*
Y4247D01*
X49856D01*
X49957Y4348D02*
Y4552D01*
X50161D01*
Y4348D01*
X49957D01*
X49822Y3447D02*
Y3853D01*
X50228D01*
Y3447D01*
X49822D01*
X49923Y3548D02*
Y3752D01*
X50127D01*
Y3548D01*
X49923D01*
X49822Y5847D02*
Y6253D01*
X50228D01*
Y5847D01*
X49822D01*
X49923Y5948D02*
Y6152D01*
X50127D01*
Y5948D01*
X49923D01*
X49697Y18772D02*
Y19178D01*
X50103D01*
Y18772D01*
X49697D01*
X49798Y18873D02*
Y19077D01*
X50002D01*
Y18873D01*
X49798D01*
X49697Y16372D02*
Y16778D01*
X50103D01*
Y16372D01*
X49697D01*
X49798Y16473D02*
Y16677D01*
X50002D01*
Y16473D01*
X49798D01*
X49731Y17172D02*
Y17578D01*
X50137D01*
Y17172D01*
X49731D01*
X49832Y17273D02*
Y17477D01*
X50036D01*
Y17273D01*
X49832D01*
X49697Y17972D02*
Y18378D01*
X50103D01*
Y17972D01*
X49697D01*
X49798Y18073D02*
Y18277D01*
X50002D01*
Y18073D01*
X49798D01*
X10397Y7797D02*
Y8203D01*
X10803D01*
Y7797D01*
X10397D01*
X10498Y7898D02*
Y8102D01*
X10702D01*
Y7898D01*
X10498D01*
X10497Y9697D02*
Y10103D01*
X10903D01*
Y9697D01*
X10497D01*
X10598Y9798D02*
Y10002D01*
X10802D01*
Y9798D01*
X10598D01*
X52797Y19772D02*
Y20178D01*
X53203D01*
Y19772D01*
X52797D01*
X52898Y19873D02*
Y20077D01*
X53102D01*
Y19873D01*
X52898D01*
X25497Y24432D02*
Y24838D01*
X25903D01*
Y24432D01*
X25497D01*
X25598Y24533D02*
Y24737D01*
X25802D01*
Y24533D01*
X25598D01*
X28497Y24432D02*
Y24838D01*
X28903D01*
Y24432D01*
X28497D01*
X28598Y24533D02*
Y24737D01*
X28802D01*
Y24533D01*
X28598D01*
X27097Y24432D02*
Y24838D01*
X27503D01*
Y24432D01*
X27097D01*
X27198Y24533D02*
Y24737D01*
X27402D01*
Y24533D01*
X27198D01*
X34097Y26932D02*
Y27338D01*
X34503D01*
Y26932D01*
X34097D01*
X34198Y27033D02*
Y27237D01*
X34402D01*
Y27033D01*
X34198D01*
X35897Y26832D02*
Y27238D01*
X36303D01*
Y26832D01*
X35897D01*
X35998Y26933D02*
Y27137D01*
X36202D01*
Y26933D01*
X35998D01*
X16967Y19397D02*
Y19803D01*
X17373D01*
Y19397D01*
X16967D01*
X17068Y19498D02*
Y19702D01*
X17272D01*
Y19498D01*
X17068D01*
X8447Y27897D02*
Y28303D01*
X8853D01*
Y27897D01*
X8447D01*
X8548Y27998D02*
Y28202D01*
X8752D01*
Y27998D01*
X8548D01*
X16497Y26097D02*
Y26503D01*
X16903D01*
Y26097D01*
X16497D01*
X16598Y26198D02*
Y26402D01*
X16802D01*
Y26198D01*
X16598D01*
X18097Y25197D02*
Y25603D01*
X18503D01*
Y25197D01*
X18097D01*
X18198Y25298D02*
Y25502D01*
X18402D01*
Y25298D01*
X18198D01*
X2472Y10572D02*
Y10978D01*
X2878D01*
Y10572D01*
X2472D01*
X2573Y10673D02*
Y10877D01*
X2777D01*
Y10673D01*
X2573D01*
X9922Y12372D02*
Y12778D01*
X10328D01*
Y12372D01*
X9922D01*
X10023Y12473D02*
Y12677D01*
X10227D01*
Y12473D01*
X10023D01*
X12437Y22997D02*
Y23403D01*
X12843D01*
Y22997D01*
X12437D01*
X12538Y23098D02*
Y23302D01*
X12742D01*
Y23098D01*
X12538D01*
X12397Y19297D02*
Y19703D01*
X12803D01*
Y19297D01*
X12397D01*
X12498Y19398D02*
Y19602D01*
X12702D01*
Y19398D01*
X12498D01*
X15535Y19397D02*
Y19803D01*
X15941D01*
Y19397D01*
X15535D01*
X15636Y19498D02*
Y19702D01*
X15840D01*
Y19498D01*
X15636D01*
X17497Y21997D02*
Y22403D01*
X17903D01*
Y21997D01*
X17497D01*
X17598Y22098D02*
Y22302D01*
X17802D01*
Y22098D01*
X17598D01*
X16497Y25197D02*
Y25603D01*
X16903D01*
Y25197D01*
X16497D01*
X16598Y25298D02*
Y25502D01*
X16802D01*
Y25298D01*
X16598D01*
D101*
X22063Y2400D02*
G03*
X22063Y2400I-203J0D01*
G01*
X23333Y4940D02*
G03*
X23333Y4940I-203J0D01*
G01*
X24603Y2400D02*
G03*
X24603Y2400I-203J0D01*
G01*
X25873Y4940D02*
G03*
X25873Y4940I-203J0D01*
G01*
X13563Y2400D02*
G03*
X13563Y2400I-203J0D01*
G01*
X14833Y4940D02*
G03*
X14833Y4940I-203J0D01*
G01*
X16103Y2400D02*
G03*
X16103Y2400I-203J0D01*
G01*
X17373Y4940D02*
G03*
X17373Y4940I-203J0D01*
G01*
X5233Y2400D02*
G03*
X5233Y2400I-203J0D01*
G01*
X6503Y4940D02*
G03*
X6503Y4940I-203J0D01*
G01*
X7773Y2400D02*
G03*
X7773Y2400I-203J0D01*
G01*
X9043Y4940D02*
G03*
X9043Y4940I-203J0D01*
G01*
M02*
