G04*
G04 #@! TF.GenerationSoftware,Altium Limited,Altium Designer,18.1.9 (240)*
G04*
G04 Layer_Physical_Order=4*
G04 Layer_Color=16711680*
%FSLAX44Y44*%
%MOMM*%
G71*
G01*
G75*
%ADD12C,0.4000*%
%ADD16C,0.2540*%
%ADD17R,1.0000X1.1000*%
%ADD23R,1.1000X1.4000*%
%ADD24R,1.1000X1.0000*%
%ADD62C,1.0000*%
%ADD63C,0.6000*%
%ADD65C,2.0000*%
%ADD68R,1.3580X1.3580*%
%ADD69C,1.3580*%
%ADD70C,1.5500*%
%ADD71R,1.1500X1.1500*%
%ADD72C,1.1500*%
%ADD73R,1.1500X1.1500*%
%ADD74O,2.0000X1.4500*%
%ADD75O,1.8000X1.1500*%
%ADD76C,1.0000*%
%ADD77R,1.0000X1.0000*%
%ADD78R,1.0000X1.0000*%
%ADD79C,0.7000*%
%ADD80R,1.4000X1.1000*%
%ADD81R,0.6500X1.5250*%
%ADD82R,1.5250X0.6500*%
%ADD83R,1.5280X0.4350*%
%ADD84R,2.4600X3.5500*%
%ADD85R,1.4750X0.4500*%
%ADD86R,3.5500X2.4600*%
%ADD87R,0.4500X1.4750*%
%ADD88R,1.2200X0.6000*%
%ADD89R,1.7500X1.1400*%
G36*
X518431Y289980D02*
X518035Y289715D01*
X516819Y287896D01*
X516392Y285750D01*
X516819Y283604D01*
X517373Y282775D01*
X516694Y281505D01*
X508000D01*
Y263715D01*
X471893Y227607D01*
X471170Y226526D01*
X470916Y225250D01*
Y220521D01*
X469646Y220117D01*
X468181Y221241D01*
X466500Y221938D01*
Y214000D01*
X464000D01*
Y211500D01*
X456063D01*
X456759Y209819D01*
X458088Y208088D01*
X459819Y206759D01*
X461836Y205923D01*
X464000Y205639D01*
X465010Y205772D01*
X465603Y204569D01*
X449489Y188454D01*
X374608D01*
X373333Y188200D01*
X372251Y187477D01*
X357988Y173214D01*
X308750D01*
Y174720D01*
X289470D01*
Y172045D01*
Y165705D01*
Y159345D01*
Y153005D01*
Y146645D01*
Y140305D01*
Y133945D01*
Y127605D01*
X290500D01*
Y122000D01*
X297500D01*
Y119000D01*
X290500D01*
Y113570D01*
X290500Y113000D01*
X289520Y112300D01*
X289495D01*
Y108550D01*
X308745D01*
Y111730D01*
X308745Y112300D01*
X309725Y113000D01*
X321500D01*
Y121045D01*
X322770Y122087D01*
X323750Y121892D01*
X324760Y122093D01*
X325742Y121287D01*
X325742Y107000D01*
X325742Y107000D01*
X325939Y106008D01*
X326052Y105439D01*
X326936Y104116D01*
X326936Y104116D01*
X327903Y103150D01*
X327903Y103149D01*
X329226Y102265D01*
X330787Y101955D01*
X331922Y100886D01*
Y100500D01*
X332232Y98939D01*
X332500Y98538D01*
Y93500D01*
X337290D01*
X338439Y92732D01*
X340000Y92422D01*
X344691D01*
X345250Y91770D01*
X344753Y90500D01*
X341500D01*
Y83500D01*
X340000D01*
Y82000D01*
X332500D01*
Y76500D01*
X332500Y76500D01*
X332627Y75230D01*
X331569Y73646D01*
X331500Y73299D01*
X330285Y72930D01*
X308745Y94470D01*
Y99600D01*
X289495D01*
Y89100D01*
X304685D01*
X305712Y88073D01*
X305226Y86900D01*
X289495D01*
Y76400D01*
X308745D01*
Y76400D01*
X309905Y76880D01*
X319416Y67369D01*
Y65450D01*
X315750D01*
Y51450D01*
X316700D01*
X317326Y50180D01*
X316635Y49280D01*
X315930Y47577D01*
X315887Y47250D01*
X322750D01*
Y45750D01*
X324250D01*
Y38887D01*
X324577Y38930D01*
X326280Y39636D01*
X327446Y40530D01*
X328716Y40097D01*
Y28250D01*
X325050D01*
Y14250D01*
X339050D01*
Y15200D01*
X340320Y15826D01*
X341220Y15136D01*
X342923Y14430D01*
X344750Y14190D01*
X346577Y14430D01*
X348280Y15136D01*
X349743Y16258D01*
X350313Y17002D01*
X351887D01*
X352458Y16258D01*
X353920Y15136D01*
X355623Y14430D01*
X355950Y14387D01*
Y21250D01*
Y28113D01*
X355623Y28070D01*
X353920Y27364D01*
X352830Y26528D01*
X351560Y27035D01*
Y30000D01*
X356500D01*
Y39000D01*
X358000D01*
Y40500D01*
X365500D01*
Y48000D01*
X365500D01*
Y48000D01*
X365500D01*
Y55500D01*
X358000D01*
Y58500D01*
X366531D01*
X366673Y58559D01*
X367037Y58195D01*
X367371Y57972D01*
X367722Y57621D01*
X367945Y57287D01*
X369422Y55811D01*
Y26000D01*
X369422Y26000D01*
X369732Y24439D01*
X370616Y23116D01*
X381116Y12616D01*
X382439Y11732D01*
X384000Y11422D01*
X384000Y11422D01*
X407000D01*
X408561Y11732D01*
X409884Y12616D01*
X409884Y12616D01*
X418134Y20866D01*
X419018Y22189D01*
X419328Y23750D01*
X419328Y23750D01*
X419328Y46000D01*
X419328Y46000D01*
X419018Y47561D01*
X418134Y48884D01*
X388191Y78827D01*
X388677Y80000D01*
X396815D01*
Y82750D01*
X387440D01*
Y85441D01*
X387702Y85616D01*
X387729Y85657D01*
X387770Y85685D01*
X387832Y85750D01*
X396815D01*
Y86500D01*
Y93000D01*
Y99500D01*
Y106000D01*
Y112500D01*
Y119000D01*
Y121750D01*
X387440D01*
Y124750D01*
X396815D01*
Y125500D01*
Y134000D01*
X378065D01*
X376998Y134491D01*
X375966Y135181D01*
X373898Y135592D01*
Y138120D01*
X374133Y138406D01*
X416629D01*
X427112Y127923D01*
X426626Y126750D01*
X418320D01*
Y108500D01*
X431120D01*
Y122256D01*
X432293Y122742D01*
X434142Y120892D01*
X435224Y120170D01*
X436500Y119916D01*
X436825D01*
Y112500D01*
Y106000D01*
Y99500D01*
Y92250D01*
X446200D01*
Y90454D01*
X438930Y90328D01*
X438186Y90167D01*
X437439Y90019D01*
X437409Y89999D01*
X437374Y89991D01*
X436825Y89610D01*
Y89609D01*
X436748Y89556D01*
X436116Y89134D01*
X426866Y79884D01*
X425982Y78561D01*
X425672Y77000D01*
X425672Y77000D01*
Y72901D01*
X424521Y72665D01*
X424402Y72690D01*
X423215Y74465D01*
X421396Y75681D01*
X419250Y76108D01*
X417104Y75681D01*
X415285Y74465D01*
X414069Y72646D01*
X413642Y70500D01*
X414069Y68354D01*
X415285Y66535D01*
X417104Y65319D01*
X419250Y64892D01*
X421396Y65319D01*
X423215Y66535D01*
X424402Y68310D01*
X424521Y68335D01*
X425672Y68099D01*
Y23000D01*
X425672Y23000D01*
X425982Y21439D01*
X426866Y20116D01*
X426866Y20116D01*
X433616Y13366D01*
X434939Y12482D01*
X436500Y12172D01*
X436500Y12172D01*
X462500D01*
X462500Y12172D01*
X464061Y12482D01*
X465384Y13366D01*
X465384Y13366D01*
X471884Y19866D01*
X472768Y21189D01*
X473078Y22750D01*
X473078Y22750D01*
Y66000D01*
X473078Y66000D01*
X472768Y67561D01*
X471884Y68884D01*
X457578Y83189D01*
Y85594D01*
X457575Y85612D01*
X457578Y85629D01*
X457419Y86394D01*
X457280Y87092D01*
X457679Y87628D01*
X457699Y87649D01*
X458204Y88049D01*
X460250Y87642D01*
X462396Y88069D01*
X464215Y89285D01*
X465431Y91104D01*
X465858Y93250D01*
X465431Y95396D01*
X465382Y95470D01*
X466052Y96752D01*
X467646Y97069D01*
X469465Y98285D01*
X470681Y100104D01*
X471108Y102250D01*
X470681Y104396D01*
X469465Y106215D01*
X467646Y107431D01*
X465500Y107858D01*
X465069Y107772D01*
X464363Y108828D01*
X464381Y108854D01*
X464808Y111000D01*
X464381Y113146D01*
X463165Y114965D01*
Y114999D01*
X464715Y116035D01*
X465931Y117854D01*
X466358Y120000D01*
X465931Y122146D01*
X464715Y123965D01*
X462896Y125181D01*
X460750Y125608D01*
X458604Y125181D01*
X456845Y124005D01*
X456247Y124129D01*
X455575Y124332D01*
Y134000D01*
X437465D01*
X422827Y148638D01*
X421746Y149360D01*
X420470Y149614D01*
X364739D01*
X364253Y150787D01*
X381241Y167775D01*
X382500Y167239D01*
X382500Y166896D01*
Y152250D01*
X398000D01*
Y166896D01*
X398000Y167750D01*
X399098Y168166D01*
X410188D01*
X410619Y166896D01*
X409338Y165912D01*
X408009Y164181D01*
X407313Y162500D01*
X423187D01*
X422491Y164181D01*
X421162Y165912D01*
X419881Y166896D01*
X420312Y168166D01*
X421869D01*
X453893Y136143D01*
X454974Y135420D01*
X456250Y135166D01*
X468250D01*
Y120250D01*
X483750D01*
Y135166D01*
X499119D01*
X506239Y128046D01*
X506078Y126411D01*
X505785Y126215D01*
X504569Y124396D01*
X504142Y122250D01*
X504569Y120104D01*
X505785Y118285D01*
X507604Y117069D01*
X509750Y116642D01*
X511896Y117069D01*
X513715Y118285D01*
X514230Y119055D01*
X515500Y118670D01*
Y113620D01*
X533750D01*
Y126420D01*
X519431D01*
X518905Y127690D01*
X521357Y130142D01*
X522080Y131224D01*
X522259Y132125D01*
X550000D01*
Y141500D01*
X553000D01*
Y132125D01*
X554694D01*
X554721Y132077D01*
X554780Y132032D01*
X554819Y131969D01*
X555515Y131221D01*
X555575Y131178D01*
X555616Y131116D01*
X557922Y128811D01*
Y111392D01*
X558232Y109832D01*
X559116Y108509D01*
X559116Y108509D01*
X569759Y97866D01*
X571082Y96982D01*
X572643Y96672D01*
X572643Y96672D01*
X596250D01*
X596250Y96672D01*
X597811Y96982D01*
X599134Y97866D01*
X599134Y97866D01*
X605134Y103866D01*
X606018Y105189D01*
X606328Y106750D01*
X606328Y106750D01*
Y133250D01*
X606328Y133250D01*
X606018Y134811D01*
X605134Y136134D01*
X596384Y144884D01*
X595061Y145768D01*
X593500Y146078D01*
X593500Y146078D01*
X565439D01*
X562648Y148869D01*
X562250Y149136D01*
Y150875D01*
X554790D01*
X554191Y151995D01*
X554431Y152354D01*
X554858Y154500D01*
X554431Y156646D01*
X553215Y158465D01*
X551396Y159681D01*
X549250Y160108D01*
X547104Y159681D01*
X546300Y159143D01*
X545221Y158646D01*
X544672Y159467D01*
X544005Y160465D01*
X543762Y160628D01*
X544030Y161976D01*
X544061Y161982D01*
X544462Y162250D01*
X549500D01*
Y167040D01*
X550268Y168189D01*
X550578Y169750D01*
Y175945D01*
X550768Y176229D01*
X551078Y177790D01*
Y186995D01*
X552252Y187481D01*
X560366Y179366D01*
X561633Y178520D01*
X561650Y178425D01*
X561237Y177250D01*
X561000D01*
Y171250D01*
X566500D01*
Y176902D01*
X566500Y177250D01*
X567341Y178172D01*
X595310D01*
X595310Y178172D01*
X596871Y178482D01*
X598194Y179366D01*
X605634Y186806D01*
X606480Y188072D01*
X606575Y188090D01*
X607750Y187676D01*
Y82514D01*
X606575Y82100D01*
X606480Y82118D01*
X605634Y83384D01*
X605634Y83384D01*
X598759Y90259D01*
X597436Y91143D01*
X595875Y91453D01*
X595875Y91453D01*
X571250D01*
X569689Y91143D01*
X568366Y90259D01*
X567611Y89129D01*
X563423Y84941D01*
X562250Y85427D01*
Y92115D01*
X559500D01*
Y82740D01*
X557829D01*
Y82768D01*
X557701Y83410D01*
X557619Y84060D01*
X557547Y84186D01*
X557518Y84329D01*
X557155Y84873D01*
X556830Y85442D01*
X556715Y85531D01*
X556634Y85652D01*
X556500Y85742D01*
Y92115D01*
X520500D01*
Y82740D01*
X517500D01*
Y92115D01*
X508250D01*
Y73365D01*
X507759Y72298D01*
X507069Y71266D01*
X506658Y69198D01*
X495250D01*
X493689Y68888D01*
X492366Y68004D01*
X491482Y66681D01*
X491172Y65120D01*
Y30120D01*
X491172Y30120D01*
X491482Y28559D01*
X492366Y27236D01*
X497366Y22236D01*
X497366Y22236D01*
X498689Y21352D01*
X500250Y21042D01*
X500250Y21042D01*
X535250D01*
X535250Y21042D01*
X536811Y21352D01*
X538134Y22236D01*
X538134Y22236D01*
X539300Y23403D01*
X539300Y23403D01*
X540185Y24726D01*
X540495Y26287D01*
X540465Y26440D01*
X541270Y27422D01*
X542750D01*
X544311Y27732D01*
X544712Y28000D01*
X549750D01*
Y32790D01*
X550518Y33939D01*
X550828Y35500D01*
Y41695D01*
X551018Y41979D01*
X551328Y43540D01*
Y52495D01*
X552502Y52981D01*
X560866Y44616D01*
X561384Y44270D01*
X561250Y43827D01*
Y37000D01*
X566750D01*
Y42152D01*
X566750Y43000D01*
X567845Y43422D01*
X595880D01*
X597441Y43732D01*
X598764Y44616D01*
X598764Y44616D01*
X605634Y51486D01*
X606480Y52752D01*
X606575Y52770D01*
X607750Y52356D01*
Y28000D01*
X587500Y7750D01*
X297477D01*
X297045Y9020D01*
X299272Y10728D01*
X301355Y13444D01*
X302665Y16606D01*
X303112Y20000D01*
X302665Y23394D01*
X301355Y26556D01*
X299272Y29272D01*
X296556Y31356D01*
X293394Y32665D01*
X290000Y33112D01*
X286606Y32665D01*
X283444Y31356D01*
X280728Y29272D01*
X278645Y26556D01*
X278520Y26256D01*
X277250Y26508D01*
Y48000D01*
X282000D01*
Y55500D01*
Y63000D01*
X277250D01*
Y178000D01*
X228500Y226750D01*
Y270000D01*
X244250Y285750D01*
X249750Y291250D01*
X461331D01*
X461739Y290047D01*
X460728Y289272D01*
X458644Y286556D01*
X457335Y283394D01*
X456888Y280000D01*
X457335Y276606D01*
X458644Y273444D01*
X460728Y270728D01*
X463444Y268645D01*
X466606Y267335D01*
X470000Y266888D01*
X473394Y267335D01*
X476556Y268645D01*
X479272Y270728D01*
X481356Y273444D01*
X482665Y276606D01*
X483112Y280000D01*
X482665Y283394D01*
X481356Y286556D01*
X479272Y289272D01*
X478261Y290047D01*
X478669Y291250D01*
X518046D01*
X518431Y289980D01*
D02*
G37*
G36*
X159793Y285250D02*
X190750Y254293D01*
X226500Y218250D01*
X268000Y176750D01*
Y22750D01*
X256250Y11000D01*
X30000D01*
X7250Y33750D01*
X7250Y185003D01*
X8520Y185255D01*
X9130Y183782D01*
X10373Y182163D01*
X11992Y180920D01*
X13877Y180140D01*
X15900Y179873D01*
X22400D01*
X24423Y180140D01*
X26308Y180920D01*
X27927Y182163D01*
X29170Y183782D01*
X29950Y185667D01*
X30217Y187690D01*
X29950Y189713D01*
X29170Y191598D01*
X27927Y193217D01*
X26308Y194460D01*
X24423Y195240D01*
X22400Y195507D01*
X15900D01*
X13877Y195240D01*
X11992Y194460D01*
X10373Y193217D01*
X9130Y191598D01*
X8520Y190125D01*
X7250Y190377D01*
Y262503D01*
X8520Y262755D01*
X9130Y261282D01*
X10373Y259663D01*
X11992Y258420D01*
X13877Y257640D01*
X15900Y257373D01*
X22400D01*
X24423Y257640D01*
X26308Y258420D01*
X27927Y259663D01*
X29170Y261282D01*
X29950Y263167D01*
X30217Y265190D01*
X29950Y267213D01*
X29170Y269098D01*
X27927Y270717D01*
X26308Y271960D01*
X24423Y272741D01*
X22400Y273007D01*
X18416D01*
X17930Y274180D01*
X29000Y285250D01*
X159793Y285250D01*
D02*
G37*
G36*
X565574Y268750D02*
X592000D01*
X601250Y259500D01*
Y236750D01*
X595500Y231000D01*
X570500D01*
X561500Y240000D01*
Y254750D01*
X555500Y260750D01*
Y262755D01*
Y269000D01*
X555750Y269250D01*
X556000Y276000D01*
X558324D01*
X565574Y268750D01*
D02*
G37*
G36*
X551422Y260750D02*
X551422Y260750D01*
X551732Y259189D01*
X552313Y258320D01*
X551726Y257050D01*
X536500D01*
Y244250D01*
X554750D01*
Y254073D01*
X555923Y254559D01*
X557422Y253061D01*
Y240000D01*
X557422Y240000D01*
X557732Y238439D01*
X558616Y237116D01*
X558616Y237116D01*
X567616Y228116D01*
X568939Y227232D01*
X570500Y226922D01*
X570500Y226922D01*
X573237D01*
X573362Y225652D01*
X572689Y225518D01*
X571366Y224634D01*
X571366Y224634D01*
X563173Y216441D01*
X562000Y216927D01*
Y222745D01*
X559250D01*
Y213370D01*
X556808D01*
X556384Y214004D01*
X556250Y214138D01*
Y222745D01*
X520250D01*
Y213370D01*
X517250D01*
Y222745D01*
X508000D01*
Y203995D01*
X507509Y202928D01*
X506819Y201896D01*
X506408Y199828D01*
X495000D01*
X493439Y199518D01*
X492116Y198634D01*
X491232Y197311D01*
X490922Y195750D01*
Y160750D01*
X490922Y160750D01*
X491232Y159189D01*
X492116Y157866D01*
X497116Y152866D01*
X497116Y152866D01*
X498439Y151982D01*
X500000Y151672D01*
X500000Y151672D01*
X503739D01*
X503938Y151711D01*
X504139Y151691D01*
X504713Y151865D01*
X505300Y151982D01*
X505468Y152094D01*
X505662Y152153D01*
X506125Y152533D01*
X506623Y152866D01*
X506736Y153034D01*
X506892Y153163D01*
X507698Y154144D01*
X507793Y154323D01*
X507936Y154466D01*
X508165Y155020D01*
X508448Y155548D01*
X508468Y155749D01*
X508545Y155936D01*
Y156535D01*
X508604Y157131D01*
X508545Y157325D01*
Y157473D01*
X508661Y158055D01*
X508975Y158525D01*
X509445Y158839D01*
X510000Y158949D01*
X510555Y158839D01*
X511025Y158525D01*
X511498Y157817D01*
X511892Y156864D01*
X513018Y155739D01*
X514488Y155130D01*
X515506Y154928D01*
X515819Y153354D01*
X516627Y152145D01*
X515948Y150875D01*
X508250D01*
Y146374D01*
X482966D01*
X482340Y147644D01*
X483241Y148819D01*
X483937Y150500D01*
X476000D01*
X468063D01*
X468759Y148819D01*
X469660Y147644D01*
X469034Y146374D01*
X459511D01*
X429813Y176073D01*
X430299Y177246D01*
X454330D01*
X455606Y177500D01*
X456688Y178223D01*
X481358Y202892D01*
X482080Y203974D01*
X482334Y205250D01*
Y206250D01*
X496750D01*
Y221750D01*
X484374D01*
X483888Y222923D01*
X503941Y242976D01*
X505245Y242484D01*
X505569Y240854D01*
X506785Y239035D01*
X508604Y237819D01*
X510750Y237392D01*
X512896Y237819D01*
X513980Y238543D01*
X515250Y237865D01*
Y228450D01*
X533500D01*
Y242750D01*
Y257050D01*
X519674D01*
X519188Y258223D01*
X521107Y260142D01*
X521830Y261224D01*
X522084Y262500D01*
Y262755D01*
X551422D01*
Y260750D01*
D02*
G37*
G36*
X607750Y275750D02*
Y215015D01*
X606575Y214600D01*
X606480Y214618D01*
X605634Y215884D01*
X605634Y215884D01*
X596884Y224634D01*
X595561Y225518D01*
X595450Y226835D01*
X595500Y226922D01*
X597061Y227232D01*
X598384Y228116D01*
X598384Y228116D01*
X604134Y233866D01*
X605018Y235189D01*
X605328Y236750D01*
X605328Y236750D01*
Y259500D01*
X605018Y261061D01*
X604134Y262384D01*
X604134Y262384D01*
X594884Y271634D01*
X593561Y272518D01*
X592000Y272828D01*
X592000Y272828D01*
X567264D01*
X562000Y278092D01*
Y281505D01*
X551879D01*
X551393Y282678D01*
X553686Y284971D01*
X554409Y286052D01*
X554662Y287328D01*
X554594Y287673D01*
X554858Y289000D01*
X554663Y289980D01*
X555705Y291250D01*
X592250D01*
X607750Y275750D01*
D02*
G37*
G36*
X602750Y213000D02*
Y189690D01*
X595310Y182250D01*
X563250D01*
X551078Y194422D01*
Y203455D01*
X550768Y205016D01*
X549884Y206339D01*
X549000Y206929D01*
Y212750D01*
X551250Y213370D01*
X553500Y211120D01*
Y203995D01*
X553755D01*
X554750Y203000D01*
X561000Y203000D01*
X561995Y203995D01*
X562000D01*
Y204000D01*
X564250Y206250D01*
Y211750D01*
X574250Y221750D01*
X594000D01*
X602750Y213000D01*
D02*
G37*
G36*
X547000Y177790D02*
X546500D01*
Y169750D01*
X542500D01*
Y165750D01*
X534960D01*
Y161710D01*
X535652D01*
X536028Y160602D01*
X536058Y160440D01*
X534885Y158686D01*
X533396Y159681D01*
X531250Y160108D01*
X529104Y159681D01*
X527285Y158465D01*
X527223Y158373D01*
X525695D01*
X524965Y159465D01*
X523146Y160681D01*
X521000Y161108D01*
X518854Y160681D01*
X517035Y159465D01*
X516632Y158862D01*
X515283Y159130D01*
X515181Y159646D01*
X513965Y161465D01*
X512146Y162681D01*
X510000Y163108D01*
X507854Y162681D01*
X506035Y161465D01*
X504819Y159646D01*
X504392Y157500D01*
X504545Y156732D01*
X503739Y155750D01*
X500000D01*
X495000Y160750D01*
Y195750D01*
X507860D01*
Y191750D01*
X515400D01*
Y187750D01*
X519400D01*
Y179710D01*
X522940D01*
Y189151D01*
X524113Y189637D01*
X525400Y188350D01*
Y180250D01*
X539400D01*
Y187685D01*
X540608Y188892D01*
X541330Y189974D01*
X541584Y191250D01*
Y203455D01*
X547000D01*
Y177790D01*
D02*
G37*
G36*
X563750Y142000D02*
X593500D01*
X602250Y133250D01*
Y106750D01*
X596250Y100750D01*
X572643D01*
X562000Y111392D01*
Y130500D01*
X558500Y134000D01*
X557803Y134748D01*
X558574Y145542D01*
X559764Y145986D01*
X563750Y142000D01*
D02*
G37*
G36*
X369820Y134140D02*
X366000D01*
Y126600D01*
X362000D01*
Y122600D01*
X353960D01*
Y119060D01*
X363221D01*
X363707Y117887D01*
X362420Y116600D01*
X354500D01*
Y102600D01*
X364285D01*
X365492Y101392D01*
X366574Y100670D01*
X367850Y100416D01*
X377525D01*
Y95000D01*
X348040D01*
Y96500D01*
X340000D01*
Y100500D01*
X336000D01*
Y108040D01*
X331960D01*
Y106519D01*
X330787Y106033D01*
X329820Y107000D01*
X329820Y132820D01*
X335120Y138120D01*
X369820D01*
Y134140D01*
D02*
G37*
G36*
X602750Y80500D02*
Y54370D01*
X595880Y47500D01*
X563750D01*
X551328Y59922D01*
Y72825D01*
X551018Y74386D01*
X550134Y75709D01*
X549250Y76299D01*
Y82153D01*
X550179Y83019D01*
X553750Y82768D01*
Y73365D01*
X562250D01*
Y78000D01*
X571250Y87000D01*
Y87375D01*
X595875D01*
X602750Y80500D01*
D02*
G37*
G36*
X547250Y43540D02*
X546750D01*
Y35500D01*
X542750D01*
Y31500D01*
X535210D01*
Y27460D01*
X535931D01*
X536417Y26287D01*
X535250Y25120D01*
X500250D01*
X495250Y30120D01*
Y65120D01*
X506912D01*
X508110Y64947D01*
Y60907D01*
X515650D01*
Y56907D01*
X519650D01*
Y48867D01*
X523190D01*
Y58521D01*
X524363Y59007D01*
X525650Y57720D01*
Y49407D01*
X539650D01*
Y59192D01*
X540858Y60399D01*
X541580Y61481D01*
X541834Y62757D01*
Y72825D01*
X547250D01*
Y43540D01*
D02*
G37*
G36*
X453500Y85594D02*
Y81500D01*
X469000Y66000D01*
Y22750D01*
X462500Y16250D01*
X436500D01*
X429750Y23000D01*
Y77000D01*
X439000Y86250D01*
X452594Y86484D01*
X453500Y85594D01*
D02*
G37*
G36*
X385694Y89419D02*
X384818Y88500D01*
X378065D01*
Y80000D01*
X381250D01*
X415250Y46000D01*
X415250Y23750D01*
X407000Y15500D01*
X384000D01*
X373500Y26000D01*
Y57500D01*
X370829Y60171D01*
X370465Y60715D01*
X369921Y61079D01*
X365500Y65500D01*
Y66000D01*
X365000D01*
X358500Y72500D01*
Y87279D01*
X362142Y90922D01*
X377525D01*
X379086Y91232D01*
X380409Y92116D01*
X380999Y93000D01*
X385524D01*
X385694Y89419D01*
D02*
G37*
%LPC*%
G36*
X286000Y286608D02*
X283854Y286181D01*
X282035Y284965D01*
X282011Y284930D01*
X281173Y284820D01*
X279797Y284250D01*
X278000Y284608D01*
X275854Y284181D01*
X274035Y282965D01*
X272819Y281146D01*
X272392Y279000D01*
X272819Y276854D01*
X274035Y275035D01*
X275854Y273819D01*
X277661Y273460D01*
X278008Y273008D01*
X278460Y272661D01*
X278819Y270854D01*
X280035Y269035D01*
X281854Y267819D01*
X282350Y267721D01*
Y260850D01*
X287600D01*
Y259350D01*
X289100D01*
Y249725D01*
X292850D01*
Y255725D01*
X294120Y255978D01*
X294186Y255820D01*
X295050Y254693D01*
Y249725D01*
X305550D01*
Y254693D01*
X306414Y255820D01*
X306480Y255978D01*
X307750Y255725D01*
Y249725D01*
X318250D01*
X318640Y248616D01*
Y246281D01*
X318309Y245483D01*
X317896Y242350D01*
Y229740D01*
X318309Y226607D01*
X318640Y225809D01*
Y215844D01*
X318250Y214735D01*
X317369Y214735D01*
X307750D01*
Y195485D01*
X310166D01*
Y193850D01*
X306500D01*
Y180395D01*
X303500D01*
Y193850D01*
X289500D01*
Y193850D01*
X288230Y193474D01*
X286823Y193754D01*
X284677Y193327D01*
X282857Y192111D01*
X281642Y190292D01*
X281215Y188146D01*
X281642Y186000D01*
X282857Y184181D01*
X284677Y182965D01*
X286823Y182538D01*
X288230Y182818D01*
X289474Y181928D01*
X289500Y181875D01*
Y180395D01*
X289470D01*
Y177720D01*
X308750D01*
Y178850D01*
X334000D01*
Y193850D01*
X316834D01*
Y195485D01*
X318250D01*
Y201485D01*
X319520Y201738D01*
X319585Y201580D01*
X320450Y200453D01*
Y195485D01*
X330950D01*
Y200453D01*
X331814Y201580D01*
X332520Y203283D01*
X332730Y204879D01*
X334000Y204850D01*
Y204850D01*
X341500D01*
Y212350D01*
X344500D01*
Y204850D01*
X351730D01*
X352000Y204850D01*
X353000D01*
X353270Y204850D01*
X360500D01*
Y212350D01*
X363500D01*
Y204850D01*
X370730D01*
X371000Y204850D01*
X372000D01*
X372270Y204850D01*
X379500D01*
Y212350D01*
X382500D01*
Y204850D01*
X389082D01*
X390000Y204000D01*
X390918Y204000D01*
X397500D01*
Y211500D01*
X400500D01*
Y204000D01*
X408000D01*
Y212579D01*
X409270Y213180D01*
X409517Y212977D01*
X409392Y212350D01*
X409819Y210204D01*
X411035Y208385D01*
X412854Y207169D01*
X415000Y206742D01*
X416368Y207015D01*
X417942Y205441D01*
X420448Y203518D01*
X423367Y202309D01*
X426500Y201896D01*
X429633Y202309D01*
X432552Y203518D01*
X435059Y205441D01*
X436982Y207948D01*
X437485Y209163D01*
X438181Y210204D01*
X438608Y212350D01*
X438475Y213020D01*
X438604Y214000D01*
X438191Y217133D01*
X436982Y220052D01*
X435059Y222558D01*
X430134Y227484D01*
X413708Y243909D01*
X411202Y245832D01*
X408283Y247041D01*
X405150Y247454D01*
X371898D01*
X371000Y248352D01*
X371000Y251850D01*
X371000Y253120D01*
Y257850D01*
X362000D01*
X353000D01*
Y253120D01*
X353000Y251850D01*
X353000Y250580D01*
Y247454D01*
X350500D01*
Y250350D01*
X338987D01*
X338559Y250909D01*
X337032Y252080D01*
X337463Y253350D01*
X341500D01*
Y258850D01*
X335500D01*
Y254435D01*
X334230Y253587D01*
X333133Y254041D01*
X332760Y254090D01*
Y259350D01*
X332520Y261177D01*
X331814Y262880D01*
X330950Y264007D01*
Y268975D01*
X324300D01*
Y283850D01*
X310300D01*
Y275118D01*
X310116Y274934D01*
X309232Y273611D01*
X308922Y272050D01*
X308922Y272050D01*
Y270119D01*
X308728Y270022D01*
X308436Y270035D01*
X307360Y270757D01*
Y276350D01*
X307300Y276809D01*
Y283850D01*
X295875D01*
X295530Y284114D01*
X293827Y284820D01*
X292000Y285060D01*
X289823D01*
X288146Y286181D01*
X286000Y286608D01*
D02*
G37*
G36*
X350500Y267350D02*
X344500D01*
Y261850D01*
X350500D01*
Y267350D01*
D02*
G37*
G36*
X341500D02*
X335500D01*
Y261850D01*
X341500D01*
Y267350D01*
D02*
G37*
G36*
X371000Y266850D02*
X363500D01*
Y260850D01*
X371000D01*
Y266850D01*
D02*
G37*
G36*
X360500D02*
X353000D01*
Y260850D01*
X360500D01*
Y266850D01*
D02*
G37*
G36*
X350500Y258850D02*
X344500D01*
Y253350D01*
X350500D01*
Y258850D01*
D02*
G37*
G36*
X286100Y257850D02*
X282350D01*
Y249725D01*
X286100D01*
Y257850D01*
D02*
G37*
G36*
X256500Y242350D02*
X250500D01*
Y236850D01*
X256500D01*
Y242350D01*
D02*
G37*
G36*
X274500D02*
Y236850D01*
X280500D01*
Y242350D01*
X274500D01*
D02*
G37*
G36*
X280500Y233850D02*
X274500D01*
Y228350D01*
X280500D01*
Y233850D01*
D02*
G37*
G36*
X256500Y233850D02*
X250500D01*
Y228350D01*
X256500D01*
Y233850D01*
D02*
G37*
G36*
X265500Y242350D02*
X264230Y242350D01*
X259500D01*
Y235350D01*
X258000D01*
D01*
X259500D01*
Y228350D01*
X264230D01*
X265500Y228350D01*
X266770Y228350D01*
X271500D01*
Y235350D01*
Y242350D01*
X266770D01*
X265500Y242350D01*
D02*
G37*
G36*
X461500Y221938D02*
X459819Y221241D01*
X458088Y219912D01*
X456759Y218181D01*
X456063Y216500D01*
X461500D01*
Y221938D01*
D02*
G37*
G36*
X265500Y225350D02*
X265500Y225350D01*
X250500D01*
Y211350D01*
X254666D01*
Y209350D01*
X254920Y208074D01*
X255642Y206992D01*
X259882Y202752D01*
X260964Y202030D01*
X262240Y201776D01*
X282350D01*
Y195485D01*
X292850D01*
Y212126D01*
X294023Y212612D01*
X295050Y211585D01*
Y195485D01*
X305550D01*
Y214735D01*
X301330D01*
X295357Y220707D01*
X294276Y221430D01*
X293000Y221684D01*
X280500D01*
Y225350D01*
X266770D01*
X265500Y225350D01*
Y225350D01*
D02*
G37*
G36*
X351000Y193850D02*
X345500D01*
Y187850D01*
X351000D01*
Y193850D01*
D02*
G37*
G36*
X342500D02*
X337000D01*
Y187850D01*
X342500D01*
Y193850D01*
D02*
G37*
G36*
X351000Y184850D02*
X345500D01*
Y178850D01*
X351000D01*
Y184850D01*
D02*
G37*
G36*
X342500D02*
X337000D01*
Y178850D01*
X342500D01*
Y184850D01*
D02*
G37*
G36*
X558000Y177250D02*
X552500D01*
Y171250D01*
X558000D01*
Y177250D01*
D02*
G37*
G36*
X566500Y168250D02*
X561000D01*
Y162250D01*
X566500D01*
Y168250D01*
D02*
G37*
G36*
X558000D02*
X552500D01*
Y162250D01*
X558000D01*
Y168250D01*
D02*
G37*
G36*
X423187Y157500D02*
X417750D01*
Y152063D01*
X419431Y152759D01*
X421162Y154087D01*
X422491Y155819D01*
X423187Y157500D01*
D02*
G37*
G36*
X412750D02*
X407313D01*
X408009Y155819D01*
X409338Y154087D01*
X411069Y152759D01*
X412750Y152063D01*
Y157500D01*
D02*
G37*
G36*
X555000Y126420D02*
X536750D01*
Y113620D01*
X555000D01*
Y126420D01*
D02*
G37*
G36*
X415320Y126750D02*
X402520D01*
Y108500D01*
X415320D01*
Y126750D01*
D02*
G37*
G36*
X308745Y105550D02*
X300620D01*
Y101800D01*
X308745D01*
Y105550D01*
D02*
G37*
G36*
X297620D02*
X289495D01*
Y101800D01*
X297620D01*
Y105550D01*
D02*
G37*
G36*
X555000Y110620D02*
X536750D01*
Y97820D01*
X555000D01*
Y110620D01*
D02*
G37*
G36*
X533750D02*
X515500D01*
Y97820D01*
X533750D01*
Y110620D01*
D02*
G37*
G36*
X431120Y105500D02*
X418320D01*
Y87250D01*
X431120D01*
Y105500D01*
D02*
G37*
G36*
X415320D02*
X402520D01*
Y87250D01*
X415320D01*
Y105500D01*
D02*
G37*
G36*
X338500Y90500D02*
X332500D01*
Y85000D01*
X338500D01*
Y90500D01*
D02*
G37*
G36*
X290500Y54000D02*
X285000D01*
Y48000D01*
X290500D01*
Y54000D01*
D02*
G37*
G36*
X308745Y74200D02*
X289495D01*
Y64270D01*
X289495Y63700D01*
X288515Y63000D01*
X285000D01*
Y57000D01*
X290500D01*
Y62430D01*
X290500Y63000D01*
X291480Y63700D01*
X292520D01*
X293500Y63000D01*
Y48000D01*
X295090D01*
X295896Y47018D01*
X295892Y47000D01*
X296319Y44854D01*
X297535Y43035D01*
X299354Y41819D01*
X301500Y41392D01*
X303646Y41819D01*
X305465Y43035D01*
X306681Y44854D01*
X307088Y46901D01*
X307500Y48000D01*
X307500Y49174D01*
Y63000D01*
X308480Y63700D01*
X308745D01*
Y74200D01*
D02*
G37*
G36*
X321250Y44250D02*
X315887D01*
X315930Y43923D01*
X316635Y42220D01*
X317758Y40758D01*
X319220Y39636D01*
X320923Y38930D01*
X321250Y38887D01*
Y44250D01*
D02*
G37*
G36*
X558250Y43000D02*
X552750D01*
Y37000D01*
X558250D01*
Y43000D01*
D02*
G37*
G36*
X365500Y37500D02*
X359500D01*
Y30000D01*
X365500D01*
Y37500D01*
D02*
G37*
G36*
X566750Y34000D02*
X561250D01*
Y28000D01*
X566750D01*
Y34000D01*
D02*
G37*
G36*
X558250D02*
X552750D01*
Y28000D01*
X558250D01*
Y34000D01*
D02*
G37*
G36*
X358950Y28113D02*
Y22750D01*
X364313D01*
X364270Y23077D01*
X363564Y24780D01*
X362443Y26242D01*
X360980Y27364D01*
X359277Y28070D01*
X358950Y28113D01*
D02*
G37*
G36*
X364313Y19750D02*
X358950D01*
Y14387D01*
X359277Y14430D01*
X360980Y15136D01*
X362443Y16258D01*
X363564Y17720D01*
X364270Y19423D01*
X364313Y19750D01*
D02*
G37*
G36*
X106500Y271500D02*
X100500D01*
Y266000D01*
X106500D01*
Y271500D01*
D02*
G37*
G36*
X97500D02*
X91500D01*
Y266000D01*
X97500D01*
Y271500D01*
D02*
G37*
G36*
X156300Y270140D02*
X140100D01*
Y260140D01*
X156300D01*
Y270140D01*
D02*
G37*
G36*
X106500Y263000D02*
X100500D01*
Y257500D01*
X106500D01*
Y263000D01*
D02*
G37*
G36*
X97500D02*
X91500D01*
Y257500D01*
X97500D01*
Y263000D01*
D02*
G37*
G36*
X59900Y273020D02*
X54400D01*
X51985Y272702D01*
X49735Y271770D01*
X47803Y270287D01*
X46320Y268355D01*
X45388Y266105D01*
X45070Y263690D01*
X45388Y261275D01*
X46320Y259025D01*
X46506Y258783D01*
X45952Y257419D01*
X44309Y257092D01*
X42324Y255766D01*
X40998Y253781D01*
X40532Y251440D01*
X40998Y249099D01*
X42324Y247114D01*
X44309Y245788D01*
X46650Y245322D01*
X48991Y245788D01*
X50976Y247114D01*
X52302Y249099D01*
X52768Y251440D01*
X52389Y253344D01*
X53078Y254312D01*
X53350Y254498D01*
X54400Y254360D01*
X59900D01*
X62315Y254678D01*
X64565Y255610D01*
X66497Y257093D01*
X67980Y259025D01*
X68912Y261275D01*
X69230Y263690D01*
X68912Y266105D01*
X67980Y268355D01*
X66497Y270287D01*
X64565Y271770D01*
X62315Y272702D01*
X59900Y273020D01*
D02*
G37*
G36*
X130100Y270140D02*
X113900D01*
Y260140D01*
Y257140D01*
X122000D01*
Y254140D01*
X113900D01*
Y247610D01*
X106500D01*
Y254500D01*
X91500D01*
Y248298D01*
X90250Y248250D01*
Y248250D01*
X68750D01*
Y232850D01*
X90250D01*
Y233490D01*
X118050D01*
X119877Y233730D01*
X121580Y234436D01*
X123042Y235558D01*
X126493Y239008D01*
X127614Y240470D01*
X127892Y241140D01*
X130100D01*
Y245185D01*
X133728Y248813D01*
X134450Y249894D01*
X134704Y251170D01*
Y260630D01*
X134450Y261906D01*
X133728Y262987D01*
X130100Y266615D01*
Y270140D01*
D02*
G37*
G36*
X167000Y270060D02*
X165173Y269820D01*
X163470Y269114D01*
X162008Y267992D01*
X160886Y266530D01*
X160180Y264827D01*
X159940Y263000D01*
Y254925D01*
X158216Y253200D01*
X148200D01*
X146373Y252960D01*
X144670Y252255D01*
X143217Y251140D01*
X140100D01*
Y241140D01*
X143217D01*
X144670Y240026D01*
X146373Y239320D01*
X148200Y239080D01*
X156500D01*
Y237000D01*
X171500D01*
Y246515D01*
X171992Y247008D01*
X173114Y248470D01*
X173820Y250173D01*
X174060Y252000D01*
Y263000D01*
X173820Y264827D01*
X173114Y266530D01*
X171992Y267992D01*
X170530Y269114D01*
X168827Y269820D01*
X167000Y270060D01*
D02*
G37*
G36*
X171500Y234000D02*
X165500D01*
Y228500D01*
X171500D01*
Y234000D01*
D02*
G37*
G36*
X162500D02*
X156500D01*
Y228500D01*
X162500D01*
Y234000D01*
D02*
G37*
G36*
X143125Y238358D02*
X140979Y237931D01*
X139160Y236715D01*
X137944Y234896D01*
X137517Y232750D01*
X137944Y230604D01*
X139160Y228785D01*
X140979Y227569D01*
X143125Y227142D01*
X145271Y227569D01*
X147090Y228785D01*
X148306Y230604D01*
X148733Y232750D01*
X148306Y234896D01*
X147090Y236715D01*
X145271Y237931D01*
X143125Y238358D01*
D02*
G37*
G36*
X171500Y225500D02*
X165500D01*
Y220000D01*
X171500D01*
Y225500D01*
D02*
G37*
G36*
X162500D02*
X156500D01*
Y220000D01*
X162500D01*
Y225500D01*
D02*
G37*
G36*
X90250Y218650D02*
X68750D01*
Y203250D01*
X77747D01*
X79123Y202680D01*
X80950Y202440D01*
X96820D01*
X98647Y202680D01*
X100350Y203386D01*
X101812Y204508D01*
X102935Y205970D01*
X103640Y207673D01*
X103880Y209500D01*
X103640Y211327D01*
X102935Y213030D01*
X101812Y214492D01*
X100350Y215614D01*
X98647Y216320D01*
X96820Y216560D01*
X90250D01*
Y218650D01*
D02*
G37*
G36*
X167000Y191608D02*
X164854Y191181D01*
X163035Y189965D01*
X161819Y188146D01*
X161392Y186000D01*
X161660Y184656D01*
X160596Y183573D01*
X160420Y183608D01*
X158274Y183181D01*
X156455Y181965D01*
X155240Y180146D01*
X154813Y178000D01*
X155240Y175854D01*
X156455Y174035D01*
X157100Y173604D01*
X156714Y172334D01*
X107250D01*
X105974Y172080D01*
X104892Y171357D01*
X103744Y170210D01*
X103000Y170358D01*
X100854Y169931D01*
X99035Y168715D01*
X97819Y166896D01*
X97392Y164750D01*
X97540Y164005D01*
X92122Y158588D01*
X91400Y157506D01*
X91146Y156230D01*
Y101740D01*
X90120Y101314D01*
X88658Y100192D01*
X88087Y99448D01*
X86513D01*
X85942Y100192D01*
X84480Y101314D01*
X82777Y102020D01*
X80950Y102260D01*
X79123Y102020D01*
X77420Y101314D01*
X75958Y100192D01*
X75387Y99448D01*
X73813D01*
X73242Y100192D01*
X71780Y101314D01*
X70077Y102020D01*
X68250Y102260D01*
X66423Y102020D01*
X64720Y101314D01*
X63258Y100192D01*
X62687Y99448D01*
X61113D01*
X60542Y100192D01*
X59080Y101314D01*
X57377Y102020D01*
X55550Y102260D01*
X53723Y102020D01*
X52020Y101314D01*
X50558Y100192D01*
X49987Y99448D01*
X48413D01*
X47842Y100192D01*
X46380Y101314D01*
X44677Y102020D01*
X42850Y102260D01*
X41023Y102020D01*
X39320Y101314D01*
X37858Y100192D01*
X36735Y98730D01*
X36030Y97027D01*
X35790Y95200D01*
X36030Y93373D01*
X36735Y91670D01*
X37426Y90770D01*
X36800Y89500D01*
X35850D01*
Y75500D01*
X49850D01*
Y76450D01*
X51120Y77076D01*
X52020Y76385D01*
X53723Y75680D01*
X54050Y75637D01*
Y82500D01*
X57050D01*
Y75637D01*
X57377Y75680D01*
X59080Y76385D01*
X60542Y77508D01*
X61113Y78252D01*
X62687D01*
X63258Y77508D01*
X64720Y76385D01*
X66423Y75680D01*
X66750Y75637D01*
Y82500D01*
X69750D01*
Y75637D01*
X70077Y75680D01*
X71780Y76385D01*
X73242Y77508D01*
X73813Y78252D01*
X75387D01*
X75958Y77508D01*
X77420Y76385D01*
X79123Y75680D01*
X80950Y75440D01*
X82777Y75680D01*
X84480Y76385D01*
X85942Y77508D01*
X86513Y78252D01*
X88087D01*
X88658Y77508D01*
X90120Y76385D01*
X91823Y75680D01*
X92150Y75637D01*
Y82500D01*
X93650D01*
Y84000D01*
X100513D01*
X100470Y84327D01*
X99764Y86030D01*
X98642Y87493D01*
X97899Y88063D01*
Y89637D01*
X98642Y90208D01*
X99764Y91670D01*
X100470Y93373D01*
X100710Y95200D01*
X100470Y97027D01*
X99764Y98730D01*
X98642Y100192D01*
X97814Y100828D01*
Y154849D01*
X102255Y159290D01*
X103000Y159142D01*
X105146Y159569D01*
X106965Y160785D01*
X108181Y162604D01*
X108608Y164750D01*
X109720Y165666D01*
X150945D01*
X151664Y164396D01*
X151627Y164334D01*
X149739D01*
X148463Y164080D01*
X147381Y163358D01*
X121562Y137539D01*
X120840Y136457D01*
X120586Y135182D01*
Y81301D01*
X94937Y55652D01*
X94669Y55669D01*
X92833Y57078D01*
X90695Y57964D01*
X88400Y58266D01*
X86105Y57964D01*
X83967Y57078D01*
X82131Y55669D01*
X80722Y53833D01*
X79836Y51695D01*
X79534Y49400D01*
X79836Y47105D01*
X80722Y44967D01*
X82131Y43131D01*
X83967Y41722D01*
X86105Y40836D01*
X88400Y40534D01*
X90695Y40836D01*
X92833Y41722D01*
X94669Y43131D01*
X96078Y44967D01*
X96964Y47105D01*
X97137Y48422D01*
X123953Y75238D01*
X125126Y74752D01*
Y70841D01*
X83772Y29488D01*
X82505Y29571D01*
X81969Y30269D01*
X80133Y31678D01*
X77995Y32564D01*
X75700Y32866D01*
X73405Y32564D01*
X71267Y31678D01*
X69431Y30269D01*
X68022Y28433D01*
X67136Y26295D01*
X66834Y24000D01*
X67136Y21705D01*
X68022Y19567D01*
X69431Y17731D01*
X71267Y16322D01*
X73405Y15436D01*
X75700Y15134D01*
X77995Y15436D01*
X80133Y16322D01*
X81969Y17731D01*
X83378Y19567D01*
X83908Y20847D01*
X84276Y20920D01*
X85358Y21642D01*
X109056Y45341D01*
X110133Y44621D01*
X110101Y44545D01*
X109766Y42000D01*
X110101Y39455D01*
X111083Y37083D01*
X112646Y35046D01*
X114683Y33483D01*
X117055Y32501D01*
X119600Y32166D01*
X122145Y32501D01*
X123369Y33008D01*
X124450Y32521D01*
X124450Y32521D01*
X124450Y32521D01*
D01*
X124810Y32230D01*
X124810Y31889D01*
Y25500D01*
X142390D01*
Y29236D01*
X143563Y29722D01*
X150263Y23022D01*
X150436Y21705D01*
X151322Y19567D01*
X152731Y17731D01*
X154567Y16322D01*
X156705Y15436D01*
X159000Y15134D01*
X161295Y15436D01*
X163433Y16322D01*
X165269Y17731D01*
X166678Y19567D01*
X167564Y21705D01*
X167866Y24000D01*
X167564Y26295D01*
X166678Y28433D01*
X165269Y30269D01*
X163433Y31678D01*
X161295Y32564D01*
X159000Y32866D01*
X156705Y32564D01*
X154567Y31678D01*
X152731Y30269D01*
X152464Y30252D01*
X142722Y39993D01*
X143441Y41070D01*
X144005Y40836D01*
X146300Y40534D01*
X148595Y40836D01*
X150733Y41722D01*
X152569Y43131D01*
X153978Y44967D01*
X154864Y47105D01*
X155166Y49400D01*
X154864Y51695D01*
X153978Y53833D01*
X152569Y55669D01*
X150733Y57078D01*
X148595Y57964D01*
X146300Y58266D01*
X144005Y57964D01*
X141867Y57078D01*
X140031Y55669D01*
X138622Y53833D01*
X137736Y51695D01*
X137604Y50690D01*
X136334Y50774D01*
Y78292D01*
X137507Y78778D01*
X163562Y52723D01*
X163136Y51695D01*
X162834Y49400D01*
X163136Y47105D01*
X164022Y44967D01*
X165431Y43131D01*
X167267Y41722D01*
X169405Y40836D01*
X171700Y40534D01*
X173995Y40836D01*
X176133Y41722D01*
X177969Y43131D01*
X179378Y44967D01*
X180264Y47105D01*
X180566Y49400D01*
X180264Y51695D01*
X179378Y53833D01*
X177969Y55669D01*
X176133Y57078D01*
X173995Y57964D01*
X171700Y58266D01*
X169405Y57964D01*
X168236Y57479D01*
X141334Y84381D01*
Y128619D01*
X147381Y134666D01*
X157613D01*
X158035Y134035D01*
X159854Y132819D01*
X162000Y132392D01*
X164146Y132819D01*
X165965Y134035D01*
X167181Y135854D01*
X167608Y138000D01*
X167227Y139911D01*
X167709Y140679D01*
X168093Y141067D01*
X168593Y140993D01*
X168819Y139854D01*
X170035Y138035D01*
X171854Y136819D01*
X174000Y136392D01*
X176146Y136819D01*
X177965Y138035D01*
X178904Y139440D01*
X179625Y139819D01*
X180456Y139753D01*
X181854Y138819D01*
X184000Y138392D01*
X186146Y138819D01*
X187965Y140035D01*
X189181Y141854D01*
X189422Y143067D01*
X190800Y143485D01*
X192162Y142122D01*
X193244Y141400D01*
X194520Y141146D01*
X199896D01*
X200575Y139876D01*
X200199Y139313D01*
X199772Y137167D01*
X200199Y135021D01*
X201415Y133202D01*
X203234Y131986D01*
X205380Y131559D01*
X207526Y131986D01*
X209345Y133202D01*
X210404Y134786D01*
X235250D01*
Y127605D01*
X235774D01*
X237000Y127500D01*
X237000Y112500D01*
X235813Y112300D01*
X235255D01*
Y108550D01*
X254505D01*
Y111198D01*
X254505Y112300D01*
X255605Y112711D01*
X256146Y112819D01*
X257965Y114035D01*
X259181Y115854D01*
X259608Y118000D01*
X259181Y120146D01*
X257965Y121965D01*
X256146Y123181D01*
X254000Y123608D01*
X253846Y123577D01*
X253561Y123768D01*
X252000Y124078D01*
X251000Y124821D01*
Y127500D01*
X252227Y127605D01*
X254530D01*
Y133945D01*
Y140305D01*
Y146645D01*
Y153005D01*
Y159345D01*
Y165705D01*
Y172045D01*
Y174720D01*
X235250D01*
Y173214D01*
X233101D01*
X217957Y188358D01*
X216876Y189080D01*
X215600Y189334D01*
X171387D01*
X170965Y189965D01*
X169146Y191181D01*
X167000Y191608D01*
D02*
G37*
G36*
X46650Y207558D02*
X44309Y207092D01*
X42324Y205766D01*
X40998Y203781D01*
X40532Y201440D01*
X40998Y199099D01*
X42324Y197114D01*
X44309Y195788D01*
X45952Y195461D01*
X46506Y194098D01*
X46320Y193855D01*
X45388Y191605D01*
X45070Y189190D01*
X45388Y186775D01*
X46320Y184525D01*
X47803Y182593D01*
X49735Y181110D01*
X51985Y180178D01*
X54400Y179860D01*
X59900D01*
X62315Y180178D01*
X64565Y181110D01*
X66497Y182593D01*
X67980Y184525D01*
X68912Y186775D01*
X69230Y189190D01*
X68912Y191605D01*
X67980Y193855D01*
X66497Y195787D01*
X64565Y197270D01*
X62315Y198202D01*
X59900Y198520D01*
X54400D01*
X53350Y198382D01*
X53078Y198568D01*
X52389Y199536D01*
X52768Y201440D01*
X52302Y203781D01*
X50976Y205766D01*
X48991Y207092D01*
X46650Y207558D01*
D02*
G37*
G36*
X254530Y180395D02*
X246390D01*
Y177720D01*
X254530D01*
Y180395D01*
D02*
G37*
G36*
X243390D02*
X235250D01*
Y177720D01*
X243390D01*
Y180395D01*
D02*
G37*
G36*
X234000Y127500D02*
X228500D01*
Y121500D01*
X234000D01*
Y127500D01*
D02*
G37*
G36*
X225500D02*
X220000D01*
Y121500D01*
X225500D01*
Y127500D01*
D02*
G37*
G36*
X234000Y118500D02*
X228500D01*
Y112500D01*
X234000D01*
Y118500D01*
D02*
G37*
G36*
X225500D02*
X220000D01*
Y112500D01*
X225500D01*
Y118500D01*
D02*
G37*
G36*
X254505Y105550D02*
X246380D01*
Y101800D01*
X254505D01*
Y105550D01*
D02*
G37*
G36*
X243380D02*
X235255D01*
Y101800D01*
X243380D01*
Y105550D01*
D02*
G37*
G36*
X258000Y100608D02*
X255854Y100181D01*
X254771Y99458D01*
X254505Y99600D01*
Y99600D01*
X235255D01*
Y89100D01*
X254505D01*
Y89374D01*
X255625Y89972D01*
X255854Y89819D01*
X258000Y89392D01*
X260146Y89819D01*
X261965Y91035D01*
X263181Y92854D01*
X263608Y95000D01*
X263181Y97146D01*
X261965Y98965D01*
X260146Y100181D01*
X258000Y100608D01*
D02*
G37*
G36*
X149000Y123608D02*
X146854Y123181D01*
X145035Y121965D01*
X143819Y120146D01*
X143392Y118000D01*
X143819Y115854D01*
X145035Y114035D01*
X146854Y112819D01*
X149000Y112392D01*
X149745Y112540D01*
X182992Y79292D01*
X184074Y78570D01*
X185350Y78316D01*
X235255D01*
Y76400D01*
X254505D01*
Y86900D01*
X235255D01*
Y84984D01*
X186731D01*
X154460Y117255D01*
X154608Y118000D01*
X154181Y120146D01*
X152965Y121965D01*
X151146Y123181D01*
X149000Y123608D01*
D02*
G37*
G36*
X100513Y81000D02*
X95150D01*
Y75637D01*
X95477Y75680D01*
X97180Y76385D01*
X98642Y77508D01*
X99764Y78970D01*
X100470Y80673D01*
X100513Y81000D01*
D02*
G37*
G36*
X254505Y74200D02*
X235255D01*
Y73028D01*
X233000D01*
Y73500D01*
X219000D01*
Y58500D01*
X221922D01*
Y54700D01*
X221922Y54700D01*
X222232Y53139D01*
X222913Y52121D01*
X222736Y51695D01*
X222434Y49400D01*
X222736Y47105D01*
X223622Y44967D01*
X225031Y43131D01*
X226867Y41722D01*
X229005Y40836D01*
X231300Y40534D01*
X233595Y40836D01*
X235733Y41722D01*
X237569Y43131D01*
X238978Y44967D01*
X239864Y47105D01*
X240166Y49400D01*
X239864Y51695D01*
X238978Y53833D01*
X237569Y55669D01*
X235733Y57078D01*
X233981Y57804D01*
X233000Y58500D01*
Y64872D01*
X235255D01*
Y63700D01*
X254505D01*
Y74200D01*
D02*
G37*
G36*
X216000Y73500D02*
X210500D01*
Y67500D01*
X216000D01*
Y73500D01*
D02*
G37*
G36*
X207500D02*
X202000D01*
Y67500D01*
X207500D01*
Y73500D01*
D02*
G37*
G36*
X216000Y64500D02*
X210500D01*
Y58500D01*
X216000D01*
Y64500D01*
D02*
G37*
G36*
X207500D02*
X202000D01*
Y58500D01*
X207500D01*
Y64500D01*
D02*
G37*
G36*
X256700Y58266D02*
X254405Y57964D01*
X252267Y57078D01*
X250431Y55669D01*
X249022Y53833D01*
X248136Y51695D01*
X247834Y49400D01*
X248136Y47105D01*
X249022Y44967D01*
X250431Y43131D01*
X252267Y41722D01*
X254405Y40836D01*
X256700Y40534D01*
X258995Y40836D01*
X261133Y41722D01*
X262969Y43131D01*
X264378Y44967D01*
X265264Y47105D01*
X265566Y49400D01*
X265264Y51695D01*
X264378Y53833D01*
X262969Y55669D01*
X261133Y57078D01*
X258995Y57964D01*
X256700Y58266D01*
D02*
G37*
G36*
X63000D02*
X60705Y57964D01*
X58567Y57078D01*
X56731Y55669D01*
X55322Y53833D01*
X54436Y51695D01*
X54134Y49400D01*
X54436Y47105D01*
X55322Y44967D01*
X56731Y43131D01*
X58567Y41722D01*
X60705Y40836D01*
X63000Y40534D01*
X65295Y40836D01*
X67433Y41722D01*
X69269Y43131D01*
X70678Y44967D01*
X71564Y47105D01*
X71866Y49400D01*
X71564Y51695D01*
X70678Y53833D01*
X69269Y55669D01*
X67433Y57078D01*
X65295Y57964D01*
X63000Y58266D01*
D02*
G37*
G36*
X220100Y32790D02*
Y25500D01*
X227390D01*
Y32790D01*
X220100D01*
D02*
G37*
G36*
X204600Y51834D02*
X202055Y51499D01*
X199683Y50517D01*
X197646Y48954D01*
X196083Y46917D01*
X195101Y44545D01*
X194766Y42000D01*
X195101Y39455D01*
X196083Y37083D01*
X197646Y35046D01*
X199683Y33483D01*
X202055Y32501D01*
X204600Y32166D01*
X207145Y32501D01*
X208369Y33008D01*
X209450Y32521D01*
X209450Y32521D01*
X209450Y32521D01*
D01*
X209810Y32230D01*
X209810Y31889D01*
Y25500D01*
X217100D01*
Y32790D01*
X210848D01*
X210841Y32790D01*
X210841D01*
X210700Y32790D01*
X210534Y33278D01*
X210534Y33278D01*
Y33278D01*
D01*
X210823Y34485D01*
X211554Y35046D01*
X213117Y37083D01*
X214099Y39455D01*
X214434Y42000D01*
X214099Y44545D01*
X213117Y46917D01*
X211554Y48954D01*
X209517Y50517D01*
X207145Y51499D01*
X204600Y51834D01*
D02*
G37*
G36*
X51800Y32790D02*
Y25500D01*
X59090D01*
Y32790D01*
X51800D01*
D02*
G37*
G36*
X36300Y51834D02*
X33755Y51499D01*
X31383Y50517D01*
X29346Y48954D01*
X27783Y46917D01*
X26801Y44545D01*
X26466Y42000D01*
X26801Y39455D01*
X27783Y37083D01*
X29346Y35046D01*
X31383Y33483D01*
X33755Y32501D01*
X36300Y32166D01*
X38845Y32501D01*
X40069Y33008D01*
X41150Y32521D01*
X41150Y32521D01*
X41150Y32521D01*
D01*
X41510Y32230D01*
X41510Y31889D01*
Y25500D01*
X48800D01*
Y32790D01*
X42548D01*
X42541Y32790D01*
X42541D01*
X42400Y32790D01*
X42234Y33278D01*
X42234Y33278D01*
Y33278D01*
D01*
X42523Y34485D01*
X43254Y35046D01*
X44817Y37083D01*
X45799Y39455D01*
X46134Y42000D01*
X45799Y44545D01*
X44817Y46917D01*
X43254Y48954D01*
X41217Y50517D01*
X38845Y51499D01*
X36300Y51834D01*
D02*
G37*
G36*
X227390Y22500D02*
X220100D01*
Y15210D01*
X227390D01*
Y22500D01*
D02*
G37*
G36*
X217100D02*
X209810D01*
Y15210D01*
X217100D01*
Y22500D01*
D02*
G37*
G36*
X142390D02*
X135100D01*
Y15210D01*
X142390D01*
Y22500D01*
D02*
G37*
G36*
X132100D02*
X124810D01*
Y15210D01*
X132100D01*
Y22500D01*
D02*
G37*
G36*
X59090D02*
X51800D01*
Y15210D01*
X59090D01*
Y22500D01*
D02*
G37*
G36*
X48800D02*
X41510D01*
Y15210D01*
X48800D01*
Y22500D01*
D02*
G37*
G36*
X244000Y32866D02*
X241705Y32564D01*
X239567Y31678D01*
X237731Y30269D01*
X236322Y28433D01*
X235436Y26295D01*
X235134Y24000D01*
X235436Y21705D01*
X236322Y19567D01*
X237731Y17731D01*
X239567Y16322D01*
X241705Y15436D01*
X244000Y15134D01*
X246295Y15436D01*
X248433Y16322D01*
X250269Y17731D01*
X251678Y19567D01*
X252564Y21705D01*
X252866Y24000D01*
X252564Y26295D01*
X251678Y28433D01*
X250269Y30269D01*
X248433Y31678D01*
X246295Y32564D01*
X244000Y32866D01*
D02*
G37*
G36*
X554750Y241250D02*
X536500D01*
Y228450D01*
X554750D01*
Y241250D01*
D02*
G37*
G36*
X478500Y160938D02*
Y155500D01*
X483937D01*
X483241Y157181D01*
X481912Y158912D01*
X480181Y160241D01*
X478500Y160938D01*
D02*
G37*
G36*
X473500Y160938D02*
X471819Y160241D01*
X470088Y158912D01*
X468759Y157181D01*
X468063Y155500D01*
X473500D01*
Y160938D01*
D02*
G37*
G36*
X511400Y183750D02*
X507860D01*
Y179710D01*
X511400D01*
Y183750D01*
D02*
G37*
G36*
X538500Y177790D02*
X534960D01*
Y173750D01*
X538500D01*
Y177790D01*
D02*
G37*
G36*
X358000Y134140D02*
X353960D01*
Y130600D01*
X358000D01*
Y134140D01*
D02*
G37*
G36*
X348040Y108040D02*
X344000D01*
Y104500D01*
X348040D01*
Y108040D01*
D02*
G37*
G36*
X511650Y52907D02*
X508110D01*
Y48867D01*
X511650D01*
Y52907D01*
D02*
G37*
G36*
X538750Y43540D02*
X535210D01*
Y39500D01*
X538750D01*
Y43540D01*
D02*
G37*
%LPD*%
D12*
X309000Y126750D02*
X323000D01*
X295896Y131420D02*
X304329D01*
X301500Y47000D02*
Y66570D01*
X304329Y131420D02*
X309000Y126750D01*
X323000D02*
X323750Y127500D01*
X551250Y196944D02*
X554694Y193500D01*
X551250Y196944D02*
Y213370D01*
X551500Y62580D02*
X556830Y57250D01*
X551500Y62580D02*
Y82740D01*
X299120Y68950D02*
X301500Y66570D01*
X252000Y120000D02*
X254000Y118000D01*
X313000Y272050D02*
X317300Y276350D01*
X313000Y259350D02*
Y272050D01*
X360750Y86500D02*
X365000Y90750D01*
X387440D01*
X244000Y130890D02*
X244890Y131780D01*
X244000Y120000D02*
Y130890D01*
Y120000D02*
X252000D01*
X228950Y68950D02*
X244880D01*
X226000Y66000D02*
X228950Y68950D01*
X226000Y54700D02*
Y66000D01*
Y54700D02*
X231300Y49400D01*
X372250Y97250D02*
X387440D01*
X545000Y69250D02*
Y82740D01*
X544750Y195500D02*
Y213370D01*
D16*
X258000Y235350D02*
X273000D01*
X540451Y286500D02*
X540750Y286201D01*
X340000Y83500D02*
X342750Y80750D01*
X350500D01*
X416820Y101180D02*
Y107000D01*
X427250Y90750D02*
X446200D01*
X416820Y101180D02*
X427250Y90750D01*
X456250Y97250D02*
X460250Y93250D01*
X538500Y154960D02*
X540040Y156500D01*
X520000Y199750D02*
X521000D01*
X512000D02*
Y213120D01*
X94480Y93620D02*
Y156230D01*
Y93620D02*
X95400Y92700D01*
X94480Y156230D02*
X103000Y164750D01*
X122000Y246140D02*
X126340D01*
X479000Y205250D02*
Y222750D01*
X454330Y180580D02*
X479000Y205250D01*
X376489Y180580D02*
X454330D01*
X474250Y208500D02*
Y225250D01*
X450870Y185120D02*
X474250Y208500D01*
X374608Y185120D02*
X450870D01*
X103000Y164750D02*
X107250Y169000D01*
X159000D01*
X299120Y94350D02*
X304150D01*
X322750Y58450D02*
Y68750D01*
X309850Y81650D02*
X322750Y68750D01*
X299120Y81650D02*
X309850D01*
X332050Y21250D02*
Y66450D01*
X304150Y94350D02*
X332050Y66450D01*
X313500Y186350D02*
X327000D01*
X262240Y205110D02*
X287600D01*
X258000Y209350D02*
X262240Y205110D01*
X258000Y209350D02*
Y218350D01*
X190000Y178000D02*
X210820Y157180D01*
X160420Y178000D02*
X190000D01*
X210820Y157180D02*
X244890D01*
X205000Y152000D02*
X206180Y150820D01*
X244890D01*
X557250Y286000D02*
X561000D01*
X539955Y285093D02*
X540466Y285604D01*
X539072Y284210D02*
X539955Y285093D01*
X540060Y284989D02*
X540570Y285500D01*
X539176Y284106D02*
X540060Y284989D01*
X538770Y283700D02*
X539176Y284106D01*
X540060Y284989D02*
X540173Y284876D01*
X539955Y285093D02*
X540060Y284989D01*
X539799Y285250D02*
X539955Y285093D01*
X539176Y284106D02*
X539290Y283992D01*
X539072Y284210D02*
X539176Y284106D01*
X540451Y286500D02*
X540500D01*
X539799Y285250D02*
X540750Y286201D01*
X539290Y283992D02*
X540173Y284876D01*
X531500Y272880D02*
X532000Y272380D01*
X549250Y289000D02*
X549657D01*
X531500Y272880D02*
Y287896D01*
X549657Y289000D02*
X551328Y287328D01*
X540466Y285604D02*
X540570Y285500D01*
X551250Y280000D02*
X557250Y286000D01*
X551250Y272130D02*
Y280000D01*
X544750Y280750D02*
X551328Y287328D01*
X531250Y154500D02*
X532000Y153750D01*
X521000Y155000D02*
X525500Y150500D01*
Y141500D02*
Y150500D01*
X545000Y150250D02*
X549250Y154500D01*
X531750Y201500D02*
Y213370D01*
X530000Y199750D02*
X531750Y201500D01*
X512000Y213120D02*
X512250Y213370D01*
X288619Y186350D02*
X296500D01*
X286823Y188146D02*
X288619Y186350D01*
X321740Y141740D02*
X418010D01*
X318280Y146280D02*
X420470D01*
X299110Y150820D02*
X359570D01*
X380250Y171500D01*
X299110Y157180D02*
X359510D01*
X378369Y176040D01*
X359429Y163520D02*
X376489Y180580D01*
X299110Y163520D02*
X359429D01*
X359369Y169880D02*
X374608Y185120D01*
X299110Y169880D02*
X359369D01*
X374453Y121633D02*
X379337Y116750D01*
X378369Y176040D02*
X425131D01*
X380250Y171500D02*
X423250D01*
X425131Y176040D02*
X458130Y143040D01*
X423250Y171500D02*
X456250Y138500D01*
X446200Y97250D02*
X456250D01*
X459142Y102250D02*
X465500D01*
X458500Y120000D02*
X460750D01*
X455250Y116750D02*
X458500Y120000D01*
X512250Y263250D02*
Y272130D01*
X474250Y225250D02*
X512250Y263250D01*
X518750Y262500D02*
Y272130D01*
X479000Y222750D02*
X518750Y262500D01*
X509500Y129500D02*
X516000D01*
X500500Y138500D02*
X509500Y129500D01*
X456250Y138500D02*
X500500D01*
X516000Y129500D02*
X519000Y132500D01*
X458130Y143040D02*
X512460D01*
X512500Y143000D01*
X519000Y132500D02*
Y141500D01*
X420470Y146280D02*
X437000Y129750D01*
X418010Y141740D02*
X436500Y123250D01*
X318120Y138120D02*
X321740Y141740D01*
X316480Y144480D02*
X318280Y146280D01*
X299110Y144480D02*
X316480D01*
X299110Y138120D02*
X318120D01*
X437000Y129750D02*
X446200D01*
X436500Y123250D02*
X446200D01*
X521000Y155000D02*
Y155500D01*
X545000Y141500D02*
Y150250D01*
X538500Y141500D02*
Y154960D01*
X532000Y141500D02*
Y153750D01*
X538250Y272130D02*
X538770Y272650D01*
Y283700D01*
X544750Y272130D02*
Y280750D01*
X531750Y272130D02*
X532000Y272380D01*
X525250Y272130D02*
Y282500D01*
X522000Y285750D02*
X525250Y282500D01*
X520000Y199750D02*
X525250Y205000D01*
X273000Y218350D02*
X293000D01*
X313500Y186350D02*
Y204610D01*
X293000Y218350D02*
X300300Y211050D01*
X313000Y205110D02*
X313500Y204610D01*
X300300Y205110D02*
Y211050D01*
X185350Y81650D02*
X244880D01*
X149000Y118000D02*
X185350Y81650D01*
X205380Y137167D02*
X206333Y138120D01*
X244890D01*
X220480Y163520D02*
X244890D01*
X194520Y144480D02*
X244890D01*
X168000Y171000D02*
X194520Y144480D01*
X205000Y179000D02*
X220480Y163520D01*
X159000Y169000D02*
X184000Y144000D01*
X171000Y145000D02*
X174000Y142000D01*
X146000Y138000D02*
X162000D01*
X231720Y169880D02*
X244890D01*
X215600Y186000D02*
X231720Y169880D01*
X167000Y186000D02*
X215600D01*
X149739Y161000D02*
X157380D01*
X123920Y79920D02*
Y135182D01*
X149159Y154000D02*
X164000D01*
X128460Y69460D02*
Y133301D01*
X146580Y145000D02*
X171000D01*
X133000Y45000D02*
Y131420D01*
X146580Y145000D01*
X128460Y133301D02*
X149159Y154000D01*
X123920Y135182D02*
X149739Y161000D01*
X138000Y130000D02*
X146000Y138000D01*
X138000Y83000D02*
Y130000D01*
X85000Y49000D02*
X93000D01*
X257350Y94350D02*
X258000Y95000D01*
X244880Y94350D02*
X257350D01*
X138000Y83000D02*
X170000Y51000D01*
X93000Y49000D02*
X123920Y79920D01*
X154000Y24000D02*
X159000D01*
X133000Y45000D02*
X154000Y24000D01*
X83000D02*
X128460Y69460D01*
X75700Y24000D02*
X83000D01*
X362000Y109600D02*
X367850Y103750D01*
X387440D01*
X375200Y129750D02*
X387440D01*
X374950Y110250D02*
X387440D01*
X379337Y116750D02*
X387440D01*
X520617Y69753D02*
X525500Y74637D01*
X446200Y116750D02*
X455250D01*
X457642Y103750D02*
X459142Y102250D01*
X446200Y103750D02*
X457642D01*
X446200Y110250D02*
X458750D01*
X532650Y56907D02*
X538500Y62757D01*
Y82740D01*
X525500Y74637D02*
Y82740D01*
X532000Y70250D02*
Y82740D01*
X512500Y70500D02*
Y82740D01*
X534750Y187750D02*
X538250Y191250D01*
X525250Y205000D02*
Y213370D01*
X538250Y191250D02*
Y213370D01*
X126340Y246140D02*
X131370Y251170D01*
Y260630D01*
X126860Y265140D02*
X131370Y260630D01*
X122000Y265140D02*
X126860D01*
D17*
X327000Y186350D02*
D03*
X344000D02*
D03*
X317300Y276350D02*
D03*
X300300D02*
D03*
X296500Y186350D02*
D03*
X313500D02*
D03*
X209000Y66000D02*
D03*
X226000D02*
D03*
X283500Y55500D02*
D03*
X300500D02*
D03*
X314500Y120500D02*
D03*
X297500D02*
D03*
X244000Y120000D02*
D03*
X227000D02*
D03*
X559750Y35500D02*
D03*
X542750D02*
D03*
X532650Y56907D02*
D03*
X515650D02*
D03*
X559500Y169750D02*
D03*
X542500D02*
D03*
X532400Y187750D02*
D03*
X515400D02*
D03*
D23*
X343000Y39000D02*
D03*
X358000D02*
D03*
Y57000D02*
D03*
X343000D02*
D03*
D24*
X343000Y243350D02*
D03*
Y260350D02*
D03*
X273000Y218350D02*
D03*
Y235350D02*
D03*
X258000Y218350D02*
D03*
Y235350D02*
D03*
X340000Y83500D02*
D03*
Y100500D02*
D03*
X362000Y109600D02*
D03*
Y126600D02*
D03*
X164000Y227000D02*
D03*
Y244000D02*
D03*
X99000Y264500D02*
D03*
Y247500D02*
D03*
D62*
X344500Y67095D02*
X347500Y70095D01*
X344500Y57000D02*
Y67095D01*
Y21500D02*
Y57000D01*
X161140Y246140D02*
X167000Y252000D01*
X80950Y209500D02*
X96820D01*
X79500Y240550D02*
X118050D01*
X121500Y244000D01*
X79500Y210950D02*
X80950Y209500D01*
X343000Y65595D02*
X344500Y67095D01*
Y67250D01*
Y21500D02*
X344750Y21250D01*
X343000Y57000D02*
Y65595D01*
X292000Y278000D02*
X300300Y269700D01*
X283000Y278000D02*
X292000D01*
X300300Y269700D02*
Y276350D01*
Y259350D02*
Y269700D01*
X325700Y205110D02*
Y259350D01*
X167000Y254000D02*
Y263000D01*
Y252000D02*
Y254000D01*
X148200Y246140D02*
X161140D01*
D63*
X340250Y71500D02*
X351250D01*
X342655Y65595D02*
X343000D01*
X336750Y71500D02*
X340250D01*
X351250D02*
X352250Y70500D01*
X336750Y71500D02*
X342655Y65595D01*
X340250Y71500D02*
X344500Y67250D01*
D65*
X421575Y218925D02*
X426500Y214000D01*
X335610Y235350D02*
X405150D01*
X330000Y229740D02*
X335610Y235350D01*
X405150D02*
X421575Y218925D01*
X330000Y229740D02*
Y242350D01*
D68*
X218600Y24000D02*
D03*
X133600D02*
D03*
X50300D02*
D03*
D69*
X231300Y49400D02*
D03*
X244000Y24000D02*
D03*
X256700Y49400D02*
D03*
X146300D02*
D03*
X159000Y24000D02*
D03*
X171700Y49400D02*
D03*
X63000D02*
D03*
X75700Y24000D02*
D03*
X88400Y49400D02*
D03*
D70*
X204600Y42000D02*
D03*
X119600D02*
D03*
X36300D02*
D03*
D71*
X390250Y160000D02*
D03*
X489000Y214000D02*
D03*
D72*
X415250Y160000D02*
D03*
X476000Y153000D02*
D03*
X464000Y214000D02*
D03*
D73*
X476000Y128000D02*
D03*
D74*
X57150Y263690D02*
D03*
Y189190D02*
D03*
D75*
X19150Y265190D02*
D03*
Y187690D02*
D03*
D76*
X357450Y21250D02*
D03*
X344750D02*
D03*
X322750Y45750D02*
D03*
X93650Y95200D02*
D03*
Y82500D02*
D03*
X80950Y95200D02*
D03*
Y82500D02*
D03*
X68250Y95200D02*
D03*
Y82500D02*
D03*
X55550Y95200D02*
D03*
Y82500D02*
D03*
X42850Y95200D02*
D03*
D77*
X332050Y21250D02*
D03*
X42850Y82500D02*
D03*
D78*
X322750Y58450D02*
D03*
D79*
X58250Y204750D02*
D03*
X45388Y212500D02*
D03*
X52978Y144750D02*
D03*
X108150Y21000D02*
D03*
X193946Y137605D02*
D03*
X143125Y232750D02*
D03*
X96820Y209500D02*
D03*
X467250Y87250D02*
D03*
X460250Y93250D02*
D03*
X540040Y156500D02*
D03*
X504750Y222750D02*
D03*
X521000Y199750D02*
D03*
X512000D02*
D03*
X397500Y201750D02*
D03*
X112000Y255000D02*
D03*
X259000Y107000D02*
D03*
X103000Y164750D02*
D03*
X96820Y191250D02*
D03*
X336750Y71500D02*
D03*
X283000Y66570D02*
D03*
X301500Y47000D02*
D03*
X352250Y70500D02*
D03*
X350500Y80750D02*
D03*
X254000Y118000D02*
D03*
X366500Y56750D02*
D03*
Y37120D02*
D03*
X344500Y67250D02*
D03*
X74500Y183573D02*
D03*
X126000Y176854D02*
D03*
X218000Y88750D02*
D03*
X258750Y33000D02*
D03*
X177000Y26500D02*
D03*
X42850Y125750D02*
D03*
X19000Y151750D02*
D03*
X19750Y56750D02*
D03*
X23500Y90500D02*
D03*
X27000Y239000D02*
D03*
X28000Y214000D02*
D03*
X449000Y278750D02*
D03*
X584750Y281250D02*
D03*
X545138Y15750D02*
D03*
X519500Y15250D02*
D03*
X491000Y17576D02*
D03*
X510000Y157500D02*
D03*
X205000Y152000D02*
D03*
X586000Y156000D02*
D03*
Y36000D02*
D03*
X496000Y276000D02*
D03*
X481000Y246000D02*
D03*
X451000D02*
D03*
X301000D02*
D03*
X256000Y276000D02*
D03*
X540500Y286500D02*
D03*
X549250Y289000D02*
D03*
X531500Y287896D02*
D03*
X510750Y243000D02*
D03*
X531250Y154500D02*
D03*
X549250D02*
D03*
X509750Y122250D02*
D03*
X286823Y188146D02*
D03*
X373768Y111521D02*
D03*
X373518Y120521D02*
D03*
X364250Y134140D02*
D03*
X373820Y130000D02*
D03*
X361250Y200750D02*
D03*
X343500Y199000D02*
D03*
X354500Y185000D02*
D03*
X561000Y286000D02*
D03*
X557000Y226500D02*
D03*
X550000Y240000D02*
D03*
X537250Y239250D02*
D03*
X525750Y239000D02*
D03*
X559500Y24750D02*
D03*
X570120Y35000D02*
D03*
X571000Y169250D02*
D03*
X558750Y156250D02*
D03*
X511000Y97250D02*
D03*
X555500Y96250D02*
D03*
X523250Y113500D02*
D03*
X537500Y112750D02*
D03*
X550000Y113750D02*
D03*
X323750Y127500D02*
D03*
X419250Y70500D02*
D03*
X215000Y74250D02*
D03*
X465500Y102250D02*
D03*
X419000Y118000D02*
D03*
X355450Y133750D02*
D03*
X285750Y155500D02*
D03*
Y136500D02*
D03*
X289000Y119910D02*
D03*
X346500Y134140D02*
D03*
X337750Y134000D02*
D03*
X387250Y48000D02*
D03*
X581060Y262250D02*
D03*
X582060Y249750D02*
D03*
X581310Y237000D02*
D03*
X569930Y256250D02*
D03*
X570060Y241250D02*
D03*
X593560Y241500D02*
D03*
X593810Y257250D02*
D03*
X581000Y134250D02*
D03*
X582000Y121750D02*
D03*
X581250Y109000D02*
D03*
X569870Y128250D02*
D03*
X570000Y113250D02*
D03*
X593500Y113500D02*
D03*
X593750Y129250D02*
D03*
X581250Y80500D02*
D03*
X582250Y68000D02*
D03*
X581500Y55250D02*
D03*
X570120Y74500D02*
D03*
X570250Y59500D02*
D03*
X593750Y59750D02*
D03*
X594000Y75500D02*
D03*
X584000Y189500D02*
D03*
X583000Y202000D02*
D03*
X583750Y214750D02*
D03*
X595130Y195500D02*
D03*
X595000Y210500D02*
D03*
X571500Y210250D02*
D03*
X571250Y194500D02*
D03*
X436440Y35000D02*
D03*
X448940Y36000D02*
D03*
X461690Y35250D02*
D03*
X442440Y23870D02*
D03*
X457440Y24000D02*
D03*
X457190Y47500D02*
D03*
X441440Y47750D02*
D03*
X403000Y47750D02*
D03*
X403250Y24250D02*
D03*
X388250Y24120D02*
D03*
X407500Y35500D02*
D03*
X394750Y36250D02*
D03*
X382250Y35250D02*
D03*
X459200Y111000D02*
D03*
X401750Y85750D02*
D03*
X418000Y106000D02*
D03*
X417250Y92700D02*
D03*
X521000Y155500D02*
D03*
X419500Y218750D02*
D03*
X428750Y219000D02*
D03*
X415000Y212350D02*
D03*
X424000D02*
D03*
X433000D02*
D03*
X384000Y255640D02*
D03*
X372000Y259000D02*
D03*
X385000Y270000D02*
D03*
X367000Y281000D02*
D03*
X379000D02*
D03*
X373000Y270000D02*
D03*
X286000Y281000D02*
D03*
X284000Y273000D02*
D03*
X278000Y279000D02*
D03*
X460750Y120000D02*
D03*
X522000Y285750D02*
D03*
X286000Y176000D02*
D03*
X288000Y108250D02*
D03*
X221000Y128000D02*
D03*
X205380Y137167D02*
D03*
X205000Y179000D02*
D03*
X184000Y144000D02*
D03*
X174000Y142000D02*
D03*
X162000Y138000D02*
D03*
X258000Y174000D02*
D03*
X168000Y171000D02*
D03*
X160420Y178000D02*
D03*
X167000Y186000D02*
D03*
X146000Y127000D02*
D03*
X149000Y118000D02*
D03*
X258000Y95000D02*
D03*
X164000Y154000D02*
D03*
X157380Y161000D02*
D03*
X222000Y210000D02*
D03*
X233000Y105000D02*
D03*
X530250Y69120D02*
D03*
X521250D02*
D03*
X512250D02*
D03*
X500250Y52500D02*
D03*
X500590Y44500D02*
D03*
X500250Y36500D02*
D03*
Y60500D02*
D03*
X499000Y189750D02*
D03*
Y165750D02*
D03*
X499340Y173750D02*
D03*
X499000Y181750D02*
D03*
X106000Y80000D02*
D03*
X107000Y99000D02*
D03*
X530000Y199750D02*
D03*
X257000Y246350D02*
D03*
X287000Y246350D02*
D03*
X273000Y246350D02*
D03*
X343000Y271350D02*
D03*
X361000Y270350D02*
D03*
X171700Y196000D02*
D03*
X86500Y281000D02*
D03*
X167000Y263000D02*
D03*
X183000Y254000D02*
D03*
X26750Y107750D02*
D03*
X101250Y125750D02*
D03*
X126400Y232000D02*
D03*
X126000Y195000D02*
D03*
X157380Y196000D02*
D03*
X177000Y222000D02*
D03*
X167000Y254000D02*
D03*
D80*
X381000Y227350D02*
D03*
Y212350D02*
D03*
X399000Y226500D02*
D03*
Y211500D02*
D03*
X343000Y227350D02*
D03*
Y212350D02*
D03*
X362000Y227350D02*
D03*
Y212350D02*
D03*
Y244350D02*
D03*
Y259350D02*
D03*
D81*
X325700Y205110D02*
D03*
X313000D02*
D03*
X300300D02*
D03*
X287600D02*
D03*
Y259350D02*
D03*
X300300D02*
D03*
X313000D02*
D03*
X325700D02*
D03*
D82*
X244880Y68950D02*
D03*
Y81650D02*
D03*
Y94350D02*
D03*
Y107050D02*
D03*
X299120D02*
D03*
Y94350D02*
D03*
Y81650D02*
D03*
Y68950D02*
D03*
D83*
X299110Y131780D02*
D03*
Y138120D02*
D03*
Y144480D02*
D03*
Y150820D02*
D03*
Y157180D02*
D03*
Y163520D02*
D03*
Y169880D02*
D03*
Y176220D02*
D03*
X244890D02*
D03*
Y169880D02*
D03*
Y163520D02*
D03*
Y157180D02*
D03*
Y150820D02*
D03*
Y144480D02*
D03*
Y138120D02*
D03*
Y131780D02*
D03*
D84*
X416820Y107000D02*
D03*
D85*
X387440Y129750D02*
D03*
Y123250D02*
D03*
Y116750D02*
D03*
Y110250D02*
D03*
Y103750D02*
D03*
Y97250D02*
D03*
Y90750D02*
D03*
Y84250D02*
D03*
X446200D02*
D03*
Y90750D02*
D03*
Y97250D02*
D03*
Y103750D02*
D03*
Y110250D02*
D03*
Y116750D02*
D03*
Y123250D02*
D03*
Y129750D02*
D03*
D86*
X535250Y112120D02*
D03*
X535000Y242750D02*
D03*
D87*
X512500Y82740D02*
D03*
X519000D02*
D03*
X525500D02*
D03*
X532000D02*
D03*
X538500D02*
D03*
X545000D02*
D03*
X551500D02*
D03*
X558000D02*
D03*
Y141500D02*
D03*
X551500D02*
D03*
X545000D02*
D03*
X538500D02*
D03*
X532000D02*
D03*
X525500D02*
D03*
X519000D02*
D03*
X512500D02*
D03*
X512250Y213370D02*
D03*
X518750D02*
D03*
X525250D02*
D03*
X531750D02*
D03*
X538250D02*
D03*
X544750D02*
D03*
X551250D02*
D03*
X557750D02*
D03*
Y272130D02*
D03*
X551250D02*
D03*
X544750D02*
D03*
X538250D02*
D03*
X531750D02*
D03*
X525250D02*
D03*
X518750D02*
D03*
X512250D02*
D03*
D88*
X122000Y246140D02*
D03*
Y255640D02*
D03*
Y265140D02*
D03*
X148200D02*
D03*
Y246140D02*
D03*
D89*
X79500Y240550D02*
D03*
Y210950D02*
D03*
M02*
