G04*
G04 #@! TF.GenerationSoftware,Altium Limited,Altium Designer,18.1.9 (240)*
G04*
G04 Layer_Color=8421504*
%FSLAX25Y25*%
%MOIN*%
G70*
G01*
G75*
%ADD17R,0.03937X0.04331*%
%ADD18R,0.04134X0.02362*%
%ADD19R,0.01693X0.01378*%
%ADD20R,0.04331X0.04921*%
%ADD21R,0.02598X0.01378*%
%ADD22R,0.08071X0.09843*%
%ADD23R,0.04331X0.05512*%
%ADD24R,0.04331X0.03937*%
%ADD25R,0.05807X0.02362*%
%ADD26R,0.02362X0.05807*%
%ADD27R,0.15748X0.15748*%
%ADD28R,0.05118X0.01772*%
%ADD29R,0.02362X0.04803*%
%ADD30R,0.04921X0.04331*%
%ADD31R,0.07874X0.03937*%
%ADD32R,0.07874X0.03937*%
D17*
X155315Y92224D02*
D03*
X148622D02*
D03*
X216142Y83366D02*
D03*
X209449D02*
D03*
X216339Y89153D02*
D03*
X209646D02*
D03*
X169291Y39272D02*
D03*
X175984D02*
D03*
X169390Y44783D02*
D03*
X176083D02*
D03*
X175197Y31398D02*
D03*
X181890D02*
D03*
X205413Y32087D02*
D03*
X212106D02*
D03*
X205413Y37598D02*
D03*
X212106D02*
D03*
X65354Y96063D02*
D03*
X72047D02*
D03*
X65354Y90945D02*
D03*
X72047D02*
D03*
X56496Y81228D02*
D03*
X49803D02*
D03*
X56496Y87134D02*
D03*
X49803D02*
D03*
X56693Y105905D02*
D03*
X50000D02*
D03*
X67520Y38583D02*
D03*
X60827D02*
D03*
X67520Y32677D02*
D03*
X60827D02*
D03*
X81890Y41732D02*
D03*
X88583D02*
D03*
D18*
X157776Y83366D02*
D03*
X149114Y79626D02*
D03*
Y87106D02*
D03*
D19*
X160630Y94095D02*
D03*
Y91535D02*
D03*
Y88976D02*
D03*
X167992D02*
D03*
Y91535D02*
D03*
Y94095D02*
D03*
D20*
X164311Y92658D02*
D03*
X140354Y36909D02*
D03*
Y46161D02*
D03*
D21*
X164311Y88484D02*
D03*
D22*
X118110Y79665D02*
D03*
Y105650D02*
D03*
D23*
X129921Y61417D02*
D03*
X135827D02*
D03*
X123228Y53937D02*
D03*
X117323D02*
D03*
X123228Y61417D02*
D03*
X117323D02*
D03*
X129921Y68504D02*
D03*
X135827D02*
D03*
X123228D02*
D03*
X117323D02*
D03*
D24*
X96850Y60630D02*
D03*
Y67323D02*
D03*
X155118Y39370D02*
D03*
Y46063D02*
D03*
X133957Y45571D02*
D03*
Y38878D02*
D03*
X160630Y45866D02*
D03*
Y39173D02*
D03*
X210728Y49803D02*
D03*
Y56496D02*
D03*
X205217Y49803D02*
D03*
Y56496D02*
D03*
X216240Y56496D02*
D03*
Y49803D02*
D03*
X211728Y100295D02*
D03*
Y106988D02*
D03*
X206299Y100295D02*
D03*
Y106988D02*
D03*
X216929D02*
D03*
Y100295D02*
D03*
X95669Y47638D02*
D03*
Y40945D02*
D03*
D25*
X89669Y54331D02*
D03*
Y57480D02*
D03*
Y60630D02*
D03*
Y63779D02*
D03*
Y66929D02*
D03*
Y70079D02*
D03*
Y73228D02*
D03*
Y76378D02*
D03*
X56299D02*
D03*
Y73228D02*
D03*
Y70079D02*
D03*
Y66929D02*
D03*
Y63779D02*
D03*
Y60630D02*
D03*
Y57480D02*
D03*
Y54331D02*
D03*
D26*
X84008Y82039D02*
D03*
X80858D02*
D03*
X77709D02*
D03*
X74559D02*
D03*
X71409D02*
D03*
X68260D02*
D03*
X65110D02*
D03*
X61961D02*
D03*
Y48669D02*
D03*
X65110D02*
D03*
X68260D02*
D03*
X71409D02*
D03*
X74559D02*
D03*
X77709D02*
D03*
X80858D02*
D03*
X84008D02*
D03*
D27*
X176748Y14173D02*
D03*
X155807Y13976D02*
D03*
X229134Y47933D02*
D03*
X229232Y26772D02*
D03*
X229157Y98327D02*
D03*
X229528Y79528D02*
D03*
X164961Y105118D02*
D03*
X146457Y105118D02*
D03*
D28*
X22894Y94071D02*
D03*
Y91512D02*
D03*
Y88953D02*
D03*
Y86394D02*
D03*
Y83835D02*
D03*
D29*
X34508Y75411D02*
D03*
X38248D02*
D03*
X41988D02*
D03*
Y85726D02*
D03*
X38248D02*
D03*
X34508D02*
D03*
D30*
X43307Y105905D02*
D03*
X34055D02*
D03*
X55118Y38701D02*
D03*
X45866D02*
D03*
X55118Y32677D02*
D03*
X45866D02*
D03*
D31*
X10630Y65256D02*
D03*
X34252D02*
D03*
D32*
X10630Y49508D02*
D03*
X34252D02*
D03*
M02*
