G04*
G04 #@! TF.GenerationSoftware,Altium Limited,Altium Designer,18.1.9 (240)*
G04*
G04 Layer_Physical_Order=4*
G04 Layer_Color=16711680*
%FSLAX25Y25*%
%MOIN*%
G70*
G01*
G75*
%ADD12C,0.01575*%
%ADD16C,0.01000*%
%ADD17R,0.03937X0.04331*%
%ADD23R,0.04331X0.05512*%
%ADD24R,0.04331X0.03937*%
%ADD62C,0.03937*%
%ADD63C,0.02362*%
%ADD65C,0.07874*%
%ADD68R,0.05347X0.05347*%
%ADD69C,0.05347*%
%ADD70C,0.06102*%
%ADD71R,0.04528X0.04528*%
%ADD72C,0.04528*%
%ADD73R,0.04528X0.04528*%
%ADD74O,0.07874X0.05709*%
%ADD75O,0.07087X0.04528*%
%ADD76C,0.03937*%
%ADD77R,0.03937X0.03937*%
%ADD78R,0.03937X0.03937*%
%ADD79C,0.02756*%
%ADD80R,0.05512X0.04331*%
%ADD81R,0.02559X0.06004*%
%ADD82R,0.06004X0.02559*%
%ADD83R,0.06016X0.01713*%
%ADD84R,0.09685X0.13976*%
%ADD85R,0.05807X0.01772*%
%ADD86R,0.13976X0.09685*%
%ADD87R,0.01772X0.05807*%
%ADD88R,0.04803X0.02362*%
%ADD89R,0.06890X0.04488*%
G36*
X204107Y114165D02*
X203951Y114061D01*
X203472Y113345D01*
X203304Y112500D01*
X203472Y111655D01*
X203690Y111329D01*
X203423Y110829D01*
X200000D01*
Y103825D01*
X185784Y89609D01*
X185500Y89183D01*
X185400Y88681D01*
Y86819D01*
X184900Y86660D01*
X184323Y87103D01*
X183661Y87377D01*
Y84252D01*
X182677D01*
Y83268D01*
X179552D01*
X179826Y82606D01*
X180349Y81924D01*
X181031Y81401D01*
X181825Y81072D01*
X182677Y80960D01*
X183075Y81012D01*
X183308Y80539D01*
X176964Y74195D01*
X147484D01*
X146981Y74095D01*
X146555Y73810D01*
X140940Y68195D01*
X121555D01*
Y68787D01*
X113965D01*
Y67734D01*
Y65238D01*
Y62734D01*
Y60238D01*
Y57734D01*
Y55238D01*
Y52734D01*
Y50238D01*
X114370D01*
Y48031D01*
X117126D01*
Y46850D01*
X114370D01*
Y44713D01*
X114370Y44488D01*
X113984Y44213D01*
X113974D01*
Y42736D01*
X121553D01*
Y43988D01*
X121553Y44213D01*
X121939Y44488D01*
X126575D01*
Y47655D01*
X127075Y48066D01*
X127461Y47989D01*
X127858Y48068D01*
X128245Y47751D01*
X128245Y42126D01*
X128245Y42126D01*
X128322Y41735D01*
X128367Y41511D01*
X128715Y40991D01*
X128715Y40991D01*
X129096Y40610D01*
X129096Y40610D01*
X129616Y40262D01*
X130231Y40140D01*
X130678Y39719D01*
Y39567D01*
X130800Y38952D01*
X130905Y38795D01*
Y36811D01*
X132791D01*
X133244Y36509D01*
X133858Y36386D01*
X135705D01*
X135925Y36130D01*
X135730Y35630D01*
X134449D01*
Y32874D01*
X133858D01*
Y32283D01*
X130905D01*
Y30118D01*
X130905Y30118D01*
X130956Y29618D01*
X130539Y28995D01*
X130512Y28858D01*
X130033Y28713D01*
X121553Y37193D01*
Y39213D01*
X113974D01*
Y35079D01*
X119955D01*
X120359Y34675D01*
X120168Y34213D01*
X113974D01*
Y30079D01*
X121553D01*
Y30079D01*
X122010Y30268D01*
X125754Y26523D01*
Y25768D01*
X124311D01*
Y20256D01*
X124685D01*
X124932Y19756D01*
X124660Y19402D01*
X124382Y18731D01*
X124365Y18602D01*
X127067D01*
Y18012D01*
X127657D01*
Y15310D01*
X127786Y15327D01*
X128457Y15605D01*
X128916Y15957D01*
X129416Y15786D01*
Y11122D01*
X127972D01*
Y5610D01*
X133484D01*
Y5984D01*
X133984Y6231D01*
X134338Y5959D01*
X135009Y5681D01*
X135728Y5587D01*
X136448Y5681D01*
X137118Y5959D01*
X137694Y6401D01*
X137919Y6694D01*
X138538D01*
X138763Y6401D01*
X139339Y5959D01*
X140009Y5681D01*
X140138Y5664D01*
Y8366D01*
Y11068D01*
X140009Y11051D01*
X139339Y10773D01*
X138910Y10444D01*
X138410Y10644D01*
Y11811D01*
X140354D01*
Y15354D01*
X140945D01*
Y15945D01*
X143898D01*
Y18898D01*
X143898D01*
Y18898D01*
X143898D01*
Y21850D01*
X140945D01*
Y23031D01*
X144304D01*
X144360Y23055D01*
X144503Y22911D01*
X144634Y22824D01*
X144772Y22686D01*
X144860Y22554D01*
X145442Y21973D01*
Y10236D01*
X145442Y10236D01*
X145564Y9622D01*
X145912Y9101D01*
X150046Y4967D01*
X150567Y4619D01*
X151181Y4497D01*
X151181Y4497D01*
X160236D01*
X160851Y4619D01*
X161372Y4967D01*
X161372Y4967D01*
X164620Y8215D01*
X164968Y8736D01*
X165090Y9350D01*
X165090Y9350D01*
X165090Y18110D01*
X165090Y18110D01*
X164968Y18725D01*
X164620Y19246D01*
X152831Y31034D01*
X153022Y31496D01*
X156226D01*
Y32579D01*
X152535D01*
Y33638D01*
X152639Y33707D01*
X152649Y33723D01*
X152665Y33734D01*
X152690Y33760D01*
X156226D01*
Y34055D01*
Y36614D01*
Y39173D01*
Y41732D01*
Y44291D01*
Y46850D01*
Y47933D01*
X152535D01*
Y49114D01*
X156226D01*
Y49409D01*
Y52756D01*
X148845D01*
X148424Y52949D01*
X148018Y53221D01*
X147204Y53383D01*
Y54378D01*
X147297Y54491D01*
X164027D01*
X168154Y50363D01*
X167963Y49902D01*
X164693D01*
Y42717D01*
X169732D01*
Y48132D01*
X170194Y48324D01*
X170922Y47596D01*
X171348Y47311D01*
X171850Y47211D01*
X171978D01*
Y44291D01*
Y41732D01*
Y39173D01*
Y36319D01*
X175669D01*
Y35612D01*
X172807Y35562D01*
X172514Y35499D01*
X172220Y35440D01*
X172208Y35432D01*
X172195Y35429D01*
X171978Y35280D01*
Y35279D01*
X171948Y35258D01*
X171699Y35092D01*
X168058Y31450D01*
X167710Y30929D01*
X167587Y30315D01*
X167587Y30315D01*
Y28701D01*
X167134Y28608D01*
X167087Y28618D01*
X166620Y29317D01*
X165904Y29796D01*
X165059Y29964D01*
X164214Y29796D01*
X163498Y29317D01*
X163019Y28601D01*
X162851Y27756D01*
X163019Y26911D01*
X163498Y26195D01*
X164214Y25716D01*
X165059Y25548D01*
X165904Y25716D01*
X166620Y26195D01*
X167087Y26894D01*
X167134Y26904D01*
X167587Y26811D01*
Y9055D01*
X167587Y9055D01*
X167710Y8441D01*
X168058Y7920D01*
X168058Y7920D01*
X170715Y5262D01*
X171236Y4914D01*
X171850Y4792D01*
X171851Y4792D01*
X182087D01*
X182087Y4792D01*
X182701Y4914D01*
X183222Y5262D01*
X183222Y5262D01*
X185781Y7821D01*
X186129Y8342D01*
X186251Y8957D01*
X186251Y8957D01*
Y25984D01*
X186251Y25984D01*
X186129Y26599D01*
X185781Y27120D01*
X180149Y32752D01*
Y33698D01*
X180148Y33705D01*
X180149Y33712D01*
X180086Y34013D01*
X180032Y34288D01*
X180189Y34499D01*
X180196Y34507D01*
X180395Y34665D01*
X181201Y34505D01*
X182046Y34673D01*
X182762Y35151D01*
X183240Y35868D01*
X183409Y36713D01*
X183240Y37558D01*
X183221Y37586D01*
X183485Y38091D01*
X184113Y38216D01*
X184829Y38695D01*
X185307Y39411D01*
X185476Y40256D01*
X185307Y41101D01*
X184829Y41817D01*
X184113Y42296D01*
X183268Y42464D01*
X183098Y42430D01*
X182820Y42846D01*
X182827Y42856D01*
X182995Y43701D01*
X182827Y44546D01*
X182349Y45262D01*
Y45275D01*
X182959Y45683D01*
X183437Y46399D01*
X183605Y47244D01*
X183437Y48089D01*
X182959Y48805D01*
X182243Y49284D01*
X181398Y49452D01*
X180553Y49284D01*
X179860Y48821D01*
X179625Y48869D01*
X179360Y48950D01*
Y52756D01*
X172230D01*
X166467Y58519D01*
X166042Y58803D01*
X165539Y58903D01*
X143598D01*
X143406Y59365D01*
X150095Y66053D01*
X150591Y65842D01*
X150591Y65707D01*
Y59941D01*
X156693D01*
Y65707D01*
X156693Y66043D01*
X157125Y66207D01*
X161491D01*
X161661Y65707D01*
X161156Y65320D01*
X160633Y64638D01*
X160359Y63976D01*
X166609D01*
X166335Y64638D01*
X165812Y65320D01*
X165307Y65707D01*
X165477Y66207D01*
X166090D01*
X178698Y53599D01*
X179124Y53315D01*
X179626Y53215D01*
X184350D01*
Y47343D01*
X190453D01*
Y53215D01*
X196503D01*
X199307Y50412D01*
X199243Y49768D01*
X199128Y49691D01*
X198649Y48975D01*
X198481Y48130D01*
X198649Y47285D01*
X199128Y46569D01*
X199844Y46090D01*
X200689Y45922D01*
X201534Y46090D01*
X202250Y46569D01*
X202453Y46872D01*
X202953Y46720D01*
Y44732D01*
X210138D01*
Y49772D01*
X204500D01*
X204293Y50272D01*
X205259Y51237D01*
X205543Y51663D01*
X205614Y52018D01*
X216535D01*
Y55709D01*
X217717D01*
Y52018D01*
X218384D01*
X218394Y51999D01*
X218417Y51981D01*
X218432Y51956D01*
X218707Y51662D01*
X218730Y51645D01*
X218746Y51621D01*
X219654Y50713D01*
Y43855D01*
X219776Y43241D01*
X220125Y42720D01*
X220125Y42720D01*
X224314Y38530D01*
X224835Y38182D01*
X225450Y38060D01*
X225450Y38060D01*
X234744D01*
X234744Y38060D01*
X235359Y38182D01*
X235879Y38530D01*
X235879Y38530D01*
X238242Y40892D01*
X238590Y41413D01*
X238712Y42028D01*
X238712Y42028D01*
Y52461D01*
X238712Y52461D01*
X238590Y53075D01*
X238242Y53596D01*
X234797Y57041D01*
X234276Y57389D01*
X233661Y57511D01*
X233661Y57511D01*
X222614D01*
X221515Y58610D01*
X221358Y58715D01*
Y59400D01*
X218421D01*
X218185Y59841D01*
X218280Y59982D01*
X218448Y60827D01*
X218280Y61672D01*
X217801Y62388D01*
X217085Y62866D01*
X216240Y63034D01*
X215395Y62866D01*
X215079Y62655D01*
X214654Y62459D01*
X214438Y62782D01*
X214175Y63175D01*
X214080Y63239D01*
X214185Y63770D01*
X214197Y63772D01*
X214355Y63878D01*
X216339D01*
Y65764D01*
X216641Y66216D01*
X216763Y66831D01*
Y69270D01*
X216838Y69382D01*
X216960Y69996D01*
Y73620D01*
X217422Y73811D01*
X220617Y70617D01*
X221115Y70283D01*
X221122Y70246D01*
X220960Y69783D01*
X220866D01*
Y67421D01*
X223031D01*
Y69646D01*
X223031Y69783D01*
X223363Y70146D01*
X234374D01*
X234374Y70146D01*
X234988Y70268D01*
X235509Y70617D01*
X238439Y73546D01*
X238772Y74044D01*
X238809Y74051D01*
X239272Y73888D01*
Y32486D01*
X238809Y32323D01*
X238772Y32330D01*
X238439Y32828D01*
X238439Y32828D01*
X235732Y35535D01*
X235211Y35883D01*
X234596Y36005D01*
X234596Y36005D01*
X224902D01*
X224287Y35883D01*
X223766Y35535D01*
X223469Y35090D01*
X221820Y33441D01*
X221358Y33633D01*
Y36266D01*
X220276D01*
Y32575D01*
X219618D01*
Y32586D01*
X219567Y32839D01*
X219535Y33094D01*
X219507Y33144D01*
X219495Y33200D01*
X219352Y33415D01*
X219224Y33639D01*
X219179Y33674D01*
X219147Y33721D01*
X219094Y33757D01*
Y36266D01*
X204921D01*
Y32575D01*
X203740D01*
Y36266D01*
X200098D01*
Y28884D01*
X199905Y28464D01*
X199634Y28058D01*
X199472Y27244D01*
X194980D01*
X194366Y27121D01*
X193845Y26773D01*
X193497Y26252D01*
X193375Y25638D01*
Y11858D01*
X193375Y11858D01*
X193497Y11244D01*
X193845Y10723D01*
X195813Y8754D01*
X195813Y8754D01*
X196334Y8406D01*
X196949Y8284D01*
X196949Y8284D01*
X210728D01*
X210728Y8284D01*
X211343Y8406D01*
X211864Y8754D01*
X211864Y8754D01*
X212323Y9214D01*
X212323Y9214D01*
X212671Y9735D01*
X212793Y10349D01*
X212781Y10409D01*
X213099Y10796D01*
X213681D01*
X214296Y10918D01*
X214454Y11024D01*
X216437D01*
Y12909D01*
X216739Y13362D01*
X216862Y13976D01*
Y16416D01*
X216936Y16527D01*
X217058Y17142D01*
Y20667D01*
X217520Y20858D01*
X220813Y17565D01*
X221017Y17429D01*
X220965Y17255D01*
Y14567D01*
X223130D01*
Y16595D01*
X223130Y16929D01*
X223561Y17095D01*
X234598D01*
X235213Y17217D01*
X235734Y17565D01*
X235734Y17566D01*
X238439Y20270D01*
X238772Y20769D01*
X238809Y20776D01*
X239272Y20613D01*
Y11024D01*
X231299Y3051D01*
X117117D01*
X116947Y3551D01*
X117824Y4224D01*
X118644Y5293D01*
X119160Y6538D01*
X119335Y7874D01*
X119160Y9210D01*
X118644Y10455D01*
X117824Y11524D01*
X116754Y12345D01*
X115509Y12860D01*
X114173Y13036D01*
X112837Y12860D01*
X111592Y12345D01*
X110523Y11524D01*
X109703Y10455D01*
X109653Y10337D01*
X109153Y10436D01*
Y18898D01*
X111024D01*
Y21850D01*
Y24803D01*
X109153D01*
Y70079D01*
X89961Y89272D01*
Y106299D01*
X96161Y112500D01*
X98327Y114665D01*
X181626D01*
X181787Y114192D01*
X181389Y113886D01*
X180569Y112817D01*
X180053Y111572D01*
X179877Y110236D01*
X180053Y108900D01*
X180569Y107655D01*
X181389Y106586D01*
X182458Y105766D01*
X183703Y105250D01*
X185039Y105074D01*
X186375Y105250D01*
X187620Y105766D01*
X188690Y106586D01*
X189510Y107655D01*
X190026Y108900D01*
X190202Y110236D01*
X190026Y111572D01*
X189510Y112817D01*
X188690Y113886D01*
X188292Y114192D01*
X188452Y114665D01*
X203955D01*
X204107Y114165D01*
D02*
G37*
G36*
X62911Y112303D02*
X75098Y100115D01*
X89173Y85925D01*
X105512Y69587D01*
Y8957D01*
X100886Y4331D01*
X11811D01*
X2854Y13287D01*
X2854Y72836D01*
X3354Y72935D01*
X3595Y72355D01*
X4084Y71718D01*
X4721Y71228D01*
X5463Y70921D01*
X6260Y70816D01*
X8819D01*
X9615Y70921D01*
X10358Y71228D01*
X10995Y71718D01*
X11484Y72355D01*
X11791Y73097D01*
X11896Y73894D01*
X11791Y74690D01*
X11484Y75432D01*
X10995Y76070D01*
X10358Y76559D01*
X9615Y76866D01*
X8819Y76971D01*
X6260D01*
X5463Y76866D01*
X4721Y76559D01*
X4084Y76070D01*
X3595Y75432D01*
X3354Y74852D01*
X2854Y74952D01*
Y103348D01*
X3354Y103447D01*
X3595Y102867D01*
X4084Y102229D01*
X4721Y101740D01*
X5463Y101433D01*
X6260Y101328D01*
X8819D01*
X9615Y101433D01*
X10358Y101740D01*
X10995Y102229D01*
X11484Y102867D01*
X11791Y103609D01*
X11896Y104405D01*
X11791Y105202D01*
X11484Y105944D01*
X10995Y106582D01*
X10358Y107071D01*
X9615Y107378D01*
X8819Y107483D01*
X7250D01*
X7059Y107945D01*
X11417Y112303D01*
X62911Y112303D01*
D02*
G37*
G36*
X222667Y105807D02*
X233071D01*
X236713Y102165D01*
Y93209D01*
X234449Y90945D01*
X224606D01*
X221063Y94488D01*
Y100295D01*
X218701Y102657D01*
Y103447D01*
Y105905D01*
X218799Y106004D01*
X218898Y108661D01*
X219813D01*
X222667Y105807D01*
D02*
G37*
G36*
X217095Y102657D02*
X217095Y102657D01*
X217217Y102043D01*
X217446Y101701D01*
X217215Y101201D01*
X211221D01*
Y96161D01*
X218406D01*
Y100029D01*
X218867Y100220D01*
X219457Y99630D01*
Y94488D01*
X219457Y94488D01*
X219580Y93874D01*
X219928Y93353D01*
X219928Y93353D01*
X223471Y89810D01*
X223992Y89461D01*
X224606Y89339D01*
X224606Y89339D01*
X225684D01*
X225733Y88839D01*
X225468Y88787D01*
X224947Y88438D01*
X224947Y88438D01*
X221722Y85213D01*
X221260Y85404D01*
Y87695D01*
X220177D01*
Y84004D01*
X219216D01*
X219049Y84254D01*
X218996Y84306D01*
Y87695D01*
X204823D01*
Y84004D01*
X203642D01*
Y87695D01*
X200000D01*
Y80313D01*
X199807Y79893D01*
X199535Y79487D01*
X199373Y78673D01*
X194882D01*
X194267Y78550D01*
X193746Y78202D01*
X193398Y77681D01*
X193276Y77067D01*
Y63287D01*
X193276Y63287D01*
X193398Y62673D01*
X193746Y62152D01*
X195715Y60184D01*
X195715Y60184D01*
X196236Y59835D01*
X196850Y59713D01*
X196851Y59713D01*
X198323D01*
X198401Y59729D01*
X198480Y59721D01*
X198706Y59789D01*
X198937Y59835D01*
X199003Y59880D01*
X199080Y59903D01*
X199262Y60052D01*
X199458Y60184D01*
X199502Y60250D01*
X199564Y60300D01*
X199881Y60687D01*
X199918Y60757D01*
X199975Y60813D01*
X200065Y61031D01*
X200176Y61239D01*
X200184Y61319D01*
X200215Y61392D01*
Y61628D01*
X200238Y61863D01*
X200215Y61939D01*
Y61997D01*
X200260Y62226D01*
X200384Y62411D01*
X200569Y62535D01*
X200787Y62578D01*
X201006Y62535D01*
X201191Y62411D01*
X201377Y62133D01*
X201532Y61758D01*
X201975Y61315D01*
X202554Y61075D01*
X202955Y60995D01*
X203078Y60376D01*
X203397Y59900D01*
X203129Y59400D01*
X200098D01*
Y57628D01*
X190144D01*
X189898Y58128D01*
X190252Y58590D01*
X190527Y59252D01*
X187402D01*
X184277D01*
X184551Y58590D01*
X184906Y58128D01*
X184659Y57628D01*
X180910D01*
X169218Y69320D01*
X169409Y69782D01*
X178870D01*
X179372Y69882D01*
X179798Y70166D01*
X189511Y79879D01*
X189795Y80305D01*
X189895Y80807D01*
Y81201D01*
X195571D01*
Y87303D01*
X190699D01*
X190507Y87765D01*
X198402Y95660D01*
X198915Y95466D01*
X199043Y94824D01*
X199522Y94108D01*
X200238Y93630D01*
X201083Y93462D01*
X201928Y93630D01*
X202354Y93915D01*
X202854Y93647D01*
Y89941D01*
X210039D01*
Y95571D01*
Y101201D01*
X204596D01*
X204405Y101663D01*
X205160Y102418D01*
X205445Y102844D01*
X205545Y103347D01*
Y103447D01*
X217095D01*
Y102657D01*
D02*
G37*
G36*
X239272Y108563D02*
Y84651D01*
X238809Y84488D01*
X238772Y84495D01*
X238439Y84994D01*
X238439Y84994D01*
X234994Y88438D01*
X234473Y88787D01*
X234429Y89305D01*
X234449Y89339D01*
X235063Y89461D01*
X235584Y89810D01*
X235584Y89810D01*
X237848Y92073D01*
X238196Y92594D01*
X238318Y93209D01*
X238318Y93209D01*
Y102165D01*
X238196Y102780D01*
X237848Y103301D01*
X237848Y103301D01*
X234206Y106942D01*
X233685Y107290D01*
X233071Y107413D01*
X233071Y107413D01*
X223332D01*
X221260Y109485D01*
Y110829D01*
X217275D01*
X217084Y111291D01*
X217987Y112193D01*
X218271Y112619D01*
X218371Y113121D01*
X218344Y113257D01*
X218448Y113779D01*
X218371Y114165D01*
X218781Y114665D01*
X233169D01*
X239272Y108563D01*
D02*
G37*
G36*
X237303Y83858D02*
Y74681D01*
X234374Y71752D01*
X221752D01*
X216960Y76544D01*
Y80100D01*
X216838Y80715D01*
X216490Y81236D01*
X216142Y81468D01*
Y83760D01*
X217028Y84004D01*
X217913Y83118D01*
Y80313D01*
X218014D01*
X218406Y79921D01*
X220866Y79921D01*
X221258Y80313D01*
X221260D01*
Y80315D01*
X222146Y81201D01*
Y83366D01*
X226083Y87303D01*
X233858D01*
X237303Y83858D01*
D02*
G37*
G36*
X215354Y69996D02*
X215158D01*
Y66831D01*
X213583D01*
Y65256D01*
X210614D01*
Y63665D01*
X210887D01*
X211035Y63229D01*
X211046Y63165D01*
X210585Y62475D01*
X209998Y62866D01*
X209154Y63034D01*
X208309Y62866D01*
X207592Y62388D01*
X207568Y62351D01*
X206967D01*
X206679Y62782D01*
X205963Y63260D01*
X205118Y63428D01*
X204273Y63260D01*
X203557Y62782D01*
X203398Y62544D01*
X202868Y62650D01*
X202827Y62853D01*
X202348Y63569D01*
X201632Y64048D01*
X200787Y64216D01*
X199943Y64048D01*
X199226Y63569D01*
X198748Y62853D01*
X198580Y62008D01*
X198640Y61705D01*
X198323Y61319D01*
X196850D01*
X194882Y63287D01*
Y77067D01*
X199945D01*
Y75492D01*
X202913D01*
Y73917D01*
X204488D01*
Y70752D01*
X205882D01*
Y74469D01*
X206344Y74660D01*
X206850Y74154D01*
Y70964D01*
X212362D01*
Y73892D01*
X212838Y74367D01*
X213122Y74793D01*
X213222Y75295D01*
Y80100D01*
X215354D01*
Y69996D01*
D02*
G37*
G36*
X221949Y55905D02*
X233661D01*
X237106Y52461D01*
Y42028D01*
X234744Y39665D01*
X225450D01*
X221260Y43855D01*
Y51378D01*
X219882Y52756D01*
X219608Y53051D01*
X219911Y57300D01*
X220380Y57475D01*
X221949Y55905D01*
D02*
G37*
G36*
X145598Y52811D02*
X144095D01*
Y49843D01*
X142520D01*
Y48268D01*
X139354D01*
Y46874D01*
X143000D01*
X143192Y46412D01*
X142685Y45906D01*
X139567D01*
Y40394D01*
X143419D01*
X143895Y39918D01*
X144320Y39634D01*
X144823Y39534D01*
X148632D01*
Y37402D01*
X137024D01*
Y37992D01*
X133858D01*
Y39567D01*
X132283D01*
Y42535D01*
X130693D01*
Y41937D01*
X130231Y41745D01*
X129850Y42126D01*
X129850Y52291D01*
X131937Y54378D01*
X145598D01*
Y52811D01*
D02*
G37*
G36*
X237303Y31693D02*
Y21406D01*
X234598Y18701D01*
X221949D01*
X217058Y23591D01*
Y28671D01*
X216936Y29286D01*
X216588Y29807D01*
X216240Y30039D01*
Y32344D01*
X216606Y32685D01*
X218012Y32586D01*
Y28884D01*
X221358D01*
Y30709D01*
X224902Y34252D01*
Y34400D01*
X234596D01*
X237303Y31693D01*
D02*
G37*
G36*
X215453Y17142D02*
X215256D01*
Y13976D01*
X213681D01*
Y12402D01*
X210713D01*
Y10811D01*
X210996D01*
X211188Y10349D01*
X210728Y9890D01*
X196949D01*
X194980Y11858D01*
Y25638D01*
X199572D01*
X200043Y25569D01*
Y23979D01*
X203012D01*
Y22404D01*
X204587D01*
Y19239D01*
X205980D01*
Y23040D01*
X206442Y23231D01*
X206949Y22724D01*
Y19451D01*
X212461D01*
Y23304D01*
X212936Y23779D01*
X213221Y24205D01*
X213320Y24707D01*
Y28671D01*
X215453D01*
Y17142D01*
D02*
G37*
G36*
X178543Y33698D02*
Y32087D01*
X184646Y25984D01*
Y8957D01*
X182087Y6398D01*
X171850D01*
X169193Y9055D01*
Y30315D01*
X172835Y33957D01*
X178187Y34049D01*
X178543Y33698D01*
D02*
G37*
G36*
X151848Y35204D02*
X151503Y34843D01*
X148845D01*
Y31496D01*
X150098D01*
X163484Y18110D01*
X163484Y9350D01*
X160236Y6102D01*
X151181D01*
X147047Y10236D01*
Y22638D01*
X145996Y23689D01*
X145852Y23904D01*
X145638Y24047D01*
X143898Y25787D01*
Y25984D01*
X143701D01*
X141142Y28543D01*
Y34362D01*
X142576Y35796D01*
X148632D01*
X149246Y35918D01*
X149767Y36266D01*
X150000Y36614D01*
X151781D01*
X151848Y35204D01*
D02*
G37*
%LPC*%
G36*
X112598Y112838D02*
X111753Y112670D01*
X111037Y112191D01*
X111028Y112177D01*
X110698Y112134D01*
X110157Y111909D01*
X109449Y112050D01*
X108604Y111882D01*
X107888Y111404D01*
X107409Y110687D01*
X107241Y109843D01*
X107409Y108998D01*
X107888Y108281D01*
X108604Y107803D01*
X109315Y107661D01*
X109452Y107483D01*
X109630Y107347D01*
X109771Y106635D01*
X110250Y105919D01*
X110966Y105441D01*
X111161Y105402D01*
Y102697D01*
X113228D01*
Y102106D01*
X113819D01*
Y98317D01*
X115295D01*
Y100679D01*
X115795Y100779D01*
X115821Y100716D01*
X116161Y100273D01*
Y98317D01*
X120295D01*
Y100273D01*
X120636Y100716D01*
X120661Y100779D01*
X121161Y100679D01*
Y98317D01*
X125295D01*
X125449Y97881D01*
Y96961D01*
X125318Y96647D01*
X125156Y95413D01*
Y90449D01*
X125318Y89215D01*
X125449Y88901D01*
Y84978D01*
X125295Y84541D01*
X124949Y84541D01*
X121161D01*
Y76963D01*
X122113D01*
Y76319D01*
X120669D01*
Y71022D01*
X119488D01*
Y76319D01*
X113976D01*
Y76319D01*
X113476Y76171D01*
X112922Y76281D01*
X112077Y76113D01*
X111361Y75634D01*
X110883Y74918D01*
X110714Y74073D01*
X110883Y73228D01*
X111361Y72512D01*
X112077Y72034D01*
X112922Y71865D01*
X113476Y71976D01*
X113966Y71625D01*
X113976Y71604D01*
Y71022D01*
X113965D01*
Y69968D01*
X121555D01*
Y70413D01*
X131496D01*
Y76319D01*
X124738D01*
Y76963D01*
X125295D01*
Y79325D01*
X125795Y79424D01*
X125821Y79362D01*
X126161Y78919D01*
Y76963D01*
X130295D01*
Y78919D01*
X130636Y79362D01*
X130913Y80032D01*
X130996Y80661D01*
X131496Y80650D01*
Y80650D01*
X134449D01*
Y83602D01*
X135630D01*
Y80650D01*
X138476D01*
X138583Y80650D01*
X138976D01*
X139083Y80650D01*
X141929D01*
Y83602D01*
X143110D01*
Y80650D01*
X145957D01*
X146063Y80650D01*
X146457D01*
X146563Y80650D01*
X149409D01*
Y83602D01*
X150591D01*
Y80650D01*
X153182D01*
X153543Y80315D01*
X153905Y80315D01*
X156496D01*
Y83268D01*
X157677D01*
Y80315D01*
X160630D01*
Y83693D01*
X161130Y83929D01*
X161227Y83849D01*
X161178Y83602D01*
X161346Y82758D01*
X161825Y82041D01*
X162541Y81563D01*
X163386Y81395D01*
X163925Y81502D01*
X164544Y80883D01*
X165531Y80125D01*
X166680Y79649D01*
X167913Y79487D01*
X169147Y79649D01*
X170296Y80125D01*
X171283Y80883D01*
X172040Y81869D01*
X172238Y82348D01*
X172512Y82758D01*
X172680Y83602D01*
X172628Y83866D01*
X172679Y84252D01*
X172516Y85485D01*
X172040Y86635D01*
X171283Y87621D01*
X169344Y89560D01*
X162877Y96027D01*
X161890Y96784D01*
X160741Y97260D01*
X159508Y97423D01*
X146416D01*
X146063Y97776D01*
X146063Y99154D01*
X146063Y99654D01*
Y101516D01*
X142520D01*
X138976D01*
Y99654D01*
X138976Y99154D01*
X138976Y98654D01*
Y97423D01*
X137992D01*
Y98563D01*
X133459D01*
X133291Y98783D01*
X132690Y99244D01*
X132859Y99744D01*
X134449D01*
Y101909D01*
X132087D01*
Y100171D01*
X131587Y99837D01*
X131155Y100016D01*
X131008Y100036D01*
Y102106D01*
X130913Y102826D01*
X130636Y103496D01*
X130295Y103940D01*
Y105896D01*
X127677D01*
Y111752D01*
X122165D01*
Y108314D01*
X122093Y108242D01*
X121745Y107721D01*
X121623Y107106D01*
X121623Y107106D01*
Y106346D01*
X121547Y106308D01*
X121432Y106313D01*
X121008Y106597D01*
Y108799D01*
X120984Y108980D01*
Y111752D01*
X116486D01*
X116350Y111856D01*
X115680Y112134D01*
X114961Y112229D01*
X114103D01*
X113443Y112670D01*
X112598Y112838D01*
D02*
G37*
G36*
X137992Y105256D02*
X135630D01*
Y103091D01*
X137992D01*
Y105256D01*
D02*
G37*
G36*
X134449D02*
X132087D01*
Y103091D01*
X134449D01*
Y105256D01*
D02*
G37*
G36*
X146063Y105059D02*
X143110D01*
Y102697D01*
X146063D01*
Y105059D01*
D02*
G37*
G36*
X141929D02*
X138976D01*
Y102697D01*
X141929D01*
Y105059D01*
D02*
G37*
G36*
X137992Y101909D02*
X135630D01*
Y99744D01*
X137992D01*
Y101909D01*
D02*
G37*
G36*
X112638Y101516D02*
X111161D01*
Y98317D01*
X112638D01*
Y101516D01*
D02*
G37*
G36*
X100984Y95413D02*
X98622D01*
Y93248D01*
X100984D01*
Y95413D01*
D02*
G37*
G36*
X108071D02*
Y93248D01*
X110433D01*
Y95413D01*
X108071D01*
D02*
G37*
G36*
X110433Y92067D02*
X108071D01*
Y89902D01*
X110433D01*
Y92067D01*
D02*
G37*
G36*
X100984Y92067D02*
X98622D01*
Y89902D01*
X100984D01*
Y92067D01*
D02*
G37*
G36*
X104527Y95413D02*
X104027Y95413D01*
X102165D01*
Y92658D01*
X101575D01*
D01*
X102165D01*
Y89902D01*
X104027D01*
X104527Y89902D01*
X105027Y89902D01*
X106890D01*
Y92658D01*
Y95413D01*
X105027D01*
X104527Y95413D01*
D02*
G37*
G36*
X181693Y87377D02*
X181031Y87103D01*
X180349Y86580D01*
X179826Y85898D01*
X179552Y85236D01*
X181693D01*
Y87377D01*
D02*
G37*
G36*
X104527Y88721D02*
X104527Y88721D01*
X98622D01*
Y83209D01*
X100262D01*
Y82421D01*
X100362Y81919D01*
X100647Y81493D01*
X102316Y79824D01*
X102742Y79539D01*
X103244Y79439D01*
X111161D01*
Y76963D01*
X115295D01*
Y83514D01*
X115757Y83705D01*
X116161Y83301D01*
Y76963D01*
X120295D01*
Y84541D01*
X118634D01*
X116282Y86893D01*
X115857Y87177D01*
X115354Y87277D01*
X110433D01*
Y88721D01*
X105027D01*
X104527Y88721D01*
Y88721D01*
D02*
G37*
G36*
X138189Y76319D02*
X136024D01*
Y73957D01*
X138189D01*
Y76319D01*
D02*
G37*
G36*
X134843D02*
X132677D01*
Y73957D01*
X134843D01*
Y76319D01*
D02*
G37*
G36*
X138189Y72776D02*
X136024D01*
Y70413D01*
X138189D01*
Y72776D01*
D02*
G37*
G36*
X134843D02*
X132677D01*
Y70413D01*
X134843D01*
Y72776D01*
D02*
G37*
G36*
X219685Y69783D02*
X217520D01*
Y67421D01*
X219685D01*
Y69783D01*
D02*
G37*
G36*
X223031Y66240D02*
X220866D01*
Y63878D01*
X223031D01*
Y66240D01*
D02*
G37*
G36*
X219685D02*
X217520D01*
Y63878D01*
X219685D01*
Y66240D01*
D02*
G37*
G36*
X166609Y62008D02*
X164469D01*
Y59867D01*
X165130Y60141D01*
X165812Y60664D01*
X166335Y61346D01*
X166609Y62008D01*
D02*
G37*
G36*
X162500D02*
X160359D01*
X160633Y61346D01*
X161156Y60664D01*
X161838Y60141D01*
X162500Y59867D01*
Y62008D01*
D02*
G37*
G36*
X218504Y49772D02*
X211319D01*
Y44732D01*
X218504D01*
Y49772D01*
D02*
G37*
G36*
X163512Y49902D02*
X158472D01*
Y42717D01*
X163512D01*
Y49902D01*
D02*
G37*
G36*
X121553Y41555D02*
X118354D01*
Y40079D01*
X121553D01*
Y41555D01*
D02*
G37*
G36*
X117173D02*
X113974D01*
Y40079D01*
X117173D01*
Y41555D01*
D02*
G37*
G36*
X218504Y43551D02*
X211319D01*
Y38512D01*
X218504D01*
Y43551D01*
D02*
G37*
G36*
X210138D02*
X202953D01*
Y38512D01*
X210138D01*
Y43551D01*
D02*
G37*
G36*
X169732Y41535D02*
X164693D01*
Y34350D01*
X169732D01*
Y41535D01*
D02*
G37*
G36*
X163512D02*
X158472D01*
Y34350D01*
X163512D01*
Y41535D01*
D02*
G37*
G36*
X133268Y35630D02*
X130905D01*
Y33465D01*
X133268D01*
Y35630D01*
D02*
G37*
G36*
X114370Y21260D02*
X112205D01*
Y18898D01*
X114370D01*
Y21260D01*
D02*
G37*
G36*
X121553Y29213D02*
X113974D01*
Y25303D01*
X113974Y25079D01*
X113589Y24803D01*
X112205D01*
Y22441D01*
X114370D01*
Y24579D01*
X114370Y24803D01*
X114756Y25079D01*
X115165D01*
X115551Y24803D01*
Y18898D01*
X116177D01*
X116495Y18511D01*
X116493Y18504D01*
X116661Y17659D01*
X117140Y16943D01*
X117856Y16464D01*
X118701Y16296D01*
X119546Y16464D01*
X120262Y16943D01*
X120740Y17659D01*
X120901Y18465D01*
X121063Y18898D01*
X121063Y19360D01*
Y24803D01*
X121449Y25079D01*
X121553D01*
Y29213D01*
D02*
G37*
G36*
X126476Y17421D02*
X124365D01*
X124382Y17292D01*
X124660Y16622D01*
X125101Y16046D01*
X125677Y15605D01*
X126347Y15327D01*
X126476Y15310D01*
Y17421D01*
D02*
G37*
G36*
X219783Y16929D02*
X217618D01*
Y14567D01*
X219783D01*
Y16929D01*
D02*
G37*
G36*
X143898Y14764D02*
X141535D01*
Y11811D01*
X143898D01*
Y14764D01*
D02*
G37*
G36*
X223130Y13386D02*
X220965D01*
Y11024D01*
X223130D01*
Y13386D01*
D02*
G37*
G36*
X219783D02*
X217618D01*
Y11024D01*
X219783D01*
Y13386D01*
D02*
G37*
G36*
X141319Y11068D02*
Y8957D01*
X143430D01*
X143413Y9086D01*
X143136Y9756D01*
X142694Y10332D01*
X142118Y10773D01*
X141448Y11051D01*
X141319Y11068D01*
D02*
G37*
G36*
X143430Y7776D02*
X141319D01*
Y5664D01*
X141448Y5681D01*
X142118Y5959D01*
X142694Y6401D01*
X143136Y6976D01*
X143413Y7647D01*
X143430Y7776D01*
D02*
G37*
G36*
X41929Y106890D02*
X39567D01*
Y104724D01*
X41929D01*
Y106890D01*
D02*
G37*
G36*
X38386D02*
X36024D01*
Y104724D01*
X38386D01*
Y106890D01*
D02*
G37*
G36*
X61535Y106354D02*
X55158D01*
Y102417D01*
X61535D01*
Y106354D01*
D02*
G37*
G36*
X41929Y103543D02*
X39567D01*
Y101378D01*
X41929D01*
Y103543D01*
D02*
G37*
G36*
X38386D02*
X36024D01*
Y101378D01*
X38386D01*
Y103543D01*
D02*
G37*
G36*
X23583Y107488D02*
X21417D01*
X20467Y107363D01*
X19581Y106996D01*
X18820Y106412D01*
X18236Y105651D01*
X17869Y104766D01*
X17744Y103815D01*
X17869Y102864D01*
X18236Y101978D01*
X18310Y101883D01*
X18091Y101346D01*
X17445Y101217D01*
X16663Y100695D01*
X16141Y99914D01*
X15958Y98992D01*
X16141Y98070D01*
X16663Y97289D01*
X17445Y96767D01*
X18366Y96584D01*
X19288Y96767D01*
X20069Y97289D01*
X20591Y98070D01*
X20775Y98992D01*
X20626Y99742D01*
X20897Y100123D01*
X21004Y100196D01*
X21417Y100142D01*
X23583D01*
X24533Y100267D01*
X25419Y100634D01*
X26180Y101218D01*
X26764Y101978D01*
X27131Y102864D01*
X27256Y103815D01*
X27131Y104766D01*
X26764Y105651D01*
X26180Y106412D01*
X25419Y106996D01*
X24533Y107363D01*
X23583Y107488D01*
D02*
G37*
G36*
X51221Y106354D02*
X44842D01*
Y102417D01*
Y101236D01*
X48031D01*
Y100055D01*
X44842D01*
Y97484D01*
X41929D01*
Y100197D01*
X36024D01*
Y97755D01*
X35531Y97736D01*
Y97736D01*
X27067D01*
Y91673D01*
X35531D01*
Y91925D01*
X46476D01*
X47196Y92020D01*
X47866Y92298D01*
X48442Y92739D01*
X49800Y94098D01*
X50242Y94673D01*
X50351Y94937D01*
X51221D01*
Y96530D01*
X52649Y97958D01*
X52933Y98383D01*
X53033Y98886D01*
Y102610D01*
X52933Y103113D01*
X52649Y103538D01*
X51221Y104967D01*
Y106354D01*
D02*
G37*
G36*
X65748Y106323D02*
X65029Y106228D01*
X64358Y105951D01*
X63783Y105509D01*
X63341Y104933D01*
X63063Y104263D01*
X62968Y103543D01*
Y100364D01*
X62290Y99685D01*
X58346D01*
X57627Y99590D01*
X56957Y99313D01*
X56385Y98874D01*
X55158D01*
Y94937D01*
X56385D01*
X56957Y94498D01*
X57627Y94221D01*
X58346Y94126D01*
X61614D01*
Y93307D01*
X67520D01*
Y97053D01*
X67714Y97247D01*
X68155Y97823D01*
X68433Y98493D01*
X68528Y99213D01*
Y103543D01*
X68433Y104263D01*
X68155Y104933D01*
X67714Y105509D01*
X67138Y105951D01*
X66467Y106228D01*
X65748Y106323D01*
D02*
G37*
G36*
X67520Y92126D02*
X65158D01*
Y89961D01*
X67520D01*
Y92126D01*
D02*
G37*
G36*
X63976D02*
X61614D01*
Y89961D01*
X63976D01*
Y92126D01*
D02*
G37*
G36*
X56348Y93842D02*
X55503Y93674D01*
X54787Y93195D01*
X54309Y92479D01*
X54141Y91634D01*
X54309Y90789D01*
X54787Y90073D01*
X55503Y89594D01*
X56348Y89426D01*
X57193Y89594D01*
X57910Y90073D01*
X58388Y90789D01*
X58556Y91634D01*
X58388Y92479D01*
X57910Y93195D01*
X57193Y93674D01*
X56348Y93842D01*
D02*
G37*
G36*
X67520Y88779D02*
X65158D01*
Y86614D01*
X67520D01*
Y88779D01*
D02*
G37*
G36*
X63976D02*
X61614D01*
Y86614D01*
X63976D01*
Y88779D01*
D02*
G37*
G36*
X35531Y86083D02*
X27067D01*
Y80020D01*
X30609D01*
X31151Y79795D01*
X31870Y79701D01*
X38118D01*
X38838Y79795D01*
X39508Y80073D01*
X40084Y80515D01*
X40525Y81090D01*
X40803Y81761D01*
X40898Y82480D01*
X40803Y83200D01*
X40525Y83870D01*
X40084Y84446D01*
X39508Y84888D01*
X38838Y85165D01*
X38118Y85260D01*
X35531D01*
Y86083D01*
D02*
G37*
G36*
X65748Y75436D02*
X64903Y75268D01*
X64187Y74790D01*
X63708Y74073D01*
X63540Y73228D01*
X63645Y72699D01*
X63227Y72273D01*
X63158Y72286D01*
X62313Y72118D01*
X61597Y71640D01*
X61118Y70924D01*
X60950Y70079D01*
X61118Y69234D01*
X61597Y68518D01*
X61850Y68348D01*
X61699Y67848D01*
X42224D01*
X41722Y67748D01*
X41296Y67464D01*
X40844Y67012D01*
X40551Y67070D01*
X39706Y66902D01*
X38990Y66423D01*
X38511Y65707D01*
X38343Y64862D01*
X38402Y64569D01*
X36269Y62436D01*
X35984Y62010D01*
X35884Y61508D01*
Y40055D01*
X35480Y39888D01*
X34905Y39446D01*
X34680Y39153D01*
X34060D01*
X33836Y39446D01*
X33260Y39888D01*
X32590Y40165D01*
X31870Y40260D01*
X31151Y40165D01*
X30480Y39888D01*
X29905Y39446D01*
X29680Y39153D01*
X29060D01*
X28836Y39446D01*
X28260Y39888D01*
X27589Y40165D01*
X26870Y40260D01*
X26151Y40165D01*
X25480Y39888D01*
X24905Y39446D01*
X24680Y39153D01*
X24060D01*
X23836Y39446D01*
X23260Y39888D01*
X22590Y40165D01*
X21870Y40260D01*
X21151Y40165D01*
X20480Y39888D01*
X19905Y39446D01*
X19680Y39153D01*
X19060D01*
X18836Y39446D01*
X18260Y39888D01*
X17590Y40165D01*
X16870Y40260D01*
X16151Y40165D01*
X15480Y39888D01*
X14905Y39446D01*
X14463Y38870D01*
X14185Y38200D01*
X14090Y37480D01*
X14185Y36761D01*
X14463Y36090D01*
X14735Y35736D01*
X14488Y35236D01*
X14114D01*
Y29724D01*
X19626D01*
Y30098D01*
X20126Y30345D01*
X20480Y30073D01*
X21151Y29795D01*
X21280Y29778D01*
Y32480D01*
X22461D01*
Y29778D01*
X22590Y29795D01*
X23260Y30073D01*
X23836Y30515D01*
X24060Y30808D01*
X24680D01*
X24905Y30515D01*
X25480Y30073D01*
X26151Y29795D01*
X26280Y29778D01*
Y32480D01*
X27461D01*
Y29778D01*
X27589Y29795D01*
X28260Y30073D01*
X28836Y30515D01*
X29060Y30808D01*
X29680D01*
X29905Y30515D01*
X30480Y30073D01*
X31151Y29795D01*
X31870Y29701D01*
X32590Y29795D01*
X33260Y30073D01*
X33836Y30515D01*
X34060Y30808D01*
X34680D01*
X34905Y30515D01*
X35480Y30073D01*
X36151Y29795D01*
X36279Y29778D01*
Y32480D01*
X36870D01*
Y33071D01*
X39572D01*
X39555Y33200D01*
X39277Y33870D01*
X38836Y34446D01*
X38543Y34671D01*
Y35290D01*
X38836Y35515D01*
X39277Y36090D01*
X39555Y36761D01*
X39650Y37480D01*
X39555Y38200D01*
X39277Y38870D01*
X38836Y39446D01*
X38510Y39696D01*
Y60964D01*
X40258Y62713D01*
X40551Y62654D01*
X41396Y62823D01*
X42112Y63301D01*
X42591Y64017D01*
X42759Y64862D01*
X43197Y65223D01*
X59427D01*
X59710Y64723D01*
X59696Y64698D01*
X58952D01*
X58450Y64599D01*
X58024Y64314D01*
X47859Y54149D01*
X47575Y53723D01*
X47475Y53221D01*
Y32008D01*
X37377Y21910D01*
X37271Y21917D01*
X36548Y22472D01*
X35707Y22820D01*
X34803Y22939D01*
X33900Y22820D01*
X33058Y22472D01*
X32335Y21917D01*
X31780Y21194D01*
X31432Y20352D01*
X31313Y19449D01*
X31432Y18545D01*
X31780Y17704D01*
X32335Y16981D01*
X33058Y16426D01*
X33900Y16077D01*
X34803Y15958D01*
X35707Y16077D01*
X36548Y16426D01*
X37271Y16981D01*
X37826Y17704D01*
X38175Y18545D01*
X38243Y19064D01*
X48800Y29621D01*
X49262Y29430D01*
Y27890D01*
X32981Y11609D01*
X32482Y11642D01*
X32271Y11917D01*
X31548Y12472D01*
X30707Y12820D01*
X29803Y12939D01*
X28900Y12820D01*
X28058Y12472D01*
X27335Y11917D01*
X26780Y11194D01*
X26432Y10352D01*
X26313Y9449D01*
X26432Y8545D01*
X26780Y7704D01*
X27335Y6981D01*
X28058Y6426D01*
X28900Y6077D01*
X29803Y5958D01*
X30707Y6077D01*
X31548Y6426D01*
X32271Y6981D01*
X32826Y7704D01*
X33035Y8207D01*
X33180Y8236D01*
X33605Y8521D01*
X42935Y17851D01*
X43359Y17568D01*
X43347Y17537D01*
X43215Y16535D01*
X43347Y15533D01*
X43734Y14600D01*
X44349Y13798D01*
X45151Y13182D01*
X46084Y12796D01*
X47087Y12664D01*
X48089Y12796D01*
X48570Y12995D01*
X48996Y12803D01*
X48996Y12803D01*
X48996Y12803D01*
D01*
X49138Y12689D01*
X49138Y12555D01*
Y10039D01*
X56059D01*
Y11510D01*
X56521Y11701D01*
X59159Y9064D01*
X59227Y8545D01*
X59576Y7704D01*
X60130Y6981D01*
X60853Y6426D01*
X61695Y6077D01*
X62598Y5958D01*
X63502Y6077D01*
X64344Y6426D01*
X65067Y6981D01*
X65621Y7704D01*
X65970Y8545D01*
X66089Y9449D01*
X65970Y10352D01*
X65621Y11194D01*
X65067Y11917D01*
X64344Y12472D01*
X63502Y12820D01*
X62598Y12939D01*
X61695Y12820D01*
X60853Y12472D01*
X60130Y11917D01*
X60025Y11910D01*
X56190Y15745D01*
X56473Y16169D01*
X56695Y16077D01*
X57598Y15958D01*
X58502Y16077D01*
X59344Y16426D01*
X60067Y16981D01*
X60621Y17704D01*
X60970Y18545D01*
X61089Y19449D01*
X60970Y20352D01*
X60621Y21194D01*
X60067Y21917D01*
X59344Y22472D01*
X58502Y22820D01*
X57598Y22939D01*
X56695Y22820D01*
X55853Y22472D01*
X55130Y21917D01*
X54576Y21194D01*
X54227Y20352D01*
X54175Y19957D01*
X53675Y19990D01*
Y30823D01*
X54137Y31015D01*
X64394Y20757D01*
X64227Y20352D01*
X64108Y19449D01*
X64227Y18545D01*
X64576Y17704D01*
X65130Y16981D01*
X65853Y16426D01*
X66695Y16077D01*
X67598Y15958D01*
X68502Y16077D01*
X69344Y16426D01*
X70067Y16981D01*
X70621Y17704D01*
X70970Y18545D01*
X71089Y19449D01*
X70970Y20352D01*
X70621Y21194D01*
X70067Y21917D01*
X69344Y22472D01*
X68502Y22820D01*
X67598Y22939D01*
X66695Y22820D01*
X66235Y22630D01*
X55643Y33221D01*
Y50637D01*
X58024Y53018D01*
X62052D01*
X62218Y52770D01*
X62935Y52291D01*
X63779Y52123D01*
X64624Y52291D01*
X65341Y52770D01*
X65819Y53486D01*
X65987Y54331D01*
X65838Y55083D01*
X66027Y55385D01*
X66178Y55538D01*
X66375Y55509D01*
X66464Y55061D01*
X66943Y54344D01*
X67659Y53866D01*
X68504Y53698D01*
X69349Y53866D01*
X70065Y54344D01*
X70435Y54898D01*
X70718Y55047D01*
X71046Y55021D01*
X71596Y54653D01*
X72441Y54485D01*
X73286Y54653D01*
X74002Y55132D01*
X74481Y55848D01*
X74576Y56326D01*
X75118Y56490D01*
X75655Y55954D01*
X76080Y55669D01*
X76583Y55569D01*
X78699D01*
X78967Y55069D01*
X78819Y54848D01*
X78650Y54003D01*
X78819Y53158D01*
X79297Y52442D01*
X80013Y51963D01*
X80858Y51795D01*
X81703Y51963D01*
X82419Y52442D01*
X82836Y53065D01*
X92618D01*
Y50238D01*
X92824D01*
X93307Y50197D01*
X93307Y44291D01*
X92840Y44213D01*
X92620D01*
Y42736D01*
X100199D01*
Y43779D01*
X100199Y44213D01*
X100632Y44375D01*
X100845Y44417D01*
X101561Y44896D01*
X102040Y45612D01*
X102208Y46457D01*
X102040Y47302D01*
X101561Y48018D01*
X100845Y48496D01*
X100000Y48665D01*
X99940Y48652D01*
X99827Y48728D01*
X99213Y48850D01*
X98819Y49142D01*
Y50197D01*
X99302Y50238D01*
X100209D01*
Y52734D01*
Y55238D01*
Y57734D01*
Y60238D01*
Y62734D01*
Y65238D01*
Y67734D01*
Y68787D01*
X92618D01*
Y68195D01*
X91772D01*
X85810Y74156D01*
X85384Y74441D01*
X84882Y74541D01*
X67475D01*
X67309Y74790D01*
X66593Y75268D01*
X65748Y75436D01*
D02*
G37*
G36*
X18366Y81716D02*
X17445Y81532D01*
X16663Y81010D01*
X16141Y80229D01*
X15958Y79307D01*
X16141Y78385D01*
X16663Y77604D01*
X17445Y77082D01*
X18091Y76953D01*
X18310Y76416D01*
X18236Y76321D01*
X17869Y75435D01*
X17744Y74484D01*
X17869Y73534D01*
X18236Y72648D01*
X18820Y71887D01*
X19581Y71303D01*
X20467Y70936D01*
X21417Y70811D01*
X23583D01*
X24533Y70936D01*
X25419Y71303D01*
X26180Y71887D01*
X26764Y72648D01*
X27131Y73534D01*
X27256Y74484D01*
X27131Y75435D01*
X26764Y76321D01*
X26180Y77082D01*
X25419Y77665D01*
X24533Y78032D01*
X23583Y78157D01*
X21417D01*
X21004Y78103D01*
X20897Y78176D01*
X20626Y78557D01*
X20775Y79307D01*
X20591Y80229D01*
X20069Y81010D01*
X19288Y81532D01*
X18366Y81716D01*
D02*
G37*
G36*
X100209Y71022D02*
X97004D01*
Y69968D01*
X100209D01*
Y71022D01*
D02*
G37*
G36*
X95823D02*
X92618D01*
Y69968D01*
X95823D01*
Y71022D01*
D02*
G37*
G36*
X92126Y50197D02*
X89961D01*
Y47835D01*
X92126D01*
Y50197D01*
D02*
G37*
G36*
X88779D02*
X86614D01*
Y47835D01*
X88779D01*
Y50197D01*
D02*
G37*
G36*
X92126Y46654D02*
X89961D01*
Y44291D01*
X92126D01*
Y46654D01*
D02*
G37*
G36*
X88779D02*
X86614D01*
Y44291D01*
X88779D01*
Y46654D01*
D02*
G37*
G36*
X100199Y41555D02*
X97000D01*
Y40079D01*
X100199D01*
Y41555D01*
D02*
G37*
G36*
X95819D02*
X92620D01*
Y40079D01*
X95819D01*
Y41555D01*
D02*
G37*
G36*
X101575Y39609D02*
X100730Y39441D01*
X100304Y39156D01*
X100199Y39213D01*
Y39213D01*
X92620D01*
Y35079D01*
X100199D01*
Y35186D01*
X100640Y35422D01*
X100730Y35362D01*
X101575Y35194D01*
X102420Y35362D01*
X103136Y35840D01*
X103614Y36557D01*
X103783Y37402D01*
X103614Y38247D01*
X103136Y38963D01*
X102420Y39441D01*
X101575Y39609D01*
D02*
G37*
G36*
X58661Y48665D02*
X57816Y48496D01*
X57100Y48018D01*
X56622Y47302D01*
X56454Y46457D01*
X56622Y45612D01*
X57100Y44896D01*
X57816Y44417D01*
X58661Y44249D01*
X58955Y44307D01*
X72044Y31218D01*
X72470Y30933D01*
X72973Y30833D01*
X92620D01*
Y30079D01*
X100199D01*
Y34213D01*
X92620D01*
Y33458D01*
X73516D01*
X60811Y46164D01*
X60869Y46457D01*
X60701Y47302D01*
X60223Y48018D01*
X59506Y48496D01*
X58661Y48665D01*
D02*
G37*
G36*
X39572Y31890D02*
X37461D01*
Y29778D01*
X37589Y29795D01*
X38260Y30073D01*
X38836Y30515D01*
X39277Y31091D01*
X39555Y31761D01*
X39572Y31890D01*
D02*
G37*
G36*
X100199Y29213D02*
X92620D01*
Y28751D01*
X91732D01*
Y28937D01*
X86221D01*
Y23031D01*
X87371D01*
Y21535D01*
X87371Y21535D01*
X87493Y20921D01*
X87761Y20520D01*
X87691Y20352D01*
X87572Y19449D01*
X87691Y18545D01*
X88040Y17704D01*
X88595Y16981D01*
X89318Y16426D01*
X90160Y16077D01*
X91063Y15958D01*
X91966Y16077D01*
X92808Y16426D01*
X93531Y16981D01*
X94086Y17704D01*
X94434Y18545D01*
X94554Y19449D01*
X94434Y20352D01*
X94086Y21194D01*
X93531Y21917D01*
X92808Y22472D01*
X92119Y22757D01*
X91732Y23031D01*
Y25540D01*
X92620D01*
Y25079D01*
X100199D01*
Y29213D01*
D02*
G37*
G36*
X85039Y28937D02*
X82874D01*
Y26575D01*
X85039D01*
Y28937D01*
D02*
G37*
G36*
X81693D02*
X79528D01*
Y26575D01*
X81693D01*
Y28937D01*
D02*
G37*
G36*
X85039Y25394D02*
X82874D01*
Y23031D01*
X85039D01*
Y25394D01*
D02*
G37*
G36*
X81693D02*
X79528D01*
Y23031D01*
X81693D01*
Y25394D01*
D02*
G37*
G36*
X101063Y22939D02*
X100160Y22820D01*
X99318Y22472D01*
X98595Y21917D01*
X98040Y21194D01*
X97691Y20352D01*
X97572Y19449D01*
X97691Y18545D01*
X98040Y17704D01*
X98595Y16981D01*
X99318Y16426D01*
X100160Y16077D01*
X101063Y15958D01*
X101966Y16077D01*
X102808Y16426D01*
X103531Y16981D01*
X104086Y17704D01*
X104435Y18545D01*
X104553Y19449D01*
X104435Y20352D01*
X104086Y21194D01*
X103531Y21917D01*
X102808Y22472D01*
X101966Y22820D01*
X101063Y22939D01*
D02*
G37*
G36*
X24803D02*
X23900Y22820D01*
X23058Y22472D01*
X22335Y21917D01*
X21780Y21194D01*
X21432Y20352D01*
X21313Y19449D01*
X21432Y18545D01*
X21780Y17704D01*
X22335Y16981D01*
X23058Y16426D01*
X23900Y16077D01*
X24803Y15958D01*
X25707Y16077D01*
X26548Y16426D01*
X27271Y16981D01*
X27826Y17704D01*
X28175Y18545D01*
X28294Y19449D01*
X28175Y20352D01*
X27826Y21194D01*
X27271Y21917D01*
X26548Y22472D01*
X25707Y22820D01*
X24803Y22939D01*
D02*
G37*
G36*
X86654Y12910D02*
Y10039D01*
X89524D01*
Y12910D01*
X86654D01*
D02*
G37*
G36*
X80551Y20407D02*
X79549Y20275D01*
X78615Y19888D01*
X77814Y19273D01*
X77198Y18471D01*
X76811Y17537D01*
X76679Y16535D01*
X76811Y15533D01*
X77198Y14600D01*
X77814Y13798D01*
X78615Y13182D01*
X79549Y12796D01*
X80551Y12664D01*
X81553Y12796D01*
X82035Y12995D01*
X82461Y12803D01*
X82461Y12803D01*
X82461Y12803D01*
D01*
X82602Y12689D01*
X82602Y12555D01*
Y10039D01*
X85472D01*
Y12910D01*
X83011D01*
X83008Y12910D01*
X83008D01*
X82953Y12910D01*
X82888Y13101D01*
X82887Y13101D01*
Y13102D01*
D01*
X83001Y13577D01*
X83289Y13798D01*
X83904Y14600D01*
X84291Y15533D01*
X84423Y16535D01*
X84291Y17537D01*
X83904Y18471D01*
X83289Y19273D01*
X82487Y19888D01*
X81553Y20275D01*
X80551Y20407D01*
D02*
G37*
G36*
X20394Y12910D02*
Y10039D01*
X23264D01*
Y12910D01*
X20394D01*
D02*
G37*
G36*
X14291Y20407D02*
X13289Y20275D01*
X12355Y19888D01*
X11554Y19273D01*
X10938Y18471D01*
X10552Y17537D01*
X10420Y16535D01*
X10552Y15533D01*
X10938Y14600D01*
X11554Y13798D01*
X12355Y13182D01*
X13289Y12796D01*
X14291Y12664D01*
X15293Y12796D01*
X15775Y12995D01*
X16201Y12803D01*
X16201Y12803D01*
X16201Y12803D01*
D01*
X16342Y12689D01*
X16342Y12555D01*
Y10039D01*
X19213D01*
Y12910D01*
X16751D01*
X16748Y12910D01*
X16748D01*
X16693Y12910D01*
X16628Y13101D01*
X16628Y13101D01*
Y13102D01*
D01*
X16741Y13577D01*
X17029Y13798D01*
X17644Y14600D01*
X18031Y15533D01*
X18163Y16535D01*
X18031Y17537D01*
X17644Y18471D01*
X17029Y19273D01*
X16227Y19888D01*
X15293Y20275D01*
X14291Y20407D01*
D02*
G37*
G36*
X89524Y8858D02*
X86654D01*
Y5988D01*
X89524D01*
Y8858D01*
D02*
G37*
G36*
X85472D02*
X82602D01*
Y5988D01*
X85472D01*
Y8858D01*
D02*
G37*
G36*
X56059D02*
X53189D01*
Y5988D01*
X56059D01*
Y8858D01*
D02*
G37*
G36*
X52008D02*
X49138D01*
Y5988D01*
X52008D01*
Y8858D01*
D02*
G37*
G36*
X23264D02*
X20394D01*
Y5988D01*
X23264D01*
Y8858D01*
D02*
G37*
G36*
X19213D02*
X16342D01*
Y5988D01*
X19213D01*
Y8858D01*
D02*
G37*
G36*
X96063Y12939D02*
X95160Y12820D01*
X94318Y12472D01*
X93595Y11917D01*
X93040Y11194D01*
X92691Y10352D01*
X92572Y9449D01*
X92691Y8545D01*
X93040Y7704D01*
X93595Y6981D01*
X94318Y6426D01*
X95160Y6077D01*
X96063Y5958D01*
X96966Y6077D01*
X97808Y6426D01*
X98531Y6981D01*
X99086Y7704D01*
X99435Y8545D01*
X99554Y9449D01*
X99435Y10352D01*
X99086Y11194D01*
X98531Y11917D01*
X97808Y12472D01*
X96966Y12820D01*
X96063Y12939D01*
D02*
G37*
G36*
X218406Y94980D02*
X211221D01*
Y89941D01*
X218406D01*
Y94980D01*
D02*
G37*
G36*
X188386Y63361D02*
Y61221D01*
X190527D01*
X190252Y61882D01*
X189729Y62564D01*
X189048Y63087D01*
X188386Y63361D01*
D02*
G37*
G36*
X186417Y63361D02*
X185756Y63087D01*
X185074Y62564D01*
X184551Y61882D01*
X184277Y61221D01*
X186417D01*
Y63361D01*
D02*
G37*
G36*
X201339Y72342D02*
X199945D01*
Y70752D01*
X201339D01*
Y72342D01*
D02*
G37*
G36*
X212008Y69996D02*
X210614D01*
Y68405D01*
X212008D01*
Y69996D01*
D02*
G37*
G36*
X140945Y52811D02*
X139354D01*
Y51417D01*
X140945D01*
Y52811D01*
D02*
G37*
G36*
X137024Y42535D02*
X135433D01*
Y41142D01*
X137024D01*
Y42535D01*
D02*
G37*
G36*
X201437Y20829D02*
X200043D01*
Y19239D01*
X201437D01*
Y20829D01*
D02*
G37*
G36*
X212106Y17142D02*
X210713D01*
Y15551D01*
X212106D01*
Y17142D01*
D02*
G37*
%LPD*%
D12*
X121653Y49902D02*
X127165D01*
X116495Y51740D02*
X119815D01*
X118701Y18504D02*
Y26209D01*
X119815Y51740D02*
X121653Y49902D01*
X127165D02*
X127461Y50197D01*
X217028Y77537D02*
X218384Y76181D01*
X217028Y77537D02*
Y84004D01*
X217126Y24638D02*
X219224Y22539D01*
X217126Y24638D02*
Y32575D01*
X117764Y27146D02*
X118701Y26209D01*
X99213Y47244D02*
X100000Y46457D01*
X123228Y107106D02*
X124921Y108799D01*
X123228Y102106D02*
Y107106D01*
X142028Y34055D02*
X143701Y35728D01*
X152535D01*
X96063Y51531D02*
X96413Y51882D01*
X96063Y47244D02*
Y51531D01*
Y47244D02*
X99213D01*
X90138Y27146D02*
X96409D01*
X88976Y25984D02*
X90138Y27146D01*
X88976Y21535D02*
Y25984D01*
Y21535D02*
X91063Y19449D01*
X146555Y38287D02*
X152535D01*
X214567Y27264D02*
Y32575D01*
X214469Y76968D02*
Y84004D01*
D16*
X101575Y92658D02*
X107480D01*
X212776Y112795D02*
X212894Y112678D01*
X133858Y32874D02*
X134941Y31791D01*
X137992D01*
X164102Y39835D02*
Y42126D01*
X168209Y35728D02*
X175669D01*
X164102Y39835D02*
X168209Y35728D01*
X179626Y38287D02*
X181201Y36713D01*
X212008Y61008D02*
X212614Y61614D01*
X204724Y78642D02*
X205118D01*
X201575D02*
Y83906D01*
X37197Y36858D02*
Y61508D01*
Y36858D02*
X37559Y36496D01*
X37197Y61508D02*
X40551Y64862D01*
X48031Y96905D02*
X49740D01*
X188583Y80807D02*
Y87697D01*
X178870Y71095D02*
X188583Y80807D01*
X148224Y71095D02*
X178870D01*
X186713Y82087D02*
Y88681D01*
X177508Y72882D02*
X186713Y82087D01*
X147484Y72882D02*
X177508D01*
X40551Y64862D02*
X42224Y66535D01*
X62598D01*
X117764Y37146D02*
X119744D01*
X127067Y23012D02*
Y27067D01*
X121988Y32146D02*
X127067Y27067D01*
X117764Y32146D02*
X121988D01*
X130728Y8366D02*
Y26161D01*
X119744Y37146D02*
X130728Y26161D01*
X123425Y73366D02*
X128740D01*
X103244Y80752D02*
X113228D01*
X101575Y82421D02*
X103244Y80752D01*
X101575Y82421D02*
Y85965D01*
X74803Y70079D02*
X83000Y61882D01*
X63158Y70079D02*
X74803D01*
X83000Y61882D02*
X96413D01*
X80709Y59842D02*
X81173Y59378D01*
X96413D01*
X219390Y112598D02*
X220866D01*
X212581Y112241D02*
X212782Y112443D01*
X212233Y111894D02*
X212581Y112241D01*
X212622Y112201D02*
X212823Y112402D01*
X212274Y111853D02*
X212622Y112201D01*
X212114Y111693D02*
X212274Y111853D01*
X212622Y112201D02*
X212667Y112156D01*
X212581Y112241D02*
X212622Y112201D01*
X212519Y112303D02*
X212581Y112241D01*
X212274Y111853D02*
X212319Y111808D01*
X212233Y111894D02*
X212274Y111853D01*
X212776Y112795D02*
X212795D01*
X212519Y112303D02*
X212894Y112678D01*
X212319Y111808D02*
X212667Y112156D01*
X209252Y107433D02*
X209449Y107236D01*
X216240Y113779D02*
X216400D01*
X209252Y107433D02*
Y113345D01*
X216400Y113779D02*
X217058Y113121D01*
X212782Y112443D02*
X212823Y112402D01*
X217028Y110236D02*
X219390Y112598D01*
X217028Y107138D02*
Y110236D01*
X214469Y110531D02*
X217058Y113121D01*
X209154Y60827D02*
X209449Y60532D01*
X205118Y61024D02*
X206890Y59252D01*
Y55709D02*
Y59252D01*
X214567Y59153D02*
X216240Y60827D01*
X209350Y79331D02*
Y84004D01*
X208661Y78642D02*
X209350Y79331D01*
X201575Y83906D02*
X201673Y84004D01*
X113629Y73366D02*
X116732D01*
X112922Y74073D02*
X113629Y73366D01*
X126669Y55803D02*
X164571D01*
X125307Y57591D02*
X165539D01*
X117760Y59378D02*
X141563D01*
X149705Y67520D01*
X117760Y61882D02*
X141539D01*
X148964Y69307D01*
X141507Y64378D02*
X148224Y71095D01*
X117760Y64378D02*
X141507D01*
X141484Y66882D02*
X147484Y72882D01*
X117760Y66882D02*
X141484D01*
X147423Y47887D02*
X149345Y45965D01*
X148964Y69307D02*
X167374D01*
X149705Y67520D02*
X166634D01*
X167374Y69307D02*
X180366Y56315D01*
X166634Y67520D02*
X179626Y54528D01*
X175669Y38287D02*
X179626D01*
X180765Y40256D02*
X183268D01*
X180512Y47244D02*
X181398D01*
X179232Y45965D02*
X180512Y47244D01*
X201673Y103642D02*
Y107138D01*
X186713Y88681D02*
X201673Y103642D01*
X204232Y103347D02*
Y107138D01*
X188583Y87697D02*
X204232Y103347D01*
X200590Y50984D02*
X203150D01*
X197047Y54528D02*
X200590Y50984D01*
X179626Y54528D02*
X197047D01*
X203150Y50984D02*
X204331Y52165D01*
X180366Y56315D02*
X201756D01*
X201772Y56299D01*
X204331Y52165D02*
Y55709D01*
X165539Y57591D02*
X172047Y51083D01*
X164571Y55803D02*
X171850Y48524D01*
X125244Y54378D02*
X126669Y55803D01*
X124598Y56882D02*
X125307Y57591D01*
X117760Y56882D02*
X124598D01*
X117760Y54378D02*
X125244D01*
X172047Y51083D02*
X175669D01*
X171850Y48524D02*
X175669D01*
X205118Y61024D02*
Y61221D01*
X214567Y55709D02*
Y59153D01*
X212008Y55709D02*
Y61008D01*
X209449Y55709D02*
Y60532D01*
X211910Y107138D02*
X212114Y107343D01*
Y111693D01*
X214469Y107138D02*
Y110531D01*
X209350Y107138D02*
X209449Y107236D01*
X206791Y107138D02*
Y111221D01*
X205512Y112500D02*
X206791Y111221D01*
X204724Y78642D02*
X206791Y80709D01*
X107480Y85965D02*
X115354D01*
X123425Y73366D02*
Y80555D01*
X115354Y85965D02*
X118228Y83091D01*
X123228Y80752D02*
X123425Y80555D01*
X118228Y80752D02*
Y83091D01*
X72973Y32146D02*
X96409D01*
X58661Y46457D02*
X72973Y32146D01*
X80858Y54003D02*
X81233Y54378D01*
X96413D01*
X86803Y64378D02*
X96413D01*
X76583Y56882D02*
X96413D01*
X66142Y67323D02*
X76583Y56882D01*
X80709Y70473D02*
X86803Y64378D01*
X62598Y66535D02*
X72441Y56693D01*
X67323Y57087D02*
X68504Y55905D01*
X57480Y54331D02*
X63779D01*
X91228Y66882D02*
X96413D01*
X84882Y73228D02*
X91228Y66882D01*
X65748Y73228D02*
X84882D01*
X58952Y63386D02*
X61961D01*
X48787Y31465D02*
Y53221D01*
X58724Y60630D02*
X64567D01*
X50575Y27347D02*
Y52481D01*
X57709Y57087D02*
X67323D01*
X52362Y17717D02*
Y51740D01*
X57709Y57087D01*
X50575Y52481D02*
X58724Y60630D01*
X48787Y53221D02*
X58952Y63386D01*
X54331Y51181D02*
X57480Y54331D01*
X54331Y32677D02*
Y51181D01*
X33465Y19291D02*
X36614D01*
X101319Y37146D02*
X101575Y37402D01*
X96409Y37146D02*
X101319D01*
X54331Y32677D02*
X66929Y20079D01*
X36614Y19291D02*
X48787Y31465D01*
X60630Y9449D02*
X62598D01*
X52362Y17717D02*
X60630Y9449D01*
X32677D02*
X50575Y27347D01*
X29803Y9449D02*
X32677D01*
X142520Y43150D02*
X144823Y40846D01*
X152535D01*
X147716Y51083D02*
X152535D01*
X147618Y43406D02*
X152535D01*
X149345Y45965D02*
X152535D01*
X204967Y27462D02*
X206890Y29384D01*
X175669Y45965D02*
X179232D01*
X180174Y40846D02*
X180765Y40256D01*
X175669Y40846D02*
X180174D01*
X175669Y43406D02*
X180610D01*
X209705Y22404D02*
X212008Y24707D01*
Y32575D01*
X206890Y29384D02*
Y32575D01*
X209449Y27657D02*
Y32575D01*
X201772Y27756D02*
Y32575D01*
X210531Y73917D02*
X211910Y75295D01*
X206791Y80709D02*
Y84004D01*
X211910Y75295D02*
Y84004D01*
X49740Y96905D02*
X51720Y98886D01*
Y102610D01*
X49945Y104386D02*
X51720Y102610D01*
X48031Y104386D02*
X49945D01*
D17*
X128740Y73366D02*
D03*
X135433D02*
D03*
X124921Y108799D02*
D03*
X118228D02*
D03*
X116732Y73366D02*
D03*
X123425D02*
D03*
X82284Y25984D02*
D03*
X88976D02*
D03*
X111614Y21850D02*
D03*
X118307D02*
D03*
X123819Y47441D02*
D03*
X117126D02*
D03*
X96063Y47244D02*
D03*
X89370D02*
D03*
X220374Y13976D02*
D03*
X213681D02*
D03*
X209705Y22404D02*
D03*
X203012D02*
D03*
X220276Y66831D02*
D03*
X213583D02*
D03*
X209606Y73917D02*
D03*
X202913D02*
D03*
D23*
X135039Y15354D02*
D03*
X140945D02*
D03*
Y22441D02*
D03*
X135039D02*
D03*
D24*
X135039Y95807D02*
D03*
Y102500D02*
D03*
X107480Y85965D02*
D03*
Y92658D02*
D03*
X101575Y85965D02*
D03*
Y92658D02*
D03*
X133858Y32874D02*
D03*
Y39567D02*
D03*
X142520Y43150D02*
D03*
Y49843D02*
D03*
X64567Y89370D02*
D03*
Y96063D02*
D03*
X38976Y104134D02*
D03*
Y97441D02*
D03*
D62*
X135630Y26416D02*
X136811Y27597D01*
X135630Y22441D02*
Y26416D01*
Y8465D02*
Y22441D01*
X63441Y96905D02*
X65748Y99213D01*
X31870Y82480D02*
X38118D01*
X31299Y94705D02*
X46476D01*
X47835Y96063D01*
X31299Y83051D02*
X31870Y82480D01*
X135039Y25825D02*
X135630Y26416D01*
Y26476D01*
Y8465D02*
X135728Y8366D01*
X135039Y22441D02*
Y25825D01*
X114961Y109449D02*
X118228Y106181D01*
X111417Y109449D02*
X114961D01*
X118228Y106181D02*
Y108799D01*
Y102106D02*
Y106181D01*
X128228Y80752D02*
Y102106D01*
X65748Y100000D02*
Y103543D01*
Y99213D02*
Y100000D01*
X58346Y96905D02*
X63441D01*
D63*
X133957Y28150D02*
X138287D01*
X134903Y25825D02*
X135039D01*
X132579Y28150D02*
X133957D01*
X138287D02*
X138681Y27756D01*
X132579Y28150D02*
X134903Y25825D01*
X133957Y28150D02*
X135630Y26476D01*
D65*
X165974Y86191D02*
X167913Y84252D01*
X132130Y92658D02*
X159508D01*
X129921Y90449D02*
X132130Y92658D01*
X159508D02*
X165974Y86191D01*
X129921Y90449D02*
Y95413D01*
D68*
X86063Y9449D02*
D03*
X52598D02*
D03*
X19803D02*
D03*
D69*
X91063Y19449D02*
D03*
X96063Y9449D02*
D03*
X101063Y19449D02*
D03*
X57598D02*
D03*
X62598Y9449D02*
D03*
X67598Y19449D02*
D03*
X24803D02*
D03*
X29803Y9449D02*
D03*
X34803Y19449D02*
D03*
D70*
X80551Y16535D02*
D03*
X47087D02*
D03*
X14291D02*
D03*
D71*
X153642Y62992D02*
D03*
X192520Y84252D02*
D03*
D72*
X163484Y62992D02*
D03*
X187402Y60236D02*
D03*
X182677Y84252D02*
D03*
D73*
X187402Y50394D02*
D03*
D74*
X22500Y103815D02*
D03*
Y74484D02*
D03*
D75*
X7539Y104405D02*
D03*
Y73894D02*
D03*
D76*
X140728Y8366D02*
D03*
X135728D02*
D03*
X127067Y18012D02*
D03*
X36870Y37480D02*
D03*
Y32480D02*
D03*
X31870Y37480D02*
D03*
Y32480D02*
D03*
X26870Y37480D02*
D03*
Y32480D02*
D03*
X21870Y37480D02*
D03*
Y32480D02*
D03*
X16870Y37480D02*
D03*
D77*
X130728Y8366D02*
D03*
X16870Y32480D02*
D03*
D78*
X127067Y23012D02*
D03*
D79*
X22933Y80610D02*
D03*
X17869Y83661D02*
D03*
X20857Y56988D02*
D03*
X42579Y8268D02*
D03*
X76357Y54175D02*
D03*
X56348Y91634D02*
D03*
X38118Y82480D02*
D03*
X183957Y34350D02*
D03*
X181201Y36713D02*
D03*
X212614Y61614D02*
D03*
X198721Y87697D02*
D03*
X205118Y78642D02*
D03*
X201575D02*
D03*
X156496Y79429D02*
D03*
X44094Y100394D02*
D03*
X101969Y42126D02*
D03*
X40551Y64862D02*
D03*
X38118Y75295D02*
D03*
X132579Y28150D02*
D03*
X111417Y26209D02*
D03*
X118701Y18504D02*
D03*
X138681Y27756D02*
D03*
X137992Y31791D02*
D03*
X100000Y46457D02*
D03*
X144291Y22343D02*
D03*
Y14614D02*
D03*
X135630Y26476D02*
D03*
X29331Y72273D02*
D03*
X49606Y69628D02*
D03*
X85827Y34941D02*
D03*
X101870Y12992D02*
D03*
X69685Y10433D02*
D03*
X16870Y49508D02*
D03*
X7480Y59744D02*
D03*
X7776Y22343D02*
D03*
X9252Y35630D02*
D03*
X10630Y94095D02*
D03*
X11024Y84252D02*
D03*
X176772Y109744D02*
D03*
X230217Y110728D02*
D03*
X214621Y6201D02*
D03*
X204528Y6004D02*
D03*
X193307Y6920D02*
D03*
X200787Y62008D02*
D03*
X80709Y59842D02*
D03*
X230709Y61417D02*
D03*
Y14173D02*
D03*
X195275Y108661D02*
D03*
X189370Y96850D02*
D03*
X177559D02*
D03*
X118504D02*
D03*
X100787Y108661D02*
D03*
X212795Y112795D02*
D03*
X216240Y113779D02*
D03*
X209252Y113345D02*
D03*
X201083Y95669D02*
D03*
X209154Y60827D02*
D03*
X216240D02*
D03*
X200689Y48130D02*
D03*
X112922Y74073D02*
D03*
X147153Y43906D02*
D03*
X147054Y47449D02*
D03*
X143405Y52811D02*
D03*
X147173Y51181D02*
D03*
X142224Y79035D02*
D03*
X135236Y78347D02*
D03*
X139567Y72835D02*
D03*
X220866Y112598D02*
D03*
X219291Y89173D02*
D03*
X216535Y94488D02*
D03*
X211516Y94193D02*
D03*
X206988Y94095D02*
D03*
X220276Y9744D02*
D03*
X224457Y13780D02*
D03*
X224803Y66634D02*
D03*
X219980Y61516D02*
D03*
X201181Y38287D02*
D03*
X218701Y37894D02*
D03*
X206004Y44685D02*
D03*
X211614Y44390D02*
D03*
X216535Y44783D02*
D03*
X127461Y50197D02*
D03*
X165059Y27756D02*
D03*
X84646Y29232D02*
D03*
X183268Y40256D02*
D03*
X164961Y46457D02*
D03*
X139941Y52658D02*
D03*
X112500Y61221D02*
D03*
Y53740D02*
D03*
X113779Y47209D02*
D03*
X136417Y52811D02*
D03*
X132972Y52756D02*
D03*
X152461Y18898D02*
D03*
X228764Y103248D02*
D03*
X229157Y98327D02*
D03*
X228862Y93307D02*
D03*
X224382Y100886D02*
D03*
X224433Y94980D02*
D03*
X233685Y95079D02*
D03*
X233784Y101279D02*
D03*
X228740Y52854D02*
D03*
X229134Y47933D02*
D03*
X228839Y42913D02*
D03*
X224358Y50492D02*
D03*
X224410Y44587D02*
D03*
X233661Y44685D02*
D03*
X233760Y50886D02*
D03*
X228839Y31693D02*
D03*
X229232Y26772D02*
D03*
X228937Y21752D02*
D03*
X224457Y29331D02*
D03*
X224508Y23425D02*
D03*
X233760Y23524D02*
D03*
X233858Y29724D02*
D03*
X229921Y74606D02*
D03*
X229528Y79528D02*
D03*
X229823Y84547D02*
D03*
X234303Y76968D02*
D03*
X234252Y82874D02*
D03*
X225000Y82776D02*
D03*
X224902Y76575D02*
D03*
X171827Y13780D02*
D03*
X176748Y14173D02*
D03*
X181768Y13878D02*
D03*
X174189Y9398D02*
D03*
X180095Y9449D02*
D03*
X179996Y18701D02*
D03*
X173795Y18799D02*
D03*
X158661Y18799D02*
D03*
X158760Y9547D02*
D03*
X152854Y9496D02*
D03*
X160433Y13976D02*
D03*
X155413Y14272D02*
D03*
X150492Y13878D02*
D03*
X180787Y43701D02*
D03*
X158169Y33760D02*
D03*
X164567Y41732D02*
D03*
X164272Y36496D02*
D03*
X205118Y61221D02*
D03*
X165157Y86122D02*
D03*
X168799Y86221D02*
D03*
X163386Y83602D02*
D03*
X166929D02*
D03*
X170472D02*
D03*
X151181Y100646D02*
D03*
X146457Y101969D02*
D03*
X151575Y106299D02*
D03*
X144488Y110630D02*
D03*
X149213D02*
D03*
X146850Y106299D02*
D03*
X112598Y110630D02*
D03*
X111811Y107480D02*
D03*
X109449Y109843D02*
D03*
X181398Y47244D02*
D03*
X205512Y112500D02*
D03*
X112598Y69291D02*
D03*
X113386Y42618D02*
D03*
X87008Y50394D02*
D03*
X80858Y54003D02*
D03*
X80709Y70473D02*
D03*
X72441Y56693D02*
D03*
X68504Y55905D02*
D03*
X63779Y54331D02*
D03*
X101575Y68504D02*
D03*
X66142Y67323D02*
D03*
X63158Y70079D02*
D03*
X65748Y73228D02*
D03*
X57480Y50000D02*
D03*
X58661Y46457D02*
D03*
X101575Y37402D02*
D03*
X64567Y60630D02*
D03*
X61961Y63386D02*
D03*
X87402Y82677D02*
D03*
X91732Y41339D02*
D03*
X208760Y27213D02*
D03*
X205217D02*
D03*
X201673D02*
D03*
X196949Y20669D02*
D03*
X197083Y17520D02*
D03*
X196949Y14370D02*
D03*
Y23819D02*
D03*
X196457Y74705D02*
D03*
Y65256D02*
D03*
X196591Y68405D02*
D03*
X196457Y71555D02*
D03*
X41732Y31496D02*
D03*
X42126Y38976D02*
D03*
X208661Y78642D02*
D03*
X101181Y96988D02*
D03*
X112992Y96988D02*
D03*
X107480Y96988D02*
D03*
X135039Y106831D02*
D03*
X142126Y106437D02*
D03*
X67598Y77165D02*
D03*
X34055Y110630D02*
D03*
X65748Y103543D02*
D03*
X72047Y100000D02*
D03*
X10531Y42421D02*
D03*
X39862Y49508D02*
D03*
X49764Y91339D02*
D03*
X49606Y76772D02*
D03*
X61961Y77165D02*
D03*
X69685Y87402D02*
D03*
X65748Y100000D02*
D03*
D80*
X150000Y89508D02*
D03*
Y83602D02*
D03*
X157087Y89173D02*
D03*
Y83268D02*
D03*
X135039Y89508D02*
D03*
Y83602D02*
D03*
X142520Y89508D02*
D03*
Y83602D02*
D03*
Y96201D02*
D03*
Y102106D02*
D03*
D81*
X128228Y80752D02*
D03*
X123228D02*
D03*
X118228D02*
D03*
X113228D02*
D03*
Y102106D02*
D03*
X118228D02*
D03*
X123228D02*
D03*
X128228D02*
D03*
D82*
X96409Y27146D02*
D03*
Y32146D02*
D03*
Y37146D02*
D03*
Y42146D02*
D03*
X117764D02*
D03*
Y37146D02*
D03*
Y32146D02*
D03*
Y27146D02*
D03*
D83*
X117760Y51882D02*
D03*
Y54378D02*
D03*
Y56882D02*
D03*
Y59378D02*
D03*
Y61882D02*
D03*
Y64378D02*
D03*
Y66882D02*
D03*
Y69378D02*
D03*
X96413D02*
D03*
Y66882D02*
D03*
Y64378D02*
D03*
Y61882D02*
D03*
Y59378D02*
D03*
Y56882D02*
D03*
Y54378D02*
D03*
Y51882D02*
D03*
D84*
X164102Y42126D02*
D03*
D85*
X152535Y51083D02*
D03*
Y48524D02*
D03*
Y45965D02*
D03*
Y43406D02*
D03*
Y40846D02*
D03*
Y38287D02*
D03*
Y35728D02*
D03*
Y33169D02*
D03*
X175669D02*
D03*
Y35728D02*
D03*
Y38287D02*
D03*
Y40846D02*
D03*
Y43406D02*
D03*
Y45965D02*
D03*
Y48524D02*
D03*
Y51083D02*
D03*
D86*
X210728Y44142D02*
D03*
X210630Y95571D02*
D03*
D87*
X201772Y32575D02*
D03*
X204331D02*
D03*
X206890D02*
D03*
X209449D02*
D03*
X212008D02*
D03*
X214567D02*
D03*
X217126D02*
D03*
X219685D02*
D03*
Y55709D02*
D03*
X217126D02*
D03*
X214567D02*
D03*
X212008D02*
D03*
X209449D02*
D03*
X206890D02*
D03*
X204331D02*
D03*
X201772D02*
D03*
X201673Y84004D02*
D03*
X204232D02*
D03*
X206791D02*
D03*
X209350D02*
D03*
X211910D02*
D03*
X214469D02*
D03*
X217028D02*
D03*
X219587D02*
D03*
Y107138D02*
D03*
X217028D02*
D03*
X214469D02*
D03*
X211910D02*
D03*
X209350D02*
D03*
X206791D02*
D03*
X204232D02*
D03*
X201673D02*
D03*
D88*
X48031Y96905D02*
D03*
Y100646D02*
D03*
Y104386D02*
D03*
X58346D02*
D03*
Y96905D02*
D03*
D89*
X31299Y94705D02*
D03*
Y83051D02*
D03*
M02*
