G04*
G04 #@! TF.GenerationSoftware,Altium Limited,Altium Designer,18.1.9 (240)*
G04*
G04 Layer_Color=128*
%FSLAX25Y25*%
%MOIN*%
G70*
G01*
G75*
%ADD17R,0.03937X0.04331*%
%ADD23R,0.04331X0.05512*%
%ADD24R,0.04331X0.03937*%
%ADD80R,0.05512X0.04331*%
%ADD81R,0.02559X0.06004*%
%ADD82R,0.06004X0.02559*%
%ADD83R,0.06016X0.01713*%
%ADD84R,0.09685X0.13976*%
%ADD85R,0.05807X0.01772*%
%ADD86R,0.13976X0.09685*%
%ADD87R,0.01772X0.05807*%
%ADD88R,0.04803X0.02362*%
%ADD89R,0.06890X0.04488*%
D17*
X128740Y73366D02*
D03*
X135433D02*
D03*
X124921Y108799D02*
D03*
X118228D02*
D03*
X116732Y73366D02*
D03*
X123425D02*
D03*
X82284Y25984D02*
D03*
X88976D02*
D03*
X111614Y21850D02*
D03*
X118307D02*
D03*
X123819Y47441D02*
D03*
X117126D02*
D03*
X96063Y47244D02*
D03*
X89370D02*
D03*
X220374Y13976D02*
D03*
X213681D02*
D03*
X209705Y22404D02*
D03*
X203012D02*
D03*
X220276Y66831D02*
D03*
X213583D02*
D03*
X209606Y73917D02*
D03*
X202913D02*
D03*
D23*
X135039Y15354D02*
D03*
X140945D02*
D03*
Y22441D02*
D03*
X135039D02*
D03*
D24*
X135039Y95807D02*
D03*
Y102500D02*
D03*
X107480Y85965D02*
D03*
Y92658D02*
D03*
X101575Y85965D02*
D03*
Y92658D02*
D03*
X133858Y32874D02*
D03*
Y39567D02*
D03*
X142520Y43150D02*
D03*
Y49843D02*
D03*
X64567Y89370D02*
D03*
Y96063D02*
D03*
X38976Y104134D02*
D03*
Y97441D02*
D03*
D80*
X150000Y89508D02*
D03*
Y83602D02*
D03*
X157087Y89173D02*
D03*
Y83268D02*
D03*
X135039Y89508D02*
D03*
Y83602D02*
D03*
X142520Y89508D02*
D03*
Y83602D02*
D03*
Y96201D02*
D03*
Y102106D02*
D03*
D81*
X128228Y80752D02*
D03*
X123228D02*
D03*
X118228D02*
D03*
X113228D02*
D03*
Y102106D02*
D03*
X118228D02*
D03*
X123228D02*
D03*
X128228D02*
D03*
D82*
X96409Y27146D02*
D03*
Y32146D02*
D03*
Y37146D02*
D03*
Y42146D02*
D03*
X117764D02*
D03*
Y37146D02*
D03*
Y32146D02*
D03*
Y27146D02*
D03*
D83*
X117760Y51882D02*
D03*
Y54378D02*
D03*
Y56882D02*
D03*
Y59378D02*
D03*
Y61882D02*
D03*
Y64378D02*
D03*
Y66882D02*
D03*
Y69378D02*
D03*
X96413D02*
D03*
Y66882D02*
D03*
Y64378D02*
D03*
Y61882D02*
D03*
Y59378D02*
D03*
Y56882D02*
D03*
Y54378D02*
D03*
Y51882D02*
D03*
D84*
X164102Y42126D02*
D03*
D85*
X152535Y51083D02*
D03*
Y48524D02*
D03*
Y45965D02*
D03*
Y43406D02*
D03*
Y40846D02*
D03*
Y38287D02*
D03*
Y35728D02*
D03*
Y33169D02*
D03*
X175669D02*
D03*
Y35728D02*
D03*
Y38287D02*
D03*
Y40846D02*
D03*
Y43406D02*
D03*
Y45965D02*
D03*
Y48524D02*
D03*
Y51083D02*
D03*
D86*
X210728Y44142D02*
D03*
X210630Y95571D02*
D03*
D87*
X201772Y32575D02*
D03*
X204331D02*
D03*
X206890D02*
D03*
X209449D02*
D03*
X212008D02*
D03*
X214567D02*
D03*
X217126D02*
D03*
X219685D02*
D03*
Y55709D02*
D03*
X217126D02*
D03*
X214567D02*
D03*
X212008D02*
D03*
X209449D02*
D03*
X206890D02*
D03*
X204331D02*
D03*
X201772D02*
D03*
X201673Y84004D02*
D03*
X204232D02*
D03*
X206791D02*
D03*
X209350D02*
D03*
X211910D02*
D03*
X214469D02*
D03*
X217028D02*
D03*
X219587D02*
D03*
Y107138D02*
D03*
X217028D02*
D03*
X214469D02*
D03*
X211910D02*
D03*
X209350D02*
D03*
X206791D02*
D03*
X204232D02*
D03*
X201673D02*
D03*
D88*
X48031Y96905D02*
D03*
Y100646D02*
D03*
Y104386D02*
D03*
X58346D02*
D03*
Y96905D02*
D03*
D89*
X31299Y94705D02*
D03*
Y83051D02*
D03*
M02*
