G04*
G04 #@! TF.GenerationSoftware,Altium Limited,Altium Designer,18.1.9 (240)*
G04*
G04 Layer_Color=16711935*
%FSLAX25Y25*%
%MOIN*%
G70*
G01*
G75*
%ADD33R,0.04724X0.05118*%
%ADD39R,0.05118X0.06299*%
%ADD40R,0.05118X0.04724*%
%ADD49C,0.00787*%
%ADD50R,0.06134X0.06134*%
%ADD51C,0.06134*%
%ADD52C,0.06890*%
%ADD53R,0.05315X0.05315*%
%ADD54C,0.05315*%
%ADD55R,0.05315X0.05315*%
%ADD56O,0.08661X0.06496*%
%ADD57O,0.07874X0.05315*%
%ADD58C,0.04724*%
%ADD59R,0.04724X0.04724*%
%ADD60R,0.04724X0.04724*%
%ADD90R,0.06299X0.05118*%
%ADD91R,0.03347X0.06791*%
%ADD92R,0.06791X0.03347*%
%ADD93R,0.06803X0.02500*%
%ADD94R,0.10472X0.14764*%
%ADD95R,0.06594X0.02559*%
%ADD96R,0.14764X0.10472*%
%ADD97R,0.02559X0.06594*%
%ADD98R,0.05591X0.03150*%
%ADD99R,0.07677X0.05276*%
D33*
X128740Y73366D02*
D03*
X135433D02*
D03*
X124921Y108799D02*
D03*
X118228D02*
D03*
X116732Y73366D02*
D03*
X123425D02*
D03*
X82284Y25984D02*
D03*
X88976D02*
D03*
X111614Y21850D02*
D03*
X118307D02*
D03*
X123819Y47441D02*
D03*
X117126D02*
D03*
X96063Y47244D02*
D03*
X89370D02*
D03*
X220374Y13976D02*
D03*
X213681D02*
D03*
X209705Y22404D02*
D03*
X203012D02*
D03*
X220276Y66831D02*
D03*
X213583D02*
D03*
X209606Y73917D02*
D03*
X202913D02*
D03*
D39*
X135039Y15354D02*
D03*
X140945D02*
D03*
Y22441D02*
D03*
X135039D02*
D03*
D40*
X135039Y95807D02*
D03*
Y102500D02*
D03*
X107480Y85965D02*
D03*
Y92658D02*
D03*
X101575Y85965D02*
D03*
Y92658D02*
D03*
X133858Y32874D02*
D03*
Y39567D02*
D03*
X142520Y43150D02*
D03*
Y49843D02*
D03*
X64567Y89370D02*
D03*
Y96063D02*
D03*
X38976Y104134D02*
D03*
Y97441D02*
D03*
D49*
X114173Y7874D02*
D03*
X185039Y110236D02*
D03*
X78740D02*
D03*
X18366Y98992D02*
D03*
Y79307D02*
D03*
D50*
X86063Y9449D02*
D03*
X52598D02*
D03*
X19803D02*
D03*
D51*
X91063Y19449D02*
D03*
X96063Y9449D02*
D03*
X101063Y19449D02*
D03*
X57598D02*
D03*
X62598Y9449D02*
D03*
X67598Y19449D02*
D03*
X24803D02*
D03*
X29803Y9449D02*
D03*
X34803Y19449D02*
D03*
D52*
X80551Y16535D02*
D03*
X47087D02*
D03*
X14291D02*
D03*
D53*
X153642Y62992D02*
D03*
X192520Y84252D02*
D03*
D54*
X163484Y62992D02*
D03*
X187402Y60236D02*
D03*
X182677Y84252D02*
D03*
D55*
X187402Y50394D02*
D03*
D56*
X22500Y103815D02*
D03*
Y74484D02*
D03*
D57*
X7539Y104405D02*
D03*
Y73894D02*
D03*
D58*
X140728Y8366D02*
D03*
X135728D02*
D03*
X127067Y18012D02*
D03*
X36870Y37480D02*
D03*
Y32480D02*
D03*
X31870Y37480D02*
D03*
Y32480D02*
D03*
X26870Y37480D02*
D03*
Y32480D02*
D03*
X21870Y37480D02*
D03*
Y32480D02*
D03*
X16870Y37480D02*
D03*
D59*
X130728Y8366D02*
D03*
X16870Y32480D02*
D03*
D60*
X127067Y23012D02*
D03*
D90*
X150000Y89508D02*
D03*
Y83602D02*
D03*
X157087Y89173D02*
D03*
Y83268D02*
D03*
X135039Y89508D02*
D03*
Y83602D02*
D03*
X142520Y89508D02*
D03*
Y83602D02*
D03*
Y96201D02*
D03*
Y102106D02*
D03*
D91*
X128228Y80752D02*
D03*
X123228D02*
D03*
X118228D02*
D03*
X113228D02*
D03*
Y102106D02*
D03*
X118228D02*
D03*
X123228D02*
D03*
X128228D02*
D03*
D92*
X96409Y27146D02*
D03*
Y32146D02*
D03*
Y37146D02*
D03*
Y42146D02*
D03*
X117764D02*
D03*
Y37146D02*
D03*
Y32146D02*
D03*
Y27146D02*
D03*
D93*
X117760Y51882D02*
D03*
Y54378D02*
D03*
Y56882D02*
D03*
Y59378D02*
D03*
Y61882D02*
D03*
Y64378D02*
D03*
Y66882D02*
D03*
Y69378D02*
D03*
X96413D02*
D03*
Y66882D02*
D03*
Y64378D02*
D03*
Y61882D02*
D03*
Y59378D02*
D03*
Y56882D02*
D03*
Y54378D02*
D03*
Y51882D02*
D03*
D94*
X164102Y42126D02*
D03*
D95*
X152535Y51083D02*
D03*
Y48524D02*
D03*
Y45965D02*
D03*
Y43406D02*
D03*
Y40846D02*
D03*
Y38287D02*
D03*
Y35728D02*
D03*
Y33169D02*
D03*
X175669D02*
D03*
Y35728D02*
D03*
Y38287D02*
D03*
Y40846D02*
D03*
Y43406D02*
D03*
Y45965D02*
D03*
Y48524D02*
D03*
Y51083D02*
D03*
D96*
X210728Y44142D02*
D03*
X210630Y95571D02*
D03*
D97*
X201772Y32575D02*
D03*
X204331D02*
D03*
X206890D02*
D03*
X209449D02*
D03*
X212008D02*
D03*
X214567D02*
D03*
X217126D02*
D03*
X219685D02*
D03*
Y55709D02*
D03*
X217126D02*
D03*
X214567D02*
D03*
X212008D02*
D03*
X209449D02*
D03*
X206890D02*
D03*
X204331D02*
D03*
X201772D02*
D03*
X201673Y84004D02*
D03*
X204232D02*
D03*
X206791D02*
D03*
X209350D02*
D03*
X211910D02*
D03*
X214469D02*
D03*
X217028D02*
D03*
X219587D02*
D03*
Y107138D02*
D03*
X217028D02*
D03*
X214469D02*
D03*
X211910D02*
D03*
X209350D02*
D03*
X206791D02*
D03*
X204232D02*
D03*
X201673D02*
D03*
D98*
X48031Y96905D02*
D03*
Y100646D02*
D03*
Y104386D02*
D03*
X58346D02*
D03*
Y96905D02*
D03*
D99*
X31299Y94705D02*
D03*
Y83051D02*
D03*
M02*
