G04*
G04 #@! TF.GenerationSoftware,Altium Limited,Altium Designer,18.1.9 (240)*
G04*
G04 Layer_Physical_Order=2*
G04 Layer_Color=16776960*
%FSLAX25Y25*%
%MOIN*%
G70*
G01*
G75*
%ADD12C,0.01575*%
%ADD63C,0.02362*%
%ADD68R,0.05347X0.05347*%
%ADD71R,0.04528X0.04528*%
%ADD73R,0.04528X0.04528*%
%ADD76C,0.03937*%
%ADD79C,0.02756*%
G36*
X239272Y108563D02*
Y11024D01*
X231299Y3051D01*
X117117D01*
X116947Y3551D01*
X117824Y4224D01*
X118644Y5293D01*
X119160Y6538D01*
X119335Y7874D01*
X119160Y9210D01*
X118644Y10455D01*
X117824Y11524D01*
X116754Y12345D01*
X115509Y12860D01*
X114173Y13036D01*
X112837Y12860D01*
X111592Y12345D01*
X110523Y11524D01*
X109703Y10455D01*
X109653Y10337D01*
X109153Y10436D01*
Y70079D01*
X89862Y89370D01*
Y106201D01*
X96161Y112500D01*
X98327Y114665D01*
X181626D01*
X181787Y114192D01*
X181389Y113886D01*
X180569Y112817D01*
X180053Y111572D01*
X179877Y110236D01*
X180053Y108900D01*
X180569Y107655D01*
X181389Y106586D01*
X182458Y105766D01*
X183703Y105250D01*
X185039Y105074D01*
X186375Y105250D01*
X187620Y105766D01*
X188690Y106586D01*
X189510Y107655D01*
X190026Y108900D01*
X190202Y110236D01*
X190026Y111572D01*
X189510Y112817D01*
X188690Y113886D01*
X188292Y114192D01*
X188452Y114665D01*
X203955D01*
X204107Y114165D01*
X203951Y114061D01*
X203472Y113345D01*
X203304Y112500D01*
X203472Y111655D01*
X203951Y110939D01*
X204667Y110460D01*
X205512Y110292D01*
X206357Y110460D01*
X207073Y110939D01*
X207397Y111424D01*
X207581Y111649D01*
X208038Y111552D01*
X208407Y111305D01*
X209252Y111137D01*
X209514Y111189D01*
X209760Y110728D01*
X200549Y101518D01*
X200114Y100866D01*
X199961Y100098D01*
Y97524D01*
X199522Y97230D01*
X199043Y96514D01*
X198875Y95669D01*
X199043Y94824D01*
X199522Y94108D01*
X199961Y93814D01*
Y93149D01*
X162795D01*
X162027Y92996D01*
X161376Y92561D01*
X126041Y57226D01*
X125606Y56575D01*
X125454Y55807D01*
Y51091D01*
X125421Y51042D01*
X125253Y50197D01*
X125421Y49352D01*
X125900Y48636D01*
X126616Y48157D01*
X127461Y47989D01*
X128305Y48157D01*
X129022Y48636D01*
X129500Y49352D01*
X129668Y50197D01*
X130131Y50436D01*
X130228Y50340D01*
X130230Y50338D01*
X130232Y50335D01*
X130492Y50164D01*
X130750Y49993D01*
X130753Y49993D01*
X130755Y49991D01*
X131060Y49933D01*
X131365Y49873D01*
X131368Y49874D01*
X131371Y49873D01*
X144402Y49969D01*
X144703Y50031D01*
X145004Y50091D01*
X145430Y49893D01*
X145579Y49669D01*
X145635Y49496D01*
Y49105D01*
X145493Y49010D01*
X145015Y48294D01*
X144847Y47449D01*
X145015Y46604D01*
X145493Y45888D01*
X145592Y45822D01*
Y45467D01*
X145113Y44751D01*
X144945Y43906D01*
X145113Y43061D01*
X145592Y42345D01*
X146308Y41866D01*
X147153Y41698D01*
X147998Y41866D01*
X148714Y42345D01*
X149193Y43061D01*
X149361Y43906D01*
X149193Y44751D01*
X148714Y45467D01*
X148616Y45533D01*
Y45888D01*
X149094Y46604D01*
X149262Y47449D01*
X149094Y48294D01*
X148648Y48961D01*
X148593Y49134D01*
Y49525D01*
X148734Y49620D01*
X149213Y50336D01*
X149257Y50560D01*
X177189Y50560D01*
X179479Y48270D01*
X179358Y48089D01*
X179190Y47244D01*
X179358Y46399D01*
X179836Y45683D01*
Y45670D01*
X179226Y45262D01*
X178748Y44546D01*
X178580Y43701D01*
X178748Y42856D01*
X179078Y42362D01*
X178811Y41862D01*
X177559D01*
X177559Y41862D01*
X176945Y41739D01*
X176424Y41391D01*
X164980Y29948D01*
X164214Y29796D01*
X163565Y29362D01*
X140176D01*
X139526Y29796D01*
X138681Y29964D01*
X137836Y29796D01*
X137120Y29317D01*
X136641Y28601D01*
X136638Y28584D01*
X136475Y28516D01*
X135630Y28684D01*
X134785Y28516D01*
X134707Y28548D01*
X134618Y28995D01*
X134140Y29711D01*
X133424Y30189D01*
X132579Y30357D01*
X131734Y30189D01*
X131018Y29711D01*
X130539Y28995D01*
X130371Y28150D01*
X130539Y27305D01*
X131018Y26588D01*
X131734Y26110D01*
X132579Y25942D01*
X133424Y26110D01*
X133502Y26078D01*
X133590Y25631D01*
X134069Y24915D01*
X134785Y24437D01*
X135630Y24269D01*
X136475Y24437D01*
X137191Y24915D01*
X137670Y25631D01*
X137673Y25649D01*
X137836Y25716D01*
X138681Y25548D01*
X139526Y25716D01*
X140176Y26150D01*
X163565D01*
X164214Y25716D01*
X165059Y25548D01*
X165904Y25716D01*
X166620Y26195D01*
X167099Y26911D01*
X167251Y27677D01*
X178224Y38650D01*
X179372D01*
X179557Y38150D01*
X179161Y37558D01*
X178993Y36713D01*
X179161Y35868D01*
X179640Y35151D01*
X180356Y34673D01*
X181201Y34505D01*
X182046Y34673D01*
X182762Y35151D01*
X183240Y35868D01*
X183409Y36713D01*
X183240Y37558D01*
X183221Y37586D01*
X183485Y38091D01*
X184113Y38216D01*
X184705Y38612D01*
X185205Y38427D01*
X185205Y15059D01*
X185328Y14445D01*
X185676Y13924D01*
X185676Y13924D01*
X188333Y11266D01*
X188854Y10918D01*
X189469Y10796D01*
X189469Y10796D01*
X197539D01*
X198154Y10918D01*
X198675Y11266D01*
X198675Y11266D01*
X199561Y12152D01*
X199909Y12673D01*
X200031Y13287D01*
X200031Y13287D01*
Y25104D01*
X200531Y25372D01*
X200828Y25173D01*
X201673Y25005D01*
X202518Y25173D01*
X203234Y25651D01*
X203655D01*
X204372Y25173D01*
X205217Y25005D01*
X206061Y25173D01*
X206778Y25651D01*
X207199D01*
X207915Y25173D01*
X208760Y25005D01*
X209605Y25173D01*
X210321Y25651D01*
X210800Y26368D01*
X210968Y27213D01*
X210800Y28058D01*
X210321Y28774D01*
X209605Y29252D01*
X208760Y29420D01*
X207915Y29252D01*
X207199Y28774D01*
X206778D01*
X206061Y29252D01*
X205217Y29420D01*
X204372Y29252D01*
X203655Y28774D01*
X203234D01*
X202518Y29252D01*
X201673Y29420D01*
X200828Y29252D01*
X200531Y29054D01*
X200031Y29321D01*
Y45659D01*
X200417Y45976D01*
X200689Y45922D01*
X201534Y46090D01*
X201583Y46123D01*
X202756D01*
X203524Y46276D01*
X204175Y46711D01*
X214033Y56569D01*
X214468Y57220D01*
X214621Y57988D01*
Y58703D01*
X215121Y58970D01*
X215395Y58787D01*
X216240Y58619D01*
X217085Y58787D01*
X217801Y59266D01*
X218280Y59982D01*
X218448Y60827D01*
X218280Y61672D01*
X217801Y62388D01*
X217085Y62866D01*
X216240Y63034D01*
X215395Y62866D01*
X215121Y62683D01*
X214621Y62951D01*
Y80988D01*
X214468Y81756D01*
X214033Y82407D01*
X203976Y92465D01*
Y99267D01*
X214313Y109604D01*
X214748Y110256D01*
X214901Y111024D01*
Y111540D01*
X215342Y111776D01*
X215395Y111740D01*
X216240Y111572D01*
X217085Y111740D01*
X217801Y112218D01*
X218280Y112935D01*
X218448Y113779D01*
X218371Y114165D01*
X218781Y114665D01*
X233169D01*
X239272Y108563D01*
D02*
G37*
G36*
X75098Y100115D02*
X89173Y85925D01*
X105512Y69587D01*
Y8957D01*
X100886Y4331D01*
X11811D01*
X2854Y13287D01*
Y72836D01*
X3354Y72935D01*
X3595Y72355D01*
X4084Y71718D01*
X4721Y71228D01*
X5463Y70921D01*
X6260Y70816D01*
X8819D01*
X9615Y70921D01*
X10358Y71228D01*
X10995Y71718D01*
X11484Y72355D01*
X11791Y73097D01*
X11896Y73894D01*
X11791Y74690D01*
X11484Y75432D01*
X10995Y76070D01*
X10358Y76559D01*
X9615Y76866D01*
X8819Y76971D01*
X6260D01*
X5463Y76866D01*
X4721Y76559D01*
X4084Y76070D01*
X3595Y75432D01*
X3354Y74852D01*
X2854Y74952D01*
Y103348D01*
X3354Y103447D01*
X3595Y102867D01*
X4084Y102229D01*
X4721Y101740D01*
X5463Y101433D01*
X6260Y101328D01*
X8819D01*
X9615Y101433D01*
X10358Y101740D01*
X10995Y102229D01*
X11484Y102867D01*
X11791Y103609D01*
X11896Y104405D01*
X11791Y105202D01*
X11484Y105944D01*
X10995Y106582D01*
X10358Y107071D01*
X9615Y107378D01*
X8819Y107483D01*
X7250D01*
X7059Y107945D01*
X11417Y112303D01*
X62911Y112303D01*
X75098Y100115D01*
D02*
G37*
G36*
X209589Y81175D02*
X209343Y80714D01*
X208661Y80849D01*
X207817Y80681D01*
X207100Y80203D01*
X206679D01*
X205963Y80681D01*
X205118Y80849D01*
X204273Y80681D01*
X203557Y80203D01*
X203136D01*
X202420Y80681D01*
X201575Y80849D01*
X200730Y80681D01*
X200472Y80509D01*
X200031Y80745D01*
Y85548D01*
X200000Y85703D01*
Y85861D01*
X199940Y86007D01*
X199909Y86162D01*
X199821Y86294D01*
X199760Y86440D01*
X199648Y86552D01*
X199561Y86683D01*
X199429Y86771D01*
X199317Y86883D01*
X199171Y86943D01*
X199040Y87031D01*
X198884Y87062D01*
X198738Y87123D01*
X198502Y87170D01*
X198317Y87293D01*
X198193Y87479D01*
X198126Y87817D01*
X198065Y87963D01*
X198035Y88118D01*
X197947Y88250D01*
X197886Y88396D01*
X197774Y88508D01*
X197686Y88639D01*
X197653Y88673D01*
X197845Y89135D01*
X201629D01*
X209589Y81175D01*
D02*
G37*
G36*
X196551Y87504D02*
X196681Y86852D01*
X197159Y86136D01*
X197876Y85657D01*
X198425Y85548D01*
X198425Y13287D01*
X197539Y12402D01*
X189469D01*
X186811Y15059D01*
X186811Y43209D01*
X183468Y46552D01*
X183605Y47244D01*
X183437Y48089D01*
X182959Y48805D01*
X182243Y49284D01*
X181398Y49452D01*
X180705Y49314D01*
X177854Y52165D01*
X149120Y52165D01*
X148734Y52742D01*
X148018Y53221D01*
X147173Y53389D01*
X146328Y53221D01*
X145612Y52742D01*
X145227Y52165D01*
X144980D01*
X144390Y51575D01*
X131359Y51479D01*
X131004Y51831D01*
Y55315D01*
X154033Y78344D01*
X154666Y78270D01*
X154935Y77868D01*
X155651Y77389D01*
X156496Y77221D01*
X157341Y77389D01*
X158057Y77868D01*
X158536Y78584D01*
X158704Y79429D01*
X158536Y80274D01*
X158057Y80990D01*
X157655Y81259D01*
X157581Y81892D01*
X164272Y88583D01*
X195472D01*
X196551Y87504D01*
D02*
G37*
G36*
X207817Y76602D02*
X208661Y76434D01*
X209506Y76602D01*
X210107Y77003D01*
X210607Y76825D01*
Y63061D01*
X210107Y62794D01*
X209998Y62866D01*
X209154Y63034D01*
X208309Y62866D01*
X207592Y62388D01*
X207568Y62351D01*
X206967D01*
X206679Y62782D01*
X205963Y63260D01*
X205118Y63428D01*
X204273Y63260D01*
X203557Y62782D01*
X203078Y62065D01*
X202910Y61221D01*
X203078Y60376D01*
X203557Y59659D01*
X204273Y59181D01*
X205118Y59013D01*
X205963Y59181D01*
X206679Y59659D01*
X206704Y59696D01*
X207305D01*
X207592Y59266D01*
X208309Y58787D01*
X209154Y58619D01*
X209835Y58754D01*
X210081Y58294D01*
X201925Y50137D01*
X201583D01*
X201534Y50170D01*
X200689Y50338D01*
X200417Y50284D01*
X200031Y50601D01*
Y76539D01*
X200472Y76775D01*
X200730Y76602D01*
X201575Y76434D01*
X202420Y76602D01*
X203136Y77081D01*
X203557D01*
X204273Y76602D01*
X205118Y76434D01*
X205963Y76602D01*
X206679Y77081D01*
X207100D01*
X207817Y76602D01*
D02*
G37*
%LPC*%
G36*
X112598Y112838D02*
X111753Y112670D01*
X111037Y112191D01*
X110665Y111634D01*
X110294Y111882D01*
X109449Y112050D01*
X108604Y111882D01*
X107888Y111404D01*
X107409Y110687D01*
X107241Y109843D01*
X107409Y108998D01*
X107888Y108281D01*
X108604Y107803D01*
X109449Y107635D01*
X109603Y107480D01*
X109771Y106635D01*
X110250Y105919D01*
X110966Y105441D01*
X111811Y105273D01*
X112656Y105441D01*
X113372Y105919D01*
X113851Y106635D01*
X114019Y107480D01*
X113851Y108325D01*
X113602Y108697D01*
X114160Y109069D01*
X114638Y109785D01*
X114806Y110630D01*
X114638Y111475D01*
X114160Y112191D01*
X113443Y112670D01*
X112598Y112838D01*
D02*
G37*
G36*
X228764Y105456D02*
X227919Y105288D01*
X227203Y104809D01*
X226724Y104093D01*
X226556Y103248D01*
X226724Y102403D01*
X227203Y101687D01*
X227919Y101208D01*
X228764Y101040D01*
X229609Y101208D01*
X230325Y101687D01*
X230803Y102403D01*
X230972Y103248D01*
X230803Y104093D01*
X230325Y104809D01*
X229609Y105288D01*
X228764Y105456D01*
D02*
G37*
G36*
X233784Y103487D02*
X232939Y103319D01*
X232222Y102841D01*
X231744Y102124D01*
X231576Y101279D01*
X231744Y100435D01*
X232222Y99718D01*
X232939Y99240D01*
X233784Y99072D01*
X234628Y99240D01*
X235345Y99718D01*
X235823Y100435D01*
X235991Y101279D01*
X235823Y102124D01*
X235345Y102841D01*
X234628Y103319D01*
X233784Y103487D01*
D02*
G37*
G36*
X224382Y103094D02*
X223537Y102926D01*
X222821Y102447D01*
X222342Y101731D01*
X222174Y100886D01*
X222342Y100041D01*
X222821Y99325D01*
X223537Y98846D01*
X224382Y98678D01*
X225227Y98846D01*
X225943Y99325D01*
X226422Y100041D01*
X226590Y100886D01*
X226422Y101731D01*
X225943Y102447D01*
X225227Y102926D01*
X224382Y103094D01*
D02*
G37*
G36*
X229157Y100535D02*
X228313Y100366D01*
X227596Y99888D01*
X227118Y99172D01*
X226950Y98327D01*
X227118Y97482D01*
X227596Y96766D01*
X228313Y96287D01*
X229157Y96119D01*
X230002Y96287D01*
X230719Y96766D01*
X231197Y97482D01*
X231365Y98327D01*
X231197Y99172D01*
X230719Y99888D01*
X230002Y100366D01*
X229157Y100535D01*
D02*
G37*
G36*
X233685Y97286D02*
X232840Y97118D01*
X232124Y96640D01*
X231645Y95924D01*
X231477Y95079D01*
X231645Y94234D01*
X232124Y93518D01*
X232840Y93039D01*
X233685Y92871D01*
X234530Y93039D01*
X235246Y93518D01*
X235725Y94234D01*
X235893Y95079D01*
X235725Y95924D01*
X235246Y96640D01*
X234530Y97118D01*
X233685Y97286D01*
D02*
G37*
G36*
X224433Y97188D02*
X223588Y97020D01*
X222872Y96541D01*
X222393Y95825D01*
X222225Y94980D01*
X222393Y94135D01*
X222872Y93419D01*
X223588Y92941D01*
X224433Y92773D01*
X225278Y92941D01*
X225994Y93419D01*
X226240Y93787D01*
X226711Y93592D01*
X226654Y93307D01*
X226822Y92462D01*
X227301Y91746D01*
X228017Y91267D01*
X228862Y91099D01*
X229707Y91267D01*
X230423Y91746D01*
X230902Y92462D01*
X231070Y93307D01*
X230902Y94152D01*
X230423Y94868D01*
X229707Y95347D01*
X228862Y95515D01*
X228017Y95347D01*
X227301Y94868D01*
X227055Y94500D01*
X226584Y94695D01*
X226641Y94980D01*
X226473Y95825D01*
X225994Y96541D01*
X225278Y97020D01*
X224433Y97188D01*
D02*
G37*
G36*
X229823Y86755D02*
X228978Y86587D01*
X228262Y86108D01*
X227783Y85392D01*
X227615Y84547D01*
X227783Y83702D01*
X228262Y82986D01*
X228978Y82507D01*
X229823Y82340D01*
X230668Y82507D01*
X231384Y82986D01*
X231630Y83354D01*
X232101Y83159D01*
X232044Y82874D01*
X232212Y82029D01*
X232691Y81313D01*
X233407Y80834D01*
X234252Y80666D01*
X235097Y80834D01*
X235813Y81313D01*
X236292Y82029D01*
X236460Y82874D01*
X236292Y83719D01*
X235813Y84435D01*
X235097Y84914D01*
X234252Y85082D01*
X233407Y84914D01*
X232691Y84435D01*
X232445Y84067D01*
X231974Y84262D01*
X232031Y84547D01*
X231863Y85392D01*
X231384Y86108D01*
X230668Y86587D01*
X229823Y86755D01*
D02*
G37*
G36*
X225000Y84983D02*
X224155Y84815D01*
X223439Y84337D01*
X222960Y83621D01*
X222792Y82776D01*
X222960Y81931D01*
X223439Y81214D01*
X224155Y80736D01*
X225000Y80568D01*
X225845Y80736D01*
X226561Y81214D01*
X227040Y81931D01*
X227208Y82776D01*
X227040Y83621D01*
X226561Y84337D01*
X225845Y84815D01*
X225000Y84983D01*
D02*
G37*
G36*
X229528Y81735D02*
X228683Y81567D01*
X227966Y81089D01*
X227488Y80372D01*
X227320Y79528D01*
X227488Y78683D01*
X227966Y77966D01*
X228683Y77488D01*
X229528Y77320D01*
X230372Y77488D01*
X231089Y77966D01*
X231567Y78683D01*
X231735Y79528D01*
X231567Y80372D01*
X231089Y81089D01*
X230372Y81567D01*
X229528Y81735D01*
D02*
G37*
G36*
X234303Y79176D02*
X233458Y79008D01*
X232742Y78530D01*
X232263Y77813D01*
X232095Y76968D01*
X232263Y76124D01*
X232742Y75407D01*
X233458Y74929D01*
X234303Y74761D01*
X235148Y74929D01*
X235864Y75407D01*
X236343Y76124D01*
X236511Y76968D01*
X236343Y77813D01*
X235864Y78530D01*
X235148Y79008D01*
X234303Y79176D01*
D02*
G37*
G36*
X224902Y78783D02*
X224057Y78614D01*
X223341Y78136D01*
X222862Y77420D01*
X222694Y76575D01*
X222862Y75730D01*
X223341Y75014D01*
X224057Y74535D01*
X224902Y74367D01*
X225746Y74535D01*
X226463Y75014D01*
X226941Y75730D01*
X227109Y76575D01*
X226941Y77420D01*
X226463Y78136D01*
X225746Y78614D01*
X224902Y78783D01*
D02*
G37*
G36*
X229921Y76814D02*
X229076Y76646D01*
X228360Y76167D01*
X227882Y75451D01*
X227713Y74606D01*
X227882Y73761D01*
X228360Y73045D01*
X229076Y72567D01*
X229921Y72399D01*
X230766Y72567D01*
X231482Y73045D01*
X231961Y73761D01*
X232129Y74606D01*
X231961Y75451D01*
X231482Y76167D01*
X230766Y76646D01*
X229921Y76814D01*
D02*
G37*
G36*
X112922Y76281D02*
X112077Y76113D01*
X111361Y75634D01*
X110883Y74918D01*
X110714Y74073D01*
X110883Y73228D01*
X111361Y72512D01*
X112077Y72034D01*
X112922Y71865D01*
X113767Y72034D01*
X114483Y72512D01*
X114962Y73228D01*
X115130Y74073D01*
X114962Y74918D01*
X114483Y75634D01*
X113767Y76113D01*
X112922Y76281D01*
D02*
G37*
G36*
X228740Y55062D02*
X227895Y54894D01*
X227179Y54415D01*
X226700Y53699D01*
X226532Y52854D01*
X226700Y52009D01*
X227179Y51293D01*
X227895Y50815D01*
X228740Y50647D01*
X229585Y50815D01*
X230301Y51293D01*
X230780Y52009D01*
X230948Y52854D01*
X230780Y53699D01*
X230301Y54415D01*
X229585Y54894D01*
X228740Y55062D01*
D02*
G37*
G36*
X233760Y53094D02*
X232915Y52925D01*
X232199Y52447D01*
X231720Y51731D01*
X231552Y50886D01*
X231720Y50041D01*
X232199Y49325D01*
X232915Y48846D01*
X233760Y48678D01*
X234605Y48846D01*
X235321Y49325D01*
X235800Y50041D01*
X235968Y50886D01*
X235800Y51731D01*
X235321Y52447D01*
X234605Y52925D01*
X233760Y53094D01*
D02*
G37*
G36*
X224358Y52700D02*
X223513Y52532D01*
X222797Y52053D01*
X222319Y51337D01*
X222150Y50492D01*
X222319Y49647D01*
X222797Y48931D01*
X223513Y48452D01*
X224358Y48284D01*
X225203Y48452D01*
X225919Y48931D01*
X226398Y49647D01*
X226566Y50492D01*
X226398Y51337D01*
X225919Y52053D01*
X225203Y52532D01*
X224358Y52700D01*
D02*
G37*
G36*
X229134Y50141D02*
X228289Y49973D01*
X227573Y49494D01*
X227094Y48778D01*
X226926Y47933D01*
X227094Y47088D01*
X227573Y46372D01*
X228289Y45893D01*
X229134Y45725D01*
X229979Y45893D01*
X230695Y46372D01*
X231174Y47088D01*
X231342Y47933D01*
X231174Y48778D01*
X230695Y49494D01*
X229979Y49973D01*
X229134Y50141D01*
D02*
G37*
G36*
X233661Y46893D02*
X232817Y46725D01*
X232100Y46246D01*
X231622Y45530D01*
X231454Y44685D01*
X231622Y43840D01*
X232100Y43124D01*
X232817Y42645D01*
X233661Y42477D01*
X234506Y42645D01*
X235223Y43124D01*
X235701Y43840D01*
X235869Y44685D01*
X235701Y45530D01*
X235223Y46246D01*
X234506Y46725D01*
X233661Y46893D01*
D02*
G37*
G36*
X224410Y46794D02*
X223565Y46626D01*
X222848Y46148D01*
X222370Y45432D01*
X222202Y44587D01*
X222370Y43742D01*
X222848Y43025D01*
X223565Y42547D01*
X224410Y42379D01*
X225254Y42547D01*
X225971Y43025D01*
X226217Y43394D01*
X226688Y43198D01*
X226631Y42913D01*
X226799Y42068D01*
X227277Y41352D01*
X227994Y40874D01*
X228839Y40706D01*
X229683Y40874D01*
X230400Y41352D01*
X230878Y42068D01*
X231046Y42913D01*
X230878Y43758D01*
X230400Y44475D01*
X229683Y44953D01*
X228839Y45121D01*
X227994Y44953D01*
X227277Y44475D01*
X227031Y44106D01*
X226560Y44302D01*
X226617Y44587D01*
X226449Y45432D01*
X225971Y46148D01*
X225254Y46626D01*
X224410Y46794D01*
D02*
G37*
G36*
X228839Y33901D02*
X227994Y33733D01*
X227277Y33254D01*
X226799Y32538D01*
X226631Y31693D01*
X226799Y30848D01*
X227277Y30132D01*
X227994Y29653D01*
X228839Y29485D01*
X229683Y29653D01*
X230400Y30132D01*
X230878Y30848D01*
X231046Y31693D01*
X230878Y32538D01*
X230400Y33254D01*
X229683Y33733D01*
X228839Y33901D01*
D02*
G37*
G36*
X233858Y31932D02*
X233013Y31764D01*
X232297Y31286D01*
X231819Y30569D01*
X231650Y29724D01*
X231819Y28879D01*
X232297Y28163D01*
X233013Y27685D01*
X233858Y27517D01*
X234703Y27685D01*
X235419Y28163D01*
X235898Y28879D01*
X236066Y29724D01*
X235898Y30569D01*
X235419Y31286D01*
X234703Y31764D01*
X233858Y31932D01*
D02*
G37*
G36*
X224457Y31539D02*
X223612Y31370D01*
X222896Y30892D01*
X222417Y30176D01*
X222249Y29331D01*
X222417Y28486D01*
X222896Y27770D01*
X223612Y27291D01*
X224457Y27123D01*
X225302Y27291D01*
X226018Y27770D01*
X226496Y28486D01*
X226664Y29331D01*
X226496Y30176D01*
X226018Y30892D01*
X225302Y31370D01*
X224457Y31539D01*
D02*
G37*
G36*
X229232Y28979D02*
X228387Y28811D01*
X227671Y28333D01*
X227193Y27617D01*
X227025Y26772D01*
X227193Y25927D01*
X227671Y25210D01*
X228387Y24732D01*
X229232Y24564D01*
X230077Y24732D01*
X230793Y25210D01*
X231272Y25927D01*
X231440Y26772D01*
X231272Y27617D01*
X230793Y28333D01*
X230077Y28811D01*
X229232Y28979D01*
D02*
G37*
G36*
X233760Y25731D02*
X232915Y25563D01*
X232199Y25085D01*
X231720Y24369D01*
X231552Y23524D01*
X231720Y22679D01*
X232199Y21962D01*
X232915Y21484D01*
X233760Y21316D01*
X234605Y21484D01*
X235321Y21962D01*
X235800Y22679D01*
X235968Y23524D01*
X235800Y24369D01*
X235321Y25085D01*
X234605Y25563D01*
X233760Y25731D01*
D02*
G37*
G36*
X224508Y25633D02*
X223663Y25465D01*
X222947Y24986D01*
X222468Y24270D01*
X222300Y23425D01*
X222468Y22580D01*
X222947Y21864D01*
X223663Y21385D01*
X224508Y21217D01*
X225353Y21385D01*
X226069Y21864D01*
X226315Y22232D01*
X226786Y22037D01*
X226729Y21752D01*
X226897Y20907D01*
X227376Y20191D01*
X228092Y19712D01*
X228937Y19544D01*
X229782Y19712D01*
X230498Y20191D01*
X230977Y20907D01*
X231145Y21752D01*
X230977Y22597D01*
X230498Y23313D01*
X229782Y23792D01*
X228937Y23960D01*
X228092Y23792D01*
X227376Y23313D01*
X227130Y22945D01*
X226659Y23140D01*
X226716Y23425D01*
X226548Y24270D01*
X226069Y24986D01*
X225353Y25465D01*
X224508Y25633D01*
D02*
G37*
G36*
X129823Y25768D02*
X124311D01*
Y20256D01*
X124685D01*
X124932Y19756D01*
X124660Y19402D01*
X124382Y18731D01*
X124365Y18602D01*
X127067D01*
X129769D01*
X129752Y18731D01*
X129474Y19402D01*
X129202Y19756D01*
X129449Y20256D01*
X129823D01*
Y25768D01*
D02*
G37*
G36*
X152461Y21105D02*
X151616Y20937D01*
X150900Y20459D01*
X150421Y19742D01*
X150253Y18898D01*
X150421Y18053D01*
X150900Y17336D01*
X151616Y16858D01*
X152461Y16690D01*
X153305Y16858D01*
X154022Y17336D01*
X154500Y18053D01*
X154668Y18898D01*
X154500Y19742D01*
X154022Y20459D01*
X153305Y20937D01*
X152461Y21105D01*
D02*
G37*
G36*
X158661Y21007D02*
X157817Y20839D01*
X157100Y20360D01*
X156622Y19644D01*
X156454Y18799D01*
X156622Y17954D01*
X157100Y17238D01*
X157817Y16759D01*
X158661Y16591D01*
X159506Y16759D01*
X160223Y17238D01*
X160701Y17954D01*
X160869Y18799D01*
X160701Y19644D01*
X160223Y20360D01*
X159506Y20839D01*
X158661Y21007D01*
D02*
G37*
G36*
X173795Y21007D02*
X172950Y20839D01*
X172234Y20360D01*
X171756Y19644D01*
X171588Y18799D01*
X171756Y17954D01*
X172234Y17238D01*
X172950Y16759D01*
X173795Y16591D01*
X174640Y16759D01*
X175356Y17238D01*
X175835Y17954D01*
X176003Y18799D01*
X175835Y19644D01*
X175356Y20360D01*
X174640Y20839D01*
X173795Y21007D01*
D02*
G37*
G36*
X179996Y20909D02*
X179151Y20741D01*
X178435Y20262D01*
X177956Y19546D01*
X177788Y18701D01*
X177956Y17856D01*
X178435Y17140D01*
X179151Y16661D01*
X179996Y16493D01*
X180841Y16661D01*
X181557Y17140D01*
X182036Y17856D01*
X182204Y18701D01*
X182036Y19546D01*
X181557Y20262D01*
X180841Y20741D01*
X179996Y20909D01*
D02*
G37*
G36*
X118701Y20712D02*
X117856Y20544D01*
X117140Y20065D01*
X116661Y19349D01*
X116493Y18504D01*
X116661Y17659D01*
X117140Y16943D01*
X117856Y16464D01*
X118701Y16296D01*
X119546Y16464D01*
X120262Y16943D01*
X120740Y17659D01*
X120909Y18504D01*
X120740Y19349D01*
X120262Y20065D01*
X119546Y20544D01*
X118701Y20712D01*
D02*
G37*
G36*
X126476Y17421D02*
X124365D01*
X124382Y17292D01*
X124660Y16622D01*
X125101Y16046D01*
X125677Y15605D01*
X126347Y15327D01*
X126476Y15310D01*
Y17421D01*
D02*
G37*
G36*
X129769D02*
X127657D01*
Y15310D01*
X127786Y15327D01*
X128457Y15605D01*
X129033Y16046D01*
X129474Y16622D01*
X129752Y17292D01*
X129769Y17421D01*
D02*
G37*
G36*
X155413Y16479D02*
X154569Y16311D01*
X153852Y15833D01*
X153374Y15116D01*
X153206Y14272D01*
X153374Y13427D01*
X153852Y12710D01*
X154569Y12232D01*
X155413Y12064D01*
X156258Y12232D01*
X156974Y12710D01*
X157453Y13427D01*
X157621Y14272D01*
X157453Y15116D01*
X156974Y15833D01*
X156258Y16311D01*
X155413Y16479D01*
D02*
G37*
G36*
X176748Y16381D02*
X175903Y16213D01*
X175187Y15734D01*
X174708Y15018D01*
X174540Y14173D01*
X174708Y13328D01*
X175187Y12612D01*
X175903Y12133D01*
X176748Y11965D01*
X177593Y12133D01*
X178309Y12612D01*
X178788Y13328D01*
X178956Y14173D01*
X178788Y15018D01*
X178309Y15734D01*
X177593Y16213D01*
X176748Y16381D01*
D02*
G37*
G36*
X160433Y16184D02*
X159588Y16016D01*
X158872Y15538D01*
X158393Y14821D01*
X158225Y13976D01*
X158393Y13131D01*
X158872Y12415D01*
X159240Y12169D01*
X159045Y11698D01*
X158760Y11755D01*
X157915Y11587D01*
X157199Y11108D01*
X156720Y10392D01*
X156552Y9547D01*
X156720Y8702D01*
X157199Y7986D01*
X157915Y7508D01*
X158760Y7339D01*
X159605Y7508D01*
X160321Y7986D01*
X160800Y8702D01*
X160968Y9547D01*
X160800Y10392D01*
X160321Y11108D01*
X159953Y11354D01*
X160148Y11825D01*
X160433Y11769D01*
X161278Y11937D01*
X161994Y12415D01*
X162473Y13131D01*
X162641Y13976D01*
X162473Y14821D01*
X161994Y15538D01*
X161278Y16016D01*
X160433Y16184D01*
D02*
G37*
G36*
X150492Y16086D02*
X149647Y15918D01*
X148931Y15439D01*
X148452Y14723D01*
X148284Y13878D01*
X148452Y13033D01*
X148931Y12317D01*
X149647Y11838D01*
X150492Y11670D01*
X151337Y11838D01*
X152053Y12317D01*
X152532Y13033D01*
X152700Y13878D01*
X152532Y14723D01*
X152053Y15439D01*
X151337Y15918D01*
X150492Y16086D01*
D02*
G37*
G36*
X181768Y16086D02*
X180923Y15918D01*
X180207Y15439D01*
X179728Y14723D01*
X179560Y13878D01*
X179728Y13033D01*
X180207Y12317D01*
X180575Y12071D01*
X180380Y11600D01*
X180095Y11657D01*
X179250Y11489D01*
X178533Y11010D01*
X178055Y10294D01*
X177887Y9449D01*
X178055Y8604D01*
X178533Y7888D01*
X179250Y7409D01*
X180095Y7241D01*
X180939Y7409D01*
X181656Y7888D01*
X182134Y8604D01*
X182302Y9449D01*
X182134Y10294D01*
X181656Y11010D01*
X181288Y11256D01*
X181483Y11727D01*
X181768Y11670D01*
X182613Y11838D01*
X183329Y12317D01*
X183807Y13033D01*
X183976Y13878D01*
X183807Y14723D01*
X183329Y15439D01*
X182613Y15918D01*
X181768Y16086D01*
D02*
G37*
G36*
X171827Y15987D02*
X170982Y15819D01*
X170266Y15341D01*
X169787Y14624D01*
X169619Y13780D01*
X169787Y12935D01*
X170266Y12218D01*
X170982Y11740D01*
X171827Y11572D01*
X172672Y11740D01*
X173388Y12218D01*
X173866Y12935D01*
X174035Y13780D01*
X173866Y14624D01*
X173388Y15341D01*
X172672Y15819D01*
X171827Y15987D01*
D02*
G37*
G36*
X135728Y11146D02*
X135009Y11051D01*
X134338Y10773D01*
X133984Y10502D01*
X133484Y10748D01*
Y11122D01*
X127972D01*
Y5610D01*
X133484D01*
Y5984D01*
X133984Y6231D01*
X134338Y5959D01*
X135009Y5681D01*
X135728Y5587D01*
X136448Y5681D01*
X137118Y5959D01*
X137694Y6401D01*
X137919Y6694D01*
X138538D01*
X138763Y6401D01*
X139339Y5959D01*
X140009Y5681D01*
X140138Y5664D01*
Y8366D01*
Y11068D01*
X140009Y11051D01*
X139339Y10773D01*
X138763Y10332D01*
X138538Y10039D01*
X137919D01*
X137694Y10332D01*
X137118Y10773D01*
X136448Y11051D01*
X135728Y11146D01*
D02*
G37*
G36*
X141319Y11068D02*
Y8957D01*
X143430D01*
X143413Y9086D01*
X143136Y9756D01*
X142694Y10332D01*
X142118Y10773D01*
X141448Y11051D01*
X141319Y11068D01*
D02*
G37*
G36*
X152854Y11704D02*
X152009Y11536D01*
X151293Y11057D01*
X150815Y10341D01*
X150647Y9496D01*
X150815Y8651D01*
X151293Y7935D01*
X152009Y7456D01*
X152854Y7288D01*
X153699Y7456D01*
X154416Y7935D01*
X154894Y8651D01*
X155062Y9496D01*
X154894Y10341D01*
X154416Y11057D01*
X153699Y11536D01*
X152854Y11704D01*
D02*
G37*
G36*
X174189Y11605D02*
X173344Y11437D01*
X172628Y10959D01*
X172149Y10243D01*
X171981Y9398D01*
X172149Y8553D01*
X172628Y7836D01*
X173344Y7358D01*
X174189Y7190D01*
X175034Y7358D01*
X175750Y7836D01*
X176229Y8553D01*
X176397Y9398D01*
X176229Y10243D01*
X175750Y10959D01*
X175034Y11437D01*
X174189Y11605D01*
D02*
G37*
G36*
X143430Y7776D02*
X141319D01*
Y5664D01*
X141448Y5681D01*
X142118Y5959D01*
X142694Y6401D01*
X143136Y6976D01*
X143413Y7647D01*
X143430Y7776D01*
D02*
G37*
G36*
X23583Y107488D02*
X21417D01*
X20467Y107363D01*
X19581Y106996D01*
X18820Y106412D01*
X18236Y105651D01*
X17869Y104766D01*
X17744Y103815D01*
X17869Y102864D01*
X18236Y101978D01*
X18310Y101883D01*
X18091Y101346D01*
X17445Y101217D01*
X16663Y100695D01*
X16141Y99914D01*
X15958Y98992D01*
X16141Y98070D01*
X16663Y97289D01*
X17445Y96767D01*
X18366Y96584D01*
X19288Y96767D01*
X20069Y97289D01*
X20591Y98070D01*
X20775Y98992D01*
X20626Y99742D01*
X20897Y100123D01*
X21004Y100196D01*
X21417Y100142D01*
X23583D01*
X24533Y100267D01*
X25419Y100634D01*
X26180Y101218D01*
X26764Y101978D01*
X27131Y102864D01*
X27256Y103815D01*
X27131Y104766D01*
X26764Y105651D01*
X26180Y106412D01*
X25419Y106996D01*
X24533Y107363D01*
X23583Y107488D01*
D02*
G37*
G36*
X65748Y105751D02*
X64903Y105583D01*
X64187Y105104D01*
X63708Y104388D01*
X63540Y103543D01*
X63708Y102698D01*
X64187Y101982D01*
Y101561D01*
X63708Y100845D01*
X63540Y100000D01*
X63708Y99155D01*
X64187Y98439D01*
X64903Y97960D01*
X65748Y97792D01*
X66593Y97960D01*
X67309Y98439D01*
X67788Y99155D01*
X67956Y100000D01*
X67788Y100845D01*
X67309Y101561D01*
Y101982D01*
X67788Y102698D01*
X67956Y103543D01*
X67788Y104388D01*
X67309Y105104D01*
X66593Y105583D01*
X65748Y105751D01*
D02*
G37*
G36*
X56348Y93842D02*
X55503Y93674D01*
X54787Y93195D01*
X54309Y92479D01*
X54141Y91634D01*
X54309Y90789D01*
X54787Y90073D01*
X55503Y89594D01*
X56348Y89426D01*
X57193Y89594D01*
X57910Y90073D01*
X58388Y90789D01*
X58556Y91634D01*
X58388Y92479D01*
X57910Y93195D01*
X57193Y93674D01*
X56348Y93842D01*
D02*
G37*
G36*
X38118Y84688D02*
X37273Y84520D01*
X36557Y84042D01*
X36078Y83325D01*
X35910Y82480D01*
X36078Y81635D01*
X36557Y80919D01*
X37273Y80441D01*
X38118Y80273D01*
X38963Y80441D01*
X39679Y80919D01*
X40158Y81635D01*
X40326Y82480D01*
X40158Y83325D01*
X39679Y84042D01*
X38963Y84520D01*
X38118Y84688D01*
D02*
G37*
G36*
X65748Y75436D02*
X64903Y75268D01*
X64187Y74790D01*
X63708Y74073D01*
X63540Y73228D01*
X63645Y72699D01*
X63227Y72273D01*
X63158Y72286D01*
X62313Y72118D01*
X61597Y71640D01*
X61118Y70924D01*
X60950Y70079D01*
X61118Y69234D01*
X61597Y68518D01*
X62313Y68039D01*
X63158Y67871D01*
X63549Y67949D01*
X63974Y67523D01*
X63934Y67323D01*
X64102Y66478D01*
X64581Y65762D01*
X65297Y65283D01*
X66142Y65115D01*
X66987Y65283D01*
X67703Y65762D01*
X68181Y66478D01*
X68349Y67323D01*
X68181Y68168D01*
X67703Y68884D01*
X66987Y69363D01*
X66142Y69531D01*
X65751Y69453D01*
X65325Y69878D01*
X65365Y70079D01*
X65260Y70608D01*
X65679Y71034D01*
X65748Y71021D01*
X66593Y71189D01*
X67309Y71667D01*
X67788Y72383D01*
X67956Y73228D01*
X67788Y74073D01*
X67309Y74790D01*
X66593Y75268D01*
X65748Y75436D01*
D02*
G37*
G36*
X18366Y81716D02*
X17445Y81532D01*
X16663Y81010D01*
X16141Y80229D01*
X15958Y79307D01*
X16141Y78385D01*
X16663Y77604D01*
X17445Y77082D01*
X18091Y76953D01*
X18310Y76416D01*
X18236Y76321D01*
X17869Y75435D01*
X17744Y74484D01*
X17869Y73534D01*
X18236Y72648D01*
X18820Y71887D01*
X19581Y71303D01*
X20467Y70936D01*
X21417Y70811D01*
X23583D01*
X24533Y70936D01*
X25419Y71303D01*
X26180Y71887D01*
X26764Y72648D01*
X27131Y73534D01*
X27256Y74484D01*
X27131Y75435D01*
X26764Y76321D01*
X26180Y77082D01*
X25419Y77665D01*
X24533Y78032D01*
X23583Y78157D01*
X21417D01*
X21004Y78103D01*
X20897Y78176D01*
X20626Y78557D01*
X20775Y79307D01*
X20591Y80229D01*
X20069Y81010D01*
X19288Y81532D01*
X18366Y81716D01*
D02*
G37*
G36*
X80709Y72680D02*
X79864Y72512D01*
X79147Y72034D01*
X78669Y71317D01*
X78501Y70473D01*
X78669Y69628D01*
X79147Y68911D01*
X79864Y68433D01*
X80709Y68265D01*
X81554Y68433D01*
X82270Y68911D01*
X82748Y69628D01*
X82916Y70473D01*
X82748Y71317D01*
X82270Y72034D01*
X81554Y72512D01*
X80709Y72680D01*
D02*
G37*
G36*
X40551Y67070D02*
X39706Y66902D01*
X38990Y66423D01*
X38511Y65707D01*
X38343Y64862D01*
X38511Y64017D01*
X38990Y63301D01*
X39706Y62823D01*
X40551Y62654D01*
X41396Y62823D01*
X42112Y63301D01*
X42591Y64017D01*
X42759Y64862D01*
X42591Y65707D01*
X42112Y66423D01*
X41396Y66902D01*
X40551Y67070D01*
D02*
G37*
G36*
X61961Y65594D02*
X61116Y65425D01*
X60400Y64947D01*
X59921Y64231D01*
X59753Y63386D01*
X59921Y62541D01*
X60400Y61825D01*
X61116Y61346D01*
X61961Y61178D01*
X62048Y61195D01*
X62401Y60842D01*
X62359Y60630D01*
X62527Y59785D01*
X63006Y59069D01*
X63722Y58590D01*
X64567Y58422D01*
X65412Y58590D01*
X66128Y59069D01*
X66607Y59785D01*
X66775Y60630D01*
X66607Y61475D01*
X66128Y62191D01*
X65412Y62670D01*
X64567Y62838D01*
X64480Y62820D01*
X64126Y63174D01*
X64168Y63386D01*
X64000Y64231D01*
X63522Y64947D01*
X62805Y65425D01*
X61961Y65594D01*
D02*
G37*
G36*
X80709Y62050D02*
X79864Y61882D01*
X79147Y61404D01*
X78669Y60687D01*
X78501Y59842D01*
X78669Y58998D01*
X79147Y58281D01*
X79864Y57803D01*
X80709Y57635D01*
X81554Y57803D01*
X82270Y58281D01*
X82748Y58998D01*
X82916Y59842D01*
X82748Y60687D01*
X82270Y61404D01*
X81554Y61882D01*
X80709Y62050D01*
D02*
G37*
G36*
X72441Y58901D02*
X71596Y58733D01*
X70880Y58254D01*
X70510Y57701D01*
X70227Y57552D01*
X69899Y57577D01*
X69349Y57945D01*
X68504Y58113D01*
X67659Y57945D01*
X66943Y57467D01*
X66464Y56750D01*
X66296Y55905D01*
X66464Y55061D01*
X66943Y54344D01*
X67659Y53866D01*
X68504Y53698D01*
X69349Y53866D01*
X70065Y54344D01*
X70435Y54898D01*
X70718Y55047D01*
X71046Y55021D01*
X71596Y54653D01*
X72441Y54485D01*
X73286Y54653D01*
X74002Y55132D01*
X74481Y55848D01*
X74649Y56693D01*
X74481Y57538D01*
X74002Y58254D01*
X73286Y58733D01*
X72441Y58901D01*
D02*
G37*
G36*
X63779Y56538D02*
X62935Y56370D01*
X62218Y55892D01*
X61740Y55176D01*
X61572Y54331D01*
X61740Y53486D01*
X62218Y52770D01*
X62935Y52291D01*
X63779Y52123D01*
X64624Y52291D01*
X65341Y52770D01*
X65819Y53486D01*
X65987Y54331D01*
X65819Y55176D01*
X65341Y55892D01*
X64624Y56370D01*
X63779Y56538D01*
D02*
G37*
G36*
X80858Y56211D02*
X80013Y56042D01*
X79297Y55564D01*
X78819Y54848D01*
X78650Y54003D01*
X78819Y53158D01*
X79297Y52442D01*
X80013Y51963D01*
X80858Y51795D01*
X81703Y51963D01*
X82419Y52442D01*
X82898Y53158D01*
X83066Y54003D01*
X82898Y54848D01*
X82419Y55564D01*
X81703Y56042D01*
X80858Y56211D01*
D02*
G37*
G36*
X100000Y48665D02*
X99155Y48496D01*
X98439Y48018D01*
X97960Y47302D01*
X97792Y46457D01*
X97960Y45612D01*
X98439Y44896D01*
X99155Y44417D01*
X100000Y44249D01*
X100845Y44417D01*
X101561Y44896D01*
X102040Y45612D01*
X102208Y46457D01*
X102040Y47302D01*
X101561Y48018D01*
X100845Y48496D01*
X100000Y48665D01*
D02*
G37*
G36*
X58661D02*
X57816Y48496D01*
X57100Y48018D01*
X56622Y47302D01*
X56454Y46457D01*
X56622Y45612D01*
X57100Y44896D01*
X57816Y44417D01*
X58661Y44249D01*
X59506Y44417D01*
X60223Y44896D01*
X60701Y45612D01*
X60869Y46457D01*
X60701Y47302D01*
X60223Y48018D01*
X59506Y48496D01*
X58661Y48665D01*
D02*
G37*
G36*
X36870Y40260D02*
X36151Y40165D01*
X35480Y39888D01*
X34905Y39446D01*
X34680Y39153D01*
X34060D01*
X33836Y39446D01*
X33260Y39888D01*
X32590Y40165D01*
X31870Y40260D01*
X31151Y40165D01*
X30480Y39888D01*
X29905Y39446D01*
X29680Y39153D01*
X29060D01*
X28836Y39446D01*
X28260Y39888D01*
X27589Y40165D01*
X26870Y40260D01*
X26151Y40165D01*
X25480Y39888D01*
X24905Y39446D01*
X24680Y39153D01*
X24060D01*
X23836Y39446D01*
X23260Y39888D01*
X22590Y40165D01*
X21870Y40260D01*
X21151Y40165D01*
X20480Y39888D01*
X19905Y39446D01*
X19680Y39153D01*
X19060D01*
X18836Y39446D01*
X18260Y39888D01*
X17590Y40165D01*
X16870Y40260D01*
X16151Y40165D01*
X15480Y39888D01*
X14905Y39446D01*
X14463Y38870D01*
X14185Y38200D01*
X14090Y37480D01*
X14185Y36761D01*
X14463Y36090D01*
X14735Y35736D01*
X14488Y35236D01*
X14114D01*
Y29724D01*
X19626D01*
Y30098D01*
X20126Y30345D01*
X20480Y30073D01*
X21151Y29795D01*
X21280Y29778D01*
Y32480D01*
X22461D01*
Y29778D01*
X22590Y29795D01*
X23260Y30073D01*
X23836Y30515D01*
X24060Y30808D01*
X24680D01*
X24905Y30515D01*
X25480Y30073D01*
X26151Y29795D01*
X26280Y29778D01*
Y32480D01*
X27461D01*
Y29778D01*
X27589Y29795D01*
X28260Y30073D01*
X28836Y30515D01*
X29060Y30808D01*
X29680D01*
X29905Y30515D01*
X30480Y30073D01*
X31151Y29795D01*
X31870Y29701D01*
X32590Y29795D01*
X33260Y30073D01*
X33836Y30515D01*
X34060Y30808D01*
X34680D01*
X34905Y30515D01*
X35480Y30073D01*
X36151Y29795D01*
X36279Y29778D01*
Y32480D01*
X36870D01*
Y33071D01*
X39572D01*
X39555Y33200D01*
X39277Y33870D01*
X38836Y34446D01*
X38543Y34671D01*
Y35290D01*
X38836Y35515D01*
X39277Y36090D01*
X39555Y36761D01*
X39650Y37480D01*
X39555Y38200D01*
X39277Y38870D01*
X38836Y39446D01*
X38260Y39888D01*
X37589Y40165D01*
X36870Y40260D01*
D02*
G37*
G36*
X101575Y39609D02*
X100730Y39441D01*
X100014Y38963D01*
X99535Y38247D01*
X99367Y37402D01*
X99535Y36557D01*
X100014Y35840D01*
X100730Y35362D01*
X101575Y35194D01*
X102420Y35362D01*
X103136Y35840D01*
X103614Y36557D01*
X103783Y37402D01*
X103614Y38247D01*
X103136Y38963D01*
X102420Y39441D01*
X101575Y39609D01*
D02*
G37*
G36*
X39572Y31890D02*
X37461D01*
Y29778D01*
X37589Y29795D01*
X38260Y30073D01*
X38836Y30515D01*
X39277Y31091D01*
X39555Y31761D01*
X39572Y31890D01*
D02*
G37*
G36*
X101063Y22939D02*
X100160Y22820D01*
X99318Y22472D01*
X98595Y21917D01*
X98040Y21194D01*
X97691Y20352D01*
X97572Y19449D01*
X97691Y18545D01*
X98040Y17704D01*
X98595Y16981D01*
X99318Y16426D01*
X100160Y16077D01*
X101063Y15958D01*
X101966Y16077D01*
X102808Y16426D01*
X103531Y16981D01*
X104086Y17704D01*
X104435Y18545D01*
X104553Y19449D01*
X104435Y20352D01*
X104086Y21194D01*
X103531Y21917D01*
X102808Y22472D01*
X101966Y22820D01*
X101063Y22939D01*
D02*
G37*
G36*
X91063D02*
X90160Y22820D01*
X89318Y22472D01*
X88595Y21917D01*
X88040Y21194D01*
X87691Y20352D01*
X87572Y19449D01*
X87691Y18545D01*
X88040Y17704D01*
X88595Y16981D01*
X89318Y16426D01*
X90160Y16077D01*
X91063Y15958D01*
X91966Y16077D01*
X92808Y16426D01*
X93531Y16981D01*
X94086Y17704D01*
X94434Y18545D01*
X94554Y19449D01*
X94434Y20352D01*
X94086Y21194D01*
X93531Y21917D01*
X92808Y22472D01*
X91966Y22820D01*
X91063Y22939D01*
D02*
G37*
G36*
X67598D02*
X66695Y22820D01*
X65853Y22472D01*
X65130Y21917D01*
X64576Y21194D01*
X64227Y20352D01*
X64108Y19449D01*
X64227Y18545D01*
X64576Y17704D01*
X65130Y16981D01*
X65853Y16426D01*
X66695Y16077D01*
X67598Y15958D01*
X68502Y16077D01*
X69344Y16426D01*
X70067Y16981D01*
X70621Y17704D01*
X70970Y18545D01*
X71089Y19449D01*
X70970Y20352D01*
X70621Y21194D01*
X70067Y21917D01*
X69344Y22472D01*
X68502Y22820D01*
X67598Y22939D01*
D02*
G37*
G36*
X57598D02*
X56695Y22820D01*
X55853Y22472D01*
X55130Y21917D01*
X54576Y21194D01*
X54227Y20352D01*
X54108Y19449D01*
X54227Y18545D01*
X54576Y17704D01*
X55130Y16981D01*
X55853Y16426D01*
X56695Y16077D01*
X57598Y15958D01*
X58502Y16077D01*
X59344Y16426D01*
X60067Y16981D01*
X60621Y17704D01*
X60970Y18545D01*
X61089Y19449D01*
X60970Y20352D01*
X60621Y21194D01*
X60067Y21917D01*
X59344Y22472D01*
X58502Y22820D01*
X57598Y22939D01*
D02*
G37*
G36*
X34803D02*
X33900Y22820D01*
X33058Y22472D01*
X32335Y21917D01*
X31780Y21194D01*
X31432Y20352D01*
X31313Y19449D01*
X31432Y18545D01*
X31780Y17704D01*
X32335Y16981D01*
X33058Y16426D01*
X33900Y16077D01*
X34803Y15958D01*
X35707Y16077D01*
X36548Y16426D01*
X37271Y16981D01*
X37826Y17704D01*
X38175Y18545D01*
X38294Y19449D01*
X38175Y20352D01*
X37826Y21194D01*
X37271Y21917D01*
X36548Y22472D01*
X35707Y22820D01*
X34803Y22939D01*
D02*
G37*
G36*
X24803D02*
X23900Y22820D01*
X23058Y22472D01*
X22335Y21917D01*
X21780Y21194D01*
X21432Y20352D01*
X21313Y19449D01*
X21432Y18545D01*
X21780Y17704D01*
X22335Y16981D01*
X23058Y16426D01*
X23900Y16077D01*
X24803Y15958D01*
X25707Y16077D01*
X26548Y16426D01*
X27271Y16981D01*
X27826Y17704D01*
X28175Y18545D01*
X28294Y19449D01*
X28175Y20352D01*
X27826Y21194D01*
X27271Y21917D01*
X26548Y22472D01*
X25707Y22820D01*
X24803Y22939D01*
D02*
G37*
G36*
X86654Y12910D02*
Y10039D01*
X89524D01*
Y12910D01*
X86654D01*
D02*
G37*
G36*
X80551Y20407D02*
X79549Y20275D01*
X78615Y19888D01*
X77814Y19273D01*
X77198Y18471D01*
X76811Y17537D01*
X76679Y16535D01*
X76811Y15533D01*
X77198Y14600D01*
X77814Y13798D01*
X78615Y13182D01*
X79549Y12796D01*
X80551Y12664D01*
X81553Y12796D01*
X82035Y12995D01*
X82461Y12803D01*
X82461Y12803D01*
X82461Y12803D01*
D01*
X82602Y12689D01*
X82602Y12555D01*
Y10039D01*
X85472D01*
Y12910D01*
X83011D01*
X83008Y12910D01*
X83008D01*
X82953Y12910D01*
X82888Y13101D01*
X82887Y13101D01*
Y13102D01*
D01*
X83001Y13577D01*
X83289Y13798D01*
X83904Y14600D01*
X84291Y15533D01*
X84423Y16535D01*
X84291Y17537D01*
X83904Y18471D01*
X83289Y19273D01*
X82487Y19888D01*
X81553Y20275D01*
X80551Y20407D01*
D02*
G37*
G36*
X53189Y12910D02*
Y10039D01*
X56059D01*
Y12910D01*
X53189D01*
D02*
G37*
G36*
X47087Y20407D02*
X46084Y20275D01*
X45151Y19888D01*
X44349Y19273D01*
X43734Y18471D01*
X43347Y17537D01*
X43215Y16535D01*
X43347Y15533D01*
X43734Y14600D01*
X44349Y13798D01*
X45151Y13182D01*
X46084Y12796D01*
X47087Y12664D01*
X48089Y12796D01*
X48570Y12995D01*
X48996Y12803D01*
X48996Y12803D01*
X48996Y12803D01*
D01*
X49138Y12689D01*
X49138Y12555D01*
Y10039D01*
X52008D01*
Y12910D01*
X49547D01*
X49544Y12910D01*
X49544D01*
X49488Y12910D01*
X49423Y13101D01*
X49423Y13101D01*
Y13102D01*
D01*
X49537Y13577D01*
X49824Y13798D01*
X50440Y14600D01*
X50826Y15533D01*
X50958Y16535D01*
X50826Y17537D01*
X50440Y18471D01*
X49824Y19273D01*
X49022Y19888D01*
X48089Y20275D01*
X47087Y20407D01*
D02*
G37*
G36*
X20394Y12910D02*
Y10039D01*
X23264D01*
Y12910D01*
X20394D01*
D02*
G37*
G36*
X14291Y20407D02*
X13289Y20275D01*
X12355Y19888D01*
X11554Y19273D01*
X10938Y18471D01*
X10552Y17537D01*
X10420Y16535D01*
X10552Y15533D01*
X10938Y14600D01*
X11554Y13798D01*
X12355Y13182D01*
X13289Y12796D01*
X14291Y12664D01*
X15293Y12796D01*
X15775Y12995D01*
X16201Y12803D01*
X16201Y12803D01*
X16201Y12803D01*
D01*
X16342Y12689D01*
X16342Y12555D01*
Y10039D01*
X19213D01*
Y12910D01*
X16751D01*
X16748Y12910D01*
X16748D01*
X16693Y12910D01*
X16628Y13101D01*
X16628Y13101D01*
Y13102D01*
D01*
X16741Y13577D01*
X17029Y13798D01*
X17644Y14600D01*
X18031Y15533D01*
X18163Y16535D01*
X18031Y17537D01*
X17644Y18471D01*
X17029Y19273D01*
X16227Y19888D01*
X15293Y20275D01*
X14291Y20407D01*
D02*
G37*
G36*
X89524Y8858D02*
X86654D01*
Y5988D01*
X89524D01*
Y8858D01*
D02*
G37*
G36*
X85472D02*
X82602D01*
Y5988D01*
X85472D01*
Y8858D01*
D02*
G37*
G36*
X56059D02*
X53189D01*
Y5988D01*
X56059D01*
Y8858D01*
D02*
G37*
G36*
X52008D02*
X49138D01*
Y5988D01*
X52008D01*
Y8858D01*
D02*
G37*
G36*
X23264D02*
X20394D01*
Y5988D01*
X23264D01*
Y8858D01*
D02*
G37*
G36*
X19213D02*
X16342D01*
Y5988D01*
X19213D01*
Y8858D01*
D02*
G37*
G36*
X96063Y12939D02*
X95160Y12820D01*
X94318Y12472D01*
X93595Y11917D01*
X93040Y11194D01*
X92691Y10352D01*
X92572Y9449D01*
X92691Y8545D01*
X93040Y7704D01*
X93595Y6981D01*
X94318Y6426D01*
X95160Y6077D01*
X96063Y5958D01*
X96966Y6077D01*
X97808Y6426D01*
X98531Y6981D01*
X99086Y7704D01*
X99435Y8545D01*
X99554Y9449D01*
X99435Y10352D01*
X99086Y11194D01*
X98531Y11917D01*
X97808Y12472D01*
X96966Y12820D01*
X96063Y12939D01*
D02*
G37*
G36*
X62598D02*
X61695Y12820D01*
X60853Y12472D01*
X60130Y11917D01*
X59576Y11194D01*
X59227Y10352D01*
X59108Y9449D01*
X59227Y8545D01*
X59576Y7704D01*
X60130Y6981D01*
X60853Y6426D01*
X61695Y6077D01*
X62598Y5958D01*
X63502Y6077D01*
X64344Y6426D01*
X65067Y6981D01*
X65621Y7704D01*
X65970Y8545D01*
X66089Y9449D01*
X65970Y10352D01*
X65621Y11194D01*
X65067Y11917D01*
X64344Y12472D01*
X63502Y12820D01*
X62598Y12939D01*
D02*
G37*
G36*
X29803D02*
X28900Y12820D01*
X28058Y12472D01*
X27335Y11917D01*
X26780Y11194D01*
X26432Y10352D01*
X26313Y9449D01*
X26432Y8545D01*
X26780Y7704D01*
X27335Y6981D01*
X28058Y6426D01*
X28900Y6077D01*
X29803Y5958D01*
X30707Y6077D01*
X31548Y6426D01*
X32271Y6981D01*
X32826Y7704D01*
X33175Y8545D01*
X33294Y9449D01*
X33175Y10352D01*
X32826Y11194D01*
X32271Y11917D01*
X31548Y12472D01*
X30707Y12820D01*
X29803Y12939D01*
D02*
G37*
G36*
X195783Y87516D02*
X194095D01*
Y85827D01*
X195783D01*
Y87516D01*
D02*
G37*
G36*
X190945D02*
X189256D01*
Y85827D01*
X190945D01*
Y87516D01*
D02*
G37*
G36*
X182677Y87330D02*
X181881Y87225D01*
X181138Y86917D01*
X180501Y86428D01*
X180012Y85791D01*
X179704Y85049D01*
X179600Y84252D01*
X179704Y83455D01*
X180012Y82713D01*
X180501Y82076D01*
X181138Y81587D01*
X181881Y81279D01*
X182677Y81174D01*
X183474Y81279D01*
X184216Y81587D01*
X184853Y82076D01*
X185342Y82713D01*
X185650Y83455D01*
X185755Y84252D01*
X185650Y85049D01*
X185342Y85791D01*
X184853Y86428D01*
X184216Y86917D01*
X183474Y87225D01*
X182677Y87330D01*
D02*
G37*
G36*
X195783Y82677D02*
X194095D01*
Y80988D01*
X195783D01*
Y82677D01*
D02*
G37*
G36*
X190945D02*
X189256D01*
Y80988D01*
X190945D01*
Y82677D01*
D02*
G37*
G36*
X156905Y66256D02*
X155217D01*
Y64567D01*
X156905D01*
Y66256D01*
D02*
G37*
G36*
X152067D02*
X150378D01*
Y64567D01*
X152067D01*
Y66256D01*
D02*
G37*
G36*
X163484Y66070D02*
X162688Y65965D01*
X161945Y65657D01*
X161308Y65168D01*
X160819Y64531D01*
X160512Y63789D01*
X160407Y62992D01*
X160512Y62196D01*
X160819Y61453D01*
X161308Y60816D01*
X161945Y60327D01*
X162688Y60019D01*
X163484Y59915D01*
X164281Y60019D01*
X165023Y60327D01*
X165660Y60816D01*
X166149Y61453D01*
X166457Y62196D01*
X166562Y62992D01*
X166457Y63789D01*
X166149Y64531D01*
X165660Y65168D01*
X165023Y65657D01*
X164281Y65965D01*
X163484Y66070D01*
D02*
G37*
G36*
X156905Y61417D02*
X155217D01*
Y59728D01*
X156905D01*
Y61417D01*
D02*
G37*
G36*
X152067D02*
X150378D01*
Y59728D01*
X152067D01*
Y61417D01*
D02*
G37*
G36*
X187402Y63314D02*
X186605Y63209D01*
X185863Y62901D01*
X185225Y62412D01*
X184736Y61775D01*
X184429Y61033D01*
X184324Y60236D01*
X184429Y59440D01*
X184736Y58697D01*
X185225Y58060D01*
X185863Y57571D01*
X186605Y57264D01*
X187402Y57159D01*
X188198Y57264D01*
X188940Y57571D01*
X189578Y58060D01*
X190067Y58697D01*
X190374Y59440D01*
X190479Y60236D01*
X190374Y61033D01*
X190067Y61775D01*
X189578Y62412D01*
X188940Y62901D01*
X188198Y63209D01*
X187402Y63314D01*
D02*
G37*
G36*
X190665Y53658D02*
X188976D01*
Y51968D01*
X190665D01*
Y53658D01*
D02*
G37*
G36*
X185827D02*
X184138D01*
Y51968D01*
X185827D01*
Y53658D01*
D02*
G37*
G36*
X190665Y48819D02*
X188976D01*
Y47130D01*
X190665D01*
Y48819D01*
D02*
G37*
G36*
X185827D02*
X184138D01*
Y47130D01*
X185827D01*
Y48819D01*
D02*
G37*
%LPD*%
D12*
X165059Y27756D02*
X177559Y40256D01*
X138681Y27756D02*
X165059D01*
X177559Y40256D02*
X183268D01*
D63*
X212717Y112795D02*
X212894Y112619D01*
X201969Y91732D02*
Y100098D01*
X202461Y91142D02*
X212614Y80988D01*
X162795Y91142D02*
X202461D01*
X212614Y61614D02*
Y80988D01*
Y57988D02*
Y61614D01*
X212894Y111024D02*
Y112619D01*
X212717Y112795D02*
X212795D01*
X202756Y48130D02*
X212614Y57988D01*
X200689Y48130D02*
X202756D01*
X201969Y100098D02*
X212894Y111024D01*
X127461Y55807D02*
X162795Y91142D01*
X127461Y50197D02*
Y55807D01*
D68*
X86063Y9449D02*
D03*
X52598D02*
D03*
X19803D02*
D03*
D71*
X153642Y62992D02*
D03*
X192520Y84252D02*
D03*
D73*
X187402Y50394D02*
D03*
D76*
X140728Y8366D02*
D03*
X127067Y18012D02*
D03*
X36870Y32480D02*
D03*
X26870D02*
D03*
X21870D02*
D03*
D79*
X22933Y80610D02*
D03*
X17869Y83661D02*
D03*
X20857Y56988D02*
D03*
X42579Y8268D02*
D03*
X76357Y54175D02*
D03*
X183957Y34350D02*
D03*
X212614Y61614D02*
D03*
X198721Y87697D02*
D03*
X44094Y100394D02*
D03*
X101969Y42126D02*
D03*
X38118Y75295D02*
D03*
X111417Y26209D02*
D03*
X138681Y27756D02*
D03*
X137992Y31791D02*
D03*
X144291Y22343D02*
D03*
Y14614D02*
D03*
X29331Y72273D02*
D03*
X49606Y69628D02*
D03*
X85827Y34941D02*
D03*
X101870Y12992D02*
D03*
X69685Y10433D02*
D03*
X16870Y49508D02*
D03*
X7480Y59744D02*
D03*
X7776Y22343D02*
D03*
X9252Y35630D02*
D03*
X10630Y94095D02*
D03*
X11024Y84252D02*
D03*
X176772Y109744D02*
D03*
X230217Y110728D02*
D03*
X214621Y6201D02*
D03*
X204528Y6004D02*
D03*
X193307Y6920D02*
D03*
X200787Y62008D02*
D03*
X230709Y61417D02*
D03*
Y14173D02*
D03*
X195275Y108661D02*
D03*
X189370Y96850D02*
D03*
X177559D02*
D03*
X118504D02*
D03*
X100787Y108661D02*
D03*
X212795Y112795D02*
D03*
X201083Y95669D02*
D03*
X200689Y48130D02*
D03*
X143405Y52811D02*
D03*
X142224Y79035D02*
D03*
X135236Y78347D02*
D03*
X139567Y72835D02*
D03*
X220866Y112598D02*
D03*
X219291Y89173D02*
D03*
X216535Y94488D02*
D03*
X211516Y94193D02*
D03*
X206988Y94095D02*
D03*
X220276Y9744D02*
D03*
X224457Y13780D02*
D03*
X224803Y66634D02*
D03*
X219980Y61516D02*
D03*
X201181Y38287D02*
D03*
X218701Y37894D02*
D03*
X206004Y44685D02*
D03*
X211614Y44390D02*
D03*
X216535Y44783D02*
D03*
X127461Y50197D02*
D03*
X165059Y27756D02*
D03*
X84646Y29232D02*
D03*
X183268Y40256D02*
D03*
X164961Y46457D02*
D03*
X139941Y52658D02*
D03*
X112500Y61221D02*
D03*
Y53740D02*
D03*
X113779Y47209D02*
D03*
X136417Y52811D02*
D03*
X132972Y52756D02*
D03*
X158169Y33760D02*
D03*
X164567Y41732D02*
D03*
X164272Y36496D02*
D03*
X165157Y86122D02*
D03*
X168799Y86221D02*
D03*
X163386Y83602D02*
D03*
X166929D02*
D03*
X170472D02*
D03*
X151181Y100646D02*
D03*
X146457Y101969D02*
D03*
X151575Y106299D02*
D03*
X144488Y110630D02*
D03*
X149213D02*
D03*
X146850Y106299D02*
D03*
X112598Y69291D02*
D03*
X113386Y42618D02*
D03*
X87008Y50394D02*
D03*
X101575Y68504D02*
D03*
X57480Y50000D02*
D03*
X87402Y82677D02*
D03*
X91732Y41339D02*
D03*
X196949Y20669D02*
D03*
X197083Y17520D02*
D03*
X196949Y14370D02*
D03*
Y23819D02*
D03*
X196457Y74705D02*
D03*
Y65256D02*
D03*
X196591Y68405D02*
D03*
X196457Y71555D02*
D03*
X41732Y31496D02*
D03*
X42126Y38976D02*
D03*
X101181Y96988D02*
D03*
X112992Y96988D02*
D03*
X107480Y96988D02*
D03*
X135039Y106831D02*
D03*
X142126Y106437D02*
D03*
X67598Y77165D02*
D03*
X34055Y110630D02*
D03*
X72047Y100000D02*
D03*
X10531Y42421D02*
D03*
X39862Y49508D02*
D03*
X49764Y91339D02*
D03*
X49606Y76772D02*
D03*
X61961Y77165D02*
D03*
X69685Y87402D02*
D03*
M02*
