G04*
G04 #@! TF.GenerationSoftware,Altium Limited,Altium Designer,18.1.9 (240)*
G04*
G04 Layer_Color=32896*
%FSLAX25Y25*%
%MOIN*%
G70*
G01*
G75*
%ADD11C,0.00787*%
%ADD14C,0.00984*%
G36*
X126881Y4010D02*
X126906Y4000D01*
X126916Y3996D01*
X126920Y3991D01*
X126925Y3988D01*
X126928Y3986D01*
X126940Y3973D01*
X126947Y3959D01*
X126957Y3929D01*
X126960Y3914D01*
X126962Y3902D01*
Y3895D01*
Y3892D01*
Y2018D01*
X126960Y2003D01*
X126957Y1998D01*
Y1996D01*
X126952Y1988D01*
X126945Y1986D01*
X126940Y1981D01*
X126938D01*
X126923Y1978D01*
X126911Y1976D01*
X126901Y1973D01*
X126896D01*
X126874Y1971D01*
X126852Y1969D01*
X126802D01*
X126783Y1971D01*
X126770Y1973D01*
X126766D01*
X126748Y1976D01*
X126734Y1978D01*
X126726Y1981D01*
X126724D01*
X126711Y1986D01*
X126704Y1991D01*
X126701Y1993D01*
X126699Y1996D01*
X126694Y2003D01*
X126692Y2010D01*
Y2015D01*
Y2018D01*
Y3791D01*
X126005Y2010D01*
X125998Y1998D01*
X125993Y1996D01*
Y1993D01*
X125976Y1983D01*
X125971Y1981D01*
X125968D01*
X125956Y1978D01*
X125941Y1976D01*
X125932Y1973D01*
X125929D01*
X125909Y1971D01*
X125892Y1969D01*
X125850D01*
X125833Y1971D01*
X125818D01*
X125801Y1973D01*
X125789Y1976D01*
X125782Y1978D01*
X125779D01*
X125767Y1983D01*
X125759Y1986D01*
X125757Y1991D01*
X125754D01*
X125742Y2003D01*
X125740Y2008D01*
Y2010D01*
X125021Y3791D01*
X125016D01*
Y2018D01*
X125014Y2003D01*
X125012Y1998D01*
Y1996D01*
X125004Y1988D01*
X124997Y1986D01*
X124992Y1981D01*
X124989D01*
X124977Y1978D01*
X124962Y1976D01*
X124952Y1973D01*
X124948D01*
X124925Y1971D01*
X124906Y1969D01*
X124856D01*
X124834Y1971D01*
X124822Y1973D01*
X124817D01*
X124800Y1976D01*
X124788Y1978D01*
X124780Y1981D01*
X124778D01*
X124766Y1986D01*
X124758Y1991D01*
X124756Y1993D01*
X124753Y1996D01*
X124748Y2003D01*
X124746Y2010D01*
Y2015D01*
Y2018D01*
Y3892D01*
X124748Y3914D01*
X124751Y3932D01*
X124753Y3941D01*
X124756Y3946D01*
X124763Y3964D01*
X124773Y3976D01*
X124780Y3983D01*
X124783Y3986D01*
X124795Y3996D01*
X124807Y4003D01*
X124815Y4005D01*
X124820Y4008D01*
X124834Y4013D01*
X124849Y4015D01*
X125039D01*
X125066Y4013D01*
X125088Y4010D01*
X125105Y4008D01*
X125107Y4005D01*
X125110D01*
X125130Y3996D01*
X125147Y3988D01*
X125159Y3978D01*
X125164Y3976D01*
X125181Y3959D01*
X125196Y3944D01*
X125206Y3929D01*
X125211Y3927D01*
Y3924D01*
X125225Y3897D01*
X125235Y3872D01*
X125240Y3860D01*
X125245Y3850D01*
X125248Y3845D01*
Y3843D01*
X125855Y2374D01*
X125863D01*
X126446Y3848D01*
X126458Y3878D01*
X126468Y3902D01*
X126478Y3917D01*
X126480Y3919D01*
Y3922D01*
X126495Y3944D01*
X126510Y3959D01*
X126522Y3971D01*
X126524Y3973D01*
X126527D01*
X126549Y3988D01*
X126571Y3998D01*
X126581Y4000D01*
X126588Y4003D01*
X126593Y4005D01*
X126596D01*
X126625Y4010D01*
X126655Y4015D01*
X126866D01*
X126881Y4010D01*
D02*
G37*
G36*
X129929Y4023D02*
X129939D01*
X129946Y4020D01*
X129951D01*
X129971Y4018D01*
X129983Y4013D01*
X129990Y4008D01*
X129993Y4005D01*
X130000Y3996D01*
X130003Y3986D01*
X130005Y3978D01*
Y3973D01*
X130003Y3956D01*
X130000Y3939D01*
X129998Y3924D01*
X129996Y3922D01*
Y3919D01*
X129457Y2037D01*
X129452Y2023D01*
X129447Y2010D01*
X129444Y2003D01*
X129442Y2001D01*
X129432Y1993D01*
X129420Y1986D01*
X129410Y1983D01*
X129408Y1981D01*
X129390Y1978D01*
X129371Y1976D01*
X129356Y1973D01*
X129351D01*
X129321Y1971D01*
X129292Y1969D01*
X129228D01*
X129203Y1971D01*
X129193D01*
X129186Y1973D01*
X129181D01*
X129159Y1976D01*
X129144Y1978D01*
X129132Y1981D01*
X129130D01*
X129115Y1988D01*
X129105Y1993D01*
X129100Y1998D01*
X129098Y2001D01*
X129090Y2013D01*
X129085Y2025D01*
X129080Y2035D01*
Y2037D01*
X128687Y3575D01*
X128684D01*
X128256Y2037D01*
X128251Y2023D01*
X128246Y2010D01*
X128244Y2003D01*
X128242Y2001D01*
X128232Y1993D01*
X128219Y1986D01*
X128209Y1983D01*
X128207Y1981D01*
X128190Y1978D01*
X128170Y1976D01*
X128155Y1973D01*
X128150D01*
X128123Y1971D01*
X128096Y1969D01*
X128035D01*
X128010Y1971D01*
X128000D01*
X127993Y1973D01*
X127988D01*
X127966Y1976D01*
X127949Y1978D01*
X127939Y1981D01*
X127934D01*
X127919Y1988D01*
X127909Y1993D01*
X127902Y1998D01*
X127900Y2001D01*
X127892Y2013D01*
X127885Y2025D01*
X127882Y2035D01*
X127880Y2037D01*
X127341Y3917D01*
X127336Y3941D01*
X127331Y3959D01*
Y3971D01*
Y3973D01*
X127334Y3986D01*
X127336Y3996D01*
X127341Y4000D01*
X127344Y4003D01*
X127356Y4010D01*
X127368Y4015D01*
X127378Y4020D01*
X127383D01*
X127405Y4023D01*
X127432Y4025D01*
X127489D01*
X127513Y4023D01*
X127528Y4020D01*
X127533D01*
X127550Y4018D01*
X127565Y4015D01*
X127572Y4013D01*
X127575Y4010D01*
X127585Y4005D01*
X127590Y4000D01*
X127594Y3996D01*
Y3993D01*
X127602Y3976D01*
X127604Y3968D01*
Y3966D01*
X128052Y2261D01*
X128054D01*
X128522Y3964D01*
X128527Y3976D01*
X128529Y3986D01*
X128532Y3991D01*
X128534Y3993D01*
X128542Y4000D01*
X128549Y4005D01*
X128556Y4010D01*
X128559D01*
X128571Y4015D01*
X128586Y4018D01*
X128596Y4020D01*
X128601D01*
X128623Y4023D01*
X128645Y4025D01*
X128701D01*
X128726Y4023D01*
X128734D01*
X128741Y4020D01*
X128746D01*
X128765Y4018D01*
X128780Y4015D01*
X128790Y4013D01*
X128793Y4010D01*
X128802Y4005D01*
X128810Y4000D01*
X128812Y3996D01*
X128815Y3993D01*
X128822Y3973D01*
X128824Y3966D01*
Y3964D01*
X129260Y2261D01*
X129262D01*
X129720Y3966D01*
X129722Y3978D01*
X129725Y3988D01*
X129727Y3993D01*
X129730Y3996D01*
X129735Y4003D01*
X129742Y4008D01*
X129747Y4013D01*
X129750D01*
X129762Y4018D01*
X129777Y4020D01*
X129789Y4023D01*
X129794D01*
X129816Y4025D01*
X129904D01*
X129929Y4023D01*
D02*
G37*
G36*
X131420Y4010D02*
X131442Y4003D01*
X131452Y3998D01*
X131459Y3993D01*
X131462Y3991D01*
X131464Y3988D01*
X131474Y3976D01*
X131481Y3964D01*
X131491Y3932D01*
X131494Y3919D01*
X131496Y3907D01*
Y3900D01*
Y3897D01*
Y2018D01*
X131494Y2003D01*
X131491Y1998D01*
Y1996D01*
X131484Y1988D01*
X131476Y1986D01*
X131472Y1981D01*
X131469D01*
X131457Y1978D01*
X131442Y1976D01*
X131432Y1973D01*
X131427D01*
X131405Y1971D01*
X131383Y1969D01*
X131336D01*
X131314Y1971D01*
X131302Y1973D01*
X131297D01*
X131280Y1976D01*
X131265Y1978D01*
X131257Y1981D01*
X131255D01*
X131245Y1986D01*
X131238Y1991D01*
X131235Y1993D01*
X131233Y1996D01*
X131228Y2003D01*
X131226Y2010D01*
Y2015D01*
Y2018D01*
Y2753D01*
X130994D01*
X130925Y2756D01*
X130864Y2761D01*
X130807Y2768D01*
X130761Y2778D01*
X130721Y2785D01*
X130706Y2790D01*
X130694Y2793D01*
X130684Y2795D01*
X130674Y2798D01*
X130672Y2800D01*
X130669D01*
X130620Y2820D01*
X130576Y2839D01*
X130537Y2861D01*
X130505Y2884D01*
X130478Y2903D01*
X130458Y2918D01*
X130446Y2928D01*
X130441Y2933D01*
X130406Y2967D01*
X130377Y3002D01*
X130352Y3036D01*
X130333Y3071D01*
X130315Y3098D01*
X130305Y3122D01*
X130298Y3137D01*
X130296Y3139D01*
Y3142D01*
X130278Y3189D01*
X130266Y3238D01*
X130256Y3282D01*
X130251Y3326D01*
X130246Y3363D01*
Y3378D01*
X130244Y3393D01*
Y3403D01*
Y3410D01*
Y3415D01*
Y3418D01*
X130246Y3459D01*
X130249Y3499D01*
X130254Y3536D01*
X130261Y3565D01*
X130269Y3592D01*
X130273Y3609D01*
X130276Y3622D01*
X130278Y3627D01*
X130291Y3661D01*
X130305Y3693D01*
X130320Y3723D01*
X130335Y3747D01*
X130350Y3767D01*
X130359Y3782D01*
X130367Y3791D01*
X130369Y3794D01*
X130392Y3821D01*
X130416Y3845D01*
X130441Y3865D01*
X130463Y3882D01*
X130485Y3897D01*
X130500Y3907D01*
X130510Y3914D01*
X130515Y3917D01*
X130546Y3934D01*
X130578Y3949D01*
X130605Y3959D01*
X130633Y3968D01*
X130652Y3976D01*
X130669Y3981D01*
X130679Y3983D01*
X130684D01*
X130714Y3991D01*
X130741Y3996D01*
X130765Y4000D01*
X130785Y4003D01*
X130802Y4005D01*
X130817Y4008D01*
X130827D01*
X130874Y4013D01*
X130893D01*
X130913Y4015D01*
X131405D01*
X131420Y4010D01*
D02*
G37*
G36*
X125503Y29109D02*
X125528Y29099D01*
X125538Y29094D01*
X125542Y29089D01*
X125547Y29087D01*
X125550Y29084D01*
X125562Y29072D01*
X125570Y29057D01*
X125579Y29028D01*
X125582Y29013D01*
X125584Y29000D01*
Y28993D01*
Y28991D01*
Y27116D01*
X125582Y27101D01*
X125579Y27096D01*
Y27094D01*
X125575Y27087D01*
X125567Y27084D01*
X125562Y27079D01*
X125560D01*
X125545Y27077D01*
X125533Y27074D01*
X125523Y27072D01*
X125518D01*
X125496Y27069D01*
X125474Y27067D01*
X125424D01*
X125405Y27069D01*
X125392Y27072D01*
X125388D01*
X125370Y27074D01*
X125356Y27077D01*
X125348Y27079D01*
X125346D01*
X125333Y27084D01*
X125326Y27089D01*
X125324Y27092D01*
X125321Y27094D01*
X125316Y27101D01*
X125314Y27109D01*
Y27114D01*
Y27116D01*
Y28890D01*
X124627Y27109D01*
X124620Y27096D01*
X124615Y27094D01*
Y27092D01*
X124598Y27082D01*
X124593Y27079D01*
X124591D01*
X124578Y27077D01*
X124563Y27074D01*
X124554Y27072D01*
X124551D01*
X124531Y27069D01*
X124514Y27067D01*
X124472D01*
X124455Y27069D01*
X124440D01*
X124423Y27072D01*
X124411Y27074D01*
X124404Y27077D01*
X124401D01*
X124389Y27082D01*
X124381Y27084D01*
X124379Y27089D01*
X124376D01*
X124364Y27101D01*
X124362Y27106D01*
Y27109D01*
X123643Y28890D01*
X123638D01*
Y27116D01*
X123636Y27101D01*
X123634Y27096D01*
Y27094D01*
X123626Y27087D01*
X123619Y27084D01*
X123614Y27079D01*
X123611D01*
X123599Y27077D01*
X123584Y27074D01*
X123574Y27072D01*
X123570D01*
X123547Y27069D01*
X123528Y27067D01*
X123479D01*
X123456Y27069D01*
X123444Y27072D01*
X123439D01*
X123422Y27074D01*
X123410Y27077D01*
X123402Y27079D01*
X123400D01*
X123388Y27084D01*
X123380Y27089D01*
X123378Y27092D01*
X123375Y27094D01*
X123370Y27101D01*
X123368Y27109D01*
Y27114D01*
Y27116D01*
Y28991D01*
X123370Y29013D01*
X123373Y29030D01*
X123375Y29040D01*
X123378Y29045D01*
X123385Y29062D01*
X123395Y29074D01*
X123402Y29082D01*
X123405Y29084D01*
X123417Y29094D01*
X123429Y29101D01*
X123437Y29104D01*
X123442Y29106D01*
X123456Y29111D01*
X123471Y29114D01*
X123661D01*
X123688Y29111D01*
X123710Y29109D01*
X123727Y29106D01*
X123730Y29104D01*
X123732D01*
X123752Y29094D01*
X123769Y29087D01*
X123781Y29077D01*
X123786Y29074D01*
X123803Y29057D01*
X123818Y29042D01*
X123828Y29028D01*
X123833Y29025D01*
Y29023D01*
X123848Y28996D01*
X123857Y28971D01*
X123862Y28959D01*
X123867Y28949D01*
X123870Y28944D01*
Y28941D01*
X124477Y27473D01*
X124485D01*
X125068Y28946D01*
X125080Y28976D01*
X125090Y29000D01*
X125100Y29015D01*
X125102Y29018D01*
Y29020D01*
X125117Y29042D01*
X125132Y29057D01*
X125144Y29069D01*
X125146Y29072D01*
X125149D01*
X125171Y29087D01*
X125193Y29096D01*
X125203Y29099D01*
X125210Y29101D01*
X125215Y29104D01*
X125218D01*
X125247Y29109D01*
X125277Y29114D01*
X125488D01*
X125503Y29109D01*
D02*
G37*
G36*
X128551Y29121D02*
X128561D01*
X128568Y29119D01*
X128573D01*
X128593Y29116D01*
X128605Y29111D01*
X128613Y29106D01*
X128615Y29104D01*
X128622Y29094D01*
X128625Y29084D01*
X128627Y29077D01*
Y29072D01*
X128625Y29055D01*
X128622Y29037D01*
X128620Y29023D01*
X128618Y29020D01*
Y29018D01*
X128079Y27136D01*
X128074Y27121D01*
X128069Y27109D01*
X128067Y27101D01*
X128064Y27099D01*
X128054Y27092D01*
X128042Y27084D01*
X128032Y27082D01*
X128030Y27079D01*
X128012Y27077D01*
X127993Y27074D01*
X127978Y27072D01*
X127973D01*
X127944Y27069D01*
X127914Y27067D01*
X127850D01*
X127825Y27069D01*
X127816D01*
X127808Y27072D01*
X127803D01*
X127781Y27074D01*
X127766Y27077D01*
X127754Y27079D01*
X127752D01*
X127737Y27087D01*
X127727Y27092D01*
X127722Y27096D01*
X127720Y27099D01*
X127712Y27111D01*
X127707Y27123D01*
X127702Y27133D01*
Y27136D01*
X127309Y28673D01*
X127306D01*
X126878Y27136D01*
X126873Y27121D01*
X126868Y27109D01*
X126866Y27101D01*
X126864Y27099D01*
X126854Y27092D01*
X126841Y27084D01*
X126831Y27082D01*
X126829Y27079D01*
X126812Y27077D01*
X126792Y27074D01*
X126777Y27072D01*
X126772D01*
X126745Y27069D01*
X126718Y27067D01*
X126657D01*
X126632Y27069D01*
X126622D01*
X126615Y27072D01*
X126610D01*
X126588Y27074D01*
X126571Y27077D01*
X126561Y27079D01*
X126556D01*
X126541Y27087D01*
X126531Y27092D01*
X126524Y27096D01*
X126522Y27099D01*
X126514Y27111D01*
X126507Y27123D01*
X126504Y27133D01*
X126502Y27136D01*
X125963Y29015D01*
X125958Y29040D01*
X125953Y29057D01*
Y29069D01*
Y29072D01*
X125956Y29084D01*
X125958Y29094D01*
X125963Y29099D01*
X125966Y29101D01*
X125978Y29109D01*
X125990Y29114D01*
X126000Y29119D01*
X126005D01*
X126027Y29121D01*
X126054Y29123D01*
X126111D01*
X126135Y29121D01*
X126150Y29119D01*
X126155D01*
X126172Y29116D01*
X126187Y29114D01*
X126194Y29111D01*
X126197Y29109D01*
X126207Y29104D01*
X126212Y29099D01*
X126217Y29094D01*
Y29092D01*
X126224Y29074D01*
X126226Y29067D01*
Y29064D01*
X126674Y27360D01*
X126677D01*
X127144Y29062D01*
X127149Y29074D01*
X127151Y29084D01*
X127154Y29089D01*
X127156Y29092D01*
X127164Y29099D01*
X127171Y29104D01*
X127178Y29109D01*
X127181D01*
X127193Y29114D01*
X127208Y29116D01*
X127218Y29119D01*
X127223D01*
X127245Y29121D01*
X127267Y29123D01*
X127324D01*
X127348Y29121D01*
X127356D01*
X127363Y29119D01*
X127368D01*
X127387Y29116D01*
X127402Y29114D01*
X127412Y29111D01*
X127415Y29109D01*
X127424Y29104D01*
X127432Y29099D01*
X127434Y29094D01*
X127437Y29092D01*
X127444Y29072D01*
X127447Y29064D01*
Y29062D01*
X127882Y27360D01*
X127884D01*
X128342Y29064D01*
X128345Y29077D01*
X128347Y29087D01*
X128349Y29092D01*
X128352Y29094D01*
X128357Y29101D01*
X128364Y29106D01*
X128369Y29111D01*
X128372D01*
X128384Y29116D01*
X128399Y29119D01*
X128411Y29121D01*
X128416D01*
X128438Y29123D01*
X128526D01*
X128551Y29121D01*
D02*
G37*
G36*
X130042Y29109D02*
X130064Y29101D01*
X130074Y29096D01*
X130081Y29092D01*
X130084Y29089D01*
X130086Y29087D01*
X130096Y29074D01*
X130103Y29062D01*
X130113Y29030D01*
X130116Y29018D01*
X130118Y29005D01*
Y28998D01*
Y28996D01*
Y27116D01*
X130116Y27101D01*
X130113Y27096D01*
Y27094D01*
X130106Y27087D01*
X130098Y27084D01*
X130094Y27079D01*
X130091D01*
X130079Y27077D01*
X130064Y27074D01*
X130054Y27072D01*
X130049D01*
X130027Y27069D01*
X130005Y27067D01*
X129958D01*
X129936Y27069D01*
X129924Y27072D01*
X129919D01*
X129902Y27074D01*
X129887Y27077D01*
X129879Y27079D01*
X129877D01*
X129867Y27084D01*
X129860Y27089D01*
X129857Y27092D01*
X129855Y27094D01*
X129850Y27101D01*
X129848Y27109D01*
Y27114D01*
Y27116D01*
Y27852D01*
X129616D01*
X129547Y27854D01*
X129486Y27859D01*
X129429Y27866D01*
X129383Y27876D01*
X129343Y27884D01*
X129328Y27889D01*
X129316Y27891D01*
X129306Y27893D01*
X129297Y27896D01*
X129294Y27898D01*
X129292D01*
X129242Y27918D01*
X129198Y27938D01*
X129159Y27960D01*
X129127Y27982D01*
X129100Y28002D01*
X129080Y28016D01*
X129068Y28026D01*
X129063Y28031D01*
X129028Y28066D01*
X128999Y28100D01*
X128974Y28135D01*
X128955Y28169D01*
X128937Y28196D01*
X128928Y28221D01*
X128920Y28235D01*
X128918Y28238D01*
Y28240D01*
X128900Y28287D01*
X128888Y28336D01*
X128878Y28381D01*
X128873Y28425D01*
X128868Y28462D01*
Y28477D01*
X128866Y28491D01*
Y28501D01*
Y28508D01*
Y28513D01*
Y28516D01*
X128868Y28558D01*
X128871Y28597D01*
X128876Y28634D01*
X128883Y28664D01*
X128891Y28690D01*
X128895Y28708D01*
X128898Y28720D01*
X128900Y28725D01*
X128913Y28759D01*
X128928Y28791D01*
X128942Y28821D01*
X128957Y28846D01*
X128972Y28865D01*
X128982Y28880D01*
X128989Y28890D01*
X128991Y28892D01*
X129014Y28919D01*
X129038Y28944D01*
X129063Y28964D01*
X129085Y28981D01*
X129107Y28996D01*
X129122Y29005D01*
X129132Y29013D01*
X129137Y29015D01*
X129169Y29032D01*
X129200Y29047D01*
X129228Y29057D01*
X129255Y29067D01*
X129274Y29074D01*
X129292Y29079D01*
X129301Y29082D01*
X129306D01*
X129336Y29089D01*
X129363Y29094D01*
X129387Y29099D01*
X129407Y29101D01*
X129424Y29104D01*
X129439Y29106D01*
X129449D01*
X129496Y29111D01*
X129515D01*
X129535Y29114D01*
X130027D01*
X130042Y29109D01*
D02*
G37*
G36*
X144053Y4160D02*
X144129Y4151D01*
X144201Y4138D01*
X144232Y4131D01*
X144260Y4123D01*
X144287Y4116D01*
X144311Y4109D01*
X144333Y4101D01*
X144351Y4096D01*
X144363Y4092D01*
X144375Y4087D01*
X144380Y4084D01*
X144383D01*
X144449Y4052D01*
X144510Y4018D01*
X144565Y3983D01*
X144611Y3949D01*
X144651Y3917D01*
X144665Y3904D01*
X144678Y3892D01*
X144688Y3882D01*
X144695Y3875D01*
X144700Y3873D01*
X144702Y3870D01*
X144749Y3816D01*
X144791Y3759D01*
X144825Y3703D01*
X144855Y3651D01*
X144879Y3604D01*
X144887Y3585D01*
X144894Y3568D01*
X144902Y3553D01*
X144906Y3543D01*
X144909Y3536D01*
Y3533D01*
X144934Y3457D01*
X144951Y3381D01*
X144963Y3309D01*
X144971Y3240D01*
X144975Y3211D01*
Y3181D01*
X144978Y3157D01*
X144980Y3137D01*
Y3120D01*
Y3105D01*
Y3098D01*
Y3095D01*
X144978Y3009D01*
X144971Y2930D01*
X144958Y2859D01*
X144953Y2827D01*
X144946Y2795D01*
X144941Y2768D01*
X144936Y2743D01*
X144929Y2724D01*
X144924Y2706D01*
X144919Y2692D01*
X144916Y2682D01*
X144914Y2675D01*
Y2672D01*
X144884Y2603D01*
X144855Y2542D01*
X144820Y2485D01*
X144788Y2438D01*
X144761Y2399D01*
X144749Y2384D01*
X144739Y2372D01*
X144729Y2362D01*
X144722Y2355D01*
X144720Y2350D01*
X144717Y2347D01*
X144668Y2301D01*
X144614Y2259D01*
X144562Y2222D01*
X144513Y2192D01*
X144469Y2168D01*
X144451Y2160D01*
X144434Y2153D01*
X144422Y2146D01*
X144412Y2141D01*
X144407Y2138D01*
X144405D01*
X144333Y2114D01*
X144260Y2097D01*
X144188Y2084D01*
X144122Y2077D01*
X144092Y2072D01*
X144065D01*
X144043Y2069D01*
X144021Y2067D01*
X143982D01*
X143925Y2069D01*
X143898D01*
X143876Y2072D01*
X143856Y2074D01*
X143839D01*
X143829Y2077D01*
X143827D01*
X143770Y2084D01*
X143743Y2089D01*
X143718Y2094D01*
X143699Y2099D01*
X143684Y2101D01*
X143674Y2104D01*
X143672D01*
X143615Y2119D01*
X143590Y2126D01*
X143566Y2133D01*
X143549Y2138D01*
X143534Y2143D01*
X143524Y2148D01*
X143521D01*
X143494Y2158D01*
X143472Y2168D01*
X143453Y2175D01*
X143435Y2183D01*
X143421Y2190D01*
X143411Y2192D01*
X143406Y2197D01*
X143403D01*
X143386Y2207D01*
X143374Y2217D01*
X143364Y2224D01*
X143354Y2234D01*
X143344Y2246D01*
X143342Y2249D01*
Y2251D01*
X143332Y2276D01*
X143330Y2298D01*
X143327Y2308D01*
Y2315D01*
Y2320D01*
Y2323D01*
Y3100D01*
X143330Y3120D01*
X143332Y3135D01*
X143335Y3144D01*
X143337Y3149D01*
X143344Y3164D01*
X143352Y3174D01*
X143357Y3181D01*
X143359Y3184D01*
X143369Y3191D01*
X143379Y3198D01*
X143389Y3201D01*
X143391Y3204D01*
X143403Y3208D01*
X143416Y3211D01*
X144080D01*
X144087Y3208D01*
X144092Y3206D01*
X144095Y3204D01*
X144107Y3191D01*
X144109Y3186D01*
X144112Y3184D01*
X144117Y3174D01*
X144119Y3162D01*
X144122Y3154D01*
Y3149D01*
X144124Y3132D01*
Y3115D01*
Y3103D01*
Y3100D01*
Y3098D01*
Y3078D01*
X144122Y3061D01*
X144119Y3046D01*
X144117Y3034D01*
Y3026D01*
X144114Y3019D01*
X144112Y3016D01*
Y3014D01*
X144100Y2999D01*
X144087Y2992D01*
X144078Y2989D01*
X143598D01*
Y2394D01*
X143662Y2365D01*
X143691Y2352D01*
X143721Y2342D01*
X143745Y2335D01*
X143763Y2330D01*
X143775Y2325D01*
X143780D01*
X143851Y2313D01*
X143883Y2308D01*
X143913Y2306D01*
X143937D01*
X143955Y2303D01*
X143972D01*
X144028Y2306D01*
X144082Y2310D01*
X144132Y2320D01*
X144176Y2330D01*
X144213Y2338D01*
X144225Y2342D01*
X144240Y2347D01*
X144250Y2350D01*
X144257Y2352D01*
X144260Y2355D01*
X144262D01*
X144309Y2377D01*
X144353Y2402D01*
X144392Y2428D01*
X144427Y2453D01*
X144454Y2478D01*
X144474Y2495D01*
X144486Y2507D01*
X144491Y2512D01*
X144525Y2554D01*
X144555Y2596D01*
X144579Y2640D01*
X144602Y2679D01*
X144619Y2714D01*
X144631Y2743D01*
X144636Y2753D01*
X144638Y2761D01*
X144641Y2766D01*
Y2768D01*
X144658Y2827D01*
X144673Y2886D01*
X144683Y2945D01*
X144688Y2999D01*
X144690Y3024D01*
X144693Y3046D01*
Y3066D01*
X144695Y3083D01*
Y3095D01*
Y3108D01*
Y3112D01*
Y3115D01*
X144693Y3179D01*
X144688Y3240D01*
X144680Y3294D01*
X144670Y3344D01*
X144660Y3383D01*
X144658Y3400D01*
X144653Y3413D01*
X144651Y3425D01*
X144648Y3432D01*
X144646Y3437D01*
Y3440D01*
X144626Y3494D01*
X144604Y3543D01*
X144579Y3587D01*
X144557Y3624D01*
X144537Y3656D01*
X144520Y3678D01*
X144510Y3693D01*
X144506Y3698D01*
X144469Y3737D01*
X144432Y3772D01*
X144392Y3801D01*
X144358Y3826D01*
X144326Y3845D01*
X144301Y3858D01*
X144291Y3863D01*
X144284Y3868D01*
X144282Y3870D01*
X144279D01*
X144228Y3890D01*
X144173Y3904D01*
X144124Y3917D01*
X144075Y3924D01*
X144036Y3929D01*
X144018D01*
X144004Y3932D01*
X143974D01*
X143922Y3929D01*
X143876Y3927D01*
X143836Y3922D01*
X143799Y3917D01*
X143770Y3909D01*
X143748Y3904D01*
X143736Y3902D01*
X143731Y3900D01*
X143694Y3887D01*
X143659Y3878D01*
X143630Y3865D01*
X143603Y3855D01*
X143583Y3845D01*
X143566Y3841D01*
X143556Y3836D01*
X143553Y3833D01*
X143526Y3821D01*
X143504Y3809D01*
X143485Y3799D01*
X143467Y3789D01*
X143453Y3782D01*
X143443Y3774D01*
X143438Y3772D01*
X143435Y3769D01*
X143421Y3759D01*
X143406Y3752D01*
X143386Y3745D01*
X143374Y3740D01*
X143371D01*
X143357Y3742D01*
X143354Y3745D01*
X143352D01*
X143344Y3752D01*
X143340Y3759D01*
X143337Y3764D01*
Y3767D01*
X143332Y3779D01*
X143330Y3791D01*
X143327Y3801D01*
Y3804D01*
X143325Y3821D01*
X143322Y3838D01*
Y3850D01*
Y3853D01*
Y3855D01*
X143325Y3890D01*
X143327Y3914D01*
X143330Y3922D01*
Y3929D01*
X143332Y3934D01*
X143340Y3954D01*
X143349Y3968D01*
X143359Y3978D01*
X143362Y3981D01*
X143371Y3988D01*
X143381Y3998D01*
X143406Y4015D01*
X143418Y4020D01*
X143426Y4028D01*
X143433Y4030D01*
X143435Y4033D01*
X143480Y4055D01*
X143502Y4064D01*
X143521Y4074D01*
X143541Y4082D01*
X143556Y4087D01*
X143566Y4092D01*
X143568D01*
X143630Y4111D01*
X143659Y4121D01*
X143689Y4128D01*
X143713Y4133D01*
X143733Y4138D01*
X143745Y4141D01*
X143750D01*
X143829Y4153D01*
X143866Y4158D01*
X143898Y4160D01*
X143927Y4163D01*
X143969D01*
X144053Y4160D01*
D02*
G37*
G36*
X140663Y4128D02*
X140685Y4121D01*
X140700Y4114D01*
X140702Y4109D01*
X140705D01*
X140715Y4099D01*
X140722Y4084D01*
X140732Y4057D01*
X140734Y4042D01*
X140737Y4033D01*
Y4025D01*
Y4023D01*
Y2205D01*
X140734Y2183D01*
X140732Y2165D01*
X140727Y2151D01*
X140720Y2138D01*
X140715Y2131D01*
X140710Y2124D01*
X140707Y2121D01*
X140705Y2119D01*
X140680Y2106D01*
X140661Y2099D01*
X140643Y2097D01*
X140205D01*
X140112Y2099D01*
X140026Y2106D01*
X139987Y2111D01*
X139947Y2116D01*
X139915Y2124D01*
X139883Y2128D01*
X139854Y2133D01*
X139829Y2141D01*
X139807Y2146D01*
X139790Y2151D01*
X139775Y2156D01*
X139763Y2158D01*
X139758Y2160D01*
X139755D01*
X139686Y2187D01*
X139625Y2217D01*
X139571Y2249D01*
X139526Y2281D01*
X139487Y2310D01*
X139472Y2323D01*
X139460Y2333D01*
X139450Y2342D01*
X139443Y2350D01*
X139440Y2352D01*
X139438Y2355D01*
X139391Y2406D01*
X139352Y2461D01*
X139317Y2515D01*
X139290Y2566D01*
X139268Y2613D01*
X139258Y2633D01*
X139251Y2650D01*
X139246Y2662D01*
X139241Y2672D01*
X139239Y2679D01*
Y2682D01*
X139216Y2758D01*
X139199Y2837D01*
X139187Y2916D01*
X139177Y2987D01*
X139175Y3019D01*
X139172Y3051D01*
Y3078D01*
X139170Y3100D01*
Y3120D01*
Y3132D01*
Y3142D01*
Y3144D01*
X139172Y3228D01*
X139180Y3304D01*
X139190Y3376D01*
X139197Y3408D01*
X139202Y3435D01*
X139207Y3462D01*
X139214Y3486D01*
X139219Y3506D01*
X139224Y3523D01*
X139229Y3538D01*
X139231Y3548D01*
X139234Y3553D01*
Y3555D01*
X139261Y3622D01*
X139290Y3683D01*
X139322Y3735D01*
X139352Y3782D01*
X139379Y3818D01*
X139391Y3833D01*
X139403Y3845D01*
X139411Y3855D01*
X139418Y3863D01*
X139421Y3865D01*
X139423Y3868D01*
X139472Y3912D01*
X139522Y3951D01*
X139573Y3986D01*
X139622Y4015D01*
X139664Y4035D01*
X139681Y4045D01*
X139699Y4052D01*
X139711Y4057D01*
X139721Y4062D01*
X139726Y4064D01*
X139728D01*
X139799Y4087D01*
X139876Y4104D01*
X139950Y4116D01*
X140021Y4126D01*
X140053Y4128D01*
X140082Y4131D01*
X140110D01*
X140132Y4133D01*
X140638D01*
X140663Y4128D01*
D02*
G37*
G36*
X141460Y4136D02*
X141475Y4133D01*
X141480D01*
X141497Y4131D01*
X141509Y4128D01*
X141519Y4126D01*
X141522Y4123D01*
X141531Y4119D01*
X141539Y4111D01*
X141541Y4109D01*
X141544Y4106D01*
X141549Y4094D01*
Y4089D01*
Y4087D01*
Y2982D01*
Y2935D01*
Y2889D01*
Y2844D01*
Y2805D01*
Y2771D01*
Y2743D01*
Y2734D01*
Y2726D01*
Y2724D01*
Y2721D01*
Y2672D01*
Y2625D01*
Y2581D01*
X141546Y2542D01*
Y2510D01*
Y2485D01*
Y2475D01*
Y2468D01*
Y2465D01*
Y2463D01*
X141573Y2517D01*
X141586Y2542D01*
X141598Y2564D01*
X141605Y2583D01*
X141613Y2598D01*
X141618Y2608D01*
X141620Y2611D01*
X141647Y2665D01*
X141659Y2689D01*
X141672Y2711D01*
X141681Y2731D01*
X141689Y2746D01*
X141694Y2756D01*
X141696Y2758D01*
X141723Y2815D01*
X141738Y2842D01*
X141750Y2864D01*
X141760Y2884D01*
X141768Y2901D01*
X141772Y2911D01*
X141775Y2913D01*
X141807Y2972D01*
X141822Y2999D01*
X141834Y3024D01*
X141844Y3044D01*
X141854Y3058D01*
X141859Y3071D01*
X141861Y3073D01*
X142338Y3966D01*
X142356Y4000D01*
X142373Y4025D01*
X142378Y4035D01*
X142383Y4042D01*
X142387Y4045D01*
Y4047D01*
X142405Y4069D01*
X142420Y4084D01*
X142432Y4094D01*
X142434Y4096D01*
X142437D01*
X142456Y4109D01*
X142474Y4119D01*
X142488Y4121D01*
X142491Y4123D01*
X142493D01*
X142518Y4128D01*
X142545Y4133D01*
X142720D01*
X142734Y4128D01*
X142759Y4121D01*
X142769Y4116D01*
X142776Y4111D01*
X142781Y4109D01*
X142783Y4106D01*
X142796Y4094D01*
X142803Y4082D01*
X142813Y4050D01*
X142815Y4037D01*
X142818Y4025D01*
Y4018D01*
Y4015D01*
Y2136D01*
X142815Y2121D01*
X142813Y2116D01*
Y2114D01*
X142806Y2106D01*
X142798Y2104D01*
X142793Y2099D01*
X142791D01*
X142779Y2097D01*
X142766Y2094D01*
X142756Y2091D01*
X142752D01*
X142729Y2089D01*
X142707Y2087D01*
X142658D01*
X142638Y2089D01*
X142626Y2091D01*
X142621D01*
X142604Y2094D01*
X142589Y2097D01*
X142582Y2099D01*
X142579D01*
X142567Y2104D01*
X142560Y2109D01*
X142557Y2111D01*
X142555Y2114D01*
X142550Y2124D01*
X142547Y2128D01*
Y2133D01*
Y2136D01*
Y3366D01*
Y3410D01*
Y3452D01*
Y3491D01*
Y3526D01*
X142550Y3555D01*
Y3580D01*
Y3595D01*
Y3597D01*
Y3599D01*
Y3644D01*
Y3686D01*
X142552Y3725D01*
Y3759D01*
Y3789D01*
X142555Y3811D01*
Y3826D01*
Y3831D01*
X142550D01*
X142518Y3762D01*
X142503Y3730D01*
X142488Y3703D01*
X142476Y3678D01*
X142466Y3659D01*
X142461Y3646D01*
X142459Y3641D01*
X142442Y3604D01*
X142422Y3570D01*
X142407Y3538D01*
X142390Y3511D01*
X142378Y3486D01*
X142368Y3467D01*
X142363Y3457D01*
X142360Y3452D01*
X141741Y2293D01*
X141728Y2271D01*
X141718Y2251D01*
X141706Y2234D01*
X141699Y2220D01*
X141689Y2207D01*
X141684Y2200D01*
X141681Y2195D01*
X141679Y2192D01*
X141657Y2165D01*
X141640Y2148D01*
X141627Y2136D01*
X141622Y2131D01*
X141600Y2116D01*
X141581Y2106D01*
X141566Y2101D01*
X141563Y2099D01*
X141561D01*
X141536Y2094D01*
X141512Y2091D01*
X141384D01*
X141369Y2094D01*
X141359Y2097D01*
X141357D01*
X141342Y2104D01*
X141330Y2109D01*
X141320Y2114D01*
X141317Y2116D01*
X141305Y2128D01*
X141298Y2141D01*
X141293Y2151D01*
X141290Y2153D01*
X141283Y2170D01*
X141280Y2187D01*
X141278Y2202D01*
Y2205D01*
Y2207D01*
Y4087D01*
Y4094D01*
X141280Y4101D01*
X141283Y4104D01*
X141285Y4106D01*
X141293Y4114D01*
X141300Y4119D01*
X141305Y4123D01*
X141307D01*
X141320Y4128D01*
X141335Y4131D01*
X141344Y4133D01*
X141349D01*
X141372Y4136D01*
X141391Y4138D01*
X141440D01*
X141460Y4136D01*
D02*
G37*
G36*
X136745Y4227D02*
X136767Y4219D01*
X136779Y4210D01*
X136784Y4207D01*
Y4205D01*
X136791Y4195D01*
X136796Y4183D01*
X136804Y4158D01*
Y4146D01*
X136806Y4136D01*
Y4131D01*
Y4128D01*
Y3299D01*
Y3280D01*
X136804Y3263D01*
X136801Y3248D01*
X136796Y3238D01*
X136794Y3230D01*
X136791Y3226D01*
X136789Y3221D01*
X136772Y3208D01*
X136749Y3204D01*
X136740Y3201D01*
X136725D01*
X136681Y3204D01*
X136659D01*
X136639Y3206D01*
X136622Y3208D01*
X136609D01*
X136600Y3211D01*
X136597D01*
X136570Y3213D01*
X136543Y3216D01*
X136513Y3218D01*
X136489Y3221D01*
X136383D01*
X136339Y3216D01*
X136299Y3213D01*
X136265Y3208D01*
X136238Y3204D01*
X136216Y3201D01*
X136203Y3196D01*
X136198D01*
X136164Y3186D01*
X136132Y3174D01*
X136105Y3162D01*
X136080Y3149D01*
X136061Y3137D01*
X136048Y3127D01*
X136039Y3122D01*
X136036Y3120D01*
X136014Y3100D01*
X135994Y3080D01*
X135980Y3058D01*
X135965Y3041D01*
X135955Y3024D01*
X135948Y3009D01*
X135945Y2999D01*
X135943Y2997D01*
X135933Y2967D01*
X135923Y2938D01*
X135918Y2911D01*
X135916Y2884D01*
X135913Y2859D01*
X135911Y2842D01*
Y2830D01*
Y2825D01*
X135913Y2783D01*
X135916Y2743D01*
X135923Y2709D01*
X135928Y2682D01*
X135935Y2657D01*
X135943Y2640D01*
X135945Y2630D01*
X135948Y2625D01*
X135962Y2598D01*
X135980Y2571D01*
X135997Y2549D01*
X136012Y2529D01*
X136026Y2515D01*
X136039Y2502D01*
X136046Y2495D01*
X136048Y2492D01*
X136073Y2473D01*
X136100Y2458D01*
X136125Y2443D01*
X136149Y2434D01*
X136169Y2424D01*
X136186Y2419D01*
X136196Y2416D01*
X136201Y2414D01*
X136267Y2399D01*
X136299Y2394D01*
X136329Y2392D01*
X136356D01*
X136376Y2389D01*
X136435D01*
X136472Y2392D01*
X136504Y2397D01*
X136533Y2399D01*
X136558Y2404D01*
X136575Y2406D01*
X136585Y2409D01*
X136590D01*
X136619Y2416D01*
X136646Y2424D01*
X136668Y2431D01*
X136688Y2438D01*
X136705Y2443D01*
X136718Y2448D01*
X136725Y2451D01*
X136727D01*
X136764Y2468D01*
X136782Y2475D01*
X136794Y2483D01*
X136804Y2488D01*
X136811Y2492D01*
X136816Y2495D01*
X136818D01*
X136838Y2507D01*
X136853Y2512D01*
X136863Y2515D01*
X136873D01*
X136878Y2512D01*
X136882Y2510D01*
X136885Y2507D01*
X136895Y2495D01*
X136897Y2490D01*
X136900Y2488D01*
X136905Y2478D01*
X136907Y2465D01*
X136909Y2458D01*
Y2453D01*
Y2436D01*
Y2421D01*
Y2409D01*
Y2406D01*
Y2404D01*
Y2384D01*
Y2369D01*
Y2360D01*
Y2355D01*
X136907Y2340D01*
Y2330D01*
X136905Y2323D01*
Y2320D01*
X136897Y2306D01*
X136895Y2301D01*
Y2298D01*
X136885Y2286D01*
X136882Y2281D01*
X136880Y2279D01*
X136875Y2274D01*
X136865Y2269D01*
X136848Y2261D01*
X136833Y2252D01*
X136828Y2249D01*
X136826D01*
X136789Y2234D01*
X136755Y2222D01*
X136737Y2217D01*
X136725Y2212D01*
X136718Y2210D01*
X136715D01*
X136663Y2197D01*
X136639Y2192D01*
X136614Y2187D01*
X136595Y2185D01*
X136580Y2183D01*
X136567Y2180D01*
X136565D01*
X136501Y2173D01*
X136469Y2168D01*
X136442D01*
X136420Y2165D01*
X136386D01*
X136324Y2168D01*
X136265Y2173D01*
X136213Y2180D01*
X136167Y2187D01*
X136130Y2195D01*
X136112Y2200D01*
X136100Y2202D01*
X136090Y2205D01*
X136083Y2207D01*
X136078Y2210D01*
X136075D01*
X136024Y2229D01*
X135980Y2249D01*
X135938Y2271D01*
X135903Y2293D01*
X135874Y2313D01*
X135852Y2328D01*
X135839Y2338D01*
X135834Y2342D01*
X135798Y2377D01*
X135768Y2414D01*
X135741Y2451D01*
X135719Y2485D01*
X135702Y2515D01*
X135689Y2537D01*
X135684Y2547D01*
X135682Y2554D01*
X135679Y2557D01*
Y2559D01*
X135660Y2608D01*
X135647Y2657D01*
X135638Y2707D01*
X135630Y2753D01*
X135625Y2790D01*
Y2807D01*
X135623Y2822D01*
Y2834D01*
Y2842D01*
Y2847D01*
Y2849D01*
X135625Y2898D01*
X135630Y2943D01*
X135638Y2984D01*
X135645Y3019D01*
X135652Y3049D01*
X135660Y3071D01*
X135665Y3085D01*
X135667Y3090D01*
X135684Y3130D01*
X135706Y3164D01*
X135726Y3196D01*
X135748Y3223D01*
X135766Y3245D01*
X135780Y3263D01*
X135790Y3272D01*
X135795Y3275D01*
X135827Y3302D01*
X135864Y3326D01*
X135898Y3349D01*
X135933Y3366D01*
X135962Y3378D01*
X135985Y3388D01*
X135994Y3390D01*
X136002Y3393D01*
X136004Y3395D01*
X136007D01*
X136056Y3410D01*
X136105Y3420D01*
X136154Y3427D01*
X136201Y3432D01*
X136240Y3435D01*
X136258Y3437D01*
X136393D01*
X136408Y3435D01*
X136430D01*
X136469Y3432D01*
X136486Y3430D01*
X136504D01*
X136516Y3427D01*
X136526D01*
X136533Y3425D01*
X136536D01*
Y3996D01*
X135807D01*
X135798Y3998D01*
X135790Y4000D01*
X135775Y4010D01*
X135768Y4020D01*
X135766Y4025D01*
X135756Y4052D01*
X135751Y4082D01*
X135748Y4094D01*
Y4104D01*
Y4111D01*
Y4114D01*
Y4133D01*
X135751Y4151D01*
X135753Y4160D01*
Y4165D01*
X135758Y4180D01*
X135761Y4192D01*
X135763Y4200D01*
X135766Y4202D01*
X135770Y4212D01*
X135778Y4219D01*
X135783Y4222D01*
X135785Y4224D01*
X135795Y4229D01*
X135802Y4232D01*
X136730D01*
X136745Y4227D01*
D02*
G37*
G36*
X135288Y4239D02*
X135310D01*
X135318Y4237D01*
X135323D01*
X135342Y4234D01*
X135355Y4229D01*
X135365Y4224D01*
X135367Y4222D01*
X135374Y4212D01*
X135379Y4202D01*
X135382Y4195D01*
Y4190D01*
X135379Y4173D01*
X135374Y4155D01*
X135370Y4141D01*
X135367Y4138D01*
Y4136D01*
X134700Y2242D01*
X134693Y2227D01*
X134690Y2222D01*
Y2220D01*
X134681Y2210D01*
X134678Y2207D01*
X134676Y2205D01*
X134661Y2200D01*
X134656Y2197D01*
X134654D01*
X134641Y2195D01*
X134632D01*
X134624Y2192D01*
X134622D01*
X134607Y2190D01*
X134592Y2187D01*
X134577D01*
X134555Y2185D01*
X134484D01*
X134459Y2187D01*
X134440D01*
X134417Y2190D01*
X134403Y2192D01*
X134390Y2195D01*
X134388D01*
X134376Y2200D01*
X134366Y2207D01*
X134361Y2210D01*
X134358Y2212D01*
X134344Y2232D01*
X134341Y2239D01*
X134339Y2242D01*
X133675Y4133D01*
X133667Y4155D01*
X133662Y4173D01*
X133660Y4185D01*
Y4188D01*
Y4202D01*
X133662Y4212D01*
X133665Y4217D01*
X133667Y4219D01*
X133677Y4227D01*
X133689Y4232D01*
X133702Y4237D01*
X133706D01*
X133729Y4239D01*
X133756Y4242D01*
X133839D01*
X133849Y4239D01*
X133861D01*
X133879Y4237D01*
X133894Y4234D01*
X133901Y4232D01*
X133903Y4229D01*
X133913Y4224D01*
X133921Y4217D01*
X133923Y4214D01*
X133925Y4212D01*
X133928Y4202D01*
X133933Y4195D01*
X133935Y4185D01*
Y4183D01*
X134504Y2473D01*
X134506D01*
X135091Y4188D01*
X135096Y4197D01*
X135101Y4205D01*
X135104Y4210D01*
X135106Y4212D01*
X135111Y4219D01*
X135119Y4224D01*
X135124Y4229D01*
X135126D01*
X135138Y4234D01*
X135153Y4237D01*
X135163Y4239D01*
X135168D01*
X135190Y4242D01*
X135274D01*
X135288Y4239D01*
D02*
G37*
G36*
X128502Y14200D02*
X128578Y14190D01*
X128649Y14178D01*
X128681Y14170D01*
X128708Y14163D01*
X128735Y14155D01*
X128760Y14148D01*
X128782Y14141D01*
X128799Y14136D01*
X128812Y14131D01*
X128824Y14126D01*
X128829Y14123D01*
X128831D01*
X128898Y14092D01*
X128959Y14057D01*
X129013Y14023D01*
X129060Y13988D01*
X129100Y13956D01*
X129114Y13944D01*
X129127Y13932D01*
X129136Y13922D01*
X129144Y13914D01*
X129149Y13912D01*
X129151Y13909D01*
X129198Y13855D01*
X129240Y13799D01*
X129274Y13742D01*
X129304Y13690D01*
X129328Y13644D01*
X129336Y13624D01*
X129343Y13607D01*
X129350Y13592D01*
X129355Y13582D01*
X129358Y13575D01*
Y13573D01*
X129382Y13496D01*
X129400Y13420D01*
X129412Y13349D01*
X129419Y13280D01*
X129424Y13250D01*
Y13221D01*
X129427Y13196D01*
X129429Y13176D01*
Y13159D01*
Y13144D01*
Y13137D01*
Y13135D01*
X129427Y13048D01*
X129419Y12970D01*
X129407Y12898D01*
X129402Y12866D01*
X129395Y12834D01*
X129390Y12807D01*
X129385Y12783D01*
X129377Y12763D01*
X129373Y12746D01*
X129368Y12731D01*
X129365Y12721D01*
X129363Y12714D01*
Y12711D01*
X129333Y12643D01*
X129304Y12581D01*
X129269Y12525D01*
X129237Y12478D01*
X129210Y12438D01*
X129198Y12424D01*
X129188Y12411D01*
X129178Y12402D01*
X129171Y12394D01*
X129168Y12389D01*
X129166Y12387D01*
X129117Y12340D01*
X129063Y12298D01*
X129011Y12261D01*
X128962Y12232D01*
X128918Y12207D01*
X128900Y12200D01*
X128883Y12192D01*
X128871Y12185D01*
X128861Y12180D01*
X128856Y12178D01*
X128853D01*
X128782Y12153D01*
X128708Y12136D01*
X128637Y12123D01*
X128571Y12116D01*
X128541Y12111D01*
X128514D01*
X128492Y12109D01*
X128470Y12106D01*
X128430D01*
X128374Y12109D01*
X128347D01*
X128325Y12111D01*
X128305Y12114D01*
X128288D01*
X128278Y12116D01*
X128275D01*
X128219Y12123D01*
X128192Y12128D01*
X128167Y12133D01*
X128147Y12138D01*
X128133Y12141D01*
X128123Y12143D01*
X128120D01*
X128064Y12158D01*
X128039Y12165D01*
X128015Y12173D01*
X127997Y12178D01*
X127983Y12183D01*
X127973Y12188D01*
X127970D01*
X127943Y12197D01*
X127921Y12207D01*
X127901Y12214D01*
X127884Y12222D01*
X127869Y12229D01*
X127860Y12232D01*
X127855Y12237D01*
X127852D01*
X127835Y12246D01*
X127823Y12256D01*
X127813Y12264D01*
X127803Y12274D01*
X127793Y12286D01*
X127791Y12288D01*
Y12291D01*
X127781Y12315D01*
X127778Y12337D01*
X127776Y12347D01*
Y12355D01*
Y12360D01*
Y12362D01*
Y13139D01*
X127778Y13159D01*
X127781Y13174D01*
X127783Y13184D01*
X127786Y13189D01*
X127793Y13204D01*
X127801Y13213D01*
X127805Y13221D01*
X127808Y13223D01*
X127818Y13230D01*
X127828Y13238D01*
X127838Y13240D01*
X127840Y13243D01*
X127852Y13248D01*
X127865Y13250D01*
X128529D01*
X128536Y13248D01*
X128541Y13245D01*
X128543Y13243D01*
X128556Y13230D01*
X128558Y13226D01*
X128561Y13223D01*
X128566Y13213D01*
X128568Y13201D01*
X128571Y13194D01*
Y13189D01*
X128573Y13171D01*
Y13154D01*
Y13142D01*
Y13139D01*
Y13137D01*
Y13117D01*
X128571Y13100D01*
X128568Y13085D01*
X128566Y13073D01*
Y13066D01*
X128563Y13058D01*
X128561Y13056D01*
Y13053D01*
X128549Y13039D01*
X128536Y13031D01*
X128526Y13029D01*
X128047D01*
Y12433D01*
X128111Y12404D01*
X128140Y12392D01*
X128170Y12382D01*
X128194Y12374D01*
X128211Y12370D01*
X128224Y12365D01*
X128229D01*
X128300Y12352D01*
X128332Y12347D01*
X128361Y12345D01*
X128386D01*
X128403Y12342D01*
X128420D01*
X128477Y12345D01*
X128531Y12350D01*
X128580Y12360D01*
X128625Y12370D01*
X128662Y12377D01*
X128674Y12382D01*
X128689Y12387D01*
X128699Y12389D01*
X128706Y12392D01*
X128708Y12394D01*
X128711D01*
X128758Y12416D01*
X128802Y12441D01*
X128841Y12468D01*
X128876Y12493D01*
X128903Y12517D01*
X128922Y12534D01*
X128935Y12547D01*
X128940Y12552D01*
X128974Y12593D01*
X129004Y12635D01*
X129028Y12679D01*
X129050Y12719D01*
X129068Y12753D01*
X129080Y12783D01*
X129085Y12793D01*
X129087Y12800D01*
X129090Y12805D01*
Y12807D01*
X129107Y12866D01*
X129122Y12925D01*
X129131Y12984D01*
X129136Y13039D01*
X129139Y13063D01*
X129141Y13085D01*
Y13105D01*
X129144Y13122D01*
Y13135D01*
Y13147D01*
Y13152D01*
Y13154D01*
X129141Y13218D01*
X129136Y13280D01*
X129129Y13334D01*
X129119Y13383D01*
X129109Y13422D01*
X129107Y13440D01*
X129102Y13452D01*
X129100Y13464D01*
X129097Y13472D01*
X129095Y13476D01*
Y13479D01*
X129075Y13533D01*
X129053Y13582D01*
X129028Y13627D01*
X129006Y13664D01*
X128986Y13695D01*
X128969Y13718D01*
X128959Y13732D01*
X128954Y13737D01*
X128918Y13777D01*
X128881Y13811D01*
X128841Y13841D01*
X128807Y13865D01*
X128775Y13885D01*
X128750Y13897D01*
X128740Y13902D01*
X128733Y13907D01*
X128730Y13909D01*
X128728D01*
X128676Y13929D01*
X128622Y13944D01*
X128573Y13956D01*
X128524Y13964D01*
X128484Y13969D01*
X128467D01*
X128453Y13971D01*
X128423D01*
X128371Y13969D01*
X128325Y13966D01*
X128285Y13961D01*
X128248Y13956D01*
X128219Y13949D01*
X128197Y13944D01*
X128184Y13941D01*
X128179Y13939D01*
X128143Y13927D01*
X128108Y13917D01*
X128079Y13905D01*
X128051Y13895D01*
X128032Y13885D01*
X128015Y13880D01*
X128005Y13875D01*
X128002Y13873D01*
X127975Y13860D01*
X127953Y13848D01*
X127933Y13838D01*
X127916Y13828D01*
X127901Y13821D01*
X127892Y13814D01*
X127887Y13811D01*
X127884Y13809D01*
X127869Y13799D01*
X127855Y13791D01*
X127835Y13784D01*
X127823Y13779D01*
X127820D01*
X127805Y13782D01*
X127803Y13784D01*
X127801D01*
X127793Y13791D01*
X127788Y13799D01*
X127786Y13804D01*
Y13806D01*
X127781Y13818D01*
X127778Y13831D01*
X127776Y13841D01*
Y13843D01*
X127774Y13860D01*
X127771Y13878D01*
Y13890D01*
Y13892D01*
Y13895D01*
X127774Y13929D01*
X127776Y13954D01*
X127778Y13961D01*
Y13969D01*
X127781Y13973D01*
X127788Y13993D01*
X127798Y14008D01*
X127808Y14018D01*
X127810Y14020D01*
X127820Y14028D01*
X127830Y14037D01*
X127855Y14055D01*
X127867Y14060D01*
X127874Y14067D01*
X127882Y14069D01*
X127884Y14072D01*
X127928Y14094D01*
X127951Y14104D01*
X127970Y14114D01*
X127990Y14121D01*
X128005Y14126D01*
X128015Y14131D01*
X128017D01*
X128079Y14151D01*
X128108Y14160D01*
X128138Y14168D01*
X128162Y14173D01*
X128182Y14178D01*
X128194Y14180D01*
X128199D01*
X128278Y14192D01*
X128315Y14197D01*
X128347Y14200D01*
X128376Y14202D01*
X128418D01*
X128502Y14200D01*
D02*
G37*
G36*
X125112Y14168D02*
X125134Y14160D01*
X125149Y14153D01*
X125151Y14148D01*
X125154D01*
X125163Y14138D01*
X125171Y14123D01*
X125181Y14096D01*
X125183Y14082D01*
X125186Y14072D01*
Y14064D01*
Y14062D01*
Y12244D01*
X125183Y12222D01*
X125181Y12205D01*
X125176Y12190D01*
X125168Y12178D01*
X125163Y12170D01*
X125159Y12163D01*
X125156Y12160D01*
X125154Y12158D01*
X125129Y12146D01*
X125109Y12138D01*
X125092Y12136D01*
X124654D01*
X124561Y12138D01*
X124475Y12146D01*
X124435Y12151D01*
X124396Y12156D01*
X124364Y12163D01*
X124332Y12168D01*
X124302Y12173D01*
X124278Y12180D01*
X124256Y12185D01*
X124239Y12190D01*
X124224Y12195D01*
X124212Y12197D01*
X124206Y12200D01*
X124204D01*
X124135Y12227D01*
X124074Y12256D01*
X124020Y12288D01*
X123975Y12320D01*
X123936Y12350D01*
X123921Y12362D01*
X123909Y12372D01*
X123899Y12382D01*
X123892Y12389D01*
X123889Y12392D01*
X123887Y12394D01*
X123840Y12446D01*
X123801Y12500D01*
X123766Y12554D01*
X123739Y12606D01*
X123717Y12652D01*
X123707Y12672D01*
X123700Y12689D01*
X123695Y12702D01*
X123690Y12711D01*
X123688Y12719D01*
Y12721D01*
X123665Y12798D01*
X123648Y12876D01*
X123636Y12955D01*
X123626Y13026D01*
X123624Y13058D01*
X123621Y13090D01*
Y13117D01*
X123619Y13139D01*
Y13159D01*
Y13171D01*
Y13181D01*
Y13184D01*
X123621Y13267D01*
X123628Y13344D01*
X123638Y13415D01*
X123646Y13447D01*
X123651Y13474D01*
X123655Y13501D01*
X123663Y13526D01*
X123668Y13545D01*
X123673Y13563D01*
X123678Y13577D01*
X123680Y13587D01*
X123683Y13592D01*
Y13595D01*
X123710Y13661D01*
X123739Y13723D01*
X123771Y13774D01*
X123801Y13821D01*
X123828Y13858D01*
X123840Y13873D01*
X123852Y13885D01*
X123860Y13895D01*
X123867Y13902D01*
X123870Y13905D01*
X123872Y13907D01*
X123921Y13951D01*
X123970Y13991D01*
X124022Y14025D01*
X124071Y14055D01*
X124113Y14074D01*
X124130Y14084D01*
X124147Y14092D01*
X124160Y14096D01*
X124170Y14101D01*
X124175Y14104D01*
X124177D01*
X124248Y14126D01*
X124325Y14143D01*
X124398Y14155D01*
X124470Y14165D01*
X124502Y14168D01*
X124531Y14170D01*
X124558D01*
X124581Y14173D01*
X125087D01*
X125112Y14168D01*
D02*
G37*
G36*
X125909Y14175D02*
X125924Y14173D01*
X125928D01*
X125946Y14170D01*
X125958Y14168D01*
X125968Y14165D01*
X125970Y14163D01*
X125980Y14158D01*
X125988Y14151D01*
X125990Y14148D01*
X125993Y14146D01*
X125997Y14133D01*
Y14128D01*
Y14126D01*
Y13021D01*
Y12975D01*
Y12928D01*
Y12884D01*
Y12844D01*
Y12810D01*
Y12783D01*
Y12773D01*
Y12766D01*
Y12763D01*
Y12761D01*
Y12711D01*
Y12665D01*
Y12620D01*
X125995Y12581D01*
Y12549D01*
Y12525D01*
Y12515D01*
Y12507D01*
Y12505D01*
Y12502D01*
X126022Y12557D01*
X126034Y12581D01*
X126047Y12603D01*
X126054Y12623D01*
X126061Y12638D01*
X126066Y12648D01*
X126069Y12650D01*
X126096Y12704D01*
X126108Y12729D01*
X126120Y12751D01*
X126130Y12770D01*
X126138Y12785D01*
X126143Y12795D01*
X126145Y12798D01*
X126172Y12854D01*
X126187Y12881D01*
X126199Y12903D01*
X126209Y12923D01*
X126216Y12940D01*
X126221Y12950D01*
X126224Y12953D01*
X126256Y13012D01*
X126270Y13039D01*
X126283Y13063D01*
X126293Y13083D01*
X126303Y13098D01*
X126307Y13110D01*
X126310Y13112D01*
X126787Y14005D01*
X126804Y14040D01*
X126821Y14064D01*
X126826Y14074D01*
X126831Y14082D01*
X126836Y14084D01*
Y14087D01*
X126854Y14109D01*
X126868Y14123D01*
X126881Y14133D01*
X126883Y14136D01*
X126885D01*
X126905Y14148D01*
X126922Y14158D01*
X126937Y14160D01*
X126940Y14163D01*
X126942D01*
X126967Y14168D01*
X126994Y14173D01*
X127168D01*
X127183Y14168D01*
X127208Y14160D01*
X127218Y14155D01*
X127225Y14151D01*
X127230Y14148D01*
X127232Y14146D01*
X127245Y14133D01*
X127252Y14121D01*
X127262Y14089D01*
X127264Y14077D01*
X127267Y14064D01*
Y14057D01*
Y14055D01*
Y12175D01*
X127264Y12160D01*
X127262Y12156D01*
Y12153D01*
X127254Y12146D01*
X127247Y12143D01*
X127242Y12138D01*
X127240D01*
X127227Y12136D01*
X127215Y12133D01*
X127205Y12131D01*
X127200D01*
X127178Y12128D01*
X127156Y12126D01*
X127107D01*
X127087Y12128D01*
X127075Y12131D01*
X127070D01*
X127053Y12133D01*
X127038Y12136D01*
X127031Y12138D01*
X127028D01*
X127016Y12143D01*
X127008Y12148D01*
X127006Y12151D01*
X127004Y12153D01*
X126999Y12163D01*
X126996Y12168D01*
Y12173D01*
Y12175D01*
Y13405D01*
Y13450D01*
Y13491D01*
Y13531D01*
Y13565D01*
X126999Y13595D01*
Y13619D01*
Y13634D01*
Y13636D01*
Y13639D01*
Y13683D01*
Y13725D01*
X127001Y13764D01*
Y13799D01*
Y13828D01*
X127004Y13850D01*
Y13865D01*
Y13870D01*
X126999D01*
X126967Y13801D01*
X126952Y13769D01*
X126937Y13742D01*
X126925Y13718D01*
X126915Y13698D01*
X126910Y13686D01*
X126908Y13681D01*
X126890Y13644D01*
X126871Y13609D01*
X126856Y13577D01*
X126839Y13550D01*
X126826Y13526D01*
X126817Y13506D01*
X126812Y13496D01*
X126809Y13491D01*
X126189Y12333D01*
X126177Y12310D01*
X126167Y12291D01*
X126155Y12274D01*
X126147Y12259D01*
X126138Y12246D01*
X126133Y12239D01*
X126130Y12234D01*
X126128Y12232D01*
X126106Y12205D01*
X126088Y12188D01*
X126076Y12175D01*
X126071Y12170D01*
X126049Y12156D01*
X126029Y12146D01*
X126015Y12141D01*
X126012Y12138D01*
X126010D01*
X125985Y12133D01*
X125961Y12131D01*
X125833D01*
X125818Y12133D01*
X125808Y12136D01*
X125805D01*
X125791Y12143D01*
X125778Y12148D01*
X125769Y12153D01*
X125766Y12156D01*
X125754Y12168D01*
X125747Y12180D01*
X125742Y12190D01*
X125739Y12192D01*
X125732Y12210D01*
X125729Y12227D01*
X125727Y12242D01*
Y12244D01*
Y12246D01*
Y14126D01*
Y14133D01*
X125729Y14141D01*
X125732Y14143D01*
X125734Y14146D01*
X125742Y14153D01*
X125749Y14158D01*
X125754Y14163D01*
X125756D01*
X125769Y14168D01*
X125783Y14170D01*
X125793Y14173D01*
X125798D01*
X125820Y14175D01*
X125840Y14178D01*
X125889D01*
X125909Y14175D01*
D02*
G37*
%LPC*%
G36*
X131226Y3791D02*
X130977D01*
X130925Y3789D01*
X130901Y3786D01*
X130879D01*
X130861Y3784D01*
X130847Y3782D01*
X130837Y3779D01*
X130834D01*
X130807Y3774D01*
X130780Y3767D01*
X130756Y3759D01*
X130736Y3749D01*
X130716Y3742D01*
X130704Y3735D01*
X130694Y3730D01*
X130692Y3727D01*
X130667Y3710D01*
X130645Y3691D01*
X130625Y3668D01*
X130608Y3649D01*
X130593Y3632D01*
X130583Y3617D01*
X130578Y3607D01*
X130576Y3602D01*
X130561Y3570D01*
X130549Y3536D01*
X130542Y3501D01*
X130534Y3467D01*
X130532Y3440D01*
X130529Y3415D01*
Y3400D01*
Y3398D01*
Y3395D01*
Y3361D01*
X130534Y3331D01*
X130539Y3302D01*
X130544Y3277D01*
X130549Y3255D01*
X130554Y3240D01*
X130556Y3228D01*
X130559Y3226D01*
X130571Y3198D01*
X130583Y3174D01*
X130598Y3149D01*
X130611Y3130D01*
X130623Y3115D01*
X130633Y3103D01*
X130640Y3095D01*
X130642Y3093D01*
X130665Y3073D01*
X130687Y3056D01*
X130709Y3041D01*
X130731Y3026D01*
X130748Y3016D01*
X130763Y3009D01*
X130775Y3007D01*
X130778Y3004D01*
X130810Y2994D01*
X130844Y2987D01*
X130879Y2982D01*
X130911Y2980D01*
X130938Y2977D01*
X130962Y2975D01*
X131226D01*
Y3791D01*
D02*
G37*
G36*
X129848Y28890D02*
X129599D01*
X129547Y28887D01*
X129523Y28885D01*
X129501D01*
X129483Y28882D01*
X129469Y28880D01*
X129459Y28877D01*
X129456D01*
X129429Y28873D01*
X129402Y28865D01*
X129378Y28858D01*
X129358Y28848D01*
X129338Y28841D01*
X129326Y28833D01*
X129316Y28828D01*
X129314Y28826D01*
X129289Y28809D01*
X129267Y28789D01*
X129247Y28767D01*
X129230Y28747D01*
X129215Y28730D01*
X129205Y28715D01*
X129200Y28705D01*
X129198Y28700D01*
X129183Y28668D01*
X129171Y28634D01*
X129164Y28600D01*
X129156Y28565D01*
X129154Y28538D01*
X129151Y28513D01*
Y28499D01*
Y28496D01*
Y28494D01*
Y28459D01*
X129156Y28430D01*
X129161Y28400D01*
X129166Y28376D01*
X129171Y28354D01*
X129176Y28339D01*
X129178Y28326D01*
X129181Y28324D01*
X129193Y28297D01*
X129205Y28272D01*
X129220Y28248D01*
X129233Y28228D01*
X129245Y28213D01*
X129255Y28201D01*
X129262Y28194D01*
X129264Y28191D01*
X129287Y28172D01*
X129309Y28154D01*
X129331Y28139D01*
X129353Y28125D01*
X129370Y28115D01*
X129385Y28108D01*
X129397Y28105D01*
X129400Y28103D01*
X129432Y28093D01*
X129466Y28085D01*
X129501Y28080D01*
X129533Y28078D01*
X129560Y28076D01*
X129584Y28073D01*
X129848D01*
Y28890D01*
D02*
G37*
G36*
X140466Y3907D02*
X140191D01*
X140117Y3904D01*
X140048Y3897D01*
X139991Y3887D01*
X139942Y3878D01*
X139920Y3873D01*
X139903Y3868D01*
X139886Y3863D01*
X139873Y3858D01*
X139864Y3853D01*
X139854Y3850D01*
X139851Y3848D01*
X139849D01*
X139799Y3823D01*
X139758Y3799D01*
X139718Y3772D01*
X139686Y3745D01*
X139662Y3723D01*
X139642Y3703D01*
X139632Y3691D01*
X139627Y3686D01*
X139595Y3646D01*
X139568Y3604D01*
X139546Y3563D01*
X139529Y3523D01*
X139514Y3491D01*
X139504Y3464D01*
X139502Y3454D01*
X139499Y3447D01*
X139497Y3442D01*
Y3440D01*
X139482Y3385D01*
X139472Y3331D01*
X139465Y3280D01*
X139460Y3233D01*
X139458Y3191D01*
X139455Y3174D01*
Y3159D01*
Y3149D01*
Y3139D01*
Y3135D01*
Y3132D01*
X139458Y3056D01*
X139462Y2987D01*
X139470Y2926D01*
X139477Y2874D01*
X139482Y2849D01*
X139487Y2829D01*
X139492Y2812D01*
X139495Y2798D01*
X139497Y2785D01*
X139499Y2778D01*
X139502Y2773D01*
Y2771D01*
X139519Y2716D01*
X139541Y2667D01*
X139563Y2625D01*
X139585Y2588D01*
X139605Y2559D01*
X139622Y2537D01*
X139632Y2524D01*
X139637Y2520D01*
X139672Y2485D01*
X139708Y2453D01*
X139748Y2428D01*
X139782Y2406D01*
X139814Y2392D01*
X139839Y2379D01*
X139849Y2374D01*
X139856Y2372D01*
X139859Y2369D01*
X139861D01*
X139913Y2355D01*
X139969Y2342D01*
X140023Y2335D01*
X140075Y2328D01*
X140119Y2325D01*
X140139D01*
X140156Y2323D01*
X140466D01*
Y3907D01*
D02*
G37*
G36*
X124915Y13946D02*
X124639D01*
X124566Y13944D01*
X124497Y13937D01*
X124440Y13927D01*
X124391Y13917D01*
X124369Y13912D01*
X124352Y13907D01*
X124335Y13902D01*
X124322Y13897D01*
X124312Y13892D01*
X124302Y13890D01*
X124300Y13887D01*
X124298D01*
X124248Y13863D01*
X124206Y13838D01*
X124167Y13811D01*
X124135Y13784D01*
X124111Y13762D01*
X124091Y13742D01*
X124081Y13730D01*
X124076Y13725D01*
X124044Y13686D01*
X124017Y13644D01*
X123995Y13602D01*
X123978Y13563D01*
X123963Y13531D01*
X123953Y13504D01*
X123951Y13494D01*
X123948Y13486D01*
X123946Y13481D01*
Y13479D01*
X123931Y13425D01*
X123921Y13371D01*
X123914Y13319D01*
X123909Y13272D01*
X123906Y13230D01*
X123904Y13213D01*
Y13198D01*
Y13189D01*
Y13179D01*
Y13174D01*
Y13171D01*
X123906Y13095D01*
X123911Y13026D01*
X123919Y12965D01*
X123926Y12913D01*
X123931Y12889D01*
X123936Y12869D01*
X123941Y12852D01*
X123943Y12837D01*
X123946Y12825D01*
X123948Y12817D01*
X123951Y12812D01*
Y12810D01*
X123968Y12756D01*
X123990Y12707D01*
X124012Y12665D01*
X124034Y12628D01*
X124054Y12598D01*
X124071Y12576D01*
X124081Y12564D01*
X124086Y12559D01*
X124120Y12525D01*
X124157Y12493D01*
X124197Y12468D01*
X124231Y12446D01*
X124263Y12431D01*
X124288Y12419D01*
X124298Y12414D01*
X124305Y12411D01*
X124307Y12409D01*
X124310D01*
X124362Y12394D01*
X124418Y12382D01*
X124472Y12374D01*
X124524Y12367D01*
X124568Y12365D01*
X124588D01*
X124605Y12362D01*
X124915D01*
Y13946D01*
D02*
G37*
%LPD*%
D11*
X130374Y85130D02*
Y97728D01*
X111083D02*
X130374D01*
X111083Y85130D02*
Y97728D01*
Y85130D02*
X130374D01*
X130886Y77748D02*
Y83752D01*
X100787Y25000D02*
X113386D01*
Y44291D01*
X100787D02*
X113386D01*
X100787Y25000D02*
Y44291D01*
X93405Y24488D02*
X99409D01*
X93405Y49646D02*
X99417D01*
X100795Y50976D02*
Y70284D01*
X113378D01*
Y50976D02*
Y70284D01*
X100795Y50976D02*
X113378D01*
X172764Y53347D02*
X178571D01*
X199508Y52803D02*
Y58610D01*
X199409Y104232D02*
Y110039D01*
X51417Y94740D02*
X54961D01*
X51417Y106551D02*
X54961D01*
X51417Y94740D02*
Y106551D01*
X54961Y94740D02*
Y106551D01*
X28583Y88878D02*
X34016D01*
D14*
X48524Y93559D02*
G03*
X48524Y93559I-492J0D01*
G01*
M02*
